<?xml version="1.0" standalone="no"?>
<!DOCTYPE svg PUBLIC "-//W3C//DTD SVG 20010904//EN"
 "http://www.w3.org/TR/2001/REC-SVG-20010904/DTD/svg10.dtd">
<svg version="1.0" xmlns="http://www.w3.org/2000/svg"
 width="837.000000pt" height="837.000000pt" viewBox="0 0 837.000000 837.000000"
 preserveAspectRatio="xMidYMid meet">
<metadata>
Created by potrace 1.14, written by Peter Selinger 2001-2017
</metadata>
<g transform="translate(0.000000,837.000000) scale(0.100000,-0.100000)"
fill="#000000" stroke="none">
<path d="M3485 8326 c-28 -20 -21 -61 30 -171 124 -263 148 -319 165 -376 8
-26 6 -25 -99 26 -94 46 -228 101 -271 110 -8 2 -27 8 -42 14 -16 6 -28 8 -28
6 0 -2 -10 -1 -23 4 -13 5 -39 12 -58 15 -19 3 -45 8 -59 11 -48 11 -235 13
-295 4 -118 -19 -250 -82 -261 -126 -9 -35 1 -51 96 -154 94 -103 176 -203
204 -249 l18 -31 -29 6 c-121 22 -363 22 -475 -1 -13 -2 -36 -7 -53 -10 -205
-36 -398 -138 -544 -287 -126 -127 -239 -317 -226 -377 8 -38 28 -44 155 -41
l105 2 -45 -38 c-25 -21 -107 -100 -182 -175 -76 -76 -142 -138 -147 -138 -5
0 -13 -10 -17 -22 -5 -19 -61 -96 -84 -118 -38 -36 -230 -312 -295 -425 -109
-186 -205 -386 -268 -555 -111 -299 -162 -499 -212 -835 -2 -16 -7 -57 -10
-90 -4 -33 -8 -73 -10 -90 -2 -16 -4 -42 -4 -57 l-1 -26 -47 14 c-61 18 -99 5
-108 -36 -10 -48 8 -66 83 -84 l68 -17 0 -127 c0 -140 7 -253 29 -445 2 -26 1
-47 -3 -48 -185 -12 -213 -26 -196 -92 6 -26 51 -50 77 -42 13 4 147 15 147
12 0 -1 7 -36 16 -77 9 -41 17 -83 19 -92 11 -52 69 -257 98 -348 68 -205 195
-489 308 -681 l41 -70 -46 -49 c-62 -67 -71 -93 -49 -139 27 -54 77 -74 184
-73 l86 2 59 -76 c192 -249 474 -527 695 -687 345 -250 636 -405 999 -531 127
-45 392 -118 470 -130 19 -3 60 -10 90 -16 106 -20 213 -34 400 -49 104 -9
450 -7 545 3 197 21 224 25 375 52 975 179 1832 749 2387 1586 46 71 90 128
96 129 60 4 120 26 147 54 31 33 28 74 -8 127 l-29 43 21 40 c30 57 111 239
137 310 12 33 33 71 46 85 18 18 23 32 20 53 -2 16 11 81 30 145 37 126 86
343 99 432 4 30 8 57 9 60 4 15 16 111 20 150 2 25 7 77 10 115 4 39 8 154 9
257 0 102 3 188 6 191 3 2 43 8 90 11 168 14 180 18 192 63 4 15 -1 32 -15 49
-19 24 -24 26 -76 20 -122 -13 -199 -17 -204 -9 -3 4 -8 42 -12 83 -4 41 -9
82 -10 91 -2 9 -6 40 -10 70 -8 68 -52 287 -71 356 -9 29 -17 63 -19 76 -9 48
-88 277 -142 412 -116 288 -297 602 -484 842 l-49 62 52 156 c46 140 50 158
38 181 -8 13 -24 27 -36 30 -19 5 -143 -36 -169 -57 -6 -4 -33 -17 -62 -28
l-51 -20 -79 77 c-90 87 -173 160 -280 245 -40 32 -74 64 -74 70 -1 7 -3 28
-5 47 -7 82 -57 241 -108 345 -99 203 -244 363 -420 464 -66 38 -181 84 -237
95 -104 21 -131 25 -183 31 -245 29 -436 -11 -717 -150 l-127 -62 -27 83 c-15
46 -36 93 -46 105 -10 12 -19 25 -19 28 0 11 -93 105 -140 143 -108 84 -267
157 -520 239 -91 29 -196 65 -234 81 -78 32 -94 34 -121 14z"/>
</g>
</svg>
