<svg xmlns="http://www.w3.org/2000/svg" viewBox="0 0 309.12 306.09">
  <path d="M305.5 1.48c-6.66 109.41 8.55 200.94-1.31 302.46-133.63.01-199.56.67-302.26 0C9.25 229.95-4.58 17.21 5.06 5.63c0 0 292.64-2.44 300.44-4.14Z" fill="#68785b"/>
  <path d="M304 1.48c-1.25 20.71-1.77 41.45-1.75 62.19s.51 39.57 1.15 59.35 1.4 38.5 1.96 57.75.9 38.26.69 57.39-1.02 38.89-2.68 58.27c-.21 2.51-.44 5.01-.69 7.51l1.5-1.5c-23.76 0-47.52.03-71.28.07-20.16.03-40.31.08-60.47.13-18.1.04-36.21.08-54.31.1a15451.22 15451.22 0 0 1-108.81-.24c-2.46-.01-4.93-.03-7.39-.05l1.5 1.5c.83-8.38 1.26-16.8 1.58-25.21.39-10.4.55-20.8.62-31.21.08-11.84.03-23.67-.09-35.51-.12-12.53-.32-25.06-.55-37.58s-.5-25.3-.76-37.94c-.25-12.14-.51-24.29-.73-36.43-.2-11.01-.37-22.03-.45-33.04-.07-9.26-.08-18.52.07-27.77.12-6.91.3-13.82.85-20.71.32-3.97.44-7.43 1.84-11.23.11-.3-.17.32.02-.05.05-.1.1-.21.15-.31.13-.25.44-.64.14-.26l-1.06.44c2.62-.02 5.24-.04 7.86-.07 7.14-.06 14.27-.12 21.41-.19 10.53-.1 21.06-.19 31.59-.29 12.92-.12 25.84-.25 38.77-.38 14.2-.14 28.41-.29 42.61-.45 14.35-.16 28.71-.32 43.06-.5 13.53-.17 27.06-.34 40.59-.53 11.57-.16 23.15-.34 34.72-.55 8.51-.15 17.03-.31 25.54-.54 4.43-.12 8.9-.14 13.32-.52.46-.04.94-.08 1.39-.17 1.89-.4 1.09-3.29-.8-2.89-.42.09.06 0 .02 0l-.55.06c-.53.05-1.06.08-1.6.11-1.78.1-3.56.17-5.34.23-5.99.21-11.98.34-17.98.47-8.63.18-17.26.33-25.88.47-10.64.17-21.27.33-31.91.47-11.91.16-23.83.31-35.74.46-12.44.15-24.88.29-37.31.43-12.37.14-24.73.27-37.1.39-11.54.12-23.09.23-34.63.34-9.98.1-19.97.19-29.95.28l-23.42.21c-4.89.04-9.77.09-14.66.13-1.13 0-2.25.02-3.38.03s-1.87.47-2.39 1.52c-.82 1.64-1.16 3.53-1.45 5.33-.48 2.94-.75 5.91-.97 8.88-.63 8.7-.76 17.46-.83 26.21-.1 11.85 0 23.7.17 35.55.19 13.99.47 27.98.76 41.98.31 15.02.64 30.04.92 45.07s.53 29.85.67 44.78c.13 13.89.17 27.78 0 41.66-.14 11.72-.42 23.45-1.09 35.16-.26 4.56-.59 9.12-1.04 13.67-.08.81.75 1.5 1.5 1.5 18.9.12 37.8.21 56.7.26 17.65.04 35.31.05 52.96.04 17.96-.01 35.92-.05 53.88-.09 19.82-.04 39.63-.09 59.45-.13 23.23-.04 46.46-.07 69.69-.08h9.59c.87 0 1.42-.69 1.5-1.5 1.88-19.44 2.89-38.95 3.26-58.47s.12-38.29-.38-57.43-1.26-38.42-1.92-57.63-1.24-39.38-1.37-59.08.2-41.19 1.26-61.76c.14-2.7.29-5.39.45-8.08.12-1.93-2.88-1.92-3 0Z"/>
  <path d="M64.43 226.14c2.21-20.97 5.4-41.83 9.56-62.5 4.27-21.24 9.57-43 5.66-64.31 6.59 3.4 23.01 15.42 25.55 16.41 2.19.85 20.71-.54 33.36 1.38 27.37 4.15 41.08 3.07 42.03 3.32 1.09.29 2.25-1.94 3.36-2.18 6.93-1.47 26.72 2.43 33.65.95-3.86 7.29-15.55 32.32-16.38 34.8-2.63 7.9-3.69 15.41-5.75 23.28-6 22.89-12.23 49.15-18.34 71.32" fill="#fff"/>
  <path d="M66.53 226.14c1.78-16.8 4.19-33.53 7.22-50.15s7.17-32.65 8.77-49.27c.9-9.33.82-18.72-.85-27.96l-3.08 2.37c8.37 4.36 15.75 10.47 23.76 15.42 1.04.64 2.05 1.23 3.28 1.39 1.8.24 3.64.2 5.46.2 6.12 0 12.25-.09 18.37.22 7.29.37 14.47 1.71 21.72 2.53 5.87.66 11.76 1.16 17.67 1.42 3.22.14 6.45.19 9.68.18.52 0 1.4.18 1.9.02.08-.03-.93-.09-.11-.01s1.55-.05 2.28-.5c.6-.37 1.08-.9 1.59-1.38.47-.44.28-.33.87-.43.39-.07-.2.01.22-.03l.63-.06c.54-.04 1.08-.06 1.63-.07 1.21-.02 2.42.01 3.63.07 2.77.13 5.54.37 8.3.62 5.2.47 10.51 1.18 15.74.88.99-.06 1.98-.17 2.95-.36l-2.37-3.08c-2.91 5.49-5.53 11.14-8.18 16.75s-5.19 10.94-7.57 16.49c-1.44 3.36-2.35 6.91-3.19 10.47-1.34 5.66-2.49 11.36-3.96 16.99-2.85 10.95-5.58 21.93-8.35 32.9-3.05 12.12-6.12 24.24-9.44 36.29-.72 2.61 3.33 3.72 4.05 1.12 5.93-21.53 11.1-43.26 16.67-64.88 1.43-5.55 2.81-11.08 4.03-16.68.99-4.56 1.92-9.27 3.62-13.63.05-.13.11-.25.16-.38-.26.64 0 .01.06-.13a222.569 222.569 0 0 1 2.19-4.89c1.38-3.04 2.79-6.07 4.21-9.09 3.02-6.44 6-12.92 9.33-19.2.89-1.68-.57-3.45-2.37-3.08-.18.04-.36.07-.53.1-.34.06.15 0-.33.04s-.96.08-1.44.1c-1.12.05-2.24.03-3.36 0-2.72-.09-5.44-.32-8.15-.56-5.29-.47-10.63-1.16-15.95-1.02-1.06.03-2.12.11-3.17.27-1.29.2-2.2.85-3.12 1.75-.08.08-.64.51-.64.6 0-.06.79-.15.76-.05 0 .03-.58-.08-.72-.09-.23-.02-.47-.02-.71-.02-2.54-.03-5.09 0-7.63-.07-5.15-.14-10.3-.48-15.43-.97-7.29-.69-14.49-1.98-21.77-2.7-6.4-.64-12.85-.65-19.27-.63-2.39 0-4.78.04-7.17 0-.76-.02-1.51-.07-2.26-.11-.39-.02.42.1.09.01-.04-.01-.29-.09-.32-.06 0 0-.52-.14.01.02.39.12.05.02-.06-.04-7.84-4.56-14.98-10.25-22.78-14.89-.79-.47-1.58-.92-2.39-1.34-1.71-.89-3.41.57-3.08 2.37 2.92 16.21.42 32.75-2.73 48.73s-6.55 32.71-8.98 49.24c-1.39 9.4-2.58 18.83-3.58 28.28-.12 1.13 1.05 2.1 2.1 2.1 1.23 0 1.98-.97 2.1-2.1Z"/>
  <path d="M138.38 193.81c-2.84-3.97-6.63-8.16-7.53-13.1l-2.02 2.66c6.51-.56 13.16.58 19.54 1.74.34.06.68.12 1.02.19.17.03.33.07.5.11.34.13.42.15.25.05-.08-.15-.32.59-.48.81-.85 1.24-2.34 2.18-3.58 2.99-2.94 1.9-6.16 3.15-9.6 3.81-.89.17-1.55 1.16-1.54 2.02.04 4.35-.57 8.59-1.85 12.75-.79 2.59 3.26 3.7 4.05 1.12 1.37-4.49 2.04-9.17 2-13.86l-1.54 2.02c4.22-.81 8.31-2.53 11.79-5.05 1.64-1.19 3.33-2.46 4.26-4.32s.86-4.29-1.01-5.64c-1.52-1.09-3.73-1.17-5.52-1.48-2.04-.34-4.08-.65-6.13-.92-4.02-.52-8.11-.9-12.16-.56-1.44.12-2.28 1.24-2.02 2.66.97 5.33 4.89 9.83 7.96 14.11.66.92 1.83 1.36 2.87.75.91-.53 1.42-1.95.75-2.87Z"/>
  <path d="M134.94 195.09c.05 4.63-.49 9.31-1.85 13.75l2.58-1.47c-6.21-1.3-12.48-3.01-18.86-3.14-2.7-.05-2.7 4.15 0 4.2 6.01.12 11.89 1.76 17.74 2.99 1.14.24 2.23-.33 2.58-1.47 1.46-4.77 2.06-9.89 2-14.86-.03-2.7-4.23-2.71-4.2 0Z"/>
  <path d="M134.63 211.75c2.68.58 5.5.53 8.22.65 1.63.07 3.25.15 4.87.29.38.03.75.07 1.13.11.2.02.41.04.61.07.15.02.55.07.19.02.75.1 1.49.24 2.22.4 1.28.29 2.62-.39 2.98-1.69.34-1.22-.41-2.69-1.69-2.98-3.21-.73-6.54-.9-9.82-1.04-1.51-.07-3.02-.12-4.53-.2-.63-.04-1.25-.08-1.88-.14-.21-.02-1.07-.2-.35-.03-.23-.05-.46-.08-.69-.13-1.28-.28-2.62.38-2.98 1.69-.33 1.21.41 2.71 1.69 2.98Z"/>
  <path d="M156.96 162.8c-1.04 3-.34 6.41 1.97 8.59 2.05 1.93 4.93 3.14 7.53 3.11 5.75-.07 10.42-4.69 10.16-9.48-.19-3.45-2.2-5.26-2.91-5.68-4.1-2.4-9.72-3.63-13.86-1.04-1.35.85-2.29 2.82-2.88 4.52Z" fill="#7eab63"/>
  <path d="M154.93 162.24c-1.68 5.15.8 10.31 5.5 12.78 4.36 2.29 9.64 2 13.61-.99 3.74-2.82 5.77-7.61 4.05-12.17-.63-1.67-1.67-3.25-3.17-4.25-1.86-1.23-4.18-2.08-6.36-2.51-2.84-.56-5.76-.48-8.44.69-2.82 1.23-4.19 3.66-5.18 6.46-.38 1.07.43 2.3 1.47 2.58 1.16.32 2.2-.39 2.58-1.47.55-1.55 1.23-3 2.7-3.7s3.28-.84 4.94-.64 3.42.77 4.95 1.55c.37.19.73.39 1.09.6.44.25-.11-.17.08.05.13.16.31.29.45.45-.02-.02.36.44.2.22-.1-.13.21.32.25.39 1.57 2.55.89 5.52-1.17 7.57-2.28 2.28-5.66 3.1-8.72 2.07-1.77-.59-3.54-1.78-4.46-3.44s-.88-3.43-.33-5.13c.84-2.58-3.21-3.68-4.05-1.12Z"/>
  <path d="M107.74 154.84c-.35 2.04.33 4.54 1.43 6.29 2.28 3.61 9.58 4.93 13.29 3.07s5.15-6.48 4.33-10.35c-.44-2.08-1.67-3.61-3.14-5.14 0 0-6.33-4.75-11.17-1.51-2.75 1.84-3.99 3.25-4.74 7.65Z" fill="#78c9f0"/>
  <path d="M105.71 154.28c-.42 2.84.2 5.96 1.93 8.31 1.41 1.92 3.55 3.11 5.79 3.81 4.55 1.43 10.06 1 13.16-3 1.61-2.07 2.45-4.65 2.51-7.27.07-2.93-1.01-5.48-2.87-7.7-2.29-2.75-6.23-4.42-9.78-4.47-2.87-.04-5.39 1.34-7.43 3.27s-2.84 4.43-3.3 7.05c-.2 1.12.3 2.26 1.47 2.58 1.01.28 2.39-.34 2.58-1.47.18-1 .39-2 .73-2.96.07-.21.2-.51.42-.89.1-.18.21-.34.32-.51.24-.36-.16.16.15-.2 1.03-1.19 2.23-2.18 3.81-2.56 1.46-.35 3.05.02 4.65.67-.36-.15.25.11.26.12.15.07.29.14.44.21.28.14.56.29.84.45.37.22.77.44 1.11.7.18.14.02.11-.1-.03.32.39.7.74 1.01 1.14.67.85 1.15 1.8 1.38 2.86.33 1.53.09 3.46-.58 4.93-.37.81-.81 1.47-1.4 2.06-.26.26-.5.45-.74.61-.21.14-.43.26-.65.38-.41.22.19-.05-.22.1-1.44.51-3.08.57-4.5.36-1.02-.15-2.06-.41-3.02-.81-.51-.21-1.57-.83-1.94-1.17-.15-.14-.3-.29-.44-.44-.42-.44.17.29-.17-.2s-.6-.99-.8-1.52c-.38-1.01-.69-2.22-.53-3.31s-.28-2.26-1.47-2.58c-.99-.27-2.42.34-2.58 1.47Z"/>
  <path d="M113.83 154.94c-.06.53 0 1.08.11 1.59.07.33.22.65.36.95s.37.57.58.81c.43.49 1.12.88 1.76 1.02.36.08.76.14 1.13.12.29-.01.58-.06.87-.1.08-.01.16-.03.23-.06.48-.18.85-.38 1.22-.74.23-.23.43-.49.58-.77.35-.65.49-1.27.56-2 .02-.18.01-.36 0-.55-.04-.34-.07-.7-.19-1.02-.09-.24-.18-.48-.3-.7s-.3-.43-.47-.63c-.05-.06-.1-.11-.16-.16-.19-.17-.4-.34-.62-.47-.29-.17-.62-.31-.95-.37s-.69-.12-1.04-.08-.7.07-1.03.2-.66.25-.95.44-.57.4-.81.65c-.06.06-.11.13-.17.19-.16.2-.33.4-.46.62-.33.55-.55 1.28-.5 1.92.05.57.15.96.41 1.48.05.09.1.18.16.26.16.22.32.44.51.64.06.07.13.13.21.18.2.16.4.34.63.46s.46.22.7.3c.08.03.16.05.25.07.33.06.68.12 1.01.09s.67-.06.98-.17.64-.24.92-.43c.26-.18.54-.38.75-.62.43-.49.81-1.07.92-1.72.1-.59.11-.96 0-1.55 0-.03-.01-.06-.02-.09-.04-.15-.15-.39-.22-.53 0-.02-.01-.03-.02-.05-.06-.1-.13-.18-.2-.28s-.14-.2-.23-.29c-.13-.13-.32-.26-.47-.37l-.09-.06c-.21-.12-.44-.21-.67-.28-.29-.09-.62-.14-.93-.12-.45.03-.93.11-1.32.35-.28.18-.47.35-.66.6-.21.27-.16.18-.29.5s-.11.22-.15.57c-.04.33-.04.6.06.93.11.41.34.73.62 1.04.35.39.97.62 1.48.62s1.13-.23 1.48-.62.64-.93.62-1.48-.23-1.06-.62-1.48c-.01-.01-.02-.03-.03-.04l.33.43s-.03-.05-.05-.07l.21.5s-.02-.04-.02-.07l.08.56v-.03l-.08.56s0-.03.01-.04l-.21.5s.01-.03.02-.04l-.33.43.03-.03-.43.33s.05-.03.07-.04l-.5.21c.05-.02.11-.03.16-.04l-.56.08c.09-.01.18 0 .27 0l-.56-.08c.09.01.17.04.25.07l-.5-.21c.06.03.12.06.18.1l-.43-.33s.07.07.1.11l-.33-.43s.04.07.06.11l-.21-.5c.02.06.03.11.04.17l-.08-.56c.01.12.01.23 0 .35l.08-.56c-.02.13-.05.26-.1.39l.21-.5c-.05.12-.12.24-.2.35l.33-.43c-.1.12-.2.23-.33.33l.43-.33c-.13.1-.26.17-.4.24l.5-.21c-.15.06-.3.1-.45.13l.56-.08c-.15.02-.29.02-.44 0l.56.08c-.13-.02-.25-.05-.37-.1l.5.21c-.13-.05-.24-.12-.36-.2l.43.33c-.13-.1-.25-.22-.35-.35l.33.43a2.02 2.02 0 0 1-.24-.4l.21.5a1.29 1.29 0 0 1-.08-.28l.08.56a.97.97 0 0 1 0-.34l-.08.56c.02-.13.05-.25.1-.36l-.21.5c.06-.14.14-.27.23-.4l-.33.43c.12-.15.26-.29.41-.41l-.43.33c.17-.13.35-.23.54-.31l-.5.21c.17-.07.34-.12.52-.14l-.56.08c.14-.02.29-.02.43 0l-.56-.08c.12.02.23.05.35.1l-.5-.21c.1.05.2.1.29.17l-.43-.33c.09.07.16.15.23.23l-.33-.43c.07.1.13.2.18.31l-.21-.5c.07.17.12.35.14.53l-.08-.56c.03.22.02.45 0 .67l.08-.56c-.03.22-.09.43-.17.63l.21-.5c-.06.15-.14.28-.23.41l.33-.43c-.06.08-.14.16-.22.22l.43-.33c-.06.04-.12.08-.18.11l.5-.21c-.09.04-.18.05-.27.07l.56-.08c-.23.03-.47.04-.7 0l.56.08c-.15-.02-.29-.06-.43-.11l.5.21c-.12-.05-.24-.12-.35-.2l.43.33c-.1-.08-.19-.17-.27-.27l.33.43c-.09-.12-.16-.25-.22-.39l.21.5c-.08-.19-.13-.38-.16-.58l.08.56c-.04-.28-.03-.56 0-.83.01-.29-.05-.56-.18-.81a1.58 1.58 0 0 0-.43-.68c-.36-.36-.96-.64-1.48-.62s-1.11.2-1.48.62l-.33.43c-.19.33-.29.68-.29 1.06ZM162.39 165.72c-.26.76-.18 1.65.21 2.34s1.04 1.12 1.78 1.39c.49.18 1.04.23 1.55.23.59 0 1.19-.09 1.75-.25 1.1-.3 2.28-.89 3-1.79.52-.65.88-1.33.99-2.16.12-.89-.08-1.71-.45-2.52-.6-1.31-1.86-2.23-3.28-2.46-1.49-.24-3.13-.05-4.39.84-1.47 1.03-2.36 2.69-2.17 4.52.02.19.05.53.08.61.05.17.15.36.22.52.03.08.07.15.11.23.17.29.38.56.61.81.4.43.89.74 1.42.96 1.11.47 2.41.46 3.46-.16 1.19-.7 1.8-2 1.92-3.33.09-1.07-.3-2.32-1.14-3.02-.6-.51-1.3-.81-2.09-.81-.96 0-1.5.46-2 1.16-.58.82-.85 1.87-.6 2.85.18.72.77 1.41 1.44 1.71.52.23 1 .36 1.57.21.47-.13.98-.49 1.22-.93.25-.47.37-1.04.21-1.57-.15-.47-.46-1.01-.93-1.22a1.23 1.23 0 0 1-.25-.14l.41.32s-.09-.08-.13-.12l.32.41a.724.724 0 0 1-.11-.19l.21.49c-.02-.05-.03-.1-.04-.15l.07.54c-.01-.09 0-.17 0-.26l-.07.54c.02-.13.06-.25.1-.36l-.21.49c.1-.23.23-.44.38-.64l-.32.41s.03-.04.05-.06l-1.44.6h.32l-.54-.07c.08.01.15.03.22.06l-.49-.21c.09.04.17.08.25.14l-.41-.32c.08.06.14.13.2.2l-.32-.41c.09.11.15.23.21.36l-.21-.49c.06.14.09.28.12.44l-.07-.54c.03.21.03.41 0 .62l.07-.54c-.03.22-.09.43-.17.64l.21-.49a2.7 2.7 0 0 1-.3.52l.32-.41c-.08.1-.18.19-.28.28l.41-.32c-.1.08-.21.14-.33.19l.49-.21c-.14.06-.27.1-.42.12l.54-.07c-.17.02-.33.02-.5 0l.54.07c-.19-.03-.38-.08-.56-.15l.49.21c-.19-.08-.36-.18-.52-.31l.41.32c-.14-.12-.27-.25-.38-.39l.32.41c-.11-.16-.21-.32-.28-.5l.28 1.03c-.04-.32-.04-.63 0-.95l-.07.54c.04-.24.1-.47.19-.7l-.21.49c.09-.21.2-.4.34-.58l-.32.41c.16-.2.34-.38.54-.54l-.41.32c.23-.17.49-.32.75-.43l-.49.21c.32-.13.65-.22.99-.27l-.54.07c.37-.05.74-.05 1.11 0l-.54-.07c.29.04.56.11.83.22l-.49-.21c.21.09.4.2.58.33l-.41-.32c.12.1.23.21.33.33l-.32-.41c.16.21.29.45.39.7l-.21-.49c.08.21.15.42.18.64l-.07-.54c.02.18.03.36 0 .54l.07-.54c-.02.17-.07.33-.13.49l.21-.49c-.08.18-.18.35-.3.5l.32-.41c-.15.19-.33.36-.52.51l.41-.32c-.28.22-.6.39-.93.53l.49-.21c-.43.18-.87.3-1.33.36l.54-.07c-.35.04-.7.06-1.05.01l.54.07c-.19-.03-.39-.07-.57-.15l.49.21c-.1-.04-.19-.09-.27-.15l.41.32c-.06-.05-.12-.1-.17-.16l.32.41a.95.95 0 0 1-.1-.17l.21.49a.734.734 0 0 1-.05-.2l.07.54v-.26l-.07.54c.01-.09.04-.17.07-.26.34-1.01-.39-2.27-1.42-2.5-1.13-.26-2.14.34-2.5 1.42ZM156.02 151.73c10.69-.44 21.5-.74 31.22 4.43 2.39 1.27 4.51-2.36 2.12-3.63-5.19-2.76-10.77-4.29-16.59-4.91s-11.17-.32-16.75-.1c-2.69.11-2.71 4.31 0 4.2ZM137.9 143.88c-6.16-2.69-12.45-5.33-19.03-6.84-4.63-1.06-9.34-1.4-14.08-1.14-2.88.16-5.74.48-8.6.8-1.13.12-2.1.88-2.1 2.1 0 1.04.97 2.23 2.1 2.1 4.67-.52 9.38-1.06 14.09-.85s9.47 1.38 14.08 2.94c3.88 1.31 7.67 2.87 11.42 4.51 1.04.45 2.25.31 2.87-.75.52-.89.29-2.42-.75-2.87Z"/>
  <path d="M68.69 127.68c-10.29 39.18-1.12 53.28 18.07 64.67-3.01-10.81-3.51-31.18-2.01-42.3.92-6.86 6.38-23.26 32.19-23.26 11.97 0 23.36 4.49 35.32 4.56 11.97.07 24.49-1.73 34.19-8.74-2.64 2.1 5.98 8.66 8.67 15.28 8.53 21.02-1.2 45.43-6.03 64.34 9.16-2.46 18.21-23.5 22.76-31.82 4.55-8.32 19.91-28.04 16.79-55.15-1.6-13.94-8.68-35.08-41.26-37.19-6.31-.41-14.82-16.93-45.86-21.76-19.36-3.01-39.71 4.59-48.36 12.16-20.33 17.78-31.68 49.1-19.69 81.99" fill="#c69e47"/>
  <path d="M66.67 127.12c-3.1 11.87-5.56 24.51-3.73 36.79 1.24 8.33 5.08 15.89 11.17 21.72 3.47 3.33 7.47 6.08 11.59 8.53 1.58.94 3.57-.61 3.08-2.37-1.33-4.83-1.91-9.85-2.3-14.83-.43-5.58-.56-11.19-.39-16.78.07-2.53.21-5.06.46-7.57.06-.58.12-1.16.19-1.74.02-.18.04-.37.07-.55-.06.41 0 .02 0-.06a26.73 26.73 0 0 1 1.25-4.9c.1-.27.2-.53.3-.8.06-.16.13-.33.2-.49-.19.46.05-.1.07-.16.3-.65.61-1.29.96-1.92 1.52-2.74 3.47-5.07 5.91-6.98 3.32-2.6 7.31-4.2 11.4-5.12 13.21-2.96 26.06 1.67 39.11 3.16 7.24.83 14.74.44 21.91-.82s13.8-3.67 19.59-7.81l-2.54-3.3c-3.37 2.95 1.54 7.92 3.36 10.19 1.56 1.95 3.11 3.92 4.28 6.13 1.35 2.55 2.13 5.5 2.73 8.31 2.62 12.14.13 24.79-2.95 36.6-1.69 6.46-3.66 12.85-5.32 19.32-.39 1.53 1.02 3.03 2.58 2.58 5.09-1.44 8.73-6.24 11.6-10.38 3.47-5.02 6.29-10.47 9.05-15.9 1.9-3.74 3.84-7.42 6.03-11 2.64-4.31 5.19-8.68 7.35-13.26 5.89-12.51 8.72-26.21 6.86-40.01-1.13-8.35-4.01-16.43-9.43-22.97-7.63-9.21-19.29-13.33-30.88-14.53-.88-.09-1.76-.17-2.65-.23-.77-.04.35.16-.37-.05-.2-.06-.4-.13-.61-.19-.44-.12.37.18.07.03-.13-.06-.26-.12-.39-.19-1.09-.55-2.09-1.3-3.06-2.04.34.26.02.01-.13-.1s-.3-.23-.44-.35c-.31-.25-.62-.49-.93-.74-.68-.54-1.35-1.09-2.03-1.62-1.7-1.35-3.42-2.66-5.2-3.9-10.47-7.3-22.97-11.63-35.64-12.97-8.11-.86-16.42 0-24.3 2.05-6.7 1.74-13.4 4.37-19.17 8.25-5.27 3.54-9.69 8.39-13.53 13.4-4.21 5.51-7.58 11.6-10.13 18.04-5.5 13.89-6.58 29.26-3.57 43.86.81 3.93 1.93 7.79 3.29 11.56.39 1.07 1.43 1.78 2.58 1.47 1.03-.28 1.85-1.51 1.47-2.58-5.04-13.95-6.32-29.07-2.8-43.53 3.11-12.77 9.73-24.61 19.13-33.81s23.31-13.79 36.39-14.68c13.4-.91 27.48 2.63 39.09 9.35 2.01 1.16 3.95 2.42 5.83 3.77 1.67 1.2 2.73 2.03 4.26 3.24 2.18 1.74 4.34 3.78 6.86 5.02 1.52.75 2.88.87 4.56 1.01 3.31.28 6.6.8 9.82 1.64 5.11 1.32 10.07 3.47 14.26 6.69 6.72 5.18 10.65 12.51 12.56 20.55.39 1.62.77 3.77.96 5.1l.06.45.06.54c.12 1 .21 2.01.27 3.01.13 1.94.17 3.89.12 5.84-.18 6.79-1.53 13.47-3.76 19.88-1.84 5.28-4.29 10.31-7.06 15.16-1.95 3.41-4.14 6.69-6.04 10.13-2.5 4.54-4.68 9.26-7.18 13.8-2.71 4.94-5.62 10.05-9.66 14.03-1.4 1.38-3.06 2.62-4.7 3.09l2.58 2.58c2.96-11.56 6.87-22.9 8.57-34.76.87-6.05 1.25-12.19.53-18.28-.67-5.69-2.03-11.67-5.23-16.51-1.55-2.34-3.39-4.45-5.09-6.67-.59-.77-1.15-1.56-1.62-2.41-.03-.05-.26-.65-.12-.23-.04-.11-.07-.22-.1-.33-.04-.2-.05-.21-.01-.03.02 0 .07-.01-.01.27-.14.29-.16.33-.05.14-.19.24-.2.27-.04.11 1.77-1.55-.59-4.69-2.54-3.3-5.25 3.75-11.27 5.98-17.57 7.19s-12.9 1.58-19.28 1.1c-7.21-.54-14.23-2.43-21.37-3.51-6.51-.99-13.05-1.25-19.56-.1-8.3 1.46-16.01 5.64-20.69 12.79-3.54 5.42-4.46 11.46-4.85 17.79s-.33 12.7.08 19.02c.38 5.96.99 12.04 2.58 17.81l3.08-2.37c-6.56-3.91-12.7-8.58-16.54-15.1-4.43-7.52-5.2-16.58-4.55-25.35.56-7.39 2.12-14.69 3.99-21.85.68-2.62-3.37-3.73-4.05-1.12Z"/>
  <path d="M114.55 177.14c-15.3-2.39-30.58-4.9-45.91-7.12-4.12-.6-8.24-1.17-12.36-1.7-1.13-.15-2.1 1.07-2.1 2.1 0 1.26.97 1.95 2.1 2.1 15.11 1.95 30.15 4.4 45.19 6.78 3.99.63 7.98 1.27 11.97 1.89 1.12.17 2.26-.29 2.58-1.47.27-1-.34-2.41-1.47-2.58ZM107.09 167.79c-8.12-1.32-16.2-2.94-24.17-5.03-7.87-2.07-15.72-4.55-23.04-8.15-2.42-1.19-4.55 2.43-2.12 3.63 14.99 7.37 31.83 10.94 48.21 13.61 1.12.18 2.26-.29 2.58-1.47.28-1-.34-2.4-1.47-2.58ZM165.7 183.06c21.01-.01 42 1.3 62.85 3.92 1.13.14 2.1-1.07 2.1-2.1 0-1.25-.97-1.96-2.1-2.1a502.046 502.046 0 0 0-62.85-3.92c-2.7 0-2.71 4.2 0 4.2ZM164.63 189.45c16.8 3.1 33.42 7.05 49.82 11.85 2.6.76 3.71-3.29 1.12-4.05-16.39-4.8-33.02-8.75-49.82-11.85-1.11-.21-2.26.31-2.58 1.47-.28 1.02.35 2.38 1.47 2.58ZM127.08 129.6c13.09 1.18 26.5-3.97 35.48-13.55 1.85-1.97-1.12-4.95-2.97-2.97-8.3 8.85-20.44 13.41-32.51 12.32-2.69-.24-2.67 3.96 0 4.2Z"/>
  <path d="M83.16 139.64c-1.67 7.82 3.73 20.39 9.22 26.2.35.37.74.79.76 1.3.04.98-1.18 1.47-2.16 1.54-3.86.28-9.81-5.49-12.18-8.54" fill="#c69e47"/>
  <path d="M81.13 139.09c-1.27 6.34.84 13.04 3.52 18.74 1.36 2.9 3.03 5.65 5.05 8.14.32.4.85 1.26 1.32 1.51.56.29.32-1.02.33-1.01-.06-.01-.25.11-.33.1-.21-.01-.43.04-.64.01-.9-.09-2.15-.78-3.06-1.35-2.69-1.71-5.08-4.07-7.04-6.57-.7-.89-2.24-.73-2.97 0-.88.88-.7 2.07 0 2.97 2 2.54 4.41 4.81 7.06 6.67s6.26 3.58 9.25 1.69c2.14-1.35 1.85-3.77.37-5.48-1.01-1.17-1.97-2.31-2.82-3.61-2.01-3.06-3.62-6.41-4.74-9.9s-1.97-7.23-1.25-10.8c.53-2.64-3.52-3.77-4.05-1.12ZM69.64 187.43c3.06 15.45 20.35 37.59 35.2 42.84 22.55 7.97 61.39 7.91 76.36 3.03-8.61 25.26 28.04 28.36 26.64 68.91-.04 1.19-206.12 3.5-205.91 1.73 4.11-35.6.56-74.69 5.25-84.12 16.58-3.93 24.06.2 40.94-2.2 3.98-9.92 14.91-17.17 21.53-30.2"/>
  <path d="M68.2 187.83c1.8 8.91 6.8 17.19 12.29 24.3s12.4 14.19 20.67 18.21c3.78 1.84 7.94 2.95 12.02 3.91 4.63 1.09 9.33 1.87 14.05 2.47 9.58 1.22 19.28 1.66 28.93 1.39 8.44-.24 17.36-.74 25.45-3.35l-1.85-1.85c-1.97 5.86-1.74 11.85 1.12 17.36s7.05 9.55 10.89 13.98c4.57 5.26 8.77 10.91 11.33 17.44 1.57 4.01 2.58 8.24 3 12.53.06.65.39 7.64.25 7.63-.19-.01.74-.93.7-.9.03-.02.48-.2.3-.13-.06.02-.13.01-.19.04.58-.21.06-.01-.26.01s-.65.05-.98.07c-1.01.06-2.02.1-3.03.14-3.21.13-6.42.21-9.63.29-10.33.26-20.66.44-31 .6-13.52.22-27.04.39-40.56.55-14.42.16-28.84.3-43.26.4-13.03.09-26.07.16-39.1.17-9.23 0-18.47.01-27.71-.14-2.52-.04-5.05-.08-7.58-.22-.35-.02-.7-.04-1.05-.07-.13-.01-.26-.03-.39-.04-.44-.03.34.11.06 0-.4-.14-.16-.07.01.06.37.28.45.49.67.87.27.48 0 .41.1-.06.2-.86.2-1.83.29-2.71.17-1.66.33-3.33.47-4.99 1.08-12.75 1.35-25.55 1.52-38.33.13-9.82-.05-19.75 1.05-29.52.16-1.43.37-2.85.68-4.25.24-1.08.63-2.39.98-3.1l-.9.69c5.38-1.26 10.8-1.81 16.32-1.73 4.96.07 9.91.48 14.88.36 2.97-.07 5.92-.32 8.86-.71.72-.1 1.36-.13 1.77-.81.26-.43.41-.98.63-1.43.48-1 1.02-1.96 1.6-2.9 2.48-3.97 5.7-7.42 8.74-10.96 3.99-4.64 7.76-9.46 10.56-14.91.88-1.71-1.71-3.23-2.59-1.51-3.12 6.07-7.43 11.24-11.87 16.37-3.78 4.36-7.6 8.79-9.81 14.19l1.05-1.05c-6.2.86-12.39.8-18.62.54-5.83-.25-11.6-.26-17.38.68-.88.14-1.75.3-2.62.48-.81.16-1.96.22-2.67.66s-.94 1.38-1.19 2.1c-.47 1.34-.76 2.76-.99 4.16-.69 4.23-.92 8.53-1.08 12.81-.48 12.31-.36 24.64-.75 36.96-.22 7.09-.57 14.17-1.17 21.24-.14 1.67-.3 3.33-.47 4.99-.09.9-.25 1.81-.29 2.71-.02.46-.08.81.16 1.22s.65.65 1.11.77c1.65.45 3.62.3 5.31.35 3.57.11 7.15.15 10.73.18 11.43.1 22.85.08 34.28.04 14.87-.05 29.75-.16 44.62-.29 15.38-.14 30.76-.31 46.14-.52 12.93-.17 25.87-.37 38.8-.63 7.74-.16 15.49-.26 23.23-.64 1.54-.07 4.2.25 4.49-1.77.36-2.55.01-5.45-.24-8s-.65-4.98-1.24-7.42a48.874 48.874 0 0 0-4.69-11.94c-3.54-6.41-8.49-11.78-13.27-17.27-3.74-4.3-7.63-9.03-8.39-14.83-.39-2.96.16-6.15 1.13-9.05.36-1.07-.79-2.19-1.85-1.85-6.75 2.17-14.06 2.75-21.1 3.1-9.37.46-18.8.2-28.13-.75-8.79-.89-17.68-2.36-26.05-5.28-8.12-2.84-14.88-9.31-20.34-15.74-6.31-7.44-12.12-16.46-14.09-26.15-.38-1.89-3.28-1.09-2.89.8Z"/>
  <path d="M136.04 276.27c5.55 3.7 6.98 10.13 2.18 14.78s-13.14 4.95-18.26.67c-1.64-1.37-2.98-3.2-3.35-5.3-.46-2.59.67-5.67 2.54-8.01 1.74-2.17 4.36-3.44 7.14-3.7s6.99-.27 9.75 1.57Z" fill="#c69e47"/>
  <path d="M134.98 278.09c2.87 1.96 5.01 5.44 3.61 8.86s-5.18 5.32-8.63 5.64c-3.69.34-7.71-.87-10.04-3.89-1.28-1.65-1.57-3.53-.98-5.5s1.77-3.86 3.46-4.97c1.86-1.22 3.92-1.51 6.1-1.54s4.56.18 6.48 1.4c2.29 1.46 4.4-2.18 2.12-3.63s-5.24-1.95-7.99-1.98-5.51.31-7.98 1.62c-5.07 2.68-8.26 9.56-5.84 14.98 2.23 4.99 7.94 7.69 13.19 7.76s10.68-2.37 13.33-6.96c1.45-2.5 1.83-5.57.94-8.33-.97-3-3.08-5.34-5.64-7.09-2.24-1.53-4.34 2.11-2.12 3.63ZM179.61 75.83c.55.4 1.1.79 1.65 1.18.31.22.62.45.92.68.15.11.3.22.45.34.19.15.2.15.03.03.1.08.21.16.31.24 1.5 1.2 2.93 2.48 4.23 3.89 3.05 3.33 5.26 7.59 5.82 12.21.14 1.13.87 2.1 2.1 2.1 1.03 0 2.24-.97 2.1-2.1-.68-5.6-2.99-10.6-6.73-14.82-2.56-2.88-5.67-5.12-8.76-7.38-.92-.67-2.34-.16-2.87.75-.62 1.06-.17 2.2.75 2.87Z"/>
  <g fill="#63bcff">
    <path d="M229.54 220.43c-2.79-.92-5.51-.47-8.28-.1-1.38.18-2.75.37-3.89.52 1.01 1.39 2.23 2.62 2.88 4.1.61 1.4.87 3.06.83 4.6-.08 3.54-.25 7.11-.75 10.62-.39 2.76-1.28 5.47-4.29 6.7.02.1.03.2.05.3.55 0 1.1.03 1.65 0 3.22-.23 6.45-.46 9.67-.72 4.17-.33 6.93-2.78 8.7-6.29 1.69-3.34 2.33-6.93 1.41-10.68-1.09-4.41-3.52-7.56-7.99-9.04Zm-.05 17.2c-.65 2.6-1.83 4.93-3.92 6.86v-22.52c.51.32.9.47 1.16.74 1.35 1.41 2.41 2.97 2.94 4.9.94 3.37.65 6.7-.18 10.02ZM255.03 247.33c3.04.17 6.09.35 9.25.53-1.82 3.87-.63 7.78-.45 11.67.81-.12 1.37-1.24 2.49-5.3.57-2.08.49-4.14-.91-6 .06-.1.12-.2.17-.3 2.45.26 4.91.53 7.29.78-.1 1.53-.31 2.92-.24 4.29.13 2.37.44 4.73.7 7.1.03.27.27.51.41.76.19-.21.44-.39.55-.64.89-2.11 1.86-4.2 2.58-6.37.49-1.46.59-3.05-.94-4.35 1.98-.59 3.78-1.13 5.53-1.65-4.48 8.05-6.99 17.03-11.39 25.26-.95-5.44-1.48-10.92-1.87-16.42-.14-.03-.29-.05-.43-.08l-5.88 15.27c-.07.01-.14.03-.21.04-.19-1.43-.38-2.85-.56-4.28-.58-4.76-1.12-9.52-1.73-14.28-.32-2.46-1.97-4.05-3.89-5.41-.18-.13-.37-.25-.55-.38l.06-.23Z"/>
    <path d="M236.18 273.43c-3.46.09-6.93.67-10.53.76 1.7-4.55-.02-9.6-.59-14-.91.21-1.51.87-2.4 5.58-.45 2.41-.23 3.93.69 6.65-.06.12-2.73.5-5.46.44-.04-1.74-.15-2.98-.36-4.53-.37-2.67-1.92-6.6-2.44-9.25-.06-.3-.53 1.31-.77 2.38-.42 1.13-.67 13.26 1.19 14.58-2.19.86-6.43.47-8.37 1.23 4.1-12.82 3.88-17.55 8.17-28.05 2.44 5.78 2.98 7.53 5.03 13.87.17.02.33.03.5.05 1.74-5.95 2.51-11.41 4.25-17.36.08-.02 1.11-.81 1.19-.83.35 1.6.72 4.2 1.05 5.8 1.1 5.34 1.67 10.44 2.82 15.77.59 2.76 3.1 4.65 5.4 6.01.22.13.44.25.66.38-.01.09-.03.42-.04.51ZM279.37 255.33c2.09-.22 4.11-.43 6.24-.66-1.44 6.41-2.69 12.62-2.72 19.17-3.03.12-6.19.24-9.62.38.59-.56 1.03-.94 1.43-1.36 3.2-3.25 4.65-6.91 5.81-11.16.34-1.25.52-2.18.1-3.94-.47-.93-.73-1.65-1.25-2.43ZM254.74 238.21c2.44-1.64 3.43-6.7 1.76-9.13 1.77.37 3.42.72 5.22 1.1-.21.28-.33.53-.52.66-1.26.86-1.93 2.11-2.49 3.48-1.16 2.82-2.44 5.6-3.62 8.41-.59 1.41-1.06 2.86-1.6 4.29-.06.17-.21.31-.5.74-.24-.97-.48-1.67-.58-2.39-.42-2.78-.78-5.58-1.19-8.36-.32-2.18-.64-4.37-1.03-6.53-.29-1.58-1.24-2.77-2.47-4.01 2.83.29 5.67.59 8.69.9-3.18 2.15-2.04 5.26-2.04 8.09 0 .89.24 1.78.37 2.74ZM263.89 246.56c-2.7-.27-5.29-.52-8.08-.8 5.78-4.64 8.08-10.43 6.94-17.48h3.41c.64 0 .89.32.77.92-.4 2.01-.86 4.01-1.22 6.03-.43 2.4-.8 4.82-1.19 7.23-.2 1.27-.39 2.54-.63 4.1ZM245.74 272.42c.39-1.99.78-4.01 1.19-6.11 1.69.79 3.81.91 5.81.36 1.95-.54 3.77-1.57 5.75-2.42-.1.38-.19.78-.33 1.16-.57 1.57-1.13 3.16-1.78 4.7-.14.34-.67.75-1.01.75-3.38-.07-6.64.45-9.63 1.57ZM265.77 221.23c1.3-.03 2.47 1.19 2.5 2.61.03 1.44-1.15 2.77-2.47 2.79-1.31.02-2.52-1.11-2.54-2.39-.03-1.62 1.1-2.97 2.51-3.01ZM283.5 253.51c-1.49 0-2.29-.76-2.3-2.19-.01-1.39 1.16-2.6 2.5-2.59 1.17.01 2.45 1.31 2.41 2.46-.04 1.29-1.19 2.32-2.61 2.32Z"/>
    <path d="M274.25 248.2c2.86-1.13 5.54-2.19 8.36-3.3-2.64-1.37-3.27-2.35-3.21-5.16.03-1.53.14-3.06.34-4.58.25-1.95.58-3.9.97-5.83.54-2.66 1.18-5.31 1.76-7.93-4.58-.45-9.14-.9-13.7-1.35 3.26 1.78 5.73 4.18 6.47 8.09-2.56.49-4.98 1.23-6.6 3.43-2.41 3.27-3.71 6.79-2.18 10.84 1.13 2.99 4.02 4.5 7.12 3.8.74-.17 1.14-.12.82.8-.12.34-.1.73-.15 1.18Zm-2.35-7.81c-.78-2.19.05-4.22.91-6.16.41-.92 1.15-1.71 1.81-2.49.22-.25.68-.3 1.03-.44.09.33.25.67.24 1-.05 1.78-.08 3.56-.23 5.33-.17 2.04-.46 4.08-.73 6.36-1.78-.77-2.52-2.13-3.04-3.6ZM299.52 268.33c-3.65.36-7.19-.39-8.68-4.12-.43-1.07-.31-1.4.87-1.49 2.1-.17 4.2-.24 6.3-.4 1.16-.09 2.3-.27 3.54-.43-.11-.67-.14-1.12-.25-1.55-.76-2.85-1.61-5.65-4.36-7.33-3.14-1.92-6.58-1.09-8.64 1.44-2.82 3.48-3.91 7.55-2.67 12.03.59 2.13 1.76 4.04 3.54 5.19 3.96 2.56 7.3 2.55 10.46.56 1.31-.83 2.29-3.12 2.84-4.67-1.12.3-2.02.68-2.96.78Zm-9.51-8.74c-.07-2.03.82-3.61 1.8-5.14.47-.73 1.08-.84 1.45 0 .7 1.6 1.34 3.24 1.88 4.91.26.79-.06 1.32-1.09 1.42s-1.6.23-2.4.28c-1.65.11-1.65.09-1.64-1.47ZM243.04 265.22c-3.29.32-6.48-.35-7.83-3.72-.39-.97-.28-1.26.78-1.34 1.89-.15 3.79-.22 5.68-.36 1.04-.08 2.08-.25 3.2-.39-.1-.61-.12-1.01-.22-1.4-.69-2.57-1.45-5.1-3.94-6.61-2.83-1.73-5.94-.98-7.79 1.3-2.54 3.14-3.52 6.81-2.41 10.85.53 1.92 1.64 3.57 3.19 4.68 3.1 2.22 6.06 2.18 9.06.61 1.72-.9 2.43-2.93 2.93-4.32-1.01.27-1.82.62-2.67.7Zm-8.58-7.88c-.07-1.83.74-3.25 1.63-4.64.42-.65.97-.76 1.31 0 .63 1.45 1.21 2.92 1.7 4.42.23.71-.05 1.26-.98 1.28-.72.01-1.44.2-2.17.25-1.49.1-1.49.08-1.48-1.33ZM247.87 243.82c.17-.74.37-1.48.52-2.23.64-3.11 1.65-6.17 1.23-9.41-.18-1.4-.47-2.82-1.83-3.64-2.92-1.77-7.59-.01-8.79 3.5 1.3-.85 2.43-1.47 3.81-.89 1.16.5 1.22.84.24 1.62-3.7 2.95-5.89 6.56-5.32 11.51.28 2.43 1.87 4.12 4.29 3.89 1.04-.1 2.08-.74 3.01-1.31.66-.41 1.02-.49 1.66.06.6.52 1.45.75 2.19 1.11.09-.11.18-.23.27-.34-1.41-1.01-1.63-2.36-1.29-3.88Zm-4.61-.94c-1.21-.68-1.55-1.89-1.57-3.09-.05-2.25 1.07-4.05 2.63-5.59.04-.04.15 0 .48.02.09 2.76.22 5.49.25 8.21.01.75-.93.94-1.8.45Z"/>
    <path d="M254.47 249.33c-1.66-.61-3.38-.98-4.96-.44-3.14 1.07-6.01 4-5.71 7.96 0 2.5.15 2.99 1.62 5.17 2.54 3.76 7.31 4.24 10.63 1.12 1.54-1.45 2.47-3.17 2.68-5.26.34-3.33-.4-7.12-4.26-8.54Zm-4.1 13.34c-2.61-1.78-1.88-10.07.95-12.56 2.75 2.79 2.5 9.85-.95 12.56Z"/>
  </g>
</svg>
