<svg xmlns="http://www.w3.org/2000/svg" viewBox="0 0 309.12 305.74">
  <defs>
    <linearGradient id="a" x1="1" y1="152.87" x2="308.12" y2="152.87" gradientUnits="userSpaceOnUse">
      <stop offset="0" stop-opacity=".83"/>
      <stop offset="1"/>
    </linearGradient>
  </defs>
  <path d="M305.5 1.48c-6.66 109.41 8.55 200.94-1.31 302.46-133.63.01-199.56.67-302.26 0C9.25 229.95-4.58 17.21 5.06 5.63c0 0 292.64-2.44 300.44-4.14Z" fill="#72b5ad"/>
  <path d="M304 1.48c-1.25 20.71-1.77 41.45-1.75 62.19s.51 39.57 1.15 59.35 1.4 38.5 1.96 57.75.9 38.26.69 57.39-1.02 38.89-2.68 58.27c-.21 2.51-.44 5.01-.69 7.51l1.5-1.5c-23.76 0-47.52.03-71.28.07-20.16.03-40.31.08-60.47.13-18.1.04-36.21.08-54.31.1a15451.22 15451.22 0 0 1-108.81-.24c-2.46-.01-4.93-.03-7.39-.05l1.5 1.5c.83-8.38 1.26-16.8 1.58-25.21.39-10.4.55-20.8.62-31.21.08-11.84.03-23.67-.09-35.51-.12-12.53-.32-25.06-.55-37.58s-.5-25.3-.76-37.94c-.25-12.14-.51-24.29-.73-36.43-.2-11.01-.37-22.03-.45-33.04-.07-9.26-.08-18.52.07-27.77.12-6.91.3-13.82.85-20.71.32-3.97.44-7.43 1.84-11.23.11-.3-.17.32.02-.05.05-.1.1-.21.15-.31.13-.25.44-.64.14-.26l-1.06.44c2.62-.02 5.24-.04 7.86-.07 7.14-.06 14.27-.12 21.41-.19 10.53-.1 21.06-.19 31.59-.29 12.92-.12 25.84-.25 38.77-.38 14.2-.14 28.41-.29 42.61-.45 14.35-.16 28.71-.32 43.06-.5 13.53-.17 27.06-.34 40.59-.53 11.57-.16 23.15-.34 34.72-.55 8.51-.15 17.03-.31 25.54-.54 4.43-.12 8.9-.14 13.32-.52.46-.04.94-.08 1.39-.17 1.89-.4 1.09-3.29-.8-2.89-.42.09.06 0 .02 0l-.55.06c-.53.05-1.06.08-1.6.11-1.78.1-3.56.17-5.34.23-5.99.21-11.98.34-17.98.47-8.63.18-17.26.33-25.88.47-10.64.17-21.27.33-31.91.47-11.91.16-23.83.31-35.74.46s-24.88.29-37.31.43c-12.37.14-24.73.27-37.1.39-11.54.12-23.09.23-34.63.34-9.98.1-19.97.19-29.95.28l-23.42.21c-4.89.04-9.77.09-14.66.13-1.13 0-2.25.02-3.38.03s-1.87.47-2.39 1.52c-.82 1.64-1.16 3.53-1.45 5.33-.48 2.94-.75 5.91-.97 8.88-.63 8.7-.76 17.46-.83 26.21-.1 11.85 0 23.7.17 35.55.19 13.99.47 27.98.76 41.98.31 15.02.64 30.04.92 45.07s.53 29.85.67 44.78c.13 13.89.17 27.78 0 41.66-.14 11.72-.42 23.45-1.09 35.16-.26 4.56-.59 9.12-1.04 13.67-.08.81.75 1.5 1.5 1.5 18.9.12 37.8.21 56.7.26 17.65.04 35.31.05 52.96.04 17.96-.01 35.92-.05 53.88-.09 19.82-.04 39.63-.09 59.45-.13 23.23-.04 46.46-.07 69.69-.08h9.59c.87 0 1.42-.69 1.5-1.5 1.88-19.44 2.89-38.95 3.26-58.47s.12-38.29-.38-57.43-1.26-38.42-1.92-57.63-1.24-39.38-1.37-59.08c-.14-20.59.2-41.19 1.26-61.76.14-2.7.29-5.39.45-8.08.12-1.93-2.88-1.92-3 0Z" fill="url(#a)"/>
  <path fill="#00b496" d="M23.7 18h269.72v269.72H23.7z"/>
  <path fill="#00bda6" d="M39.43 33.73H277.7V272H39.43z"/>
  <path fill="#29c48c" d="M56.85 51.15h203.42v203.42H56.85z"/>
  <path fill="#4ec582" d="M75.3 69.6h166.53v166.53H75.3z"/>
  <path fill="#afdd84" d="M92.08 86.38h132.96v132.96H92.08z"/>
  <path fill="#cbe479" d="M114.39 108.7h88.34v88.34h-88.34z"/>
  <circle cx="51.65" cy="16.9" r="6.53" fill="#91a2b8"/>
  <circle cx="71.76" cy="16.9" r="6.53" fill="#91a2b8"/>
  <circle cx="11.42" cy="16.9" r="6.53" fill="#91a2b8"/>
  <circle cx="31.53" cy="16.9" r="6.53" fill="#91a2b8"/>
  <circle cx="91.88" cy="16.9" r="6.53" fill="#91a2b8"/>
  <circle cx="111.99" cy="16.9" r="6.53" fill="#91a2b8"/>
  <circle cx="132.11" cy="16.9" r="6.53" fill="#91a2b8"/>
  <circle cx="152.22" cy="16.9" r="6.53" fill="#91a2b8"/>
  <circle cx="172.33" cy="16.9" r="6.53" fill="#91a2b8"/>
  <circle cx="192.45" cy="16.9" r="6.53" fill="#91a2b8"/>
  <circle cx="212.56" cy="16.9" r="6.53" fill="#91a2b8"/>
  <circle cx="232.68" cy="16.9" r="6.53" fill="#91a2b8"/>
  <circle cx="252.79" cy="16.9" r="6.53" fill="#91a2b8"/>
  <circle cx="272.9" cy="16.9" r="6.53" fill="#91a2b8"/>
  <circle cx="293.02" cy="16.9" r="6.53" fill="#91a2b8"/>
  <circle cx="51.65" cy="36.9" r="6.53" fill="#77a8c7"/>
  <circle cx="71.76" cy="36.9" r="6.53" fill="#77a8c7"/>
  <circle cx="11.42" cy="36.9" r="6.53" fill="#91a2b8"/>
  <circle cx="31.53" cy="36.9" r="6.53" fill="#77a8c7"/>
  <circle cx="91.88" cy="36.9" r="6.53" fill="#77a8c7"/>
  <circle cx="111.99" cy="36.9" r="6.53" fill="#77a8c7"/>
  <circle cx="132.11" cy="36.9" r="6.53" fill="#77a8c7"/>
  <circle cx="152.22" cy="36.9" r="6.53" fill="#77a8c7"/>
  <circle cx="172.33" cy="36.9" r="6.53" fill="#77a8c7"/>
  <circle cx="192.45" cy="36.9" r="6.53" fill="#77a8c7"/>
  <circle cx="212.56" cy="36.9" r="6.53" fill="#77a8c7"/>
  <circle cx="232.68" cy="36.9" r="6.53" fill="#77a8c7"/>
  <circle cx="252.79" cy="36.9" r="6.53" fill="#77a8c7"/>
  <circle cx="272.9" cy="36.9" r="6.53" fill="#77a8c7"/>
  <circle cx="293.02" cy="36.9" r="6.53" fill="#91a2b8"/>
  <circle cx="51.65" cy="56.9" r="6.53" fill="#74b0ca"/>
  <circle cx="71.76" cy="56.9" r="6.53" fill="#74b0ca"/>
  <circle cx="11.42" cy="56.9" r="6.53" fill="#91a2b8"/>
  <circle cx="31.53" cy="56.9" r="6.53" fill="#77a8c7"/>
  <circle cx="91.88" cy="56.9" r="6.53" fill="#74b0ca"/>
  <circle cx="111.99" cy="56.9" r="6.53" fill="#74b0ca"/>
  <circle cx="132.11" cy="56.9" r="6.53" fill="#74b0ca"/>
  <circle cx="152.22" cy="56.9" r="6.53" fill="#74b0ca"/>
  <circle cx="172.33" cy="56.9" r="6.53" fill="#74b0ca"/>
  <circle cx="192.45" cy="56.9" r="6.53" fill="#74b0ca"/>
  <circle cx="212.56" cy="56.9" r="6.53" fill="#74b0ca"/>
  <circle cx="232.68" cy="56.9" r="6.53" fill="#74b0ca"/>
  <circle cx="252.79" cy="56.9" r="6.53" fill="#74b0ca"/>
  <circle cx="272.9" cy="56.9" r="6.53" fill="#77a8c7"/>
  <circle cx="293.02" cy="56.9" r="6.53" fill="#91a2b8"/>
  <circle cx="51.65" cy="76.9" r="6.53" fill="#74b0ca"/>
  <circle cx="71.76" cy="76.9" r="6.53" fill="#6cc0d8"/>
  <circle cx="11.42" cy="76.9" r="6.53" fill="#91a2b8"/>
  <circle cx="31.53" cy="76.9" r="6.53" fill="#77a8c7"/>
  <circle cx="91.88" cy="76.9" r="6.53" fill="#6cc0d8"/>
  <circle cx="111.99" cy="76.9" r="6.53" fill="#6cc0d8"/>
  <circle cx="132.11" cy="76.9" r="6.53" fill="#6cc0d8"/>
  <circle cx="152.22" cy="76.9" r="6.53" fill="#6cc0d8"/>
  <circle cx="172.33" cy="76.9" r="6.53" fill="#6cc0d8"/>
  <circle cx="192.45" cy="76.9" r="6.53" fill="#6cc0d8"/>
  <circle cx="212.56" cy="76.9" r="6.53" fill="#6cc0d8"/>
  <circle cx="232.68" cy="76.9" r="6.53" fill="#6cc0d8"/>
  <circle cx="252.79" cy="76.9" r="6.53" fill="#74b0ca"/>
  <circle cx="272.9" cy="76.9" r="6.53" fill="#77a8c7"/>
  <circle cx="293.02" cy="76.9" r="6.53" fill="#91a2b8"/>
  <circle cx="51.65" cy="96.9" r="6.53" fill="#74b0ca"/>
  <circle cx="71.76" cy="96.9" r="6.53" fill="#6cc0d8"/>
  <circle cx="11.42" cy="96.9" r="6.53" fill="#91a2b8"/>
  <circle cx="31.53" cy="96.9" r="6.53" fill="#77a8c7"/>
  <circle cx="91.88" cy="96.9" r="6.53" fill="#6ed7ef"/>
  <circle cx="111.99" cy="96.9" r="6.53" fill="#6ed7ef"/>
  <circle cx="132.11" cy="96.9" r="6.53" fill="#6ed7ef"/>
  <circle cx="152.22" cy="96.9" r="6.53" fill="#6ed7ef"/>
  <circle cx="172.33" cy="96.9" r="6.53" fill="#6ed7ef"/>
  <circle cx="192.45" cy="96.9" r="6.53" fill="#6ed7ef"/>
  <circle cx="212.56" cy="96.9" r="6.53" fill="#6ed7ef"/>
  <circle cx="232.68" cy="96.9" r="6.53" fill="#6cc0d8"/>
  <circle cx="252.79" cy="96.9" r="6.53" fill="#74b0ca"/>
  <circle cx="272.9" cy="96.9" r="6.53" fill="#77a8c7"/>
  <circle cx="293.02" cy="96.9" r="6.53" fill="#91a2b8"/>
  <circle cx="51.65" cy="116.9" r="6.53" fill="#74b0ca"/>
  <circle cx="71.76" cy="116.9" r="6.53" fill="#6cc0d8"/>
  <circle cx="11.42" cy="116.9" r="6.53" fill="#91a2b8"/>
  <circle cx="31.53" cy="116.9" r="6.53" fill="#77a8c7"/>
  <circle cx="91.88" cy="116.9" r="6.53" fill="#6ed7ef"/>
  <circle cx="111.99" cy="116.9" r="6.53" fill="#76d0de"/>
  <circle cx="132.11" cy="116.9" r="6.53" fill="#76d0de"/>
  <circle cx="152.22" cy="116.9" r="6.53" fill="#76d0de"/>
  <circle cx="172.33" cy="116.9" r="6.53" fill="#76d0de"/>
  <circle cx="192.45" cy="116.9" r="6.53" fill="#76d0de"/>
  <circle cx="212.56" cy="116.9" r="6.53" fill="#6ed7ef"/>
  <circle cx="232.68" cy="116.9" r="6.53" fill="#6cc0d8"/>
  <circle cx="252.79" cy="116.9" r="6.53" fill="#74b0ca"/>
  <circle cx="272.9" cy="116.9" r="6.53" fill="#77a8c7"/>
  <circle cx="293.02" cy="116.9" r="6.53" fill="#91a2b8"/>
  <circle cx="51.65" cy="136.9" r="6.53" fill="#74b0ca"/>
  <circle cx="71.76" cy="136.9" r="6.53" fill="#6cc0d8"/>
  <circle cx="11.42" cy="136.9" r="6.53" fill="#91a2b8"/>
  <circle cx="31.53" cy="136.9" r="6.53" fill="#77a8c7"/>
  <circle cx="91.88" cy="136.9" r="6.53" fill="#6ed7ef"/>
  <circle cx="111.99" cy="136.9" r="6.53" fill="#76d0de"/>
  <circle cx="132.11" cy="136.9" r="6.53" fill="#a4e8f0"/>
  <circle cx="152.22" cy="136.9" r="6.53" fill="#a4e8f0"/>
  <circle cx="172.33" cy="136.9" r="6.53" fill="#a4e8f0"/>
  <circle cx="192.45" cy="136.9" r="6.53" fill="#76d0de"/>
  <circle cx="212.56" cy="136.9" r="6.53" fill="#6ed7ef"/>
  <circle cx="232.68" cy="136.9" r="6.53" fill="#6cc0d8"/>
  <circle cx="252.79" cy="136.9" r="6.53" fill="#74b0ca"/>
  <circle cx="272.9" cy="136.9" r="6.53" fill="#77a8c7"/>
  <circle cx="293.02" cy="136.9" r="6.53" fill="#91a2b8"/>
  <circle cx="51.65" cy="156.9" r="6.53" fill="#74b0ca"/>
  <circle cx="71.76" cy="156.9" r="6.53" fill="#6cc0d8"/>
  <circle cx="11.42" cy="156.9" r="6.53" fill="#91a2b8"/>
  <circle cx="31.53" cy="156.9" r="6.53" fill="#77a8c7"/>
  <circle cx="91.88" cy="156.9" r="6.53" fill="#6ed7ef"/>
  <circle cx="111.99" cy="156.9" r="6.53" fill="#76d0de"/>
  <circle cx="132.11" cy="156.9" r="6.53" fill="#a4e8f0"/>
  <circle cx="152.22" cy="156.9" r="6.53" fill="#d0e8e7"/>
  <circle cx="172.33" cy="156.9" r="6.53" fill="#a4e8f0"/>
  <circle cx="192.45" cy="156.9" r="6.53" fill="#76d0de"/>
  <circle cx="212.56" cy="156.9" r="6.53" fill="#6ed7ef"/>
  <circle cx="232.68" cy="156.9" r="6.53" fill="#6cc0d8"/>
  <circle cx="252.79" cy="156.9" r="6.53" fill="#74b0ca"/>
  <circle cx="272.9" cy="156.9" r="6.53" fill="#77a8c7"/>
  <circle cx="293.02" cy="156.9" r="6.53" fill="#91a2b8"/>
  <circle cx="51.65" cy="176.9" r="6.53" fill="#74b0ca"/>
  <circle cx="71.76" cy="176.9" r="6.53" fill="#6cc0d8"/>
  <circle cx="11.42" cy="176.9" r="6.53" fill="#91a2b8"/>
  <circle cx="31.53" cy="176.9" r="6.53" fill="#77a8c7"/>
  <circle cx="91.88" cy="176.9" r="6.53" fill="#6ed7ef"/>
  <circle cx="111.99" cy="176.9" r="6.53" fill="#76d0de"/>
  <circle cx="132.11" cy="176.9" r="6.53" fill="#a4e8f0"/>
  <circle cx="152.22" cy="176.9" r="6.53" fill="#a4e8f0"/>
  <circle cx="172.33" cy="176.9" r="6.53" fill="#a4e8f0"/>
  <circle cx="192.45" cy="176.9" r="6.53" fill="#76d0de"/>
  <circle cx="212.56" cy="176.9" r="6.53" fill="#6ed7ef"/>
  <circle cx="232.68" cy="176.9" r="6.53" fill="#6cc0d8"/>
  <circle cx="252.79" cy="176.9" r="6.53" fill="#74b0ca"/>
  <circle cx="272.9" cy="176.9" r="6.53" fill="#77a8c7"/>
  <circle cx="293.02" cy="176.9" r="6.53" fill="#91a2b8"/>
  <circle cx="51.65" cy="196.9" r="6.53" fill="#74b0ca"/>
  <circle cx="71.76" cy="196.9" r="6.53" fill="#6cc0d8"/>
  <circle cx="11.42" cy="196.9" r="6.53" fill="#91a2b8"/>
  <circle cx="31.53" cy="196.9" r="6.53" fill="#77a8c7"/>
  <circle cx="91.88" cy="196.9" r="6.53" fill="#6ed7ef"/>
  <circle cx="111.99" cy="196.9" r="6.53" fill="#76d0de"/>
  <circle cx="132.11" cy="196.9" r="6.53" fill="#76d0de"/>
  <circle cx="152.22" cy="196.9" r="6.53" fill="#76d0de"/>
  <circle cx="172.33" cy="196.9" r="6.53" fill="#76d0de"/>
  <circle cx="192.45" cy="196.9" r="6.53" fill="#76d0de"/>
  <circle cx="212.56" cy="196.9" r="6.53" fill="#6ed7ef"/>
  <circle cx="232.68" cy="196.9" r="6.53" fill="#6cc0d8"/>
  <circle cx="252.79" cy="196.9" r="6.53" fill="#74b0ca"/>
  <circle cx="272.9" cy="196.9" r="6.53" fill="#77a8c7"/>
  <circle cx="293.02" cy="196.9" r="6.53" fill="#91a2b8"/>
  <circle cx="51.65" cy="216.9" r="6.53" fill="#74b0ca"/>
  <circle cx="71.76" cy="216.9" r="6.53" fill="#6cc0d8"/>
  <circle cx="11.42" cy="216.9" r="6.53" fill="#91a2b8"/>
  <circle cx="31.53" cy="216.9" r="6.53" fill="#77a8c7"/>
  <circle cx="91.88" cy="216.9" r="6.53" fill="#6ed7ef"/>
  <circle cx="111.99" cy="216.9" r="6.53" fill="#6ed7ef"/>
  <circle cx="132.11" cy="216.9" r="6.53" fill="#6ed7ef"/>
  <circle cx="152.22" cy="216.9" r="6.53" fill="#6ed7ef"/>
  <circle cx="172.33" cy="216.9" r="6.53" fill="#6ed7ef"/>
  <circle cx="192.45" cy="216.9" r="6.53" fill="#6ed7ef"/>
  <circle cx="212.56" cy="216.9" r="6.53" fill="#6ed7ef"/>
  <circle cx="232.68" cy="216.9" r="6.53" fill="#6cc0d8"/>
  <circle cx="252.79" cy="216.9" r="6.53" fill="#74b0ca"/>
  <circle cx="272.9" cy="216.9" r="6.53" fill="#77a8c7"/>
  <circle cx="293.02" cy="216.9" r="6.53" fill="#91a2b8"/>
  <circle cx="51.65" cy="236.9" r="6.53" fill="#74b0ca"/>
  <circle cx="71.76" cy="236.9" r="6.53" fill="#6cc0d8"/>
  <circle cx="11.42" cy="236.9" r="6.53" fill="#91a2b8"/>
  <circle cx="31.53" cy="236.9" r="6.53" fill="#77a8c7"/>
  <circle cx="91.88" cy="236.9" r="6.53" fill="#6cc0d8"/>
  <circle cx="111.99" cy="236.9" r="6.53" fill="#6cc0d8"/>
  <circle cx="132.11" cy="236.9" r="6.53" fill="#6cc0d8"/>
  <circle cx="152.22" cy="236.9" r="6.53" fill="#6cc0d8"/>
  <circle cx="172.33" cy="236.9" r="6.53" fill="#6cc0d8"/>
  <circle cx="192.45" cy="236.9" r="6.53" fill="#6cc0d8"/>
  <circle cx="212.56" cy="236.9" r="6.53" fill="#6cc0d8"/>
  <circle cx="232.68" cy="236.9" r="6.53" fill="#6cc0d8"/>
  <circle cx="252.79" cy="236.9" r="6.53" fill="#74b0ca"/>
  <circle cx="272.9" cy="236.9" r="6.53" fill="#77a8c7"/>
  <circle cx="293.02" cy="236.9" r="6.53" fill="#91a2b8"/>
  <circle cx="51.65" cy="256.9" r="6.53" fill="#74b0ca"/>
  <circle cx="71.76" cy="256.9" r="6.53" fill="#74b0ca"/>
  <circle cx="11.42" cy="256.9" r="6.53" fill="#91a2b8"/>
  <circle cx="31.53" cy="256.9" r="6.53" fill="#77a8c7"/>
  <circle cx="91.88" cy="256.9" r="6.53" fill="#74b0ca"/>
  <circle cx="111.99" cy="256.9" r="6.53" fill="#74b0ca"/>
  <circle cx="132.11" cy="256.9" r="6.53" fill="#74b0ca"/>
  <circle cx="152.22" cy="256.9" r="6.53" fill="#74b0ca"/>
  <circle cx="172.33" cy="256.9" r="6.53" fill="#74b0ca"/>
  <circle cx="192.45" cy="256.9" r="6.53" fill="#74b0ca"/>
  <circle cx="212.56" cy="256.9" r="6.53" fill="#74b0ca"/>
  <circle cx="232.68" cy="256.9" r="6.53" fill="#74b0ca"/>
  <circle cx="252.79" cy="256.9" r="6.53" fill="#74b0ca"/>
  <circle cx="272.9" cy="256.9" r="6.53" fill="#77a8c7"/>
  <circle cx="293.02" cy="256.9" r="6.53" fill="#91a2b8"/>
  <circle cx="51.65" cy="276.9" r="6.53" fill="#77a8c7"/>
  <circle cx="71.76" cy="276.9" r="6.53" fill="#77a8c7"/>
  <circle cx="11.42" cy="276.9" r="6.53" fill="#91a2b8"/>
  <circle cx="31.53" cy="276.9" r="6.53" fill="#77a8c7"/>
  <circle cx="91.88" cy="276.9" r="6.53" fill="#77a8c7"/>
  <circle cx="111.99" cy="276.9" r="6.53" fill="#77a8c7"/>
  <circle cx="132.11" cy="276.9" r="6.53" fill="#77a8c7"/>
  <circle cx="152.22" cy="276.9" r="6.53" fill="#77a8c7"/>
  <circle cx="172.33" cy="276.9" r="6.53" fill="#77a8c7"/>
  <circle cx="192.45" cy="276.9" r="6.53" fill="#77a8c7"/>
  <circle cx="212.56" cy="276.9" r="6.53" fill="#77a8c7"/>
  <circle cx="232.68" cy="276.9" r="6.53" fill="#77a8c7"/>
  <circle cx="252.79" cy="276.9" r="6.53" fill="#77a8c7"/>
  <circle cx="272.9" cy="276.9" r="6.53" fill="#77a8c7"/>
  <circle cx="293.02" cy="276.9" r="6.53" fill="#91a2b8"/>
  <circle cx="51.65" cy="296.9" r="6.53" fill="#91a2b8"/>
  <circle cx="71.76" cy="296.9" r="6.53" fill="#91a2b8"/>
  <circle cx="11.42" cy="296.9" r="6.53" fill="#91a2b8"/>
  <circle cx="31.53" cy="296.9" r="6.53" fill="#91a2b8"/>
  <circle cx="91.88" cy="296.9" r="6.53" fill="#91a2b8"/>
  <circle cx="111.99" cy="296.9" r="6.53" fill="#91a2b8"/>
  <circle cx="132.11" cy="296.9" r="6.53" fill="#91a2b8"/>
  <circle cx="152.22" cy="296.9" r="6.53" fill="#91a2b8"/>
  <circle cx="172.33" cy="296.9" r="6.53" fill="#91a2b8"/>
  <circle cx="192.45" cy="296.9" r="6.53" fill="#91a2b8"/>
  <circle cx="212.56" cy="296.9" r="6.53" fill="#91a2b8"/>
  <circle cx="232.68" cy="296.9" r="6.53" fill="#91a2b8"/>
  <circle cx="252.79" cy="296.9" r="6.53" fill="#91a2b8"/>
  <circle cx="272.9" cy="296.9" r="6.53" fill="#91a2b8"/>
  <circle cx="293.02" cy="296.9" r="6.53" fill="#91a2b8"/>
  <g opacity=".7">
    <path d="M119.24 222.79a476.972 476.972 0 0 1-2.87-44.54c-.27-15.29.09-31.1-5.83-45.19 5.06 1.35 18.2 7.15 20.1 7.45 1.64.26 14.2-3.51 23.21-4.1 19.5-1.28 30.3 2.79 30.99 2.82.8.04 1.56-.3 2.29-.63 4.55-2.06 16.11-7.13 20.66-9.19-1.56 5.61-8.53 22.19-9.29 23.86-2.18 4.77-.78 10.32.44 15.42 3.89 16.24 2.11 29.49 1.25 45.7 6.76.63 10.83-9.27 12.43-12.94 2.25-5.18 14.49-8.49 17.57-13.22s-5.77-8.13-11.4-8.53c6.13-1.4 10.83-16.87 10.41-23.14s-5.84-11.83-12.11-12.41c7.16-3.63 11.58-9.41 10.72-13.94s-8.4-12.32-12.95-11.53c1.72-7.28 2.25-12.57 0-19.71S201.37 87.12 193.93 88c2.91-4.96-.65-11.73-5.87-14.11s-11.33-1.52-16.91-.15c-4.32 1.06-9.02 2.37-13.05.5-2.02-.94-3.63-2.58-5.53-3.73-7.48-4.53-18.82 1.24-19.57 9.95-5.87-4.13-14.44-3.9-20.07.54s-7.87 12.71-5.24 19.39c-7.56-.13-12.65 10.47-7.82 16.29-4.74-2.41-12.75 4.18-14.92 9.04s-2.59 7.44-2.05 12.74 7.91 10.94 5.43 15.64c-1.47 2.79-7.84 7.02-9.5 9.71-3.45 5.64-3.29 14.28.4 19.77s9.89 10.35 16.41 9.27c-8.37 6.63-9.33 11.8-5.91 16.69 5.54 7.91 11.13 5.39 16.33 2.17 5.24-3.24 6.67-5.97 11.37-12.41" fill="#c69e47"/>
    <path d="M120.74 222.79c-1.37-12.33-2.27-24.7-2.68-37.1-.39-11.56.04-23.22-1.45-34.72-.81-6.27-2.2-12.45-4.63-18.3l-1.85 1.85c6.28 1.71 12.19 4.67 18.3 6.88.76.28 1.57.61 2.39.63 1.09.02 2.26-.3 3.32-.53 3.9-.82 7.77-1.76 11.68-2.49 9.1-1.69 18.58-1.79 27.76-.59 2.7.35 5.38.85 8.02 1.51 1.38.35 2.79.98 4.22.7 1.86-.35 3.74-1.5 5.46-2.27 1.99-.89 3.98-1.77 5.97-2.65 3.76-1.67 7.53-3.32 11.28-5.02l-2.2-1.69c-1.13 3.99-2.74 7.86-4.27 11.71-1.44 3.63-2.92 7.26-4.46 10.85-.88 2.05-1.57 4.01-1.72 6.26-.24 3.5.59 7.02 1.39 10.41 1.71 7.17 2.54 14.41 2.56 21.78.02 8.14-.73 16.25-1.16 24.37-.05.85.73 1.44 1.5 1.5 4.48.32 7.85-3.1 10.11-6.57 1.09-1.67 1.99-3.46 2.8-5.27.66-1.47 1.18-2.81 2.38-3.93 3.2-3 7.56-4.63 11.24-6.94 2.94-1.85 7.12-5.07 5.05-9.02-1.07-2.05-3.31-3.28-5.36-4.14-2.42-1.02-5-1.61-7.62-1.82l.4 2.95c2.55-.64 4.39-2.78 5.78-4.89 1.8-2.74 3.05-5.88 4.01-9 1.88-6.09 2.96-12.86-1.1-18.35-2.61-3.52-6.42-5.8-10.78-6.27l.76 2.8c5.05-2.6 10.84-7.14 11.52-13.23.55-4.91-3.82-9.64-7.41-12.38-2.16-1.65-4.7-3-7.48-2.6l1.85 1.85c1.65-7.06 2.53-14.79-.44-21.66-2.2-5.07-7.67-8.22-12.72-9.82-2.94-.93-6.13-1.43-9.22-1.1l1.3 2.26c2.67-4.79.63-10.68-3.31-14.11-4.87-4.24-11.76-4.2-17.77-3.1-3.42.63-6.79 1.85-10.28 2.09-1.55.1-3.12.02-4.59-.53-1.59-.59-2.9-1.72-4.24-2.72-4.07-3.03-9.03-3.79-13.81-1.95-5.16 2-9.18 6.38-9.74 12l2.26-1.3c-6.62-4.53-15.99-4.11-22.17.99-5.85 4.84-8.04 13.56-5.35 20.62l1.45-1.9c-9.05 0-14.43 11.91-8.88 18.85l1.82-2.36c-6.03-2.86-13.21 3.37-16.2 8.15-1.92 3.07-3.09 6.96-3.22 10.58-.07 1.87-.03 3.91.42 5.74.41 1.66 1.27 3.22 2.14 4.68s1.85 2.9 2.63 4.43c.6 1.17 1.24 2.65.79 3.98s-1.65 2.3-2.6 3.19c-1.28 1.2-2.62 2.32-3.92 3.49-2.6 2.36-4.33 4.94-5.19 8.4-.95 3.83-.87 8.01.32 11.79 2.57 8.16 11.33 15.81 20.23 14.49l-1.46-2.51c-3.28 2.63-6.84 5.92-7.9 10.16-.87 3.48.43 6.69 2.56 9.42 2.61 3.35 6.25 5.52 10.58 4.74 3.65-.66 7.21-2.97 10.05-5.25 3.64-2.93 6.14-7.06 8.86-10.79 1.14-1.56-1.46-3.06-2.59-1.51-2.15 2.95-4.12 6.13-6.73 8.71-2.24 2.21-5.13 4.1-8.05 5.28s-5.9.9-8.31-1.39c-2.05-1.95-4.04-4.74-3.62-7.73.56-4.01 4.33-7.15 7.27-9.51 1.32-1.05-.18-2.7-1.46-2.51-3.65.54-7.24-1.11-10.01-3.38s-5.2-5.15-6.36-8.5-1.36-6.95-.58-10.35c.37-1.63.95-3.29 1.88-4.69.69-1.04 1.7-1.9 2.62-2.74 2.22-2.02 4.86-3.88 6.54-6.41s.92-5.4-.34-7.89c-1.38-2.71-3.56-5.14-4.4-8.1-.89-3.15-.51-6.95.52-10.01 1.17-3.47 2.97-6.24 5.79-8.59 1.96-1.64 5.52-4.03 8.2-2.76 1.58.75 2.89-1.02 1.82-2.36-3.98-4.98.55-13.72 6.76-13.73.9 0 1.8-.97 1.45-1.9-2.3-6.04-.62-13.22 4.31-17.48 5.19-4.48 13.25-4.56 18.8-.75 1.03.71 2.15-.26 2.26-1.3.41-4.04 3.48-7.29 7.06-8.91 4.07-1.84 8.25-1.32 11.8 1.32 2.37 1.76 4.55 3.31 7.56 3.69s5.89-.22 8.73-.91c5.63-1.35 11.84-2.93 17.44-.55 4.37 1.85 8.14 7.52 5.55 12.15-.5.9.11 2.38 1.3 2.26 6.03-.65 13.06 1.79 17.23 6.23 2.44 2.6 3.23 6.31 3.56 9.77.41 4.33-.33 8.58-1.31 12.78-.28 1.21.72 2.01 1.85 1.85 2.19-.32 4.69 1.81 6.16 3.16 1.89 1.73 3.8 3.9 4.67 6.35s-.19 4.68-1.55 6.6c-2.05 2.9-5.1 5.02-8.22 6.62-1.45.75-.59 2.65.76 2.8 6.12.65 10.88 6.39 10.62 12.47-.22 5.21-1.98 10.79-4.53 15.31-1.06 1.88-2.54 4.26-4.79 4.83-1.72.43-1.22 2.82.4 2.95 2.03.16 4.04.65 5.94 1.36 1.46.55 3.2 1.34 4.16 2.63 1.9 2.57-3.46 5.29-5.11 6.25-3.42 1.99-7.14 3.66-10.13 6.29-2.43 2.15-3.24 5.31-4.76 8.08-1.78 3.24-4.51 7.37-8.7 7.07l1.5 1.5c.77-14.3 2.23-28.57-.58-42.76-1.19-6.01-3.65-12.23-1.05-18.21 1.47-3.38 2.86-6.79 4.23-10.21 1.77-4.4 3.66-8.83 4.95-13.41.38-1.36-1.07-2.21-2.2-1.69-6.57 2.98-13.2 5.84-19.78 8.8-.81.36-1.56.64-2.41.82.34-.07.41.08.02-.03-.57-.17-1.16-.32-1.73-.48-2.39-.63-4.82-1.12-7.26-1.49-8.9-1.36-18.17-1.56-27.08-.25-4.18.62-8.31 1.54-12.44 2.46-1.48.33-2.97.69-4.47.95-.58.1-.51.09-.95.13s.1.05-.03.01c-.17-.05-.35-.09-.52-.14-6.61-2.01-12.74-5.46-19.43-7.27-1-.27-2.3.75-1.85 1.85 4.32 10.4 5.28 21.67 5.57 32.81.32 11.94.42 23.85 1.22 35.77.47 6.93 1.09 13.85 1.86 20.75.21 1.9 3.21 1.92 3 0Z"/>
  </g>
  <g opacity=".7">
    <path d="M119.07 223.29a476.972 476.972 0 0 1-2.87-44.54c-.27-15.29.09-31.1-5.83-45.19 5.06 1.35 18.2 7.15 20.1 7.45 1.64.26 14.2-3.51 23.21-4.1 19.5-1.28 30.3 2.79 30.99 2.82.8.04 1.56-.3 2.29-.63 4.55-2.06 16.11-7.13 20.66-9.19-1.56 5.61-8.53 22.19-9.29 23.86-2.18 4.77-.78 10.32.44 15.42 3.89 16.24 2.11 29.49 1.25 45.7" fill="#fff"/>
    <path d="M120.57 223.29c-1.37-12.33-2.27-24.7-2.68-37.1-.39-11.56.04-23.22-1.45-34.72-.81-6.27-2.2-12.45-4.63-18.3l-1.85 1.85c6.28 1.71 12.19 4.67 18.3 6.88.76.28 1.57.61 2.39.63 1.09.02 2.26-.3 3.32-.53 3.9-.82 7.77-1.76 11.68-2.49 9.1-1.69 18.58-1.79 27.76-.59 2.7.35 5.38.85 8.02 1.51 1.38.35 2.79.98 4.22.7 1.86-.35 3.74-1.5 5.46-2.27 1.99-.89 3.98-1.77 5.97-2.65 3.76-1.67 7.53-3.32 11.28-5.02l-2.2-1.69c-1.13 3.99-2.74 7.86-4.27 11.71-1.44 3.63-2.92 7.26-4.46 10.85-.88 2.05-1.57 4.01-1.72 6.26-.24 3.5.59 7.02 1.39 10.41 1.71 7.17 2.54 14.41 2.56 21.78.02 8.14-.73 16.25-1.16 24.37-.1 1.93 2.9 1.92 3 0 .77-14.3 2.23-28.57-.58-42.76-1.19-6.01-3.65-12.23-1.05-18.21 1.47-3.38 2.86-6.79 4.23-10.21 1.77-4.4 3.66-8.83 4.95-13.41.38-1.36-1.07-2.21-2.2-1.69-6.57 2.98-13.2 5.84-19.78 8.8-.81.36-1.56.64-2.41.82.34-.07.41.08.02-.03-.57-.17-1.16-.32-1.73-.48-2.39-.63-4.82-1.12-7.26-1.49-8.9-1.36-18.17-1.56-27.08-.25-4.18.62-8.31 1.54-12.44 2.46-1.48.33-2.97.69-4.47.95-.58.1-.51.09-.95.13s.1.05-.03.01c-.17-.05-.35-.09-.52-.14-6.61-2.01-12.74-5.46-19.43-7.27-1-.27-2.3.75-1.85 1.85 4.32 10.4 5.28 21.67 5.57 32.81.32 11.94.42 23.85 1.22 35.77.47 6.93 1.09 13.85 1.86 20.75.21 1.9 3.21 1.92 3 0Z"/>
    <path d="M156.57 183.68c-1.31-1.18-2.66-2.33-3.92-3.57-1.16-1.15-2.44-2.44-3.09-3.97l-1.05 1.85c4.39-1.36 9.12-1.57 13.68-1.74.36-.01.96-.13 1.29 0-.27-.11.1-.32-.11.06-.09.16-.1.42-.17.58-.41.96-1.27 1.8-1.99 2.53-1.74 1.78-3.81 3.13-6.1 4.12-.62.27-.82 1.1-.69 1.69.68 2.98.88 6.01.64 9.06-.15 1.92 2.85 1.91 3 0 .27-3.31 0-6.63-.74-9.86l-.69 1.69c2.84-1.22 5.42-3.07 7.46-5.4 1.56-1.78 3.86-5.48.78-7.13-1.22-.65-2.9-.35-4.23-.28-1.43.07-2.86.16-4.29.29-2.9.26-5.85.62-8.64 1.49-.7.22-1.37 1.08-1.05 1.85 1.55 3.7 4.88 6.25 7.78 8.87 1.43 1.29 3.56-.83 2.12-2.12Z"/>
    <path d="M154.42 185.22c.69 2.98.88 6.01.64 9.06l1.5-1.5c-2.32.07-4.33 1.19-6.15 2.53-2.1 1.54-4.06 3.24-6.32 4.54-1.67.96-.17 3.55 1.51 2.59 2.12-1.22 3.99-2.79 5.94-4.25 1.46-1.1 3.13-2.35 5.02-2.41.86-.03 1.43-.67 1.5-1.5.27-3.31 0-6.63-.74-9.86-.43-1.88-3.33-1.08-2.89.8Z"/>
    <path d="M156.67 195.78s.37.05.13 0 .08.02.13.03c.19.04.37.1.56.16.06.02.4.18.09.03.09.05.19.09.28.13.19.1.38.2.57.31.4.23.78.49 1.16.76.22.16.44.32.65.48-.13-.1 0 0 .06.04.12.1.24.19.36.29 1.76 1.41 3.48 2.91 5.45 4.02.7.4 1.64.17 2.05-.54s.17-1.65-.54-2.05c-2.03-1.15-3.48-2.5-5.32-3.94-1.67-1.3-3.45-2.6-5.63-2.76-.81-.06-1.5.73-1.5 1.5 0 .86.69 1.44 1.5 1.5Z"/>
    <path d="M168.16 158.79c-.26 2.23.73 4.47 2.65 5.62 1.71 1.02 3.88 1.42 5.66 1 3.95-.92 5.79-4.66 4.88-7.92-.65-2.35-3.15-2.84-3.71-3.02-3.19-1.04-5.72-1.65-8.18.77-.8.79-1.15 2.29-1.3 3.55Z" fill="#7eab63"/>
    <path d="M166.66 158.79c-.17 1.72.28 3.54 1.3 4.96 1.12 1.55 2.79 2.54 4.63 3.02 3.4.88 7.02-.23 9.09-3.12 1.72-2.41 2.04-6.21.04-8.55-.82-.97-2.01-1.55-3.2-1.92s-2.47-.79-3.76-.98c-1.92-.28-3.81.02-5.4 1.2-.91.68-1.59 1.45-2.02 2.51-.38.93-.54 1.9-.67 2.9-.1.81.76 1.5 1.5 1.5.89 0 1.4-.69 1.5-1.5.14-1.13.43-2.22 1.34-2.92s1.73-.86 2.8-.79 2.35.51 3.49.86c.27.08.54.16.8.25.07.02.14.05.21.08-.31-.11-.04-.02.04.02.22.11.44.23.65.37.38.24-.1-.1.1.07.1.08.19.17.28.26.23.24.17.17.34.46.1.17.13.27.2.53.04.13.06.26.09.4.1.48 0-.25.04.24.02.27.03.54.02.81 0 .22-.04.47-.04.48-.1.55-.25 1.03-.44 1.39-.97 1.9-3.03 3.02-5.35 2.75-1.3-.15-2.68-.69-3.57-1.67s-1.15-2.29-1.02-3.58c.08-.81-.75-1.5-1.5-1.5-.88 0-1.42.69-1.5 1.5Z"/>
    <path d="M171.75 159.73c-.2.56-.12 1.19.16 1.7s.79.83 1.32 1.01c.77.27 1.71.18 2.49 0 .82-.2 1.7-.62 2.27-1.26.34-.39.64-.85.73-1.37.13-.71.02-1.35-.28-2-.97-2.11-3.96-2.4-5.78-1.26-1.09.69-1.82 1.92-1.69 3.24.04.36.11.69.29 1 .12.21.27.4.43.58.24.27.56.49.89.65.9.41 1.86.45 2.76.01.84-.41 1.36-1.32 1.48-2.21.13-.95-.17-1.92-.95-2.52-.41-.32-.9-.49-1.43-.5-.72 0-1.1.34-1.48.85-.44.59-.66 1.37-.45 2.09.09.32.28.61.51.85.27.27.57.39.92.53s.86.02 1.16-.15.61-.54.69-.9c.09-.38.07-.81-.15-1.16s-.51-.53-.9-.69l-.06-.02.36.15c-.06-.03-.12-.07-.18-.11l.3.23s-.06-.06-.09-.1l.23.3s-.03-.04-.04-.07l.15.36s-.03-.1-.04-.15l.05.4v-.16l-.05.4c.01-.08.04-.16.07-.23l-.15.36c.07-.16.16-.3.26-.43l-.23.3s.05-.07.08-.1l-1.06.44h.21l-.4-.05c.08.01.15.03.23.06l-.36-.15c.07.03.13.07.19.11l-.3-.23c.06.05.11.1.16.16l-.23-.3c.06.08.1.15.14.24l-.15-.36c.04.11.07.22.09.33l-.05-.4c.02.14.01.28 0 .42l.05-.4c-.02.15-.06.29-.12.42l.15-.36c-.06.12-.12.24-.2.35l.23-.3c-.06.08-.13.15-.21.21l.3-.23c-.08.06-.16.11-.25.15l.36-.15c-.12.05-.24.08-.37.1l.4-.05c-.13.01-.26.01-.39 0l.4.05c-.15-.02-.3-.06-.44-.12l.36.15c-.14-.06-.27-.14-.4-.23l.3.23c-.11-.09-.21-.18-.29-.29l.23.3c-.07-.1-.14-.2-.19-.32l.2.76c-.03-.22-.03-.43 0-.65l-.05.4c.02-.16.07-.32.13-.48l-.15.36c.06-.14.14-.28.23-.4l-.23.3c.11-.14.24-.27.38-.38l-.3.23c.18-.14.37-.24.58-.33l-.36.15c.26-.11.53-.18.81-.22l-.4.05c.3-.04.61-.04.91 0l-.4-.05c.23.03.46.09.68.18l-.36-.15c.15.06.28.14.41.24l-.3-.23c.09.07.18.16.25.25l-.23-.3c.11.15.21.32.28.49l-.15-.36c.06.15.11.3.13.45l-.05-.4c.01.11.01.22 0 .33l.05-.4c-.02.11-.04.22-.09.33l.15-.36c-.05.12-.12.24-.2.34l.23-.3c-.11.13-.23.25-.36.36l.3-.23c-.22.16-.45.29-.7.4l.36-.15c-.34.14-.69.23-1.06.28l.4-.05c-.29.04-.58.05-.87 0l.4.05c-.15-.02-.29-.06-.43-.11l.36.15a.817.817 0 0 1-.2-.12l.3.23s-.09-.08-.12-.12l.23.3s-.05-.07-.06-.11l.15.36s-.03-.08-.03-.13l.05.4v-.16l-.05.4c0-.07.03-.14.05-.21.13-.35.03-.85-.15-1.16s-.54-.61-.9-.69c-.38-.09-.81-.07-1.16.15s-.55.51-.69.9ZM176.24 179.62c14.35-3.16 28.89-5.42 43.52-6.76 1.91-.17 1.93-3.18 0-3a358.38 358.38 0 0 0-44.32 6.86c-1.88.41-1.09 3.31.8 2.89ZM176.47 184.21c12.05-.41 24.11-.2 36.14.63 1.93.13 1.92-2.87 0-3-12.03-.82-24.09-1.03-36.14-.63-1.93.06-1.93 3.07 0 3ZM136.56 181.12c-13.71.84-27.43 1.5-41.11 2.71-1.91.17-1.93 3.17 0 3 13.68-1.21 27.41-1.87 41.11-2.71 1.92-.12 1.93-3.12 0-3ZM130 175.8c-11.43.62-23.33.78-34.52-1.96-1.87-.46-2.67 2.43-.8 2.89 11.45 2.8 23.62 2.7 35.32 2.07 1.92-.1 1.93-3.11 0-3Z"/>
    <path d="M133.02 160.75c.07 1.46.91 3.08 1.94 4.12 2.12 2.14 7.35 1.95 9.62.1s2.57-5.24 1.42-7.79c-.62-1.37-1.7-1.24-2.94-2.07-2.2-1.47-6.14-1.31-7.93.65-1.57 1.72-2.26 1.85-2.11 4.99Z" fill="#78c9f0"/>
    <path d="M131.52 160.75c.14 1.95 1.04 3.93 2.48 5.27 1.14 1.07 2.65 1.58 4.18 1.78 3.14.42 6.74-.37 8.64-3.09.98-1.4 1.4-3.26 1.3-4.96-.1-1.78-.62-3.87-2.2-4.89-.7-.45-1.24-.53-1.93-.95s-1.43-.79-2.24-1c-1.62-.43-3.47-.41-5.06.16s-2.8 1.68-3.89 2.97c-1.16 1.38-1.36 2.95-1.28 4.7.03.81.67 1.5 1.5 1.5.79 0 1.53-.69 1.5-1.5-.02-.4-.03-.8-.01-1.2 0-.11.01-.22.02-.33.02-.47-.07.25.02-.17.04-.2.1-.39.16-.58-.16.45.29-.42.15-.24-.14.2.08-.09.09-.11.08-.09.16-.18.24-.26.15-.16.3-.32.46-.47.43-.45.75-.83 1.15-1.08.95-.58 2.06-.75 3.27-.65.34.03.96.16 1.44.33.15.06.33.14.59.3.34.2.66.41 1.02.57.29.13.6.25.75.32.14.06.27.13.41.21.03.02.23.16.06.03.2.16.29.35.35.49.14.32.23.67.31 1.02.25 1.1.19 2.3-.28 3.42-.14.34-.46.85-.76 1.16-.41.42-.56.53-1.22.84-.77.36-2.01.57-3.03.58-1.24 0-2.37-.2-3.35-.82-.24-.15-.09-.06-.04-.01-.16-.12-.3-.27-.44-.42-.24-.25-.43-.53-.61-.82-.39-.64-.7-1.38-.75-2.1-.06-.81-.65-1.5-1.5-1.5-.77 0-1.56.69-1.5 1.5Z"/>
    <path d="M137.18 159.58c.02.26.05.52.12.77s.17.48.27.7.26.41.42.6.35.33.54.46.44.23.67.3c.12.04.24.05.37.06.14.02.27.04.41.04.28-.01.56-.05.83-.13.19-.06.38-.14.56-.22.15-.07.28-.19.4-.29.03-.03.06-.05.09-.09.11-.13.22-.26.31-.41.12-.19.2-.41.26-.62.07-.23.09-.47.11-.71v-.34c-.05-.51-.14-.93-.4-1.39-.03-.05-.05-.09-.09-.13-.1-.14-.21-.29-.33-.42-.16-.16-.35-.32-.55-.42-.38-.19-.63-.25-1.05-.3-.24-.03-.49.02-.72.06-.48.09-.88.37-1.25.67-.1.08-.18.16-.26.26-.15.18-.31.38-.42.59s-.21.43-.26.66c-.04.18-.06.36-.08.54v.17c.03.42.1.66.27 1.04.02.05.05.1.08.14.11.16.22.31.36.45s.3.25.45.37c.06.05.13.09.2.13.22.11.46.22.71.26.44.07.68.07 1.13 0 .24-.04.48-.15.69-.26.43-.21.78-.59 1.04-.99s.41-.93.4-1.41c0-.25-.04-.51-.13-.75-.12-.31-.21-.5-.43-.75-.01-.02-.03-.03-.05-.05-.1-.1-.23-.2-.36-.27-.02 0-.03-.02-.05-.03-.13-.06-.27-.13-.41-.17-.17-.05-.35-.06-.52-.08h-.15c-.17.01-.35.03-.52.07-.16.04-.31.11-.45.19-.02 0-.03.02-.05.03-.11.07-.25.17-.34.26-.17.17-.26.33-.35.53s-.13.39-.14.64c0 .36.13.69.35.96.05.06.09.13.15.19.1.1.24.19.35.27.17.11.36.17.56.18.2.04.4.04.6-.03.35-.1.73-.36.9-.69.18-.35.28-.77.15-1.16l-.15-.36c-.13-.23-.31-.4-.54-.54h-.02c.1.07.2.14.3.22l-.06-.06.23.3s-.01-.02-.02-.03l.15.36v-.02l.05.4v-.03l-.05.4v-.03l-.15.36s.01-.02.02-.03l-.23.3.04-.04-.3.23s.06-.04.09-.05l-.36.15c.05-.02.1-.03.16-.04l-.4.05c.07 0 .14-.01.21 0l-.4-.05.13.03-.36-.15s.07.03.1.05l-.3-.23s.05.04.07.07l-.23-.3s.04.05.05.08l-.15-.36c.03.08.05.16.07.25l-.05-.4c.01.09.01.18 0 .27l.05-.4a.9.9 0 0 1-.08.28l.15-.36c-.04.1-.1.19-.16.28l.23-.3c-.07.08-.14.16-.23.23l.3-.23c-.09.07-.18.12-.28.17l.36-.15c-.1.04-.2.07-.31.09l.4-.05c-.09.01-.19.01-.28 0l.4.05a.9.9 0 0 1-.28-.08l.36.15c-.1-.04-.19-.1-.28-.17l.3.23c-.09-.07-.17-.15-.24-.24l.23.3a.817.817 0 0 1-.12-.2l.15.36a.83.83 0 0 1-.06-.21l.05.4v-.25l-.05.4c.02-.11.04-.21.09-.31l-.15.36c.05-.13.12-.25.21-.35l-.23.3c.09-.11.19-.21.3-.3l-.3.23c.1-.08.21-.15.33-.2l-.36.15c.1-.04.21-.07.32-.09l-.4.05h.26l-.4-.05c.08.01.16.03.23.06l-.36-.15c.08.03.15.07.21.13l-.3-.23c.06.05.12.11.17.17l-.23-.3c.07.09.13.19.17.3l-.15-.36c.06.14.1.29.12.44l-.05-.4c.02.16.02.33 0 .49l.05-.4c-.02.12-.05.24-.09.35l.15-.36c-.03.07-.07.14-.12.2l.23-.3s-.07.08-.11.11l.3-.23s-.08.05-.12.07l.36-.15c-.15.06-.31.11-.47.13l.4-.05c-.12.01-.23.02-.35 0l.4.05c-.09-.01-.18-.04-.27-.07l.36.15a1.71 1.71 0 0 1-.23-.13l.3.23c-.08-.07-.16-.14-.22-.22l.23.3c-.08-.11-.15-.23-.2-.35l.15.36c-.07-.17-.12-.35-.14-.53l.05.4s0-.07-.01-.11c0-.21-.04-.4-.13-.58-.06-.19-.16-.35-.31-.48-.26-.26-.69-.46-1.06-.44s-.79.14-1.06.44c-.25.28-.48.67-.44 1.06ZM147 201.27h17.87c1.93 0 1.93-3 0-3H147c-1.93 0-1.93 3 0 3ZM164.36 152.29c8.03-3.58 16.92-3.08 25.02-.02 1.81.68 2.59-2.22.8-2.89-8.91-3.37-18.57-3.58-27.34.32-1.76.78-.24 3.37 1.51 2.59ZM151.23 149.74c-8.61-4.49-17.98-2.21-27.08-.89-1.9.28-1.09 3.17.8 2.89 8.2-1.2 16.99-3.47 24.77.58 1.71.89 3.23-1.7 1.51-2.59Z"/>
  </g>
  <text transform="translate(86.42 44.69)" fill="#fff" font-family="Times-Roman, Times" font-size="20" opacity=".8"><tspan x="0" y="0" letter-spacing="-.12em">D</tspan><tspan x="12.06" y="0" letter-spacing="-.19em">A</tspan><tspan x="22.77" y="0" letter-spacing="-.04em">V</tspan><tspan x="36.41" y="0" letter-spacing="-.04em">I</tspan><tspan x="42.32" y="0" letter-spacing="-.05em">D </tspan><tspan x="59.76" y="0" letter-spacing="-.04em">M</tspan><tspan x="76.79" y="0" letter-spacing="-.06em">E</tspan><tspan x="87.91" y="0" letter-spacing="-.11em">O</tspan><tspan x="100.16" y="0" letter-spacing="-.03em">W</tspan><tspan x="118.38" y="0" letter-spacing="-.04em">I</tspan><tspan x="124.34" y="0" letter-spacing="-.05em">E</tspan></text>
</svg>
