<svg xmlns="http://www.w3.org/2000/svg" viewBox="0 0 309.12 305.74">
  <defs>
    <linearGradient id="a" x1="241.82" y1="14.28" x2="241.82" y2="29.38" gradientUnits="userSpaceOnUse">
      <stop offset=".02" stop-color="#4c75b9"/>
      <stop offset="1" stop-color="#e7022c"/>
    </linearGradient>
  </defs>
  <path d="M305.5 1.48c-6.66 109.41 8.55 200.94-1.31 302.46-133.63.01-199.56.67-302.26 0C9.25 229.95-4.58 17.21 5.06 5.63c0 0 292.64-2.44 300.44-4.14Z" fill="#fff"/>
  <path d="M304 1.48c-1.25 20.71-1.77 41.45-1.75 62.19s.51 39.57 1.15 59.35 1.4 38.5 1.96 57.75.9 38.26.69 57.39-1.02 38.89-2.68 58.27c-.21 2.51-.44 5.01-.69 7.51l1.5-1.5c-23.76 0-47.52.03-71.28.07-20.16.03-40.31.08-60.47.13-18.1.04-36.21.08-54.31.1a15499.75 15499.75 0 0 1-108.81-.24c-2.46-.01-4.93-.03-7.39-.05l1.5 1.5c.83-8.38 1.26-16.8 1.58-25.21.39-10.4.55-20.8.62-31.21.08-11.84.03-23.67-.09-35.51-.12-12.53-.32-25.06-.55-37.58s-.5-25.3-.76-37.94-.51-24.29-.73-36.43c-.2-11.01-.37-22.03-.45-33.04-.07-9.26-.08-18.52.07-27.77.12-6.91.3-13.82.85-20.71.32-3.97.44-7.43 1.84-11.23.11-.3-.17.32.02-.05.05-.1.1-.21.15-.31.13-.25.44-.64.14-.26l-1.06.44c2.62-.02 5.24-.04 7.86-.07 7.14-.06 14.27-.12 21.41-.19 10.53-.1 21.06-.19 31.59-.29 12.92-.12 25.84-.25 38.77-.38 14.2-.14 28.41-.29 42.61-.45 14.35-.16 28.71-.32 43.06-.5 13.53-.17 27.06-.34 40.59-.53 11.57-.16 23.15-.34 34.72-.55 8.51-.15 17.03-.31 25.54-.54 4.43-.12 8.9-.14 13.32-.52.46-.04.94-.08 1.39-.17 1.89-.4 1.09-3.29-.8-2.89-.42.09.06 0 .02 0l-.55.06c-.53.05-1.06.08-1.6.11-1.78.1-3.56.17-5.34.23-5.99.21-11.98.34-17.98.47-8.63.18-17.26.33-25.88.47-10.64.17-21.27.33-31.91.47-11.91.16-23.83.31-35.74.46-12.44.15-24.88.29-37.31.43s-24.73.27-37.1.39c-11.54.12-23.09.23-34.63.34-9.98.1-19.97.19-29.95.28l-23.42.21c-4.89.04-9.77.09-14.66.13-1.13 0-2.25.02-3.38.03s-1.87.47-2.39 1.52c-.82 1.64-1.16 3.53-1.45 5.33-.48 2.94-.75 5.91-.97 8.88-.63 8.7-.76 17.46-.83 26.21-.1 11.85 0 23.7.17 35.55.19 13.99.47 27.98.76 41.98.31 15.02.64 30.04.92 45.07s.53 29.85.67 44.78c.13 13.89.17 27.78 0 41.66-.14 11.72-.42 23.45-1.09 35.16-.26 4.56-.59 9.12-1.04 13.67-.08.81.75 1.5 1.5 1.5 18.9.12 37.8.21 56.7.26 17.65.04 35.31.05 52.96.04 17.96-.01 35.92-.05 53.88-.09 19.82-.04 39.63-.09 59.45-.13 23.23-.04 46.46-.07 69.69-.08h9.59c.87 0 1.42-.69 1.5-1.5 1.88-19.44 2.89-38.95 3.26-58.47s.12-38.29-.38-57.43-1.26-38.42-1.92-57.63-1.24-39.38-1.37-59.08.2-41.19 1.26-61.76c.14-2.7.29-5.39.45-8.08.12-1.93-2.88-1.92-3 0Z"/>
  <path d="M218.26 92.41c.28 18.51 7.79 58.16 23.27 72.5-.84 1.47-10.82-2.46-15.02-4.61 3.1 10.8 11.85 20.46 11.76 20.99-.29 1.64-9.39 1.43-14.88-4.82-6.04-6.88-4.84-30.88-6.7-41.61-.67-3.84-5.05-22.77-4.17-26.56" fill="#b73517"/>
  <path d="M216.04 92.41c.16 9.79 1.69 19.64 3.76 29.19 2.37 10.94 5.62 21.91 10.79 31.88 2.46 4.74 5.45 9.35 9.37 13.01l-.35-2.7c.31-.44.88-.92 1.23-.79-.13-.05-.46 0-.61 0-.57-.02.47.09-.16-.02-.29-.05-.59-.11-.88-.18-1.32-.3-2.62-.73-3.9-1.18-2.61-.92-5.18-1.98-7.65-3.24-1.67-.85-3.85.56-3.27 2.52 1.45 4.95 3.86 9.58 6.65 13.89 1.05 1.62 2.16 3.2 3.3 4.75.4.55.81 1.09 1.22 1.64.2.27.43.78.7.99.04.03.03.09.06.11-.53-.47-.2-1.67.12-2.13.12-.16.27-.43.58-.41-.18-.01-.51.14-.7.18.59-.12-.42.01-.62.01-1.6 0-3.03-.32-4.69-.92a14.53 14.53 0 0 1-5.27-3.31c-.33-.32-.65-.66-.94-1.02-.23-.29.29.43-.06-.08-.07-.11-.15-.22-.22-.33-.36-.56-.79-1.4-.97-1.84-1.27-3.01-1.91-6.87-2.33-10.29-.52-4.25-.79-8.53-1.04-12.81-.23-3.88-.42-7.77-.85-11.63-.31-2.7-.84-5.34-1.4-8.01-.84-4.05-1.67-8.1-2.37-12.18-.33-1.95-.58-3.5-.77-5.33-.07-.72-.13-1.45-.15-2.18v-.86c0-.09.02-.18.02-.27.01-.43-.11.59 0 .03.6-2.8-3.69-3.99-4.3-1.18s.13 6.27.58 9.17c.63 3.98 1.42 7.94 2.23 11.88.53 2.56 1.26 5.71 1.55 7.93.54 4.07.71 8.2.95 12.3.27 4.59.55 9.2 1.14 13.76.52 4.03 1.18 8.11 2.83 11.86 1.76 3.97 5.32 6.73 9.27 8.35 2.77 1.14 7.39 2.44 10.18.64 1.6-1.03 1.64-2.77.62-4.2s-2.07-2.78-3.07-4.2c-3.35-4.76-6.36-9.88-8-15.5l-3.27 2.52c3.16 1.61 6.5 2.97 9.87 4.08 2.41.79 6.38 2.32 8.19-.27.55-.78.33-2.07-.35-2.7-6.97-6.51-11.01-16.04-14.07-24.96-3.51-10.22-5.89-20.87-7.35-31.57-.65-4.77-1.11-9.59-1.19-14.4-.05-2.86-4.5-2.87-4.46 0Z"/>
  <path d="M89.18 90.41c-.28 18.51-5.22 66.02-20.7 80.35.84 1.47 11.82-1.46 16.02-3.61-3.1 10.8-12.57 19.49-12.76 19.99-1.04 2.72 9.39 2.43 14.88-3.82 6.04-6.88 9.4-21.3 5.14-48.46-.6-3.85 5.05-22.77 4.17-26.56" fill="#b73517"/>
  <path d="M86.95 90.41c-.16 10.23-1.19 20.49-2.72 30.61-1.79 11.79-4.21 23.88-8.87 34.88-2.1 4.95-4.67 9.75-8.46 13.3-.67.63-.89 1.92-.35 2.7 1.81 2.6 6.17 1.29 8.68.71 3.53-.81 7.13-1.89 10.38-3.53l-3.27-2.52c-1.48 5.03-4.29 9.64-7.56 13.71a77.23 77.23 0 0 1-3.57 4.11c-.82.88-1.71 1.68-1.77 2.98-.2 4.37 6.12 3.8 8.8 3.21 4.53-1 8.49-3.58 11.24-7.29 4.26-5.75 5.64-13.3 6.17-20.27.42-5.44.24-10.92-.23-16.35-.3-3.49-.73-6.97-1.24-10.44-.05-.32-.09-.64-.14-.96-.02-.12-.13-1.67-.1-.58 0-.21-.02-.41-.02-.62 0-.31.03-.62.05-.93.01-.16.14-1.18.08-.72.62-4.45 1.74-8.82 2.66-13.21.44-2.12.88-4.24 1.18-6.38.24-1.67.51-3.4.16-5.08-.59-2.8-4.89-1.62-4.3 1.18.11.52.03-.5 0 .09-.01.27 0 .54 0 .81-.02.66-.1 1.32-.18 1.97.05-.35-.11.67-.14.86l-.21 1.21c-.17.97-.36 1.93-.56 2.9-.79 3.88-1.7 7.74-2.44 11.63-.31 1.62-.6 3.26-.73 4.91-.16 2.01.38 4.02.65 6 .76 5.65 1.26 11.35 1.27 17.06.01 4.25-.22 8.51-1 12.62-.32 1.69-.73 3.36-1.26 5-.23.7-.47 1.39-.74 2.07-.22.55-.02.09-.26.62-.17.36-.34.73-.52 1.08-.58 1.15-1.25 2.25-2.01 3.29-.33.45.2-.25-.02.02-.09.11-.18.22-.26.33a12.928 12.928 0 0 1-3.45 2.99 16.252 16.252 0 0 1-5.64 2.07c-.44.07-1.32.15-2.02.12-.2 0-.4-.02-.59-.05.48.06.17 0 .06 0-.16-.02-.31-.08-.46-.12.52.15.19.12.04 0 .28.22.61.78.59 1.09-.01.22-.16.67-.2.76-.03.06-.48.51-.21.28.36-.31.68-.74 1-1.09 1.26-1.36 2.49-2.76 3.64-4.22 3.68-4.63 6.84-9.73 8.52-15.45.58-1.96-1.6-3.36-3.27-2.52-2.41 1.21-5.35 2.08-8.14 2.79-.72.18-1.44.35-2.16.5-.36.07-.72.14-1.07.21-.09.02-.95.14-.64.1-.54.07-1.07.08-1.6.1-.6.03.09.1-.13 0-.23-.07-.15-.03.23.12-.33-.2-.15 0 .55.59l-.35 2.7c3.56-3.33 6.14-7.65 8.19-12.04 2.53-5.41 4.42-11.1 5.96-16.86 3.24-12.12 5.11-24.64 6.28-37.12.49-5.29.85-10.59.94-15.9.04-2.87-4.41-2.87-4.46 0Z"/>
  <path d="M96.35 206.16a713.22 713.22 0 0 1-4.27-66.14c-.41-22.7.13-46.18-8.66-67.11 7.51 2 27.03 10.62 29.85 11.06 2.44.38 21.09-5.21 34.47-6.09 28.96-1.91 44.99 4.14 46.02 4.19 1.19.05 2.32-.45 3.4-.94 6.76-3.07 23.92-10.59 30.68-13.65-2.32 8.33-12.67 32.95-13.8 35.44-3.24 7.08-1.16 15.32.66 22.9 7.13 29.77 7.73 51.44-3.2 80.04" fill="#fff"/>
  <path d="M98.57 206.16a717.599 717.599 0 0 1-3.98-55.01c-.57-17.12.04-34.38-2.13-51.4-1.2-9.4-3.25-18.67-6.9-27.44l-2.74 2.74c4.65 1.25 9.15 3.13 13.61 4.9s9.04 3.69 13.62 5.35c1.13.41 2.33.9 3.56.91 1.63 0 3.36-.47 4.95-.8 5.83-1.23 11.61-2.64 17.47-3.72 13.44-2.48 27.42-2.59 40.96-.84 3.99.52 7.96 1.26 11.87 2.23 2.07.52 4.2 1.47 6.36 1.08 2.5-.45 5.05-2.01 7.38-3.05 2.62-1.17 5.24-2.33 7.86-3.49 5.22-2.31 10.45-4.62 15.67-6.95.95-.42 1.89-.85 2.83-1.27l-3.27-2.52c-1.88 6.69-4.65 13.19-7.23 19.63-1.35 3.35-2.72 6.69-4.11 10.03-.26.63-.53 1.26-.79 1.89-.15.36.2-.47-.04.09-.05.11-.09.22-.14.34-.13.31-.26.61-.39.92-.28.65-.56 1.3-.84 1.94-2.35 5.31-2.32 10.88-1.37 16.53.99 5.96 2.7 11.79 3.88 17.71 2.14 10.7 3.41 21.59 2.91 32.52-.59 12.66-3.72 24.98-8.22 36.79-.43 1.12.47 2.44 1.56 2.74 1.25.34 2.31-.43 2.74-1.56 4.09-10.75 7.03-21.9 8.06-33.38.98-10.83.14-21.71-1.67-32.41-1-5.9-2.33-11.73-3.7-17.55-1.28-5.41-2.62-11.27-1.15-16.78.6-2.27 1.73-4.45 2.64-6.62 1.31-3.12 2.6-6.24 3.88-9.38 2.96-7.3 6.16-14.66 8.29-22.26.57-2.02-1.59-3.28-3.27-2.52-9.7 4.4-19.48 8.62-29.2 12.99-.43.19-.86.39-1.3.58-.21.09-2.49.82-2.46.72s.86.19.07-.04-1.66-.46-2.49-.68c-3.49-.93-7.03-1.64-10.6-2.2-13.22-2.05-27.01-2.38-40.26-.46-6.35.92-12.62 2.32-18.87 3.72-2.18.49-4.36 1-6.56 1.4-.33.06-.66.11-.99.16.68-.1-.19 0-.39.02-.07 0-.2-.03-.26 0-.13.05.54.16.27.03-.2-.1-.49-.13-.71-.19-3.98-1.2-7.84-2.95-11.69-4.49-4.84-1.93-9.68-3.91-14.63-5.55-.87-.29-1.75-.56-2.63-.8-1.48-.4-3.42 1.11-2.74 2.74 6.45 15.46 7.84 32.26 8.28 48.83.23 8.53.24 17.07.49 25.6.27 9.15.71 18.3 1.33 27.43.7 10.29 1.62 20.55 2.76 30.8.13 1.2.93 2.23 2.23 2.23 1.1 0 2.36-1.02 2.23-2.23Z"/>
  <path d="M152.04 147.34c-1.97-1.77-3.99-3.48-5.87-5.35-1.71-1.69-3.6-3.6-4.54-5.86l-1.56 2.74c6.61-2.06 13.76-2.34 20.63-2.59.36-.01.74-.05 1.1-.03.68.03.45.15.32-.21.09.24-.09.87-.25 1.23-.61 1.41-1.87 2.64-2.93 3.72-2.59 2.64-5.67 4.67-9.07 6.12-.92.39-1.23 1.64-1.02 2.52 1.02 4.43 1.31 8.93.94 13.46l2.23-2.23c-3.55.12-6.59 2.07-9.4 4.06-2.62 1.85-5.33 4.2-8.59 4.73-1.19.19-1.85 1.67-1.56 2.74.35 1.26 1.55 1.75 2.74 1.56 3.29-.54 6.12-2.66 8.77-4.55 2.32-1.65 5.05-3.98 8.04-4.08 1.28-.04 2.13-.99 2.23-2.23.4-4.91 0-9.84-1.1-14.65l-1.02 2.52c3.18-1.36 6.1-3.26 8.67-5.58 2.32-2.09 5.1-4.85 5.68-8.05.29-1.58-.01-3.23-1.23-4.37-1.44-1.34-3.43-1.18-5.24-1.11-3.3.13-6.61.32-9.89.67-3.78.4-7.59.92-11.23 2.06-1.04.32-2.03 1.6-1.56 2.74 2.29 5.5 7.25 9.29 11.56 13.17 2.13 1.91 5.29-1.23 3.15-3.15Z"/>
  <path d="M152.18 165.3c.47.03-.45-.12-.02-.01.14.04.29.06.44.1.31.08.6.19.9.3-.53-.2-.04-.01.08.05.16.08.31.15.46.24.32.17.63.35.94.54 1.38.85 2.68 1.84 3.98 2.81 2.49 1.85 5.16 3.9 8.37 4.14 1.2.09 2.23-1.09 2.23-2.23 0-1.28-1.02-2.14-2.23-2.23-.47-.03.45.12.02.01-.14-.04-.29-.06-.44-.1-.31-.08-.6-.19-.9-.3.53.2.04.01-.08-.05-.16-.08-.31-.15-.46-.24-.32-.17-.63-.35-.94-.54-1.38-.85-2.68-1.84-3.98-2.81-2.49-1.85-5.16-3.9-8.37-4.14-1.2-.09-2.23 1.09-2.23 2.23 0 1.28 1.02 2.14 2.23 2.23ZM181.25 141.31a518.33 518.33 0 0 1 50.28-8.53c4.78-.57 9.56-1.07 14.35-1.5 1.2-.11 2.23-.95 2.23-2.23 0-1.12-1.02-2.34-2.23-2.23a530.325 530.325 0 0 0-51.44 7.23c-4.81.92-9.6 1.91-14.38 2.96-2.8.62-1.61 4.91 1.18 4.3ZM181.6 148.12c17.89-.61 35.81-.3 53.67.93 2.86.2 2.85-4.26 0-4.46a522.208 522.208 0 0 0-53.67-.93c-2.86.1-2.87 4.55 0 4.46Z"/>
  <path d="M168.52 114.39c-5.44-5.51 14.04-9.28 21.76-8.81 2.17.13 3.55.51 4.65 1.19 3.2 2.01 3.4 6.57.57 9.07-3.62 3.2-9.29 7.04-14.68 5.91-4.43-.93-8.66-3.67-12.31-7.36ZM140.2 114.39c5.44-5.51-14.04-9.28-21.76-8.81-2.17.13-3.55.51-4.65 1.19-3.2 2.01-3.4 6.57-.57 9.07 3.62 3.2 9.29 7.04 14.68 5.91 4.43-.93 8.66-3.67 12.31-7.36Z" fill="#d05b76"/>
  <path d="M170.2 116.55c2.83 4.62 7.93 7.44 13.38 6.59 4.54-.71 8.28-4.32 9.35-8.76.67-2.79-3.63-3.98-4.3-1.18-.71 2.95-2.88 5.09-5.99 5.6-.12.02-.59.06-.95.06s-.89-.01-1.19-.06c-.76-.11-1.66-.36-2.37-.72-1.7-.86-3.09-2.17-4.08-3.79-1.5-2.44-5.35-.2-3.85 2.25Z"/>
  <path fill="#ff0013" d="m126 81.31-25.1 64.44 24.92-14.03-18.16 50.37 64.11-84.53-37.15 26.51L161.4 77.6 126 81.31z"/>
  <path fill="#00b8d5" d="m119.48 82.67-18.58 63.08 26.58-64.44-8 1.36zM122.33 133.69l4.83-2.68-19.5 51.08 14.67-48.4z"/>
  <path d="M122.33 143.53c-16.07.98-32.15 1.84-48.21 3-4.28.31-8.57.64-12.85 1.02-1.2.11-2.23.95-2.23 2.23 0 1.12 1.02 2.33 2.23 2.23 16.04-1.42 32.12-2.3 48.19-3.25 4.29-.25 8.58-.5 12.86-.77 2.85-.17 2.87-4.63 0-4.46ZM112.58 135.63c-8.62.47-17.26.63-25.88.28s-17.08-1.15-25.38-3.19c-2.78-.68-3.97 3.61-1.18 4.3 8.54 2.1 17.37 2.96 26.14 3.34s17.55.21 26.31-.27c2.85-.16 2.87-4.61 0-4.46ZM114.12 116.28c1.64 4.7 6.11 7.97 11.12 7.64 4.22-.28 8.6-2.11 11.17-5.57.72-.97.16-2.49-.8-3.05-1.13-.66-2.33-.17-3.05.8.25-.34-.02.02-.08.08-.12.12-.23.25-.35.37-.11.11-.75.67-.52.49-.63.49-1.35.9-2.07 1.25-.61.3-1.13.49-1.95.73-.43.12-.86.23-1.3.31-.54.1-.28.07-.82.12-.38.03-.77.05-1.16.04-.19 0-.38-.01-.56-.02-.14 0-.5-.05-.17 0-.35-.05-.7-.13-1.04-.23.01 0-.56-.19-.31-.09s-.23-.11-.28-.14c-1.52-.81-2.96-2.26-3.53-3.91-.4-1.14-1.52-1.89-2.74-1.56-1.1.3-1.95 1.6-1.56 2.74Z"/>
  <path d="m177.09 87.03-6.41-14.12c6.46 8.16 14.95 8.5 22.02 9.18 0 0 6.16-.17 7.47 5.78 2.52 11.46 9.27 11.65 10.61 23.95 9.46-7.81-4.67-26.4-3.7-33.74.92-6.94 1.29-9.78 1.35-16.78.1-11.53-7.71-23.27-19.25-25.68s-16.5.4-26.9 5.85c.12-13.93-19.15-15.65-25.95-19.25 1.91 4.16 9.14 18.42 5.15 16-11.34-6.87-22.7-8.66-28.9-4.29 2.41 2.65 11.08 11.6 8.34 12.62 0 0-24.88-6.63-34.26 14.8l16.58-.56c-3.71 3.43-11.77 7.78-12.91 13.14 0 0 6.83-1.33 7.96 3.65 2.3 10.08-10.48 27.83-10.48 27.83 4.15 4.3 17.29-11.51 19.08-20.55l13.96 5.53c-3.8-5.31-4.49-8.44-4.93-13.52 5.82 10.13 14.25 17.54 31.74 15.53-1.46-3.12-2.98-3.47-4.13-5.94 0 0 4.92.61 11.27 2.37 0 0 1.46-3.54 22.3-1.81Z" fill="#b73517"/>
  <path d="M179.01 85.91c-2.14-4.71-4.28-9.41-6.41-14.12l-3.5 2.7c3.24 4.03 7.6 6.82 12.57 8.21 3.64 1.02 7.5 1.38 11.26 1.63.16.01.33.03.49.03.36.02-.16-.02-.19-.03.16.03.31.05.47.08.27.06.53.12.79.19.16.05.32.1.47.15.61.21-.36-.19.25.1 1.42.69 2.28 1.61 2.73 3.28.63 2.37 1.28 4.65 2.38 6.85.84 1.67 1.89 3.21 2.98 4.72 1.15 1.6 2.31 3.19 3.21 4.94 1.14 2.22 1.75 4.71 2.04 7.18.23 1.95 2.25 2.89 3.8 1.58 5.55-4.71 4.1-12.58 2.09-18.66-1.09-3.31-2.47-6.52-3.65-9.79-.49-1.36-.96-2.73-1.28-4.14-.06-.27-.11-.54-.17-.82-.12-.64-.03.04-.06-.46-.03-.66 0-1.27.08-1.92 1.15-8.77 2.64-18.35-.63-26.84s-9.75-15.12-18.44-17.17c-4.94-1.16-10.16-1.51-15.12-.26-4.96 1.25-9.52 3.86-14.02 6.22l3.35 1.92c-.01-11.75-11.79-15.99-21.16-18.99-1.14-.37-2.29-.73-3.42-1.14-.5-.18-1-.36-1.49-.57-.24-.1.08.03.11.04-.14-.06-.27-.12-.41-.18-.23-.11-.45-.22-.68-.33-2.07-1.08-3.97 1.05-3.05 3.05 2.1 4.57 4.76 9 5.92 13.83.05.2.09.4.13.6-.13-.68 0-.16-.02.02 0 .03.04-.4.2-.63.47-.66 1.46-.94 1.88-.88.06 0 .51.27.21.08-.17-.11-.39-.23-.55-.33-.56-.33-1.13-.66-1.7-.97-1.17-.65-2.37-1.25-3.59-1.81-4.27-1.95-8.76-3.4-13.46-3.83-4.09-.37-8.52.21-11.98 2.58-1.22.83-1.47 2.38-.45 3.5 1.85 2.03 3.75 4.03 5.49 6.16.81.99 1.59 2 2.26 3.15.15.26.29.52.41.79-.2-.43-.02.09.06.23.13.26-.04-.05-.01-.2-.07.38.17-.45.05-.21.05-.1.99-1 .53-.8l1.72-.22c-9.18-2.43-20.44-1.13-28.09 4.68-3.83 2.91-6.74 6.75-8.69 11.15-.64 1.45.08 3.41 1.92 3.35 5.53-.19 11.05-.38 16.58-.56l-1.58-3.8c-4.63 4.21-11.92 7.48-13.48 14.12-.41 1.74 1.06 3.06 2.74 2.74.56-.11-.31 0-.02 0 .48 0 .95-.08 1.43-.08 1.18 0 1.97.09 2.88.67.3.19.55.39.8.97.22.53.28 1.15.3 1.6.08 1.47-.03 2.8-.29 4.12-1.22 6.09-4.31 11.79-7.56 17.02-.82 1.32-1.66 2.64-2.57 3.9-.56.79-.31 2.06.35 2.7 3.2 3.13 7.65.23 10.35-2.06 3.84-3.27 7.02-7.56 9.45-11.96 1.3-2.35 2.47-4.88 3.01-7.52l-2.74 1.56c4.65 1.84 9.3 3.68 13.96 5.53 1.77.7 3.6-1.74 2.52-3.27-1.39-1.96-2.73-4.02-3.5-6.31-.67-1.97-.94-4.02-1.12-6.08L114 78.01c3.03 5.24 6.97 10.07 12.3 13.11 6.47 3.69 14.09 4.33 21.37 3.52 1.72-.19 2.71-1.73 1.92-3.35-1.08-2.22-3.05-3.76-4.13-5.94l-1.92 3.35c.34.04-.64-.1-.27-.04.24.04.48.07.72.11.79.12 1.58.26 2.37.4 2.65.49 5.27 1.1 7.86 1.81.85.23 2.13-.13 2.52-1.02.15-.34-.44.53-.23.28.43-.48-.49.21.04-.05.15-.07.31-.16.45-.25.48-.29-.53.16.09-.04s1.18-.38 1.8-.51c.4-.09.79-.16 1.2-.22.1-.02.88-.12.34-.05.28-.03.55-.07.83-.09 1.27-.13 2.54-.2 3.81-.23 4.02-.1 8.05.13 12.06.46 2.86.23 2.84-4.22 0-4.46-5.58-.46-11.31-.83-16.89-.11-2.07.27-4.41.59-6.16 1.82-.4.29-.97.72-1.17 1.19l2.52-1.02c-3.89-1.07-7.86-1.94-11.86-2.45-1.82-.23-2.58 2.02-1.92 3.35 1.08 2.2 3.05 3.73 4.13 5.94l1.92-3.35c-6.5.72-13.32.4-19.12-2.91-4.67-2.67-8.03-6.9-10.7-11.52-1.05-1.81-4.35-1.15-4.15 1.12.22 2.45.49 4.93 1.28 7.27.9 2.67 2.33 5.09 3.95 7.38l2.52-3.27c-4.65-1.84-9.3-3.68-13.96-5.53-1.07-.42-2.52.47-2.74 1.56-1.05 5.08-4.3 9.92-7.69 13.85-1.61 1.87-3.44 3.74-5.34 4.92-.4.25-.81.48-1.24.67.4-.18-.58.16-.78.21.62-.14.01-.03-.16-.01-.26.02.22.18.04.02-.42-.39.18.25-.09-.01s.36.36-.09-.08l.35 2.7c2.81-3.91 5.25-8.16 7.27-12.53 1.55-3.35 2.94-6.87 3.5-10.55s.6-8.01-2.67-10.37c-2.27-1.64-5.42-1.81-8.1-1.31l2.74 2.74c.65-2.76 3.08-4.81 5.18-6.54 2.34-1.92 4.91-3.58 7.15-5.62 1.42-1.29.32-3.87-1.58-3.8-5.53.19-11.05.38-16.58.56l1.92 3.35c2.14-4.81 5.4-8.88 9.97-11.43 3.58-2 7.82-2.97 11.71-3.18 1.73-.09 3.47-.06 5.19.07.7.06 1.4.13 2.09.22-.67-.09.15.03.39.06.26.04.52.09.78.13.54.1 1.07.24 1.6.34 2.58.49 3.83-2.2 3.13-4.33-.8-2.44-2.71-4.57-4.33-6.5s-3.28-3.69-4.95-5.51l-.45 3.5c3.06-2.1 6.87-2.34 10.46-1.89 4.94.62 9.73 2.57 14.06 4.95 1.39.76 3.02 2.2 4.74 1.7 1.39-.41 1.96-1.76 1.91-3.09-.1-2.69-1.61-5.49-2.66-7.9-1.26-2.87-2.65-5.68-3.96-8.52l-3.05 3.05c3.64 1.9 7.76 2.8 11.61 4.17 4.06 1.44 8.36 3.26 11.11 6.67 1.38 1.71 2.12 4.06 2.12 6.48 0 1.75 1.87 2.7 3.35 1.92 3.7-1.94 7.4-4.06 11.41-5.33 3.65-1.16 7.42-1.33 11.19-.77 4.01.6 7.75 1.84 10.95 4.39s5.41 5.62 7.03 9.16c3.41 7.49 2.29 16.21 1.28 24.12-.21 1.6-.57 3.21-.4 4.82.14 1.34.44 2.65.83 3.94.9 2.96 2.13 5.82 3.22 8.71 1.23 3.26 2.56 6.94 2.85 10.23s-.2 5.57-2.56 7.56l3.8 1.58c-.54-4.65-1.95-8.82-4.63-12.67-2.35-3.36-4.63-6.49-5.72-10.52-.62-2.29-1.18-4.44-2.99-6.12-1.26-1.17-2.85-1.98-4.53-2.36-2.89-.66-5.96-.53-8.88-1.03-5.63-.95-10.37-3.3-14-7.8-.69-.85-2.14-.8-2.92-.17-.92.74-1.05 1.83-.57 2.87 2.14 4.71 4.28 9.41 6.41 14.12.5 1.1 2.09 1.36 3.05.8 1.13-.66 1.3-1.95.8-3.05ZM252.05 302.43c.83-6.76.74-13.63.33-20.42-.51-8.41-1.59-16.8-3.1-25.08-3.07-16.77-7.82-33.88-16.3-48.79-3.89-6.84-8.79-13.38-15.36-17.85-2.38-1.62-4.61 2.24-2.25 3.85s4.68 3.77 6.76 6.15c2.2 2.52 4.08 5.23 5.88 8.19 4.11 6.78 7.22 14.13 9.79 21.62 5.46 15.96 8.75 32.81 9.98 49.63.55 7.53.74 15.19-.18 22.7-.15 1.2 1.13 2.23 2.23 2.23 1.33 0 2.08-1.03 2.23-2.23ZM92.78 189.88c-11.79 13.94-19.09 31.01-23.83 48.51-4.16 15.37-6.32 31.15-8.11 46.94-.38 3.34-.74 6.68-1.16 10.02-.04.34-.09.68-.13 1.02-.02.17-.04.33-.07.5-.06.47 0 .06-.02.19-.09.65-.18 1.3-.28 1.96-.18 1.2-.38 2.4-.62 3.59-.56 2.8 3.74 4 4.3 1.18 1.01-5.1 1.51-10.31 2.09-15.47.77-6.86 1.55-13.72 2.57-20.55 2.49-16.77 6.16-33.63 12.94-49.23 3.97-9.14 9.01-17.89 15.46-25.52.78-.92.9-2.25 0-3.15-.8-.8-2.37-.92-3.15 0ZM95.2 301.8c-.99-5.49-3.05-10.78-6.42-15.25-2.6-3.45-5.77-6.27-9.08-9.02-.92-.77-2.24-.91-3.15 0-.79.79-.93 2.38 0 3.15 2.99 2.49 6 5.02 8.38 8.12 3.2 4.16 5.04 9.05 5.97 14.19.21 1.18 1.66 1.85 2.74 1.56 1.25-.34 1.77-1.55 1.56-2.74ZM112.14 253.67c3.1 6.8 5.76 14.12 6.47 21.53.51 5.35.04 10.7-.03 16.05-.04 3.57.13 7.12.57 10.66.15 1.19.92 2.23 2.23 2.23 1.09 0 2.38-1.03 2.23-2.23-.75-6.04-.52-12.03-.34-18.1s-.31-12.14-1.91-18.05c-1.33-4.94-3.25-9.7-5.37-14.34-.5-1.09-2.08-1.36-3.05-.8-1.13.66-1.3 1.95-.8 3.05ZM218.62 303.96c3.51-5.2 6.48-10.64 8.6-16.56 1.83-5.11 3.43-10.25 5.74-15.18.51-1.09.31-2.4-.8-3.05-.97-.56-2.54-.3-3.05.8-2.4 5.12-4.13 10.41-6 15.73-2.02 5.74-4.94 10.98-8.34 16.01-1.61 2.38 2.25 4.62 3.85 2.25ZM196.78 253.17c-2.83 8.74-5.4 17.66-6.7 26.78-.73 5.11-.91 10.2-.94 15.36-.01 2.36-.07 4.73-.31 7.08-.12 1.2 1.11 2.23 2.23 2.23 1.31 0 2.1-1.03 2.23-2.23.43-4.19.25-8.4.38-12.6.2-6.38 1.11-12.12 2.57-18.39 1.34-5.75 3.02-11.42 4.84-17.04.89-2.73-3.41-3.9-4.3-1.18Z"/>
  <path d="M189.18 81.35c-6.94-3.86 4.64-18.7-10-25.39 1.47 8.1-.29 12.06-2.62 19.54-.28-5.37-1.21-8.38-4.07-12.93s-7.7-8.07-13.07-8.38c4.72 7.02 5.85 13.42 4.95 21.83-5.36-12.76-10.95-13.55-17.36-19.19 1.04 6.84 2.33 14.92 5.32 21.16-4.29-2.04-13.06-8.12-16.87-10.96-.05 2.96.76 14.27 5.39 18 2.31 1.86 6.3 2.72 13.93 3.8 0 0 28.08 3.58 20.85-3.99 0 0 15.26-2.54 13.54-3.5Z" fill="#77170e"/>
  <path d="M190.31 79.42c-.11-.06-.7-.52-.29-.16-.17-.15-.33-.31-.48-.48.38.43-.05-.12-.12-.23-.32-.51 0 .11-.12-.23-.07-.22-.14-.44-.19-.67-.03-.11-.14-.88-.07-.3-.06-.52-.08-1.04-.08-1.56 0-2.35.35-4.69.37-7.04.03-2.77-.38-5.51-1.61-8.01-1.52-3.08-4.35-5.28-7.4-6.71-1.83-.86-3.62.54-3.27 2.52.53 3.03.65 6.13.05 9.17s-1.72 6.15-2.67 9.19l4.38.59c-.31-5.61-1.86-10.72-5.23-15.29s-8.37-7.83-14.14-8.24c-1.65-.12-2.83 1.99-1.92 3.35 2.02 3.04 3.59 6.28 4.36 9.86s.66 7.24.29 10.85l4.15-1.12c-2-4.72-4.65-9.21-8.53-12.63-2.91-2.56-6.29-4.5-9.17-7.01-1.77-1.54-4.06-.02-3.72 2.17 1.13 7.39 2.33 14.88 5.54 21.69l3.05-3.05c-3.01-1.46-5.83-3.33-8.61-5.18s-5.56-3.77-8.25-5.78c-1.41-1.05-3.33.38-3.35 1.92-.07 5.33.84 11.31 3.32 16.05 3.02 5.78 9.5 6.67 15.37 7.56 3.03.46 6.06.79 9.12 1.01 4.19.3 8.49.5 12.64-.2 1.77-.3 3.82-.92 4.83-2.54 1.23-1.99.13-4.13-1.29-5.65l-.98 3.72c2.83-.47 5.65-1 8.45-1.61 1.52-.33 3.08-.66 4.53-1.23.79-.31 1.56-.67 2.01-1.44.69-1.19.19-2.59-.91-3.29-2.43-1.54-4.67 2.32-2.25 3.85-.43-.27-.73-.66-.89-1.16v-1.18c.09-.59.53-.7.84-1.1-.04.05-.13.07-.18.11-.43.3.31-.07-.1.04-.57.16-1.12.36-1.69.51-1.53.4-3.07.73-4.62 1.04-2.12.43-4.24.82-6.37 1.18-1.74.29-2.02 2.61-.98 3.72.13.14.26.29.39.44.1.12-.23-.35 0 .02.08.13.14.26.22.39-.21-.32-.1-.37-.04-.02.06.36-.04-.57-.04-.22s.12-.61.02-.21c-.03.12.27-.55.09-.22-.21.36.37-.41.07-.1s.42-.2.1-.07c-.1.04-.19.12-.28.17s-.52.24-.17.09c.37-.15-.2.07-.29.09-.68.2-1.36.34-2.06.45.46-.07 0 0-.2.02-.18.02-.37.04-.55.05-.48.04-.97.07-1.45.1-.93.04-1.86.06-2.79.05-1.92 0-3.83-.1-5.74-.23-2.18-.15-4.38-.33-6.55-.62-1.22-.16-3.43-.51-5.03-.81-1.44-.26-2.88-.56-4.28-.98-1.14-.34-1.6-.49-2.55-1.05-.72-.43-1.24-.86-1.83-1.74-1.61-2.41-2.31-5.37-2.81-8.2-.39-2.18-.63-4.49-.6-6.79l-3.35 1.92c2.69 2 5.46 3.92 8.25 5.78s5.6 3.72 8.61 5.18c2.06 1 4.01-1 3.05-3.05-3.02-6.41-4.03-13.69-5.09-20.63l-3.72 2.17c2.84 2.48 6.25 4.49 8.97 6.84 3.73 3.22 6.13 7.41 8.04 11.9.38.89 1.65 1.26 2.52 1.02 1.01-.28 1.53-1.16 1.64-2.15.42-4.02.41-8.07-.45-12.03s-2.59-7.6-4.81-10.93l-1.92 3.35c4.36.31 8.31 3.11 10.74 6.64 2.63 3.84 3.92 7.81 4.18 12.43.14 2.49 3.61 3.05 4.38.59 1.02-3.26 2.21-6.51 2.8-9.88.63-3.65.46-7.21-.18-10.84l-3.27 2.52c2.67 1.25 5.14 3.17 6.07 5.72.85 2.36.82 4.46.67 7.06-.26 4.37-1.26 9.98 3.26 12.6 2.48 1.44 4.73-2.4 2.25-3.85ZM141.15 170.99c6.75-.25 13.51.25 20.26 0 2.86-.11 2.87-4.56 0-4.46-6.75.25-13.51-.25-20.26 0-2.86.11-2.87 4.56 0 4.46Z"/>
  <text transform="translate(187.45 24.25)" fill="#fff" font-family="Times-Roman, Times" font-size="12"><tspan x="0" y="0" letter-spacing=".03em">D</tspan><tspan x="9.07" y="0" letter-spacing="-.03em">A</tspan><tspan x="17.35" y="0" letter-spacing=".11em">V</tspan><tspan x="27.36" y="0" letter-spacing=".11em">I</tspan><tspan x="32.73" y="0" letter-spacing=".1em">D </tspan><tspan x="46.79" y="0" letter-spacing=".11em">M</tspan><tspan x="58.84" y="0" letter-spacing=".1em">E</tspan><tspan x="67.33" y="0" letter-spacing=".04em">O</tspan><tspan x="76.52" y="0" letter-spacing=".12em">W</tspan><tspan x="89.28" y="0" letter-spacing=".12em">I</tspan><tspan x="94.68" y="0" letter-spacing=".1em">E</tspan></text>
  <text transform="translate(187.45 24.25)" fill="#d9be7c" font-family="Times-Roman, Times" font-size="12"><tspan x="0" y="0" letter-spacing=".03em">D</tspan><tspan x="9.07" y="0" letter-spacing="-.03em">A</tspan><tspan x="17.35" y="0" letter-spacing=".11em">V</tspan><tspan x="27.36" y="0" letter-spacing=".11em">I</tspan><tspan x="32.73" y="0" letter-spacing=".1em">D </tspan><tspan x="46.79" y="0" letter-spacing=".11em">M</tspan><tspan x="58.84" y="0" letter-spacing=".1em">E</tspan><tspan x="67.33" y="0" letter-spacing=".04em">O</tspan><tspan x="76.52" y="0" letter-spacing=".12em">W</tspan><tspan x="89.28" y="0" letter-spacing=".12em">I</tspan><tspan x="94.68" y="0" letter-spacing=".1em">E</tspan></text>
  <g fill="none" stroke="url(#a)" stroke-miterlimit="10">
    <path d="M187.64 24.02c.44-.05.72-.12.86-.24.13-.11.2-.39.2-.84V17.6c0-.44-.06-.72-.19-.84s-.42-.2-.86-.23v-.22h3.23c1.09 0 2.01.18 2.77.54 1.36.64 2.04 1.8 2.04 3.46 0 .6-.12 1.17-.37 1.71s-.61.99-1.1 1.37c-.31.23-.64.41-.97.53-.61.23-1.37.34-2.26.34h-3.33v-.22Zm2.42-.32c.1.06.29.09.59.09.94 0 1.71-.19 2.31-.56.93-.57 1.39-1.55 1.39-2.93 0-1.23-.38-2.16-1.15-2.78-.66-.53-1.53-.8-2.61-.8-.27 0-.45.03-.55.09s-.14.19-.14.39v6.1c0 .2.05.33.14.39ZM196.7 24.25v-.22c.31-.04.54-.15.69-.35s.42-.74.79-1.62l2.5-5.89h.24l2.99 6.8c.2.45.36.73.48.84.12.11.32.18.6.22v.22h-3.05v-.22c.35-.03.58-.07.68-.11.1-.04.15-.15.15-.33 0-.06-.02-.16-.06-.31-.04-.15-.09-.3-.16-.47l-.48-1.15h-3.16c-.31.79-.5 1.26-.56 1.44-.06.17-.09.31-.09.41 0 .2.08.34.25.42.1.05.29.08.57.11v.22h-2.38Zm5.17-3.08-1.38-3.3-1.38 3.3h2.76ZM208.18 16.31v.21c-.3 0-.5.02-.61.06-.19.06-.29.19-.29.39 0 .1.03.24.1.42s.2.47.38.89l1.88 4.18 1.71-4.52c.08-.2.13-.37.17-.51.04-.14.06-.25.06-.34 0-.23-.1-.39-.3-.48-.12-.05-.31-.08-.58-.08v-.21h2.45v.21c-.25.04-.44.1-.56.21-.18.15-.37.46-.54.92l-2.66 6.75h-.18l-2.97-6.6c-.25-.56-.45-.91-.6-1.04s-.37-.21-.66-.23v-.21h3.2ZM215 24.02c.49-.04.8-.11.95-.22s.22-.4.22-.86V17.6c0-.44-.07-.73-.22-.85s-.46-.2-.95-.23v-.22h3.55v.22c-.49.02-.8.1-.95.23s-.22.41-.22.85v5.34c0 .46.07.75.22.86s.46.18.95.22v.22H215v-.22ZM220.37 24.02c.44-.05.72-.12.86-.24.13-.11.2-.39.2-.84V17.6c0-.44-.06-.72-.19-.84s-.42-.2-.86-.23v-.22h3.23c1.09 0 2.01.18 2.77.54 1.36.64 2.04 1.8 2.04 3.46 0 .6-.12 1.17-.37 1.71s-.61.99-1.1 1.37c-.31.23-.64.41-.97.53-.61.23-1.37.34-2.26.34h-3.33v-.22Zm2.42-.32c.1.06.29.09.59.09.94 0 1.71-.19 2.31-.56.93-.57 1.39-1.55 1.39-2.93 0-1.23-.38-2.16-1.15-2.78-.66-.53-1.53-.8-2.61-.8-.27 0-.45.03-.55.09s-.14.19-.14.39v6.1c0 .2.05.33.14.39ZM234.37 24.02c.5-.05.81-.16.96-.34s.21-.58.21-1.21V17.6c0-.43-.07-.72-.21-.85-.14-.13-.45-.21-.93-.23v-.22h2.37l2.76 5.98 2.69-5.98h2.39v.22c-.45.03-.73.11-.86.24s-.19.41-.19.83v5.33c0 .44.06.72.19.84s.42.2.86.24v.22h-3.36V24c.48-.04.79-.13.91-.26s.18-.46.18-.96v-5.39l-3.07 6.83h-.16l-3.02-6.55v4.78c0 .66.1 1.08.29 1.28.12.13.4.22.84.26v.22h-2.82v-.22ZM246.42 24.02c.44-.05.73-.12.86-.24.13-.11.2-.39.2-.84V17.6c0-.43-.06-.7-.19-.83s-.42-.21-.86-.24v-.22h6.38l.04 1.72h-.3c-.1-.53-.25-.87-.46-1.03-.2-.16-.66-.23-1.36-.23h-1.63c-.18 0-.28.03-.33.08-.04.06-.06.16-.06.32v2.68h1.85c.51 0 .84-.08.98-.23s.25-.46.34-.92h.28v2.77h-.28c-.09-.46-.21-.77-.35-.92s-.46-.23-.97-.23h-1.85v2.97c0 .24.08.38.23.42.15.04.6.06 1.35.06.81 0 1.41-.09 1.8-.27s.74-.61 1.04-1.29h.33l-.54 2.03h-6.49v-.22ZM256.34 17.2c.74-.71 1.65-1.06 2.72-1.06s1.99.36 2.73 1.07c.8.77 1.2 1.79 1.2 3.08s-.41 2.34-1.24 3.11c-.74.69-1.64 1.03-2.69 1.03-1.12 0-2.06-.38-2.8-1.14-.75-.78-1.13-1.78-1.13-2.99 0-1.28.4-2.31 1.21-3.08Zm.9 5.88c.5.6 1.11.91 1.83.91s1.31-.29 1.82-.88.75-1.53.75-2.82-.25-2.25-.76-2.84-1.11-.87-1.81-.87-1.33.3-1.83.91-.75 1.54-.75 2.8.25 2.19.75 2.8ZM266.96 16.31v.22c-.24 0-.41.03-.51.06-.18.07-.27.19-.27.36 0 .08.01.15.03.23s.05.17.1.29l1.74 4.51 1.27-3.36-.56-1.47c-.11-.27-.26-.44-.47-.53-.12-.05-.31-.08-.57-.09v-.22h3.21v.22c-.3 0-.51.03-.62.06-.18.07-.27.2-.27.41 0 .07 0 .13.02.18s.05.16.12.33l1.73 4.5 1.5-4.07c.09-.23.14-.44.18-.62.02-.1.03-.18.03-.25 0-.22-.11-.38-.32-.46-.12-.05-.29-.08-.53-.09v-.22h2.38v.22c-.21.03-.38.08-.49.15-.2.11-.36.31-.46.59l-1.26 3.58-.48 1.38-.76 2.17h-.19l-.52-1.37-1.39-3.7-1.84 5.07h-.18l-.89-2.49-1.01-2.81c-.42-1.16-.71-1.87-.87-2.13-.17-.26-.42-.4-.78-.42v-.22h2.94ZM276.92 24.02c.49-.04.8-.11.95-.22s.22-.4.22-.86V17.6c0-.44-.07-.73-.22-.85s-.46-.2-.95-.23v-.22h3.55v.22c-.49.02-.8.1-.95.23s-.22.41-.22.85v5.34c0 .46.07.75.22.86s.46.18.95.22v.22h-3.55v-.22ZM282.26 24.02c.44-.05.73-.12.86-.24.13-.11.2-.39.2-.84V17.6c0-.43-.06-.7-.19-.83s-.42-.21-.86-.24v-.22h6.38l.04 1.72h-.3c-.1-.53-.25-.87-.46-1.03-.2-.16-.66-.23-1.36-.23h-1.63c-.18 0-.28.03-.33.08-.04.06-.06.16-.06.32v2.68h1.85c.51 0 .84-.08.98-.23s.25-.46.34-.92h.28v2.77h-.28c-.09-.46-.21-.77-.35-.92s-.46-.23-.97-.23h-1.85v2.97c0 .24.08.38.23.42.15.04.6.06 1.35.06.81 0 1.41-.09 1.8-.27s.74-.61 1.04-1.29h.33l-.54 2.03h-6.49v-.22Z"/>
  </g>
</svg>
