<svg xmlns="http://www.w3.org/2000/svg" viewBox="0 0 310.1 305.74">
  <path d="M305.5 1.48c-6.66 109.41 8.55 200.94-1.31 302.46-133.63.01-199.56.67-302.26 0C9.25 229.95-4.58 17.21 5.06 5.63c0 0 292.64-2.44 300.44-4.14Z"/>
  <path d="M304 1.48c-1.25 20.71-1.77 41.45-1.75 62.19s.51 39.57 1.15 59.35 1.4 38.5 1.96 57.75.9 38.26.69 57.39-1.02 38.89-2.68 58.27c-.21 2.51-.44 5.01-.69 7.51l1.5-1.5c-23.76 0-47.52.03-71.28.07-20.16.03-40.31.08-60.47.13-18.1.04-36.21.08-54.31.1a15451.22 15451.22 0 0 1-108.81-.24c-2.46-.01-4.93-.03-7.39-.05l1.5 1.5c.83-8.38 1.26-16.8 1.58-25.21.39-10.4.55-20.8.62-31.21.08-11.84.03-23.67-.09-35.51-.12-12.53-.32-25.06-.55-37.58s-.5-25.3-.76-37.94-.51-24.29-.73-36.43c-.2-11.01-.37-22.03-.45-33.04-.07-9.26-.08-18.52.07-27.77.12-6.91.3-13.82.85-20.71.32-3.97.44-7.43 1.84-11.23.11-.3-.17.32.02-.05.05-.1.1-.21.15-.31.13-.25.44-.64.14-.26l-1.06.44c2.62-.02 5.24-.04 7.86-.07 7.14-.06 14.27-.12 21.41-.19 10.53-.1 21.06-.19 31.59-.29 12.92-.12 25.84-.25 38.77-.38 14.2-.14 28.41-.29 42.61-.45 14.35-.16 28.71-.32 43.06-.5 13.53-.17 27.06-.34 40.59-.53 11.57-.16 23.15-.34 34.72-.55 8.51-.15 17.03-.31 25.54-.54 4.43-.12 8.9-.14 13.32-.52.46-.04.94-.08 1.39-.17 1.89-.4 1.09-3.29-.8-2.89-.42.09.06 0 .02 0l-.55.06c-.53.05-1.06.08-1.6.11-1.78.1-3.56.17-5.34.23-5.99.21-11.98.34-17.98.47-8.63.18-17.26.33-25.88.47-10.64.17-21.27.33-31.91.47-11.91.16-23.83.31-35.74.46s-24.88.29-37.31.43-24.73.27-37.1.39c-11.54.12-23.09.23-34.63.34-9.98.1-19.97.19-29.95.28l-23.42.21c-4.89.04-9.77.09-14.66.13-1.13 0-2.25.02-3.38.03s-1.87.47-2.39 1.52c-.82 1.64-1.16 3.53-1.45 5.33-.48 2.94-.75 5.91-.97 8.88-.63 8.7-.76 17.46-.83 26.21-.1 11.85 0 23.7.17 35.55.19 13.99.47 27.98.76 41.98.31 15.02.64 30.04.92 45.07s.53 29.85.67 44.78c.13 13.89.17 27.78 0 41.66-.14 11.72-.42 23.45-1.09 35.16-.26 4.56-.59 9.12-1.04 13.67-.08.81.75 1.5 1.5 1.5 18.9.12 37.8.21 56.7.26 17.65.04 35.31.05 52.96.04 17.96-.01 35.92-.05 53.88-.09 19.82-.04 39.63-.09 59.45-.13 23.23-.04 46.46-.07 69.69-.08h9.59c.87 0 1.42-.69 1.5-1.5 1.88-19.44 2.89-38.95 3.26-58.47s.12-38.29-.38-57.43-1.26-38.42-1.92-57.63-1.24-39.38-1.37-59.08.2-41.19 1.26-61.76c.14-2.7.29-5.39.45-8.08.12-1.93-2.88-1.92-3 0Z"/>
  <path d="M304.65 299.01c3.75-4.67 3.04-120.28 3.04-120.28-18.73-8.98-18.29-4.18-34.47-11.9-35.59-16.99-138.3-4.77-138.3-4.77-27.51 16.67-47.05 46.01-48.53 79.36-.27 6.18-11.05 37.25 17.4 57.59" fill="#fff"/>
  <path d="M306.29 300.65c1.24-1.59 1.37-3.74 1.62-5.67.39-3.09.59-6.22.76-9.33.55-9.62.77-19.27.95-28.9.22-11.44.32-22.89.38-34.33.05-9.76.07-19.53.05-29.29 0-4.72.14-9.47-.05-14.19v-.2c0-.76-.43-1.66-1.15-2-5.98-2.86-12.05-5.25-18.54-6.61-5.5-1.15-10.64-2.79-15.74-5.2-8.97-4.24-18.85-6.06-28.61-7.32-11.85-1.53-23.82-2.02-35.76-2.09-11.94-.08-23.88.31-35.79.97-9.27.52-18.53 1.21-27.77 2.07-3.9.36-7.81.72-11.7 1.2-1.42.18-2.68 1.23-3.86 1.99a96.66 96.66 0 0 0-4.73 3.26c-3.15 2.3-6.19 4.76-9.08 7.38-5.72 5.19-10.84 11.02-15.3 17.33-9.01 12.76-15.01 27.62-17.1 43.11-.42 3.1-.74 6.24-.86 9.36-.01.37.1-.63.02-.17-.02.12-.04.25-.06.38-.05.34-.11.68-.17 1.02-.13.74-.26 1.48-.4 2.22-.77 4.32-1.39 8.68-1.53 13.08-.41 12.63 3.34 24.94 11.84 34.46 2.65 2.96 5.68 5.54 8.9 7.86 1.02.73 2.58.18 3.17-.83.68-1.17.19-2.44-.83-3.17-8.86-6.38-15.21-15.39-17.48-26.12-.85-4.02-1.12-8.17-.96-12.44a72.25 72.25 0 0 1 .6-6.94c-.07.55.02-.12.03-.19l.09-.59c.11-.74.23-1.48.35-2.22.39-2.3.95-4.61 1.11-6.94.43-5.94 1.09-11.74 2.53-17.54 2.9-11.73 8.13-22.78 15.17-32.6 7.9-11.02 18.12-20.33 29.69-27.37l-1.17.32c4.87-.58 9.76-1.04 14.65-1.47 11.74-1.05 23.51-1.83 35.29-2.31 14.3-.58 28.64-.73 42.94.03 12.63.67 25.05 1.77 37.19 5.52 1.22.38 2.42.78 3.61 1.23.57.21 1.13.44 1.69.66.41.17.07.03 0 0 .15.06.3.13.45.19.29.13.59.26.88.4 3.59 1.66 7.19 3.29 10.99 4.42 2.54.76 5.14 1.24 7.73 1.81 3.21.71 6.34 1.68 9.41 2.88 2.3.91 4.55 1.93 6.78 3l-1.15-2c.02 3.81.03 7.62.04 11.43.02 9.21.01 18.42-.02 27.64-.05 11.3-.14 22.59-.32 33.89-.16 10.06-.37 20.12-.84 30.17-.17 3.55-.36 7.1-.69 10.64-.06.66-.13 1.31-.21 1.97-.03.27-.07.55-.1.82.09-.79 0-.06-.04.26-.12.76-.28 1.49-.48 2.23-.14.52.08-.16.09-.18-.12.23-.37.53.21-.22-.77.99-.96 2.31 0 3.28.8.8 2.51.99 3.28 0Z"/>
  <path d="M148.8 220.79c-14.42-20.44-11.86-47.64-18.83-71.08-4.7-15.79 3.68-27.02-5.47-48.8 7.82 2.08 34.62 16.7 37.55 17.15 2.53.4 21.93-5.42 35.85-6.33 30.12-1.98 47.36-10.87 48.43-10.82 1.23.06 12.26 3.25 13.39 2.74 7.03-3.19 14.47.45 21.51-2.74-2.41 8.66-5.93 33.3-7.11 35.89-3.37 7.37-2.1 15.56-.33 23.46 7.51 33.58-3.6 41.34-14.97 71.09" fill="#fff"/>
  <path d="M150.8 219.62c-9.86-14.08-11.68-31.55-14.09-48.1-.62-4.26-1.28-8.52-2.13-12.75s-2.06-7.97-2.97-11.99c-1.45-6.39-.68-12.93-.37-19.39.44-9.37-.88-18.4-4.49-27.1l-2.85 2.85c.77.21 1.52.47 2.27.74.46.17.92.35 1.37.53.23.09.46.19.69.28.14.06.27.11.41.17-.23-.1-.06-.02.07.03 2.4 1.02 4.76 2.12 7.11 3.24 5.2 2.47 10.34 5.06 15.51 7.6 2 .98 4 1.97 6.02 2.9 1.26.58 2.56 1.27 3.91 1.61 1.59.4 3.35-.09 4.92-.4 2.74-.54 5.45-1.18 8.17-1.79 7.09-1.58 14.24-3.16 21.48-3.85 8.38-.8 16.67-1.52 24.94-3.2 5.88-1.2 11.7-2.74 17.39-4.66 2.77-.94 5.46-2.12 8.23-3.05.11-.04.27-.06.37-.12.39-.22-.73.04-.33.05-.83 0-.12 0 .26.08.49.11.98.22 1.46.34 2.51.61 5 1.27 7.53 1.81 1.08.23 2.21.48 3.31.54 1.4.07 2.59-.67 3.92-1 4.17-1.03 8.55-.1 12.79-.44 2.37-.19 4.55-.71 6.72-1.66l-3.4-2.62c-2.01 7.29-3.08 14.88-4.38 22.32-.59 3.36-1.16 6.72-1.84 10.06-.2.99-.44 1.98-.69 2.96-.01.05-.16.36-.13.4.02.03.44-1.04 0 0-.14.32-.28.64-.41.97-.6 1.49-1.05 3.04-1.33 4.63-1.08 6.06-.18 12.19 1.11 18.15 1.19 5.5 2.24 11 2.53 16.63.43 8.47-1.09 16.5-4.2 24.38-1.75 4.43-3.83 8.72-5.82 13.04-2.57 5.57-5.04 11.18-7.23 16.91-.45 1.17.5 2.54 1.62 2.85 1.31.36 2.4-.45 2.85-1.62 3.53-9.2 8.02-17.96 11.86-27.03 3.3-7.8 5.52-15.82 5.64-24.33.08-5.27-.54-10.55-1.47-15.73-1.07-5.94-2.8-11.77-2.75-17.85.02-2.93.48-5.85 1.59-8.57.39-.96.72-1.84.96-2.85.69-2.98 1.19-6.01 1.72-9.02 1.48-8.34 2.61-16.87 4.87-25.05.59-2.13-1.64-3.38-3.4-2.62-3.96 1.72-8.45.97-12.62.99-2.22.02-4.5.21-6.64.87-.52.16-1.06.33-1.55.57-.61.31-.01-.09.18.04-.07-.05-.31 0-.4 0s-.19-.02-.28-.03c-.29-.02.61.1.03 0-2.42-.41-4.81-1.02-7.19-1.61-1.65-.41-3.58-1.18-5.31-1.14-.83.02-1.63.41-2.38.71-1.38.54-2.77 1.08-4.16 1.59-4.89 1.78-9.88 3.27-14.93 4.48-7.61 1.83-15.35 3.07-23.15 3.75-3.99.35-7.96.63-11.93 1.22-3.73.56-7.44 1.28-11.14 2.05-3.2.67-6.4 1.4-9.59 2.11-1.25.28-2.5.55-3.75.81l-1.39.27c-.2.04-.4.07-.6.1-.68.12.3 0-.19.03-.24.01-.52 0-.76.05-.46.08.61.21.06 0-.2-.08-.42-.14-.62-.21-.22-.08-1.06-.44-.4-.16-1.74-.75-3.45-1.58-5.16-2.4-9.51-4.62-18.88-9.88-28.81-13.57-.75-.28-1.5-.54-2.27-.74-1.54-.42-3.56 1.15-2.85 2.85 3.23 7.76 4.66 15.72 4.4 24.11-.21 6.74-1.05 13.42.03 20.14.63 3.89 1.97 7.65 2.83 11.49.94 4.2 1.65 8.44 2.3 12.68 1.3 8.52 2.29 17.11 4.14 25.53 2.06 9.37 5.3 18.57 10.83 26.48.72 1.02 2.03 1.5 3.17.83 1.01-.59 1.55-2.14.83-3.17Z"/>
  <path d="M200.75 193.35c-3.67-3.31-9.61-8.09-11.43-12.68 6.38-2.03 16.09-2.58 22.78-2.81.73-.03 1.51-.03 2.14.35 1.73 1.05.87 3.74-.33 5.37-3.22 4.34-7.62 7.8-12.6 9.89 1.13 4.78 1.49 9.73 1.06 14.62-6.05.07-12.11 8.2-18.1 9.06" fill="#fff"/>
  <path d="M202.39 191.71c-2.05-1.85-4.16-3.63-6.12-5.58-1.77-1.75-3.74-3.74-4.71-6.08l-1.62 2.85c6.94-2.16 14.45-2.44 21.66-2.7.29-.01 1.02.11 1.25-.02.08 0 .15.01.23.04-.14 0-.21-.11-.22-.33-.02.03.04.44.04.5-.03.24-.17.65-.29.9-.63 1.41-1.9 2.65-2.96 3.74-2.71 2.78-5.94 4.92-9.5 6.44-.95.41-1.27 1.71-1.06 2.62 1.06 4.61 1.36 9.29.98 14l2.32-2.32c-3.7.12-6.87 2.16-9.8 4.23-2.72 1.92-5.54 4.36-8.92 4.91-1.24.2-1.92 1.74-1.62 2.85.36 1.31 1.61 1.82 2.85 1.62 3.43-.56 6.38-2.77 9.13-4.74 2.42-1.73 5.3-4.13 8.35-4.23 1.33-.04 2.21-1.03 2.32-2.32.42-5.11 0-10.24-1.15-15.23l-1.06 2.62a33.02 33.02 0 0 0 9.13-5.9c2.45-2.23 5.36-5.15 5.84-8.58.23-1.67-.21-3.35-1.57-4.42-1.5-1.19-3.36-1.04-5.16-.97-3.45.14-6.9.34-10.33.7-3.93.41-7.9.96-11.69 2.14-1.08.34-2.11 1.66-1.62 2.85 2.38 5.72 7.54 9.67 12.02 13.7 2.21 1.99 5.5-1.28 3.28-3.28Z"/>
  <path d="M202.54 208.08c4.74.27 11.02 8.21 15.75 8.48" fill="#fff"/>
  <path d="M202.54 210.39c.49.04-.47-.12-.02-.01.15.04.3.06.45.1.32.08.62.2.93.31-.55-.21-.04-.01.08.05l.48.24c.33.18.66.37.98.56 1.44.88 2.78 1.91 4.14 2.92 2.59 1.93 5.37 4.06 8.71 4.3 1.25.09 2.32-1.13 2.32-2.32 0-1.33-1.06-2.23-2.32-2.32-.49-.04.47.12.02.01-.15-.04-.3-.06-.45-.1-.32-.08-.62-.2-.93-.31.55.21.04.01-.08-.05l-.48-.24c-.33-.18-.66-.37-.98-.56-1.44-.88-2.78-1.91-4.14-2.92-2.59-1.93-5.37-4.06-8.71-4.3-1.25-.09-2.32 1.13-2.32 2.32 0 1.33 1.06 2.23 2.32 2.32Z"/>
  <path d="M159.83 160.92c.11 2.25 1.41 4.75 2.99 6.36 3.27 3.31 11.35 3.01 14.87.16s3.97-8.1 2.2-12.04c-.95-2.11-2.62-3.45-4.55-4.74-3.41-2.28-9.49-2.02-12.25 1-2.43 2.66-3.49 4.4-3.26 9.25Z" fill="#fff"/>
  <path d="M157.51 160.92c.21 3.01 1.61 6.07 3.82 8.15 1.77 1.65 4.1 2.44 6.46 2.76 4.86.65 10.41-.57 13.35-4.77 3.18-4.54 2.58-11.49-1.11-15.53-3.63-3.97-9.36-5.82-14.53-3.99-2.71.96-4.71 2.88-6.25 5.27s-1.85 5.31-1.73 8.13c.05 1.25 1.03 2.32 2.32 2.32 1.22 0 2.37-1.06 2.32-2.32-.03-.65-.04-1.3-.02-1.94 0-.19.02-.38.03-.57 0 .04.1-.84.04-.43.06-.39.14-.78.25-1.16.06-.21.13-.42.21-.63-.16.43.11-.24.16-.32.18-.35.39-.68.61-1.01.08-.12.17-.24.26-.36-.27.36.21-.25.21-.25.62-.74 1.15-1.34 1.78-1.73 3.04-1.87 6.93-1.2 9.76 1.05 1.59 1.26 2.48 2.65 2.9 4.53.38 1.7.29 3.56-.43 5.28-.22.52-.71 1.32-1.17 1.8-.63.65-.87.82-1.89 1.3-1.19.55-3.1.88-4.69.89-1.92.01-3.66-.31-5.17-1.26-.37-.23-.15-.09-.06-.02a5.91 5.91 0 0 1-.68-.64c-.37-.39-.67-.81-.95-1.27-.6-.98-1.09-2.14-1.16-3.24-.09-1.25-1-2.32-2.32-2.32-1.19 0-2.4 1.06-2.32 2.32Z"/>
  <path d="M218.75 156.35c-.4 3.44 1.13 6.91 4.1 8.68 2.64 1.58 5.99 2.19 8.74 1.55 6.11-1.42 8.94-7.2 7.54-12.24-1.01-3.63-4.87-5.93-5.73-6.2-4.93-1.6-8.84-1-12.64 2.73-1.24 1.22-1.78 3.54-2.01 5.48Z" fill="#fff"/>
  <path d="M216.43 156.35c-.27 2.66.43 5.48 2 7.66 1.73 2.4 4.32 3.92 7.16 4.66 5.25 1.35 10.85-.36 14.04-4.83 2.7-3.78 2.99-9.34.26-13.18s-6.72-5.72-11.31-5.67c-3.08.03-5.85 1.22-8.22 3.14-1.3 1.05-2.27 2.2-2.9 3.75-.59 1.44-.84 2.94-1.03 4.48-.16 1.24 1.18 2.32 2.32 2.32 1.38 0 2.16-1.07 2.32-2.32.23-1.82.71-3.35 2.07-4.53 1.27-1.1 2.92-1.92 4.33-2.13.81-.12 1.8-.1 2.53 0 .24.03 2.89.6 2.86.7-.04.13-.61-.33-.22-.08.1.06.21.11.31.16.26.14.51.3.76.47.11.08.23.16.34.24.56.41-.18-.16.16.12.35.29.69.6 1.01.93.61.63 1.01 1.13 1.4 1.95.14.29.22.53.32.9.05.2.1.41.14.61.15.75-.01-.38.06.38.04.41.05.83.03 1.24-.01.35-.06.73-.07.74-.16.85-.39 1.6-.68 2.15-1.49 2.93-4.68 4.67-8.26 4.25-2.01-.24-4.13-1.06-5.51-2.58s-1.77-3.54-1.57-5.53c.13-1.25-1.16-2.32-2.32-2.32-1.36 0-2.19 1.07-2.32 2.32Z"/>
  <path d="M167.37 160.29c.12 1.39 2 2.27 3.15 1.47s.97-2.87-.29-3.46c-1.57-.74-3.47 1.55-2.4 2.91s3.79-.14 3.14-1.74c-.29-.72-1.83-.27-1.19.17" fill="#fff"/>
  <path d="M165.06 160.29c.03.29.05.58.12.87s.2.53.31.79c.15.35.41.66.65.94s.56.52.87.73c.32.23.69.37 1.05.51.19.07.37.12.57.15.29.04.58.1.87.1s.58-.06.86-.1c.38-.05.73-.22 1.07-.38.09-.04.18-.09.26-.15.23-.16.47-.33.67-.53s.35-.42.51-.63c.06-.08.12-.16.16-.25.13-.24.24-.51.34-.77.04-.09.07-.19.09-.29.18-.77.18-1.51 0-2.28-.08-.37-.25-.73-.42-1.07s-.41-.63-.65-.9a4.826 4.826 0 0 0-.87-.69c-.24-.14-.51-.24-.77-.34-.09-.03-.19-.06-.29-.08-.27-.05-.55-.1-.83-.1s-.58.05-.86.1c-.36.06-.7.22-1.04.37-.27.12-.48.29-.71.47s-.44.34-.63.56c-.48.58-.89 1.2-1.07 1.95-.06.27-.09.55-.12.82 0 .09-.01.19 0 .28.02.36.06.75.19 1.09.22.58.44.97.86 1.44.05.06.11.11.18.17.21.17.42.36.67.49.31.16.64.32.99.38s.74.13 1.1.09c.75-.08 1.43-.24 2.09-.63s1.14-.88 1.54-1.5c.05-.07.08-.14.12-.22.11-.24.23-.49.31-.75s.1-.55.13-.82c0-.09.01-.17 0-.26-.07-1.09-.52-2.12-1.5-2.68-.49-.28-.98-.38-1.54-.41h-.2c-.26.02-.55.04-.8.12-.24.07-.49.17-.7.29-.02.01-.05.03-.07.04-.17.11-.38.26-.52.4-.63.63-.88 1.55-.66 2.41.06.22.17.45.28.65.23.42.56.66.94.93.27.17.55.26.86.27.31.07.62.06.92-.04.54-.15 1.12-.56 1.38-1.06.28-.54.43-1.19.23-1.79l-.23-.55c-.21-.35-.48-.63-.83-.83l-.03-.02.47.36s-.05-.05-.08-.07l.36.47s-.02-.03-.03-.05l.23.55s-.01-.03-.02-.05l.08.62v-.03l-.08.62s0-.03.01-.05l-.23.55s.02-.03.03-.05l-.36.47.06-.06-.47.36s.09-.06.14-.08l-.55.23c.08-.03.16-.05.25-.07l-.62.08c.1-.01.2-.01.31 0l-.62-.08c.08.01.16.03.24.06l-.55-.23s.09.04.13.07l-.47-.36s.07.06.11.1l-.36-.47s.06.09.08.13l-.23-.55c.04.11.07.21.09.33l-.08-.62c.01.12.01.23 0 .35l.08-.62c-.02.12-.05.23-.09.34l.23-.55c-.06.14-.14.27-.24.4l.36-.47a1.8 1.8 0 0 1-.37.36l.47-.36c-.17.13-.36.24-.56.32l.55-.23c-.19.08-.38.13-.58.16l.62-.08c-.16.02-.31.02-.47 0l.62.08c-.13-.02-.25-.05-.38-.1l.55.23c-.11-.05-.21-.11-.31-.18l.47.36c-.09-.07-.17-.15-.24-.24l.36.47c-.08-.11-.15-.22-.2-.34l.23.55c-.05-.12-.08-.24-.1-.37l.08.62c-.02-.14-.01-.28 0-.41l-.08.62c.03-.18.07-.35.14-.52l-.23.55c.08-.18.18-.36.3-.52l-.36.47c.13-.17.28-.32.45-.46l-.47.36c.15-.11.31-.21.48-.28l-.55.23c.16-.07.32-.11.48-.14l-.62.08c.14-.02.28-.02.42 0l-.62-.08c.12.02.23.05.34.09l-.55-.23c.14.06.27.13.39.22l-.47-.36c.11.09.22.19.31.31l-.36-.47c.11.14.19.29.26.45l-.23-.55c.08.19.13.38.16.59l-.08-.62c.03.22.03.43 0 .65l.08-.62c-.03.19-.08.37-.15.54l.23-.55c-.07.15-.14.28-.24.41l.36-.47c-.08.1-.18.2-.28.28l.47-.36c-.11.08-.23.16-.36.21l.55-.23c-.15.06-.31.11-.48.13l.62-.08c-.17.02-.33.02-.5 0l.62.08c-.21-.03-.41-.08-.61-.17l.55.23c-.18-.08-.35-.18-.51-.3l.47.36c-.14-.11-.27-.24-.39-.38l.36.47c-.1-.13-.18-.27-.25-.43l.23.55c-.05-.13-.09-.26-.11-.4l.08.62v-.08c.01-.32-.05-.62-.2-.89-.09-.29-.25-.54-.48-.75-.4-.4-1.06-.7-1.64-.68s-1.22.22-1.64.68c-.39.43-.74 1.04-.68 1.64Z"/>
  <path d="M171.48 190.06c-18.61 1.14-44.94 2.53-63.51 4.18" fill="#fff"/>
  <path d="M171.48 187.74c-16.76 1.03-33.53 1.92-50.28 3.13-4.41.32-8.82.66-13.23 1.05-1.25.11-2.32.99-2.32 2.32 0 1.17 1.06 2.43 2.32 2.32 16.73-1.48 33.5-2.4 50.26-3.39 4.42-.26 8.83-.52 13.25-.79 2.96-.18 2.98-4.82 0-4.63Z"/>
  <path d="M161.35 181.84c-16.55.91-37.86.88-53.94-3.11" fill="#fff"/>
  <path d="M161.35 179.53c-14.02.77-28.24.88-42.19-.95-3.74-.49-7.47-1.17-11.14-2.07-2.9-.71-4.13 3.76-1.23 4.47 13.9 3.42 28.52 3.9 42.77 3.63 3.93-.07 7.86-.22 11.79-.44 2.97-.16 2.99-4.8 0-4.63Z"/>
  <path d="M232.16 183.2c22.36-4.93 45.04-2.4 67.85-4.47" fill="#fff"/>
  <path d="M232.78 185.44c17.15-3.74 34.77-3.08 52.21-3.56 5.01-.14 10.03-.38 15.02-.83 1.25-.11 2.32-.99 2.32-2.32 0-1.17-1.06-2.43-2.32-2.32-17.73 1.58-35.58.41-53.29 2.2-5.09.51-10.17 1.27-15.17 2.36-2.91.64-1.68 5.1 1.23 4.47Z"/>
  <path d="M233.14 190.21c18.61-.64 37.25-.32 55.82.97" fill="#fff"/>
  <path d="M233.14 192.53c18.61-.63 37.25-.31 55.82.97 1.25.09 2.32-1.13 2.32-2.32 0-1.33-1.06-2.23-2.32-2.32-18.58-1.28-37.21-1.6-55.82-.97-2.97.1-2.99 4.74 0 4.63Z"/>
  <path d="M271.15 170.77c.14 1.39 2.78 12.24 3.75 13.25 2.04 2.11 7.98-4.97 8.52-7.84 3.07-16.55 14.22-36.86 3.93-54.59 4.29-.87 3.7-14.11 2.88-18.37-1.57-8.2-7.48-14.5-10.1-17.5-1.79-2.06-3.54-14.18-4.49-18.17-3.25-13.66-12.06-27.58-25.91-30.46-3.43-.71-6.98-.71-10.39-1.49-7.88-1.81-14.15-7.6-21.47-11.01-11.31-5.28-27.96 3.46-33.14 4.98-6.79 2-20.04-7.11-27.11-6.65-11.21.72-17.15 16.86-26.11 23.57C108.42 63.81 96.45 87 99.88 95.26c3.96 9.53 12.63 6.25 16.57 15.79 3.57 8.64-15.18 26.67 1.89 37.81 8.07 5.27 12.11 33.13 21.7 32 9.6-1.13-16.41-41.55-10.09-50.71 4.66-6.76 26.81 16.25 64.54-3.26 13.96-7.22 26.35-11.48 35.43-19.47 7.49-6.6 18.95-4.19 21.12 0 7.46 14.4 4.45 20.54 15.67 32.31" fill="#b73517"/>
  <path d="M268.94 170.77c.47 4 1.69 8.14 2.99 11.94.66 1.94 1.57 3.94 3.98 3.9s4.56-2.11 6.04-3.81 3.14-3.88 3.63-6.21c.7-3.36 1.54-6.67 2.49-9.96 2.06-7.17 4.3-14.3 5.28-21.72 1.11-8.44.18-16.95-4.1-24.43l-1.32 3.24c4.72-1.13 4.98-8.25 5.07-12.04.12-5.54-.59-10.92-3.02-15.96-1.43-2.96-3.33-5.65-5.4-8.2-.75-.93-1.54-1.83-2.33-2.73-.14-.16-.28-.33-.42-.48-.33-.34.14.38-.04-.06-.06-.14-.15-.27-.22-.4-.22-.41.03.16-.14-.33-1.64-4.81-2.3-9.91-3.3-14.88-2.41-12.05-9.09-24.79-20.22-30.85-3.11-1.69-6.45-2.74-9.95-3.22-4.06-.56-8.07-.76-11.92-2.33-6.73-2.75-12.23-8.01-19.12-10.4-5.98-2.08-12.73-1.05-18.68.6-4.73 1.32-9.15 3.45-13.82 4.9-1.87.59-3.86.21-6.01-.38-2.88-.79-5.65-1.93-8.42-3.02-4.9-1.93-10.24-4.27-15.57-2.71s-9.39 6.01-12.77 10.28-6.68 9.42-11.14 12.96c-5.85 4.65-11.46 9.4-16.45 15-4.24 4.75-8.12 9.89-11.26 15.43-2.33 4.1-4.45 8.58-5.32 13.25-.32 1.74-.51 3.5-.3 5.26.3 2.51 1.48 4.77 3.05 6.73 1.67 2.09 3.96 3.48 6.32 4.66 2.17 1.08 4.37 2.11 6 3.97.81.93 1.52 2.1 1.91 3.27.07.21.24 1.22.19.75.04.45.05.9.02 1.35-.01.24-.03.48-.06.71-.03.26 0-.03 0-.07-.02.14-.05.28-.07.43-.1.52-.21 1.03-.35 1.54-.28 1.07-.63 2.12-1 3.17-1.67 4.75-3.7 9.38-4.25 14.44-.6 5.52 1.36 10.78 5.61 14.4.65.55 1.32 1.07 2.02 1.56.25.18.51.35.77.52.33.22.02 0-.04-.05.09.07.18.14.27.22.29.27.58.53.85.82.15.17.3.34.44.51.06.08.13.15.19.23.22.27-.18-.25.03.04 1.25 1.69 2.24 3.57 3.15 5.47 2.16 4.49 3.85 9.09 5.96 13.62 1.72 3.68 3.76 7.82 7.25 10.13 2.51 1.67 6.55 1.94 8.24-1.01 1.39-2.44.57-5.81-.09-8.33-1-3.82-2.46-7.52-3.9-11.19-3.11-7.94-6.9-16-8.33-24.47-.01-.08-.09-.62-.06-.35s-.04-.33-.05-.42c-.04-.4-.07-.79-.09-1.19-.01-.34-.02-.69 0-1.03 0-.15.01-.3.02-.45 0-.09.08-.73.03-.36-.04.3.09-.46.14-.64.07-.27.42-1.01.11-.42.12-.22.27-.45.37-.67.17-.39-.15.39-.09.11.01-.05.17-.19.21-.22.35-.17-.37.28-.15.11.05-.04.16-.12.22-.13.39-.06-.55.09.12-.04.47-.09.45-.04.1-.05.24 0 .48-.03.72-.03s.49.03.73.05c.37.02-.57-.11-.04 0 .15.03.3.05.44.08.63.12 1.25.27 1.87.43 3.43.92 6.78 2.13 10.21 3.05 4.75 1.28 9.62 2.13 14.54 2.39 6.18.32 12.41-.36 18.41-1.88 7.82-1.98 14.8-5.65 22.01-9.15s13.95-6.34 20.58-10.17c3.03-1.75 5.93-3.7 8.63-5.92 2.5-2.06 4.87-3.6 8.11-4.2 2.48-.46 5.14-.25 7.52.57.53.18.71.26 1.23.53.46.24.91.54 1.05.66.16.13.3.28.45.42.09.09.18.19.26.29-.02-.03-.2-.28-.06-.07.43.66.75 1.4 1.1 2.11 2.5 5.17 3.84 10.67 5.74 16.06 2.02 5.71 5.25 10.57 9.41 14.97 1.96 2.07 5.08-1.06 3.12-3.12-3.94-4.17-6.89-8.76-8.68-14.19s-3.48-11.33-6.16-16.7c-2.37-4.76-7.97-6.33-12.99-6.15-3.13.12-6.25.94-8.98 2.49s-5.17 4.07-7.89 5.9c-6 4.03-12.63 7.02-19.15 10.08-7.26 3.41-14.28 7.48-21.92 10-10.73 3.54-21.94 4-32.83 1.41-3.63-.86-7.17-2.04-10.74-3.12-2.43-.73-5.2-1.63-7.75-1.05-6.7 1.54-4.22 11.58-2.97 16.01 2.38 8.4 6.1 16.36 9.08 24.56.64 1.75 1.25 3.51 1.76 5.3.22.77.43 1.56.6 2.34.07.31.13.63.19.95.03.17.06.35.08.52 0 .04-.03-.41 0 .06.04.57.02 1.12.03 1.69 0 .41.05-.26.02-.16-.03.11-.05.23-.07.35-.02.09-.07.19-.08.28-.03.32.16-.55.06-.15-.02.07-.1.21-.15.26-.24.21.35-.43.14-.19-.39.43.43-.23-.08.05-.29.16.52-.24.21-.09-.08.04-.23.09-.31.08-.01 0 .6 0 .1-.02h-.56c-.35.02.36.13-.11 0l-.45-.12c-.15-.04-.64-.27-.14-.03-.17-.08-.34-.17-.51-.26-.15-.08-.28-.18-.43-.27-.45-.29.12.13-.18-.13-.33-.28-.64-.58-.94-.9-.73-.78-.84-.96-1.44-1.85s-1.11-1.81-1.61-2.74c-2.26-4.25-3.92-8.71-5.84-13.11-1.65-3.8-3.43-7.97-6.43-10.92-1.79-1.76-4.06-2.84-5.63-4.88a11.112 11.112 0 0 1-2.25-6.02c-.28-4.68 1.58-9.29 3.23-13.71 1.43-3.83 3.34-8.25 2.34-12.41-.64-2.64-2.47-5.26-4.54-6.98s-4.24-2.65-6.48-3.83-4.17-2.68-5.4-5c-.41-.78-.61-1.33-.83-2.21-.06-.26-.06-.39-.02-.02-.02-.19-.04-.37-.05-.56-.03-.4-.03-.8-.02-1.19.01-.37.04-.73.07-1.1.01-.15.09-.71.03-.28.03-.23.07-.47.12-.7.18-.97.42-1.93.7-2.88.65-2.19 1.45-4.11 2.44-6.12 2.55-5.19 5.82-10.04 9.47-14.51 4.51-5.52 9.61-10.56 15.12-15.06 2.45-2 5.03-3.79 7.2-6.12 1.99-2.13 3.76-4.46 5.53-6.78 3.15-4.12 6.38-8.84 10.99-11.44s8.69-.96 13.3.79c5.05 1.92 10.41 4.71 15.93 4.75 2.04.01 3.85-.66 5.72-1.38 2.32-.9 4.62-1.82 6.97-2.63 5.47-1.89 11.53-3.58 17.36-2.75 3.16.45 5.9 1.92 8.61 3.52 3.14 1.85 6.16 3.9 9.37 5.63s6.85 3.16 10.61 3.72 7.75.69 11.46 2.03c5.66 2.04 10.32 6.35 13.69 11.24s5.98 10.99 7.35 17.06c1.09 4.84 1.68 9.79 3.05 14.56.59 2.06 1.38 3.61 2.79 5.22 1.74 1.99 3.4 4.03 4.82 6.27 1.81 2.86 3.22 5.94 3.85 9.28.05.28.16.96.16.95-.03-.21.04.34.05.44.03.27.06.53.08.8.11 1.18.17 2.36.2 3.54.05 2.27-.01 4.69-.43 6.77-.1.51-.23 1.02-.38 1.53-.07.21-.14.42-.22.63-.1.24 0 0 .02-.04-.06.12-.11.24-.18.36-.1.16-.19.33-.29.48.21-.3.04-.04-.1.09-.24.22.32-.05-.12.09-.05.02.36-.09-.12.02-1.41.34-2.01 2.04-1.32 3.24 6.88 12.05 3.28 25.85-.35 38.32-.88 3.04-1.79 6.07-2.58 9.13-.37 1.45-.72 2.91-1.02 4.37-.23 1.12-.35 1.7-.74 2.41-.94 1.73-2.52 3.67-3.91 4.68-.19.13-.38.25-.57.37-.05.03-.6.42-.2.13 0 0-.3.12-.34.11.74.27-.46-.26.39.03-.35-.12.89.76.5.38-.07-.07-.11-.24-.16-.33.3.59-.03-.08-.08-.22-.78-2.1-1.33-4.29-1.88-6.46-.28-1.11-.55-2.23-.81-3.35l-.27-1.24c-.05-.24-.19-1.25-.07-.26-.14-1.18-.91-2.21-2.21-2.21-1.08 0-2.35 1.02-2.21 2.21Z"/>
  <path d="M150.43 58.29a74.68 74.68 0 0 0 29.8 5.47c12.83-.3 25.49-3.91 38.31-3.34s26.84 6.98 30.35 19.22" fill="#b73517"/>
  <path d="M149.84 60.42c7.2 2.91 14.8 4.68 22.53 5.32s15.56-.19 23.3-1.25c13.18-1.8 27.25-4.02 39.52 2.58 5.33 2.87 9.82 7.25 11.57 13.17.8 2.72 5.07 1.56 4.26-1.17-3.5-11.84-15.51-18.46-27.05-20.27-15.79-2.48-31.41 3.14-47.2 2.77-8.84-.21-17.55-2.09-25.74-5.39-1.11-.45-2.43.49-2.72 1.54-.35 1.26.43 2.27 1.54 2.72Z"/>
  <path d="M141.87 74.81c9.97 11.04 28.07 17.06 42.15 12.09 24.71-8.73 40.14-7.14 48.98-1.33" fill="#b73517"/>
  <path d="M140.31 76.37c9.09 9.97 23.73 15.89 37.22 14.24 3.77-.46 7.17-1.67 10.77-2.83 3.88-1.25 7.81-2.34 11.79-3.18 6.05-1.27 12.29-1.97 18.47-1.42 4.76.42 9.36 1.72 13.33 4.3 2.39 1.55 4.61-2.27 2.23-3.81-8.75-5.69-19.95-5.73-29.93-4.27-3.7.54-7.36 1.35-10.97 2.32-3.98 1.07-7.82 2.6-11.8 3.69-6.31 1.73-13.04 1.23-19.26-.62-7.12-2.11-13.72-6.04-18.74-11.53-1.92-2.11-5.04 1.03-3.12 3.12Z"/>
  <path d="M129.97 96.26c3.85 5.68 8.5 11.09 14.64 14.21 11.97 6.09 26.76 2.15 38.42-4.51 7.3-4.17 24.53-12.72 32.94-12.14" fill="#b73517"/>
  <path d="M128.06 97.38c4.01 5.89 8.82 11.58 15.25 14.91s13.99 3.99 21.21 2.84c12.59-2 22.97-9.75 34.5-14.61 3.02-1.27 6.1-2.43 9.26-3.32 2.61-.74 5.01-1.31 7.69-1.16 2.84.17 2.83-4.25 0-4.42-5.03-.3-10.25 1.57-14.88 3.34-5.36 2.04-10.57 4.49-15.64 7.16-5.44 2.87-10.66 5.84-16.63 7.53-6.53 1.85-13.55 2.39-20.07.18-7.33-2.48-12.64-8.47-16.88-14.69-1.59-2.34-5.42-.13-3.81 2.23ZM224.05 157.9c-.31.92-.22 1.99.26 2.84s1.26 1.36 2.16 1.69c.59.22 1.26.28 1.88.28.71 0 1.44-.11 2.12-.3 1.33-.36 2.76-1.08 3.63-2.17.63-.79 1.06-1.61 1.2-2.62.15-1.08-.09-2.07-.54-3.05-.73-1.59-2.25-2.7-3.97-2.98-1.81-.29-3.79-.06-5.32 1.01-1.78 1.25-2.86 3.26-2.63 5.47.02.23.07.64.1.74.07.2.18.43.27.63.04.09.09.19.14.28.2.35.46.68.74.98.48.52 1.08.89 1.72 1.16 1.34.57 2.91.56 4.19-.2 1.44-.85 2.18-2.42 2.32-4.04.11-1.29-.36-2.8-1.38-3.66-.72-.61-1.57-.99-2.53-.98-1.16 0-1.82.55-2.42 1.4-.7.99-1.03 2.26-.73 3.45.22.87.93 1.71 1.75 2.07.63.28 1.21.44 1.9.25.57-.16 1.19-.6 1.47-1.13.3-.57.45-1.26.25-1.9-.18-.57-.56-1.22-1.13-1.47-.11-.05-.21-.1-.3-.17l.5.39c-.06-.05-.11-.09-.16-.15l.39.5a.98.98 0 0 1-.13-.22l.25.59c-.02-.06-.04-.12-.05-.18l.09.65a1.71 1.71 0 0 1 0-.32l-.09.65c.03-.15.07-.3.13-.44l-.25.59c.12-.28.27-.54.46-.78l-.39.5s.04-.05.06-.07l-1.74.72c.13-.01.25 0 .38 0l-.65-.09c.09.02.18.04.27.08l-.59-.25c.11.05.2.1.3.17l-.5-.39c.09.07.17.15.25.24l-.39-.5c.1.14.19.28.25.44l-.25-.59c.07.17.11.34.14.53l-.09-.65c.03.25.03.5 0 .75l.09-.65c-.04.27-.11.52-.2.77l.25-.59c-.1.22-.21.43-.36.63l.39-.5c-.1.13-.21.24-.34.34l.5-.39c-.12.09-.25.17-.39.23l.59-.25c-.17.07-.33.12-.51.15l.65-.09c-.2.03-.41.03-.61 0l.65.09c-.24-.03-.46-.09-.68-.18l.59.25c-.22-.1-.43-.22-.63-.37l.5.39c-.17-.14-.33-.3-.47-.48l.39.5a2.98 2.98 0 0 1-.34-.6l.34 1.24c-.05-.38-.05-.77 0-1.15l-.09.65c.04-.29.12-.57.23-.85l-.25.59c.11-.25.25-.49.41-.71l-.39.5c.19-.24.41-.46.66-.65l-.5.39c.28-.21.59-.38.91-.52l-.59.25c.39-.16.79-.26 1.2-.32l-.65.09c.45-.06.9-.06 1.34 0l-.65-.09c.35.05.68.14 1 .27l-.59-.25c.25.11.48.24.7.4l-.5-.39c.15.12.28.25.4.4l-.39-.5c.2.26.35.55.48.85l-.25-.59c.1.25.18.5.22.77l-.09-.65c.03.22.03.44 0 .66l.09-.65c-.03.21-.08.4-.16.59l.25-.59c-.09.22-.21.42-.36.61l.39-.5c-.18.23-.4.44-.63.62l.5-.39c-.34.26-.72.47-1.12.64l.59-.25c-.51.21-1.05.36-1.61.44l.65-.09c-.42.05-.85.07-1.27.01l.65.09c-.24-.03-.47-.09-.69-.18l.59.25c-.12-.05-.22-.11-.33-.19l.5.39c-.07-.06-.14-.12-.2-.2l.39.5a.878.878 0 0 1-.12-.21l.25.59c-.03-.08-.05-.16-.06-.24l.09.65c-.01-.11 0-.21 0-.31l-.09.65c.02-.11.04-.21.08-.31.41-1.22-.48-2.75-1.72-3.03-1.37-.31-2.59.41-3.03 1.72ZM306.88 299.63c2.37-8.22-7.83-13.09-13.81-15.59-11.46-4.79-23.88-7.37-36.01-9.8-13.79-2.77-27.67-5-41.53-7.35-5.77-.98-11.54-1.97-17.28-3.13-4.41-.89-8.68-2.03-12.99-3.29-10.04-2.94-20.67-3.68-31.09-3.81-4.53-.06-9.07.02-13.6.08-3.5.04-7.03.13-10.52-.17-.26-.02-.53-.05-.79-.08-.71-.07.19.05-.47-.06-.51-.09-1.02-.19-1.53-.34-2.87-.83-4.1 3.64-1.23 4.47 2.63.76 5.5.78 8.22.82 3.98.06 7.97-.05 11.95-.09 9.79-.11 19.68 0 29.34 1.69 5.97 1.04 11.65 3.1 17.55 4.41 5.14 1.15 10.33 2.07 15.52 2.98 13.41 2.35 26.86 4.46 40.24 6.98 12.68 2.39 25.5 4.93 37.71 9.15 1.21.42 2.41.86 3.6 1.32.3.12.6.24.89.36.14.06 1.01.42.49.2.55.24 1.11.48 1.65.73 1.86.86 3.68 1.81 5.37 2.96.36.25.71.5 1.06.76-.42-.31-.13-.1.09.09.18.15.35.3.52.45.27.24.53.49.77.75.13.14.26.28.38.42.23.26.36.48.05.05.19.27.38.54.55.83.08.13.14.27.22.4.21.37.14.41.03.03.08.29.19.57.27.86.04.14.04.28.08.41-.1-.41-.01-.44-.02-.01 0 .27-.05.58-.03.85-.05-.71.06-.35-.01-.04l-.12.48c-.83 2.87 3.64 4.1 4.47 1.23Z"/>
  <path d="M281.23 272.85c-18.7 13.32-50.71 4.93-70.86 2.91-13.48-1.35-55.79 35.05-58 19.29-1.71-12.21 5.69-31.11 25.1-39.66 0 0 95.95-24.48 130.15-8.62" fill="#fff"/>
  <path d="M280.06 270.85c-12.04 8.48-28.25 7.68-42.2 6.2-7.32-.78-14.59-1.97-21.88-2.94-2.37-.31-4.9-.88-7.31-.66-1.85.17-3.64.62-5.39 1.23-4.57 1.58-8.9 3.86-13.13 6.16-4.8 2.61-9.51 5.37-14.29 8.02a189.96 189.96 0 0 1-6.76 3.6c-1.08.54-2.17 1.07-3.26 1.57-.45.21-.91.41-1.36.6-.42.18-.1.04-.02 0-.13.05-.25.1-.38.16-.28.11-.55.22-.83.33-1.7.66-3.41 1.17-5.2 1.5-.42.08.5-.03-.03 0-.18 0-.36.03-.55.04-.34.02-.68 0-1.02 0-.41 0-.23-.06.08.02-.15-.04-.3-.05-.45-.09-.14-.04-.28-.09-.42-.12-.49-.1.28.17.07.03-.11-.07-.24-.15-.36-.2-.43-.19.21.22.06.06-.07-.08-.18-.19-.26-.25-.41-.27.05.12 0 .02-.08-.16-.44-.86-.3-.51.16.41-.02-.08-.05-.18-.05-.19-.1-.37-.14-.56-.02-.07-.1-.59-.07-.39.02.13-.05-.45-.06-.61-.06-.63-.09-1.26-.1-1.9-.02-1.34.05-2.68.2-4.02.27-2.4 1.1-5.54 2.06-8.09 1.08-2.88 2.59-5.66 4.34-8.22 4.01-5.86 9.63-10.47 16-13.57.4-.19.81-.42 1.22-.57-.24.09-.26.09-.18.07l.1-.03c.17-.04.34-.08.51-.13.68-.17 1.37-.34 2.06-.5 6.77-1.63 13.58-3.12 20.41-4.49 10.9-2.2 21.87-4.12 32.89-5.64 11.85-1.64 24.11-2.85 36.2-3.06 5.59-.1 11.2.02 16.77.53 2.72.25 4.6.48 7.22.95 2.3.41 4.58.91 6.83 1.57.99.29 1.97.61 2.94.96.47.17.93.35 1.39.54l.36.15c-.08-.03-.42-.18-.02 0 .23.1.47.21.7.31 1.14.52 2.5.32 3.17-.83.58-1 .31-2.64-.83-3.17-9.28-4.27-19.88-5.29-29.98-5.59-12.33-.37-24.69.59-36.92 2.02-11.94 1.4-23.82 3.31-35.63 5.56-8.11 1.55-16.2 3.25-24.24 5.14-1.63.38-3.28.72-4.88 1.18-1.72.5-3.38 1.48-4.94 2.36-3.41 1.93-6.6 4.31-9.41 7.04a44.135 44.135 0 0 0-10.99 17.42c-1.7 5.03-2.81 11.17-1.55 16.44 2.17 9.02 14.22 3.49 19.32 1.05 9.72-4.65 18.74-10.63 28.41-15.41 1.07-.53 2.15-1.04 3.24-1.53.23-.1.45-.2.68-.3.42-.18.11-.05.02-.01.13-.05.25-.11.38-.16.52-.21 1.04-.42 1.57-.61.9-.33 1.82-.63 2.75-.88.39-.1.79-.2 1.19-.28.2-.04.4-.07.6-.11.4-.07-.13.01-.18.02.12-.01.24-.03.36-.04 2.49-.2 5.07.34 7.54.67 3.49.47 6.98 1 10.47 1.49 7.83 1.1 15.69 2.1 23.6 2.27s15.44-.42 22.68-2.9c3.37-1.16 6.6-2.71 9.51-4.76 1.02-.72 1.5-2.03.83-3.17-.59-1.01-2.14-1.56-3.17-.83Z"/>
  <g fill="#af022b">
    <path d="M21.49 68.64c.07 10.47.14 20.94.2 31.41 0 1.48 1.13 2.77 2.6 2.95 1.36.16 3.03-.66 3.29-2.15 2.85-16.44 7.89-32.49 15.08-47.55l-3.39 1.38c-.53-.2-.89-.53-1.08-.99.08.36.09.39.02.08.02.4 0 .81 0 1.21-.01 1.08-.03 2.15-.05 3.23-.05 2.16-.12 4.31-.23 6.47-.22 4.1-.57 8.21-1.25 12.26S35 85.19 33.61 89.16c-.58 1.64-1.22 3.24-2.11 4.74-.58.98-1.73 2.84-2.83 3.06h1.6c.65.71.83.87.56.45-.07-.11-.14-.22-.19-.33-.09-.18-.15-.28-.23-.5-.19-.52-.28-.98-.32-1.42-.1-1.21.05-2.31.35-3.48.68-2.71 1.92-5.24 3.22-7.7 1.4-2.65 2.99-5.21 4.74-7.65 1.33-1.85 2.79-3.94 5.03-4.41 1.59-.34 2.51-2.2 2.1-3.69-.45-1.64-2.1-2.43-3.69-2.1-3.37.71-5.69 3.28-7.68 5.9s-3.95 5.67-5.57 8.72c-2.99 5.61-6.36 12.74-3.29 19.01.82 1.67 2.21 3.09 4.19 3.09s3.68-1.51 4.93-2.85c2.22-2.39 3.57-5.35 4.69-8.38 2.46-6.65 3.7-13.69 4.39-20.73.38-3.91.57-7.83.67-11.76.08-3.37 1.09-9.1-3.27-10.24-1.2-.31-2.82.19-3.39 1.38-7.42 15.54-12.75 32.01-15.69 48.99l5.89.8c-.07-10.47-.14-20.94-.2-31.41-.03-3.86-6.03-3.87-6 0Z"/>
    <path d="M50.34 66.79c-3.36-1.72-6.64.52-8.28 3.5-1.5 2.73-2.37 5.71-2.72 8.8-.18 1.55-.29 3.16.44 4.59 1.11 2.21 3.95 2.6 5.75 1.02 1.02-.89 1.67-2.37 2.33-3.54s1.31-2.4 1.86-3.65c1.36-3.09 2.32-6.39 2.05-9.8-.12-1.56-1.29-3.08-3-3s-3 1.32-3 3v15.31c0 1.57 1.38 3.07 3 3s3-1.32 3-3V67.71h-6c.05.67.06 1.33.02 2 0 .14-.12 1.09-.02.39-.04.31-.1.61-.16.91-.26 1.27-.67 2.5-1.17 3.7.2-.49-.07.13-.13.28-.15.33-.31.66-.47.98-.29.57-.58 1.14-.89 1.7s-.63 1.11-.95 1.66c-.14.23-.28.47-.42.7-.12.2-.74.97-.15.32 2.07-.79 3.33-.5 3.77.86-.06-.25-.06-.24-.02.04.05.57.03-.4.03-.51.01-.32.03-.64.06-.96.01-.13.13-1.1.03-.43a19.909 19.909 0 0 1 1.3-4.76c-.24.57.12-.25.14-.29.26-.55.57-1.08.87-1.61.19-.27.18-.26-.05.04.1-.12.21-.24.32-.35.11-.11.22-.22.34-.32l-.24.19c.12-.08.25-.16.38-.23-.39.15-.44.17-.13.08-.47.04-.53.06-.2.05-.26.02-.5-.04-.73-.16 1.4.72 3.32.41 4.1-1.08.72-1.37.41-3.34-1.08-4.1Z"/>
    <path d="M52.28 72.75c-.06.45.08-.42.1-.51.07-.32.14-.65.22-.97.17-.64.37-1.27.62-1.88-.16.4.25-.52.23-.49.15-.3.3-.59.46-.88.33-.58.69-1.12 1.08-1.66l-5.48-.72c.47 1.43.76 2.78.83 4.05.09 1.59-.03 2.96-.34 4.3-.72 3.06-1.76 6.27.1 9.17 1.2 1.87 4.01 2.01 5.18 0 2.06-3.54 3.77-7.3 5.07-11.19.61-1.82 1.23-3.72 1.56-5.61.25-1.45.14-2.94-.92-4.07-.92-.98-2.56-1.57-3.86-1.02l2.31 5.48a9.076 9.076 0 0 0 3.26-2.5l-5.12-2.12c.25 4.36.11 8.71-.4 13.05-.19 1.56 1.51 3.07 3 3 1.78-.08 2.8-1.32 3-3 .51-4.33.65-8.69.4-13.05-.07-1.2-.7-2.28-1.84-2.74-1.03-.41-2.51-.31-3.28.62-.16.2-.33.39-.51.57-.05.05-.53.49-.2.23-.4.32-.87.55-1.33.76-1.34.61-1.77 2.51-1.23 3.75s2.14 2.32 3.54 1.74c-1.8-.17-2.69-.82-2.67-1.97l-.08.35c-.11.34-.17.69-.25 1.03-.18.69-.37 1.37-.57 2.05-.42 1.42-.9 2.82-1.43 4.19-.93 2.41-2.22 5.02-3.62 7.42h5.18c-.11-.16-.21-.33-.3-.51.11.23.13.25.06.05-.05-.21-.05-.18-.01.09-.01-.15-.02-.29-.02-.44 0-.12.09-1.08 0-.55.05-.31.11-.61.18-.91.33-1.42.73-2.79.93-4.24.43-3.22.19-6.48-.84-9.58-.38-1.15-1.27-1.98-2.49-2.15s-2.26.43-2.99 1.43c-2.04 2.79-3.11 6.01-3.55 9.41-.2 1.56 1.52 3.07 3 3 1.8-.08 2.79-1.33 3-3Z"/>
    <path d="M69.96 57.46c-3.5-.82-7.7-1.03-10.04 2.24-1.18 1.65-1.37 3.8-1.48 5.77s.18 3.99 1.2 5.67c1.33 2.18 3.94 3.32 6.28 1.97 1.91-1.11 2.43-3.47 2.99-5.43 1.2-4.15 2.25-8.35 3.17-12.58 1.05-4.85 1.91-9.74 2.59-14.66.22-1.6-.39-3.22-2.1-3.69-1.54-.42-3.3.52-3.69 2.1-1.09 4.39-2.19 8.79-3.28 13.18-1.03 4.14-1.99 8.29-2.43 12.54s-.26 8.39 1.03 12.34c.64 1.97 1.5 3.87 3.41 4.9 2.4 1.3 5.14-.02 5.91-2.56.69-2.29 1.04-4.75 1.55-7.08l1.68-7.74c.34-1.58-.47-3.24-2.1-3.69-1.5-.41-3.34.51-3.69 2.1l-1.68 7.74-.84 3.87-.42 1.93c-.07.32-.14.64-.21.97-.2.66 0 .46.58-.62l1.51-.41c.54-.07.64.63.46.03-.2-.67-.49-1.38-.68-2.08a20.28 20.28 0 0 1-.68-4.38c-.15-3.09.2-6.17.78-9.2 1.31-6.81 3.22-13.52 4.89-20.24l-5.79-1.6a195.863 195.863 0 0 1-5.76 27.24c-.13.46-.27.92-.4 1.38 0-.02-.21.93-.2.68-.64.93.13.91 2.3-.05 0-.18-.26-.55-.32-.8-.11-.48-.1-1.36-.05-2.03s.09-1.31.27-1.93c.13-.43.1-.48.04-.2-.16.1-.1.06.18-.11-.27.09-.23.07.12-.04.28-.1.76-.12 1.45-.08s1 .12 1.85.33c1.58.37 3.25-.49 3.69-2.1s-.51-3.32-2.1-3.69Z"/>
    <path d="M61.09 59.31c3.86 0 3.87-6 0-6s-3.87 6 0 6ZM128.43 28.62c-2.51 4.84-5.53 9.33-8.81 13.67l5.48.72c-1.28-3.29-1.25-6.72-.83-10.19.15-1.21.39-2.55.84-3.13l.25-.27c1.11-.94.09-1.15-3.05-.61l.14.24c-.08-.18-.07-.17 0 .04.3.85.44 1.76.58 2.64l.3-2.31c-3.39 4.57-6.78 8.99-9.52 14l5.59 1.51c.36-4.22.71-8.45 1.07-12.67.22-2.66-3.39-3.87-5.12-2.12-.7.7-1.28.89-2.27 1.03-1.33.19-2.14 1.7-2.2 2.89-.23 4.26-1.34 8.41-1.56 12.67l5.89-.8c-.6-2.38-1.39-4.71-1.98-7.09-.7-2.82-5.13-2.9-5.79 0-.77 3.39-1.77 6.72-2.54 10.11h5.79c-.57-3.86-.99-8.49-1.61-12.66-.44-2.93-5.24-2.8-5.79 0a38.01 38.01 0 0 1-.97 3.92c-.11.36-.23.72-.36 1.07-.07.2-.15.39-.23.59.09-.21.09-.22 0-.04-.14.28-.3.55-.45.83-.26.46.34-.27-.24.2l3.64-.47c-.21-.11-1.33-.78-.64-.34-.45-.29-.13-.35-.07.02-.07-.1-.14-.21-.19-.33.13.17.19.37.19.58.02.28.03.28.02.01-.08.42-.09.51-.03.28.06-.2.03-.15-.09.17.06-.12.13-.24.2-.35.1-.16.1-.16 0 0 .12-.13.24-.26.37-.38.29-.28.57-.52.9-.75l-3.64-.47c.6.63-.11-.23.17.18.14.2.26.41.37.63-.18-.37.04.1.08.26.07.25.14.5.19.75.03.12.07.48.03.16.03.27.04.55.05.83 0 .46-.02 1.19-.05 1.49-.23 2.01-1.04 4.02-2.19 5.77h5.18c-.44-.68-.88-1.35-1.28-2.05-.32-.56-.62-1.11-.76-1.54-.42-1.24-.3-2.04.21-3.47l-5.79-1.6c-.72 3.61-2.11 7.04-2.84 10.65l5.01-1.32c-1.02-1.08-2.01-2.18-2.8-3.44-.32-.51-.65-1.05-.88-1.61.18.45-.28-1.45-.2-.64-.02-.25-.01-.5-.02-.75 0 .38-.06.32.02-.04.07-.31.18-.44 0-.08.12-.22.24-.44.39-.65-.36.5.2-.16.25-.21.59-.58-.39.22.34-.29.58-.41 1.23-.74 1.88-1.04l-4.51-2.59c.01.4-.01.81-.04 1.21l-.06.73c-.02.19-.13.84 0 .06-.1.59-.2 1.18-.33 1.76-.68 2.93-1.85 5.38-4.09 7.59-2.76 2.71 1.49 6.96 4.24 4.24 4-3.94 6.45-9.94 6.29-15.6-.07-2.41-2.46-3.56-4.51-2.59-3.16 1.49-6.02 4.24-5.84 7.99.19 4.02 3.02 7.4 5.65 10.19 1.48 1.57 4.56.89 5.01-1.32.73-3.61 2.12-7.04 2.84-10.65.75-3.8-4.49-5.24-5.79-1.6-.72 2.04-.9 4.24-.31 6.34.55 1.94 1.66 3.67 2.75 5.35 1.26 1.95 3.92 1.91 5.18 0 3.2-4.85 4.8-12.69.42-17.34-.84-.89-2.59-1.22-3.64-.47-2.16 1.56-4.43 3.6-4.3 6.51.1 2.24 1.73 3.98 3.65 4.95 1.31.66 2.54.42 3.64-.47 1.37-1.12 2.07-3.07 2.62-4.68.5-1.48.87-3 1.17-4.53h-5.79c.57 3.86.99 8.49 1.61 12.66.44 2.98 5.16 2.74 5.79 0 .77-3.39 1.77-6.72 2.54-10.11h-5.79c.6 2.38 1.39 4.71 1.98 7.09.85 3.39 5.72 2.49 5.89-.8.23-4.26 1.34-8.41 1.56-12.67l-2.2 2.89c1.88-.26 3.6-1.24 4.92-2.57l-5.12-2.12c-.36 4.22-.71 8.45-1.07 12.67-.25 3.01 4.22 4.02 5.59 1.51 1.74-3.17 3.65-6.2 5.82-9.09 1.13-1.51 2.39-2.96 3.42-4.54 1.24-1.89.38-5.16-.74-7.05-1.37-2.31-4.16-2.63-6.1-.87-1.54 1.4-2.44 3.31-2.77 5.33-.78 4.74-1.07 9.8.7 14.36.99 2.54 3.88 2.84 5.48.72 3.29-4.34 6.31-8.83 8.81-13.67.74-1.44.37-3.26-1.08-4.1-1.35-.79-3.36-.37-4.1 1.08Z"/>
    <path d="M77.61 53.03c-.17.02-.33 0-.47-.1-.24-.23-.24-.22.01.02-.42-.7.4.78.11.12.17.37.26.79.35 1.18.04.2.08.41.12.62-.04-.28-.04-.24 0 .13.16 2.3.12 4.64.13 6.95 0 5.05-.17 10.09-.5 15.13-.11 1.62 1.45 3 3 3 1.71 0 2.89-1.38 3-3 .82-12.07 1.28-24.15 1.39-36.24l-5.89.8c.96 3.98 2.41 7.81 4.25 11.47 1.12 2.24 4.99 1.78 5.48-.72 1.15-5.81 2.29-11.62 3.44-17.43h-5.79c1.23 8.03 2.24 16.08 2.95 24.17.36 4.09.66 8.18.94 12.27s.59 8.07-.48 12.12c-.49 1.84-.94 3.17-1.81 4.71-.18.32-.38.62-.57.93-.28.47-.05.08.04-.02-.12.14-.24.27-.36.4-.36.4-.36.27-.09.11-.27.16.41-.15.38-.14-.22.06-.17.06.14 0 .27-.06.55-.05.82.04l1.79 1.38c-.09-.19.37 1.01.11.25-.14-.41-.27-.82-.38-1.24-.07-.28-.13-.57-.19-.86-.03-.15-.05-.31-.08-.46-.15-.79.05.67 0 .05-.06-.86-.13-1.71-.1-2.58.01-.45.05-.91.09-1.36.07-.84-.11.52.02-.2.05-.28.09-.57.15-.85.25-1.25.62-2.47 1.08-3.66.06-.14.11-.29.17-.43-.04.1-.26.56-.02.06.14-.29.28-.6.42-.89a27.581 27.581 0 0 1 2.49-4.07l.36-.48c.31-.4-.23.28.1-.12s.68-.82 1.03-1.23c3.46-3.95 7.67-7.1 12.14-9.83 3.29-2.01.28-7.21-3.03-5.18-11.07 6.78-22.96 17.96-20.71 32.24.15.97.38 1.93.73 2.85s.62 1.57 1.5 2.08c1.84 1.07 4.05.08 5.37-1.32 2.77-2.93 4.12-7.42 4.76-11.3.86-5.2.17-10.45-.22-15.66-.83-11.18-2.08-22.3-3.78-33.38-.45-2.92-5.23-2.8-5.79 0-1.15 5.81-2.29 11.62-3.44 17.43l5.48-.72c-1.61-3.2-2.8-6.55-3.65-10.04s-5.86-2.56-5.89.8c-.11 12.09-.57 24.18-1.39 36.24h6c.4-6.01.56-12.04.48-18.06-.07-4.82-.15-11.21-6.22-11.99-1.61-.21-3 1.53-3 3 0 1.79 1.39 2.79 3 3ZM116.14 31.79c3.86 0 3.87-6 0-6s-3.87 6 0 6Z"/>
  </g>
  <g fill="#fff">
    <path d="M19.99 65.64c.07 10.47.14 20.94.2 31.41.01 1.63 2.65 2.12 2.95.4 2.87-16.58 7.98-32.73 15.23-47.91l-1.69.69c-.23-.06.01-.06 0 .2 0 .18.04.44.05.62.03.61-.01 1.23-.02 1.84-.02 1.54-.05 3.08-.1 4.62-.09 2.85-.23 5.7-.47 8.54-.47 5.67-1.34 11.31-2.9 16.78-.72 2.53-1.53 5.09-2.7 7.45-.51 1.03-1.1 2.05-1.82 2.95-.36.44-.76.86-1.18 1.25-.23.21-.52.39-.74.61-.32.33-.23.34-.38-.09-.37-1.12-.83-2-.87-3.23s.13-2.35.42-3.5c.65-2.61 1.83-5.07 3.05-7.46 1.44-2.8 3.09-5.5 4.92-8.07 1.55-2.17 3.29-4.7 6.05-5.29 1.89-.4 1.09-3.29-.8-2.89-2.97.63-5.02 2.89-6.78 5.21a64.109 64.109 0 0 0-5.57 8.72c-2.71 5.08-6.05 11.77-3.29 17.5.57 1.17 1.46 2.36 2.9 2.34 1.51-.02 2.9-1.37 3.87-2.42 2.03-2.19 3.28-4.94 4.3-7.72 2.41-6.53 3.66-13.42 4.33-20.33.38-3.91.57-7.83.67-11.76.05-1.86.22-3.8.05-5.66-.12-1.41-.75-2.75-2.22-3.14-.6-.16-1.41.09-1.69.69-7.37 15.42-12.62 31.79-15.54 48.63l2.95.4c-.07-10.47-.14-20.94-.2-31.41-.01-1.93-3.01-1.93-3 0Z"/>
    <path d="M46.58 65.08c-2.59-1.33-5.01.75-6.22 2.96-1.37 2.49-2.19 5.22-2.52 8.04-.14 1.23-.35 2.68.23 3.83.65 1.29 2.28 1.7 3.4.72.92-.81 1.5-2.18 2.1-3.23.67-1.19 1.31-2.4 1.86-3.65 1.25-2.86 2.09-5.9 1.85-9.04-.15-1.9-3-1.96-3 0v15.31c0 1.93 3 1.93 3 0V64.71h-3c.2 2.56-.38 5.04-1.38 7.39-.48 1.14-1.05 2.24-1.65 3.32-.31.56-.63 1.11-.95 1.66-.19.33-.75.97-.8 1.32.68-.28 1.1-.21 1.26.2-.04-.19-.05-.24-.04-.16.03-.14 0-.51 0-.71.02-.6.06-1.2.14-1.79.17-1.27.49-2.52.91-3.73.39-1.13.88-2.28 1.55-3.28.27-.4 1.17-1.55 1.75-1.25 1.71.88 3.23-1.71 1.51-2.59Z"/>
    <path d="M47.78 69.75c.33-2.6 1.39-5.03 2.93-7.14l-2.74-.36c.98 2.96 1.2 6.11.49 9.15-.62 2.64-1.66 5.5-.05 8.01.6.94 2.01 1 2.59 0 2-3.43 3.66-7.07 4.92-10.83.61-1.82 1.23-3.72 1.56-5.61.16-.92.12-1.88-.54-2.61-.58-.64-1.57-.98-2.4-.64l1.16 2.74a8.133 8.133 0 0 0 2.96-2.27l-2.56-1.06c.25 4.36.11 8.71-.4 13.05-.1.81.76 1.5 1.5 1.5.89 0 1.4-.69 1.5-1.5.51-4.33.65-8.69.4-13.05-.07-1.17-1.67-2.14-2.56-1.06a6.2 6.2 0 0 1-2.35 1.8c-1.53.69-.41 3.4 1.16 2.74-.53-.56-.8-.61-.82-.13l-.08.35c-.08.35-.17.69-.25 1.03-.18.69-.37 1.37-.57 2.05-.42 1.42-.9 2.82-1.43 4.19a53.7 53.7 0 0 1-3.78 7.78h2.59c-.68-1.06-.49-2.25-.22-3.42.31-1.35.71-2.66.9-4.04.42-3.02.15-6.09-.81-8.98-.43-1.3-1.98-1.4-2.74-.36-1.87 2.57-2.94 5.51-3.34 8.65-.1.81.76 1.5 1.5 1.5.9 0 1.4-.69 1.5-1.5Z"/>
    <path d="M66.56 55.9c-2.78-.66-6.41-1.06-8.34 1.55-1.05 1.41-1.18 3.32-1.27 5.02s.09 3.46.99 4.91 2.62 2.4 4.23 1.43c1.51-.92 1.86-2.98 2.3-4.53 1.2-4.15 2.25-8.35 3.17-12.58 1.05-4.85 1.91-9.74 2.59-14.66.26-1.85-2.41-2.73-2.89-.8-1.09 4.39-2.19 8.79-3.28 13.18-1 4-1.95 8.03-2.38 12.14s-.28 8.11.97 11.94c.51 1.57 1.16 3.21 2.72 4.01s3.2-.03 3.7-1.66c.7-2.28 1.04-4.75 1.55-7.08l1.68-7.74c.41-1.88-2.48-2.69-2.89-.8-.53 2.42-1.05 4.84-1.58 7.26-.25 1.13-.49 2.26-.74 3.39l-.42 1.93c-.1.47-.53 1.48-.42 1.93-.18.34-.1.42.23.22.36-.03.4-.09.14-.18-.1-.31-.55-.68-.71-1.03-.41-.93-.67-1.95-.89-2.94-.49-2.15-.61-4.37-.53-6.58.16-4.37 1.14-8.67 2.19-12.9 1.17-4.77 2.37-9.53 3.56-14.29l-2.89-.8a195.863 195.863 0 0 1-5.76 27.24c-.23.79-.36 1.7-.76 2.42-.23.42-.02.31-.29-.04-.25-.33-.37-.77-.47-1.16-.18-.79-.16-1.62-.11-2.43.09-1.42.12-3.23 1.72-3.73 1.3-.4 2.81-.06 4.09.24 1.88.44 2.68-2.45.8-2.89Z"/>
    <path d="M58.09 54.81c1.93 0 1.93-3 0-3s-1.93 3 0 3ZM126.72 26.38c-2.51 4.84-5.53 9.33-8.81 13.67l2.74.36c-1.33-3.4-1.32-7-.89-10.59.17-1.45.31-3.02 1.28-4.19l.25-.27c.54-.4.31-.5-.69-.31-.02.11.25.53.29.64.3.84.44 1.76.58 2.64l.15-1.16c-3.39 4.57-6.78 8.99-9.52 14l2.8.76c.36-4.22.71-8.45 1.07-12.67.11-1.33-1.7-1.93-2.56-1.06s-1.77 1.26-2.93 1.42c-.67.09-1.07.85-1.1 1.45-.23 4.26-1.34 8.41-1.56 12.67l2.95-.4c-.6-2.38-1.39-4.71-1.98-7.09-.35-1.41-2.56-1.45-2.89 0-.77 3.39-1.77 6.72-2.54 10.11h2.89c-.63-4.21-.98-8.45-1.61-12.66-.22-1.46-2.62-1.4-2.89 0a38.01 38.01 0 0 1-.97 3.92c-.34 1.1-.73 2.55-1.66 3.32l1.82-.23c-.47-.24-1.33-.67-1.43-1.17-.19-.96 1.45-2.07 2.08-2.52l-1.82-.23c2.9 3.08.86 8.88-1.12 11.88h2.59c-.81-1.25-1.71-2.53-2.19-3.95s-.3-2.83.21-4.27l-2.89-.8c-.72 3.61-2.11 7.04-2.84 10.65l2.51-.66c-1.71-1.81-3.98-4.15-4.32-6.76-.29-2.27 1.81-3.52 3.6-4.36l-2.26-1.3c.13 4.51-1.77 9.27-4.97 12.41-1.38 1.36.74 3.48 2.12 2.12 3.73-3.68 6-9.26 5.85-14.54-.03-1.2-1.23-1.78-2.26-1.3-2.69 1.27-5.25 3.46-5.1 6.7.17 3.58 2.89 6.67 5.22 9.13.74.79 2.28.44 2.51-.66.73-3.61 2.12-7.04 2.84-10.65.38-1.9-2.25-2.62-2.89-.8s-.83 3.69-.31 5.54 1.58 3.42 2.59 4.99c.63.98 1.96.96 2.59 0 2.8-4.24 4.55-11.38.66-15.52-.42-.44-1.3-.61-1.82-.23-1.7 1.23-3.71 2.89-3.56 5.22.11 1.71 1.47 2.93 2.91 3.65.65.33 1.27.21 1.82-.23 1.18-.96 1.76-2.63 2.23-4.02.5-1.48.87-3 1.17-4.53h-2.89c.63 4.21.98 8.45 1.61 12.66.22 1.49 2.58 1.37 2.89 0 .77-3.39 1.77-6.72 2.54-10.11h-2.89c.6 2.38 1.39 4.71 1.98 7.09.42 1.7 2.86 1.25 2.95-.4.23-4.26 1.34-8.41 1.56-12.67l-1.1 1.45c1.64-.23 3.1-1.02 4.26-2.19l-2.56-1.06c-.36 4.22-.71 8.45-1.07 12.67-.13 1.51 2.11 2.01 2.8.76 1.74-3.17 3.65-6.2 5.82-9.09 1.13-1.51 2.38-2.97 3.42-4.54.95-1.43.12-4.13-.74-5.53s-2.49-1.67-3.74-.56c-1.37 1.22-2.1 2.89-2.39 4.67-.74 4.48-.98 9.26.7 13.56.49 1.27 1.94 1.42 2.74.36 3.29-4.34 6.31-8.83 8.81-13.67.89-1.71-1.7-3.23-2.59-1.51Z"/>
    <path d="M74.61 48.53c1.27.16 1.54 2.53 1.62 3.47.18 2.3.12 4.64.13 6.95 0 5.05-.17 10.09-.5 15.13-.13 1.93 2.87 1.92 3 0 .82-12.07 1.28-24.15 1.39-36.24l-2.95.4c.93 3.85 2.32 7.57 4.1 11.11.56 1.12 2.5.89 2.74-.36 1.15-5.81 2.29-11.62 3.44-17.43h-2.89c1.25 8.16 2.28 16.35 3.01 24.57.36 4.09.66 8.18.94 12.27s.57 8.33-.53 12.52c-.46 1.75-1.07 3.49-1.96 5.07-.32.57-.67 1.14-1.13 1.61-.39.4-.64.32-.21.39l.9.69c-.08-.17.05.05.03.07.01 0 .09.26.01.02-.02-.07-.05-.13-.07-.2-.14-.41-.27-.82-.38-1.24-.07-.28-.13-.57-.19-.86-.03-.15-.05-.3-.08-.46-.08-.46-.01-.02-.05-.35-.09-.86-.13-1.72-.1-2.58.16-5.26 2.85-10.3 6.33-14.28s7.88-7.27 12.44-10.07c1.64-1.01.14-3.6-1.51-2.59-10.4 6.37-22.12 17.01-20.02 30.54.15.97.38 1.94.73 2.85.81 2.09 3.07 1.47 4.37.1 2.58-2.74 3.78-7.04 4.37-10.64.83-5.04.1-10.21-.27-15.26-.82-11.05-2.05-22.03-3.73-32.98-.22-1.46-2.62-1.4-2.89 0-1.15 5.81-2.29 11.62-3.44 17.43l2.74-.36c-1.67-3.32-2.92-6.79-3.8-10.39-.4-1.66-2.93-1.28-2.95.4-.11 12.09-.57 24.18-1.39 36.24h3c.4-6.01.56-12.04.48-18.06-.05-3.75.24-9.85-4.72-10.49-1.91-.24-1.89 2.76 0 3ZM113.14 27.29c1.93 0 1.93-3 0-3s-1.93 3 0 3Z"/>
  </g>
  <text transform="matrix(1 0 0 .8 43.01 28.79)" fill="#fff" font-family="BradleyHandITCTT-Bold, 'Bradley Hand'" font-size="6" stroke="#fff" stroke-linecap="round" stroke-linejoin="round" stroke-width=".5"><tspan x="0" y="0" letter-spacing=".08em">Y</tspan><tspan x="4.55" y="0" letter-spacing=".13em">O</tspan><tspan x="9.63" y="0" letter-spacing=".13em">U</tspan><tspan x="14.82" y="0" letter-spacing=".11em">N</tspan><tspan x="20.14" y="0" letter-spacing=".1em">G</tspan><tspan x="-24.7" y="9" letter-spacing=".13em">A</tspan><tspan x="-19.53" y="9" letter-spacing=".11em">M</tspan><tspan x="-13.58" y="9" letter-spacing=".13em">E</tspan><tspan x="-9.06" y="9" letter-spacing=".14em">R</tspan><tspan x="-3.67" y="9" letter-spacing=".12em">I</tspan><tspan x="-1.28" y="9" letter-spacing=".13em">C</tspan><tspan x="3.3" y="9" letter-spacing=".12em">A</tspan><tspan x="8.36" y="9" letter-spacing=".12em">N</tspan><tspan x="13.78" y="9" xml:space="preserve" letter-spacing=".1em">S   </tspan></text>
</svg>
