<svg xmlns="http://www.w3.org/2000/svg" viewBox="0 0 309.12 305.74">
  <path d="M305.5 1.48c-6.66 109.41 8.55 200.94-1.31 302.46-133.63.01-199.56.67-302.26 0C9.25 229.95-4.58 17.21 5.06 5.63c0 0 292.64-2.44 300.44-4.14Z" fill="#404040"/>
  <path d="M304 1.48c-1.25 20.71-1.77 41.45-1.75 62.19s.51 39.57 1.15 59.35 1.4 38.5 1.96 57.75.9 38.26.69 57.39-1.02 38.89-2.68 58.27c-.21 2.51-.44 5.01-.69 7.51l1.5-1.5c-23.76 0-47.52.03-71.28.07-20.16.03-40.31.08-60.47.13-18.1.04-36.21.08-54.31.1a15499.75 15499.75 0 0 1-108.81-.24c-2.46-.01-4.93-.03-7.39-.05l1.5 1.5c.83-8.38 1.26-16.8 1.58-25.21.39-10.4.55-20.8.62-31.21.08-11.84.03-23.67-.09-35.51-.12-12.53-.32-25.06-.55-37.58s-.5-25.3-.76-37.94-.51-24.29-.73-36.43c-.2-11.01-.37-22.03-.45-33.04-.07-9.26-.08-18.52.07-27.77.12-6.91.3-13.82.85-20.71.32-3.97.44-7.43 1.84-11.23.11-.3-.17.32.02-.05.05-.1.1-.21.15-.31.13-.25.44-.64.14-.26l-1.06.44c2.62-.02 5.24-.04 7.86-.07 7.14-.06 14.27-.12 21.41-.19 10.53-.1 21.06-.19 31.59-.29 12.92-.12 25.84-.25 38.77-.38 14.2-.14 28.41-.29 42.61-.45 14.35-.16 28.71-.32 43.06-.5 13.53-.17 27.06-.34 40.59-.53 11.57-.16 23.15-.34 34.72-.55 8.51-.15 17.03-.31 25.54-.54 4.43-.12 8.9-.14 13.32-.52.46-.04.94-.08 1.39-.17 1.89-.4 1.09-3.29-.8-2.89-.42.09.06 0 .02 0l-.55.06c-.53.05-1.06.08-1.6.11-1.78.1-3.56.17-5.34.23-5.99.21-11.98.34-17.98.47-8.63.18-17.26.33-25.88.47-10.64.17-21.27.33-31.91.47-11.91.16-23.83.31-35.74.46s-24.88.29-37.31.43-24.73.27-37.1.39c-11.54.12-23.09.23-34.63.34-9.98.1-19.97.19-29.95.28l-23.42.21c-4.89.04-9.77.09-14.66.13-1.13 0-2.25.02-3.38.03s-1.87.47-2.39 1.52c-.82 1.64-1.16 3.53-1.45 5.33-.48 2.94-.75 5.91-.97 8.88-.63 8.7-.76 17.46-.83 26.21-.1 11.85 0 23.7.17 35.55.19 13.99.47 27.98.76 41.98.31 15.02.64 30.04.92 45.07s.53 29.85.67 44.78c.13 13.89.17 27.78 0 41.66-.14 11.72-.42 23.45-1.09 35.16-.26 4.56-.59 9.12-1.04 13.67-.08.81.75 1.5 1.5 1.5 18.9.12 37.8.21 56.7.26 17.65.04 35.31.05 52.96.04 17.96-.01 35.92-.05 53.88-.09 19.82-.04 39.63-.09 59.45-.13 23.23-.04 46.46-.07 69.69-.08h9.59c.87 0 1.42-.69 1.5-1.5 1.88-19.44 2.89-38.95 3.26-58.47s.12-38.29-.38-57.43-1.26-38.42-1.92-57.63-1.24-39.38-1.37-59.08c-.14-20.59.2-41.19 1.26-61.76.14-2.7.29-5.39.45-8.08.12-1.93-2.88-1.92-3 0Z"/>
  <path d="M132.06 300.52c17.88-20.93 15.82-65.98 16.57-93.5.18-6.7-2.31-7.22-.17-13.57 1.56-4.61 6.53-7.86 9.29-11.87 7.74-11.27 20.06-30.5 27.8-41.78 4.31-6.28 4.1-11.99 5.81-19.41 1.71-7.43.11-16.13-5.87-20.85-5.96-4.7-15.14-4.78-19.75-10.81-1.41-1.84-2.23-4.06-3.49-6-3.16-4.84-8.74-7.44-14.02-9.79-12-5.35-25.57-10.77-37.86-6.14-2.6.98-5.09 2.4-7.85 2.69-4.5.47-8.67-2.11-12.71-4.13a58.569 58.569 0 0 0-24.03-6.14c6.04 24.19-.73 52.77-9.71 76.02-3.89 10.08-10.23 16.87-17.11 25.2-12.43 15.07-21.03 22.65-29.8 40.1l-7.23 103.4 130.13-3.42Z" fill="#fff"/>
  <path d="M133.12 301.58c6.35-7.5 9.86-16.97 12.09-26.43 2.55-10.83 3.58-22 4.13-33.09.52-10.41.52-20.83.71-31.25.05-2.62.22-5.25-.16-7.85-.3-2.07-1.01-4.06-.73-6.18.83-6.19 6.28-9.44 9.68-14.15 3.12-4.32 5.98-8.86 8.92-13.31 3.39-5.14 6.76-10.29 10.16-15.43 3.03-4.59 6.15-9.11 9.17-13.7 3.47-5.25 4.09-11.29 5.27-17.31.56-2.86 1.19-5.65 1.14-8.58s-.55-5.77-1.63-8.44c-1.01-2.51-2.5-4.85-4.51-6.68s-4.41-3.07-6.91-4.1c-4.81-1.99-10.83-3.19-13.92-7.8-1.87-2.78-2.97-5.83-5.39-8.25-2.08-2.09-4.62-3.69-7.22-5.05-6-3.11-12.43-5.81-18.87-7.85s-13.41-3.26-20.2-2.09c-3.48.6-6.47 2.17-9.77 3.31s-6.38.62-9.51-.78-6.24-3.2-9.5-4.52-6.57-2.33-9.98-3.05-6.84-1.13-10.31-1.27c-1-.04-1.67.99-1.45 1.9 3.38 13.71 2.62 28.14.02 41.91-1.33 7.06-3.16 14.02-5.34 20.87s-4.23 13.29-7.68 19.27-7.76 10.9-12.04 16.03c-4.25 5.1-8.6 10.12-12.93 15.16-3.84 4.47-7.58 9.04-10.9 13.92-1.84 2.71-3.56 5.5-5.15 8.36-.83 1.49-1.82 3.04-2.45 4.63-.12.29-.17.54-.21.84-.37 2.69-.38 5.48-.57 8.19-.42 6.08-.85 12.16-1.27 18.24l-3.3 47.23-1.35 19.28c-.23 3.3-.56 6.61-.69 9.92 0 .15-.02.3-.03.45-.06.79.73 1.52 1.5 1.5 4.33-.11 8.66-.23 12.99-.34 10.36-.27 20.71-.54 31.07-.82l37.56-.99c10.82-.28 21.65-.57 32.47-.85 5.26-.14 10.55-.12 15.8-.42h.23c1.93-.05 1.93-3.05 0-3-4.33.11-8.66.23-12.99.34-10.36.27-20.71.54-31.07.82l-37.56.99c-10.82.28-21.65.57-32.47.85l-10.74.28c-1.64.04-3.45-.12-5.07.13-.07.01-.15 0-.23 0l1.5 1.5c.57-8.18 1.14-16.36 1.72-24.54 1.1-15.71 2.2-31.42 3.29-47.12l2.16-30.93c.02-.24 0-.51.05-.75v-.04c-.22.91.22-.08.2-.05.25-.32.42-.82.61-1.18.85-1.62 1.73-3.22 2.65-4.79 3.06-5.23 6.58-10.15 10.41-14.83 8.27-10.12 17.37-19.6 25.16-30.11 2.01-2.71 3.85-5.55 5.41-8.54s2.84-6.41 4.04-9.71c2.42-6.67 4.54-13.46 6.23-20.35 3.38-13.74 5.28-28.16 3.63-42.28-.39-3.32-.96-6.62-1.76-9.86l-1.45 1.9c6.99.28 13.95 1.81 20.39 4.59 5.88 2.54 11.69 7.06 18.46 5.31 3.27-.85 6.21-2.62 9.52-3.39s6.67-.82 10-.47c6.94.72 13.65 3.29 20.01 6.03 5.44 2.34 11.63 4.62 15.64 9.19 2.13 2.42 3.05 5.61 5.09 8.1 1.66 2.02 3.9 3.46 6.25 4.55 4.76 2.2 10.46 3.19 14.36 6.92s5.32 9.59 4.94 14.94c-.21 2.96-1.05 5.88-1.55 8.8s-.93 5.57-1.84 8.25-2.48 5.05-4.1 7.43c-1.45 2.13-2.88 4.27-4.3 6.41-6.47 9.73-12.81 19.55-19.33 29.24-1.42 2.1-2.76 4.3-4.45 6.19-1.93 2.16-4.09 4.1-5.82 6.44s-2.67 5.03-2.92 7.85c-.19 2.12.46 4.14.79 6.21.4 2.48.17 5.02.13 7.52s-.08 4.77-.11 7.15c-.07 5.19-.13 10.38-.28 15.57-.31 10.93-.92 21.9-2.72 32.7-1.62 9.67-4.11 19.54-9.21 28.01-1.11 1.83-2.33 3.58-3.72 5.22-1.24 1.46.87 3.6 2.12 2.12Z"/>
  <path d="M167.22 139.49c-.27 2.28.75 4.57 2.71 5.75 1.75 1.05 3.96 1.45 5.79 1.02 4.04-.94 6.94-4.77 6.01-8.1-.67-2.4-4.24-3.92-4.82-4.11-3.27-1.06-5.85-.66-8.37 1.81-.82.81-1.18 2.34-1.33 3.63Z" fill="#fff"/>
  <path d="M165.69 139.49c-.41 4.08 2.49 7.37 6.36 8.22s7.6-.74 9.87-3.83c1.97-2.69 2.12-6.39-.39-8.78-2.01-1.91-4.84-3.09-7.6-3.13-2.08-.03-3.97.75-5.58 2.03-.78.62-1.44 1.31-1.85 2.23-.47 1.05-.66 2.13-.81 3.26-.1.82.78 1.53 1.53 1.53.91 0 1.43-.71 1.53-1.53.17-1.35.53-2.34 1.58-3.18.86-.68 1.95-1.19 2.99-1.26 1.17-.08 2.22.2 3.34.53.35.1-.28-.14.14.06.19.09.38.18.57.28.47.24.92.52 1.35.82.69.49 1.39 1.23 1.57 2 .08.31.1.87.06 1.12-.08.6-.28 1.14-.53 1.6-1.13 2.07-3.49 3.51-5.88 3.43-1.45-.05-3.06-.59-4.08-1.66-.96-1.01-1.25-2.39-1.12-3.74.08-.83-.76-1.53-1.53-1.53-.9 0-1.45.71-1.53 1.53Z"/>
  <path d="M173.58 140.98c-.73 1.93 5.62.9 3.74-1.93-.88-1.44-4.83-.99-4.45 1.69.45 1.02 1.94 1.33 2.57.45.63-.88.25-2.14-.72-2.04 0 0-.93 1.02 0 1.37" fill="#fff"/>
  <path d="M172.14 140.58c-.2.56-.12 1.19.16 1.7s.79.83 1.32 1.01c.77.27 1.71.18 2.49 0 .82-.2 1.7-.62 2.27-1.26.34-.39.64-.85.73-1.37.13-.71.02-1.35-.28-2-.97-2.11-3.96-2.4-5.78-1.26-1.09.69-1.82 1.92-1.69 3.24.04.36.11.69.29 1 .12.21.27.4.43.58.24.27.56.49.89.65.9.41 1.86.45 2.76.01.84-.41 1.36-1.32 1.48-2.21.13-.95-.17-1.92-.95-2.52-.41-.32-.9-.49-1.43-.5-.72 0-1.1.34-1.48.85-.44.59-.66 1.37-.45 2.09.09.32.28.61.51.85.27.27.57.39.92.53s.86.02 1.16-.15.61-.54.69-.9c.09-.38.07-.81-.15-1.16s-.51-.53-.9-.69l-.06-.02.36.15c-.06-.03-.12-.07-.18-.11l.3.23s-.06-.06-.09-.1l.23.3s-.03-.04-.04-.07l.15.36s-.03-.1-.04-.15l.05.4v-.16l-.05.4c.01-.08.04-.16.07-.23l-.15.36c.07-.16.16-.3.26-.43l-.23.3s.05-.07.08-.1l-1.06.44h.21l-.4-.05c.08.01.15.03.23.06l-.36-.15c.07.03.13.07.19.11l-.3-.23c.06.05.11.1.16.16l-.23-.3c.06.08.1.15.14.24l-.15-.36c.04.11.07.22.09.33l-.05-.4c.02.14.01.28 0 .42l.05-.4c-.02.15-.06.29-.12.42l.15-.36c-.06.12-.12.24-.2.35l.23-.3c-.06.08-.13.15-.21.21l.3-.23c-.08.06-.16.11-.25.15l.36-.15c-.12.05-.24.08-.37.1l.4-.05c-.13.01-.26.01-.39 0l.4.05c-.15-.02-.3-.06-.44-.12l.36.15c-.14-.06-.27-.14-.4-.23l.3.23c-.11-.09-.21-.18-.29-.29l.23.3c-.07-.1-.14-.2-.19-.32l.2.76c-.03-.22-.03-.43 0-.65l-.05.4c.02-.16.07-.32.13-.48l-.15.36c.06-.14.14-.28.23-.4l-.23.3c.11-.14.24-.27.38-.38l-.3.23c.18-.14.37-.24.58-.33l-.36.15c.26-.11.53-.18.81-.22l-.4.05c.3-.04.61-.04.91 0l-.4-.05c.23.03.46.09.68.18l-.36-.15c.15.06.28.14.41.24l-.3-.23c.09.07.18.16.25.25l-.23-.3c.11.15.21.32.28.49l-.15-.36c.06.15.11.3.13.45l-.05-.4c.01.11.01.22 0 .33l.05-.4c-.02.11-.04.22-.09.33l.15-.36c-.05.12-.12.24-.2.34l.23-.3c-.11.13-.23.25-.36.36l.3-.23c-.22.16-.45.29-.7.4l.36-.15c-.34.14-.69.23-1.06.28l.4-.05c-.29.04-.58.05-.87 0l.4.05c-.15-.02-.29-.06-.43-.11l.36.15a.817.817 0 0 1-.2-.12l.3.23s-.09-.08-.12-.12l.23.3s-.05-.07-.06-.11l.15.36s-.03-.08-.03-.13l.05.4v-.16l-.05.4c0-.07.03-.14.05-.21.13-.35.03-.85-.15-1.16s-.54-.61-.9-.69c-.38-.09-.81-.07-1.16.15s-.55.51-.69.9Z"/>
  <path d="M122.14 122.65c.08 1.7 1.06 3.58 2.26 4.8 2.46 2.5 8.56 2.27 11.21.12s3-6.11 1.66-9.07c-.72-1.59-1.98-2.6-3.43-3.57-2.57-1.72-7.15-1.52-9.24.76-1.83 2-2.63 3.32-2.46 6.98Z" fill="#fff"/>
  <path d="M120.4 122.65c.16 2.27 1.21 4.58 2.88 6.14 1.33 1.25 3.09 1.84 4.87 2.08 3.66.49 7.85-.43 10.06-3.6 2.4-3.42 1.94-8.66-.84-11.71s-7.05-4.39-10.95-3.01c-2.04.72-3.55 2.17-4.71 3.97s-1.39 4-1.31 6.13c.04.94.78 1.75 1.75 1.75.92 0 1.79-.8 1.75-1.75a18.016 18.016 0 0 1 .01-1.9c0 .03.07-.63.03-.33.04-.29.11-.59.19-.87.05-.16.1-.32.16-.47-.12.32.09-.18.12-.24.14-.26.29-.52.46-.76.06-.09.13-.18.19-.27-.2.27.16-.19.16-.19.47-.56.87-1.01 1.34-1.3 2.29-1.41 5.22-.91 7.36.79 1.2.95 1.87 2 2.19 3.41a6.59 6.59 0 0 1-.32 3.98c-.16.39-.54.99-.88 1.35-.47.49-.66.62-1.42.98-.89.42-2.34.67-3.53.67-1.45 0-2.76-.23-3.9-.95-.28-.18-.11-.07-.05-.02-.19-.15-.35-.31-.51-.49-.28-.3-.5-.61-.71-.96-.45-.74-.82-1.61-.88-2.44-.07-.94-.76-1.75-1.75-1.75-.89 0-1.81.8-1.75 1.75Z"/>
  <path d="M130.14 121.31c.08.9.67 1.78 1.89 1.29.65-.26.63-1.86-.19-2.24-1.01-.48-2.31 1.06-1.56 1.88 1 1.09 2.45-.09 2.03-1.13-.19-.47-1.19-.18-.77.11" fill="#fff"/>
  <path d="M128.64 121.31c.02.26.05.52.12.77s.17.48.27.7.26.41.42.6.35.33.54.46.44.23.67.3c.12.04.24.05.37.06.14.02.27.04.41.04.28-.01.56-.05.83-.13.19-.06.38-.14.56-.22.15-.07.28-.19.4-.29.03-.03.06-.05.09-.09.11-.13.22-.26.31-.41.12-.19.2-.41.26-.62.07-.23.09-.47.11-.71v-.34c-.05-.51-.14-.93-.4-1.39-.03-.05-.05-.09-.09-.13-.1-.14-.21-.29-.33-.42-.16-.16-.35-.32-.55-.42-.38-.19-.63-.25-1.05-.3-.24-.03-.49.02-.72.06-.48.09-.88.37-1.25.67-.1.08-.18.16-.26.26-.15.18-.31.38-.42.59s-.21.43-.26.66c-.04.18-.06.36-.08.54v.17c.03.42.1.66.27 1.04.02.05.05.1.08.14.11.16.22.31.36.45s.3.25.45.37c.06.05.13.09.2.13.22.11.46.22.71.26.44.07.68.07 1.13 0 .24-.04.48-.15.69-.26.43-.21.78-.59 1.04-.99s.41-.93.4-1.41c0-.25-.04-.51-.13-.75-.12-.31-.21-.5-.43-.75-.01-.02-.03-.03-.05-.05-.1-.1-.23-.2-.36-.27-.02 0-.03-.02-.05-.03-.13-.06-.27-.13-.41-.17-.17-.05-.35-.06-.52-.08h-.15c-.17.01-.35.03-.52.07-.16.04-.31.11-.45.19-.02 0-.03.02-.05.03-.11.07-.25.17-.34.26-.17.17-.26.33-.35.53s-.13.39-.14.64c0 .36.13.69.35.96.05.06.09.13.15.19.1.1.24.19.35.27.17.11.36.17.56.18.2.04.4.04.6-.03.35-.1.73-.36.9-.69.18-.35.28-.77.15-1.16l-.15-.36c-.13-.23-.31-.4-.54-.54h-.02c.1.07.2.14.3.22l-.06-.06.23.3s-.01-.02-.02-.03l.15.36v-.02l.05.4v-.03l-.05.4v-.03l-.15.36s.01-.02.02-.03l-.23.3.04-.04-.3.23s.06-.04.09-.05l-.36.15c.05-.02.1-.03.16-.04l-.4.05c.07 0 .14-.01.21 0l-.4-.05.13.03-.36-.15s.07.03.1.05l-.3-.23s.05.04.07.07l-.23-.3s.04.05.05.08l-.15-.36c.03.08.05.16.07.25l-.05-.4c.01.09.01.18 0 .27l.05-.4a.9.9 0 0 1-.08.28l.15-.36c-.04.1-.1.19-.16.28l.23-.3c-.07.08-.14.16-.23.23l.3-.23c-.09.07-.18.12-.28.17l.36-.15c-.1.04-.2.07-.31.09l.4-.05c-.09.01-.19.01-.28 0l.4.05a.9.9 0 0 1-.28-.08l.36.15c-.1-.04-.19-.1-.28-.17l.3.23c-.09-.07-.17-.15-.24-.24l.23.3a.817.817 0 0 1-.12-.2l.15.36a.83.83 0 0 1-.06-.21l.05.4v-.25l-.05.4c.02-.11.04-.21.09-.31l-.15.36c.05-.13.12-.25.21-.35l-.23.3c.09-.11.19-.21.3-.3l-.3.23c.1-.08.21-.15.33-.2l-.36.15c.1-.04.21-.07.32-.09l-.4.05h.26l-.4-.05c.08.01.16.03.23.06l-.36-.15c.08.03.15.07.21.13l-.3-.23c.06.05.12.11.17.17l-.23-.3c.07.09.13.19.17.3l-.15-.36c.06.14.1.29.12.44l-.05-.4c.02.16.02.33 0 .49l.05-.4c-.02.12-.05.24-.09.35l.15-.36c-.03.07-.07.14-.12.2l.23-.3s-.07.08-.11.11l.3-.23s-.08.05-.12.07l.36-.15c-.15.06-.31.11-.47.13l.4-.05c-.12.01-.23.02-.35 0l.4.05c-.09-.01-.18-.04-.27-.07l.36.15a1.71 1.71 0 0 1-.23-.13l.3.23c-.08-.07-.16-.14-.22-.22l.23.3c-.08-.11-.15-.23-.2-.35l.15.36c-.07-.17-.12-.35-.14-.53l.05.4s0-.07-.01-.11c0-.21-.04-.4-.13-.58-.06-.19-.16-.35-.31-.48-.26-.26-.69-.46-1.06-.44s-.79.14-1.06.44c-.25.28-.48.67-.44 1.06Z"/>
  <path d="M138.27 167.81c-.99-6.06-.4-15.44.1-18.13 4.25 3.18 12.66 6.79 19.38 10.51-6.27 5.15-12.49 6.98-19.47 7.62" fill="#fff"/>
  <path d="M139.72 167.41c-.52-3.27-.54-6.63-.46-9.93.04-1.51.11-3.01.23-4.52.08-1.08.17-2.05.33-2.88l-2.2.9c2.71 2 5.77 3.53 8.76 5.05 3.55 1.8 7.13 3.54 10.61 5.46l-.3-2.36c-5.33 4.34-11.62 6.54-18.41 7.18-.81.08-1.5.63-1.5 1.5 0 .75.69 1.58 1.5 1.5 3.59-.34 7.16-.96 10.55-2.23 3.66-1.37 6.96-3.37 9.99-5.83.75-.61.48-1.93-.3-2.36-3.48-1.92-7.07-3.65-10.61-5.46-2.99-1.52-6.05-3.05-8.76-5.05-.74-.55-2.04 0-2.2.9-.49 2.69-.59 5.47-.66 8.2-.09 3.58 0 7.18.56 10.73.13.8 1.13 1.25 1.85 1.05.85-.24 1.18-1.04 1.05-1.85ZM147.26 120.45c-3.99-4.85-8.7-9.15-13.57-13.11-1.05-.85-2.31-2.23-3.65-2.64-1.54-.46-3.68.17-5.21.38-1.8.25-3.85.86-5.68.74-1.93-.12-1.92 2.88 0 3 .83.05 1.74-.17 2.55-.28 1.36-.19 2.71-.39 4.06-.58 1.08-.15 2.17-.27 3.26-.35.03 0 .45-.01.45 0 0 .24-.68-.44-.42-.07.14.19.52.36.71.51 5.6 4.16 10.93 9.14 15.36 14.52 1.23 1.49 3.34-.64 2.12-2.12Z"/>
  <path d="M163.66 130.76c8.05-.81 19.2-1.91 28.95-3.04" fill="#fff"/>
  <path d="M163.66 132.26c9.65-.97 19.31-1.93 28.95-3.04 1.9-.22 1.92-3.22 0-3-9.64 1.11-19.29 2.07-28.95 3.04-1.9.19-1.92 3.19 0 3Z"/>
  <path d="M50.13 101.19c1.79-5.62-5.36-12.86 12.1-33.92 3.33-4.02 7.32-6.84 10.11-11.25a45.42 45.42 0 0 1-8.2-5.91c10.43-10.53 34.94-10.33 49.35-13.81-5.21-2.75-11.55-3.28-17.14-1.42 9.39-11.91 24.44-19.14 39.61-19.03 15.17.11 30.11 7.57 39.32 19.62.65-4.81.32-9.76-.97-14.45 5.78.66 10.34 5.62 12.29 11.11 1.95 5.48 1.8 11.46 1.63 17.28 11.05-3.66 23.87-.39 32.45 7.48 8.58 7.87 18.78 20.19 18.13 31.81-.45 8.16-7.23 17.76-14.32 21.84-3.35 1.93-16.89 7.52-19.86 10-4.9 4.11-7.33 13.45-19.08 19.25-1.92.95 12.43-29.25-7.61-32.6-12.29-2.05-17.02-5.54-25.83-14.35-6.45-6.45-6.93-13.66-14.75-18.37-6.01-3.62-11.32-6.19-18.3-5.46-8.73.92-11.5 17.89-8.73 19.01 4.5 1.81-6.68.74-8.94 5.03s-45.34 42.17-45.34 42.17l-9.65-18.69"/>
  <path d="M233.02 163.24c2.51-3.9 3.92-49.9 8.18-51.74 6.48-2.8 21.41 27.14 20.62 34.15-3.4 29.95 2.69 28.27-15.03 47.77" fill="#fff"/>
  <path d="M234.31 164c.59-.95.78-2.17.98-3.25.36-1.93.6-3.89.83-5.85.63-5.3 1.09-10.62 1.6-15.93s1.04-10.92 1.83-16.35c.3-2.07.63-4.14 1.1-6.18.18-.77.37-1.53.63-2.28.05-.15.11-.3.16-.45.14-.4-.05.07.05-.14.11-.23.23-.45.36-.68.17-.32-.22.14.16-.17-.08.07-.18.17-.21.14-.01-.01-.06-.08.04 0 .03.02.2-.06.25-.06-.44.04.03 0 .13.02.24.04-.26-.09.16.03.53.14.43.1.76.29 1.62.91 2.96 2.4 4.2 3.93 3.54 4.37 6.27 9.49 8.64 14.57 1.14 2.45 2.19 4.96 3.04 7.53.36 1.09.7 2.2.95 3.32.21.91.32 1.49.35 2.23.06 1.47-.25 2.98-.39 4.44-.19 1.99-.36 3.98-.5 5.98-.21 3.09-.35 6.18-.48 9.27-.18 4.12-.24 8.06-1.64 11.94-1.56 4.35-4.87 8.33-7.94 11.89-1.2 1.39-2.43 2.77-3.67 4.13s.82 3.55 2.12 2.12c4.01-4.42 8.33-8.99 11.08-14.35 1.94-3.78 2.6-7.82 2.86-12.02.41-6.59.57-13.18 1.24-19.76.25-2.48.37-4.51-.21-6.94s-1.51-4.94-2.5-7.32c-2.32-5.61-5.12-11.11-8.58-16.11-1.41-2.04-2.95-4.09-4.8-5.76-1.33-1.2-3-2.42-4.88-2.4-3.36.03-4.01 4.36-4.54 6.89-1.05 5.08-1.58 10.28-2.12 15.43-.62 5.9-1.13 11.81-1.73 17.71-.4 3.97-.6 7.9-1.63 11.72-.06.23-.14.46-.21.68-.12.38.12-.26 0 0-.03.08-.08.15-.12.22-1.02 1.65 1.57 3.15 2.59 1.51Z"/>
  <path d="M46.41 160.19c16.22-52.06 45.3-74.79 25.92-104.17 7.37-4.48 34.42 9.73 49.66 25.99" fill="#fff"/>
  <path d="M47.86 160.59c2.95-9.42 6.55-18.62 10.62-27.61 3.42-7.55 7.15-14.94 10.78-22.38 5.43-11.16 11.59-23.42 10.97-36.18-.34-6.91-2.82-13.4-6.59-19.15l-.54 2.05c.61-.36 1.42-.56 2.19-.61 1.14-.08 2.29.02 3.41.22 3.16.56 6.23 1.65 9.16 2.92 7.81 3.37 15.16 7.97 21.89 13.16 3.98 3.07 7.75 6.41 11.2 10.07 1.33 1.41 3.44-.72 2.12-2.12-6.42-6.82-13.97-12.62-21.94-17.51-6.52-4-13.81-7.96-21.41-9.37-2.65-.49-5.71-.77-8.13.65-.67.39-.98 1.37-.54 2.05 3.23 4.92 5.58 10.43 6.09 16.34.49 5.59-.52 11.13-2.19 16.45-1.99 6.35-4.83 12.39-7.72 18.37-3.49 7.21-7.11 14.35-10.46 21.62-4.53 9.84-8.56 19.9-11.79 30.24-.58 1.85 2.32 2.64 2.89.8Z"/>
  <path d="m138.75 167.94-4.08 5.35c-.17.23-.36.46-.62.57-.33.13-.7.04-1.04-.05-2.47-.66-12.91-5.72-15.46-5.86" fill="#fff"/>
  <path d="m137.45 167.19-3.31 4.34c-.15.2-.51.88-.71.92.14-.03-.24-.15-.21-.15-.24-.03-.5-.17-.73-.25-1.62-.59-3.2-1.3-4.79-1.98-1.93-.82-3.87-1.65-5.83-2.41-1.38-.53-2.82-1.11-4.31-1.22-1.93-.14-1.92 2.86 0 3 .2.01-.29-.08.14.02l.4.09c.38.09.75.21 1.12.33.88.29 1.74.62 2.6.96 2.07.82 4.1 1.7 6.15 2.57 1.5.63 3.02 1.39 4.6 1.81 1.92.51 2.82-.44 3.9-1.86l3.57-4.68c.5-.65.1-1.67-.54-2.05-.77-.46-1.56-.1-2.05.54Z"/>
  <path d="M122.56 144.57c-20.39-15.21-23.71-17.11-42.5-30.77" fill="#fff"/>
  <path d="M123.31 143.28c-10.53-7.85-21.22-15.48-31.91-23.13-3.54-2.53-7.07-5.08-10.59-7.64-1.56-1.14-3.06 1.46-1.51 2.59 10.32 7.5 20.78 14.8 31.08 22.33 3.82 2.79 7.63 5.61 11.42 8.44 1.55 1.15 3.05-1.45 1.51-2.59Z"/>
  <path d="M116.63 151.56c-12.94-1.21-33.33-4.86-45.89-8.22" fill="#fff"/>
  <path d="M116.63 150.06c-7.67-.72-15.3-1.92-22.89-3.28s-15.15-2.9-22.6-4.88c-1.87-.5-2.66 2.4-.8 2.89 7.58 2.02 15.28 3.57 23 4.95s15.48 2.58 23.29 3.32c1.92.18 1.91-2.82 0-3Z"/>
  <path d="M161.68 166.82h21.13c1.93 0 1.93-3 0-3h-21.13c-1.93 0-1.93 3 0 3ZM160.05 173.06c3.67 3.23 7.82 5.76 12.35 7.59.75.3 1.65-.33 1.85-1.05.24-.86-.29-1.54-1.05-1.85a38.68 38.68 0 0 1-11.03-6.82c-.61-.53-1.52-.6-2.12 0-.55.55-.61 1.58 0 2.12Z" fill="#fff"/>
  <path d="M52.73 145.96c1.76 7.16 3.63 14.36 6.84 20.99 8.18 16.91 24.74 28.9 42.8 34.08s45.77-.2 49.85-.06c47.25 1.65 79.73-36.8 80.79-37.73 1.09-.96 27.35 7.39 28.83 8.76 3.91 3.63-36.06 70.29-72.47 84.47-19.71 7.68-54.64 43.61-57.31 44.05-17.3 2.84-108.25-1.69-129.82 3 1.73-39.82 3.02-93.37 3.15-114.45 17.58-18.14 47.34-43.11 47.34-43.11Z"/>
  <path d="M51.28 146.36c1.95 7.91 4.05 15.87 7.88 23.11 3.17 6 7.44 11.42 12.4 16.04s10.59 8.5 16.63 11.56c5.9 2.99 12.25 5.4 18.77 6.56 12.14 2.14 24.68 1.1 36.84-.3 3.57-.41 7.02-.83 10.62-.8 6.57.06 13.14-.65 19.56-2.05 11.49-2.49 22.45-7.22 32.45-13.36 7.47-4.59 14.48-9.98 20.88-15.97 1.82-1.71 3.6-3.47 5.31-5.29.41-.43.84-.86 1.22-1.31.29-.35.22-.14-.2.04-.2.09-.56.01-.15.09.25.04.53.05.31.02 3.51.51 6.99 1.67 10.38 2.69 4.22 1.26 8.43 2.61 12.58 4.1 1.29.46 2.64.94 3.59 1.4.17.08.33.17.49.25.32.15-.17-.24-.01-.02-.16-.23-.18-.22-.23-.36.13.36.02-.29 0-.02v.4c-.01.47.05-.17-.02.16-.08.4-.17.79-.28 1.18-.14.48-.3.96-.48 1.43-.1.27-.2.54-.31.81-.12.31-.23.55-.26.65-3.02 7.08-7.2 13.74-11.41 20.16-5.9 8.98-12.37 17.59-19.4 25.71s-15.15 16.38-24.08 22.96c-3.99 2.94-8.2 5.6-12.69 7.69-1.9.89-3.89 1.59-5.78 2.5-2.04.98-4 2.1-5.92 3.28-9.28 5.71-17.74 12.77-25.97 19.88-6.65 5.74-13.04 11.79-19.71 17.5-.45.39-.91.77-1.37 1.15-.11.09-.62.48-.3.24-.16.12-.31.24-.47.35-.13.09-.26.16-.39.25-.25.19-.26.07.03.02-.14.03-.27.06-.41.08-.11.01-.21.03-.32.05-.25.04.26-.03-.1.01-2.62.33-5.27.46-7.9.57-8.3.34-16.61.31-24.92.28-10.47-.03-20.94-.15-31.41-.21s-21.09-.11-31.64.05c-8.34.12-16.72.29-25.03 1.07-2.74.26-5.5.56-8.19 1.14l1.9 1.45c.72-16.71 1.29-33.43 1.78-50.16.45-15.41.84-30.81 1.12-46.22.11-6.02.21-12.05.24-18.07l-.44 1.06c13.68-14.09 28.54-27.08 43.47-39.82 1.29-1.1 2.58-2.2 3.87-3.29 1.48-1.24-.65-3.36-2.12-2.12-5.12 4.29-10.16 8.67-15.18 13.08-9.71 8.53-19.32 17.2-28.49 26.32-1.07 1.07-2.14 2.14-3.19 3.22-.57.58-.88 1.02-.91 1.85-.02.46 0 .93 0 1.39-.02 2.16-.04 4.32-.07 6.48-.07 5.41-.17 10.81-.28 16.22-.28 13.72-.63 27.44-1.04 41.16-.43 14.61-.93 29.21-1.53 43.81l-.21 5.08c-.04 1.02.99 1.64 1.9 1.45 6.3-1.35 13.13-1.53 19.75-1.79 9.87-.38 19.76-.43 29.64-.42 10.8 0 21.6.11 32.41.19 9.61.07 19.22.15 28.82.03 6.21-.08 12.53-.04 18.69-.94 1.79-.26 3.26-1.87 4.57-2.99 2.82-2.43 5.57-4.95 8.34-7.44 8-7.2 16.06-14.36 24.58-20.93 4.17-3.21 8.45-6.31 12.98-9.01 1.89-1.13 3.83-2.2 5.84-3.11s4.05-1.65 6.02-2.62c9.45-4.64 17.76-11.57 25.27-18.88 8.11-7.9 15.43-16.59 22.2-25.66 5.75-7.7 11.15-15.71 15.85-24.11 1.62-2.89 3.16-5.84 4.44-8.89.72-1.72 1.61-3.69 1.58-5.59-.04-2.26-2.31-2.83-4.07-3.51-3.89-1.5-7.87-2.77-11.85-4.01s-7.71-2.4-11.65-3.24c-1.73-.37-3.26-.76-4.56.63a129.46 129.46 0 0 1-11.7 11.13c-7.69 6.44-16.15 12.01-25.19 16.36-11.3 5.43-23.64 8.82-36.2 9.29-2.4.09-4.83-.12-7.22.05-1.61.11-3.21.32-4.8.51-5.37.63-10.75 1.21-16.15 1.52-6.57.38-13.21.42-19.75-.41s-12.85-2.91-18.78-5.71c-12.39-5.83-23.32-15.12-29.82-27.3-3.76-7.05-5.77-14.85-7.67-22.57-.46-1.87-3.36-1.08-2.89.8Z"/>
  <path d="M57.53 253.64c14.79-4.42 18.87-1.51 28.38-6.6 10.9-5.83 22.39-9.57 33.12-7.89 2.23.35 4.57 1.06 5.81 3.48 1.62 3.18.66 8.33-1.43 11.87s-5.03 5.82-7.9 7.87c-20 14.25-41.51 22.77-62.57 24.79" fill="#fff"/>
  <path d="M57.92 255.09c4.56-1.35 9.18-2.26 13.91-2.79 3.38-.38 6.77-.72 10.01-1.83 1.97-.68 3.82-1.61 5.66-2.57 2.65-1.39 5.35-2.67 8.14-3.76 5.32-2.1 10.96-3.64 16.7-3.86 4.12-.15 10.97-.39 11.74 4.94.72 5.03-2.22 9.91-5.82 13.12-4.2 3.76-9.26 6.78-14.08 9.66s-10.26 5.74-15.64 8.11c-11.27 4.97-23.32 8.36-35.59 9.56-1.9.19-1.92 3.19 0 3 11.67-1.14 23.08-4.12 33.91-8.6s22.29-10.69 31.87-18.22c4.37-3.43 7.63-7.97 8.31-13.59.29-2.37.07-4.98-1.29-7.01s-3.64-3.06-6-3.47c-12.03-2.11-24.12 2.47-34.6 7.99-3.72 1.96-7.56 2.91-11.71 3.37-5.54.62-10.95 1.49-16.31 3.07-1.85.55-1.06 3.44.8 2.89Z"/>
  <text transform="translate(184.88 19.7)" fill="#fff" font-family="ITCAvantGardeStd-Bold, 'ITC Avant Garde Gothic Std'" font-size="8"><tspan x="0" y="0" letter-spacing="-.02em">“</tspan><tspan x="4.31" y="0" letter-spacing="-.02em">H</tspan><tspan x="10.15" y="0" letter-spacing="-.02em">E</tspan><tspan x="14.24" y="0" letter-spacing="-.03em">R</tspan><tspan x="19.24" y="0" letter-spacing="-.03em">O</tspan><tspan x="25.82" y="0" letter-spacing="-.01em">E</tspan><tspan x="29.93" y="0" letter-spacing="0em">S</tspan><tspan x="34.45" y="0" letter-spacing="-.05em">” </tspan><tspan x="40.56" y="0" letter-spacing="-.06em">D</tspan><tspan x="45.98" y="0" letter-spacing="-.09em">A</tspan><tspan x="51.28" y="0" letter-spacing="-.04em">V</tspan><tspan x="56.74" y="0" letter-spacing="-.03em">I</tspan><tspan x="59.11" y="0" letter-spacing="-.05em">D </tspan><tspan x="66.72" y="0" letter-spacing="-.02em">M</tspan><tspan x="73.85" y="0" letter-spacing="-.03em">E</tspan><tspan x="77.87" y="0" letter-spacing="-.05em">O</tspan><tspan x="84.25" y="0" letter-spacing="-.04em">W</tspan><tspan x="91.78" y="0" letter-spacing="-.03em">I</tspan><tspan x="94.15" y="0" letter-spacing="-.05em">E</tspan></text>
</svg>
