<svg xmlns="http://www.w3.org/2000/svg" xmlns:xlink="http://www.w3.org/1999/xlink" viewBox="0 0 309.12 305.74">
  <defs>
    <linearGradient id="a" x1="1.38" y1="247.16" x2="307.73" y2="247.16" gradientUnits="userSpaceOnUse">
      <stop offset="0" stop-opacity=".83"/>
      <stop offset="1"/>
    </linearGradient>
    <linearGradient id="b" x1="15.01" y1="26.39" x2="110.49" y2="26.39" xlink:href="#a"/>
  </defs>
  <path d="M305.5 1.48c-6.66 109.41 8.55 200.94-1.31 302.46-133.63.01-199.56.67-302.26 0C9.25 229.95-4.58 17.21 5.06 5.63c0 0 292.64-2.44 300.44-4.14Z" fill="#007dc3"/>
  <path d="M304 1.48c-1.25 20.71-1.77 41.45-1.75 62.19s.51 39.57 1.15 59.35 1.4 38.5 1.96 57.75.9 38.26.69 57.39-1.02 38.89-2.68 58.27c-.21 2.51-.44 5.01-.69 7.51l1.5-1.5c-23.76 0-47.52.03-71.28.07-20.16.03-40.31.08-60.47.13-18.1.04-36.21.08-54.31.1a15499.75 15499.75 0 0 1-108.81-.24c-2.46-.01-4.93-.03-7.39-.05l1.5 1.5c.83-8.38 1.26-16.8 1.58-25.21.39-10.4.55-20.8.62-31.21.08-11.84.03-23.67-.09-35.51-.12-12.53-.32-25.06-.55-37.58s-.5-25.3-.76-37.94-.51-24.29-.73-36.43c-.2-11.01-.37-22.03-.45-33.04-.07-9.26-.08-18.52.07-27.77.12-6.91.3-13.82.85-20.71.32-3.97.44-7.43 1.84-11.23.11-.3-.17.32.02-.05.05-.1.1-.21.15-.31.13-.25.44-.64.14-.26l-1.06.44c2.62-.02 5.24-.04 7.86-.07 7.14-.06 14.27-.12 21.41-.19 10.53-.1 21.06-.19 31.59-.29 12.92-.12 25.84-.25 38.77-.38 14.2-.14 28.41-.29 42.61-.45 14.35-.16 28.71-.32 43.06-.5 13.53-.17 27.06-.34 40.59-.53 11.57-.16 23.15-.34 34.72-.55 8.51-.15 17.03-.31 25.54-.54 4.43-.12 8.9-.14 13.32-.52.46-.04.94-.08 1.39-.17 1.89-.4 1.09-3.29-.8-2.89-.42.09.06 0 .02 0l-.55.06c-.53.05-1.06.08-1.6.11-1.78.1-3.56.17-5.34.23-5.99.21-11.98.34-17.98.47-8.63.18-17.26.33-25.88.47-10.64.17-21.27.33-31.91.47-11.91.16-23.83.31-35.74.46s-24.88.29-37.31.43c-12.37.14-24.73.27-37.1.39-11.54.12-23.09.23-34.63.34-9.98.1-19.97.19-29.95.28l-23.42.21c-4.89.04-9.77.09-14.66.13-1.13 0-2.25.02-3.38.03s-1.87.47-2.39 1.52c-.82 1.64-1.16 3.53-1.45 5.33-.48 2.94-.75 5.91-.97 8.88-.63 8.7-.76 17.46-.83 26.21-.1 11.85 0 23.7.17 35.55.19 13.99.47 27.98.76 41.98.31 15.02.64 30.04.92 45.07s.53 29.85.67 44.78c.13 13.89.17 27.78 0 41.66-.14 11.72-.42 23.45-1.09 35.16-.26 4.56-.59 9.12-1.04 13.67-.08.81.75 1.5 1.5 1.5 18.9.12 37.8.21 56.7.26 17.65.04 35.31.05 52.96.04 17.96-.01 35.92-.05 53.88-.09 19.82-.04 39.63-.09 59.45-.13 23.23-.04 46.46-.07 69.69-.08h9.59c.87 0 1.42-.69 1.5-1.5 1.88-19.44 2.89-38.95 3.26-58.47s.12-38.29-.38-57.43-1.26-38.42-1.92-57.63-1.24-39.38-1.37-59.08.2-41.19 1.26-61.76c.14-2.7.29-5.39.45-8.08.12-1.93-2.88-1.92-3 0Z"/>
  <path d="M307.18 192.48s.71 73.39-2.99 111.46c-133.63.01-199.56.67-302.26 0 2.56-25.85 1.83-113.87 1.83-113.87l303.42 2.41Z" fill="#00842d"/>
  <path d="M305.68 192.48c.09 8.99.07 17.99.02 26.98-.1 18.48-.39 36.97-1.16 55.44-.4 9.69-.92 19.38-1.85 29.04l1.5-1.5c-23.81 0-47.62.03-71.42.07-20.12.03-40.23.08-60.35.13-18.14.04-36.29.08-54.43.1a15446.975 15446.975 0 0 1-108.62-.24c-2.48-.01-4.96-.03-7.44-.05l1.5 1.5c1.62-16.48 1.54-33.2 1.73-49.75.21-17.66.23-35.33.16-52.99-.01-3.71-.03-7.42-.06-11.12l-1.5 1.5 8.15.06 22.07.18c10.87.09 21.75.17 32.62.26 13.31.11 26.63.21 39.94.32 14.53.12 29.06.23 43.59.35 14.67.12 29.33.23 44 .35l41.16.33 34.55.27c8.34.07 16.68.13 25.02.2 3.93.03 7.87.14 11.81.09h.51c1.93.02 1.93-2.98 0-3l-8.15-.06-22.07-.18c-10.87-.09-21.75-.17-32.62-.26-13.31-.11-26.63-.21-39.94-.32-14.53-.12-29.06-.23-43.59-.35-14.67-.12-29.33-.23-44-.35l-41.16-.33-34.55-.27c-8.34-.07-16.68-.13-25.02-.2-3.93-.03-7.87-.14-11.81-.09h-.51c-.81 0-1.51.69-1.5 1.5.09 10.43.1 20.86.09 31.29-.02 19.39-.12 38.78-.67 58.17-.23 8.13-.46 16.3-1.25 24.41-.08.81.75 1.5 1.5 1.5 18.94.12 37.88.21 56.82.26 17.62.04 35.24.05 52.87.04s36-.05 54-.09c19.79-.04 39.58-.09 59.36-.13 23.19-.04 46.38-.07 69.57-.08h9.64c.87 0 1.42-.69 1.5-1.5 1.74-17.98 2.23-36.09 2.62-54.14.34-15.95.46-31.9.42-47.86 0-3.16-.02-6.31-.05-9.47-.02-1.93-3.02-1.93-3 0Z" fill="url(#a)"/>
  <path d="M136.25 95.49c-10.58.65-21.18 1.16-31.74 2.09-1.91.17-1.93 3.17 0 3 10.56-.93 21.16-1.44 31.74-2.09 1.92-.12 1.93-3.12 0-3ZM131.19 91.38c-8.8.48-17.94.6-26.56-1.5-1.88-.46-2.68 2.44-.8 2.89 8.88 2.16 18.29 2.1 27.36 1.61 1.92-.1 1.93-3.1 0-3ZM166.98 95.01c11.05-2.43 22.24-4.17 33.51-5.2 1.91-.17 1.93-3.18 0-3a279.726 279.726 0 0 0-34.3 5.31c-1.88.41-1.09 3.31.8 2.89ZM167.06 98.56c9.3-.31 18.61-.15 27.9.48 1.93.13 1.92-2.87 0-3-9.29-.63-18.6-.8-27.9-.48-1.93.06-1.93 3.06 0 3Z"/>
  <path d="M122.75 128.39c-1.27-11.42-2.01-22.9-2.22-34.38-.21-11.8.07-24.01-4.5-34.89 3.91 1.04 14.05 5.52 15.52 5.75 1.27.2 10.96-2.71 17.92-3.17 15.05-.99 23.39 2.15 23.92 2.18.62.03 1.21-.23 1.77-.49 3.51-1.59 12.43-5.5 15.95-7.1-1.21 4.33-6.58 17.13-7.18 18.42-1.68 3.68-.6 7.96.34 11.9 3.71 15.48 4.02 26.74-1.67 41.61" fill="#fff"/>
  <path d="M124.25 128.39c-1.06-9.54-1.75-19.13-2.07-28.72-.3-8.92.02-17.92-1.13-26.79-.63-4.86-1.7-9.62-3.58-14.16l-1.85 1.85c4.86 1.33 9.43 3.62 14.16 5.33 1.59.57 2.81.43 4.45.09 3.08-.64 6.13-1.39 9.22-1.96 7.01-1.29 14.34-1.36 21.41-.4 2.05.28 4.09.66 6.09 1.18 1.13.29 2.19.74 3.37.49 1.43-.31 2.84-1.16 4.17-1.75l4.59-2.04c2.92-1.29 5.85-2.58 8.76-3.9l-2.2-1.69c-.97 3.43-2.38 6.76-3.71 10.07a296.18 296.18 0 0 1-3.31 7.97c-2.45 5.65-.02 11.75 1.15 17.43s1.87 11.34 1.64 17.09c-.27 6.68-1.91 13.15-4.27 19.37-.69 1.81 2.21 2.59 2.89.8 2.1-5.54 3.61-11.26 4.18-17.17s.12-11.35-.81-16.95c-.51-3.07-1.19-6.11-1.91-9.13-.68-2.85-1.43-5.94-.64-8.85.32-1.18.9-2.32 1.38-3.44.67-1.6 1.33-3.2 1.98-4.8 1.54-3.8 3.2-7.63 4.32-11.59.39-1.36-1.07-2.21-2.2-1.69-5.04 2.28-10.12 4.47-15.16 6.74-.49.22-1.21.36-1.63.62-.3.18.2.07.12.05-.07-.02-.13-.03-.2-.05-.42-.14-.87-.24-1.3-.36-1.84-.48-3.7-.86-5.57-1.15-6.82-1.05-13.92-1.22-20.76-.26-3.3.47-6.56 1.19-9.81 1.92-1.14.26-2.29.53-3.44.74-.2.04-.41.08-.61.11-.1.01.12-.03-.18.01-.24.03-.13 0 .08.03-.13-.03-.27-.06-.4-.11-5.07-1.69-9.88-4.22-15.05-5.63-1-.27-2.3.75-1.85 1.85 3.32 8.01 4.06 16.66 4.29 25.25.24 9.16.32 18.29.93 27.44.36 5.4.85 10.8 1.44 16.18.21 1.9 3.21 1.92 3 0Z"/>
  <path d="M121.81 114.66c-10.27 18.19-12.71 39.62-14.69 49.54-3.09 15.48-24.18 34.95-1.62 74.55 16.27 28.56 80.84 20.67 91.73 8.74 19.34-21.19 19.55-58.38 6.24-80.68-5.8-9.71-8.51-44.34-17.68-50.95" fill="#fff"/>
  <path d="M120.51 113.9c-8.08 14.39-11.36 30.47-14.22 46.54-.76 4.27-1.94 8.18-3.67 12.16-2.02 4.63-4.18 9.2-5.8 13.99-1.91 5.65-3.06 11.57-3.12 17.55-.08 7.56 1.53 15.07 4.2 22.12 1.73 4.57 3.86 9.01 6.29 13.24 1.25 2.18 2.79 4.2 4.54 6 3.67 3.77 8.24 6.57 13.06 8.61 10.74 4.56 22.75 5.88 34.34 5.67 10.6-.2 21.59-1.57 31.61-5.21 3.4-1.24 6.87-2.75 9.63-5.15 2.18-1.9 3.96-4.43 5.58-6.8 2.07-3.02 3.82-6.24 5.28-9.59 6.02-13.86 7.32-29.6 4.67-44.42-1.25-6.98-3.45-13.84-6.77-20.12-1.11-2.1-2.3-4.05-3.1-6.3-.9-2.55-1.6-5.16-2.26-7.78-1.58-6.29-2.88-12.65-4.49-18.94-1.41-5.5-2.93-11.24-5.77-16.21-1.03-1.81-2.29-3.46-3.97-4.71-1.56-1.15-3.05 1.46-1.51 2.59 1.31.97 2.48 2.8 3.32 4.39 1.21 2.29 2.1 4.73 2.89 7.19 1.94 5.98 3.3 12.13 4.7 18.25 1.25 5.47 2.4 11.04 4.32 16.32.82 2.24 1.94 4.21 3.07 6.3 1.6 2.96 2.91 6.05 3.99 9.23 4.62 13.67 5.18 28.9 1.64 42.88-1.78 7.01-4.64 13.74-8.77 19.69-1.47 2.12-3.08 4.36-5.06 6.03-.43.36-.91.71-1.6 1.14s-1.45.86-2.2 1.24c-3.68 1.87-7.74 3.09-11.79 4.08-5.09 1.24-10.29 2.03-15.5 2.48-11.27.97-22.93.52-33.87-2.52-5.03-1.4-9.92-3.38-14.27-6.31s-7.63-6.83-10.16-11.49c-7.04-12.97-11.09-27.64-7.79-42.32 1.13-5.02 2.97-9.83 5.03-14.53 1.75-3.99 3.71-7.94 4.98-12.11.64-2.12.99-4.32 1.37-6.49.56-3.17 1.1-6.33 1.72-9.49 1.56-7.98 3.55-15.9 6.43-23.52 1.58-4.19 3.46-8.27 5.65-12.17.95-1.69-1.64-3.2-2.59-1.51Z"/>
  <path d="M134.73 164.81c7.98-14.41 13.24-28.44 20.58-43.2 5.58 16.14 13.21 28.09 17.88 43.44.19.64-14.19-.33-21.5 0l-16.96-.24ZM175.91 194.44c-5.66 8.5-16.51 41.95-18.59 45.5-1.96-2.51-16.62-34.68-21.07-45.5h39.66Z" fill="#352244"/>
  <path d="M175.03 115.93c3.57-.17 9.22.55 9.51.28.29-.28 1.81-10.55 1.21-11.08-.49-.43-43.77-.7-63.66.42 0 0 .68 7.54.36 10.7 3.99.97 8.16.34 12.28.26-6.4 12.77-22.29 45.78-22.29 47.98 0 1.25 12.21 1.22 12.88 0 7.89-14.39 13.94-32.7 21.89-47.91 8.11-.39 6.99.14 15.1-.25 7.22 15.31 20.47 46.85 21.04 47.24.62.43 9.75.61 12.08 0-8.19-18.63-19.86-45.37-20.39-47.63ZM204.69 171.49c-.45-.23-66.15.66-98.94.94 0 0-9.91 21.08-7.96 21 3.13 7.97 33.31 60.88 34.63 61.4 2.36.93 17.84 2.74 19.71 1.96 3.13-1.31-20.22-50.17-28.24-68.37 4.1-.17 62.14-.9 62.14-.9-8.17 20.64-17.9 49.64-24.36 68.81 3.19.91 18.36-4.46 20.51-6.16 6.87-5.43 21-47.75 28.06-61.99 0 0-4.93-16.38-5.56-16.7Z" fill="#d60008"/>
  <path d="M125.04 252.23c-9.19-2.91-14.18-8.48-15.06-9.41-1.81-1.92-4.46-5.5-4.28-8.13.38-5.65.03-12.08.25-16.35 1.63 5.08 19.09 33.9 19.09 33.9ZM192.06 247.06c3.38-6.93 10.81-25.83 14.41-32.87.58 2.1 1.07 14.78.76 15.67-1.95 5.61-9.28 14.64-15.17 17.2M128.12 119.78c-2.92 7.95-6.69 14.58-10.41 21.84-1.2-2.67-2.67-7.98-2.67-7.98.33-1.52 3.14-9.77 5.84-14.62l7.24.76ZM179.17 118.31h7.21c2.19 1.93 6.15 11.7 6.61 15.05.12.84-2.81 9.19-2.81 9.19-1.23-2.67-11.01-24.24-11.01-24.24Z" fill="#352244"/>
  <path d="M174.1 63.13s0 3.12.02 6.63c.03 9.08 6.66 29.02 5.6 29.47-.36.15-50.61 1.33-51.07.77-.32-.4 6.08-29.77 2.89-35.13 0 0 21.27-8.07 42.56-1.74Z" fill="#b73517"/>
  <path d="M172.6 63.13c0 2.86-.12 5.75.11 8.59s.78 5.82 1.38 8.69c1.15 5.47 2.71 10.85 3.89 16.31.09.41.17.81.25 1.22.03.16.06.31.08.47 0 0-.03-.13.01.15.08.61-.12.25.16-.15.14-.2.87-.82 1.18-.67-.02-.01-.09.01-.11 0-.74-.05-1.52.06-2.26.09-3.58.11-7.15.2-10.73.28-9.57.23-19.15.43-28.73.51-2.82.02-5.66.13-8.47-.04-.13 0-.26-.02-.39-.03-.35 0 .39.14.11.01.47.22 1.2 1.49 1.05 1.33-.02-.02.03-.13 0-.14-.01-.01.01-.18.02-.2.08-.17-.06.38 0 0 .24-1.51.51-3.01.77-4.51.88-5.05 1.71-10.1 2.32-15.19.53-4.44 1.23-9.31.31-13.74-.15-.7-.37-1.39-.73-2.01l-.9 2.2c2.64-1 5.42-1.69 8.18-2.29 6.48-1.42 13.15-2.06 19.78-1.74 4.68.22 9.3.98 13.8 2.29 1.86.54 2.65-2.35.8-2.89-13.05-3.81-27.36-3.04-40.33.76-1.01.3-2.03.61-3.02.98-.9.34-1.41 1.3-.9 2.2.22.39.09.03.24.55.11.39.2.79.27 1.19.1.6.16 1.77.18 2.61.04 2.5-.16 5.01-.41 7.5-.53 5.28-1.39 10.52-2.3 15.75-.3 1.71-.61 3.42-.88 5.14-.18 1.15-.52 2.63.96 3.09.7.22 1.59.15 2.31.16 1.45.03 2.9.03 4.35.02 9.7-.03 19.4-.25 29.09-.47 4.02-.09 8.03-.19 12.05-.31 1.68-.05 5.14.49 5.23-1.95.07-1.64-.54-3.45-.92-5.03-.68-2.83-1.42-5.65-2.1-8.49-.75-3.1-1.46-6.22-2.01-9.36s-.67-6.09-.68-9.22c0-1.23 0-2.46-.01-3.69 0-1.93-3.01-1.93-3 0Z"/>
  <path d="M148.74 256.99c13.32 20.14 48.65 6.18 59.75-7.52 3.7-4.56 5.8-12.41 3.9-19.01-.25-.88-1.32-10.9-1.73-9.13-2.99 12.9-7.39 19.72-16.89 26.27-8.13 5.6-20.75 4.3-30.12 7.36" fill="#fff"/>
  <path d="M147.45 257.75c2.86 4.27 6.88 7.42 11.71 9.16s10.13 1.98 15.18 1.39c10.46-1.22 20.82-5.57 29.14-12 4.18-3.23 7.71-7 9.59-12.03 1.21-3.26 1.78-6.88 1.46-10.35-.19-2.11-.77-4.16-1.06-6.26-.27-1.97-.48-3.96-.9-5.9-.14-.65-.3-1.37-.86-1.79-1-.76-2.15-.09-2.49.98-1 3.17-1.64 6.39-2.9 9.48a34.094 34.094 0 0 1-4.06 7.3c-3.38 4.6-8.44 8.99-13.85 10.93-6.53 2.34-13.59 2.4-20.35 3.68-1.62.31-3.22.69-4.79 1.2-1.83.59-1.05 3.48.8 2.89 6.2-1.98 12.79-2.13 19.15-3.32 3.1-.58 6.18-1.42 9.01-2.84 2.6-1.3 4.97-3.19 7.16-5.09 4.05-3.53 7.23-7.89 9.35-12.83 1.21-2.8 2.14-5.7 2.9-8.66.11-.41.64-1.64.49-2.02-.08-.21-2.78.63-2.62.18 0 .02-.01-.22-.02-.04 0 .11.08.28.11.39.18.8.31 1.61.44 2.42.28 1.82.49 3.66.77 5.48.14.9.42 1.77.57 2.67.27 1.6.28 3.26.14 4.88-.48 5.59-3.13 10.31-7.19 14.05-7.08 6.52-16.51 10.91-25.87 12.92s-19.44 1.46-26.16-5.54a21.32 21.32 0 0 1-2.27-2.83c-1.07-1.6-3.67-.1-2.59 1.51Z"/>
  <path d="M110.49 17.48c-.32 5.07-.63 10.14-.95 15.21-.04.62-.1 1.3-.55 1.75-.53.54-1.41.56-2.18.54-29.02-.62-58.03.77-87.05.15-1.44-.03-3.06-.14-3.98-1.2-.76-.88-.78-2.12-.76-3.26l.21-12.91 95.27-.28Z" fill="url(#b)"/>
  <path d="M110.12 17.48c-.25 4.09-.51 8.18-.76 12.27-.06.98-.1 1.97-.18 2.94-.07.85-.13 1.53-1.12 1.83-.39.12-.84.09-1.24.08-2.16 0-4.31-.08-6.47-.11-8.12-.1-16.25-.06-24.37.03-16.25.17-32.5.52-48.75.35-2.32-.02-4.64-.06-6.96-.11-.97-.02-1.99 0-2.93-.3-1.42-.46-1.88-1.63-1.94-3.02-.2-4.53.14-9.15.21-13.68l-.38.38c3.15 0 6.3-.02 9.45-.03 7.57-.02 15.13-.04 22.7-.07 9.2-.03 18.4-.05 27.61-.08 7.92-.02 15.84-.05 23.77-.07 2.62 0 5.25-.02 7.87-.02 1.18 0 2.54.19 3.71-.01h.17c.48 0 .48-.75 0-.75-3.15 0-6.3.02-9.45.03-7.57.02-15.13.04-22.7.07-9.2.03-18.4.05-27.61.08-7.92.02-15.84.05-23.77.07-2.62 0-5.25.02-7.87.02-1.19 0-2.53-.17-3.71.01h-.17c-.21 0-.37.17-.38.38-.07 4.43-.24 8.87-.21 13.29 0 1.33.2 2.7 1.33 3.55 1.2.91 2.86.88 4.29.91 8.95.19 17.91.18 26.86.1 17.91-.15 35.81-.59 53.72-.36 2.27.03 4.74.36 6.99.06 1.49-.2 1.98-1.23 2.09-2.63.42-5.06.63-10.14.95-15.21.03-.48-.72-.48-.75 0Z" fill="#b79b58"/>
  <text transform="translate(20.38 29.55)" fill="#d9be7d" font-family="Times-Roman, Times" font-size="10"><tspan x="0" y="0" letter-spacing=".04em">D</tspan><tspan x="7.66" y="0" letter-spacing="-.02em">A</tspan><tspan x="14.68" y="0" letter-spacing=".12em">V</tspan><tspan x="23.09" y="0" letter-spacing=".12em">I</tspan><tspan x="27.64" y="0" letter-spacing=".1em">D </tspan><tspan x="39.36" y="0" letter-spacing=".12em">M</tspan><tspan x="49.47" y="0" letter-spacing=".1em">E</tspan><tspan x="56.62" y="0" letter-spacing=".05em">O</tspan><tspan x="64.38" y="0" letter-spacing=".13em">W</tspan><tspan x="75.07" y="0" letter-spacing=".12em">I</tspan><tspan x="79.65" y="0" letter-spacing=".1em">E</tspan></text>
  <text transform="translate(117.71 29.55)" fill="#d9be7d" font-family="Times-Roman, Times" font-size="10"><tspan x="0" y="0" letter-spacing=".11em">E</tspan><tspan x="7.19" y="0" letter-spacing=".13em">A</tspan><tspan x="15.67" y="0" letter-spacing=".07em">R</tspan><tspan x="23.06" y="0" letter-spacing=".1em">T </tspan><tspan x="33.67" y="0" letter-spacing=".12em">H</tspan><tspan x="42.12" y="0" xml:space="preserve" letter-spacing=".1em">L  I  </tspan><tspan x="67.56" y="0" letter-spacing=".09em">N</tspan><tspan x="75.68" y="0" letter-spacing=".1em">G</tspan></text>
</svg>
