<svg xmlns="http://www.w3.org/2000/svg" viewBox="-500 -300 1933.34 1261.87">
  <path d="M219.19 5.34c-27.3-9.03-53.98-4.64-81.02-1.03-13.49 1.8-26.97 3.64-38.06 5.13 9.87 13.6 21.86 25.65 28.21 40.16 5.98 13.66 8.52 29.98 8.16 45.03-.82 34.71-2.48 69.61-7.3 103.95-3.79 27.03-12.51 53.51-42.04 65.6.15.99.3 1.98.46 2.97 5.39 0 10.8.33 16.16-.05 31.58-2.25 63.15-4.52 94.71-7.05 40.83-3.27 67.82-27.27 85.18-61.6 16.51-32.67 22.81-67.9 13.76-104.6-10.64-43.16-34.44-74.02-78.22-88.51Zm-.51 168.42c-6.36 25.47-17.95 48.31-38.36 67.16V20.39c4.99 3.13 8.77 4.6 11.32 7.26 13.23 13.79 23.55 29.11 28.82 48.02 9.2 33.04 6.34 65.59-1.77 98.09ZM468.8 268.67c29.8 1.7 59.6 3.4 90.59 5.16-17.86 37.87-6.17 76.16-4.43 114.3 7.93-1.15 13.44-12.12 24.42-51.94 5.62-20.38 4.8-40.56-8.95-58.78.56-.97 1.13-1.94 1.69-2.91l71.41 7.64c-.93 14.97-3.07 28.58-2.33 42.03 1.29 23.22 4.27 46.35 6.86 69.49.29 2.61 2.63 4.98 4.02 7.47 1.82-2.07 4.34-3.85 5.35-6.27 8.72-20.69 18.26-41.13 25.31-62.39 4.75-14.34 5.8-29.86-9.2-42.55 19.37-5.79 36.99-11.06 54.18-16.2-43.84 78.79-68.45 166.78-111.49 247.32-9.31-53.31-14.46-106.95-18.26-160.77-1.42-.26-2.83-.51-4.25-.77-19.19 49.82-38.38 99.65-57.57 149.47-.68.14-1.36.27-2.04.41-1.82-13.96-3.76-27.92-5.45-41.9-5.66-46.6-10.92-93.26-16.97-139.81-3.14-24.12-19.31-39.67-38.07-53-1.78-1.26-3.58-2.48-5.37-3.73.19-.76.37-1.51.56-2.27Z"/>
  <path d="M284.21 524.27c-33.92.88-67.85 6.54-103.13 7.46 16.67-44.59-.18-94.04-5.75-137.09-8.88 2.05-14.76 8.48-23.46 54.63-4.45 23.62-2.3 38.46 6.79 65.1-.55 1.15-26.72 4.89-53.42 4.26-.35-17.05-1.43-29.18-3.54-44.35-3.65-26.19-18.77-64.59-23.88-90.56-.58-2.93-5.23 12.81-7.5 23.32-4.11 11.08-6.56 129.81 11.63 142.78-21.41 8.39-62.97 4.6-81.96 12.05 40.13-125.57 38-171.86 79.99-274.63 23.87 56.58 29.2 73.7 49.24 135.86 1.63.16 3.26.31 4.88.47 17.05-58.26 24.55-111.73 41.6-169.99.76-.22 10.88-7.91 11.64-8.13 3.38 15.65 7.08 41.14 10.32 56.82 10.8 52.27 16.37 102.25 27.61 154.42 5.83 27.04 30.4 45.52 52.9 58.85 2.13 1.26 4.29 2.48 6.43 3.72-.14.87-.28 4.14-.42 5.01ZM707.17 347.08c20.43-2.16 40.21-4.24 61.12-6.45-14.15 62.75-26.38 123.53-26.59 187.65-29.63 1.16-60.65 2.38-94.19 3.7 5.78-5.45 10.05-9.23 14.04-13.29 31.32-31.84 45.52-67.7 56.87-109.28 3.33-12.2 5.06-21.31.94-38.54-4.56-9.07-7.19-16.16-12.19-23.8ZM465.96 179.36c23.92-16.1 33.56-65.57 17.26-89.35 17.32 3.66 33.5 7.08 51.13 10.8-2.08 2.71-3.2 5.19-5.12 6.51-12.3 8.46-18.86 20.67-24.41 34.11-11.39 27.63-23.86 54.81-35.4 82.38-5.76 13.76-10.39 27.99-15.66 41.96-.63 1.66-1.39 5.16-4.26 9.34-2.36-9.47-5.29-18.46-6.35-25.51-4.09-27.26-7.67-54.59-11.67-81.86-3.14-21.36-6.25-42.74-10.1-63.98-2.8-15.45-12.19-27.08-24.14-39.23 27.74 2.88 55.47 5.76 85.05 8.83-31.16 21.07-19.94 51.55-19.99 79.22-.02 8.73 2.31 17.46 3.65 26.78ZM555.59 261.15c-26.41-2.6-51.83-5.11-79.14-7.8 56.57-45.38 79.09-102.08 67.97-171.14 10.66 0 22 .04 33.35-.02 6.27-.03 8.75 3.12 7.56 9.04-3.96 19.67-8.41 39.25-11.98 59-4.26 23.54-7.84 47.2-11.63 70.82-1.99 12.43-3.81 24.89-6.12 40.1ZM377.81 514.33c3.8-19.51 7.65-39.28 11.65-59.84 16.59 7.78 37.3 8.94 56.84 3.5 19.13-5.32 36.95-15.35 56.32-23.74-1.02 3.7-1.84 7.64-3.21 11.38-5.63 15.41-11.04 30.91-17.44 46-1.42 3.35-6.54 7.38-9.89 7.32-33.06-.64-65.05 4.43-94.28 15.38ZM574 13.16c12.74-.32 24.18 11.61 24.48 25.53.31 14.08-11.26 27.12-24.23 27.33-12.82.2-24.63-10.9-24.88-23.38-.32-15.84 10.78-29.13 24.62-29.47ZM747.62 329.25c-14.54.04-22.45-7.48-22.57-21.45-.11-13.64 11.33-25.46 24.5-25.34 11.46.11 23.98 12.87 23.6 24.06-.43 12.67-11.69 22.69-25.53 22.73Z"/>
  <path d="M656.96 277.26c28.03-11.05 54.29-21.4 81.89-32.29-25.89-13.44-31.98-23.02-31.46-50.53.28-14.97 1.36-29.99 3.3-44.84 2.49-19.11 5.67-38.17 9.52-57.06 5.31-26.08 11.52-51.98 17.28-77.63L603.35 1.69c31.95 17.43 56.14 40.97 63.34 79.26-25.06 4.81-48.79 12.07-64.65 33.58-23.61 32.01-36.32 66.51-21.31 106.13 11.09 29.27 39.38 44.1 69.69 37.22 7.24-1.64 11.18-1.13 7.99 7.83-1.18 3.32-.94 7.14-1.44 11.55Zm-23-76.49c-7.65-21.42.46-41.29 8.93-60.35 4.01-9.02 11.22-16.76 17.75-24.43 2.12-2.49 6.68-2.9 10.13-4.26.84 3.28 2.46 6.57 2.38 9.82-.47 17.39-.79 34.83-2.25 52.15-1.69 20.01-4.52 39.92-7.14 62.29-17.4-7.57-24.66-20.85-29.79-35.23ZM904.4 474.3c-35.69 3.52-70.35-3.84-84.96-40.37-4.21-10.52-3.01-13.68 8.49-14.6 20.54-1.64 41.16-2.36 61.7-3.93 11.31-.87 22.56-2.69 34.69-4.18-1.04-6.6-1.33-10.99-2.44-15.15-7.45-27.94-15.76-55.34-42.73-71.81-30.77-18.78-64.44-10.68-84.55 14.14-27.63 34.1-38.25 73.97-26.12 117.78 5.76 20.82 17.21 39.58 34.64 50.83 38.81 25.03 71.46 24.98 102.37 5.44 12.8-8.1 22.4-30.59 27.85-45.74-10.95 2.96-19.81 6.69-28.95 7.6Zm-93.13-85.56c-.71-19.91 8-35.31 17.64-50.33 4.56-7.1 10.54-8.22 14.17.05 6.89 15.7 13.17 31.73 18.46 48.03 2.51 7.73-.55 12.94-10.68 13.9-9.71.92-15.65 2.22-23.52 2.76-16.15 1.11-16.16.92-16.07-14.42ZM351.42 443.83c-32.19 3.18-63.45-3.46-76.62-36.41-3.79-9.48-2.71-12.34 7.66-13.17 18.53-1.48 37.12-2.13 55.65-3.54 10.2-.78 20.34-2.42 31.29-3.77-.93-5.96-1.2-9.91-2.2-13.67-6.72-25.2-14.21-49.91-38.54-64.77-27.75-16.94-58.12-9.63-76.26 12.76-24.92 30.75-34.49 66.71-23.56 106.22 5.19 18.77 16.02 34.97 31.25 45.84 30.38 21.69 59.32 21.35 88.73 5.96 16.81-8.79 23.8-28.65 28.72-42.31-9.87 2.67-17.86 6.04-26.11 6.85Zm-83.99-77.17c-.64-17.95 7.22-31.85 15.91-45.39 4.11-6.41 9.5-7.42 12.78.05 6.22 14.16 11.87 28.62 16.65 43.32 2.26 6.97-.46 12.39-9.63 12.53-7.08.11-14.12 2-21.21 2.49-14.56 1-14.57.83-14.5-13ZM398.67 234.3c1.63-7.28 3.63-14.49 5.14-21.79 6.25-30.42 16.14-60.46 12.05-92.12-1.77-13.67-4.63-27.62-17.88-35.63-28.58-17.3-74.35-.13-86.11 34.28 12.75-8.34 23.82-14.44 37.3-8.69 11.39 4.86 11.95 8.21 2.37 15.83-36.27 28.84-57.69 64.21-52.1 112.66 2.75 23.82 18.35 40.38 41.98 38.14 10.2-.97 20.38-7.21 29.5-12.81 6.48-3.98 9.21-3.75 16.26.58 8.56 5.25 14.21 7.36 21.46 10.87.88-1.11 2.68-4.83 3.57-5.94-13.79-9.84-16.86-20.52-13.52-35.37Zm-45.13-9.2c-11.88-6.7-15.17-18.49-15.41-30.24-.45-22.04 10.45-39.67 25.79-54.75.38-.37 1.5.02 4.74.18.91 27.03 2.13 53.73 2.49 80.43.1 7.31-9.1 9.18-17.61 4.38Z"/>
  <path d="M463.29 288.25c-16.22-5.99-33.08-9.63-48.57-4.35-30.78 10.48-58.81 39.2-55.93 77.94-.06 24.47 1.45 29.27 15.85 50.62 24.83 36.78 71.61 41.52 104.11 10.92 15.04-14.16 24.14-31.03 26.21-51.51 3.3-32.62-3.93-69.68-41.67-83.62Zm-40.15 130.58c-25.55-17.43-18.39-98.58 9.3-122.97 26.91 27.31 24.46 96.44-9.3 122.97Z"/>
</svg>
