<svg xmlns="http://www.w3.org/2000/svg" viewBox="0 0 282.72 476.49">
  <defs>
    <linearGradient id="a" x1="31.86" y1="409.34" x2="247.78" y2="409.34" gradientUnits="userSpaceOnUse">
      <stop offset="0" stop-opacity=".83"/>
      <stop offset="1"/>
    </linearGradient>
  </defs>
  <path d="M44.73 81.22c39.22 6.99 108.12 7.1 148.16 5.42 14.86-.62 31.47-8.25 36.59-15.87-5.82-3.32-15.02 1.79-22.34 1.31C184.88 70.62 56.65 66 32.3 67.21c-.49.02-3.12-2.14-3.6-2.03-4.42 1.07-22.95 9.1 16.02 16.04Z"/>
  <path d="M44.27 82.9c11.23 1.99 22.61 3.17 33.98 4.05 13.13 1.02 26.3 1.6 39.47 1.95s26.61.44 39.91.33c11.52-.1 23.03-.35 34.54-.82 7.11-.29 14.11-1.8 20.73-4.4 5.66-2.23 11.42-5.15 15.75-9.52.86-.87 1.65-1.83 2.34-2.84.52-.76.16-1.96-.63-2.39-5.87-3.19-12.97-.07-19.03.85-2.9.44-5.83.11-8.74-.05-6.32-.34-12.64-.61-18.97-.88-8.88-.38-17.77-.72-26.65-1.05-10.29-.38-20.57-.73-30.86-1.06s-21.16-.66-31.74-.94c-9.61-.25-19.22-.48-28.83-.65-7.53-.13-15.07-.24-22.6-.22-2.63 0-5.25.03-7.88.1-.51.01-1.03.03-1.54.05-.23 0-.45.02-.68.03-.09 0-.2 0-.3.01-.05 0-.16-.02-.19 0 0 0 .53.25.42.09-.21-.31-.97-.61-1.29-.82-.47-.31-.93-.65-1.43-.9-.75-.38-1.41-.44-2.21-.22-3.22.85-7.77 2.85-8.93 6.27-.78 2.32.58 4.4 2.37 5.77 3.4 2.63 7.95 3.86 12.04 4.92 3.61.94 7.27 1.68 10.94 2.34 2.19.39 3.14-2.97.93-3.36-6.11-1.1-12.47-2.26-18.22-4.69-.74-.31-1.46-.66-2.16-1.05-.32-.18-.63-.36-.93-.56-.13-.08-.25-.17-.37-.26-.33-.23.06.07-.15-.11s-.41-.35-.6-.55c-.08-.08-.15-.17-.23-.25-.27-.28.15.26-.05-.06-.1-.16-.19-.32-.28-.49.21.38.06.03-.04-.22-.06-.15 0 .4 0-.12s.05.34.02-.1c0-.07.05-.19.08-.26.09-.26-.19.37-.06.13.09-.16.19-.33.28-.49.24-.43-.16.14.09-.12.15-.15.28-.31.43-.45s.3-.27.46-.4c.25-.22-.14.1-.05.03.11-.08.21-.16.32-.23.72-.49 1.48-.92 2.27-1.3.19-.09.39-.18.58-.27.23-.11.14-.06-.06.02.12-.05.23-.1.35-.14.35-.14.71-.27 1.07-.39.29-.1.63-.15.91-.28.04-.02.18-.02.21-.06-.13.15-.76-.16-.69 0 .13.3 1.15.73 1.45.93.81.54 1.6 1.11 2.61 1.13.46 0 .93-.04 1.4-.06 2.37-.08 4.74-.11 7.12-.13 7.04-.04 14.07.04 21.11.16 9.17.15 18.33.35 27.5.58 10.22.26 20.43.56 30.65.87 10.19.32 20.38.66 30.56 1.03 9.08.33 18.16.67 27.24 1.04 6.89.28 13.78.57 20.67.91 2.3.11 4.59.23 6.89.37 1.72.1 3.4.17 5.12-.03 3.29-.39 6.49-1.27 9.75-1.87 2.65-.49 5.69-.89 8.16.45l-.63-2.39c-3.07 4.48-8.48 7.41-13.3 9.61-6.24 2.85-13.11 4.74-19.95 5.28-5.4.43-10.85.46-16.26.6-5.91.16-11.82.27-17.73.33-12.9.14-25.81.09-38.71-.2s-26.03-.8-39.02-1.7c-11.43-.8-22.88-1.85-34.2-3.66-1.21-.19-2.41-.4-3.61-.61-2.19-.39-3.14 2.97-.93 3.36Z"/>
  <path d="M64.4 195.18a752.722 752.722 0 0 1-4.51-69.91c-.73-40.71-4.66-30.89-15.16-48.94 9.17-5.2 34.89-12.69 37.55-10.31 1.94 1.74 22.29-5.51 36.43-6.44 30.61-2.01 47.56 4.38 48.64 4.43 1.25.06 2.45-.47 3.6-.99 7.15-3.24 25.28 12.81 32.43 9.57-2.45 8.8-13.39 10.83-14.59 13.46-3.42 7.49-1.23 16.19.69 24.2 7.54 31.47 8.17 54.37-3.39 84.59" fill="#fff"/>
  <path d="M67.45 195.18c-1.42-12.76-2.52-25.56-3.28-38.37s-.99-25.22-1.38-37.84c-.23-7.4-.41-15.05-2.1-22.3-.92-3.92-2.62-7.32-5.08-10.48-1.21-1.55-2.49-3.05-3.71-4.59-.36-.46.37.5.13.17-.11-.16-.24-.31-.35-.47-.17-.23-.35-.46-.52-.7-.41-.56-.8-1.12-1.19-1.69-.91-1.34-1.77-2.72-2.59-4.13l-1.09 4.17c1-.56 2.03-1.07 3.07-1.56.58-.27 1.17-.52 1.75-.78.1-.04.54-.22.01 0l.51-.21c.35-.14.69-.28 1.04-.42 2.92-1.16 5.88-2.2 8.87-3.15s6.04-1.84 9.11-2.6c1.36-.34 2.73-.65 4.11-.93.6-.12 1.2-.23 1.8-.34.26-.04.52-.09.78-.13l.43-.06c.42-.08-.78.08-.09.01.87-.09 1.74-.19 2.61-.18.18 0 .36.02.55.02.68.01-.55-.09-.23-.03.11.02.24.04.34.08.47.21-.78-.41-.32-.12-.53-.33-.96-.51.19.14.27.16.59.29.88.39.47.15.97.21 1.45.23 1.01.05 2.03-.12 3.02-.27 6.19-.92 12.24-2.79 18.35-4.13 1.86-.41 3.73-.8 5.61-1.14 1.65-.31 3.73-.65 5.05-.81 4.32-.53 8.71-.66 13.06-.72s8.35.04 12.51.31a139.805 139.805 0 0 1 7.63.7l1.23.15c.2.03.4.05.6.08-.32-.04-.16-.02.07.01 4.4.64 8.77 1.46 13.07 2.6.94.25 1.86.55 2.81.77.83.19 1.6.21 2.45.1 1.26-.17 2.36-.63 3.52-1.14.86-.37-.44.03.19-.06.24-.04.5-.11.74-.17-.53.12-.45.03-.02.04.25 0 .5 0 .75.02.37.01.65.1.08-.01.31.06.62.11.93.18 1.2.27 2.36.67 3.5 1.12.16.06.85.35.6.24-.28-.12.49.21.62.27.72.32 1.43.65 2.14.99 1.34.65 2.67 1.32 4 1.99 2.74 1.39 5.48 2.76 8.33 3.92 2.26.92 4.71 1.72 7.18 1.71 1.37 0 2.55-.32 3.79-.85l-4.48-3.44c-.12.4-.24.81-.4 1.2.15-.36-.24.48-.33.65-.19.35-.39.68-.61 1.01-.11.16-.22.32-.34.48.33-.45-.23.26-.24.28-.5.57-1.04 1.11-1.61 1.6-.14.12-.88.72-.47.4-.36.28-.74.54-1.12.8-2.12 1.43-4.49 2.43-6.62 3.83-1.01.66-1.94 1.4-2.54 2.47-1.29 2.27-1.78 5.11-2.06 7.67-.53 4.88.38 9.86 1.44 14.61 2.16 9.64 4.48 19.19 5.58 29.03 1 8.96 1.13 18.01.1 26.97-1.22 10.69-4.23 21.19-8.06 31.24-.59 1.54.65 3.34 2.13 3.75 1.72.47 3.16-.58 3.75-2.13 3.48-9.13 6.22-18.56 7.67-28.24 1.35-9.05 1.65-18.17.92-27.29-.8-9.96-2.64-19.81-4.93-29.53-1.1-4.66-2.4-9.35-2.62-14.16-.1-2.22.01-4.42.58-6.57.14-.55.31-1.09.5-1.62.07-.19.38-.64.36-.85-.03-.33-.47.67-.09.16.34-.45.3-.14 0-.03.5-.19 1-.64 1.47-.9.58-.32 1.16-.63 1.74-.95 1.44-.78 2.86-1.58 4.2-2.52 3.48-2.46 6.26-5.61 7.47-9.76.34-1.16-.14-2.49-1.09-3.21-1.07-.8-2.2-.75-3.39-.24.91-.39.19-.09-.04-.04-.15.03-.81.08-.27.06.57-.02-.18 0-.31 0-.29 0-.57-.02-.85-.03-.75-.04.45.12-.09 0-.28-.07-.56-.11-.84-.17-.6-.14-1.18-.31-1.76-.5s-1.17-.41-1.75-.64c-.18-.07-.89-.37-.36-.14-.37-.16-.74-.32-1.11-.49-1.33-.6-2.64-1.25-3.95-1.9-5.06-2.54-10.35-5.79-16.07-6.46-1.13-.13-2.25-.1-3.37.15-.72.16-1.37.51-2.05.78-.34.14-.69.27-1.05.34-.84.16-.71-.31.12.16-.53-.3-1.43-.38-2.02-.54-3.81-1.05-7.67-1.88-11.57-2.51-7.14-1.15-14.36-1.75-21.58-1.86-8.44-.13-16.85.3-25.15 1.88-6.81 1.3-13.48 3.16-20.26 4.59-.58.12-1.16.24-1.75.35-.24.04-.49.09-.73.13l-.39.06c-.65.11.53-.04.17-.02-.39.02-.77.09-1.17.09-.16 0-.34-.03-.5 0-.34.05.84.2.32.04.14.04.67.36.96.6-.24-.19-.49-.43-.76-.58-.4-.23-.85-.4-1.29-.52-.85-.24-1.82-.26-2.7-.24-5.35.17-10.78 1.76-15.88 3.25-5.96 1.74-11.89 3.77-17.54 6.37-1.04.48-2.07.99-3.07 1.56-1.44.81-1.92 2.77-1.09 4.17 2.39 4.1 5.25 7.8 8.25 11.46.24.29.47.59.71.88.39.48.03.05-.06-.09.13.18.27.35.4.53.45.62.88 1.25 1.26 1.91.23.4 1.21 1.73 1.09 2.17 0-.02-.29-.74-.15-.35.04.11.09.22.13.33.08.2.15.41.22.61.17.49.32.98.47 1.47.31 1.1.56 2.21.77 3.34.12.62.22 1.25.31 1.87.03.2.19 1.39.08.56l.15 1.22c.47 4.03.69 8.1.85 12.15.49 12.22.58 24.44 1.24 36.65a758.22 758.22 0 0 0 3.52 42.59c.18 1.64 1.27 3.05 3.05 3.05 1.51 0 3.23-1.4 3.05-3.05Z"/>
  <path d="M62.49 167.26c-20.89 36.98-25.84 80.56-29.87 100.72-6.29 31.48-49.16 71.06-3.29 151.57 33.09 58.08 164.38 42.02 186.51 17.76 39.32-43.09 39.75-118.69 12.69-164.04-11.78-19.74-17.3-90.16-35.96-103.6" fill="#fff"/>
  <path d="M59.85 165.72c-9.07 16.11-15.41 33.65-20.08 51.5-3.7 14.15-6.24 28.54-8.79 42.93-.78 4.41-1.54 8.81-2.9 13.09-.64 2-1.36 3.96-2.13 5.91-.4 1-.8 2-1.22 3-.06.14-.11.27-.17.4 0 0 .23-.54.09-.22-.1.24-.2.48-.3.71-.23.55-.47 1.1-.71 1.65-4.08 9.36-8.45 18.6-11.77 28.28-3.92 11.41-6.3 23.36-6.52 35.44-.28 15.37 2.9 30.66 8.26 45.02 3.51 9.4 7.87 18.48 12.81 27.2 2.59 4.58 5.77 8.83 9.43 12.6 7.42 7.64 16.67 13.34 26.42 17.49 10.74 4.57 22.06 7.49 33.58 9.26 12.07 1.85 24.28 2.57 36.48 2.34 11.75-.22 23.48-1.31 35.07-3.25 9.77-1.63 19.49-3.88 28.82-7.24 7.04-2.53 14.24-5.64 19.93-10.6 1.61-1.4 3-3.05 4.37-4.67 2.51-2.97 4.86-6.07 7.05-9.27 4.21-6.17 7.78-12.77 10.74-19.63 6.16-14.27 9.79-29.43 11.28-44.89s.75-30.74-2.02-45.83c-2.61-14.23-7.17-28.2-14.04-40.96-1.22-2.26-2.62-4.42-3.73-6.73-.22-.45-.42-.9-.62-1.35-.05-.11-.36-.83-.17-.39.17.4-.2-.48-.25-.62-.42-1.05-.82-2.11-1.19-3.18-1.81-5.13-3.22-10.4-4.54-15.67-3.18-12.64-5.8-25.42-9.02-38.06-2.87-11.26-5.97-23-11.72-33.2-2.11-3.74-4.7-7.21-8.19-9.75-1.33-.97-3.4-.23-4.17 1.09-.9 1.54-.24 3.2 1.09 4.17.51.37-.05-.05 0 0 .16.13.32.26.47.39.37.32.72.65 1.06.99.68.69 1.31 1.43 1.91 2.19-.36-.46-.13-.17.08.12.14.2.29.4.43.6.33.47.65.95.95 1.44.61.97 1.18 1.97 1.72 2.98s1.08 2.12 1.58 3.2c.27.59.53 1.18.79 1.77.05.12.1.24.16.36.18.43-.18-.43 0 0 .14.33.27.66.41.99 1.06 2.63 2.02 5.31 2.9 8.01 3.99 12.15 6.76 24.69 9.61 37.14 2.57 11.23 4.92 22.66 8.84 33.51.78 2.15 1.63 4.28 2.62 6.34 1.12 2.31 2.52 4.47 3.73 6.73 3.3 6.13 5.81 12.03 8.02 18.57 4.71 13.91 7.21 28.23 7.81 42.78.61 15-.75 29.8-4.41 44.3s-9.36 27.91-17.8 40.1c-3.01 4.34-6.25 8.9-10.36 12.37-.25.21-.51.41-.76.62-.52.42.5-.36.1-.08-.18.13-.36.27-.54.4-.63.45-1.27.89-1.92 1.3-1.41.9-2.87 1.72-4.35 2.48-.82.42-1.65.83-2.49 1.22-.41.19-.81.37-1.22.56-.24.11-.48.21-.72.31-.29.13-.81.34-.18.08-1.93.8-3.89 1.55-5.86 2.24-4.38 1.53-8.85 2.81-13.36 3.92-5.03 1.24-10.12 2.25-15.24 3.09-1.36.22-2.72.43-4.08.63l-1.93.27c.62-.08-.29.04-.44.06-.42.05-.84.11-1.26.16-2.79.35-5.58.64-8.38.89-11.76 1.04-23.6 1.24-35.38.47-11.66-.76-22.4-2.31-33.91-5.49-2.71-.75-5.4-1.58-8.06-2.51-1.31-.45-2.6-.93-3.89-1.43-.6-.23-1.19-.47-1.78-.71-.17-.07-.86-.36-.64-.27a38.175 38.175 0 0 1-.88-.38c-4.8-2.1-9.45-4.57-13.81-7.48-1.07-.71-2.11-1.45-3.14-2.22-.24-.18-.48-.36-.71-.54.47.36-.13-.1-.28-.23-.5-.39-.99-.79-1.47-1.2a63.462 63.462 0 0 1-5.47-5.16c-.85-.91-1.68-1.84-2.47-2.8-.37-.45-.73-.9-1.09-1.36.43.55-.2-.26-.28-.37l-.59-.8c-1.85-2.58-3.4-5.32-4.92-8.1-8.3-15.16-14.82-31.46-17.5-48.6-.98-6.26-1.38-13.22-1.13-19.85s.9-11.34 2.23-17.45c1.18-5.45 2.77-10.8 4.64-16.05.87-2.43 1.8-4.84 2.77-7.24.24-.59.48-1.19.73-1.78.11-.27.23-.55.34-.82.27-.65-.09.21.18-.44.49-1.15.98-2.29 1.48-3.43 3.62-8.27 7.7-16.45 10.34-25.1 1.32-4.31 2.03-8.78 2.81-13.21 1.14-6.45 2.25-12.91 3.51-19.34 3.21-16.44 7.32-32.74 13.28-48.41 3.17-8.34 6.92-16.46 11.3-24.24 1.93-3.43-3.34-6.5-5.27-3.08ZM122.94 136.23c-1.87-1.68-3.79-3.31-5.58-5.08-1.61-1.6-3.42-3.4-4.31-5.54l-1.57 2.77c6.28-1.95 13.06-2.22 19.59-2.46.35-.01.74 0 1.09-.03.78-.09.31.15.21-.19.01.05-.14.69-.24.94-.59 1.41-1.87 2.63-2.93 3.69-2.43 2.44-5.31 4.31-8.47 5.67-.93.4-1.24 1.66-1.03 2.54.97 4.21 1.24 8.49.89 12.79l2.25-2.25c-4.14.05-8.09.78-12.17 1.38-1.2.17-1.86 1.7-1.57 2.77.35 1.29 1.56 1.75 2.77 1.57 3.83-.56 7.11-1.16 10.98-1.21 1.29-.02 2.15-1.02 2.25-2.25.38-4.69 0-9.4-1.05-13.99l-1.03 2.54c3.98-1.71 7.6-4.3 10.48-7.54 1.29-1.45 2.58-3 3.12-4.9.57-2 .15-4.29-1.75-5.42-1.79-1.06-4.31-.59-6.3-.5s-3.95.22-5.91.4c-4.15.37-8.36.88-12.34 2.12-1.05.33-2.05 1.61-1.57 2.77 2.2 5.26 6.92 8.89 11.05 12.6 2.15 1.93 5.34-1.24 3.18-3.18Z"/>
  <path d="M122.99 153.55c3.48.2 6.95.57 10.43.77 1.18.07 2.3-1.08 2.25-2.25-.06-1.28-.99-2.18-2.25-2.25-3.48-.2-6.95-.57-10.43-.77-1.18-.07-2.3 1.08-2.25 2.25.06 1.28.99 2.18 2.25 2.25ZM150.71 130.69a493.79 493.79 0 0 1 61.54-9.55c1.21-.11 2.25-.96 2.25-2.25 0-1.13-1.03-2.36-2.25-2.25-16.39 1.5-32.71 3.78-48.88 6.86-4.63.88-9.25 1.84-13.86 2.85-2.83.62-1.63 4.96 1.2 4.34ZM151.01 137.19c17.05-.58 34.11-.28 51.13.89 2.89.2 2.88-4.3 0-4.5a498.363 498.363 0 0 0-51.13-.89c-2.89.1-2.9 4.6 0 4.5ZM94.54 132.55c-15.34.94-30.69 1.76-46.02 2.86-4.05.29-8.1.61-12.15.96-1.21.11-2.25.96-2.25 2.25 0 1.13 1.03 2.36 2.25 2.25 15.31-1.35 30.66-2.2 46-3.1 4.06-.24 8.11-.48 12.17-.73 2.88-.18 2.9-4.68 0-4.5ZM85.26 125.03c-8.2.45-16.43.6-24.65.27s-16.26-1.1-24.16-3.04c-2.81-.69-4.01 3.65-1.2 4.34 8.14 2 16.57 2.82 24.93 3.18 8.36.36 16.73.2 25.08-.25 2.88-.16 2.9-4.66 0-4.5Z"/>
  <path d="M83.89 113.74c.11 2.25 1.41 4.75 2.99 6.36 3.27 3.31 11.35 3.01 14.87.16s3.97-8.1 2.2-12.04c-.95-2.11-2.62-2.45-4.55-3.74-3.41-2.28-9.49-2.02-12.25 1-2.43 2.66-3.49 3.4-3.26 8.25Z" fill="#78c0e7"/>
  <path d="M81.64 113.74c.21 2.99 1.6 6.04 3.8 8.1 1.76 1.64 4.07 2.42 6.42 2.74 4.83.64 10.36-.57 13.28-4.74 1.51-2.16 2.15-5.01 2.01-7.62s-.94-5.71-3.11-7.47c-1-.81-2.16-1.35-3.24-2.03s-2.21-1.22-3.44-1.55c-2.5-.65-5.33-.62-7.78.24-2.59.91-4.45 2.72-6.09 4.86s-1.95 4.78-1.84 7.47c.12 2.89 4.62 2.9 4.5 0-.04-.88-.03-2.3.05-2.76.06-.34.17-.66.25-.99.14-.57-.2.35.06-.15.1-.19.2-.37.31-.55.08-.13.17-.25.26-.38-.3.42.08-.09.13-.15.23-.27.47-.53.71-.79.64-.69 1.15-1.31 1.79-1.7 1.48-.91 3.24-1.16 5.09-1.02s3.05.98 4.74 1.93c.74.41 1.42.73 1.89 1.24.56.6.83 1.52 1.04 2.46.39 1.72.29 3.61-.43 5.32-.65 1.54-1.62 2.45-3.09 3.13-1.22.57-3.13.89-4.72.9-1.1 0-1.76-.05-2.71-.27-1.13-.26-1.62-.44-2.5-1-.36-.23-.16-.1-.07-.03a5.91 5.91 0 0 1-.68-.64c-.37-.4-.67-.82-.96-1.28-.61-.99-1.09-2.11-1.17-3.27s-.97-2.25-2.25-2.25c-1.15 0-2.33 1.03-2.25 2.25Z"/>
  <path d="M142.8 109.17c-.4 3.44 1.13 6.91 4.1 8.68 2.64 1.58 5.99 2.19 8.74 1.55 6.11-1.42 8.94-7.2 7.54-12.24-1.01-3.63-4.87-4.93-5.73-5.2-4.93-1.6-8.84-1-12.64 2.73-1.24 1.22-1.78 2.54-2.01 4.48Z" fill="#7ea263"/>
  <path d="M140.55 109.17c-.27 2.65.43 5.45 1.99 7.62 1.66 2.3 4.09 3.77 6.8 4.54 5.21 1.49 10.86-.12 14.13-4.51 2.61-3.5 3.3-9.04.72-12.75-2.39-3.45-6.93-5.03-10.99-5.19-2.78-.11-5.54.75-7.79 2.37-1.32.95-2.58 2.04-3.48 3.41s-1.19 2.92-1.39 4.5c-.16 1.21 1.15 2.25 2.25 2.25 1.35 0 2.09-1.04 2.25-2.25.43-3.29 4.18-5.64 7.16-5.78 1.68-.08 3.3.27 4.89.82.21.07.41.15.61.23-.59-.23.28.14.42.22.68.35 1.16.68 1.54 1.03 2.11 1.95 1.99 5.28.74 7.6-1.53 2.83-4.77 4.48-8.23 4.06-2.06-.25-4.26-1.11-5.63-2.71s-1.69-3.51-1.49-5.47c.12-1.21-1.12-2.25-2.25-2.25-1.32 0-2.13 1.04-2.25 2.25Z"/>
  <path d="M92.43 113.11c.12 1.39 2 2.27 3.15 1.47s.97-2.87-.29-3.46c-1.57-.74-3.47 1.55-2.4 2.91s3.79-.14 3.14-1.74c-.29-.72-1.83-.27-1.19.17" fill="#fff"/>
  <path d="M90.18 113.11c.03.28.05.57.12.85s.19.52.3.77c.15.35.4.65.64.93s.56.51.85.72c.31.22.68.36 1.04.5.19.07.37.12.57.15.28.04.56.1.85.1s.57-.05.85-.09c.37-.05.72-.21 1.05-.37.09-.04.18-.09.26-.15.23-.16.46-.33.66-.52s.34-.41.5-.62c.06-.08.12-.16.16-.25.13-.24.23-.5.33-.75.04-.09.07-.19.09-.29.18-.76.17-1.49 0-2.24-.08-.36-.24-.72-.41-1.05s-.4-.62-.64-.88a4.669 4.669 0 0 0-.86-.68 4.261 4.261 0 0 0-1.05-.41c-.26-.05-.54-.09-.81-.1-.28 0-.57.05-.85.09-.36.05-.69.21-1.02.36-.26.12-.48.28-.7.46s-.44.34-.62.56c-.48.57-.88 1.18-1.05 1.92-.06.26-.09.54-.12.81 0 .09-.01.19 0 .28.02.35.06.74.19 1.08.22.57.43.95.84 1.41.05.06.11.11.18.17.2.17.41.35.65.48.3.16.63.31.97.37s.72.13 1.09.09c.74-.08 1.4-.24 2.06-.62s1.13-.87 1.52-1.47c.05-.07.08-.14.12-.22.11-.24.23-.48.3-.73s.1-.54.12-.8c0-.09.01-.17 0-.26-.07-1.06-.5-2.08-1.47-2.62-.48-.27-.96-.37-1.5-.4h-.2c-.26.02-.53.04-.78.12-.47.14-.91.37-1.26.72-.61.61-.86 1.51-.64 2.35.05.21.16.44.27.64.23.41.55.64.92.91.26.16.54.25.84.27.3.07.6.05.9-.04.52-.14 1.09-.55 1.34-1.03.28-.52.41-1.15.23-1.73l-.23-.54c-.2-.34-.47-.61-.81-.81l-.03-.02.46.35s-.05-.05-.08-.07l.35.46s-.02-.03-.03-.05l.23.54s-.01-.03-.02-.05l.08.6v-.03l-.08.6s0-.03.01-.05l-.23.54s.02-.03.03-.05l-.35.46.06-.06-.46.35s.09-.06.14-.08l-.54.23c.08-.03.16-.05.25-.07l-.6.08c.1-.01.2-.01.31 0l-.6-.08c.08.01.16.03.24.06l-.54-.23s.09.04.13.07l-.46-.35s.07.06.11.1l-.35-.46s.06.09.08.13l-.23-.54c.04.11.07.21.09.33l-.08-.6c.01.12.01.23 0 .35l.08-.6c-.02.12-.05.23-.09.34l.23-.54c-.06.14-.14.27-.24.4l.35-.46a1.8 1.8 0 0 1-.37.36l.46-.35c-.17.13-.36.24-.56.32l.54-.23c-.19.08-.38.13-.58.16l.6-.08c-.16.02-.31.02-.47 0l.6.08c-.13-.02-.25-.05-.38-.1l.54.23c-.11-.05-.21-.11-.31-.18l.46.35c-.09-.07-.17-.15-.24-.24l.35.46c-.08-.11-.15-.22-.2-.34l.23.54c-.05-.12-.08-.24-.1-.37l.08.6c-.02-.14-.01-.28 0-.41l-.08.6c.03-.18.07-.35.14-.52l-.23.54c.08-.18.18-.36.3-.52l-.35.46c.13-.17.28-.32.45-.46l-.46.35c.15-.11.31-.21.48-.28l-.54.23c.16-.07.32-.11.48-.14l-.6.08c.14-.02.28-.02.42 0l-.6-.08c.12.02.23.05.34.09l-.54-.23c.14.06.27.13.39.22l-.46-.35c.11.09.22.19.31.31l-.35-.46c.11.14.19.29.26.45l-.23-.54c.08.19.13.38.16.59l-.08-.6c.03.22.03.43 0 .65l.08-.6c-.03.19-.08.37-.15.54l.23-.54c-.07.15-.14.28-.24.41l.35-.46c-.08.1-.18.2-.28.28l.46-.35c-.11.08-.23.16-.36.21l.54-.23c-.15.06-.31.11-.48.13l.6-.08c-.17.02-.33.02-.5 0l.6.08c-.21-.03-.41-.08-.61-.17l.54.23c-.18-.08-.35-.18-.51-.3l.46.35c-.14-.11-.27-.24-.39-.38l.35.46c-.1-.13-.18-.27-.25-.43l.23.54c-.05-.13-.09-.26-.11-.4l.08.6v-.08c.01-.31-.05-.6-.19-.87-.09-.28-.25-.52-.47-.72-.39-.39-1.03-.68-1.59-.66s-1.19.22-1.59.66c-.38.41-.72 1.01-.66 1.59ZM148.31 110.78c-.29.87-.21 1.88.24 2.67s1.19 1.28 2.03 1.59c1.2.44 2.69.3 3.89-.02 1.3-.35 2.68-1.05 3.54-2.11.6-.75 1.01-1.53 1.14-2.5.14-1.03-.09-1.98-.52-2.92-.7-1.54-2.17-2.61-3.84-2.88s-3.67-.05-5.16.99c-1.72 1.21-2.75 3.15-2.52 5.29.06.55.2 1.06.47 1.54.19.34.44.65.7.94.46.5 1.03.86 1.65 1.12 1.28.54 2.78.53 4-.19 1.37-.81 2.08-2.31 2.22-3.85.11-1.24-.34-2.69-1.31-3.51-.68-.57-1.48-.92-2.38-.92-1.07 0-1.68.51-2.23 1.3-.67.94-1 2.15-.71 3.29.21.82.87 1.6 1.65 1.94.57.25 1.1.4 1.73.23.52-.14 1.09-.55 1.34-1.03.28-.52.41-1.15.23-1.73-.17-.52-.51-1.11-1.03-1.34-.11-.05-.21-.1-.3-.17l.46.35c-.06-.05-.11-.09-.16-.15l.35.46a.98.98 0 0 1-.13-.22l.23.54c-.02-.06-.04-.12-.05-.18l.08.6a1.71 1.71 0 0 1 0-.32l-.08.6c.03-.15.07-.3.13-.44l-.23.54c.12-.28.27-.54.46-.78l-.35.46s.04-.05.06-.07l-1.59.66c.13-.01.25 0 .38 0l-.6-.08c.09.02.18.04.27.08l-.54-.23c.11.05.2.1.3.17l-.46-.35c.09.07.17.15.25.24l-.35-.46c.1.14.19.28.25.44l-.23-.54c.07.17.11.34.14.53l-.08-.6c.03.25.03.5 0 .75l.08-.6c-.04.27-.11.52-.2.77l.23-.54c-.1.22-.21.43-.36.63l.35-.46c-.1.13-.21.24-.34.34l.46-.35c-.12.09-.25.17-.39.23l.54-.23c-.17.07-.33.12-.51.15l.6-.08c-.2.03-.41.03-.61 0l.6.08c-.24-.03-.46-.09-.68-.18l.54.23c-.22-.1-.43-.22-.63-.37l.46.35c-.17-.14-.33-.3-.47-.48l.35.46a2.98 2.98 0 0 1-.34-.6l.31 1.14c-.05-.38-.05-.77 0-1.15l-.08.6c.04-.29.12-.57.23-.85l-.23.54c.11-.25.25-.49.41-.71l-.35.46c.19-.24.41-.46.66-.65l-.46.35c.28-.21.59-.38.91-.52l-.54.23c.39-.16.79-.26 1.2-.32l-.6.08c.45-.06.9-.06 1.34 0l-.6-.08c.35.05.68.14 1 .27l-.54-.23c.25.11.48.24.7.4l-.46-.35c.15.12.28.25.4.4l-.35-.46c.2.26.35.55.48.85l-.23-.54c.1.25.18.5.22.77l-.08-.6c.03.22.03.44 0 .66l.08-.6c-.03.21-.08.4-.16.59l.23-.54c-.09.22-.21.42-.36.61l.35-.46c-.18.23-.4.44-.63.62l.46-.35c-.34.26-.72.47-1.12.64l.54-.23c-.51.21-1.05.36-1.61.44l.6-.08c-.42.05-.85.07-1.27.01l.6.08c-.24-.03-.47-.09-.69-.18l.54.23c-.12-.05-.22-.11-.33-.19l.46.35c-.07-.06-.14-.12-.2-.2l.35.46a.878.878 0 0 1-.12-.21l.23.54c-.03-.08-.05-.16-.06-.24l.08.6c-.01-.11 0-.21 0-.31l-.08.6c.02-.11.04-.21.08-.31.38-1.12-.43-2.51-1.57-2.77-1.25-.28-2.36.38-2.77 1.57ZM54.53 74.36c42.41 0 157.28-1.61 173.48-3.72-1.82-6.32-44.87-13.96-51.43-13.61-49.58 2.69-51.28-8.86-99.64 1.54-.79.17-31.54 4.52-32.34 4.64-27.24 4.03-32.44 11.15 9.94 11.15Z"/>
  <path d="M54.53 77.41c10.64 0 21.29-.08 31.93-.18 13.58-.12 27.15-.29 40.73-.49s28.01-.46 42.01-.76c11.93-.26 23.87-.56 35.8-.98 7.22-.26 14.49-.43 21.69-1.15.44-.04.89-.09 1.33-.15 1.86-.24 3.6-1.77 2.94-3.86-.84-2.69-3.56-4.22-5.96-5.32-3.53-1.62-7.25-2.8-10.98-3.84-8.56-2.39-17.34-4.15-26.12-5.5-3.2-.49-6.42-.98-9.66-1.16-1.89-.11-3.78.09-5.67.17-3.62.15-7.24.23-10.86.23-10.32 0-20.53-.92-30.77-2.05-8.89-.98-17.74-1.58-26.68-.98-6.23.42-12.44 1.29-18.58 2.37-3.96.7-7.86 1.65-11.84 2.23-7.51 1.1-15.03 2.16-22.54 3.22-6.41.91-12.86 1.72-19.15 3.29-2.93.73-6.09 1.55-8.69 3.14-2.3 1.4-4.01 3.96-2.42 6.6 1.44 2.38 4.87 3.08 7.38 3.56 5.04.95 10.21 1.25 15.33 1.44 3.6.14 7.2.18 10.81.18 3.93 0 3.93-6.1 0-6.1-6.39 0-12.8-.11-19.17-.7-1.08-.1-2.17-.22-3.24-.36.79.1-.61-.09-.83-.13-.42-.07-.84-.14-1.26-.22-.72-.14-1.43-.29-2.14-.48-.43-.12-1.32-.62-1.75-.57.47-.05.7.35.31.12-.09-.05-.19-.09-.28-.14-.12-.06-.27-.2-.4-.24-.14-.04.66.63.2.13-.2-.21-.21-.41.31.41-.18-.28-.11-.45.17.47-.17-.57.04.93.05.44 0 .58 0 .5-.3 1.1.3-.6.05.29-.22.23.03 0 .31-.31.34-.34.44-.39-.77.48-.09.08.19-.11.37-.24.56-.34.22-.12.44-.24.66-.35.25-.12 1.34-.54.31-.15 1.36-.5 2.71-.98 4.11-1.38 6.06-1.7 12.3-2.55 18.52-3.43 7.55-1.07 15.1-2.14 22.64-3.23 8.63-1.25 17.25-3.33 25.7-4.25 9.04-.98 18.06-.93 27.1-.05s18.02 2.05 27.1 2.41c6.47.26 12.95.22 19.42-.04 3.27-.13 6.27-.22 9.51.16.31.04.62.07.93.11.23.03 1.55.21.58.07.94.13 1.87.26 2.81.41 1.94.3 3.88.62 5.81.96 4.37.78 8.73 1.67 13.06 2.67 4.09.95 8.17 2.01 12.16 3.32.77.25 1.54.52 2.3.8.39.14.77.29 1.16.44.18.07.37.15.55.22.81.32-.33-.16.15.06 1.16.54 2.28 1.09 3.36 1.78.75.48-.39-.42.07.04.15.15.31.3.47.44.57.52-.37-.59-.08-.11.38.62-.24-.75-.08-.22l2.94-3.86c-6.46.83-13.06.92-19.56 1.17-11.46.44-22.92.74-34.38 1-13.88.32-27.76.57-41.64.79s-27.62.39-41.44.53c-11.1.11-22.2.2-33.3.22H54.6c-3.92 0-3.93 6.1 0 6.1Z"/>
  <path d="M74 67.24c-3.38-14.54.66-30.43 9.89-42.16s23.32-19.3 38.09-21.44c15.71-2.27 32.55 1.67 44.64 11.98 12.08 10.3 18.73 27.14 15.43 42.67"/>
  <path d="M76.94 66.43c-2.57-11.29-.41-23.39 5.31-33.45s14.89-17.66 25.43-22.2c20.72-8.93 47.54-5.31 62.39 12.69 7.71 9.34 11.47 22.24 9.03 34-.33 1.61.47 3.3 2.13 3.75 1.51.42 3.42-.51 3.75-2.13 2.55-12.29-.4-25.28-7.38-35.64-7.18-10.65-18.2-18-30.55-21.33C122.31-4.56 94 4.84 79.34 26.14c-8.32 12.08-11.55 27.57-8.29 41.91.37 1.61 2.21 2.55 3.75 2.13 1.65-.45 2.5-2.14 2.13-3.75ZM56.77 173.09c-9.51 24.35-19.02 48.7-28.54 73.05C13.74 283.24-.98 321.58.05 361.4c.15 5.67.67 11.52 3.4 16.49 2.73 4.96 7.37 8.53 11.27 12.63 17.45 18.34 18.63 49.86 2.59 69.46 88.43 8.22 178.27 9.64 265.41-7.56-16.42-17.76-21.13-43.33-22.09-67.5-.95-24.17 1.09-48.77-4.75-72.24-9.19-36.95-37.12-67.8-42.73-105.46-2.03-13.59-3.1-30.72-15.88-35.78-5.53-2.19-7.56 9.31-13.38 10.56-20.55 4.41-44.67 1.17-65.45 4.35s-44.17-1.62-61.68-13.23"/>
  <path d="M82.93 300.83c6.94 3.66 12.92 8.9 19.57 13.07s14.47 7.32 22.22 6.07c7.75-1.25 14.93-8.23 14.1-16.03-.54-5.06-4.08-9.22-7.59-12.9-9.36-9.8-19.69-18.67-30.78-26.45" fill="#fff"/>
  <path d="M81.39 303.47c7.98 4.25 14.66 10.53 22.6 14.85s17.46 6.89 26.06 3.21c7.15-3.06 12.8-10.34 11.71-18.39-.6-4.44-3.07-8.21-5.92-11.55s-6.17-6.55-9.41-9.64c-7.63-7.26-15.83-13.93-24.45-19.99-1.35-.95-3.39-.24-4.17 1.09-.89 1.52-.26 3.22 1.09 4.17a202.892 202.892 0 0 1 28.89 24.66c2.63 2.7 5.32 5.45 6.98 8.88 2.87 5.93-.64 11.71-6.02 14.64-6.37 3.47-14.46 1.4-20.72-1.84-8.36-4.32-15.27-10.94-23.57-15.36-1.45-.77-3.32-.37-4.17 1.09-.81 1.38-.36 3.4 1.09 4.17Z"/>
  <path d="M183.9 300.83c-6.94 3.66-12.92 8.9-19.57 13.07s-14.47 7.32-22.22 6.07c-7.75-1.25-14.93-8.23-14.1-16.03.54-5.06 4.08-9.22 7.59-12.9 9.36-9.8 19.69-18.67 30.78-26.45" fill="#fff"/>
  <path d="M182.36 298.2c-7.34 3.91-13.57 9.5-20.69 13.76-6.34 3.78-14.34 6.92-21.7 4.32-5.41-1.91-10.15-7.46-8.7-13.28.85-3.41 3.18-6.23 5.53-8.76 2.85-3.08 5.85-6.03 8.91-8.91 6.97-6.55 14.39-12.6 22.21-18.1 1.35-.95 1.98-2.67 1.09-4.17-.78-1.33-2.82-2.05-4.17-1.09-7.68 5.4-15.03 11.29-21.94 17.65-3.4 3.13-6.7 6.36-9.87 9.71-2.98 3.16-5.78 6.58-7.25 10.73-2.83 7.97 1.66 16.14 8.57 20.26 7.95 4.73 17.51 3.16 25.53-.52 9.25-4.24 16.61-11.56 25.55-16.33 1.45-.77 1.9-2.79 1.09-4.17-.86-1.47-2.71-1.87-4.17-1.09Z"/>
  <path d="M35.62 356.6c74.17 18.98 185.19 18.45 211.48.8 1.46 24.26-6.4 33.43-6.4 42.42 0 7.48-33.8 57.24-40.78 59.91-6.67 2.55-94.02 3.81-102.33.54-7.48-2.94-40.38-39.51-53-63.05 0 0-19.85-43.41-8.97-40.62Z" fill="#4c4637"/>
  <path d="M35.22 358.05c15.44 3.94 31.16 6.78 46.94 8.93 16.58 2.26 33.26 3.76 49.97 4.58 15.81.77 31.67.94 47.49.29 13.28-.54 26.59-1.61 39.69-3.89 8.96-1.56 18.42-3.54 26.46-8 .71-.39 1.4-.81 2.08-1.26l-2.26-1.3c.54 9.21-.26 18.28-2.77 27.16-1.43 5.06-3.59 10.12-3.63 15.45 0 .3-.01.1 0 0-.02.12-.04.25-.07.37a38 38 0 0 1-.28 1.01c-.27.84-.58 1.55-.83 2.13-.96 2.16-2.08 4.25-3.23 6.32-3.16 5.69-6.65 11.21-10.24 16.65-3.88 5.88-7.91 11.66-12.14 17.3-3.16 4.21-6.39 8.46-10.11 12.18-.59.59-1.19 1.15-1.83 1.68-.27.22.17-.11-.14.11-.12.09-.25.18-.38.26-.21.14-.43.26-.66.37.5-.24.01-.02-.15.02l-.65.15c-.23.05-.46.09-.7.12-.15.02-.3.05-.44.07-.16.02-.57.08-.18.03-3.99.52-8.04.73-12.06.94-12.94.67-25.9.91-38.85 1-12.5.08-25.03.1-37.52-.6-2.04-.11-4.08-.25-6.12-.46-1.5-.15-2.15-.18-3.73-.56-.2-.05-.39-.11-.59-.16-.09-.02-.18-.06-.27-.09.1.04.17.1-.13-.07-.69-.37-1.34-.78-1.97-1.24-1.74-1.26-3.69-3.02-5.41-4.64-5.47-5.14-10.55-10.7-15.47-16.36-5.88-6.76-11.53-13.74-16.82-20.98-2.52-3.44-4.96-6.95-7.27-10.54-1.79-2.78-3.64-5.62-5.1-8.6-1.38-2.8-2.5-5.68-3.66-8.51-2.25-5.47-4.38-11.02-6.11-16.68-.77-2.52-1.47-5.08-1.92-7.68-.17-.96-.27-1.7-.3-2.78-.01-.44 0-.88.03-1.32.03-.41-.04.08.03-.24.04-.19.08-.38.13-.57.03-.13.25-.59.05-.18.05-.1.1-.22.17-.31.05-.06.09-.11.14-.13.32-.21-.25.12.04-.02.35-.16-.08-.02.06-.03.16-.01.32 0 .48 0-.4-.02.09.02.24.06 1.88.46 2.68-2.44.8-2.89-10.3-2.51-1.94 19.74-.75 23.09 3.18 8.92 6.63 17.87 11.63 25.95 4.67 7.56 9.96 14.73 15.46 21.7 5.48 6.95 11.21 13.7 17.24 20.18 4.29 4.62 8.7 9.29 13.67 13.18 1.29 1.01 2.65 2.06 4.24 2.57 1.24.4 2.58.53 3.86.69 4.49.55 9.03.71 13.55.87 6.44.22 12.88.31 19.31.34 13.96.07 27.92-.12 41.87-.62 5.3-.19 10.59-.42 15.88-.82 2.68-.21 5.79-.18 8.35-1.11 1.43-.52 2.62-1.65 3.69-2.69 1.66-1.6 3.17-3.35 4.65-5.12 4.24-5.08 8.17-10.43 11.98-15.84 4.17-5.92 8.19-11.95 11.99-18.11 2.89-4.69 5.81-9.46 8.04-14.51.66-1.5 1.38-3.09 1.52-4.74.19-2.26.41-4.2 1.03-6.46.81-2.92 1.79-5.79 2.61-8.71 1.08-3.88 1.88-7.82 2.37-11.81.64-5.23.71-10.51.4-15.77-.06-1.06-1.25-1.97-2.26-1.3-6.98 4.65-15.77 6.62-23.95 8.24-12.49 2.47-25.24 3.62-37.95 4.28-15.43.8-30.9.79-46.33.19-16.57-.64-33.11-1.95-49.56-4-15.86-1.97-31.65-4.64-47.2-8.34-1.78-.42-3.55-.86-5.33-1.31-1.87-.48-2.67 2.41-.8 2.89Z" fill="url(#a)"/>
  <path d="M70.41 433.62c1.07 9.23 6.49 17.42 10.7 25.71 2.96 5.82 11.13 12.21 17.48 13.76 6.81 1.65 14.07-2.52 17.68-8.53 3.61-6 4.16-13.39 3.46-20.36-.11-1.14-.29-2.35-1.05-3.2-.78-.87-2-1.16-3.14-1.4-8.74-1.84-17.62-3.01-26.54-3.5-5.33-.29-11.56-.21-18.6-2.48" fill="#fff"/>
  <path d="M67.36 433.62c.67 5.42 2.49 10.43 4.87 15.33 1.14 2.35 2.38 4.65 3.62 6.94 1.14 2.11 2.14 4.34 3.43 6.36 2.57 4.05 6.29 7.38 10.28 9.99 3.76 2.46 8.23 4.47 12.82 4.23 10.4-.54 17.87-9.38 19.86-19.07.54-2.6.8-5.28.81-7.94s.06-5.52-.7-7.98c-.95-3.08-3.52-4.33-6.46-4.94s-5.74-1.12-8.63-1.57c-6.4-1-12.85-1.69-19.32-1.99-5.69-.26-11.23-.58-16.71-2.31-3.75-1.18-5.36 4.7-1.62 5.88 9.31 2.94 19.27 2.31 28.88 3.36 5.22.57 10.4 1.4 15.54 2.47.6.12 2.17.21 2.55.75-.11-.15 0 .31 0 .35.04.47.15.98.2 1.55.19 2.25.24 4.51.1 6.77-.27 4.28-1.38 8.58-3.83 12.15-2 2.92-5.22 5.22-8.63 6.1s-6.69-.12-9.84-1.89c-3.45-1.93-6.64-4.51-9.09-7.63-1.16-1.48-2.24-3.74-3.23-5.6-1.26-2.37-2.56-4.71-3.78-7.1-2.27-4.45-4.39-9.19-5.01-14.2-.2-1.63-1.26-3.05-3.05-3.05-1.49 0-3.25 1.4-3.05 3.05Z"/>
  <path d="M223.59 432.24c-10.98 10.11-18.81 19.3-23.02 27.59-2.96 5.82-7.24 11.71-13.59 13.25-6.81 1.65-14.07-2.52-17.68-8.53-3.61-6-4.16-13.39-3.46-20.36.11-1.14.29-2.35 1.05-3.2.78-.87 2-1.16 3.14-1.4 8.74-1.84 17.62-3.01 26.54-3.5 5.33-.29 16.64-1.05 27.02-3.85" fill="#fff"/>
  <path d="M221.43 430.08c-7.64 7.05-15.07 14.64-20.73 23.41-2.3 3.58-3.96 7.66-6.58 10.97-1.33 1.68-2.86 3.2-4.62 4.27s-3.66 1.65-5.6 1.65c-4.02 0-7.87-2.25-10.62-5.45-2.89-3.37-4.24-8.26-4.57-12.73-.19-2.64-.2-5.4.15-8.03.07-.56.05-1.06.44-1.26 1.08-.56 2.7-.65 3.9-.89 5.79-1.14 11.63-1.97 17.51-2.49 5.01-.44 10.04-.6 15.04-1.13 6.27-.65 12.53-1.62 18.62-3.25 3.79-1.01 2.18-6.9-1.62-5.88-5.57 1.49-11.27 2.43-17 3.03-4.76.5-9.54.67-14.31 1.06-6.5.54-12.98 1.44-19.38 2.67-3.06.59-6.55 1.01-8.26 4-1.38 2.42-1.26 5.85-1.3 8.55-.07 5.76.92 11.65 3.72 16.74 2.6 4.73 6.97 8.44 12.07 10.19s10.53.98 14.89-1.95 7.55-7.53 9.99-12.24c5.41-10.46 13.94-19.04 22.54-26.97 2.89-2.67-1.43-6.97-4.31-4.31Z"/>
</svg>
