<svg xmlns="http://www.w3.org/2000/svg" xmlns:xlink="http://www.w3.org/1999/xlink" viewBox="0 0 239.04 506.52">
  <defs>
    <linearGradient id="a" x1="35.06" y1="403.29" x2="235.55" y2="403.29" gradientUnits="userSpaceOnUse">
      <stop offset="0" stop-opacity=".83"/>
      <stop offset="1"/>
    </linearGradient>
    <linearGradient id="b" x1="72.51" y1="206.01" x2="128.82" y2="206.01" xlink:href="#a"/>
    <linearGradient id="c" x1="145.57" y1="205.28" x2="194.81" y2="205.28" xlink:href="#a"/>
    <linearGradient id="d" x1="124.13" y1="197.95" x2="134.93" y2="197.95" xlink:href="#a"/>
    <linearGradient id="e" x1="123.56" y1="197.89" x2="135.5" y2="197.89" xlink:href="#a"/>
    <linearGradient id="f" x1="132.76" y1="232.28" x2="162.19" y2="232.28" xlink:href="#a"/>
    <linearGradient id="g" x1="132.16" y1="232.32" x2="162.79" y2="232.32" xlink:href="#a"/>
  </defs>
  <path d="M74.79 152.43c-25.45 36.29-30.57 84.52-34.42 103.76-6 30.04-13.6 49.28 3.12 136.11 3.89 20.18 13.18 41.18 16.96 53.35 14.78 47.71 25.62 36.3 29.12 34.23 9.3-5.47-.76-51.59 3.77-63.7 7.34-19.64 28.06-19.64 39.98-20.47 18.27-1.28 31.48 1.13 40.35 19.59 4.22 8.78-3.58 75.61 23.62 56.67 5.86-4.08 24.74-56.64 26-63.67 10.06-55.96 11.77-70.47 6.58-126.21-2.03-21.85-4.22-81.32-35.73-127.87" fill="#fff"/>
  <path d="M72.85 151.3c-12.54 17.97-20.43 38.83-25.83 59.95-3.86 15.08-5.99 30.45-9.08 45.68-1.89 9.32-4.04 18.57-5.31 28-1.65 12.27-1.85 24.65-1.16 37 1.14 20.28 4.26 40.45 7.88 60.42 1.18 6.51 2.33 13.03 3.99 19.43 1.56 6.04 3.45 11.98 5.48 17.88 3.48 10.1 7.29 20.07 10.61 30.23 2.88 8.83 6.11 18 11.26 25.8 2.39 3.61 5.54 7.51 9.89 8.76 5.21 1.49 11.6-2.23 13.53-7.07 2.3-5.76 1.91-12.78 1.74-18.85-.23-7.99-.94-15.96-1.31-23.94-.16-3.49-.28-6.99-.15-10.48.1-2.64.18-4.68 1.04-7.14 2.81-8.05 9.49-13.58 17.46-16.11 6.9-2.19 14.16-2.48 21.33-2.94 8.17-.52 17.06-.57 24.45 3.48 3.57 1.96 6.61 4.78 8.98 8.09 1.47 2.06 2.7 4.25 3.85 6.5.57 1.11 0-.3.28.66.09.31.18.61.25.93.08.37.15.74.21 1.11.03.21.06.41.1.62.04.3-.04-.35.03.23.12 1.01.21 2.02.29 3.03.19 2.55.29 5.1.4 7.65.24 6.04.44 12.09.96 18.12s1.17 11.82 2.94 17.44c1.29 4.11 3.37 8.75 7.43 10.79 4.61 2.32 9.85.28 13.79-2.47 3.49-2.43 5.36-7.3 7.11-11.01 3.09-6.56 5.81-13.29 8.44-20.05s5.26-13.91 7.68-20.94c1.45-4.23 3.09-8.53 4.01-12.92 2.35-11.23 4.07-22.66 5.79-34 1.39-9.17 2.56-18.37 3.2-27.62 1.39-20.16-.02-40.35-1.81-60.43-1.34-15-2.41-30.01-4.65-44.91-3.08-20.51-8.1-40.79-16.18-59.93-4.31-10.19-9.48-20-15.66-29.17-1.61-2.39-5.51-.14-3.89 2.27 12.35 18.31 20.54 39.02 25.91 60.37 4.3 17.08 6.75 34.53 8.31 52.05s3.39 35.73 3.92 53.66-.91 35.72-3.62 53.47c-1.69 11.05-3.35 22.21-5.67 33.15-.93 4.4-2.58 8.72-4.04 12.97-4.65 13.52-9.6 27.09-15.73 40.03-1.07 2.26-2.18 4.52-3.48 6.66-.24.4-.49.8-.76 1.19-.1.15-.21.3-.31.44-.29.41.27-.28-.12.15-.19.21-.39.42-.59.62-.42.44.4-.26.01 0-.36.24-.72.49-1.09.72-1.04.65-2.28 1.32-3.12 1.62-.49.18-.99.34-1.5.46-.25.06-.51.11-.76.15.54-.08-.28.02-.41.02-.43 0-.86 0-1.29-.04.57.06-.64-.18-.92-.26-.49-.15.22.13-.13-.04-.19-.09-.38-.19-.57-.3s-.37-.23-.55-.35c-.45-.29.03.05-.2-.15-.34-.3-.67-.61-.98-.96-.14-.15-.27-.31-.4-.47.12.15-.05-.06-.25-.36a21.55 21.55 0 0 1-1.54-2.79c-.19-.4-.1-.21-.2-.45s-.19-.48-.28-.72c-.23-.61-.44-1.23-.63-1.86-.39-1.26-.71-2.54-1-3.83-1.25-5.7-1.73-11.42-2.09-17.3s-.48-11.49-.78-17.23c-.18-3.59-.11-7.72-1.45-11.11-3.12-7.92-9.58-15.17-17.43-18.56-8-3.46-16.91-3.4-25.45-2.82-7.11.48-14.31.82-21.16 2.96-8.23 2.57-15.32 7.79-19.2 15.62-2.87 5.79-2.95 11.98-2.79 18.33.2 7.85.9 15.68 1.28 23.52.32 6.5.83 13.65-.64 19.86-.29 1.22-.57 2.07-.97 2.81-.11.21-.24.41-.37.61-.22.35-.12.17-.1.14-.14.16-.29.31-.44.45-.37.35.3-.18-.22.14-.62.39-1.22.82-1.85 1.2-.41.25-.82.46-1.24.68-.63.33.43-.1-.2.08-.25.07-.49.17-.75.24s-.53.11-.79.16c.74-.15-.03 0-.35 0-.28 0-.55-.02-.83-.04.69.04-.17-.04-.51-.13-.21-.06-.97-.33-.71-.22.2.08-.64-.32-.89-.46-.35-.2-.67-.42-1-.65-.42-.29.15.13-.16-.12l-.63-.54c-1.96-1.77-3.26-3.6-4.65-5.84-5.17-8.35-8.33-17.92-11.25-27.23-3.07-9.8-7.01-19.31-10.28-29.03-2-5.94-3.83-11.93-5.3-18.02s-2.59-12.61-3.72-18.94c-1.97-11-3.74-22.04-5.11-33.12-1.87-15.08-3.1-30.32-2.45-45.53.44-10.21 1.81-19.48 3.85-29.49.92-4.49 1.9-8.97 2.81-13.46 1.29-6.42 2.29-12.89 3.45-19.33 3.47-19.17 8.04-38.24 15.53-56.28 4.12-9.92 9.2-19.47 15.35-28.28 1.66-2.38-2.24-4.63-3.89-2.27Z"/>
  <path d="M79.12 169.25a677.122 677.122 0 0 1-4.06-63.01c-.39-21.63.13-44-8.25-63.94 7.16 1.91 25.75 10.12 28.44 10.53 2.32.36 20.09-4.96 32.84-5.8 27.59-1.82 42.86 3.95 43.85 3.99 1.13.05 2.21-.43 3.24-.89 6.44-2.92 22.79-10.09 29.23-13.01-2.21 7.93-12.07 31.39-13.15 33.76-3.08 6.75-1.1 14.6.62 21.81 6.79 28.36 7.37 49.01-3.05 76.25" fill="#fff"/>
  <path d="M81.37 169.25c-1.93-17.41-3.2-34.9-3.79-52.41-.55-16.33.05-32.79-2.03-49.03-1.14-8.95-3.1-17.77-6.58-26.12l-2.77 2.77c8.91 2.41 17.29 6.63 25.95 9.76 1.1.4 2.25.87 3.44.87 1.59 0 3.25-.45 4.8-.78 5.54-1.17 11.04-2.51 16.6-3.54 12.81-2.36 26.15-2.47 39.06-.78 3.73.49 7.53 1.2 11.22 2.12 1.99.5 4.01 1.39 6.08 1.02 2.38-.43 4.81-1.91 7.02-2.9 2.46-1.1 4.92-2.19 7.38-3.28 5.02-2.22 10.03-4.43 15.04-6.67.91-.41 1.82-.81 2.72-1.22l-3.31-2.54c-1.79 6.37-4.42 12.55-6.88 18.69a869.89 869.89 0 0 1-3.91 9.55l-.75 1.8c-.25.6.11-.26-.04.09l-.18.42c-.11.25-.22.51-.32.76-.27.63-.54 1.25-.82 1.88-2.23 5.09-2.22 10.39-1.32 15.8.95 5.68 2.57 11.24 3.7 16.89 2.03 10.16 3.24 20.49 2.77 30.85-.55 12.09-3.54 23.84-7.83 35.11-.43 1.14.48 2.47 1.57 2.77 1.27.35 2.33-.43 2.77-1.57 3.89-10.22 6.68-20.81 7.68-31.72s.15-20.75-1.57-30.98c-.93-5.53-2.17-11-3.46-16.46-1.23-5.17-2.57-10.79-1.21-16.07.57-2.23 1.67-4.36 2.56-6.48 1.23-2.93 2.44-5.86 3.64-8.8 2.84-6.99 5.9-14.04 7.95-21.32.57-2.04-1.6-3.31-3.31-2.54-9.26 4.19-18.59 8.22-27.86 12.39-1.09.49-2.15.84-3.27 1.2-.57.19.45.16.21.05-.09-.04-.2-.05-.3-.08-.79-.23-1.58-.44-2.37-.65a98.13 98.13 0 0 0-10.17-2.11c-12.58-1.95-25.69-2.26-38.3-.45-6.03.87-11.98 2.2-17.92 3.53-2.1.47-4.2.97-6.32 1.35-.17.03-.35.06-.53.09-.09.02-.62.09-.24.04.32-.04-.39.03-.56.04-.56.05-.02 0 .05.04-.15-.1-.46-.12-.64-.17-3.81-1.13-7.5-2.81-11.18-4.28-4.61-1.84-9.22-3.72-13.94-5.29-.84-.28-1.68-.54-2.53-.77-1.49-.4-3.46 1.12-2.77 2.77 6.12 14.68 7.46 30.61 7.88 46.35.22 8.21.23 16.43.47 24.64.25 8.71.68 17.42 1.27 26.12.66 9.77 1.54 19.52 2.62 29.24.13 1.21.94 2.25 2.25 2.25 1.11 0 2.38-1.03 2.25-2.25Z"/>
  <path d="M132.27 113.13c-1.87-1.68-3.79-3.31-5.58-5.08-1.61-1.6-3.42-3.4-4.31-5.54l-1.57 2.77c6.28-1.95 13.06-2.22 19.59-2.46.35-.01.74 0 1.09-.03.78-.09.31.15.21-.19.01.05-.14.69-.24.94-.59 1.41-1.87 2.63-2.93 3.69-2.43 2.44-5.31 4.31-8.47 5.67-.93.4-1.24 1.66-1.03 2.54.97 4.21 1.24 8.49.89 12.79l2.25-2.25c-3.4.12-6.3 1.96-9 3.87-2.5 1.76-5.07 4-8.17 4.51-1.2.2-1.87 1.68-1.57 2.77.35 1.27 1.56 1.77 2.77 1.57 3.14-.52 5.83-2.53 8.36-4.33 2.2-1.57 4.8-3.79 7.62-3.88 1.29-.04 2.15-1 2.25-2.25.38-4.69 0-9.4-1.05-13.99l-1.03 2.54c3.98-1.71 7.6-4.3 10.48-7.54 1.29-1.45 2.58-3 3.12-4.9.57-2 .15-4.29-1.75-5.42-1.79-1.06-4.31-.59-6.3-.5s-3.95.22-5.91.4c-4.15.37-8.36.88-12.34 2.12-1.05.33-2.05 1.61-1.57 2.77 2.2 5.26 6.92 8.89 11.05 12.6 2.15 1.93 5.34-1.24 3.18-3.18Z"/>
  <path d="M132.32 130.45c.46.03-.48-.12-.05-.01l.42.09c.29.08.57.18.85.29-.56-.21-.08-.03.04.03.15.07.3.15.44.22.31.16.6.34.9.52 1.32.81 2.55 1.75 3.79 2.67 2.39 1.78 4.95 3.73 8.04 3.96 1.18.09 2.3-1.1 2.25-2.25-.06-1.29-.99-2.16-2.25-2.25-.46-.03.48.12.05.01l-.42-.09c-.29-.08-.57-.18-.85-.29.56.21.08.03-.04-.03-.15-.07-.3-.15-.44-.22-.31-.16-.6-.34-.9-.52-1.32-.81-2.55-1.75-3.79-2.67-2.39-1.78-4.95-3.73-8.04-3.96-1.18-.09-2.3 1.1-2.25 2.25.06 1.29.99 2.16 2.25 2.25ZM160.04 107.59a493.79 493.79 0 0 1 61.54-9.55c1.21-.11 2.25-.96 2.25-2.25 0-1.13-1.03-2.36-2.25-2.25-16.39 1.5-32.71 3.78-48.88 6.86-4.63.88-9.25 1.84-13.86 2.85-2.83.62-1.63 4.96 1.2 4.34ZM160.34 114.09c17.05-.58 34.11-.28 51.13.89 2.89.2 2.88-4.3 0-4.5a498.363 498.363 0 0 0-51.13-.89c-2.89.1-2.9 4.6 0 4.5ZM103.87 109.45c-15.34.94-30.69 1.76-46.02 2.86-4.05.29-8.1.61-12.15.96-1.21.11-2.25.96-2.25 2.25 0 1.13 1.03 2.36 2.25 2.25 15.31-1.35 30.66-2.2 46-3.1 4.06-.24 8.11-.48 12.17-.73 2.88-.18 2.9-4.68 0-4.5ZM94.59 101.93c-8.2.45-16.43.6-24.65.27s-16.26-1.1-24.16-3.04c-2.81-.69-4.01 3.65-1.2 4.34 8.14 2 16.57 2.82 24.93 3.18 8.36.36 16.73.2 25.08-.25 2.88-.16 2.9-4.66 0-4.5Z"/>
  <path d="M93.22 90.64c.11 2.25 1.41 4.75 2.99 6.36 3.27 3.31 11.35 3.01 14.87.16s3.97-8.1 2.2-12.04c-.95-2.11-2.62-3.45-4.55-4.74-3.41-2.28-9.49-2.02-12.25 1-2.43 2.66-3.49 4.4-3.26 9.25Z" fill="#78c0e7"/>
  <path d="M90.97 90.64c.21 2.99 1.6 6.04 3.8 8.1 1.76 1.64 4.07 2.42 6.42 2.74 4.83.64 10.36-.57 13.28-4.74 3.16-4.51 2.57-11.43-1.1-15.45s-9.31-5.79-14.46-3.97c-2.69.95-4.68 2.86-6.21 5.23s-1.84 5.29-1.72 8.1 4.62 2.9 4.5 0c-.04-.92-.04-2.35.05-2.97.06-.39.14-.78.25-1.16.06-.21.13-.42.21-.63-.15.39.13-.26.17-.34.36-.7.79-1.27 1.09-1.63.61-.73 1.14-1.34 1.79-1.74 1.48-.91 3.24-1.16 5.09-1.02.58.05 1.5.24 2.24.51.25.09.55.23.93.46.54.32 1.08.69 1.57 1.09 3.03 2.39 3.96 6.42 2.5 9.88-.65 1.54-1.62 2.45-3.09 3.13-1.22.57-3.13.89-4.72.9-1.1 0-1.76-.05-2.71-.27-1.13-.26-1.62-.44-2.5-1-.36-.23-.16-.1-.07-.03a5.91 5.91 0 0 1-.68-.64c-.37-.4-.67-.82-.96-1.28-.61-.99-1.09-2.11-1.17-3.27s-.97-2.25-2.25-2.25c-1.15 0-2.33 1.03-2.25 2.25Z"/>
  <path d="M152.13 86.07c-.4 3.44 1.13 6.91 4.1 8.68 2.64 1.58 5.99 2.19 8.74 1.55 6.11-1.42 8.94-7.2 7.54-12.24-1.01-3.63-4.87-5.93-5.73-6.2-4.93-1.6-8.84-1-12.64 2.73-1.24 1.22-1.78 3.54-2.01 5.48Z" fill="#7ea263"/>
  <path d="M149.88 86.07c-.27 2.65.43 5.45 1.99 7.62 1.72 2.38 4.29 3.9 7.12 4.63 5.21 1.35 10.79-.36 13.96-4.8 2.68-3.76 2.97-9.29.26-13.11s-6.68-5.68-11.25-5.63c-3.06.03-5.82 1.21-8.17 3.12-1.29 1.04-2.25 2.18-2.89 3.72-.59 1.43-.83 2.93-1.03 4.46-.15 1.21 1.14 2.25 2.25 2.25 1.34 0 2.1-1.04 2.25-2.25.23-1.86.71-3.38 2.09-4.58 1.26-1.09 2.9-1.93 4.38-2.15 1.92-.28 3.57.26 5.4.71-.71-.17-.15-.05.11.09s.51.3.76.47c.52.35.92.68 1.52 1.3 2.24 2.3 2.5 5.53 1.21 8.06-1.51 2.97-4.76 4.7-8.32 4.28-2.02-.24-4.17-1.07-5.56-2.6s-1.79-3.58-1.59-5.58c.12-1.21-1.12-2.25-2.25-2.25-1.32 0-2.13 1.04-2.25 2.25Z"/>
  <path d="M101.76 90.01c.12 1.39 2 2.27 3.15 1.47s.97-2.87-.29-3.46c-1.57-.74-3.47 1.55-2.4 2.91s3.79-.14 3.14-1.74c-.29-.72-1.83-.27-1.19.17" fill="#fff"/>
  <path d="M99.51 90.01c.03.28.05.57.12.85s.19.52.3.77c.15.35.4.65.64.93s.56.51.85.72c.31.22.68.36 1.04.5.19.07.37.12.57.15.28.04.56.1.85.1s.57-.05.85-.09c.37-.05.72-.21 1.05-.37.09-.04.18-.09.26-.15.23-.16.46-.33.66-.52s.34-.41.5-.62c.06-.08.12-.16.16-.25.13-.24.23-.5.33-.75.04-.09.07-.19.09-.29.18-.76.17-1.49 0-2.24-.08-.36-.24-.72-.41-1.05s-.4-.62-.64-.88a4.669 4.669 0 0 0-.86-.68 4.261 4.261 0 0 0-1.05-.41c-.26-.05-.54-.09-.81-.1-.28 0-.57.05-.85.09-.36.05-.69.21-1.02.36-.26.12-.48.28-.7.46s-.44.34-.62.56c-.48.57-.88 1.18-1.05 1.92-.06.26-.09.54-.12.81 0 .09-.01.19 0 .28.02.35.06.74.19 1.08.22.57.43.95.84 1.41.05.06.11.11.18.17.2.17.41.35.65.48.3.16.63.31.97.37s.72.13 1.09.09c.74-.08 1.4-.24 2.06-.62s1.13-.87 1.52-1.47c.05-.07.08-.14.12-.22.11-.24.23-.48.3-.73s.1-.54.12-.8c0-.09.01-.17 0-.26-.07-1.06-.5-2.08-1.47-2.62-.48-.27-.96-.37-1.5-.4h-.2c-.26.02-.53.04-.78.12-.47.14-.91.37-1.26.72-.61.61-.86 1.51-.64 2.35.05.21.16.44.27.64.23.41.55.64.92.91.26.16.54.25.84.27.3.07.6.05.9-.04.52-.14 1.09-.55 1.34-1.03.28-.52.41-1.15.23-1.73l-.23-.54c-.2-.34-.47-.61-.81-.81l-.03-.02.46.35s-.05-.05-.08-.07l.35.46s-.02-.03-.03-.05l.23.54s-.01-.03-.02-.05l.08.6v-.03l-.08.6s0-.03.01-.05l-.23.54s.02-.03.03-.05l-.35.46.06-.06-.46.35s.09-.06.14-.08l-.54.23c.08-.03.16-.05.25-.07l-.6.08c.1-.01.2-.01.31 0l-.6-.08c.08.01.16.03.24.06l-.54-.23s.09.04.13.07l-.46-.35s.07.06.11.1l-.35-.46s.06.09.08.13l-.23-.54c.04.11.07.21.09.33l-.08-.6c.01.12.01.23 0 .35l.08-.6c-.02.12-.05.23-.09.34l.23-.54c-.06.14-.14.27-.24.4l.35-.46a1.8 1.8 0 0 1-.37.36l.46-.35c-.17.13-.36.24-.56.32l.54-.23c-.19.08-.38.13-.58.16l.6-.08c-.16.02-.31.02-.47 0l.6.08c-.13-.02-.25-.05-.38-.1l.54.23c-.11-.05-.21-.11-.31-.18l.46.35c-.09-.07-.17-.15-.24-.24l.35.46c-.08-.11-.15-.22-.2-.34l.23.54c-.05-.12-.08-.24-.1-.37l.08.6c-.02-.14-.01-.28 0-.41l-.08.6c.03-.18.07-.35.14-.52l-.23.54c.08-.18.18-.36.3-.52l-.35.46c.13-.17.28-.32.45-.46l-.46.35c.15-.11.31-.21.48-.28l-.54.23c.16-.07.32-.11.48-.14l-.6.08c.14-.02.28-.02.42 0l-.6-.08c.12.02.23.05.34.09l-.54-.23c.14.06.27.13.39.22l-.46-.35c.11.09.22.19.31.31l-.35-.46c.11.14.19.29.26.45l-.23-.54c.08.19.13.38.16.59l-.08-.6c.03.22.03.43 0 .65l.08-.6c-.03.19-.08.37-.15.54l.23-.54c-.07.15-.14.28-.24.41l.35-.46c-.08.1-.18.2-.28.28l.46-.35c-.11.08-.23.16-.36.21l.54-.23c-.15.06-.31.11-.48.13l.6-.08c-.17.02-.33.02-.5 0l.6.08c-.21-.03-.41-.08-.61-.17l.54.23c-.18-.08-.35-.18-.51-.3l.46.35c-.14-.11-.27-.24-.39-.38l.35.46c-.1-.13-.18-.27-.25-.43l.23.54c-.05-.13-.09-.26-.11-.4l.08.6v-.08c.01-.31-.05-.6-.19-.87-.09-.28-.25-.52-.47-.72-.39-.39-1.03-.68-1.59-.66s-1.19.22-1.59.66c-.38.41-.72 1.01-.66 1.59ZM157.64 87.67c-.29.87-.21 1.88.24 2.67s1.19 1.28 2.03 1.59c1.2.44 2.69.3 3.89-.02 1.3-.35 2.68-1.05 3.54-2.11.6-.75 1.01-1.53 1.14-2.5.14-1.03-.09-1.98-.52-2.92-.7-1.54-2.17-2.61-3.84-2.88s-3.67-.05-5.16.99c-1.72 1.21-2.75 3.15-2.52 5.29.06.55.2 1.06.47 1.54.19.34.44.65.7.94.46.5 1.03.86 1.65 1.12 1.28.54 2.78.53 4-.19 1.37-.81 2.08-2.31 2.22-3.85.11-1.24-.34-2.69-1.31-3.51-.68-.57-1.48-.92-2.38-.92-1.07 0-1.68.51-2.23 1.3-.67.94-1 2.15-.71 3.29.21.82.87 1.6 1.65 1.94.57.25 1.1.4 1.73.23.52-.14 1.09-.55 1.34-1.03.28-.52.41-1.15.23-1.73-.17-.52-.51-1.11-1.03-1.34-.11-.05-.21-.1-.3-.17l.46.35c-.06-.05-.11-.09-.16-.15l.35.46a.98.98 0 0 1-.13-.22l.23.54c-.02-.06-.04-.12-.05-.18l.08.6a1.71 1.71 0 0 1 0-.32l-.08.6c.03-.15.07-.3.13-.44l-.23.54c.12-.28.27-.54.46-.78l-.35.46s.04-.05.06-.07l-1.59.66c.13-.01.25 0 .38 0l-.6-.08c.09.02.18.04.27.08l-.54-.23c.11.05.2.1.3.17l-.46-.35c.09.07.17.15.25.24l-.35-.46c.1.14.19.28.25.44l-.23-.54c.07.17.11.34.14.53l-.08-.6c.03.25.03.5 0 .75l.08-.6c-.04.27-.11.52-.2.77l.23-.54c-.1.22-.21.43-.36.63l.35-.46c-.1.13-.21.24-.34.34l.46-.35c-.12.09-.25.17-.39.23l.54-.23c-.17.07-.33.12-.51.15l.6-.08c-.2.03-.41.03-.61 0l.6.08c-.24-.03-.46-.09-.68-.18l.54.23c-.22-.1-.43-.22-.63-.37l.46.35c-.17-.14-.33-.3-.47-.48l.35.46a2.98 2.98 0 0 1-.34-.6l.31 1.14c-.05-.38-.05-.77 0-1.15l-.08.6c.04-.29.12-.57.23-.85l-.23.54c.11-.25.25-.49.41-.71l-.35.46c.19-.24.41-.46.66-.65l-.46.35c.28-.21.59-.38.91-.52l-.54.23c.39-.16.79-.26 1.2-.32l-.6.08c.45-.06.9-.06 1.34 0l-.6-.08c.35.05.68.14 1 .27l-.54-.23c.25.11.48.24.7.4l-.46-.35c.15.12.28.25.4.4l-.35-.46c.2.26.35.55.48.85l-.23-.54c.1.25.18.5.22.77l-.08-.6c.03.22.03.44 0 .66l.08-.6c-.03.21-.08.4-.16.59l.23-.54c-.09.22-.21.42-.36.61l.35-.46c-.18.23-.4.44-.63.62l.46-.35c-.34.26-.72.47-1.12.64l.54-.23c-.51.21-1.05.36-1.61.44l.6-.08c-.42.05-.85.07-1.27.01l.6.08c-.24-.03-.47-.09-.69-.18l.54.23c-.12-.05-.22-.11-.33-.19l.46.35c-.07-.06-.14-.12-.2-.2l.35.46a.878.878 0 0 1-.12-.21l.23.54c-.03-.08-.05-.16-.06-.24l.08.6c-.01-.11 0-.21 0-.31l-.08.6c.02-.11.04-.21.08-.31.38-1.12-.43-2.51-1.57-2.77-1.25-.28-2.36.38-2.77 1.57Z"/>
  <path d="M233.53 327.73c6.81 62.74-15.17 103.68-28.18 150.25-11.6 1.34-16.41.93-28.06.11-1.71-16.41-2.83-58.41-8.5-68.6-8.84-15.86-69.79-17.76-70.76 9.28-.82 23.02-1 58.47-2.18 60.28-1.16 1.79-21.73 6.25-29.16-3.48s-19.97-40.66-22.21-52.7c-8.06-43.29-6.15-60.07-8.62-97.97 0 0 187.57 6.22 197.67 2.83Z" fill="#ffcbc4"/>
  <path d="M231.28 327.73c2.33 21.66 1.35 43.46-2.92 64.82-3.73 18.65-9.73 36.7-15.73 54.71-3.32 9.98-6.62 19.98-9.46 30.12l2.17-1.65c-4.65.53-9.32.91-14.01.87s-9.37-.43-14.05-.76l2.25 2.25c-1.44-13.95-1.87-27.99-3.26-41.95-.68-6.8-1.42-13.67-2.97-20.33-.98-4.2-2.33-8.29-5.68-11.18-3.61-3.12-8.19-5-12.73-6.31-5.48-1.58-11.22-2.35-16.9-2.58-5.97-.24-12.01.17-17.87 1.37-5.22 1.07-10.5 2.83-14.94 5.83-4.07 2.76-7.41 6.59-8.74 11.4-.84 3.06-.73 6.32-.82 9.46-.13 4.27-.23 8.55-.33 12.82-.2 8.48-.35 16.96-.59 25.43-.09 3.26-.19 6.51-.35 9.77-.06 1.16-.12 2.32-.2 3.48-.03.47-.07.93-.12 1.39-.02.18-.04.35-.05.53-.04.36-.12.62 0 .08-.05.24-.1.5-.13.75-.07.57.17-.3.37-.51-.25.25.49-.21.16-.12-.11.03-.26.15-.37.21-.28.15-.38.15 0 0-.22.08-.44.17-.66.24-2.45.83-4.85 1.18-7.18 1.37-5.98.49-13.26.03-17.37-4.65-.35-.4-.47-.57-.89-1.17-.39-.56-.76-1.12-1.13-1.7-.8-1.26-1.55-2.55-2.27-3.86-1.74-3.14-3.32-6.37-4.84-9.62-3.3-7.11-6.26-14.4-8.87-21.8-1.1-3.13-2.14-6.28-3.02-9.48-1.01-3.65-1.63-7.38-2.28-11.11-1.64-9.41-3-18.87-3.95-28.38-1.61-16.14-1.89-32.36-2.65-48.55-.22-4.68-.48-9.35-.78-14.02l-2.25 2.25c1.67.06 3.35.11 5.02.16 4.57.15 9.14.29 13.71.43 6.82.21 13.64.41 20.46.61 8.33.24 16.65.48 24.98.7 9.18.25 18.37.48 27.55.7s18.72.43 28.08.62 17.79.33 26.68.44c7.67.1 15.34.17 23.01.18 5.8 0 11.61-.02 17.41-.18 3.43-.09 6.94-.12 10.34-.69.35-.06.69-.12 1.03-.23 2.74-.9 1.56-5.25-1.2-4.34-.34.11-.7.17-1.05.23-.75.13.55-.05-.2.03-.31.03-.62.07-.93.1-1.67.15-3.35.23-5.02.3-5.28.21-10.57.25-15.86.27-7.3.03-14.61-.03-21.91-.1-8.6-.09-17.2-.23-25.81-.39-9.3-.17-18.6-.37-27.91-.58-9.29-.21-18.57-.45-27.86-.69-8.59-.23-17.18-.46-25.77-.71-7.22-.21-14.43-.42-21.65-.64l-15.44-.48c-2.44-.08-4.9-.24-7.34-.24-.11 0-.21 0-.32-.01-1.16-.04-2.33 1.06-2.25 2.25 1.1 16.89 1.31 33.83 2.45 50.72.58 8.65 1.48 17.27 2.66 25.86.71 5.13 1.51 10.24 2.4 15.35.65 3.72 1.25 7.46 2.25 11.11 1.91 7 4.48 13.84 7.21 20.56 2.88 7.11 5.98 14.18 9.65 20.93 1.33 2.45 2.74 4.9 4.42 7.13 2.14 2.85 5.04 4.74 8.4 5.89 6.05 2.07 13.1 1.8 19.27.38 1.69-.39 3.86-.85 5.11-2.15 1.08-1.13 1.04-3.13 1.16-4.57.51-6.06.58-12.17.73-18.25.22-8.68.38-17.36.6-26.03.1-4.19.22-8.38.37-12.57a23.716 23.716 0 0 1 .12-1.86c.02-.13.04-.26.06-.38.06-.31.12-.62.19-.93.13-.55.29-1.09.48-1.61.08-.23.17-.46.26-.69-.19.47.16-.33.23-.47a16.942 16.942 0 0 1 1.2-2.05c.07-.1.61-.82.31-.43.7-.88 1.48-1.7 2.32-2.45.22-.19.44-.38.66-.56.12-.1.25-.2.38-.3-.07.05-.34.25 0 0 .48-.36.97-.7 1.47-1.02 1.04-.67 2.13-1.27 3.24-1.81 2.09-1.01 4.56-1.87 7.16-2.55 1.36-.36 2.74-.66 4.13-.91a54.2 54.2 0 0 1 3.94-.59c5.85-.66 11.79-.61 17.64.09 2.26.27 5.25.8 7.84 1.46 1.26.32 2.5.68 3.73 1.08.52.17 1.04.36 1.56.55.71.27 1.19.46 1.49.6.99.44 1.97.92 2.92 1.46.43.25.85.5 1.27.78.21.14.42.28.63.43.11.08.7.52.5.36-.24-.19.3.25.39.33l.47.41a13.77 13.77 0 0 1 1.42 1.52c-.3-.37-.07-.1.07.11.24.37.47.74.68 1.13.1.2.19.4.29.6.25.5-.04-.13.09.2.2.52.4 1.05.57 1.58.39 1.18.7 2.38.99 3.59.7 2.96 1.19 5.97 1.63 8.97 2.09 14.55 2.7 29.45 3.78 44.16.2 2.69.41 5.38.68 8.06.13 1.28.93 2.16 2.25 2.25 4.68.33 9.36.72 14.05.76s9.36-.33 14.01-.87c1-.12 1.88-.62 2.17-1.65 5.07-18.09 11.6-35.73 17.12-53.68 5.87-19.09 10.37-38.59 11.85-58.54.96-12.87.67-25.8-.71-38.63-.13-1.21-.94-2.25-2.25-2.25-1.12 0-2.38 1.03-2.25 2.25Z" fill="url(#a)"/>
  <path d="M96.73 473.31c.02 3.19-.24 12.57-.59 13.06-.49.7-8.1 2.53-9.12 2.87-5.86 1.92-9 2.27-13.4 5.57-1.74 1.31-7.57 5.19-12.9 7.33-6.72 2.71-13.79 1.53-17.68.13-5.46-1.96-1.89-9.73-1.16-10.73 5.28-7.18 13.25-9.44 18.52-11.13 1.18-.38 2.28-1.04 3.58-1.31 2.08-.44 5.78-2.21 6.5-.15 2.57 7.4 26.08-5.17 26.23-5.65Z"/>
  <path d="M93.98 473.31c.01 2.27-.05 4.53-.13 6.8-.04 1.24-.09 2.49-.17 3.73-.03.42-.05.85-.09 1.27-.02.18-.06.39-.06.57-.01-.32.19-.59.02-.23-.09.19.75-.99.81-1.14.08-.18.24-.23-.06-.02.1-.07.46-.16-.05.01-.24.08-.47.17-.71.25-1.09.36-2.2.67-3.3.97-2.14.59-4.25 1.19-6.37 1.83-2.92.88-5.88 1.7-8.59 3.14-2.27 1.21-4.28 2.89-6.45 4.26-2.87 1.82-5.88 3.6-9.05 4.83-3.43 1.33-7.08 1.69-10.72 1.29-1.37-.15-2.73-.45-4.04-.84-.58-.17-1.12-.36-1.36-.48-.43-.21.06.12-.28-.18-.09-.08-.17-.17-.25-.26-.25-.28.26.48-.05-.11-.24-.45.04.3-.09-.2-.06-.23-.12-.45-.16-.68.09.49 0 0 0-.22 0-.33.01-.65.04-.97.04-.54-.07.28.04-.24l.15-.71c.13-.52.29-1.03.47-1.53.07-.19.15-.38.22-.57-.18.45-.1.22.05-.08.12-.25.24-.5.39-.73.74-1.15 1.82-2.16 2.82-3.07 2.17-1.97 4.9-3.5 7.5-4.61 2.26-.96 4.86-1.62 7.23-2.53 1.5-.58 2.96-1.05 4.49-1.51.65-.19 1.3-.39 1.97-.54.44-.1.03.09.41-.07.1-.04.32-.14.14-.03-.16-.04-.16-.04-.01 0 .35.1.17-.03-.55-.37-.13-.14-.3-.66-.24-.38s.25.63.4.91c.24.43.57.85.91 1.2.7.7 1.56 1.16 2.49 1.5 1.6.58 3.43.54 5.09.34 4.47-.55 8.7-2.17 12.81-3.94 2.73-1.17 5.6-2.39 8.1-4.02.51-.33 1.03-.69 1.33-1.24 1.7-3.1-3.04-5.88-4.74-2.77.21-.38.4-.47.62-.69.4-.4.28-.18.15-.12-.17.08-.33.21-.49.3-.49.29-.99.56-1.49.82-1.59.84-3.22 1.63-4.86 2.37-.5.22-1 .44-1.51.66s.26-.1-.24.1c-.3.12-.6.25-.91.37-1.07.43-2.16.83-3.25 1.2-1.03.35-2.07.67-3.12.94-.48.12-.96.24-1.45.34-.25.05-.5.1-.76.15-.14.03-.95.14-.58.1.39-.05-.24.02-.34.03-.23.02-.45.04-.68.05-.42.02-.85 0-1.27-.02-.11 0-.23-.02-.34-.03-.02 0 .62.11.32.04-.15-.04-.31-.06-.46-.1-.17-.04-.33-.12-.5-.16.5.11.4.04.02-.02s-.06-.23.11.12c-.06-.13-.25-.2-.33-.33-.04-.07.34.58.08.06-.05-.1-.2-.27.02.08.28.46-.08-.2-.11-.27-.73-1.75-2.39-2.7-4.27-2.66-3.21.07-6.32 1.64-9.3 2.61-2.76.9-5.49 1.79-8.14 2.98-5.28 2.36-10.82 6.29-12.97 11.86-.88 2.28-1.36 4.94-.72 7.35.87 3.27 3.65 4.7 6.69 5.5 3.54.92 7.31 1.23 10.94.77 4.2-.53 8-2.1 11.71-4.09 2.66-1.43 5.26-3.01 7.71-4.78s4.73-2.97 7.55-3.85c2.49-.78 4.97-1.56 7.49-2.23 2.18-.58 4.42-1.1 6.52-1.95 1.2-.49 2.25-1.1 2.62-2.45.23-.84.25-1.79.3-2.65.18-2.58.24-5.16.3-7.74.02-1.08.04-2.17.03-3.25-.02-3.53-5.51-3.54-5.49 0ZM176.07 473.31c-.02 3.19.24 12.57.59 13.06.49.7 8.1 2.53 9.12 2.87 5.86 1.92 9 2.27 13.4 5.57 1.74 1.31 7.57 5.19 12.9 7.33 6.72 2.71 13.79 1.53 17.68.13 5.46-1.96 1.89-9.73 1.16-10.73-5.28-7.18-13.25-9.44-18.52-11.13-1.18-.38-2.28-1.04-3.58-1.31-2.08-.44-5.78-2.21-6.5-.15-2.57 7.4-26.08-5.17-26.23-5.65Z"/>
  <path d="M173.32 473.31c-.01 2.42.06 4.83.14 7.25.07 2.02-.08 4.43.49 6.4.68 2.33 3.64 2.87 5.67 3.45s4.06 1.05 6.05 1.69c2.94.94 6.19 1.67 8.77 2.98s4.58 3.05 6.89 4.51c3.18 2.01 6.5 3.82 10 5.21 3.77 1.5 7.99 1.98 12.02 1.61 3.14-.29 7.03-.79 9.57-2.83 2.27-1.82 2.78-4.77 2.4-7.51-.8-5.8-4.92-10.01-9.72-13.05-2.68-1.7-5.64-2.94-8.63-3.98-2.82-.98-5.65-2.02-8.51-2.86s-7.13-2-8.68 1.72c-.06.14-.12.32-.19.46 0-.01.29-.66.1-.27-.2.41-.11.01.12-.11-.13.07-.2.25-.33.33-.25.15.35-.23.29-.22-.08.01-.15.13-.23.15-.06 0-.69.31-.18.11.46-.18-.11.02-.23.05-.15.03-.31.06-.46.1-.36.12.6-.02-.09 0-.39.01-.78.03-1.18.02-.23 0-.45-.02-.68-.04-.18-.01-1.01-.12-.28-.02-.99-.15-1.97-.35-2.94-.6-2.17-.56-4.29-1.31-6.37-2.14-.27-.11-.53-.22-.8-.32-.58-.23.07.04-.35-.14-.5-.22-1.01-.44-1.51-.66-.89-.4-1.77-.81-2.64-1.24-1.25-.61-2.51-1.24-3.71-1.95-.15-.09-.3-.21-.46-.28-.03-.02-.09-.09-.13-.09.24 0 .78.72.87.88-1.7-3.1-6.45-.33-4.74 2.77.5.91 1.61 1.43 2.48 1.91 1.39.76 2.81 1.46 4.24 2.13 3.92 1.84 7.99 3.56 12.22 4.57 3.44.82 8.11 1.55 10.9-1.25.33-.34.64-.73.88-1.14.12-.2.2-.42.3-.64-.08.19.16-.44.19-.46l-.13.3c-.11.19-.28.33-.49.41-.96.9-.1-.07-.11.14 0 .05-.49.04-.11.06.14 0 .27 0 .41.03-.07 0-.33-.05 0 .02.72.15 1.42.36 2.12.57 2.73.81 5.39 1.79 8.1 2.7s5.08 1.86 7.56 3.35 4.88 3.33 6.39 5.68c.15.23.27.48.39.73.04.09.27.6.11.23s.11.3.16.42c.17.46.32.93.44 1.41.06.23.1.47.16.7.14.61.03-.1.06.36.02.28.04.57.04.85 0 .11-.05.78 0 .47s-.09.34-.11.44-.07.23-.11.33c.14-.37.08-.11-.08.08-.19.24.06-.04.09-.08-.07.09-.16.18-.25.27s-.18.18-.27.25c.05-.04.29-.22.02-.06-.37.23-.81.35-1.48.55-3.04.9-6.21 1.18-9.37.89-3.65-.35-6.99-1.9-10.17-3.64-5.07-2.76-9.45-6.69-14.95-8.58-4.63-1.59-9.41-2.62-14.05-4.15-.21-.07-.41-.14-.62-.21-.09-.03-.18-.07-.27-.1-.46-.15.15.04.19.09-.08-.08-.24-.09-.33-.17.38.33.44.37.73.87.33.56.41.71.29.44-.1-.22.06-.66.02.23 0-.15-.04-.32-.05-.48-.04-.45-.07-.91-.1-1.36-.15-2.52-.22-5.04-.27-7.56-.02-.99-.03-1.98-.03-2.97.02-3.54-5.47-3.54-5.49 0Z"/>
  <path d="M78.7 125.58c2.62-5.18 1.17-11.37 1.19-17.18.01-5.81 2.98-12.82 8.75-13.05.3-12.96.52-22.82.82-35.78 6.33-1.01 11.62.34 17.95-.67-1.64-8.06 2.49-22.37 8.71-27.72-9.8 8.27-11.48 30.61-4.68 44.89 14.36-17.15 45.41-11.67 58.72-28.47-3.11 4.75-3.55 9.21-.81 12.7 2.88 3.68 7.83 7.28 11.39 10.29 11.42 9.63 11.39 23.99 11.1 38.97 8.05-10.47 16.37-21.59 18.22-34.69.87-6.18.24-12.47-.77-18.63-1.96-12.03-5.47-24.17-12.97-33.76-7.5-9.59-19.62-16.2-31.63-14.46-6.13.89-12.12 3.86-18.25 2.93-3.88-.59-7.34-2.69-10.88-4.4-10.32-4.99-23.43-6.52-32.7.23-5.05 3.68-8.33 9.33-12.99 13.5-6.44 5.75-18.53 12.23-24.54 18.43-10.52 10.85-12.68 22.63-10.62 37.64 2.22 16.13 11.24 34.06 13.46 50.19l3.96-15.15 6.57 14.21Z" fill="#bd9547"/>
  <path d="M80.64 126.71c1.48-3.05 1.93-6.33 1.88-9.7-.05-3.19-.53-6.39-.36-9.57.21-3.69 2-9.57 6.48-9.84 1.24-.08 2.22-.97 2.25-2.25.27-11.93.55-23.86.82-35.78l-1.65 2.17c5.95-.9 11.98.23 17.95-.67 1.26-.19 1.78-1.69 1.57-2.77-.84-4.32.09-9.38 1.41-13.68s3.29-8.83 6.73-11.85c2.19-1.92-1-5.05-3.18-3.18-4.57 3.92-7.04 9.91-8.3 15.67-1.5 6.89-1.5 14.07-.23 21 .69 3.79 1.86 7.46 3.5 10.95.59 1.25 2.65 1.5 3.53.46 5.62-6.63 13.84-9.7 21.98-12 8.56-2.41 17.44-4.04 25.52-7.9 4.27-2.05 8.23-4.86 11.21-8.57l-3.53-2.73c-2.73 4.26-4.25 9.81-1.25 14.37 2.79 4.24 7.27 7.31 11.14 10.48 3.47 2.85 6.26 6.09 8.15 10.18 1.75 3.79 2.6 8.02 3.01 12.15.52 5.29.43 10.61.33 15.91-.02.98.71 1.91 1.65 2.17 1.04.29 1.92-.23 2.54-1.03 7.09-9.23 14.37-18.88 17.44-30.3 1.66-6.18 1.78-12.58 1.06-18.91s-1.79-12.08-3.42-17.94c-3.05-10.96-8.34-21.79-17.28-29.13-4.29-3.52-9.22-6.29-14.6-7.76s-11.27-1.37-16.9.03c-2.89.72-5.76 1.66-8.72 2.04s-5.92-.05-8.74-1.23-5.18-2.62-7.85-3.77c-2.53-1.09-5.12-1.99-7.8-2.62-5.27-1.24-10.81-1.53-16.11-.33-5.42 1.23-10.01 4.2-13.78 8.22s-6.81 8.28-11.11 11.62-8.74 6.08-13.09 9.13-8.24 6.08-11.54 10.05-5.88 8.35-7.5 13.24c-3.32 9.99-2.28 21.14.12 31.21 2.8 11.79 7.57 23 10.47 34.76a82.82 82.82 0 0 1 1.6 8.13c.32 2.28 3.82 2 4.34 0l3.96-15.15-4.11.54c2.19 4.74 4.38 9.47 6.57 14.21.51 1.1 2.1 1.38 3.08.81 1.13-.66 1.32-1.97.81-3.08-2.19-4.74-4.38-9.47-6.57-14.21-.83-1.8-3.65-1.22-4.11.54l-3.96 15.15h4.34c-3.06-21.75-16.31-41.91-13.8-64.44 1.04-9.37 6.02-17.78 13.2-23.79 7.67-6.43 17.16-10.76 24.05-18.13 3.62-3.88 6.65-8.57 11.16-11.51 4.07-2.65 8.87-3.67 13.68-3.56 5.06.11 10.14 1.41 14.75 3.49 5.44 2.46 10.41 5.71 16.64 5.34 5.87-.35 11.32-3.02 17.19-3.31 4.98-.25 9.94.95 14.38 3.18 9.75 4.89 16.44 13.85 20.37 23.85 2.03 5.17 3.44 10.56 4.49 16.01 1.17 6.07 2.05 12.28 1.68 18.47-.67 11.35-6.73 21.32-13.26 30.28-1.63 2.23-3.3 4.42-4.98 6.61l4.19 1.14c.17-8.93.42-18.31-2.54-26.87-1.43-4.14-3.61-7.96-6.59-11.18-3.34-3.62-7.58-6.3-11.14-9.69-1.65-1.57-3.59-3.35-3.96-5.72-.41-2.64.88-5.21 2.25-7.36s-1.92-4.74-3.53-2.73c-5.29 6.59-13.34 9.53-21.23 11.74-8.65 2.43-17.58 4.1-25.74 7.98-4.44 2.11-8.56 4.98-11.75 8.75l3.53.46c-2.62-5.58-3.72-11.87-3.8-18s.71-11.97 3.17-17.31c1.22-2.64 2.75-4.96 4.95-6.85l-3.18-3.18c-4 3.51-6.36 8.85-7.89 13.84s-2.44 10.76-1.41 16.07l1.57-2.77c-5.95.9-11.98-.23-17.95.67-.98.15-1.63 1.27-1.65 2.17-.27 11.93-.55 23.86-.82 35.78l2.25-2.25c-6.08.37-9.63 5.94-10.62 11.46-.59 3.29-.29 6.56-.1 9.87s.35 6.92-1.16 10.02c-.53 1.09-.3 2.43.81 3.08.99.58 2.55.29 3.08-.81Z"/>
  <path d="M146.75 363.22c51.36-2.86 81.63-33.21 83.23-34.14 4.32-2.51 7.11-24.12 6.79-29.11-7.62-116.01-37.6-140.71-39.4-142.82-3.7-4.34-11.08.14-16.46 2.03a176.11 176.11 0 0 1-22.24 6.21s-30.24 159.24-23.32 162.3c0 0 6.83 41.66 11.41 35.54" fill="#ffcbc4"/>
  <path d="M146.75 365.47c16.38-.94 32.42-4.72 47.49-11.19 10.21-4.38 19.91-9.97 28.77-16.67 2.42-1.83 4.79-3.74 7.09-5.72l.85-.73c.1-.08.2-.16.3-.25.34-.3-.2.2-.22.17.12.16 1.51-1.31 1.66-1.51.64-.82 1.12-1.7 1.53-2.65 2.4-5.5 3.34-11.65 4.11-17.56.33-2.51.61-5.04.69-7.57.12-3.75-.4-7.56-.7-11.29-1.38-17.33-3.41-34.64-6.5-51.76-2.24-12.39-5.03-24.7-8.77-36.72-2.61-8.39-5.68-16.67-9.48-24.59-2.35-4.9-5-9.69-8.15-14.13-1.69-2.39-3.52-4.69-5.56-6.79-.93-.96-1.85-2-3.06-2.6-3.55-1.76-7.7-.4-11.15.96-4.26 1.68-8.49 3.27-12.88 4.59a173.87 173.87 0 0 1-14.74 3.76c-.71.15-1.44.85-1.57 1.57-1.01 5.34-2 10.68-2.99 16.02-2.36 12.83-4.67 25.67-6.92 38.52-2.72 15.55-5.35 31.11-7.79 46.71-2.13 13.63-4.2 27.29-5.67 41.01-.48 4.49-.93 9.01-1.04 13.53-.06 2.42-.35 5.65.92 7.83.27.47.7.99 1.2 1.22l-1.03-1.34c.79 4.81 1.71 9.6 2.72 14.36.81 3.83 1.68 7.66 2.73 11.44.84 3.03 1.74 6.2 3.26 8.96.57 1.04 1.32 2.09 2.39 2.65 1.38.73 3.12.36 4.08-.88.74-.96.94-2.25 0-3.18-.78-.78-2.43-.97-3.18 0-.25.33-.5.38.02.09-.36.21.47-.15.26-.09-.23.06.72-.04.31-.04.09 0 .7.13.34.03-.08-.02.61.3.27.1s.23.22.19.15c-.03-.05-.27-.2-.27-.27.02-.2-.08-.13.08.12-.06-.1-.15-.2-.21-.3-.16-.25-.31-.51-.45-.77-.16-.3-.31-.61-.45-.92l-.21-.48c-.1-.23.07.18.08.18-.05-.13-.1-.25-.15-.38-1.5-3.85-2.52-7.89-3.47-11.91-1-4.25-1.88-8.53-2.69-12.82-.44-2.34-.69-4.79-1.27-7.1-.09-.38-.98-1.71-1.13-1.52.01-.02.54.47.3.22-.04-.05.42.62.19.23s.17.68 0-.03c-.06-.25-.12-.5-.17-.76-.09-.44.04-.35 0 .11.01-.17-.04-.37-.06-.54-.04-.39-.06-.77-.07-1.16-.04-.94-.04-1.88-.02-2.82.12-5.83.78-11.66 1.45-17.45.22-1.9.45-3.81.7-5.71l.39-3.01c.06-.48.13-.96.19-1.44l.06-.41c0 .04-.05.34-.01.08s.08-.56.11-.84c.6-4.38 1.22-8.76 1.88-13.14 1.43-9.58 2.95-19.15 4.53-28.71s3.24-19.32 4.92-28.97a3717.9 3717.9 0 0 1 4.63-26.01c1.17-6.47 2.36-12.95 3.56-19.41.59-3.16 1.35-6.34 1.78-9.53.02-.14.05-.28.08-.42l-1.57 1.57c9.4-1.97 18.52-4.73 27.44-8.28 2.37-.94 6.67-2.99 8.86-.77.21.21.4.43.6.65a45.2 45.2 0 0 1 1.65 1.74c.41.46.82.92 1.21 1.4.24.28.47.57.7.86l.35.44c.41.52-.27-.37.11.14 2.85 3.78 5.32 7.82 7.52 12.01 1.6 3.04 3.06 6.14 4.41 9.29.1.22.19.45.29.67.04.09.17.4-.01-.03.05.11.1.23.14.34.19.47.39.94.58 1.41.4.98.78 1.96 1.16 2.94.8 2.09 1.57 4.19 2.3 6.31 3.71 10.73 6.56 21.76 8.89 32.87 3.23 15.41 5.46 31.02 7.07 46.68.48 4.68.91 9.37 1.28 14.06.3 3.72.81 7.52.72 11.26-.12 5.4-.95 10.6-2.11 15.87-.3 1.38-.64 2.75-1.03 4.11-.18.64-.38 1.27-.6 1.89-.09.26-.18.51-.28.76-.04.1-.38.94-.22.57-.19.44-.4.88-.64 1.3-.11.2-.23.39-.36.58-.04.07-.09.13-.14.2-.28.42.32-.32-.02.01-.11.11-.23.22-.33.33s.44-.31.02-.03c-.13.09-.25.18-.37.28-1.51 1.14-2.89 2.46-4.36 3.65-.62.5-1.24 1-1.86 1.49-.15.12-.3.24-.45.35-.09.07-.18.14-.26.21-.25.2.31-.24.05-.04-.38.29-.76.58-1.14.86-1.72 1.29-3.46 2.54-5.24 3.74-4.55 3.09-9.29 5.9-14.18 8.43a135.786 135.786 0 0 1-41.62 13.55c-4.2.65-8.43 1.06-12.66 1.3-2.88.16-2.9 4.67 0 4.5Z"/>
  <path d="M122.19 364.22s11.58-35.4 11.56-43.56-11.52-152.22-11.52-152.22c-3.48-.18-6.94-.51-10.37-1-13.83-1.99-27.03-6.62-38.66-14.64 0 0-50.22 88.14-41.47 157.67.33 2.65 2.12 12.64 4.11 14.42 24.48 21.83 63.52 34.92 86.33 39.33" fill="#ffcbc4"/>
  <path d="M124.36 364.82c1.87-5.73 3.65-11.49 5.36-17.27 1.38-4.67 2.72-9.36 3.92-14.08.94-3.72 1.89-7.51 2.28-11.34.29-2.85-.12-5.82-.3-8.66-.37-5.69-.78-11.37-1.2-17.05-.57-7.8-1.16-15.59-1.75-23.38-.68-8.89-1.36-17.78-2.05-26.67s-1.4-17.99-2.1-26.98c-.63-7.97-1.25-15.95-1.88-23.92-.47-5.96-.94-11.92-1.42-17.88-.23-2.92-.44-5.84-.7-8.76l-.03-.38c-.1-1.26-.95-2.18-2.25-2.25-17.02-.92-33.74-5.64-47.89-15.33-1-.68-2.51-.19-3.08.81-3.95 6.94-7.46 14.17-10.84 21.41-7.95 17-14.89 34.51-20.41 52.46-6.49 21.14-11.17 43.18-11.53 65.37-.16 9.64.34 19.52 2.81 28.88.5 1.9 1.06 4 2.13 5.67.58.9 1.4 1.55 2.21 2.25 1.12.97 2.27 1.91 3.43 2.83 4.72 3.73 9.69 7.13 14.85 10.22 10.13 6.07 20.9 11.03 31.92 15.24 9.64 3.67 19.52 6.76 29.56 9.1 2.05.48 4.12.92 6.19 1.32 2.83.55 4.04-3.79 1.2-4.34-20.45-3.97-40.64-11.16-59.03-20.93-5.15-2.74-10.17-5.72-14.98-9.01-2.33-1.59-4.61-3.25-6.81-5-1.06-.85-2.11-1.71-3.14-2.59-.46-.39-.89-.85-1.38-1.21-.11-.08-.36-.45-.03.01a4.86 4.86 0 0 1-.33-.54 6.58 6.58 0 0 1-.37-.77c-.16-.4-.3-.81-.43-1.22-.36-1.11-.67-2.24-.94-3.38-.49-2.04-.9-4.11-1.23-6.18l-.15-1c-.06-.42.12 1.01 0-.1l-.12-1.03a137.748 137.748 0 0 1-.81-12.01c-.53-21.76 3.58-43.46 9.55-64.3 5.21-18.2 11.97-35.97 19.79-53.19 2.64-5.81 5.4-11.56 8.31-17.24 1.39-2.71 2.96-5.35 4.3-8.08.06-.12.13-.23.19-.34l-3.08.81c14.79 10.14 32.37 14.99 50.16 15.95l-2.25-2.25.48 5.99 1.26 15.9c.6 7.57 1.2 15.14 1.79 22.71l2.07 26.41c.69 8.8 1.4 18.01 2.09 27.01.63 8.17 1.24 16.34 1.85 24.51.47 6.3.93 12.6 1.36 18.91.23 3.4.51 6.8.62 10.2.02.64 0 1.27-.06 1.91-.02.22-.14 1.15-.06.54-.06.4-.12.8-.19 1.2-.14.85-.31 1.69-.48 2.54-.92 4.43-2.11 8.81-3.33 13.17-2.15 7.67-4.49 15.28-6.93 22.86-.14.44-.29.89-.43 1.33-.9 2.76 3.44 3.94 4.34 1.2Z"/>
  <path d="M33.83 304.02c8.82-4.93 20.52-9.66 28.19-3.09 7.22 6.18 5.09 18.02.21 26.18-8.9 14.87-25.72 24.51-25.41 41.84.27 15.07 1.55 24.33 3.25 34.31 1.32 7.71 1.38 13.8 6.46 27.47-9.13-4.92-33.65-28.1-38.49-37.79C2.19 381.23.89 363.8 3.62 351c5.41-25.36 16.06-36.81 30.21-46.98" fill="#fff"/>
  <path d="M34.97 305.97c5.03-2.8 10.65-5.59 16.5-5.96 5.07-.32 10.09 1.81 12.04 6.78s.75 10.43-1.13 15.06c-2.03 5-5.5 9.37-8.98 13.44-6.9 8.06-15.46 15.92-18.04 26.62-.72 2.98-.82 5.95-.74 9 .08 3.37.22 6.73.45 10.1.38 5.68 1.03 11.34 1.89 16.97.76 4.97 1.51 9.95 2.33 14.9 1.05 6.33 2.87 12.45 5.09 18.46l3.31-2.54c-3.01-1.64-5.6-3.71-8.14-5.78-3.71-3.02-7.27-6.22-10.74-9.52-3.59-3.41-7.09-6.94-10.41-10.61-2.7-2.98-5.13-5.76-7.23-9.05-2.67-4.17-4.11-9.14-5.13-13.94-1.29-6.06-1.72-12.3-1.44-18.48s1.53-12.1 3.27-17.98c1.55-5.25 3.55-10.36 6.21-15.15 5.08-9.12 12.5-16.26 20.91-22.32.98-.71 1.46-1.96.81-3.08-.57-.97-2.09-1.52-3.08-.81-7.93 5.72-15.16 12.25-20.48 20.53-6.42 9.98-10.35 22.07-11.73 33.82-.77 6.5-.59 13.08.31 19.56.84 6.13 2.42 12.21 5.15 17.78 1.66 3.4 4.17 6.41 6.6 9.28 3.17 3.73 6.56 7.27 10.04 10.71 4.01 3.95 8.15 7.77 12.47 11.37 3.25 2.71 6.61 5.52 10.35 7.56 1.59.87 4.02-.6 3.31-2.54-2.09-5.66-3.84-11.43-4.9-17.38-.77-4.33-1.34-8.7-2.05-13.05-.9-5.49-1.6-11-2.03-16.55-.27-3.45-.44-6.91-.55-10.38-.09-3.03-.25-6.06.38-9.04 2.31-10.78 11.43-18.53 18.19-26.65 3.73-4.48 7.16-9.22 9.24-14.72 1.93-5.12 2.84-11.21.98-16.49-2.27-6.47-8.27-10.36-15.05-10.43-7.15-.07-14.1 3.22-20.21 6.62-2.53 1.41-.26 5.3 2.27 3.89ZM122.19 315.67c2.83 0 5.53-2.49 5.4-5.4s-2.37-5.4-5.4-5.4c-2.83 0-5.53 2.49-5.4 5.4s2.37 5.4 5.4 5.4Z"/>
  <path d="M90.39 266.91c14.47 13.87 21.9 33.66 2.08 36.64-9.3 1.4-17.89-6.9-18.99-13.15l16.91-23.49Z" fill="#fff"/>
  <path d="M88.8 268.5c3.63 3.5 6.91 7.38 9.49 11.73 2.01 3.39 3.81 7.49 3.97 11.17.02.39.02.79 0 1.18 0 .23-.02.46-.04.69-.06.73.09-.42-.03.3-.06.36-.14.73-.24 1.08-.06.21-.13.42-.19.63 0 .02-.26.66-.09.27-.65 1.52-1.6 2.63-2.84 3.43-3.72 2.42-8.67 3.15-12.92 1.67-4.65-1.62-9.31-5.91-10.26-10.86l-.23 1.73 14.79-20.55c.71-.98 1.41-1.96 2.12-2.94s.17-2.51-.81-3.08c-1.13-.66-2.37-.18-3.08.81l-8.16 11.34c-1.92 2.67-3.85 5.34-5.77 8.01-.97 1.34-2.12 2.67-2.95 4.1-.93 1.61.41 4.22 1.18 5.68 1.09 2.07 2.64 3.96 4.36 5.52 3.92 3.55 9.24 5.98 14.62 5.46 4.17-.4 8.67-1.78 11.64-4.89 2.49-2.61 3.57-6.16 3.39-9.73-.24-4.63-2.11-9.08-4.42-13.05-2.78-4.77-6.39-9.09-10.35-12.91-2.09-2.01-5.27 1.17-3.18 3.18Z"/>
  <path d="M204 284.47c-5.95 11.71-12.16 22.77-27.18 19.24-11.64-2.74-2.19-26.18-1.73-33.12l28.9 13.88Z" fill="#fff"/>
  <path d="M202.06 283.34c-2.46 4.83-4.96 9.92-8.77 13.85-3.59 3.7-8.12 5.39-13.27 4.82-.67-.07-1.34-.2-2.01-.34-.45-.1-1.37-.34-1.55-.42-.01 0-.63-.35-.88-.51-.09-.06.15.15-.15-.12-.16-.15-.32-.31-.48-.47a2 2 0 0 1-.19-.22c-.22-.26.2.28 0 0-.11-.16-.22-.32-.31-.49s-.19-.34-.28-.52c-.23-.43 0 .05-.13-.29-.14-.39-.27-.79-.37-1.2-.05-.21-.1-.42-.14-.64-.03-.14-.14-.85-.09-.51-.57-4.4.32-8.65 1.24-12.9s2.36-8.48 2.68-12.8l-3.39 1.94c8.44 4.05 16.88 8.1 25.32 12.16l3.59 1.72c1.09.53 2.43.3 3.08-.81.58-.98.29-2.55-.81-3.08-8.44-4.05-16.88-8.1-25.32-12.16l-3.59-1.72c-1.59-.76-3.26.17-3.39 1.94-.01.16-.03.32-.04.49-.04.46.03-.15 0 .01-.07.43-.14.86-.23 1.29-.18.92-.39 1.84-.6 2.76-.53 2.26-1.09 4.52-1.59 6.79-1.06 4.83-2.05 9.94-1.39 14.89.3 2.21.98 4.32 2.4 6.08s3.55 2.74 5.79 3.19c6.26 1.24 12.33.13 17.32-3.93 5.24-4.26 8.43-10.66 11.43-16.55 1.31-2.58-2.57-4.86-3.89-2.27Z"/>
  <path d="M71.04 153.4c2.75 7.43 5.78 14.77 9.28 21.88s7.47 14.27 12.82 20.19c.55.61 1.12 1.19 1.7 1.76.18.18.75.75.73.76 0 0 .13-.54.12-.55 0-.03-.17.11-.1.09-.62.19-1.29.59-1.91.82-.96.35-1.86.73-2.68 1.34-3.17 2.4-4.15 6.85-3.2 10.59 1.17 4.6 4.82 8.04 7.93 11.41 3.45 3.74 6.81 7.57 10.08 11.47 7.31 8.72 14.12 17.84 20.46 27.29 1.6 2.39 5.5.14 3.89-2.27a331.633 331.633 0 0 0-18.07-24.46c-3.16-3.89-6.41-7.71-9.75-11.45-1.68-1.88-3.38-3.73-5.1-5.58-1.51-1.62-3.02-3.26-4.11-5.21-1.38-2.47-2.04-6.91 1.05-8.5 1.52-.78 3.26-1.02 4.57-2.23 1.7-1.57 1.6-4.02.19-5.74-1.13-1.38-2.51-2.56-3.66-3.93s-2.22-2.83-3.23-4.31c-2.28-3.35-4.3-6.88-6.17-10.47-4.05-7.77-7.44-15.88-10.48-24.09-.42-1.14-1.52-1.91-2.77-1.57-1.1.3-2 1.62-1.57 2.77Z" fill="url(#b)"/>
  <path d="M148.46 256.99c1.44-5.02 4.27-9.44 7.27-13.67 3.36-4.74 6.83-9.4 10.25-14.1s7.03-9.65 10.55-14.47c1.76-2.41 3.52-4.82 5.27-7.24 1.57-2.15 3.16-4.56 2.1-7.32-.99-2.57-3.75-4.66-5.8-6.38-2.4-2.01-4.95-3.83-7.65-5.42l1.03 2.54c1.24-5.12 4.62-9.65 7.8-13.75 3.76-4.84 7.86-9.4 11.62-14.24 1.88-2.42 3.72-4.89 5.17-7.59 1.37-2.55-2.51-4.83-3.89-2.27-2.63 4.9-6.39 9.14-9.94 13.38-4.04 4.83-8.21 9.67-11.48 15.06-1.55 2.55-2.92 5.29-3.62 8.21-.24.98.16 2.02 1.03 2.54 2.11 1.24 4.15 2.61 6.06 4.15 1.77 1.44 3.79 3.01 5.18 4.85.62.82.18 1.51-.33 2.3-.72 1.12-1.56 2.18-2.35 3.27-1.66 2.28-3.32 4.56-4.98 6.83-6.6 9.06-13.29 18.05-19.79 27.18-3.28 4.6-6.28 9.45-7.85 14.92-.8 2.79 3.54 3.98 4.34 1.2Z" fill="url(#c)"/>
  <path d="m124.13 186.11 8.3 9.71c.96 1.13 1.95 2.31 2.33 3.74 1.03 3.88-2.66 7.26-5.94 9.58-.5.36-1.07.73-1.68.63-1-.16-1.4-1.4-1.48-2.41-.67-8.65-.7-14.82-1.54-21.25" fill="url(#d)"/>
  <path d="M122.92 187.31c2.61 3.06 5.22 6.11 7.84 9.17.96 1.12 2.19 2.34 2.44 3.87.21 1.3-.41 2.56-1.16 3.58-.87 1.19-2.04 2.2-3.2 3.1-.33.26-.68.51-1.03.74-.11.07-.4.19-.48.3.07-.09.34.31.3.11-.12-.59-.28-1.1-.33-1.74-.25-3.39-.43-6.78-.62-10.17s-.42-6.79-.85-10.16c-.12-.92-.7-1.69-1.7-1.7-.83 0-1.82.79-1.7 1.7.46 3.62.69 7.26.89 10.91.12 2.12.23 4.24.36 6.36.12 1.94-.04 4.23.76 6.04s2.79 2.57 4.61 1.6c1.64-.87 3.23-2.3 4.5-3.63 2.68-2.81 4.13-6.6 2.03-10.2-1.24-2.12-3.12-3.95-4.71-5.8-1.84-2.16-3.69-4.31-5.53-6.47-1.43-1.67-3.83.75-2.41 2.41Z" fill="url(#e)"/>
  <path d="M155.35 182.15c-2.92 9.39-15.26 33.83-16.45 37.87-3.16 10.72.68 22.65 5.69 32.25-4.48 6.1-12.71 24.06-11.76 25.54.49.75 15.85 5.11 22.89 4.54-1.25-8.37-2.49-16.74-3.74-25.11-.42-2.84-2.55-2.93-1.38-5.43.74-1.58 3.73-5.7 4.82-6.93 4.75-5.35 6.54-13.68 6.76-21.6.08-2.93-7.49-33-6.84-41.12" fill="url(#f)"/>
  <path d="M153.62 181.67c-1.18 3.76-2.79 7.39-4.37 10.99-2 4.54-4.09 9.04-6.18 13.54-1.63 3.52-3.31 7.03-4.82 10.6-1.91 4.5-2.55 9.33-2.18 14.21.6 7.8 3.4 15.26 6.98 22.16v-1.82c-2.3 3.16-4.11 6.71-5.85 10.2-1.84 3.7-3.59 7.47-5.04 11.34-.7 1.87-2.29 5.26 0 6.62 1.01.6 2.3.91 3.41 1.25 1.91.58 3.84 1.08 5.78 1.53 4.62 1.07 9.61 2.18 14.38 1.84 1.27-.09 1.91-1.07 1.73-2.28l-2.49-16.74c-.41-2.78-.74-5.6-1.25-8.37-.16-.88-.48-1.71-.94-2.47-.17-.27-.35-.53-.53-.8-.2-.32-.23-.26-.19-.52.08-.48.5-1.01.75-1.41.48-.78 1-1.55 1.53-2.3.89-1.27 1.85-2.47 2.84-3.67 2.84-3.46 4.57-7.69 5.56-12.03.53-2.3.86-4.64 1.06-6.99.11-1.28.27-2.61.15-3.9-.18-1.81-.59-3.62-.95-5.4-1.19-5.9-2.48-11.78-3.62-17.68-.66-3.42-1.29-6.84-1.76-10.29-.32-2.34-.65-4.77-.47-7.14s-3.43-2.3-3.6 0c-.16 2.1.1 4.23.36 6.31.39 3.09.9 6.17 1.46 9.23 1.13 6.18 2.46 12.33 3.73 18.49.42 2.04.85 4.08 1.19 6.14.02.15.05.3.07.45-.05-.33-.02-.27 0-.01.02.32.03.61.02.93-.07 2.31-.29 4.63-.7 6.91-.77 4.31-2.15 8.72-4.87 12.22-1.97 2.55-4.24 5-5.68 7.92-.95 1.92-.71 3.41.4 5.15.66 1.03.76 2.11.93 3.3l.66 4.43c.95 6.4 1.91 12.8 2.86 19.2l1.73-2.28c-3.82.28-7.72-.48-11.44-1.27-3.33-.7-6.67-1.53-9.88-2.67-.09-.03-.17-.07-.26-.1-.4-.15.37.1.01 0-.07-.02-.27-.1-.31-.16.23.38.59.71.71 1.19-.01-.05.03-.21 0-.24-.12-.15-.07.35-.01.07.21-1.13.6-2.22.99-3.3 1.28-3.47 2.84-6.83 4.48-10.14 1.82-3.68 3.71-7.43 6.13-10.76.38-.52.28-1.28 0-1.82-3.08-5.93-5.62-12.37-6.37-19.06-.37-3.3-.33-6.68.38-9.93.18-.84.39-1.68.69-2.49.07-.19.14-.38.22-.57.07-.17.39-.95.28-.68 3.32-7.87 7.17-15.51 10.64-23.31 1.84-4.15 3.74-8.34 5.11-12.68.7-2.21-2.78-3.16-3.47-.96Z" fill="url(#g)"/>
  <path d="M87.59 248.96c3.66 2.18 7.18 4.6 10.49 7.27v-3.18c-5.73 7.41-11.46 14.82-17.18 22.23-2.84 3.67-5.68 7.34-8.52 11.02l-4.41 5.7c-.57.74-1.11 1.57-1.8 2.2l-.28.25c-.61.6-.34.11-.2.13.29.05-.18-.25-.31-.41-1.58-1.87-2.89-4.05-4.31-6.05-1.55-2.19-3.11-4.37-4.66-6.56-.7-.99-1.96-1.46-3.08-.81-.98.57-1.52 2.08-.81 3.08 2.92 4.1 5.79 8.25 8.76 12.32 1.33 1.82 3.09 3.43 5.52 2.77 2.27-.61 3.6-2.79 4.95-4.54 6.29-8.13 12.57-16.26 18.86-24.39l10.65-13.77c.68-.88 1.04-2.34 0-3.18a99.981 99.981 0 0 0-11.4-7.98c-2.49-1.49-4.76 2.4-2.27 3.89ZM212.13 273.6c-.47 2.02-.97 4.04-1.69 5.98-.62 1.67-1.56 2.92-2.56 4.35-.26.37.19-.13.28-.18-.19.11.5-.19.43-.17-.14.04-.28.16.1 0s-.01-.07-.28-.04c-.03 0 .63.13.21.02-.11-.03-.23-.04-.34-.07-.3-.07-.6-.15-.9-.23-3.95-1.14-6.83-2.59-10.56-4.32-8.05-3.74-16.11-7.71-23.75-12.24-.46-.27-.91-.57-1.37-.85-.52-.32.19.17.09.08-.25-.25.26.37.33.51.04.08.01.41.06-.01.14-1.23.61-3.01 1.14-4.52.65-1.87 1.42-3.69 2.3-5.47 1.28-2.59-2.6-4.87-3.89-2.27-1.65 3.32-3.28 6.96-3.88 10.64-.35 2.13-.1 3.8 1.73 5.03 2.95 1.98 6.22 3.57 9.36 5.22 4.82 2.54 9.69 4.99 14.62 7.3 4.04 1.9 8.16 3.91 12.45 5.19 1.39.41 3.14.89 4.47.07 1.71-1.06 2.91-3.46 3.68-5.24 1.06-2.44 1.73-4.99 2.33-7.57.66-2.82-3.68-4.02-4.34-1.2ZM149.27 74.37c5.52.23 11.05.41 16.54-.34 2.5-.34 4.97-1.21 7.48-1.37 1.57-.1 3.75.18 4.22 1.99.73 2.8 5.07 1.61 4.34-1.2-.65-2.51-2.75-4.26-5.19-4.97-2.89-.84-5.87.03-8.72.64-6.12 1.3-12.46 1-18.67.75-2.9-.12-2.89 4.38 0 4.5ZM116.84 71.97c-5.51-.35-10.32-4.62-15.97-3.69-1.94.32-3.86.89-5.76 1.38-1.08.28-2.15.55-3.24.8-.38.09-.76.17-1.15.25-.15.03-.29.05-.44.08.72-.11.28-.04.1-.04-2.9-.04-2.9 4.46 0 4.5 1.73.02 3.6-.66 5.25-1.08 2.04-.52 4.07-1.07 6.13-1.5.15-.03.29-.05.44-.08-.75.13-.32.01-.17.04.69.11 1.39.1 2.08.24 1.35.27 2.65.72 3.92 1.24 2.92 1.21 5.63 2.15 8.81 2.35 2.89.18 2.88-4.32 0-4.5Z"/>
</svg>
