<svg xmlns="http://www.w3.org/2000/svg" viewBox="0 0 265.69 493.05">
  <path d="M79.11 158.53c-26.55 32.88-33.13 78.09-36.98 97.34-6 30.04-15.37 57.81 1.35 144.64 3.89 20.18 13.18 41.18 16.96 53.35 14.78 47.71 25.62 36.3 29.12 34.23 9.3-5.47-.76-51.59 3.77-63.7 7.34-19.64 28.06-19.64 39.98-20.47 18.27-1.28 31.48 1.13 40.35 19.59 4.22 8.78-3.58 75.61 23.62 56.67 5.86-4.08 24.74-56.64 26-63.67 10.06-55.96 11.77-70.47 6.58-126.21-2.03-21.85-14.51-109.76-41.07-133.72" fill="#fff"/>
  <path d="M77.52 156.94c-14.01 17.43-22.97 38.27-29.02 59.67-4.1 14.5-6.55 29.32-9.64 44.04-2.27 10.8-4.51 21.59-5.74 32.57-1.72 15.32-1.62 30.78-.49 46.14.8 10.86 2.09 21.68 3.68 32.45 1.93 13.11 3.91 26.4 7.31 39.22 3.17 11.94 7.59 23.46 11.79 35.06 3.7 10.22 6.53 20.73 11.25 30.56 3.28 6.82 10.09 19.32 19.69 15.8 1.98-.73 4.45-2.09 5.88-3.66 1.71-1.87 2.47-4.49 2.91-6.93.61-3.37.76-6.82.78-10.24.04-8.27-.69-16.54-1.16-24.79-.38-6.51-1.14-14.05.25-20.12 1.8-7.9 8.44-14.11 15.8-16.92 6.99-2.66 14.42-3.07 21.8-3.56 8.45-.56 17.67-.96 25.43 3.04 3.76 1.93 6.95 4.78 9.44 8.19 1.55 2.12 2.8 4.4 4.01 6.73.58 1.12.02-.32.29.67.09.34.19.67.26 1.01.08.38.15.76.21 1.14l.09.63c-.04-.26 0-.06.04.34.12 1.08.21 2.15.29 3.23.19 2.66.29 5.33.4 8 .25 6.34.47 12.69 1.08 19.01.57 5.88 1.3 11.96 3.4 17.52 1.57 4.16 4.19 8.69 8.86 9.79 2.33.55 4.76.2 6.96-.67s4.79-2.09 6.37-3.93c3.4-3.95 5.44-9.3 7.51-14.01 6.05-13.73 11.35-27.88 15.98-42.15 2.16-6.65 3.24-13.36 4.45-20.26 1.92-10.96 3.77-21.94 5.14-32.99 2.39-19.13 2.5-38.22 1.23-57.44-1.03-15.58-2.51-31.08-4.85-46.52-2.52-16.64-5.72-33.21-9.91-49.52-4.2-16.34-9.24-32.95-17.45-47.77-3.08-5.56-6.74-10.99-11.46-15.29-2.14-1.94-5.33 1.23-3.18 3.18 4.71 4.28 8.23 9.7 11.24 15.26 3.79 7 6.77 14.4 9.39 21.91 5.77 16.56 9.83 33.72 13.16 50.93 2.57 13.31 4.73 26.67 6.21 40.04 2.14 19.32 3.65 38.94 3.19 58.39s-3.74 39.81-7.2 59.5c-.77 4.39-1.31 8.91-2.43 13.22-.55 2.12-1.23 4.2-1.9 6.28-2.17 6.66-4.54 13.26-7 19.82-2.7 7.21-5.5 14.38-8.62 21.42-1.24 2.8-2.52 5.58-3.94 8.29-.53 1.01-1.08 2.01-1.68 2.97-.24.39-.5.77-.76 1.15-.08.12-.51.66-.09.14-.12.15-.24.31-.37.45-.19.19-.38.37-.57.55.66-.61-.19.1-.43.25-.39.26-.79.5-1.19.74-1.22.71-1.96 1.08-3.17 1.44-1.3.39-1.37.37-2.6.37-.2 0-.78-.08-.25 0a6.793 6.793 0 0 1-1.28-.32c-.6-.19.15.12-.29-.12-.39-.21-.76-.42-1.12-.68.01 0 .18.16-.13-.12-.21-.19-.42-.39-.62-.6-.75-.78-.86-.96-1.52-2.09-1.22-2.11-1.84-4.02-2.51-6.58-3.03-11.55-2.75-23.88-3.32-35.8-.18-3.81-.07-8.2-1.45-11.81-3.14-8.19-9.91-15.5-18-18.88s-17.15-3.1-25.76-2.54c-7.49.49-15.12.94-22.22 3.56-8.72 3.22-15.42 9.5-18.71 18.26-2.15 5.71-1.49 12.67-1.23 18.63.36 8.21 1.1 16.4 1.34 24.62.1 3.61.13 7.25-.18 10.85-.13 1.48-.27 2.61-.6 4.07-.13.56-.27 1.12-.45 1.67-.26.8-.15.58-.51 1.25-.11.22-.24.42-.37.63-.22.37-.23.32-.16.23-.15.16-.29.31-.45.46-.37.35.3-.18-.22.15-.29.18-.57.37-.85.55-.79.52-1.58.99-2.43 1.41.3-.14.27-.07-.23.07-.27.08-.55.16-.82.23-.13.04-.27.05-.4.08-.35.08.63-.03.08-.01-.29 0-.58.03-.87.02-.15 0-.3-.02-.45-.03-.28-.01.55.13.02 0-.35-.09-.69-.17-1.03-.27-.07-.02-.66-.25-.3-.1s-.24-.12-.31-.15c-.39-.21-.77-.42-1.13-.66-.19-.12-.37-.25-.55-.39.37.27-.04-.03-.17-.15-.42-.37-.83-.74-1.22-1.13-.9-.91-1.65-1.83-2.31-2.75-2.15-2.99-3.87-6.28-5.42-9.61-4.52-9.73-7.26-20.13-10.93-30.18-4.22-11.55-8.56-23.07-11.59-35.01-3.21-12.62-5.14-25.68-7.01-38.56-2.72-18.73-4.52-37.7-4.14-56.65.25-12.38 1.57-24.36 3.86-36.43 2.07-10.93 4.41-21.81 6.56-32.72 3.75-19.02 8.69-37.96 16.88-55.59 4.61-9.93 10.2-19.46 17.07-28 1.8-2.24-1.37-5.44-3.18-3.18Z"/>
  <path d="M195.26 69.08c.26 17.63 7.42 55.41 22.17 69.07-.8 1.4-10.31-2.34-14.31-4.39 2.95 10.29 11.29 19.5 11.2 19.99-.27 1.56-8.95 1.36-14.18-4.59-5.75-6.55-4.61-29.42-6.39-39.64-.63-3.66-4.82-21.69-3.97-25.3" fill="#ae3517"/>
  <path d="M193.01 69.08c.15 9.42 1.63 18.88 3.64 28.07 2.26 10.39 5.37 20.81 10.3 30.28 2.33 4.48 5.18 8.85 8.9 12.32l-.35-2.73c.28-.4.9-.97 1.23-.81-.08-.04-.37 0-.45 0-.62-.07.08.04-.35-.04-.22-.04-.44-.09-.66-.14-1.27-.29-2.52-.7-3.76-1.14-2.47-.87-4.9-1.88-7.23-3.06-1.68-.86-3.89.57-3.31 2.54 1.4 4.76 3.71 9.22 6.41 13.36.99 1.53 2.04 3.01 3.12 4.48.56.75 1.1 1.79 1.78 2.43.03.03.04.09.07.12-.53-.45-.23-1.72.13-2.15.05-.06.65-.59.35-.34-.11.09-.4.08.21-.08-.11.03-.75.18-.43.13.38-.07-.21.02-.23.02-.2 0-.4.02-.6.02-1.51 0-2.87-.33-4.45-.91a13.63 13.63 0 0 1-4.82-3.05c-.35-.34-.69-.7-1-1.09.28.36-.13-.21-.21-.34-.19-.29-.36-.6-.52-.91-.09-.17-.42-.9-.33-.69-1.31-3.11-1.85-6.6-2.25-9.93-.5-4.09-.75-8.2-1-12.31-.22-3.67-.39-7.34-.81-10.99-.3-2.6-.82-5.14-1.35-7.7-.79-3.81-1.57-7.62-2.23-11.46-.32-1.86-.56-3.36-.73-5.04-.07-.69-.13-1.38-.14-2.07v-.78c0-.79-.08.22.02-.24.6-2.82-3.73-4.03-4.34-1.2s.12 6.05.56 8.86c.6 3.82 1.37 7.61 2.14 11.39.3 1.48.61 2.95.91 4.43l.27 1.36.12.66.09.56c.01.08.11.8.07.47.51 3.89.67 7.83.9 11.74.26 4.37.53 8.75 1.09 13.1.5 3.85 1.13 7.73 2.72 11.3 1.69 3.79 5.11 6.42 8.88 7.97 2.72 1.12 7.09 2.3 9.82.58 1.55-.98 1.63-2.73.65-4.12s-1.96-2.63-2.9-3.97c-3.21-4.55-6.09-9.44-7.67-14.81l-3.31 2.54c3.03 1.54 6.23 2.85 9.46 3.91 2.37.78 6.14 2.2 7.92-.32.55-.78.33-2.09-.35-2.73-6.59-6.16-10.43-15.18-13.35-23.64-3.37-9.79-5.65-20-7.05-30.26-.61-4.49-1.04-9.05-1.11-13.59-.05-2.89-4.55-2.9-4.5 0Z"/>
  <path d="M72.28 67.17c-.26 17.63-4.98 62.89-19.72 76.55.8 1.4 11.26-1.39 15.26-3.44-2.95 10.29-11.97 18.57-12.15 19.04-1 2.59 8.95 2.32 14.18-3.64 5.75-6.55 8.96-20.3 4.89-46.17-.58-3.67 4.82-21.69 3.97-25.3" fill="#ae3517"/>
  <path d="M70.03 67.17c-.15 9.73-1.13 19.49-2.59 29.11-1.71 11.26-4.02 22.82-8.49 33.32-1.98 4.66-4.42 9.19-7.99 12.53-.67.63-.91 1.94-.35 2.73 1.78 2.53 5.9 1.31 8.38.75 3.39-.78 6.84-1.81 9.95-3.38l-3.31-2.54c-1.41 4.79-4.08 9.17-7.2 13.05a73.943 73.943 0 0 1-3.39 3.9c-.8.86-1.65 1.65-1.7 2.91-.17 4.23 5.81 3.76 8.45 3.19 4.34-.93 8.17-3.4 10.82-6.94 4.12-5.51 5.45-12.77 5.96-19.47.39-5.1.23-10.24-.2-15.33-.27-3.24-.67-6.46-1.13-9.67-.11-.79-.27-1.59-.36-2.39.09.85.03.1.04-.1.01-.28.02-.56.04-.83.01-.14.03-.29.04-.43 0-.07.09-.74.05-.46.51-3.79 1.67-8.42 2.53-12.5.43-2.03.84-4.07 1.13-6.13.23-1.6.48-3.24.14-4.84-.6-2.83-4.94-1.63-4.34 1.2.11.53.04-.52 0 .1-.01.25 0 .5 0 .75a13 13 0 0 1-.06.88c-.02.16-.12 1.04-.06.62-.23 1.72-.57 3.43-.92 5.13-.76 3.74-1.65 7.47-2.35 11.22-.28 1.51-.55 3.03-.66 4.56-.14 1.95.39 3.92.65 5.84.71 5.34 1.17 10.72 1.19 16.11.01 4.02-.21 8.06-.94 11.93-.3 1.6-.69 3.19-1.19 4.74-.22.7-.47 1.38-.74 2.06-.05.13-.1.26-.16.39.19-.44-.08.17-.1.22-.14.3-.28.6-.43.9-.55 1.09-1.19 2.13-1.9 3.13-.34.47.3-.36-.06.08-.07.09-.14.17-.21.26-.25.3-.51.59-.78.87-.72.74-1.51 1.36-2.39 1.9-1.67 1.02-3.52 1.7-5.45 2.03-.45.07-1.17.14-1.88.11-.17 0-.33-.02-.49-.04-.37-.04.52.12-.02-.02-.1-.03-.21-.05-.31-.08-.37-.11.29.32-.02-.02.28.3.6.48.62 1.16 0 .29-.11.58-.22.78-.04.07-.48.51-.2.27.33-.29.62-.67.92-1 1.24-1.34 2.43-2.71 3.56-4.13 3.49-4.41 6.47-9.25 8.07-14.68.58-1.98-1.62-3.39-3.31-2.54-2.22 1.12-5.07 1.97-7.69 2.64-.72.18-1.45.36-2.19.5-.27.06-.54.11-.82.16-.09.02-.96.15-.65.11-.48.06-.96.09-1.45.1-.42.01-.55-.23-.16.01-.6-.37.85.83.77.72l-.35 2.73c3.41-3.19 5.88-7.34 7.84-11.55 2.42-5.19 4.23-10.65 5.7-16.17 3.07-11.51 4.84-23.39 5.95-35.25.47-5.05.81-10.11.89-15.18.05-2.9-4.45-2.9-4.5 0Z"/>
  <path d="M79.11 158.53c-2.33-20.93-3.69-23.04-4.06-44.09-.39-21.63.13-44-8.25-63.94 7.16 1.91 25.75 10.12 28.44 10.53 2.32.36 20.09-4.96 32.84-5.8 27.59-1.82 42.86 3.95 43.85 3.99 1.13.05 2.21-.43 3.24-.89 6.44-2.92 22.79-10.09 29.23-13.01-2.21 7.93-12.07 31.39-13.15 33.76-3.08 6.75-.5 14.48.62 21.81 2.89 18.85 2.43 37.07-3.05 55.67" fill="#fff"/>
  <path d="M81.36 158.53c-1.3-11.64-3.27-23.19-3.79-34.91-.71-15.87-.01-31.81-2.03-47.61-1.14-8.95-3.1-17.77-6.58-26.12l-2.77 2.77c8.91 2.41 17.29 6.63 25.95 9.76 1.1.4 2.25.87 3.44.87 1.59 0 3.25-.45 4.8-.78 5.54-1.17 11.04-2.51 16.6-3.54 12.81-2.36 26.15-2.47 39.06-.78 3.73.49 7.53 1.2 11.22 2.12 1.99.5 4.01 1.39 6.08 1.02 2.38-.43 4.81-1.91 7.02-2.9 2.46-1.1 4.92-2.19 7.38-3.28 5.02-2.22 10.03-4.43 15.04-6.67.91-.41 1.82-.81 2.72-1.22l-3.31-2.54c-1.45 5.16-3.51 10.17-5.47 15.14a638.24 638.24 0 0 1-3.45 8.57c-.51 1.25-1.03 2.51-1.55 3.76-.22.53-.44 1.06-.67 1.6l-.33.78c-.05.12-.1.25-.16.37.08-.19.09-.21 0-.01-.7 1.65-1.52 3.3-2.1 4.99-1.53 4.52-.98 9.41-.18 14.01s1.72 9.37 2.23 14.13.82 9.92.82 14.89c0 11.19-1.58 22.28-4.72 33.02-.81 2.79 3.53 3.97 4.34 1.2 5.59-19.13 6.23-39.5 2.68-59.08-.82-4.52-2.02-9.15-1.53-13.78.23-2.21 1.1-4.15 1.95-6.16 2.11-4.96 4.16-9.95 6.16-14.95 2.26-5.67 4.66-11.39 6.32-17.27.57-2.04-1.6-3.31-3.31-2.54-9.26 4.19-18.59 8.22-27.86 12.39-1.09.49-2.15.84-3.27 1.2-.57.19.45.16.21.05-.09-.04-.2-.05-.3-.08-.79-.23-1.58-.44-2.37-.65a98.13 98.13 0 0 0-10.17-2.11c-12.58-1.95-25.69-2.26-38.3-.45-6.03.87-11.98 2.2-17.92 3.53-2.1.47-4.2.97-6.32 1.35-.17.03-.35.06-.53.09-.09.02-.62.09-.24.04.32-.04-.39.03-.56.04-.56.05-.02 0 .05.04-.15-.1-.46-.12-.64-.17-3.81-1.13-7.5-2.81-11.18-4.28-4.61-1.84-9.22-3.72-13.94-5.29-.84-.28-1.68-.54-2.53-.77-1.49-.4-3.46 1.12-2.77 2.77 6.12 14.68 7.46 30.61 7.88 46.35.36 13.45.09 26.92 1.74 40.3.85 6.93 1.84 13.84 2.62 20.78.14 1.21.94 2.25 2.25 2.25 1.11 0 2.39-1.03 2.25-2.25Z"/>
  <path d="M132.26 121.32c-1.87-1.68-3.79-3.31-5.58-5.08-1.61-1.6-3.42-3.4-4.31-5.54l-1.57 2.77c6.28-1.95 13.06-2.22 19.59-2.46.35-.01.74 0 1.09-.03.78-.09.31.15.21-.19.01.05-.14.69-.24.94-.59 1.41-1.87 2.63-2.93 3.69-2.43 2.44-5.31 4.31-8.47 5.67-.93.4-1.24 1.66-1.03 2.54.97 4.21 1.24 8.49.89 12.79l2.25-2.25c-3.4.12-6.3 1.96-9 3.87-2.5 1.76-5.07 4-8.17 4.51-1.2.2-1.87 1.68-1.57 2.77.35 1.27 1.56 1.77 2.77 1.57 3.14-.52 5.83-2.53 8.36-4.33 2.2-1.57 4.8-3.79 7.62-3.88 1.29-.04 2.15-1 2.25-2.25.38-4.69 0-9.4-1.05-13.99l-1.03 2.54c3.98-1.71 7.6-4.3 10.48-7.54 1.29-1.45 2.58-3 3.12-4.9.57-2 .15-4.29-1.75-5.42-1.79-1.06-4.31-.59-6.3-.5s-3.95.22-5.91.4c-4.15.37-8.36.88-12.34 2.12-1.05.33-2.05 1.61-1.57 2.77 2.2 5.26 6.92 8.89 11.05 12.6 2.15 1.93 5.34-1.24 3.18-3.18Z"/>
  <path d="M132.31 138.65c.46.03-.48-.12-.05-.01l.42.09c.29.08.57.18.85.29-.56-.21-.08-.03.04.03.15.07.3.15.44.22.31.16.6.34.9.52 1.32.81 2.55 1.75 3.79 2.67 2.39 1.78 4.95 3.73 8.04 3.96 1.18.09 2.3-1.1 2.25-2.25-.06-1.29-.99-2.16-2.25-2.25-.46-.03.48.12.05.01l-.42-.09c-.29-.08-.57-.18-.85-.29.56.21.08.03-.04-.03-.15-.07-.3-.15-.44-.22-.31-.16-.6-.34-.9-.52-1.32-.81-2.55-1.75-3.79-2.67-2.39-1.78-4.95-3.73-8.04-3.96-1.18-.09-2.3 1.1-2.25 2.25.06 1.29.99 2.16 2.25 2.25ZM160.04 115.79a493.79 493.79 0 0 1 61.54-9.55c1.21-.11 2.25-.96 2.25-2.25 0-1.13-1.03-2.36-2.25-2.25-16.39 1.5-32.71 3.78-48.88 6.86-4.63.88-9.25 1.84-13.86 2.85-2.83.62-1.63 4.96 1.2 4.34ZM160.33 122.29c17.05-.58 34.11-.28 51.13.89 2.89.2 2.88-4.3 0-4.5a498.363 498.363 0 0 0-51.13-.89c-2.89.1-2.9 4.6 0 4.5Z"/>
  <path d="M147.87 90.02c-5.18-5.25 13.38-8.84 20.73-8.39 2.06.13 3.39.48 4.43 1.14 3.05 1.91 3.24 6.26.54 8.64-3.45 3.05-8.85 6.71-13.98 5.63-4.22-.89-8.25-3.49-11.72-7.01ZM120.9 90.02c5.18-5.25-13.38-8.84-20.73-8.39-2.06.13-3.39.48-4.43 1.14-3.05 1.91-3.24 6.26-.54 8.64 3.45 3.05 8.85 6.71 13.98 5.63 4.22-.89 8.25-3.49 11.72-7.01Z" fill="#c75b76"/>
  <path d="M149.36 92.14c2.73 4.45 7.64 7.16 12.89 6.34 4.37-.68 7.97-4.16 9-8.43.28-1.18-.37-2.44-1.57-2.77s-2.48.39-2.77 1.57c-.09.37-.19.74-.33 1.1-.24.66.18-.32-.13.3-.08.17-.17.34-.27.5s-.19.33-.3.48c-.03.04-.35.48-.22.33-.08.1-.5.56-.74.79-.31.29-.45.4-.61.51-.32.22-.65.42-.99.59-.48.25-1.21.49-2.03.64-1.14.2-2.96-.04-4.2-.67a9.54 9.54 0 0 1-3.84-3.56c-1.51-2.46-5.41-.21-3.89 2.27Z"/>
  <path fill="#ff0013" d="m107.36 58.5-23.91 61.4 23.75-13.36-17.31 47.98 61.08-80.53-35.39 25.26 25.51-44.28-33.73 3.53z"/>
  <path fill="#00afcc" d="m101.15 59.8-17.7 60.1 25.33-61.4-7.63 1.3zM103.86 108.41l4.61-2.55-18.58 48.66 13.97-46.11z"/>
  <path d="M103.86 117.65c-15.34.94-30.69 1.76-46.02 2.86-4.05.29-8.1.61-12.15.96-1.21.11-2.25.96-2.25 2.25 0 1.13 1.03 2.36 2.25 2.25 15.31-1.35 30.66-2.2 46-3.1 4.06-.24 8.11-.48 12.17-.73 2.88-.18 2.9-4.68 0-4.5ZM94.58 110.13c-8.2.45-16.43.6-24.65.27s-16.26-1.1-24.16-3.04c-2.81-.69-4.01 3.65-1.2 4.34 8.14 2 16.57 2.82 24.93 3.18 8.36.36 16.73.2 25.08-.25 2.88-.16 2.9-4.66 0-4.5ZM95.92 91.86c1.58 4.53 5.88 7.69 10.71 7.37 4.07-.27 8.28-2.04 10.75-5.37.72-.98.16-2.51-.81-3.08-1.15-.67-2.35-.17-3.08.81.28-.37-.27.29-.39.41-.14.14-.3.27-.44.41-.12.11-.21.18-.03.04-.61.47-1.28.85-1.97 1.19-.17.08-.34.17-.52.24.28-.12-.11.04-.21.08-.36.13-.73.26-1.1.36-.41.12-.82.22-1.24.3-.15.03-.3.06-.45.08.42-.07-.28.03-.3.03-.37.03-.73.05-1.1.04-.18 0-.36-.01-.54-.02s-.47-.05-.13 0c-.33-.05-.66-.12-.99-.22 0 0-.56-.19-.28-.08s-.2-.1-.25-.13c-1.43-.76-2.8-2.19-3.31-3.65-.4-1.15-1.54-1.91-2.77-1.57-1.11.31-1.97 1.62-1.57 2.77Z"/>
  <path d="m156.04 63.96-6.11-13.45c6.15 7.78 14.24 8.1 20.98 8.75 0 0 5.87-.16 7.12 5.51 2.4 10.91 8.83 11.1 10.11 22.82 9.02-7.44-4.45-25.15-3.52-32.14.88-6.61 1.23-9.32 1.29-15.98.1-10.99-7.34-22.17-18.34-24.46-10.99-2.3-15.72.38-25.63 5.57.11-13.27-18.25-14.91-24.72-18.34 1.82 3.97 8.71 17.54 4.9 15.24-10.8-6.54-21.62-8.25-27.53-4.09 2.3 2.52 10.56 11.05 7.94 12.03 0 0-23.71-6.31-32.64 14.1l15.79-.54c-3.53 3.26-11.21 7.41-12.3 12.52 0 0 6.51-1.26 7.59 3.47 2.19 9.61-9.98 26.52-9.98 26.52 3.95 4.09 16.47-10.96 18.18-19.58l13.3 5.26c-3.62-5.06-4.28-8.04-4.7-12.88 5.55 9.65 13.58 16.71 30.24 14.8-1.39-2.97-2.84-3.31-3.93-5.66 0 0 4.69.58 10.74 2.25 0 0 1.39-3.38 21.24-1.72Z" fill="#ae3517"/>
  <path d="M157.98 62.82c-2.04-4.48-4.07-8.97-6.11-13.45l-3.53 2.73c3.07 3.82 7.2 6.48 11.9 7.81 3.5.99 7.22 1.35 10.84 1.6l.47.03c.56.02-.29-.07.11.02.29.06.58.12.87.2.17.05.92.34.63.21 1.37.63 2.19 1.5 2.61 3.07.61 2.26 1.22 4.43 2.27 6.54.79 1.59 1.79 3.05 2.82 4.49 1.1 1.52 2.21 3.04 3.07 4.71 1.09 2.11 1.67 4.47 1.95 6.82.23 1.97 2.27 2.92 3.84 1.59 5.31-4.52 3.96-12.04 2.04-17.87-1.05-3.18-2.37-6.26-3.51-9.41-.46-1.28-.9-2.58-1.2-3.91-.06-.27-.11-.54-.16-.82-.08-.44-.02-.07 0 .02-.01-.12-.03-.25-.04-.37-.03-.63 0-1.21.08-1.84 1.09-8.38 2.52-17.53-.63-25.64s-9.23-14.33-17.44-16.34c-4.77-1.17-9.85-1.5-14.64-.3s-9.11 3.69-13.41 5.94l3.39 1.94c-.02-11.25-11.24-15.33-20.22-18.21-1.08-.35-2.16-.69-3.22-1.07-.5-.18-1-.36-1.49-.57.4.17-.07-.03-.21-.1-.23-.11-.46-.22-.68-.34-2.09-1.09-4.01 1.06-3.08 3.08 2.01 4.35 4.51 8.53 5.62 13.11.05.2.08.4.13.6-.1-.47.05-.25-.03 0-.05.14.09-.39.11-.45.42-.97 1.55-1.2 2.04-1.12.05 0 .52.28.22.08-.17-.11-.39-.23-.55-.33-.49-.29-.99-.58-1.49-.85-1.11-.61-2.24-1.19-3.39-1.72-4.1-1.89-8.41-3.29-12.92-3.72-3.96-.37-8.23.18-11.57 2.46-1.23.84-1.48 2.41-.46 3.53 1.76 1.93 3.55 3.82 5.21 5.84.79.96 1.51 1.88 2.16 3.02.13.23.26.46.37.7.14.3-.11-.35-.03-.06.03.09.05.2.09.29.14.31 0-.13.01-.23.05-.27.12-.49.29-.71.07-.09.54-.45.3-.35l1.73-.23c-8.83-2.34-19.59-1.06-26.93 4.53-3.64 2.77-6.4 6.44-8.25 10.61-.65 1.46.08 3.45 1.94 3.39l15.79-.54-1.59-3.84c-4.44 4.03-11.38 7.15-12.87 13.51-.41 1.76 1.07 3.09 2.77 2.77.51-.1-.22 0-.01 0 .42 0 .84-.07 1.27-.07 1.14 0 1.88.08 2.72.62.16.1.53.44.71.85s.27 1.17.29 1.45c.1 1.43-.02 2.7-.28 3.98-1.17 5.8-4.11 11.21-7.21 16.19a68.32 68.32 0 0 1-2.42 3.67c-.57.79-.31 2.08.35 2.73 4.1 4 10-1.61 12.72-4.59 4.02-4.4 7.99-10.06 9.21-15.99l-2.77 1.57c4.43 1.75 8.86 3.51 13.3 5.26 1.79.71 3.64-1.76 2.54-3.31-1.32-1.86-2.59-3.81-3.32-5.98-.63-1.87-.89-3.8-1.07-5.76l-4.19 1.14c2.9 5.01 6.67 9.63 11.76 12.54 6.18 3.53 13.46 4.14 20.42 3.37 1.74-.19 2.74-1.75 1.94-3.39-1.03-2.11-2.91-3.58-3.93-5.66l-1.94 3.39c.34.04-.55-.09-.31-.04.21.04.42.06.63.09.78.12 1.56.25 2.34.4 2.52.47 5.01 1.05 7.48 1.73.86.24 2.16-.13 2.54-1.03.15-.34-.41.49-.24.3.41-.48-.44.19 0-.01.15-.07.31-.16.44-.25.48-.3-.53.16.09-.04.56-.18 1.11-.35 1.69-.48.4-.09.8-.15 1.2-.22.07-.01.69-.1.15-.03.27-.04.55-.07.82-.09 1.22-.13 2.45-.19 3.68-.22 3.83-.1 7.66.12 11.47.44 1.21.1 2.25-1.11 2.25-2.25 0-1.3-1.03-2.15-2.25-2.25-6.12-.5-12.75-1.07-18.8.35-1.38.33-3.74.98-4.38 2.48l2.54-1.03c-3.72-1.02-7.51-1.86-11.33-2.33-1.84-.23-2.61 2.04-1.94 3.39 1.04 2.1 2.9 3.55 3.93 5.66l1.94-3.39c-6.17.68-12.64.39-18.15-2.76-4.44-2.53-7.61-6.54-10.15-10.93-1.06-1.83-4.4-1.16-4.19 1.14s.47 4.72 1.23 6.96c.86 2.56 2.22 4.87 3.78 7.06l2.54-3.31c-4.43-1.75-8.86-3.51-13.3-5.26-1.08-.43-2.54.48-2.77 1.57-.99 4.8-4.06 9.39-7.28 13.12-1.5 1.74-3.24 3.52-4.96 4.62-.4.26-.82.49-1.25.69.4-.18-.57.16-.78.21.64-.15.13.03 0-.02-.59-.22.28.16-.09 0-.39-.16.41.29.04.03-.51-.36.2.22-.09-.07l.35 2.73c2.7-3.76 5.04-7.85 6.97-12.05 1.48-3.22 2.8-6.59 3.32-10.11s.52-7.49-2.48-9.77c-2.21-1.68-5.3-1.87-7.95-1.37l2.77 2.77c.61-2.6 2.92-4.54 4.92-6.18 2.23-1.83 4.66-3.4 6.8-5.35 1.43-1.3.32-3.91-1.59-3.84l-15.79.54 1.94 3.39c2.04-4.6 5.15-8.47 9.52-10.89 1.83-1.01 3.57-1.66 5.71-2.19.98-.24 1.98-.43 2.98-.57.27-.04.01 0-.04 0 .11-.01.22-.03.33-.04.22-.02.44-.05.66-.07.5-.05 1-.08 1.51-.11 1.63-.08 3.27-.05 4.9.08.35.03.7.06 1.05.1.24.03 1.19.16.49.05.51.08 1.02.15 1.53.25s.96.22 1.44.31c2.56.48 3.83-2.19 3.12-4.31-.8-2.37-2.62-4.41-4.2-6.28s-3.1-3.47-4.67-5.19l-.46 3.53c2.93-2.01 6.61-2.23 10.04-1.77 4.76.64 9.34 2.53 13.51 4.86 1.3.73 2.72 1.93 4.32 1.44 1.38-.42 1.96-1.78 1.88-3.11-.15-2.57-1.52-5.18-2.53-7.49-1.2-2.75-2.54-5.44-3.79-8.16l-3.08 3.08c7.1 3.7 16.41 3.89 21.59 10.28.42.52 1.17 1.8 1.41 2.49.46 1.3.6 2.28.6 3.63 0 1.76 1.89 2.73 3.39 1.94 3.55-1.86 7.09-3.89 10.93-5.09 3.51-1.1 7.15-1.23 10.78-.66s7.17 1.77 10.14 4.15 5.1 5.34 6.64 8.7c3.22 7.04 2.15 15.3 1.2 22.74-.2 1.56-.56 3.14-.4 4.73.13 1.27.41 2.51.78 3.74.86 2.84 2.04 5.57 3.08 8.34 1.15 3.04 2.41 6.53 2.7 9.57s-.13 5.34-2.39 7.26l3.84 1.59c-.51-4.44-1.85-8.42-4.41-12.1-2.22-3.19-4.41-6.15-5.45-9.96-.6-2.21-1.13-4.29-2.87-5.92-1.22-1.14-2.76-1.93-4.38-2.3-2.8-.64-5.78-.52-8.62-1.01-5.29-.91-9.72-3.15-13.13-7.38-.69-.86-2.16-.81-2.95-.18-.93.74-1.06 1.85-.58 2.9 2.04 4.48 4.07 8.97 6.11 13.45.5 1.11 2.11 1.38 3.08.81 1.14-.67 1.31-1.97.81-3.08Z"/>
  <path d="M167.56 58.54c-6.61-3.68 4.42-17.81-9.52-24.19 1.4 7.72-.28 11.49-2.49 18.62-.26-5.11-1.15-7.98-3.88-12.31s-7.34-7.69-12.45-7.98c4.5 6.69 5.57 12.79 4.71 20.8-5.11-12.16-10.43-12.91-16.54-18.28.99 6.51 2.22 14.22 5.07 20.16-4.09-1.95-12.44-7.73-16.07-10.44-.05 2.82.72 13.6 5.14 17.15 2.2 1.77 6 2.59 13.27 3.62 0 0 26.75 3.41 19.87-3.8 0 0 14.54-2.42 12.9-3.34Z" fill="#77170e"/>
  <path d="M168.69 56.6c-.12-.07-.69-.53-.28-.16-.17-.15-.33-.31-.47-.48.38.45-.04-.11-.1-.23-.2-.42.11.41-.04-.08-.07-.22-.14-.44-.19-.67-.03-.11-.13-.88-.07-.3-.05-.45-.07-.91-.07-1.37-.01-2.28.33-4.54.35-6.81.02-2.69-.39-5.37-1.62-7.78-1.48-2.89-4.15-4.95-7.03-6.31-1.85-.87-3.65.55-3.31 2.54.5 2.87.62 5.81.04 8.68s-1.63 5.85-2.54 8.74l4.42.6c-.3-5.39-1.79-10.31-5.04-14.69s-8.02-7.46-13.54-7.86c-1.67-.12-2.85 2.01-1.94 3.39 1.92 2.89 3.41 5.96 4.14 9.36s.62 6.88.27 10.3l4.19-1.14c-1.91-4.51-4.44-8.79-8.14-12.05-2.77-2.44-6.01-4.3-8.74-6.69-1.79-1.56-4.1-.02-3.76 2.19 1.08 7.05 2.23 14.19 5.29 20.7l3.08-3.08c-5.7-2.76-11-6.67-16.07-10.44-1.43-1.06-3.37.39-3.39 1.94-.07 5.11.81 10.86 3.21 15.41 2.95 5.59 9.32 6.41 14.99 7.26 2.86.43 5.72.73 8.61.93 3.95.27 8.01.46 11.92-.22 1.7-.29 3.7-.91 4.64-2.48 1.18-1.97.14-4.03-1.26-5.53l-.99 3.76c2.71-.45 5.41-.96 8.09-1.55 1.44-.32 2.92-.63 4.3-1.17.77-.3 1.51-.66 1.95-1.41.7-1.2.21-2.61-.91-3.32-2.45-1.56-4.71 2.33-2.27 3.89-1.07-1.19-1.26-2.2-.56-3.03a.82.82 0 0 1 .32-.32c.11-.21.21-.17.03-.05-.4.26.45-.12-.1.04s-1.08.34-1.62.48c-1.45.38-2.92.69-4.39.99-2 .4-4.01.77-6.02 1.11-1.76.29-2.04 2.64-.99 3.76.12.12.23.25.34.38-.26-.3-.1-.15.04.07.06.11.12.23.19.33.04.06-.16-.5-.06-.08.09.35-.03-.57-.03-.22s.13-.64.02-.22c-.03.13.27-.56.08-.23-.02.04.4-.44.1-.14-.23.22.45-.25.15-.1-.11.05-.23.13-.33.2-.08.05-.47.21-.11.06s-.13.04-.22.07c-.65.19-1.3.33-1.97.43.41-.06.12-.01-.1.01s-.43.05-.64.06c-.42.04-.84.06-1.26.09-.89.04-1.79.06-2.68.06-1.81 0-3.62-.09-5.43-.21-2.11-.14-4.24-.31-6.34-.59.37.05-.47-.07-.59-.09-.44-.07-.89-.13-1.33-.2-.87-.13-1.74-.27-2.6-.43-1.38-.25-2.76-.53-4.11-.92-1.14-.33-1.64-.49-2.54-1.01-.68-.39-1.15-.77-1.69-1.55-1.61-2.31-2.27-5.22-2.75-7.95-.36-2.03-.58-4.21-.56-6.36l-3.39 1.94c5.06 3.77 10.37 7.68 16.07 10.44 2.08 1.01 4.05-1.01 3.08-3.08-2.87-6.1-3.83-13.02-4.84-19.62l-3.76 2.19c2.71 2.36 5.97 4.29 8.54 6.51 3.55 3.06 5.82 7.05 7.64 11.32.38.9 1.67 1.27 2.54 1.03 1.02-.28 1.55-1.17 1.65-2.17.4-3.84.39-7.71-.43-11.49s-2.48-7.26-4.59-10.44l-1.94 3.39c4.09.29 7.81 2.92 10.1 6.24 2.5 3.64 3.74 7.41 3.99 11.8.14 2.52 3.65 3.08 4.42.6.97-3.11 2.11-6.21 2.67-9.43.6-3.49.44-6.9-.17-10.39l-3.31 2.54c1.42.67 2.78 1.45 3.89 2.57.76.77 1.49 1.92 1.8 2.73.85 2.24.81 4.31.66 6.82-.25 4.21-1.17 9.54 3.17 12.07 2.51 1.46 4.77-2.43 2.27-3.89ZM121.8 144.07c6.43-.24 12.87.24 19.3 0 2.89-.11 2.9-4.61 0-4.5-6.43.24-12.87-.24-19.3 0-2.89.11-2.9 4.61 0 4.5Z"/>
  <path d="M33.12 303.58c1.02-1.65 13.34 3.16 26.57 7.05 55.87 16.4 119.5 17.95 172.09-7.05 1.52 4.23 1.52 7.57 1.24 20.05-18.03 1.12-44.81 18.24-55.97 32.44-11.16 14.2-11.81 25.95-23.48 39.73-7.69 9.08-14.24 7.37-21.43 7.43-14.32.12-19.59-20.47-24.15-32.18-6.19-15.9-26.1-34.21-41.17-42.2-10.04-5.31-22-5.22-33.69-6.87 0 0-4.74-10.7 0-18.4Z" fill="#fff"/>
  <path d="M35.06 304.71c-.48.65-.48.6-.96.78.22-.08.43.03-.17 0 .3 0 .59 0 .9.03.6.05-.5-.09.16.03l.64.12c.58.12 1.16.26 1.74.41 2.74.71 5.43 1.58 8.12 2.44 6.83 2.18 13.65 4.36 20.58 6.22 13.35 3.58 26.94 6.25 40.65 7.99 27.45 3.48 55.55 3.03 82.68-2.66 15.02-3.15 29.65-7.99 43.52-14.56l-3.31-1.34c.36 1 .65 2.03.86 3.08.06.3.1.59.15.89.05.34-.05-.38 0-.04l.06.48c.07.68.12 1.36.16 2.04.22 4.32.03 8.67-.06 13l2.25-2.25c-8.51.57-16.72 3.77-24.28 7.55-8.37 4.19-16.26 9.44-23.38 15.5s-12.91 13.15-17.33 21.39c-4.74 8.82-8.14 18.26-14.32 26.26-2.87 3.72-6.21 7.3-10.91 8.48-3.42.86-7.12.43-10.66.42-3-.01-5.78-1.1-8.04-3.06-2.68-2.32-4.6-5.29-6.26-8.41-3.38-6.37-5.29-13.31-8.04-19.94-3.56-8.56-9.53-16.03-15.95-22.63S79.77 333.94 71.65 329c-4.21-2.56-8.64-4.56-13.43-5.77-5.37-1.36-10.91-1.92-16.41-2.5-2.7-.28-5.39-.56-8.08-.93l1.34 1.03c.07.15.23.59 0 0a28.77 28.77 0 0 1-1.5-5.46c-.63-3.6-.41-7.46 1.5-10.65 1.48-2.49-2.4-4.76-3.89-2.27-2.68 4.5-2.82 9.85-1.81 14.86.3 1.5.72 2.98 1.25 4.42.16.43.31.93.54 1.33.74 1.31 2.43 1.24 3.75 1.41 5.96.76 11.97 1.13 17.89 2.2 5.5 1 10.6 2.72 15.43 5.54 8.94 5.22 17.04 12.05 24.08 19.62 3.47 3.73 6.7 7.7 9.43 12.01 2.29 3.61 3.97 7.39 5.42 11.4 2.84 7.83 5.54 16.06 10.77 22.68 2.38 3.02 5.43 5.54 9.11 6.78 1.95.66 3.96.77 6 .79s4 .14 6 .07c4.89-.17 9.24-1.77 12.98-4.97 4.54-3.88 8.07-9.29 10.97-14.47 5.46-9.74 9.05-20.37 16.19-29.13 5.91-7.25 13.52-13.18 21.36-18.21 8.23-5.27 17.25-9.91 26.85-12.06 1.88-.42 3.72-.72 5.63-.85 1.23-.08 2.22-.96 2.25-2.25.1-4.4.3-8.83.05-13.23-.14-2.53-.52-5.02-1.37-7.41-.52-1.45-1.93-2-3.31-1.34-24.97 11.84-52.5 17.59-80.02 18.64s-55.68-2.51-82.54-9.63c-7.73-2.05-15.33-4.52-22.95-6.93-2.74-.87-5.49-1.79-8.31-2.36-2.01-.41-4.27-.78-5.65 1.1-.72.98-.17 2.51.81 3.08 1.14.67 2.36.18 3.08-.81Z"/>
  <path d="M34.42 313.27c22.63 6.82 45.39 13.42 68.82 16.92 26.78 4.01 53.87 3.81 80.57-.73 8.28-1.41 16.83-2.83 24.71-5.8s14.54-6.75 22.21-9.12c2.76-.85 1.58-5.2-1.2-4.34-6.7 2.07-12.92 5.31-19.38 8-6.9 2.87-14.16 4.4-21.47 5.82-13.99 2.71-28.18 4.28-42.43 4.56-24.65.5-49.04-3.09-72.92-9.01-12.68-3.15-25.21-6.87-37.72-10.64-2.78-.84-3.97 3.5-1.2 4.34Z" fill="#ff0013"/>
  <path d="M33.82 312.22c8.82-4.93 20.52-9.66 28.19-3.09 7.22 6.18 5.09 18.02.21 26.18-8.9 14.87-25.17 26.96-25.48 44.29-.23 12.66 4.3 19.27 9.08 30.99 2.95 7.25 4.71 15.86 9.79 29.53-9.13-4.92-18.37-8.13-26.43-14.65-8.42-6.81-16.31-14.64-21.15-24.32-5.85-11.71-7.15-29.14-4.42-41.94 5.41-25.36 16.06-36.81 30.21-46.98" fill="#fff"/>
  <path d="M34.96 314.17c4.94-2.75 10.42-5.47 16.14-5.94 5.07-.41 10.11 1.51 12.26 6.41 1.99 4.53 1.02 9.94-.61 14.41-1.84 5.05-5.19 9.53-8.47 13.73-6.86 8.8-15.08 17.31-18.41 28.23-1.77 5.79-1.71 12-.61 17.91s3.52 11.12 5.89 16.45 4.21 10.29 5.84 15.66c2.01 6.62 4.05 13.21 6.45 19.7l3.31-2.54c-5.43-2.91-11.11-5.33-16.54-8.24s-10.08-6.4-14.58-10.45c-8.22-7.39-15.32-16.11-18.47-26.87-2.96-10.13-3.58-21.4-1.58-31.77 1.88-9.73 5.14-19.4 10.52-27.77 4.89-7.59 11.59-13.67 18.87-18.91.98-.71 1.46-1.96.81-3.08-.57-.97-2.09-1.52-3.08-.81-7.01 5.05-13.48 10.71-18.58 17.74-5.99 8.25-9.7 17.96-12.05 27.82a76.05 76.05 0 0 0-.31 33.83c1.19 5.46 3.12 10.74 5.94 15.57 3.07 5.25 7.02 9.98 11.34 14.24 4.95 4.88 10.36 9.46 16.39 12.95s12.77 6.27 19.04 9.63c1.59.85 4.03-.59 3.31-2.54-3.98-10.75-6.55-22.02-11.06-32.57-2.34-5.49-5.08-10.86-6.56-16.66s-1.74-12.01-.06-17.75c3.2-10.9 11.88-19.41 18.62-28.21 3.48-4.54 6.74-9.29 8.6-14.75s2.41-11.21.28-16.39c-2.58-6.25-8.77-9.72-15.42-9.53s-13.55 3.3-19.49 6.61c-2.53 1.41-.26 5.3 2.27 3.89Z"/>
  <path d="M83.45 156.57C39.68 169.12-1.54 209.1 4.22 233.53c4 16.97 19.19 28.52 34.5 37.91 1.3-5.29 3.83-18.78 3.83-18.78-2.63-2.85-4.24-22.92-2.08-26.14.77-1.15 11.08-14.7 15.88-17.54" fill="#fff"/>
  <path d="M82.86 154.4c-12.4 3.58-24.25 9.09-35.18 15.93-10.25 6.41-19.9 14.03-28.15 22.9-6.76 7.26-12.94 15.57-16.21 25.03-1.28 3.72-2.07 7.73-1.86 11.67.28 5.29 2.32 10.5 4.9 15.07 7.03 12.44 19.31 21.06 31.22 28.39 1.21.75 2.96.05 3.31-1.34 1.3-5.3 2.28-10.68 3.31-16.03.15-.78.31-1.57.45-2.35.02-.13.05-.26.07-.39.07-.4.11-.81 0-1.21-.03-.11-.91-1.63-.42-.78-.08-.14-.17-.27-.25-.41-.04-.08-.27-.57-.13-.25.13.3-.08-.23-.12-.33-.08-.23-.15-.46-.23-.69-.32-1.05-.55-2.12-.76-3.2-.93-4.94-1.36-10.35-1.02-15.53.03-.49.08-.98.13-1.47.04-.35-.06.37 0 .03.01-.09.03-.18.04-.27.05-.24.09-.49.15-.73.04-.16.1-.33.14-.49.1-.42 0-.04-.03.01.11-.17.2-.34.31-.51.36-.54.78-1.05 1.17-1.57s.22-.29.64-.83c.4-.51.8-1.01 1.2-1.52 1.98-2.49 4.02-4.93 6.17-7.28 1.05-1.15 2.13-2.28 3.27-3.35 1.02-.96 1.53-1.42 2.48-2 2.47-1.5.21-5.4-2.27-3.89-3.33 2.02-6.02 5.26-8.55 8.17s-4.99 5.98-7.33 9.08c-1.57 2.08-1.9 4.35-2.05 6.93-.23 4.04.05 8.15.56 12.16.27 2.17.59 4.34 1.13 6.46.4 1.56.91 3.18 1.99 4.42l-.58-2.19c-1.18 6.27-2.32 12.58-3.83 18.78l3.31-1.34c-10.17-6.25-20.58-13.36-27.45-23.33-3.02-4.39-5.44-9.4-6.3-14.69-.11-.69.04.45-.03-.25-.02-.21-.05-.43-.06-.64-.04-.43-.06-.87-.07-1.31a24 24 0 0 1 .09-2.68c.09-1.01.11-1.13.3-2.16s.44-2.06.73-3.06c2.45-8.53 7.93-16.28 13.84-22.96 7.61-8.6 16.55-16.02 26.13-22.32 11.43-7.52 23.88-13.56 37.04-17.36 2.78-.8 1.6-5.14-1.2-4.34Z"/>
  <path d="M183.69 156.57c43.78 12.55 85 52.52 79.24 76.96-4 16.97-19.19 33.52-34.5 42.91-1.3-5.29-3.83-24.78-3.83-24.78 2.63-2.85 4.24-21.92 2.08-25.14-.77-1.15-14.4-16.15-19.19-19" fill="#fff"/>
  <path d="M183.09 158.74c11.8 3.4 23.01 8.62 33.45 15.07 9.91 6.13 19.17 13.39 27.19 21.85 6.32 6.67 12.36 14.51 15.5 23.07 1.33 3.62 2.07 6.89 1.98 10.55-.05 2.06-.3 3.28-.93 5.5-.84 2.96-1.99 5.81-3.38 8.56-6.52 12.85-17.41 23.64-29.61 31.17l3.31 1.34c-1.13-4.66-1.7-9.49-2.39-14.23-.35-2.41-.68-4.81-1.01-7.22-.02-.12-.11-.83-.03-.25l-.09-.66-.12-.94c-.04-.29-.08-.58-.11-.88l-.66 1.59c2.32-2.65 2.66-7.03 3.1-10.36.56-4.22.91-8.59.51-12.84-.14-1.52-.3-3.25-1.11-4.58-.49-.81-1.21-1.53-1.84-2.23-2.68-3.03-5.46-5.97-8.29-8.85-3.04-3.08-6.2-6.55-9.93-8.81-2.48-1.5-4.75 2.39-2.27 3.89.39.23.76.49 1.12.76.41.3-.12-.1.31.24.28.23.56.45.83.69 1.09.93 2.14 1.9 3.18 2.89 2.4 2.28 4.71 4.66 6.99 7.06 1.78 1.88 3.55 3.78 5.25 5.73.23.27.46.53.69.8.51.6-.15-.19.05.06.14.17.25.67.05.04.06.18.12.36.17.54.06.21.1.42.15.64.03.15.15 1.01.09.51.35 2.86.24 5.79.05 8.65-.21 3.07-.53 5.86-1.23 8.87-.14.58-.29 1.16-.47 1.73-.07.23-.16.46-.24.69-.21.62.16-.18-.15.34-.09.15-.18.31-.26.46-.05.11-.29.43.15-.18-.13.18-.31.34-.42.53-.25.43-.3.86-.28 1.33.09 1.97.53 3.98.8 5.93.88 6.4 1.56 12.97 3.09 19.26.34 1.39 2.09 2.09 3.31 1.34 11.63-7.18 22.02-17.13 29.07-28.89 3.06-5.1 5.81-10.91 6.75-16.83.62-3.94.27-7.93-.75-11.78-2.48-9.35-8.27-17.68-14.53-24.9-7.82-9.01-17.14-16.75-27.06-23.35-11.91-7.92-25-14.27-38.76-18.24-2.79-.8-3.98 3.54-1.2 4.34Z"/>
</svg>
