<svg xmlns="http://www.w3.org/2000/svg" viewBox="0 0 262.82 475.8">
  <defs>
    <linearGradient id="a" x1="37.95" y1="372.57" x2="237.93" y2="372.57" gradientUnits="userSpaceOnUse">
      <stop offset="0" stop-opacity=".83"/>
      <stop offset="1"/>
    </linearGradient>
  </defs>
  <path d="M77.42 121.71C51.97 158 46.85 206.23 43 225.47c-6 30.04-13.6 49.28 3.12 136.11 3.89 20.18 13.18 41.18 16.96 53.35 14.78 47.71 25.62 36.3 29.12 34.23 9.3-5.47-.76-51.59 3.77-63.7 7.34-19.64 28.06-19.64 39.98-20.47 18.27-1.28 31.48 1.13 40.35 19.59 4.22 8.78-3.58 75.61 23.62 56.67 5.86-4.08 24.74-56.64 26-63.67 10.06-55.96 11.77-70.47 6.58-126.21-2.03-21.85-4.22-81.32-35.73-127.87" fill="#fff"/>
  <path d="M75.48 120.58c-12.54 17.97-20.43 38.83-25.83 59.95-3.86 15.08-5.99 30.45-9.08 45.68-1.89 9.32-4.04 18.57-5.31 28-1.65 12.27-1.85 24.65-1.16 37 1.14 20.28 4.26 40.45 7.88 60.42 1.18 6.51 2.33 13.03 3.99 19.43 1.56 6.04 3.45 11.98 5.48 17.88 3.48 10.1 7.29 20.07 10.61 30.23 2.88 8.83 6.11 18 11.26 25.8 2.39 3.61 5.54 7.51 9.89 8.76 5.21 1.49 11.6-2.23 13.53-7.07 2.3-5.76 1.91-12.78 1.74-18.85-.23-7.99-.94-15.96-1.31-23.94-.16-3.49-.28-6.99-.15-10.48.1-2.64.18-4.68 1.04-7.14 2.81-8.05 9.49-13.58 17.46-16.11 6.9-2.19 14.16-2.48 21.33-2.94 8.17-.52 17.06-.57 24.45 3.48 3.57 1.96 6.61 4.78 8.98 8.09 1.47 2.06 2.7 4.25 3.85 6.5.57 1.11 0-.3.28.66.09.31.18.61.25.93.08.37.15.74.21 1.11.03.21.06.41.1.62.04.3-.04-.35.03.23.12 1.01.21 2.02.29 3.03.19 2.55.29 5.1.4 7.65.24 6.04.44 12.09.96 18.12s1.17 11.82 2.94 17.44c1.29 4.11 3.37 8.75 7.43 10.79 4.61 2.32 9.85.28 13.79-2.47 3.49-2.43 5.36-7.3 7.11-11.01 3.09-6.56 5.81-13.29 8.44-20.05s5.26-13.91 7.68-20.94c1.45-4.23 3.09-8.53 4.01-12.92 2.35-11.23 4.07-22.66 5.79-34 1.39-9.17 2.56-18.37 3.2-27.62 1.39-20.16-.02-40.35-1.81-60.43-1.34-15-2.41-30.01-4.65-44.91-3.08-20.51-8.1-40.79-16.18-59.93-4.31-10.19-9.48-20-15.66-29.17-1.61-2.39-5.51-.14-3.89 2.27 12.35 18.31 20.54 39.02 25.91 60.37 4.3 17.08 6.75 34.53 8.31 52.05s3.39 35.73 3.92 53.66-.91 35.72-3.62 53.47c-1.69 11.05-3.35 22.21-5.67 33.15-.93 4.4-2.58 8.72-4.04 12.97-4.65 13.52-9.6 27.09-15.73 40.03-1.07 2.26-2.18 4.52-3.48 6.66-.24.4-.49.8-.76 1.19-.1.15-.21.3-.31.44-.29.41.27-.28-.12.15-.19.21-.39.42-.59.62-.42.44.4-.26.01 0-.36.24-.72.49-1.09.72-1.04.65-2.28 1.32-3.12 1.62-.49.18-.99.34-1.5.46-.25.06-.51.11-.76.15.54-.08-.28.02-.41.02-.43 0-.86 0-1.29-.04.57.06-.64-.18-.92-.26-.49-.15.22.13-.13-.04-.19-.09-.38-.19-.57-.3s-.37-.23-.55-.35c-.45-.29.03.05-.2-.15-.34-.3-.67-.61-.98-.96-.14-.15-.27-.31-.4-.47.12.15-.05-.06-.25-.36a21.55 21.55 0 0 1-1.54-2.79c-.19-.4-.1-.21-.2-.45s-.19-.48-.28-.72c-.23-.61-.44-1.23-.63-1.86-.39-1.26-.71-2.54-1-3.83-1.25-5.7-1.73-11.42-2.09-17.3s-.48-11.49-.78-17.23c-.18-3.59-.11-7.72-1.45-11.11-3.12-7.92-9.58-15.17-17.43-18.56s-16.91-3.4-25.45-2.82c-7.11.48-14.31.82-21.16 2.96-8.23 2.57-15.32 7.79-19.2 15.62-2.87 5.79-2.95 11.98-2.79 18.33.2 7.85.9 15.68 1.28 23.52.32 6.5.83 13.65-.64 19.86-.29 1.22-.57 2.07-.97 2.81-.11.21-.24.41-.37.61-.22.35-.12.17-.1.14-.14.16-.29.31-.44.45-.37.35.3-.18-.22.14-.62.39-1.22.82-1.85 1.2-.41.25-.82.46-1.24.68-.63.33.43-.1-.2.08-.25.07-.49.17-.75.24s-.53.11-.79.16c.74-.15-.03 0-.35 0-.28 0-.55-.02-.83-.04.69.04-.17-.04-.51-.13-.21-.06-.97-.33-.71-.22.2.08-.64-.32-.89-.46-.35-.2-.67-.42-1-.65-.42-.29.15.13-.16-.12l-.63-.54c-1.96-1.77-3.26-3.6-4.65-5.84-5.17-8.35-8.33-17.92-11.25-27.23-3.07-9.8-7.01-19.31-10.28-29.03-2-5.94-3.83-11.93-5.3-18.02s-2.59-12.61-3.72-18.94c-1.97-11-3.74-22.04-5.11-33.12-1.87-15.08-3.1-30.32-2.45-45.53.44-10.21 1.81-19.48 3.85-29.49.92-4.49 1.9-8.97 2.81-13.46 1.29-6.42 2.29-12.89 3.45-19.33 3.47-19.17 8.04-38.24 15.53-56.28 4.12-9.92 9.2-19.47 15.35-28.28 1.66-2.38-2.24-4.63-3.89-2.27Z"/>
  <path d="M81.75 138.53a677.122 677.122 0 0 1-4.06-63.01c-.39-21.63.13-44-8.25-63.94 7.16 1.91 25.75 10.12 28.44 10.53 2.32.36 20.09-4.96 32.84-5.8 27.59-1.82 42.86 3.95 43.85 3.99 1.13.05 2.21-.43 3.24-.89 6.44-2.92 22.79-10.09 29.23-13.01-2.21 7.93-12.07 31.39-13.15 33.76-3.08 6.75-1.1 14.6.62 21.81 6.79 28.36 7.37 49.01-3.05 76.25" fill="#fff"/>
  <path d="M84 138.53c-1.93-17.41-3.2-34.9-3.79-52.41-.55-16.33.05-32.79-2.03-49.03-1.14-8.95-3.1-17.77-6.58-26.12l-2.77 2.77c8.91 2.41 17.29 6.63 25.95 9.76 1.1.4 2.25.87 3.44.87 1.59 0 3.25-.45 4.8-.78 5.54-1.17 11.04-2.51 16.6-3.54 12.81-2.36 26.15-2.47 39.06-.78 3.73.49 7.53 1.2 11.22 2.12 1.99.5 4.01 1.39 6.08 1.02 2.38-.43 4.81-1.91 7.02-2.9 2.46-1.1 4.92-2.19 7.38-3.28 5.02-2.22 10.03-4.43 15.04-6.67.91-.41 1.82-.81 2.72-1.22l-3.31-2.54c-1.79 6.37-4.42 12.55-6.88 18.69a869.89 869.89 0 0 1-3.91 9.55l-.75 1.8c-.25.6.11-.26-.04.09l-.18.42c-.11.25-.22.51-.32.76-.27.63-.54 1.25-.82 1.88-2.23 5.09-2.22 10.39-1.32 15.8.95 5.68 2.57 11.24 3.7 16.89 2.03 10.16 3.24 20.49 2.77 30.85-.55 12.09-3.54 23.84-7.83 35.11-.43 1.14.48 2.47 1.57 2.77 1.27.35 2.33-.43 2.77-1.57 3.89-10.22 6.68-20.81 7.68-31.72s.15-20.75-1.57-30.98c-.93-5.53-2.17-11-3.46-16.46-1.23-5.17-2.57-10.79-1.21-16.07.57-2.23 1.67-4.36 2.56-6.48 1.23-2.93 2.44-5.86 3.64-8.8 2.84-6.99 5.9-14.04 7.95-21.32.57-2.04-1.6-3.31-3.31-2.54-9.26 4.19-18.59 8.22-27.86 12.39-1.09.49-2.15.84-3.27 1.2-.57.19.45.16.21.05-.09-.04-.2-.05-.3-.08-.79-.23-1.58-.44-2.37-.65a98.13 98.13 0 0 0-10.17-2.11c-12.58-1.95-25.69-2.26-38.3-.45-6.03.87-11.98 2.2-17.92 3.53-2.1.47-4.2.97-6.32 1.35-.17.03-.35.06-.53.09-.09.02-.62.09-.24.04.32-.04-.39.03-.56.04-.56.05-.02 0 .05.04-.15-.1-.46-.12-.64-.17-3.81-1.13-7.5-2.81-11.18-4.28-4.61-1.84-9.22-3.72-13.94-5.29-.84-.28-1.68-.54-2.53-.77-1.49-.4-3.46 1.12-2.77 2.77 6.12 14.68 7.46 30.61 7.88 46.35.22 8.21.23 16.43.47 24.64.25 8.71.68 17.42 1.27 26.12.66 9.77 1.54 19.52 2.62 29.24.13 1.21.94 2.25 2.25 2.25 1.11 0 2.38-1.03 2.25-2.25Z"/>
  <path d="M134.9 82.4c-1.87-1.68-3.79-3.31-5.58-5.08-1.61-1.6-3.42-3.4-4.31-5.54l-1.57 2.77c6.28-1.95 13.06-2.22 19.59-2.46.35-.01.74 0 1.09-.03.78-.09.31.15.21-.19.01.05-.14.69-.24.94-.59 1.41-1.87 2.63-2.93 3.69-2.43 2.44-5.31 4.31-8.47 5.67-.93.4-1.24 1.66-1.03 2.54.97 4.21 1.24 8.49.89 12.79l.66-1.59c-.51.6-.97 1.24-1.45 1.86-.09.12-.18.24-.28.36-.22.29.25-.31-.15.19-.26.32-.51.64-.78.96a22.6 22.6 0 0 1-2.02 2.13c-.36.34-.74.66-1.13.97.31-.24-.18.13-.25.18-.25.17-.49.34-.75.5-1.93 1.22-4 1.93-6.3 2.05-3.42.19-6.72-.74-9.87-2.03-1.13-.46-2.47.5-2.77 1.57-.35 1.29.44 2.31 1.57 2.77 6.12 2.5 13.1 3.28 19.04-.12 1.94-1.11 3.67-2.61 5.16-4.27.7-.78 1.34-1.6 1.97-2.43.21-.28.43-.56.64-.84l.29-.38c-.43.56-.03.05.06-.07 1.47-1.82 1.05-5.09.95-7.33-.13-2.84-.53-5.68-1.17-8.45l-1.03 2.54c3.98-1.71 7.6-4.3 10.48-7.54 1.29-1.45 2.58-3 3.12-4.9.57-2 .15-4.29-1.75-5.42-1.79-1.06-4.31-.59-6.3-.5s-3.95.22-5.91.4c-4.15.37-8.36.88-12.34 2.12-1.05.33-2.05 1.61-1.57 2.77 2.2 5.26 6.92 8.89 11.05 12.6 2.15 1.93 5.34-1.24 3.18-3.18Z"/>
  <path d="M134.95 99.73c.34.03-.6.03-.2-.02.08 0 .23.06.3.09.3.12-.44-.29-.2-.08.09.08.23.12.33.19.62.4-.1-.16.21.15.19.19.4.36.59.55.95.92 1.82 1.91 2.8 2.8 3.28 2.96 7.21 4.54 11.59 4.98 3.84.38 7.74-.16 11.49-.97 2.83-.61 1.63-4.95-1.2-4.34-3.15.68-6.36 1.09-9.59.87a15.39 15.39 0 0 1-3.29-.55c-.48-.13-.95-.28-1.42-.45-.14-.05-.65-.26-.53-.2.11.05-.45-.21-.58-.27-.77-.38-1.48-.83-2.18-1.32-.1-.07-.19-.14-.28-.21.01.01.31.24.11.09l-.46-.37c-.29-.24-.57-.5-.84-.75-.92-.86-1.74-1.82-2.66-2.68-1.16-1.08-2.4-1.86-4.01-1.99-1.21-.09-2.25 1.1-2.25 2.25 0 1.29 1.03 2.16 2.25 2.25ZM162.67 76.87a493.79 493.79 0 0 1 61.54-9.55c1.21-.11 2.25-.96 2.25-2.25 0-1.13-1.03-2.36-2.25-2.25-16.39 1.5-32.71 3.78-48.88 6.86-4.63.88-9.25 1.84-13.86 2.85-2.83.62-1.63 4.96 1.2 4.34ZM162.97 83.37c17.05-.58 34.11-.28 51.13.89 2.89.2 2.88-4.3 0-4.5a498.363 498.363 0 0 0-51.13-.89c-2.89.1-2.9 4.6 0 4.5ZM106.5 78.73c-15.34.94-30.69 1.76-46.02 2.86-4.05.29-8.1.61-12.15.96-1.21.11-2.25.96-2.25 2.25 0 1.13 1.03 2.36 2.25 2.25 15.31-1.35 30.66-2.2 46-3.1 4.06-.24 8.11-.48 12.17-.73 2.88-.18 2.9-4.68 0-4.5ZM97.22 71.21c-8.2.45-16.43.6-24.65.27s-16.26-1.1-24.16-3.04c-2.81-.69-4.01 3.65-1.2 4.34 8.14 2 16.57 2.82 24.93 3.18 8.36.36 16.73.2 25.08-.25 2.88-.16 2.9-4.66 0-4.5Z"/>
  <path d="M95.85 59.92c.11 2.25 1.41 4.75 2.99 6.36 3.27 3.31 11.35 3.01 14.87.16s3.97-8.1 2.2-12.04c-.95-2.11-2.62-3.45-4.55-4.74-3.41-2.28-9.49-2.02-12.25 1-2.43 2.66-3.49 4.4-3.26 9.25Z" fill="#78c0e7"/>
  <path d="M93.6 59.92c.21 2.99 1.6 6.04 3.8 8.1 1.76 1.64 4.07 2.42 6.42 2.74 4.83.64 10.36-.57 13.28-4.74 3.16-4.51 2.57-11.43-1.1-15.45s-9.31-5.79-14.46-3.97c-2.69.95-4.68 2.86-6.21 5.23s-1.84 5.29-1.72 8.1 4.62 2.9 4.5 0c-.04-.92-.04-2.35.05-2.97.06-.39.14-.78.25-1.16.06-.21.13-.42.21-.63-.15.39.13-.26.17-.34.36-.7.79-1.27 1.09-1.63.61-.73 1.14-1.34 1.79-1.74 1.48-.91 3.24-1.16 5.09-1.02.58.05 1.5.24 2.24.51.25.09.55.23.93.46.54.32 1.08.69 1.57 1.09 3.03 2.39 3.96 6.42 2.5 9.88-.65 1.54-1.62 2.45-3.09 3.13-1.22.57-3.13.89-4.72.9-1.1 0-1.76-.05-2.71-.27-1.13-.26-1.62-.44-2.5-1-.36-.23-.16-.1-.07-.03a5.91 5.91 0 0 1-.68-.64c-.37-.4-.67-.82-.96-1.28-.61-.99-1.09-2.11-1.17-3.27s-.97-2.25-2.25-2.25c-1.15 0-2.33 1.03-2.25 2.25Z"/>
  <path d="M154.76 55.35c-.4 3.44 1.13 6.91 4.1 8.68 2.64 1.58 5.99 2.19 8.74 1.55 6.11-1.42 8.94-7.2 7.54-12.24-1.01-3.63-4.87-5.93-5.73-6.2-4.93-1.6-8.84-1-12.64 2.73-1.24 1.22-1.78 3.54-2.01 5.48Z" fill="#7ea263"/>
  <path d="M152.51 55.35c-.27 2.65.43 5.45 1.99 7.62 1.72 2.38 4.29 3.9 7.12 4.63 5.21 1.35 10.79-.36 13.96-4.8 2.68-3.76 2.97-9.29.26-13.11s-6.68-5.68-11.25-5.63c-3.06.03-5.82 1.21-8.17 3.12-1.29 1.04-2.25 2.18-2.89 3.72-.59 1.43-.83 2.93-1.03 4.46-.15 1.21 1.14 2.25 2.25 2.25 1.34 0 2.1-1.04 2.25-2.25.23-1.86.71-3.38 2.09-4.58 1.26-1.09 2.9-1.93 4.38-2.15 1.92-.28 3.57.26 5.4.71-.71-.17-.15-.05.11.09s.51.3.76.47c.52.35.92.68 1.52 1.3 2.24 2.3 2.5 5.53 1.21 8.06-1.51 2.97-4.76 4.7-8.32 4.28-2.02-.24-4.17-1.07-5.56-2.6s-1.79-3.58-1.59-5.58c.12-1.21-1.12-2.25-2.25-2.25-1.32 0-2.13 1.04-2.25 2.25Z"/>
  <path d="M104.39 59.29c.12 1.39 2 2.27 3.15 1.47s.97-2.87-.29-3.46c-1.57-.74-3.47 1.55-2.4 2.91s3.79-.14 3.14-1.74c-.29-.72-1.83-.27-1.19.17" fill="#fff"/>
  <path d="M102.14 59.29c.03.28.05.57.12.85s.19.52.3.77c.15.35.4.65.64.93s.56.51.85.72c.31.22.68.36 1.04.5.19.07.37.12.57.15.28.04.56.1.85.1s.57-.05.85-.09c.37-.05.72-.21 1.05-.37.09-.04.18-.09.26-.15.23-.16.46-.33.66-.52s.34-.41.5-.62c.06-.08.12-.16.16-.25.13-.24.23-.5.33-.75.04-.09.07-.19.09-.29.18-.76.17-1.49 0-2.24-.08-.36-.24-.72-.41-1.05s-.4-.62-.64-.88a4.669 4.669 0 0 0-.86-.68 4.261 4.261 0 0 0-1.05-.41c-.26-.05-.54-.09-.81-.1-.28 0-.57.05-.85.09-.36.05-.69.21-1.02.36-.26.12-.48.28-.7.46s-.44.34-.62.56c-.48.57-.88 1.18-1.05 1.92-.06.26-.09.54-.12.81 0 .09-.01.19 0 .28.02.35.06.74.19 1.08.22.57.43.95.84 1.41.05.06.11.11.18.17.2.17.41.35.65.48.3.16.63.31.97.37s.72.13 1.09.09c.74-.08 1.4-.24 2.06-.62s1.13-.87 1.52-1.47c.05-.07.08-.14.12-.22.11-.24.23-.48.3-.73s.1-.54.12-.8c0-.09.01-.17 0-.26-.07-1.06-.5-2.08-1.47-2.62-.48-.27-.96-.37-1.5-.4h-.2c-.26.02-.53.04-.78.12-.47.14-.91.37-1.26.72-.61.61-.86 1.51-.64 2.35.05.21.16.44.27.64.23.41.55.64.92.91.26.16.54.25.84.27.3.07.6.05.9-.04.52-.14 1.09-.55 1.34-1.03.28-.52.41-1.15.23-1.73l-.23-.54c-.2-.34-.47-.61-.81-.81l-.03-.02.46.35s-.05-.05-.08-.07l.35.46s-.02-.03-.03-.05l.23.54s-.01-.03-.02-.05l.08.6v-.03l-.08.6s0-.03.01-.05l-.23.54s.02-.03.03-.05l-.35.46.06-.06-.46.35s.09-.06.14-.08l-.54.23c.08-.03.16-.05.25-.07l-.6.08c.1-.01.2-.01.31 0l-.6-.08c.08.01.16.03.24.06l-.54-.23s.09.04.13.07l-.46-.35s.07.06.11.1l-.35-.46s.06.09.08.13l-.23-.54c.04.11.07.21.09.33l-.08-.6c.01.12.01.23 0 .35l.08-.6c-.02.12-.05.23-.09.34l.23-.54c-.06.14-.14.27-.24.4l.35-.46a1.8 1.8 0 0 1-.37.36l.46-.35c-.17.13-.36.24-.56.32l.54-.23c-.19.08-.38.13-.58.16l.6-.08c-.16.02-.31.02-.47 0l.6.08c-.13-.02-.25-.05-.38-.1l.54.23c-.11-.05-.21-.11-.31-.18l.46.35c-.09-.07-.17-.15-.24-.24l.35.46c-.08-.11-.15-.22-.2-.34l.23.54c-.05-.12-.08-.24-.1-.37l.08.6c-.02-.14-.01-.28 0-.41l-.08.6c.03-.18.07-.35.14-.52l-.23.54c.08-.18.18-.36.3-.52l-.35.46c.13-.17.28-.32.45-.46l-.46.35c.15-.11.31-.21.48-.28l-.54.23c.16-.07.32-.11.48-.14l-.6.08c.14-.02.28-.02.42 0l-.6-.08c.12.02.23.05.34.09l-.54-.23c.14.06.27.13.39.22l-.46-.35c.11.09.22.19.31.31l-.35-.46c.11.14.19.29.26.45l-.23-.54c.08.19.13.38.16.59l-.08-.6c.03.22.03.43 0 .65l.08-.6c-.03.19-.08.37-.15.54l.23-.54c-.07.15-.14.28-.24.41l.35-.46c-.08.1-.18.2-.28.28l.46-.35c-.11.08-.23.16-.36.21l.54-.23c-.15.06-.31.11-.48.13l.6-.08c-.17.02-.33.02-.5 0l.6.08c-.21-.03-.41-.08-.61-.17l.54.23c-.18-.08-.35-.18-.51-.3l.46.35c-.14-.11-.27-.24-.39-.38l.35.46c-.1-.13-.18-.27-.25-.43l.23.54c-.05-.13-.09-.26-.11-.4l.08.6v-.08c.01-.31-.05-.6-.19-.87-.09-.28-.25-.52-.47-.72-.39-.39-1.03-.68-1.59-.66s-1.19.22-1.59.66c-.38.41-.72 1.01-.66 1.59ZM160.27 56.95c-.29.87-.21 1.88.24 2.67s1.19 1.28 2.03 1.59c1.2.44 2.69.3 3.89-.02 1.3-.35 2.68-1.05 3.54-2.11.6-.75 1.01-1.53 1.14-2.5.14-1.03-.09-1.98-.52-2.92-.7-1.54-2.17-2.61-3.84-2.88s-3.67-.05-5.16.99c-1.72 1.21-2.75 3.15-2.52 5.29.06.55.2 1.06.47 1.54.19.34.44.65.7.94.46.5 1.03.86 1.65 1.12 1.28.54 2.78.53 4-.19 1.37-.81 2.08-2.31 2.22-3.85.11-1.24-.34-2.69-1.31-3.51-.68-.57-1.48-.92-2.38-.92-1.07 0-1.68.51-2.23 1.3-.67.94-1 2.15-.71 3.29.21.82.87 1.6 1.65 1.94.57.25 1.1.4 1.73.23.52-.14 1.09-.55 1.34-1.03.28-.52.41-1.15.23-1.73-.17-.52-.51-1.11-1.03-1.34-.11-.05-.21-.1-.3-.17l.46.35c-.06-.05-.11-.09-.16-.15l.35.46a.98.98 0 0 1-.13-.22l.23.54c-.02-.06-.04-.12-.05-.18l.08.6a1.71 1.71 0 0 1 0-.32l-.08.6c.03-.15.07-.3.13-.44l-.23.54c.12-.28.27-.54.46-.78l-.35.46s.04-.05.06-.07l-1.59.66c.13-.01.25 0 .38 0l-.6-.08c.09.02.18.04.27.08l-.54-.23c.11.05.2.1.3.17l-.46-.35c.09.07.17.15.25.24l-.35-.46c.1.14.19.28.25.44l-.23-.54c.07.17.11.34.14.53l-.08-.6c.03.25.03.5 0 .75l.08-.6c-.04.27-.11.52-.2.77l.23-.54c-.1.22-.21.43-.36.63l.35-.46c-.1.13-.21.24-.34.34l.46-.35c-.12.09-.25.17-.39.23l.54-.23c-.17.07-.33.12-.51.15l.6-.08c-.2.03-.41.03-.61 0l.6.08c-.24-.03-.46-.09-.68-.18l.54.23c-.22-.1-.43-.22-.63-.37l.46.35c-.17-.14-.33-.3-.47-.48l.35.46a2.98 2.98 0 0 1-.34-.6l.31 1.14c-.05-.38-.05-.77 0-1.15l-.08.6c.04-.29.12-.57.23-.85l-.23.54c.11-.25.25-.49.41-.71l-.35.46c.19-.24.41-.46.66-.65l-.46.35c.28-.21.59-.38.91-.52l-.54.23c.39-.16.79-.26 1.2-.32l-.6.08c.45-.06.9-.06 1.34 0l-.6-.08c.35.05.68.14 1 .27l-.54-.23c.25.11.48.24.7.4l-.46-.35c.15.12.28.25.4.4l-.35-.46c.2.26.35.55.48.85l-.23-.54c.1.25.18.5.22.77l-.08-.6c.03.22.03.44 0 .66l.08-.6c-.03.21-.08.4-.16.59l.23-.54c-.09.22-.21.42-.36.61l.35-.46c-.18.23-.4.44-.63.62l.46-.35c-.34.26-.72.47-1.12.64l.54-.23c-.51.21-1.05.36-1.61.44l.6-.08c-.42.05-.85.07-1.27.01l.6.08c-.24-.03-.47-.09-.69-.18l.54.23c-.12-.05-.22-.11-.33-.19l.46.35c-.07-.06-.14-.12-.2-.2l.35.46a.878.878 0 0 1-.12-.21l.23.54c-.03-.08-.05-.16-.06-.24l.08.6c-.01-.11 0-.21 0-.31l-.08.6c.02-.11.04-.21.08-.31.38-1.12-.43-2.51-1.57-2.77-1.25-.28-2.36.38-2.77 1.57Z"/>
  <path d="M236.15 297c6.81 62.74-15.17 103.68-28.18 150.25-11.6 1.34-16.41.93-28.06.11-1.71-16.41-2.83-58.41-8.5-68.6-8.84-15.86-69.79-17.76-70.76 9.28-.82 23.02-1 58.47-2.18 60.28-1.16 1.79-21.73 6.25-29.16-3.48s-19.97-40.66-22.21-52.7c-8.06-43.29-6.15-60.07-8.62-97.97 0 0 187.57 6.22 197.67 2.83Z" fill="#4c4637"/>
  <path d="M234.65 297c2.33 21.73 1.34 43.6-2.94 65.02-3.73 18.65-9.73 36.7-15.73 54.71-3.32 9.98-6.62 19.98-9.46 30.12l1.45-1.1c-4.65.53-9.32.91-14.01.87s-9.37-.43-14.05-.76l1.5 1.5c-1.44-13.95-1.87-27.99-3.26-41.95-.67-6.73-1.4-13.53-2.94-20.13-.95-4.08-2.23-8.04-5.49-10.85-3.51-3.04-7.99-4.85-12.4-6.12-5.42-1.56-11.08-2.33-16.7-2.56-5.91-.24-11.88.16-17.67 1.34-5.16 1.05-10.37 2.79-14.76 5.76-3.91 2.65-7.12 6.34-8.39 10.96-.83 3-.7 6.19-.8 9.26-.13 4.27-.23 8.55-.33 12.82-.2 8.48-.35 16.96-.59 25.43-.09 3.26-.19 6.51-.35 9.77-.06 1.16-.12 2.32-.2 3.48-.03.47-.07.93-.12 1.39-.02.22-.14 1.19-.09.8-.04.25-.1.5-.13.75-.07.47.08.01.18-.17-.12.22.23-.1 0 0-.12.05-.25.14-.37.21-.1.05-.46.2-.18.09-.22.09-.44.17-.66.24-2.37.8-4.89 1.2-7.38 1.4-6.04.49-13.61.01-17.9-4.87-1.77-2.02-3.11-4.54-4.41-6.88-1.74-3.14-3.32-6.37-4.84-9.62-3.33-7.17-6.32-14.52-8.94-21.98-1.1-3.13-2.14-6.28-3.02-9.48-1.01-3.65-1.63-7.38-2.28-11.11-1.65-9.48-3.02-19.01-3.98-28.58-1.61-16.14-1.89-32.36-2.65-48.55-.22-4.68-.48-9.35-.78-14.02l-1.5 1.5c1.67.06 3.35.11 5.02.16 4.57.15 9.14.29 13.71.43 6.82.21 13.64.41 20.46.61 8.33.24 16.65.48 24.98.7a8441.535 8441.535 0 0 0 55.63 1.32c9.36.19 17.79.33 26.68.44 7.67.1 15.34.17 23.01.18 5.8 0 11.61-.02 17.41-.18 3.36-.09 6.81-.11 10.14-.66.35-.06.69-.12 1.03-.23 1.82-.6 1.04-3.5-.8-2.89-.34.11-.7.17-1.05.23-.11.02-.23.03-.34.05.45-.07.17-.02-.06 0-.31.03-.62.07-.93.1-1.67.15-3.35.23-5.02.3-5.28.21-10.57.25-15.86.27-7.3.03-14.61-.03-21.91-.1-8.6-.09-17.2-.23-25.81-.39-9.3-.17-18.6-.37-27.91-.58s-18.57-.45-27.86-.69c-8.59-.23-17.18-.46-25.77-.71-7.22-.21-14.43-.42-21.65-.64l-15.44-.48c-2.44-.08-4.9-.24-7.34-.24-.11 0-.21 0-.32-.01-.77-.03-1.55.71-1.5 1.5 1.1 16.89 1.31 33.83 2.45 50.72.58 8.58 1.46 17.14 2.63 25.66.71 5.13 1.51 10.24 2.4 15.35.65 3.72 1.25 7.46 2.25 11.11 1.91 7 4.48 13.84 7.21 20.56 2.86 7.05 5.94 14.06 9.57 20.75 1.33 2.45 2.73 4.9 4.42 7.13 2.02 2.69 4.79 4.47 7.95 5.55 5.93 2.02 12.82 1.77 18.87.38 1.52-.35 3.67-.75 4.78-1.96.9-.99.83-2.8.94-4.04.51-6.06.58-12.17.73-18.25.22-8.68.38-17.36.6-26.03.1-4.19.22-8.38.37-12.57.08-2.2.48-4.38 1.44-6.32 4.43-8.99 16.32-12.03 25.47-13.05 5.85-.66 11.79-.61 17.64.09 5.09.61 10.28 1.73 15 3.79 1.87.82 3.85 1.88 5.39 3.09 1.36 1.07 2.43 2.22 3.21 3.71 2.23 4.29 2.93 10.19 3.64 15.12 2.11 14.69 2.72 29.57 3.81 44.36.2 2.69.41 5.38.68 8.06.09.85.62 1.44 1.5 1.5 4.68.33 9.36.72 14.05.76s9.36-.33 14.01-.87c.67-.08 1.25-.41 1.45-1.1 5.07-18.09 11.6-35.73 17.12-53.68 5.85-19.02 10.34-38.45 11.82-58.34.96-12.87.67-25.8-.71-38.63-.2-1.9-3.21-1.92-3 0Z" fill="url(#a)"/>
  <path d="M99.36 442.59c.02 3.19-.24 12.57-.59 13.06-.49.7-8.1 2.53-9.12 2.87-5.86 1.92-9 2.27-13.4 5.57-1.74 1.31-7.57 5.19-12.9 7.33-6.72 2.71-13.79 1.53-17.68.13-5.46-1.96-1.89-9.73-1.16-10.73 5.28-7.18 13.25-9.44 18.52-11.13 1.18-.38 2.28-1.04 3.58-1.31 2.08-.44 5.78-2.21 6.5-.15 2.57 7.4 26.08-5.17 26.23-5.65Z"/>
  <path d="M96.61 442.59c.01 2.27-.05 4.53-.13 6.8-.04 1.24-.09 2.49-.17 3.73-.03.42-.05.85-.09 1.27-.02.18-.06.39-.06.57-.01-.32.19-.59.02-.23-.09.19.75-.99.81-1.14.08-.18.24-.23-.06-.02.1-.07.46-.16-.05.01-.24.08-.47.17-.71.25-1.09.36-2.2.67-3.3.97-2.14.59-4.25 1.19-6.37 1.83-2.92.88-5.88 1.7-8.59 3.14-2.27 1.21-4.28 2.89-6.45 4.26-2.87 1.82-5.88 3.6-9.05 4.83-3.43 1.33-7.08 1.69-10.72 1.29-1.37-.15-2.73-.45-4.04-.84-.58-.17-1.12-.36-1.36-.48-.43-.21.06.12-.28-.18-.09-.08-.17-.17-.25-.26-.25-.28.26.48-.05-.11-.24-.45.04.3-.09-.2-.06-.23-.12-.45-.16-.68.09.49 0 0 0-.22 0-.33.01-.65.04-.97.04-.54-.07.28.04-.24l.15-.71c.13-.52.29-1.03.47-1.53.07-.19.15-.38.22-.57-.18.45-.1.22.05-.08.12-.25.24-.5.39-.73.74-1.15 1.82-2.16 2.82-3.07 2.17-1.97 4.9-3.5 7.5-4.61 2.26-.96 4.86-1.62 7.23-2.53 1.5-.58 2.96-1.05 4.49-1.51.65-.19 1.3-.39 1.97-.54.44-.1.03.09.41-.07.1-.04.32-.14.14-.03-.16-.04-.16-.04-.01 0 .35.1.17-.03-.55-.37-.13-.14-.3-.66-.24-.38s.25.63.4.91c.24.43.57.85.91 1.2.7.7 1.56 1.16 2.49 1.5 1.6.58 3.43.54 5.09.34 4.47-.55 8.7-2.17 12.81-3.94 2.73-1.17 5.6-2.39 8.1-4.02.51-.33 1.03-.69 1.33-1.24 1.7-3.1-3.04-5.88-4.74-2.77.21-.38.4-.47.62-.69.4-.4.28-.18.15-.12-.17.08-.33.21-.49.3-.49.29-.99.56-1.49.82-1.59.84-3.22 1.63-4.86 2.37-.5.22-1 .44-1.51.66s.26-.1-.24.1c-.3.12-.6.25-.91.37-1.07.43-2.16.83-3.25 1.2-1.03.35-2.07.67-3.12.94-.48.12-.96.24-1.45.34-.25.05-.5.1-.76.15-.14.03-.95.14-.58.1.39-.05-.24.02-.34.03-.23.02-.45.04-.68.05-.42.02-.85 0-1.27-.02-.11 0-.23-.02-.34-.03-.02 0 .62.11.32.04-.15-.04-.31-.06-.46-.1-.17-.04-.33-.12-.5-.16.5.11.4.04.02-.02s-.06-.23.11.12c-.06-.13-.25-.2-.33-.33-.04-.07.34.58.08.06-.05-.1-.2-.27.02.08.28.46-.08-.2-.11-.27-.73-1.75-2.39-2.7-4.27-2.66-3.21.07-6.32 1.64-9.3 2.61-2.76.9-5.49 1.79-8.14 2.98-5.28 2.36-10.82 6.29-12.97 11.86-.88 2.28-1.36 4.94-.72 7.35.87 3.27 3.65 4.7 6.69 5.5 3.54.92 7.31 1.23 10.94.77 4.2-.53 8-2.1 11.71-4.09 2.66-1.43 5.26-3.01 7.71-4.78s4.73-2.97 7.55-3.85c2.49-.78 4.97-1.56 7.49-2.23 2.18-.58 4.42-1.1 6.52-1.95 1.2-.49 2.25-1.1 2.62-2.45.23-.84.25-1.79.3-2.65.18-2.58.24-5.16.3-7.74.02-1.08.04-2.17.03-3.25-.02-3.53-5.51-3.54-5.49 0ZM178.7 442.59c-.02 3.19.24 12.57.59 13.06.49.7 8.1 2.53 9.12 2.87 5.86 1.92 9 2.27 13.4 5.57 1.74 1.31 7.57 5.19 12.9 7.33 6.72 2.71 13.79 1.53 17.68.13 5.46-1.96 1.89-9.73 1.16-10.73-5.28-7.18-13.25-9.44-18.52-11.13-1.18-.38-2.28-1.04-3.58-1.31-2.08-.44-5.78-2.21-6.5-.15-2.57 7.4-26.08-5.17-26.23-5.65Z"/>
  <path d="M175.95 442.59c-.01 2.42.06 4.83.14 7.25.07 2.02-.08 4.43.49 6.4.68 2.33 3.64 2.87 5.67 3.45s4.06 1.05 6.05 1.69c2.94.94 6.19 1.67 8.77 2.98s4.58 3.05 6.89 4.51c3.18 2.01 6.5 3.82 10 5.21 3.77 1.5 7.99 1.98 12.02 1.61 3.14-.29 7.03-.79 9.57-2.83 2.27-1.82 2.78-4.77 2.4-7.51-.8-5.8-4.92-10.01-9.72-13.05-2.68-1.7-5.64-2.94-8.63-3.98-2.82-.98-5.65-2.02-8.51-2.86s-7.13-2-8.68 1.72c-.06.14-.12.32-.19.46 0-.01.29-.66.1-.27-.2.41-.11.01.12-.11-.13.07-.2.25-.33.33-.25.15.35-.23.29-.22-.08.01-.15.13-.23.15-.06 0-.69.31-.18.11.46-.18-.11.02-.23.05-.15.03-.31.06-.46.1-.36.12.6-.02-.09 0-.39.01-.78.03-1.18.02-.23 0-.45-.02-.68-.04-.18-.01-1.01-.12-.28-.02-.99-.15-1.97-.35-2.94-.6-2.17-.56-4.29-1.31-6.37-2.14-.27-.11-.53-.22-.8-.32-.58-.23.07.04-.35-.14-.5-.22-1.01-.44-1.51-.66-.89-.4-1.77-.81-2.64-1.24-1.25-.61-2.51-1.24-3.71-1.95-.15-.09-.3-.21-.46-.28-.03-.02-.09-.09-.13-.09.24 0 .78.72.87.88-1.7-3.1-6.45-.33-4.74 2.77.5.91 1.61 1.43 2.48 1.91 1.39.76 2.81 1.46 4.24 2.13 3.92 1.84 7.99 3.56 12.22 4.57 3.44.82 8.11 1.55 10.9-1.25.33-.34.64-.73.88-1.14.12-.2.2-.42.3-.64-.08.19.16-.44.19-.46l-.13.3c-.11.19-.28.33-.49.41-.96.9-.1-.07-.11.14 0 .05-.49.04-.11.06.14 0 .27 0 .41.03-.07 0-.33-.05 0 .02.72.15 1.42.36 2.12.57 2.73.81 5.39 1.79 8.1 2.7s5.08 1.86 7.56 3.35 4.88 3.33 6.39 5.68c.15.23.27.48.39.73.04.09.27.6.11.23s.11.3.16.42c.17.46.32.93.44 1.41.06.23.1.47.16.7.14.61.03-.1.06.36.02.28.04.57.04.85 0 .11-.05.78 0 .47s-.09.34-.11.44-.07.23-.11.33c.14-.37.08-.11-.08.08-.19.24.06-.04.09-.08-.07.09-.16.18-.25.27s-.18.18-.27.25c.05-.04.29-.22.02-.06-.37.23-.81.35-1.48.55-3.04.9-6.21 1.18-9.37.89-3.65-.35-6.99-1.9-10.17-3.64-5.07-2.76-9.45-6.69-14.95-8.58-4.63-1.59-9.41-2.62-14.05-4.15-.21-.07-.41-.14-.62-.21-.09-.03-.18-.07-.27-.1-.46-.15.15.04.19.09-.08-.08-.24-.09-.33-.17.38.33.44.37.73.87.33.56.41.71.29.44-.1-.22.06-.66.02.23 0-.15-.04-.32-.05-.48-.04-.45-.07-.91-.1-1.36-.15-2.52-.22-5.04-.27-7.56-.02-.99-.03-1.98-.03-2.97.02-3.54-5.47-3.54-5.49 0Z"/>
  <path d="M231.05 263.24c.02 7.29 2.04 16.74 2.05 24.03-25.27.27-128.75-.34-193.43-1.51-4.41-.08.31-23.11.31-23.11 9.77-3.92 157.48 1.49 191.07.59ZM78.63 123.99c1.47-1.6 31.94 10.75 48.02 17.43-26.51 37.5-55.13 64.01-84.77 99.09 0 0 4.12-21.03 4.86-27.94 3.38-10.48 34.68-33.66 57.1-63.97-14.1-4.87-21.65-8.02-33.28-10.99 0 0 4.36-9.57 8.09-13.62ZM195.82 124.71c-15.98 4.19-34.15 10.03-50.23 16.7 26.51 37.5 55.13 62.01 84.77 97.09 2.76 3.26-1.12-13.03-1.86-19.94-3.38-10.48-37.68-39.66-60.1-69.97 14.1-4.87 22.87-8.34 34.51-11.3" fill="#cd0008"/>
  <path d="M87.31 252.14c15.28-24.18 37.04-57.95 49.78-80.58 11.62 25.44 35.94 61.02 51.44 82.72-24.37.7-55.92-2.83-80.3-2.13M50.45 194.43c10.96-12.85 36.87-36.95 42.41-43.4-10.88-3.29-16.06-4.69-25.92-7.52-9.86 18.71-16.49 50.92-16.49 50.92ZM208.39 145.48c-9.07 1.13-16.44 4.76-25.3 6.97 13.85 14.76 29.4 27.31 40.24 44.41-.8-16.93-9.23-35.81-16.83-51.58" fill="#352244"/>
  <path d="M134.1 141.54c.16 20.28.18 40.57.07 60.86s-.37 39.84-.76 59.76c-.22 11.52-.49 23.03-.8 34.55-.08 2.9 4.42 2.89 4.5 0a4449.294 4449.294 0 0 0 1.63-120.61c0-11.52-.05-23.04-.14-34.55-.02-2.89-4.52-2.9-4.5 0ZM145.66 239.16c2.9 0 2.9-4.5 0-4.5s-2.9 4.5 0 4.5ZM124.82 238c2.9 0 2.9-4.5 0-4.5s-2.9 4.5 0 4.5ZM121.35 276.1c2.9 0 2.9-4.5 0-4.5s-2.9 4.5 0 4.5ZM150.3 276.1c2.9 0 2.9-4.5 0-4.5s-2.9 4.5 0 4.5Z"/>
  <path d="M235.51 298.75c2.08 42.06-1.63 59.92 25.06 104.2-8.04-2.01-15.95-7.21-23.13-10.81-.63 4.7-9.6 23.48-15.25 21.25-9.5-3.75-9.04-16.56-19.1-19.08-6.72-1.68-14.65 2.58-20.22-.93 5.94-7.17 11.94-14.42 15.4-22.61 4.21-9.97 10.13-59.47 10.37-72.02" fill="#fff"/>
  <path d="M233.26 298.75c.68 13.78.57 27.64 1.96 41.38s4.55 25.7 9.74 37.83c3.87 9.05 8.6 17.7 13.67 26.13l2.54-3.31c-8.12-2.09-15.18-6.85-22.6-10.59-1.14-.58-3.08-.19-3.31 1.34s-.83 3.09-1.41 4.55a48.5 48.5 0 0 1-1.2 2.72c-.53 1.13-1.1 2.24-1.7 3.34-1.09 1.99-2.45 4.21-3.74 5.82-.63.79-1.31 1.54-2.05 2.22-.15.14-.31.27-.47.41-.2.16.03-.03.06-.05-.1.07-.2.15-.31.22-.15.1-.31.2-.46.28-.09.05-.62.29-.34.18.31-.12-.25.06-.33.08-.37.14.39.02.01 0-.14 0-.29 0-.43-.01.5.02.16.03-.1-.09-.99-.45-1.94-1.01-2.74-1.71-1.83-1.6-3.09-3.58-4.32-5.67-2.68-4.52-5.3-9.16-10.44-11.18-3.52-1.39-7.34-1.05-11-.59-3.34.42-7.22 1.21-10.28-.63l.46 3.53c6.17-7.44 13.01-15.24 16.32-24.48 1.59-4.43 2.37-9.21 3.21-13.82 2.47-13.71 4.22-27.58 5.64-41.44.56-5.47 1.15-10.97 1.26-16.47.06-2.9-4.44-2.9-4.5 0-.09 4.62-.56 9.25-1 13.85-.65 6.71-1.43 13.41-2.3 20.09s-1.83 13.38-2.97 20.04c-.86 5.01-1.72 10.07-3.17 14.95-1.05 3.55-2.87 6.76-4.88 9.93-3.2 5.02-7.01 9.61-10.8 14.18-.92 1.11-.88 2.73.46 3.53 3.11 1.87 6.73 1.91 10.24 1.52s6.98-1.19 10.34-.41c5.19 1.21 7.35 6.07 9.89 10.28 1.4 2.31 2.98 4.62 5.1 6.34 1.94 1.57 4.44 3.2 7.05 2.63 4.31-.93 7.36-5.95 9.44-9.43 1.45-2.42 2.71-4.95 3.82-7.54.81-1.9 1.71-3.92 2.01-5.98l-3.31 1.34c7.76 3.91 15.16 8.85 23.67 11.04 1.87.48 3.57-1.59 2.54-3.31-8-13.3-15.24-27.24-19.29-42.28-3.19-11.82-4.09-23.94-4.55-36.14-.31-8.22-.51-16.44-.91-24.65-.14-2.88-4.64-2.9-4.5 0Z"/>
  <path d="M191 386.86c-.76 1.01-4.73 4.77-4.46 5.28.51.96 6.47.02 7.79-.13 12.6-1.42 15.54 4.3 15.87 4.06.38-.28 6.97-45.06 6.11-46.35-6.56 10.4-17.42 26.59-25.32 37.14Z" fill="#352244"/>
  <path d="M216.17 298.75c1.17 14.16 1.22 30.38 1.99 45.96.71 14.19-4.48 49.67-5.39 54.25 0 0 3.43 7.29 7.49 10.59 2.49 2.03 3.15 4.02 7.54-2.02 9.66-13.28-1.19-32.5-2.68-48.86-2.01-21.99-1.49-60.47-2.27-59.92" fill="#cd0008"/>
  <path d="M249.91 388.83c-10.86-12.5-20.86-28.03-23.26-42.71 4.66 2.88 8.67 6.15 11.43 10.88 0 0 3.99 14.58 8.12 23.48" fill="#352244"/>
  <path d="M236.63 349.73c-3.79-4.23-5-3.66-9.71-8.45 4.12-.21 7.81-2.91 8.18-2.64.44.33-.03.76.53 4.99" fill="#cd0008"/>
  <path d="M234.18 327.67c.03-10.48-.44-28.28-.57-29.31-.03-.23-5.87.39-9.31.38l9.88 28.93Z" fill="#352244"/>
  <path d="M63.26 152.1c1.62 6.03 8.21 26.9 12.72 31.23 14.47 13.87 31.13 73.08 11.31 76.07-9.3 1.4-13.95-19.54-15.04-25.79-2.28-13-19.44-20.78-25.14-25.51" fill="#fff"/>
  <path d="M61.09 152.7c1.73 6.4 3.87 12.73 6.28 18.9 1.29 3.29 2.64 6.6 4.38 9.67 1.22 2.15 2.88 3.73 4.44 5.6.18.21.35.43.53.65.26.33.05.06 0 0 .1.13.2.26.29.39.38.51.75 1.03 1.11 1.56.78 1.15 1.5 2.32 2.19 3.52 1.52 2.63 2.86 5.37 4.1 8.15 2.69 6.08 4.93 12.75 6.62 19.34s2.82 12.66 3.06 19.19c.05 1.43.06 2.86 0 4.28-.03.65-.07 1.3-.13 1.96-.03.31-.06.63-.1.94-.01.11-.07.57-.01.12l-.09.6c-.19 1.16-.44 2.31-.79 3.43-.15.48-.32.94-.5 1.41.22-.56-.13.27-.18.38-.12.24-.24.49-.38.72-.23.41-.49.8-.76 1.19-.22.32.04-.05.07-.09-.08.1-.16.2-.24.29-.18.2-.36.4-.56.6-.14.14-.29.26-.43.4-.45.42.29-.15-.24.18-.37.23-.75.44-1.13.65-.43.24.37-.13.06-.02-.12.04-.23.09-.35.13-.19.06-.38.13-.58.18-.25.07-.5.12-.76.17-.11.02-.4.05.08 0-.2.02-.4.04-.6.04h-.39c-.6 0 .29.07-.07 0-.28-.05-.56-.13-.83-.21-.57-.17-.02.05-.44-.19-.32-.18-.63-.36-.94-.58-.06-.04-.33-.26-.04-.03-.11-.09-.22-.18-.32-.28-.27-.25-.53-.5-.78-.77-.55-.59-.71-.81-1.1-1.38-.93-1.35-1.71-2.81-2.39-4.3-1.32-2.87-2.33-6.1-3.17-9.25-.69-2.59-1.16-5.21-1.72-7.83-.82-3.85-2.9-7.3-5.42-10.28-4.8-5.68-11.27-9.56-17.39-13.64-.56-.37-1.11-.75-1.66-1.14-.25-.17-.49-.35-.73-.53-.35-.26-.06-.04 0 0-.14-.11-.28-.22-.41-.33-.94-.77-2.26-.92-3.18 0-.8.8-.94 2.41 0 3.18 5.32 4.38 11.58 7.41 16.71 12.07 2.78 2.52 5.39 5.46 6.85 8.97 1.07 2.59 1.33 5.5 1.97 8.22 1.53 6.53 3.59 13.68 8 18.9 1.88 2.23 4.62 4.02 7.64 3.87 2.43-.12 4.72-1.11 6.55-2.7 3.73-3.23 4.84-8.65 5.24-13.33.55-6.45-.3-13.02-1.52-19.35-1.34-6.96-3.32-13.82-5.8-20.46-2.28-6.09-4.94-12.15-8.46-17.63-1.37-2.13-2.88-4.22-4.66-6.04-.35-.36-.71-.7-1.04-1.08s.11.21-.24-.33c-.2-.31-.41-.61-.61-.93-.82-1.32-1.52-2.72-2.18-4.13-3.12-6.66-5.44-13.75-7.56-20.79-.34-1.14-.68-2.28-.99-3.43-.75-2.79-5.1-1.61-4.34 1.2Z"/>
  <path d="M50.28 197.64c7.13.33 12.26 2.66 19.38 2.99-3.35-12.7-5.1-27.29-9.22-39.75" fill="#cd0008"/>
  <path d="M47.14 206.92c29.39 14.85 25.55 24.84 28.36 31.37 4.37-2.31 17.06-8.23 17.52-9.43.38-.99.13-2.08-.09-3.12-5.62-25.65-11.69-33.51-21-43.92 2.95 12.61 5.08 18.82 6.15 31.32a94.153 94.153 0 0 0-30.9-8l-.03 1.78Z" fill="#352244"/>
  <path d="M210.7 152.1c-1.62 6.03-8.21 26.9-12.72 31.23-14.47 13.87-31.13 73.08-11.31 76.07 9.3 1.4 13.95-19.54 15.04-25.79 2.28-13 19.44-20.78 25.14-25.51" fill="#fff"/>
  <path d="M208.53 151.5c-1.78 6.6-3.99 13.13-6.51 19.48-1.22 3.06-2.51 6.17-4.27 8.97-.18.28-.37.56-.55.84-.07.1-.14.2-.22.3.27-.37.09-.12.03-.04-.34.41-.72.77-1.09 1.15-.91.93-1.72 1.93-2.51 2.96-3.62 4.73-6.28 10.17-8.59 15.63-2.81 6.64-5.07 13.51-6.75 20.52-1.57 6.57-2.71 13.35-2.76 20.12-.03 5.05.44 10.83 3.32 15.15s8.2 6.6 12.91 4.07c2.83-1.52 4.82-4.44 6.27-7.21 1.66-3.16 2.88-6.56 3.88-9.98a86.09 86.09 0 0 0 2-8.36c.65-3.44 1.87-6.42 4.05-9.19 4.61-5.85 11.17-9.64 17.26-13.73 1.17-.79 2.32-1.6 3.41-2.5.94-.77.8-2.38 0-3.18-.93-.93-2.24-.77-3.18 0l-.34.28c-.29.22.43-.32-.06.05-.21.16-.43.32-.65.47-.61.43-1.22.85-1.84 1.26-1.34.89-2.7 1.76-4.05 2.65-3.23 2.13-6.41 4.37-9.31 6.94s-5.57 5.52-7.37 8.95c-1.5 2.85-2.02 5.82-2.69 8.92-1.32 6.13-2.99 12.6-6.57 17.77-.41.59-.55.78-1.1 1.38-.22.24-.46.47-.7.7-.13.12-.26.24-.4.35.29-.24-.12.09-.2.14-.22.15-.45.28-.68.42 0 0-.57.27-.26.14s-.27.1-.27.09c-.25.07-.49.14-.74.19-.59.13.3 0-.07 0-.2 0-.39.01-.58.01-.17 0-.33-.02-.5-.04.07 0 .46.08.08 0-.23-.05-.46-.09-.68-.15s-.44-.13-.65-.2c-.1-.03-.19-.07-.28-.1-.45-.16.39.2 0 0s-.76-.43-1.13-.65c-.52-.32.19.21-.18-.13-.2-.18-.4-.35-.59-.55-.14-.14-.27-.29-.4-.43-.08-.09-.16-.19-.24-.29-.21-.25.31.46.03.03s-.56-.82-.8-1.26c-.12-.21-.23-.43-.34-.65-.05-.11-.34-.76-.23-.5s-.16-.42-.2-.54c-.1-.28-.19-.56-.28-.84-.36-1.16-.6-2.35-.79-3.54l-.06-.4c.06.43.01.07 0-.01-.04-.35-.08-.7-.11-1.05-.06-.69-.11-1.38-.14-2.07-.26-6.35.61-12.33 1.91-18.46 1.46-6.84 3.5-13.58 6.05-20.09 2.1-5.37 4.69-10.91 8.02-15.82.83-1.22 1.25-1.79 1.98-2.66.68-.81 1.46-1.52 2.16-2.31 1.94-2.2 3.23-4.98 4.41-7.63 3.01-6.73 5.4-13.77 7.52-20.82.33-1.1.66-2.21.96-3.33.76-2.8-3.58-3.99-4.34-1.2Z"/>
  <path d="M223.68 197.64c-7.13.33-12.26 2.66-19.38 2.99 3.35-12.7 5.1-27.29 9.22-39.75" fill="#cd0008"/>
  <path d="M226.81 206.92c-29.39 14.85-25.55 24.84-28.36 31.37-4.37-2.31-17.06-8.23-17.52-9.43-.38-.99-.13-2.08.09-3.12 5.62-25.65 11.69-33.51 21-43.92-2.95 12.61-5.08 18.82-6.15 31.32 9.75-4.4 20.25-7.12 30.9-8l.03 1.78ZM214.06 298.75c0 8.25-.73 17.2-1.16 25.63 0 0-1.85 6.14-7.57 23.47.75-3.68 1.27-7.2 1.65-10.78 1.33-12.61 3.07-24.57 3.67-38.32" fill="#352244"/>
  <path d="M205.33 347.86c3.11-1.55 6.5-3.64 9.61-5.19-3.06 4.38-9.01 16.98-12.73 20.81" fill="#cd0008"/>
  <path d="M33.32 298.75c-2.08 42.06 1.63 59.92-25.06 104.2 8.04-2.01 15.95-7.21 23.13-10.81.63 4.7 9.6 23.48 15.25 21.25 9.5-3.75 9.04-16.56 19.1-19.08 6.72-1.68 14.65 2.58 20.22-.93-5.94-7.17-11.94-14.42-15.4-22.61-4.21-9.97-10.13-59.47-10.37-72.02" fill="#fff"/>
  <path d="M31.07 298.75c-.67 13.63-.58 27.34-1.91 40.94-1.23 12.52-4.32 24.75-9.31 36.34-3.84 8.93-8.52 17.47-13.53 25.79-1.03 1.71.67 3.79 2.54 3.31 8.51-2.19 15.91-7.13 23.67-11.04l-3.31-1.34c.24 1.68.91 3.32 1.55 4.88.97 2.37 2.06 4.68 3.29 6.92s2.71 4.55 4.37 6.61c1.26 1.56 2.77 3.14 4.61 4.01 5.06 2.38 9.98-2.96 12.53-6.77 2.68-4.01 4.55-9.36 9.17-11.39 3.36-1.48 7.27-.75 10.77-.32 3.94.49 8.04.76 11.58-1.36 1.33-.8 1.38-2.42.46-3.53-3.37-4.06-6.74-8.12-9.7-12.5-2.18-3.23-4.37-6.76-5.59-10.37-1.53-4.5-2.34-9.29-3.17-13.97-2.36-13.24-4.05-26.62-5.42-40-.55-5.38-1.13-10.79-1.24-16.2-.06-2.89-4.56-2.9-4.5 0 .1 4.71.57 9.42 1.03 14.1.67 6.83 1.46 13.64 2.35 20.44s1.91 14.04 3.12 21.03c.86 5.02 1.72 10.11 3.23 14.99 1.22 3.96 3.32 7.67 5.57 11.13 3.33 5.12 7.25 9.83 11.14 14.53l.46-3.53c-2.68 1.61-5.96 1.16-8.92.8-3.46-.42-6.93-.93-10.39-.18-5.46 1.19-8.73 5.52-11.4 10.08-1.21 2.06-2.37 4.23-3.94 5.99-.79.89-1.65 1.69-2.65 2.31-.47.29-.96.55-1.46.78-.14.06-.29.08-.43.13.35-.13.29-.07-.04-.02-.41.06.09.03.01 0-.17-.06-.35-.1-.52-.15.37.12.14.08-.07-.05-.18-.11-.36-.21-.54-.32-.11-.07-.57-.4-.25-.16-.16-.13-.32-.26-.47-.4-.39-.34-.75-.71-1.11-1.09-1.49-1.61-2.68-3.43-3.86-5.42-1.36-2.31-2.59-4.71-3.62-7.18-.23-.54-.72-1.83-1.01-2.69-.25-.76-.48-1.54-.6-2.33-.22-1.54-2.16-1.92-3.31-1.34-7.41 3.74-14.47 8.5-22.6 10.59l2.54 3.31c8.16-13.57 15.54-27.86 19.71-43.21 3.29-12.13 4.26-24.65 4.74-37.16.32-8.32.51-16.65.92-24.97.14-2.89-4.36-2.89-4.5 0Z"/>
  <path d="M77.82 386.86c.76 1.01 4.73 4.77 4.46 5.28-.51.96-6.47.02-7.79-.13-12.6-1.42-15.54 4.3-15.87 4.06-.38-.28-6.97-45.06-6.11-46.35 6.56 10.4 17.42 26.59 25.32 37.14Z" fill="#352244"/>
  <path d="M52.66 298.75c-1.17 14.16-1.22 30.38-1.99 45.96-.71 14.19 4.48 49.67 5.39 54.25 0 0-3.43 7.29-7.49 10.59-2.49 2.03-3.15 4.02-7.54-2.02-9.66-13.28 1.19-32.5 2.68-48.86 2.01-21.99 1.49-60.47 2.27-59.92" fill="#cd0008"/>
  <path d="M18.92 388.83c10.86-12.5 20.86-28.03 23.26-42.71-4.66 2.88-8.67 6.15-11.43 10.88 0 0-3.99 14.58-8.12 23.48" fill="#352244"/>
  <path d="M32.19 349.73c3.79-4.23 5-3.66 9.71-8.45-4.12-.21-7.81-2.91-8.18-2.64-.44.33.03.76-.53 4.99" fill="#cd0008"/>
  <path d="M34.64 327.67c-.03-10.48.44-28.28.57-29.31.03-.23 5.87.39 9.31.38l-9.88 28.93ZM54.77 298.75c0 8.25.73 17.2 1.16 25.63 0 0 1.85 6.14 7.57 23.47-.75-3.68-1.27-7.2-1.65-10.78-1.33-12.61-3.07-24.57-3.67-38.32" fill="#352244"/>
  <path d="M63.5 347.86c-3.11-1.55-6.5-3.64-9.61-5.19 3.06 4.38 9.01 16.98 12.73 20.81" fill="#cd0008"/>
  <path d="M36.46 273.3C22.3 283.48 2.39 295.42 2.25 325.28c-.09 19.08 15.96 30.48 21.82 42.19 0 0 8.36-23.84 6.66-29.83-4.73-16.67 25.24-26.39 34.14-41.25 4.88-8.15 7.01-19.99-.21-26.18-7.67-6.57-19.37-1.84-28.19 3.09" fill="#fff"/>
  <path d="M35.32 271.36c-11.05 7.93-22.45 15.75-29.09 28.03-4.15 7.7-6.07 16.35-6.23 25.07s2.91 16.74 7.67 23.92 10.7 12.83 14.44 20.23c.94 1.85 3.52 1.16 4.11-.54 2.31-6.58 4.38-13.31 5.84-20.13.78-3.63 1.65-7.58.72-11.26-.45-1.77-.44-3.47.04-5.21s1.37-3.38 2.62-5.09c2.59-3.53 6.62-6.77 10.25-9.57 4.21-3.25 8.56-6.33 12.6-9.8 3.81-3.27 7.29-6.94 9.59-11.45 2.78-5.46 4.4-11.79 3.34-17.91s-5.77-11.25-11.95-12.52c-6.69-1.37-13.54 1.05-19.51 3.91-1.51.72-2.98 1.5-4.44 2.31-2.53 1.41-.26 5.3 2.27 3.89 5.33-2.97 11.35-5.94 17.58-6.01 5.61-.05 10.3 3.26 11.55 8.82s-.55 11.18-3.05 15.85c-2.19 4.08-5.43 7.28-9.01 10.31-3.88 3.28-8.03 6.22-12.04 9.33-3.71 2.88-7.43 5.89-10.33 9.61-2.6 3.33-4.55 7.31-4.31 11.64.06 1.12.26 2.23.53 3.32.04.17.19.92.15.61-.05-.37 0 .14.01.23 0 .19.02.39.02.58.01.81-.05 1.62-.13 2.42-.06.6-.07.6-.12.96-.08.52-.16 1.03-.26 1.55-1.36 7.52-3.96 14.64-6.13 21.93-.05.16-.11.31-.16.46l4.11-.54c-3.18-6.28-8.16-11.48-12.28-17.13-4.57-6.26-8.5-13.24-9.13-21.11s.9-16.83 4.4-24.2c2.94-6.2 7.22-11.52 12.25-16.14s10.71-8.46 16.35-12.5c.99-.71 1.46-1.96.81-3.08-.57-.97-2.09-1.52-3.08-.81ZM121.34 42.15c-10.46-6.21-26.41-6.83-34.06 4.13-.7 1-.18 2.5.81 3.08 1.12.66 2.38.19 3.08-.81 2.67-3.82 7.36-5.83 11.88-6.29 5.59-.57 11.23.92 16.02 3.77 2.5 1.48 4.76-2.41 2.27-3.89ZM151.15 46.2c4.63-2.91 9.82-4.51 15.32-4.22s10.67 2.49 15.25 5.46c2.44 1.58 4.69-2.31 2.27-3.89-5.25-3.41-11.22-5.74-17.52-6.08s-12.34 1.54-17.59 4.83c-2.45 1.54-.19 5.43 2.27 3.89Z"/>
  <path d="M105.41 28.11c-3.91-4.07-7.32-5.61-10.12-10.51-.76-1.32-1.49-2.84-1.1-4.31.69-2.55 4.08-3.07 6.7-2.76s5.73.78 7.52-1.17c.65-.71 2.01-1.64 2.59-2.4 2.01-2.63 5.95-2.58 9.21-1.99s8.16 1.72 10.66-.44c4.79-4.13 8.75-1.51 11.04.5 2.45 2.15 8.07 1.16 10.5-.97 1.4-1.22 6.43-2.76 9.89-1.1 2.3 1.1 3.52 3.94 6.21 4.42 2.14.39 5.26-.73 7.41-1.06 3.18-.47 7.39.38 6.26 5.46-1.41 6.34-9.31 13.79-10.63 14.76-1.03.76-45.48 5.36-66.15 1.58" fill="#ae3517"/>
  <path d="M107 26.52c-2.86-2.93-6.52-5.21-8.86-8.61-.65-.95-2.58-3.45-1.49-4.48.99-.94 3.01-.77 4.26-.64 2.02.21 4.07.52 6.07-.04s3.59-2.18 5.07-3.59c.59-.56 1-1.23 1.72-1.64.68-.38 1.48-.54 2.25-.6 1.82-.14 3.58.22 5.36.54 1.97.35 4.02.7 6.03.55 2.15-.16 3.68-.86 5.37-2.14 1.44-1.09 3.1-1.63 4.84-.99 1.41.51 2.23 1.44 3.38 2.25 3.09 2.19 7.69 1.46 10.89-.06.8-.38 1.42-.91 2.13-1.42-.4.29.36-.18.45-.23.29-.15.57-.25.93-.37 1.68-.55 3.59-.83 5.31-.31 1.56.47 2.49 1.89 3.68 2.9 1.65 1.4 3.51 2.19 5.71 2.04s4.26-.92 6.43-1.19c.78-.1 2.26 0 2.91.36.35.2.52.39.57.58.16.62.13 1.3-.05 2.03-.4 1.6-1.17 3.06-2.04 4.46-1.75 2.8-3.96 5.32-6.34 7.6-.36.34-.72.67-1.09 1-.84.75.27-.31.39-.12-.01-.02-.85.19-.91.2l-.76.12c-.15.02-.3.04-.45.07-.1.01-.73.1-.33.05s-.15.02-.26.03c-.2.03-.4.05-.6.08l-1.5.18c-5.31.61-10.65 1.04-15.98 1.39-13.4.89-27.11 1.55-40.48-.04-1.14-.14-2.26-.3-3.59-.54-1.19-.22-2.43.33-2.77 1.57-.3 1.09.37 2.55 1.57 2.77 6.6 1.2 13.36 1.48 20.06 1.55 7.45.08 14.91-.19 22.35-.63 5.98-.35 11.95-.82 17.91-1.47 1.86-.2 3.72-.42 5.57-.71 1.26-.2 2.08-.54 3.07-1.41 2.5-2.19 4.71-4.75 6.67-7.42 2.28-3.11 4.76-7.28 4.05-11.3-.65-3.7-4.47-5.15-7.84-4.9-2.14.16-4.17.96-6.3 1.18-1.96.2-2.87-.74-4.19-2.04-1.61-1.58-3.37-2.67-5.63-2.99s-4.43-.07-6.49.63c-.77.26-1.57.58-2.27 1.01-.77.48-1.2.95-2.03 1.35-1.38.67-3.13 1.02-4.67.83s-2.33-1.26-3.68-2.15C139.76.74 137.78.03 135.8.1c-1.01.04-2.01.25-2.95.62-1.38.55-2.33 1.44-3.55 2.22-1.42.91-3.48.66-5.06.45-4.14-.53-8.3-1.88-12.31.02-.86.41-1.65 1-2.29 1.7-.73.81-1.54 1.48-2.34 2.22-.65.59-1.06 1.03-1.96 1.19-1.08.18-2.26.02-3.34-.1-3.81-.42-9.17-.01-10.05 4.68-.48 2.55.91 5.05 2.31 7.08 1.31 1.9 2.89 3.54 4.63 5.05s3.38 2.87 4.94 4.47c2.02 2.08 5.2-1.11 3.18-3.18Z"/>
  <path d="M136.53 131.53c4.63-5.47 8.87-9.32 11.09-14.71-7.86-.28-15.78-.37-23.5 1.13 3.98 4.59 7.33 9.36 12.41 13.58" fill="#ae3517"/>
  <path d="M138.12 133.13c4.24-4.99 9.08-9.57 11.67-15.7.6-1.42-.88-2.8-2.17-2.85-8.06-.28-16.14-.3-24.1 1.21-1.79.34-2 2.59-.99 3.76 4.02 4.66 7.67 9.61 12.41 13.58.93.78 2.27.91 3.18 0 .8-.8.94-2.4 0-3.18-4.74-3.97-8.39-8.92-12.41-13.58l-.99 3.76c7.54-1.43 15.26-1.32 22.9-1.05l-2.17-2.85c-2.24 5.31-6.84 9.4-10.51 13.71-.79.93-.91 2.27 0 3.18.81.81 2.39.93 3.18 0Z"/>
</svg>