<svg xmlns="http://www.w3.org/2000/svg" xmlns:xlink="http://www.w3.org/1999/xlink" viewBox="0 0 433.28 539.48">
  <defs>
    <linearGradient id="a" x1="140.81" y1="458.21" x2="207.89" y2="458.21" gradientUnits="userSpaceOnUse">
      <stop offset="0" stop-opacity=".83"/>
      <stop offset="1"/>
    </linearGradient>
    <linearGradient id="b" x1="184.73" y1="440.72" x2="192.47" y2="440.72" xlink:href="#a"/>
    <linearGradient id="c" x1="182.35" y1="403.43" x2="189.37" y2="403.43" xlink:href="#a"/>
    <linearGradient id="d" x1="182.95" y1="416.84" x2="191.54" y2="416.84" xlink:href="#a"/>
    <linearGradient id="e" x1="183.52" y1="431.98" x2="192.95" y2="431.98" xlink:href="#a"/>
    <linearGradient id="f" x1="217.62" y1="459.58" x2="284.7" y2="459.58" xlink:href="#a"/>
    <linearGradient id="g" x1="233.04" y1="442.08" x2="240.78" y2="442.08" xlink:href="#a"/>
    <linearGradient id="h" x1="236.14" y1="404.79" x2="243.16" y2="404.79" xlink:href="#a"/>
    <linearGradient id="i" x1="233.97" y1="418.19" x2="242.55" y2="418.19" xlink:href="#a"/>
    <linearGradient id="j" x1="232.56" y1="433.34" x2="241.99" y2="433.34" xlink:href="#a"/>
  </defs>
  <path d="M198.7 390.54c1.12 21.17 2.18 46.5 3.3 67.67.57 10.85-.54 21.76 2.47 32.34 2.41 8.47 5.56 19.06-2.69 24.49-6.58 4.32-14.62 2.27-22.84 3.86-6.19 1.2-11.42 4.49-17.32 6.43s-13.61-.68-17.63-4.74c-5.63-5.68-.74-13.7 7.9-15.46 13.5-2.75 22.62-9.45 25.35-16.38 5.19-13.17-6.53-68.92-10.07-96.2 11.6 1.89 18.33 1.97 31.54-2Z" fill="#cd0008"/>
  <path d="M196.4 390.54c.73 13.78 1.35 27.56 2 41.35.32 6.81.65 13.61.99 20.41s.42 14.14.6 21.22c.09 3.7.34 7.4.87 11.06.47 3.23 1.34 6.33 2.2 9.47 1.26 4.59 2.76 9.99 1.04 14.66-1.95 5.31-8.11 6.67-13.13 6.96-3.28.19-6.57.16-9.84.56s-6.63 1.33-9.8 2.62c-5.42 2.21-10.92 5.74-16.99 4.51-2.65-.54-5.25-1.61-7.41-3.26-1.59-1.22-2.98-2.95-3.03-4.7s.82-3.53 2.3-4.96c1.87-1.81 4.25-2.67 6.75-3.2 5.9-1.27 11.78-3.39 16.82-6.76 3.81-2.55 7.39-5.89 9.28-10.14 1.16-2.6 1.52-5.44 1.69-8.26.51-8.14-.45-16.41-1.41-24.48-2.37-19.95-6.15-39.68-9.08-59.55l-.42-2.91c-.16-1.12-.23-1.66-.36-2.62l-2.92 2.22c5.21.84 10.48 1.54 15.78 1.28 5.79-.29 11.45-1.63 16.99-3.28 2.84-.85 1.63-5.3-1.23-4.45-5.14 1.54-10.38 2.85-15.76 3.12-4.88.24-9.74-.34-14.55-1.11-1.28-.21-3.13.58-2.92 2.22 2.6 19.95 6.54 39.7 9.17 59.65 1.17 8.84 2.29 17.81 2.2 26.75-.02 1.56-.08 3.13-.23 4.68-.02.18-.15 1.28-.06.63l-.15.99c-.11.59-.23 1.18-.4 1.76-.41 1.47-1.1 2.74-2.14 4.15-1.14 1.55-2.82 3.16-4.46 4.4-4.86 3.68-10.73 5.87-16.64 7.16-5.31 1.16-10.57 3.98-12.4 9.45s1.81 10.21 6.31 12.91c5.41 3.25 11.87 4.11 17.8 1.9 6.34-2.36 12.15-5.72 19.02-6.3 6.63-.56 13.78.24 19.71-3.42 4.89-3.02 7.03-8.19 6.83-13.81s-2.36-11.17-3.53-16.79c-1.56-7.45-1.29-15.13-1.4-22.7-.1-6.95-.6-13.89-.94-20.83-.69-14.26-1.33-28.53-2.04-42.79-.16-3.27-.33-6.53-.5-9.8-.16-2.95-4.77-2.97-4.61 0Z" fill="url(#a)"/>
  <path d="M196.68 513.69c-18.36 5.42-15.38.8-35.63 8.42-11.11 4.18-17.07-1.52-19.14-5.67-.6 7.16 1.36 14.82 9.41 17.7 7.53 2.69 14.18 2 21.5-.99 5.98-2.44 12.67-4.29 19.34-3.78 11.47.88 15.38-5.93 16.06-7.26 2.45-4.78-.35-15.35-1.29-20.86 0 0 1.82 8.86-10.25 12.43Z"/>
  <path d="M196.07 511.46c-3.93 1.16-7.91 2.18-11.96 2.77-.18.03-.36.05-.54.08-.41.06.54-.07-.12.02-.3.04-.6.08-.91.11-.67.08-1.34.15-2.01.22-1.36.15-2.72.31-4.07.53-3.61.57-7.12 1.59-10.58 2.75-4.63 1.56-9.53 4.17-14.55 3.09-.99-.21-1.83-.49-2.67-.92-.79-.41-1.58-.94-2.06-1.37-1.31-1.19-1.89-1.9-2.68-3.46-1.12-2.2-4.13-.94-4.3 1.16-.54 6.96 1.4 14.37 7.63 18.29 3.8 2.39 8.75 3.37 13.19 3.4 4.76.03 9.26-1.26 13.64-3s8.97-3.14 13.68-3.45c4.17-.28 8.24.46 12.35-.67s8.1-3.81 10.09-7.67c1.69-3.29 1.46-7.27 1.04-10.84-.48-3.99-1.38-7.9-2.06-11.85l-4.45 1.23c.1.48-.03-.71-.03-.21 0 .33.04.65.04.98 0 .21-.02.42-.03.63 0 .14-.03.28-.04.42.02-.24.09-.44 0-.09-.14.59-.27 1.17-.48 1.75-.15.41.09-.19-.03.07-.07.15-.14.3-.22.45-.16.32-.34.62-.54.92-.39.6-.76 1.01-1.45 1.64-1.59 1.45-3.76 2.39-5.87 3.03-2.83.86-1.63 5.32 1.23 4.45 4.78-1.45 9.26-4.18 11.19-8.98.79-1.95 1.09-4.21.67-6.28-.24-1.22-1.7-1.92-2.84-1.61-1.3.36-1.82 1.61-1.61 2.84.53 3.04 1.21 6.05 1.68 9.1.44 2.83.88 6.1.21 8.83-.2.81-.29 1.05-.71 1.74-.14.24-.3.46-.45.69-.08.13-.42.54-.02.05-.13.17-.27.33-.41.49-1.34 1.54-2.67 2.5-4.49 3.24-3.2 1.3-6.39 1.08-9.76.99-4.45-.13-8.94.7-13.18 2s-8.09 3.25-12.39 4.09c-4.06.79-8.19.46-12.12-.78-3.36-1.06-6.08-3.03-7.58-6.29-1.37-2.97-1.53-6.36-1.28-9.57l-4.3 1.16c1.56 3.07 4.24 5.59 7.4 6.95 5.02 2.17 10.3 1.28 15.27-.57 4.29-1.59 8.66-3.1 13.16-4.01.7-.14 1.41-.27 2.12-.38.17-.03 1.12-.16.57-.09l.95-.12c1.35-.16 2.7-.29 4.05-.46 4.71-.6 9.3-1.69 13.86-3.03 2.84-.84 1.63-5.29-1.23-4.45Z"/>
  <path d="M183.18 394.52c3.09 23.95 5.05 48.05 5.83 72.18.22 6.77.34 13.54.38 20.31.02 2.97 4.63 2.97 4.61 0a751.628 751.628 0 0 0-6.21-92.49c-.16-1.24-.95-2.31-2.31-2.31-1.12 0-2.47 1.06-2.31 2.31Z" fill="url(#b)"/>
  <path d="m182.36 405.7 7.01.09c1.21.02 2.36-1.07 2.31-2.31s-1.01-2.29-2.31-2.31l-7.01-.09c-1.21-.02-2.36 1.07-2.31 2.31s1.01 2.29 2.31 2.31Z" fill="url(#c)"/>
  <path d="M182.96 419.09c2.85.04 5.71.07 8.56.11 1.21.02 2.36-1.07 2.31-2.31s-1.01-2.29-2.31-2.31c-2.85-.04-5.71-.07-8.56-.11-1.21-.02-2.36 1.07-2.31 2.31s1.01 2.29 2.31 2.31Z" fill="url(#d)"/>
  <path d="M183.56 434.52c3.12-.15 6.24-.3 9.35-.46 1.2-.06 2.36-1.02 2.31-2.31-.05-1.2-1.02-2.37-2.31-2.31-3.12.15-6.24.3-9.35.46-1.2.06-2.36 1.02-2.31 2.31.05 1.2 1.02 2.37 2.31 2.31Z" fill="url(#e)"/>
  <path d="M226.8 391.9c-1.12 21.17-2.18 46.5-3.3 67.67-.57 10.85.54 21.76-2.47 32.34-2.41 8.47-5.56 19.06 2.69 24.49 6.58 4.32 14.62 2.27 22.84 3.86 6.19 1.2 11.42 4.49 17.32 6.43s13.61-.68 17.63-4.74c5.63-5.68.74-13.7-7.9-15.46-13.5-2.75-22.62-9.45-25.35-16.38-5.19-13.17 6.53-68.92 10.07-96.2-11.6 1.89-18.33 1.97-31.54-2Z" fill="#cd0008"/>
  <path d="M224.5 391.9c-.74 14.08-1.38 28.17-2.04 42.25-.33 7.07-.67 14.14-1.03 21.21s-.28 14.6-.59 21.9c-.16 3.77-.5 7.53-1.31 11.22-.62 2.82-1.53 5.56-2.21 8.36-1.27 5.27-2.09 11.08.35 16.14 2.78 5.79 9.28 8 15.24 8.55 3.38.31 6.79.22 10.17.54s6.43 1.22 9.49 2.44 6.27 2.8 9.5 3.97c3.03 1.1 6.05 1.36 9.24.89 5.22-.77 11.63-3.75 13.99-8.78s-.1-10.2-4.24-13.32c-2.43-1.83-5.19-2.64-8.11-3.3-3.14-.71-6.26-1.66-9.19-2.99-4.37-1.97-8.9-4.82-11.63-8.7-1-1.42-1.62-2.59-2.02-4.07-.15-.54-.26-1.08-.36-1.63-.06-.33-.11-.66-.15-.99.09.63-.06-.6-.08-.81-.75-7.93.19-16.08 1.09-23.96 2.31-20.35 6.25-40.47 9.21-60.73.3-2.07.59-4.14.86-6.21.21-1.64-1.64-2.43-2.92-2.22-4.81.78-9.67 1.36-14.55 1.11-5.38-.27-10.62-1.58-15.76-3.12-2.85-.85-4.07 3.6-1.23 4.45 5.54 1.65 11.2 2.99 16.99 3.28 5.29.27 10.56-.44 15.78-1.28l-2.92-2.22c-.12.94-.18 1.4-.34 2.49s-.3 2.12-.46 3.17c-.33 2.23-.67 4.47-1.03 6.7-.76 4.84-1.56 9.67-2.35 14.5-1.68 10.28-3.35 20.55-4.75 30.87-1.21 8.96-2.37 18.01-2.46 27.07-.03 3.15.07 6.34.67 9.44.67 3.48 2.51 6.54 4.91 9.12 3.68 3.97 8.52 6.71 13.49 8.71 3.01 1.21 6.11 2.05 9.27 2.74 2.39.52 4.66 1.48 6.42 3.22 1.46 1.44 2.31 3.15 2.19 4.99s-1.64 3.56-3.31 4.77c-2.22 1.6-4.81 2.65-7.5 3.13s-5.3.06-7.93-.92c-3.08-1.15-6.04-2.6-9.1-3.82s-6.43-2.12-9.84-2.51c-6-.69-12.88.45-18.33-2.71-4.45-2.58-5.3-7.24-4.76-12.02.67-5.9 3.05-11.46 3.86-17.35 1.02-7.33.78-14.7.96-22.08.16-6.75.64-13.5.96-20.25.67-13.82 1.29-27.64 1.97-41.46.16-3.27.33-6.53.5-9.8.16-2.97-4.46-2.96-4.61 0Z" fill="url(#f)"/>
  <path d="M228.83 515.04c18.36 5.42 15.38.8 35.63 8.42 11.11 4.18 17.07-1.52 19.14-5.67.6 7.16-1.36 14.82-9.41 17.7-7.53 2.69-14.18 2-21.5-.99-5.98-2.44-12.67-4.29-19.34-3.78-11.47.88-15.38-5.93-16.06-7.26-2.45-4.78.35-15.35 1.29-20.86 0 0-1.82 8.86 10.25 12.43Z"/>
  <path d="M228.22 517.27c4.07 1.2 8.19 2.24 12.4 2.83 1.52.21 3.04.38 4.56.55.57.06 1.13.13 1.7.2.65.08-.49-.07.16.02l.4.06c.41.06.82.13 1.23.2 4.13.73 8.15 2.02 12.1 3.43 5.14 1.83 10.34 3.68 15.81 1.97 3.86-1.2 7.18-3.97 9.02-7.57l-4.3-1.16c.45 5.71-.76 11.92-6.25 14.83-3.54 1.87-7.95 2.46-11.9 2.19-4.31-.29-8.18-1.96-12.17-3.43-4.18-1.53-8.53-2.63-12.98-2.95-3.7-.27-7.41.49-11.06-.44-1.27-.32-2.2-.68-3.3-1.29s-1.46-.88-2.28-1.66c-.31-.29-.6-.6-.88-.91-.11-.12-.21-.25-.31-.37-.22-.25.22.35-.08-.12-.27-.41-.55-.81-.77-1.25-.17-.32-.32-.79-.45-1.37-.16-.68-.21-1.3-.24-2.05-.07-1.83.08-3.67.31-5.48.45-3.45 1.26-6.84 1.85-10.27.21-1.23-.33-2.48-1.61-2.84-1.14-.31-2.59.38-2.84 1.61-.41 2.08-.11 4.33.67 6.28 1.94 4.8 6.41 7.53 11.19 8.98 2.85.87 4.06-3.59 1.23-4.45-2.07-.63-4.21-1.54-5.78-2.94-.68-.6-1.13-1.11-1.49-1.64-.2-.3-.38-.6-.55-.92-.08-.15-.15-.3-.23-.46-.28-.58.14.42-.07-.16-.2-.55-.33-1.1-.46-1.67-.15-.65 0 .39-.05-.34-.01-.21-.03-.42-.03-.64 0-.34.03-.67.04-1 .01-.55-.12.65-.02.17l-4.45-1.23c-.58 3.34-1.34 6.64-1.82 9.99s-.95 7.21-.01 10.66c1.12 4.11 4.78 7.29 8.58 8.89 3.52 1.49 7.18 1.65 10.95 1.45 4.77-.25 9.46.72 13.97 2.23 2.27.76 4.45 1.74 6.72 2.5s4.69 1.3 7.12 1.58c4.57.53 9.39-.13 13.65-1.85 3.79-1.53 6.92-4.28 8.62-8.04s2.09-7.66 1.78-11.62c-.16-2.1-3.18-3.36-4.3-1.16-1.26 2.47-3.22 4.43-5.99 5.36-4.86 1.64-9.48-.42-14.04-2.03-3.75-1.32-7.56-2.53-11.47-3.24-2.66-.48-5.36-.7-8.04-1.04-.45-.06-.11-.01-.01 0l-.65-.09c-.46-.07-.92-.14-1.38-.22-.96-.16-1.92-.35-2.88-.55-2.59-.56-5.16-1.25-7.7-2-2.85-.84-4.07 3.61-1.23 4.45Z"/>
  <path d="M237.71 395.87a754.852 754.852 0 0 0-5.83 72.18c-.22 6.77-.34 13.54-.38 20.31-.02 2.97 4.6 2.97 4.61 0a751.628 751.628 0 0 1 6.21-92.49c.16-1.24-1.17-2.31-2.31-2.31-1.38 0-2.15 1.07-2.31 2.31Z" fill="url(#g)"/>
  <path d="m243.15 402.44-7.01.09c-1.21.02-2.36 1.05-2.31 2.31s1.01 2.32 2.31 2.31l7.01-.09c1.21-.02 2.36-1.05 2.31-2.31s-1.01-2.32-2.31-2.31Z" fill="url(#h)"/>
  <path d="M242.54 415.83c-2.85.04-5.71.07-8.56.11-1.21.02-2.36 1.05-2.31 2.31s1.01 2.32 2.31 2.31c2.85-.04 5.71-.07 8.56-.11 1.21-.02 2.36-1.05 2.31-2.31s-1.01-2.32-2.31-2.31Z" fill="url(#i)"/>
  <path d="M241.95 431.26c-3.12-.15-6.24-.3-9.35-.46-1.21-.06-2.36 1.1-2.31 2.31.06 1.3 1.01 2.24 2.31 2.31 3.12.15 6.24.3 9.35.46 1.21.06 2.36-1.1 2.31-2.31-.06-1.3-1.01-2.24-2.31-2.31Z" fill="url(#j)"/>
  <path d="M272.12 68.26c.26 17.63 7.42 55.41 22.17 69.07-.8 1.4-10.31-2.34-14.31-4.39 2.95 10.29 11.29 19.5 11.2 19.99-.27 1.56-8.95 1.36-14.18-4.59-5.75-6.55-4.61-29.42-6.39-39.64-.63-3.66-4.82-21.69-3.97-25.3" fill="#ae3517"/>
  <path d="M269.87 68.26c.15 9.42 1.63 18.88 3.64 28.07 2.26 10.39 5.37 20.81 10.3 30.28 2.33 4.48 5.18 8.85 8.9 12.32l-.35-2.73c.28-.4.9-.97 1.23-.81-.08-.04-.37 0-.45 0-.62-.07.08.04-.35-.04-.22-.04-.44-.09-.66-.14-1.27-.29-2.52-.7-3.76-1.14-2.47-.87-4.9-1.88-7.23-3.06-1.68-.86-3.89.57-3.31 2.54 1.4 4.76 3.71 9.22 6.41 13.36.99 1.53 2.04 3.01 3.12 4.48.56.75 1.1 1.79 1.78 2.43.03.03.04.09.07.12-.53-.45-.23-1.72.13-2.15.05-.06.65-.59.35-.34-.11.09-.4.08.21-.08-.11.03-.75.18-.43.13.38-.07-.21.02-.23.02-.2 0-.4.02-.6.02-1.51 0-2.87-.33-4.45-.91a13.63 13.63 0 0 1-4.82-3.05c-.35-.34-.69-.7-1-1.09.28.36-.13-.21-.21-.34-.19-.29-.36-.6-.52-.91-.09-.17-.42-.9-.33-.69-1.31-3.11-1.85-6.6-2.25-9.93-.5-4.09-.75-8.2-1-12.31-.22-3.67-.39-7.34-.81-10.99-.3-2.6-.82-5.14-1.35-7.7-.79-3.81-1.57-7.62-2.23-11.46-.32-1.86-.56-3.36-.73-5.04-.07-.69-.13-1.38-.14-2.07v-.78c0-.79-.08.22.02-.24.6-2.82-3.73-4.03-4.34-1.2s.12 6.05.56 8.86c.6 3.82 1.37 7.61 2.14 11.39.3 1.48.61 2.95.91 4.43l.27 1.36.12.66.09.56c.01.08.11.8.07.47.51 3.89.67 7.83.9 11.74.26 4.37.53 8.75 1.09 13.1.5 3.85 1.13 7.73 2.72 11.3 1.69 3.79 5.11 6.42 8.88 7.97 2.72 1.12 7.09 2.3 9.82.58 1.55-.98 1.63-2.73.65-4.12s-1.96-2.63-2.9-3.97c-3.21-4.55-6.09-9.44-7.67-14.81l-3.31 2.54c3.03 1.54 6.23 2.85 9.46 3.91 2.37.78 6.14 2.2 7.92-.32.55-.78.33-2.09-.35-2.73-6.59-6.16-10.43-15.18-13.35-23.64-3.37-9.79-5.65-20-7.05-30.26-.61-4.49-1.04-9.05-1.11-13.59-.05-2.89-4.55-2.9-4.5 0Z"/>
  <path d="M149.14 66.36c-.26 17.63-4.98 62.89-19.72 76.55.8 1.4 11.26-1.39 15.26-3.44-2.95 10.29-11.97 18.57-12.15 19.04-1 2.59 8.95 2.32 14.18-3.64 5.75-6.55 8.96-20.3 4.89-46.17-.58-3.67 4.82-21.69 3.97-25.3" fill="#ae3517"/>
  <path d="M146.89 66.36c-.15 9.73-1.13 19.49-2.59 29.11-1.71 11.26-4.02 22.82-8.49 33.32-1.98 4.66-4.42 9.19-7.99 12.53-.67.63-.91 1.94-.35 2.73 1.78 2.53 5.9 1.31 8.38.75 3.39-.78 6.84-1.81 9.95-3.38l-3.31-2.54c-1.41 4.79-4.08 9.17-7.2 13.05a73.943 73.943 0 0 1-3.39 3.9c-.8.86-1.65 1.65-1.7 2.91-.17 4.23 5.81 3.76 8.45 3.19 4.34-.93 8.17-3.4 10.82-6.94 4.12-5.51 5.45-12.77 5.96-19.47.39-5.1.23-10.24-.2-15.33-.27-3.24-.67-6.46-1.13-9.67-.11-.79-.27-1.59-.36-2.39.09.85.03.1.04-.1.01-.28.02-.56.04-.83.01-.14.03-.29.04-.43 0-.07.09-.74.05-.46.51-3.79 1.67-8.42 2.53-12.5.43-2.03.84-4.07 1.13-6.13.23-1.6.48-3.24.14-4.84-.6-2.83-4.94-1.63-4.34 1.2.11.53.04-.52 0 .1-.01.25 0 .5 0 .75a13 13 0 0 1-.06.88c-.02.16-.12 1.04-.06.62-.23 1.72-.57 3.43-.92 5.13-.76 3.74-1.65 7.47-2.35 11.22-.28 1.51-.55 3.03-.66 4.56-.14 1.95.39 3.92.65 5.84.71 5.34 1.17 10.72 1.19 16.11.01 4.02-.21 8.06-.94 11.93-.3 1.6-.69 3.19-1.19 4.74-.22.7-.47 1.38-.74 2.06-.05.13-.1.26-.16.39.19-.44-.08.17-.1.22-.14.3-.28.6-.43.9-.55 1.09-1.19 2.13-1.9 3.13-.34.47.3-.36-.06.08-.07.09-.14.17-.21.26-.25.3-.51.59-.78.87-.72.74-1.51 1.36-2.39 1.9-1.67 1.02-3.52 1.7-5.45 2.03-.45.07-1.17.14-1.88.11-.17 0-.33-.02-.49-.04-.37-.04.52.12-.02-.02-.1-.03-.21-.05-.31-.08-.37-.11.29.32-.02-.02.28.3.6.48.62 1.16 0 .29-.11.58-.22.78-.04.07-.48.51-.2.27.33-.29.62-.67.92-1 1.24-1.34 2.43-2.71 3.56-4.13 3.49-4.41 6.47-9.25 8.07-14.68.58-1.98-1.62-3.39-3.31-2.54-2.22 1.12-5.07 1.97-7.69 2.64-.72.18-1.45.36-2.19.5-.27.06-.54.11-.82.16-.09.02-.96.15-.65.11-.48.06-.96.09-1.45.1-.42.01-.55-.23-.16.01-.6-.37.85.83.77.72l-.35 2.73c3.41-3.19 5.88-7.34 7.84-11.55 2.42-5.19 4.23-10.65 5.7-16.17 3.07-11.51 4.84-23.39 5.95-35.25.47-5.05.81-10.11.89-15.18.05-2.9-4.45-2.9-4.5 0Z"/>
  <path d="M152.04 160.22c-25.45 36.29-30.57 84.52-34.42 103.76-6 30.04-13.6 49.28 3.12 136.11 3.89 20.18 13.18 41.18 16.96 53.35 14.78 47.71 25.62 36.3 29.12 34.23 9.3-5.47-.76-51.59 3.77-63.7 7.34-19.64 28.06-19.64 39.98-20.47 18.27-1.28 31.48 1.13 40.35 19.59 4.22 8.78-3.58 75.61 23.62 56.67 5.86-4.08 24.74-56.64 26-63.67 10.06-55.96 11.77-70.47 6.58-126.21-2.03-21.85-4.22-81.32-35.73-127.87" fill="#fff"/>
  <path d="M150.1 159.09c-12.54 17.97-20.43 38.83-25.83 59.95-3.86 15.08-5.99 30.45-9.08 45.68-1.89 9.32-4.04 18.57-5.31 28-1.65 12.27-1.85 24.65-1.16 37 1.14 20.28 4.26 40.45 7.88 60.42 1.18 6.51 2.33 13.03 3.99 19.43 1.56 6.04 3.45 11.98 5.48 17.88 3.48 10.1 7.29 20.07 10.61 30.23 2.88 8.83 6.11 18 11.26 25.8 2.39 3.61 5.54 7.51 9.89 8.76 5.21 1.49 11.6-2.23 13.53-7.07 2.3-5.76 1.91-12.78 1.74-18.85-.23-7.99-.94-15.96-1.31-23.94-.16-3.49-.28-6.99-.15-10.48.1-2.64.18-4.68 1.04-7.14 2.81-8.05 9.49-13.58 17.46-16.11 6.9-2.19 14.16-2.48 21.33-2.94 8.17-.52 17.06-.57 24.45 3.48 3.57 1.96 6.61 4.78 8.98 8.09 1.47 2.06 2.7 4.25 3.85 6.5.57 1.11 0-.3.28.66.09.31.18.61.25.93.08.37.15.74.21 1.11.03.21.06.41.1.62.04.3-.04-.35.03.23.12 1.01.21 2.02.29 3.03.19 2.55.29 5.1.4 7.65.24 6.04.44 12.09.96 18.12s1.17 11.82 2.94 17.44c1.29 4.11 3.37 8.75 7.43 10.79 4.61 2.32 9.85.28 13.79-2.47 3.49-2.43 5.36-7.3 7.11-11.01 3.09-6.56 5.81-13.29 8.44-20.05s5.26-13.91 7.68-20.94c1.45-4.23 3.09-8.53 4.01-12.92 2.35-11.23 4.07-22.66 5.79-34 1.39-9.17 2.56-18.37 3.2-27.62 1.39-20.16-.02-40.35-1.81-60.43-1.34-15-2.41-30.01-4.65-44.91-3.08-20.51-8.1-40.79-16.18-59.93-4.31-10.19-9.48-20-15.66-29.17-1.61-2.39-5.51-.14-3.89 2.27 12.35 18.31 20.54 39.02 25.91 60.37 4.3 17.08 6.75 34.53 8.31 52.05s3.39 35.73 3.92 53.66-.91 35.72-3.62 53.47c-1.69 11.05-3.35 22.21-5.67 33.15-.93 4.4-2.58 8.72-4.04 12.97-4.65 13.52-9.6 27.09-15.73 40.03-1.07 2.26-2.18 4.52-3.48 6.66-.24.4-.49.8-.76 1.19-.1.15-.21.3-.31.44-.29.41.27-.28-.12.15-.19.21-.39.42-.59.62-.42.44.4-.26.01 0-.36.24-.72.49-1.09.72-1.04.65-2.28 1.32-3.12 1.62-.49.18-.99.34-1.5.46-.25.06-.51.11-.76.15.54-.08-.28.02-.41.02-.43 0-.86 0-1.29-.04.57.06-.64-.18-.92-.26-.49-.15.22.13-.13-.04-.19-.09-.38-.19-.57-.3s-.37-.23-.55-.35c-.45-.29.03.05-.2-.15-.34-.3-.67-.61-.98-.96-.14-.15-.27-.31-.4-.47.12.15-.05-.06-.25-.36a21.55 21.55 0 0 1-1.54-2.79c-.19-.4-.1-.21-.2-.45s-.19-.48-.28-.72c-.23-.61-.44-1.23-.63-1.86-.39-1.26-.71-2.54-1-3.83-1.25-5.7-1.73-11.42-2.09-17.3s-.48-11.49-.78-17.23c-.18-3.59-.11-7.72-1.45-11.11-3.12-7.92-9.58-15.17-17.43-18.56s-16.91-3.4-25.45-2.82c-7.11.48-14.31.82-21.16 2.96-8.23 2.57-15.32 7.79-19.2 15.62-2.87 5.79-2.95 11.98-2.79 18.33.2 7.85.9 15.68 1.28 23.52.32 6.5.83 13.65-.64 19.86-.29 1.22-.57 2.07-.97 2.81-.11.21-.24.41-.37.61-.22.35-.12.17-.1.14-.14.16-.29.31-.44.45-.37.35.3-.18-.22.14-.62.39-1.22.82-1.85 1.2-.41.25-.82.46-1.24.68-.63.33.43-.1-.2.08-.25.07-.49.17-.75.24s-.53.11-.79.16c.74-.15-.03 0-.35 0-.28 0-.55-.02-.83-.04.69.04-.17-.04-.51-.13-.21-.06-.97-.33-.71-.22.2.08-.64-.32-.89-.46-.35-.2-.67-.42-1-.65-.42-.29.15.13-.16-.12l-.63-.54c-1.96-1.77-3.26-3.6-4.65-5.84-5.17-8.35-8.33-17.92-11.25-27.23-3.07-9.8-7.01-19.31-10.28-29.03-2-5.94-3.83-11.93-5.3-18.02s-2.59-12.61-3.72-18.94c-1.97-11-3.74-22.04-5.11-33.12-1.87-15.08-3.1-30.32-2.45-45.53.44-10.21 1.81-19.48 3.85-29.49.92-4.49 1.9-8.97 2.81-13.46 1.29-6.42 2.29-12.89 3.45-19.33 3.47-19.17 8.04-38.24 15.53-56.28 4.12-9.92 9.2-19.47 15.35-28.28 1.66-2.38-2.24-4.63-3.89-2.27Z"/>
  <path d="M145.56 212.93c1.62 6.03.54 4.58 5.05 8.91 14.47 13.87 31.13 73.08 11.31 76.07-9.3 1.4-13.95-19.54-15.04-25.79-2.28-13-19.44-20.78-25.14-25.51" fill="#fff"/>
  <path d="M143.39 213.53c.66 2.47.96 5.07 2.71 7.05 1.61 1.82 3.52 3.33 5.07 5.22.08.1.16.2.23.29.21.26-.21-.28 0 0 .16.21.31.42.47.63.34.47.67.94.99 1.42.67 1 1.3 2.02 1.91 3.05 1.35 2.31 2.56 4.71 3.68 7.14 4.85 10.54 8.5 22.79 9.83 34.23.31 2.68.5 5.38.48 8.08-.02 2.54-.17 4.58-.6 6.69-.21.99-.47 1.98-.81 2.93-.08.22-.16.43-.25.65.18-.47-.04.08-.11.24-.2.42-.41.82-.65 1.22-.11.18-.22.36-.34.53-.04.06-.44.6-.23.33s-.21.24-.26.29a7 7 0 0 1-.46.48c-.14.14-.29.26-.43.4-.43.41.18-.09-.12.1-.35.22-.69.44-1.06.64-.09.05-.18.08-.26.13-.27.14.41-.16.13-.05-.19.07-.37.14-.56.2-.42.13-.85.24-1.28.31.55-.09-.19 0-.36.01-.14 0-.87-.06-.37.01-.25-.04-.5-.1-.75-.17l-.36-.12c-.57-.2.37.21-.17-.08-.23-.12-.46-.25-.69-.39-.12-.08-.66-.49-.37-.26-.45-.37-.86-.78-1.25-1.21-.78-.86-1.46-1.92-2.15-3.14-2.71-4.85-4.23-10.46-5.4-15.94-.57-2.66-1-5.23-2.14-7.74-1.44-3.18-3.71-5.99-6.18-8.43-4.63-4.56-10.2-7.91-15.56-11.52-.48-.33-.96-.65-1.44-.99-.21-.15-.43-.31-.64-.47-.27-.21.27.21.01.01-.12-.09-.23-.18-.34-.28-.94-.77-2.26-.92-3.18 0-.8.8-.94 2.41 0 3.18 4.63 3.81 10.05 6.54 14.7 10.34 2.63 2.15 5.17 4.55 7.06 7.4 1.68 2.54 2.47 5.14 3.04 8.09 1.11 5.72 2.69 11.46 5.21 16.73 2.34 4.91 6.38 10.35 12.52 9.29 9.71-1.68 10.84-14.05 10.54-21.89-.47-12.39-3.84-24.86-8.42-36.33-2.11-5.27-4.5-10.49-7.59-15.26-1.25-1.93-2.62-3.81-4.2-5.5-.97-1.03-2.04-1.96-3.05-2.96-.19-.19-.38-.38-.56-.58-.15-.16-.44-.6-.16-.16-.11-.17-.21-.37-.33-.54-.23-.33.07.33-.07-.2-.39-1.43-.73-2.86-1.11-4.29-.75-2.8-5.09-1.61-4.34 1.2Z"/>
  <path d="M263.62 219.03c-8.08 9.51-17.06 26.76-17.89 39.22-.46 6.93-9.17 36.41 2.47 39.15 15.02 3.53 15.43-14.14 21.38-25.85 8.9-17.51 27.01-40.83 26.56-51.18" fill="#fff"/>
  <path d="M262.03 217.44c-5.09 6.03-9.23 12.89-12.53 20.05-1.73 3.77-3.26 7.65-4.38 11.64-.9 3.2-1.34 6.41-1.69 9.71l-.06.54c.06-.52.01-.11-.03.15-.07.45-.14.9-.22 1.35-.18 1.04-.37 2.07-.57 3.1-.48 2.56-.96 5.13-1.37 7.7-.87 5.41-1.67 11.04-1.09 16.53.49 4.61 2.11 9.64 6.97 11.22 2.7.88 6.01.99 8.71.1s4.78-2.66 6.45-4.89c3.48-4.66 4.91-10.67 6.85-16.06 2.31-6.45 5.88-12.34 9.43-18.18 4.04-6.67 8.28-13.22 12.17-19.98 2.96-5.15 6.26-10.75 7.4-16.65.21-1.11.36-2.24.33-3.37-.09-2.89-4.59-2.9-4.5 0 .01.43 0 .85-.03 1.28 0 .13-.02.26-.04.39.01-.09.07-.45 0 0-.05.28-.1.55-.16.83-.25 1.15-.6 2.29-1 3.4-.95 2.63-2.23 5.19-3.58 7.71-3.39 6.37-7.28 12.47-11.08 18.61s-7.66 12.15-10.74 18.59c-2.47 5.16-3.88 10.94-6.07 16.07-.97 2.26-2.14 4.49-3.71 6.06-1.42 1.42-3.18 2.22-5.19 2.29-1.3.05-2.59-.1-3.85-.47-.11-.03-.65-.23-.41-.13.26.11-.28-.15-.36-.19-.2-.11-.39-.24-.58-.37.39.28-.06-.06-.2-.2s-.28-.29-.42-.44c-.37-.4.08.16-.13-.17-.27-.41-.51-.83-.73-1.27-.17-.34.08.25-.11-.26-.08-.22-.16-.44-.23-.66a17.094 17.094 0 0 1-.56-2.38c-.02-.1-.12-.79-.07-.41-.08-.59-.12-1.18-.16-1.77a39.72 39.72 0 0 1-.04-3.78c.08-2.55.37-5.38.69-7.72.65-4.65 1.64-9.24 2.41-13.86.35-2.1.44-4.23.8-6.32.62-3.59 1.69-7.1 2.97-10.51 2.7-7.16 6.45-14.02 10.91-20.24.95-1.32 1.94-2.61 2.99-3.85.78-.93.91-2.27 0-3.18-.8-.8-2.39-.93-3.18 0Z"/>
  <path d="M111.09 311.81c8.82-4.93 20.52-9.66 28.19-3.09 7.22 6.18 5.09 18.02.21 26.18-8.9 14.87-25.17 26.96-25.48 44.29-.23 12.66 4.3 19.27 9.08 30.99 2.95 7.25 4.71 15.86 9.79 29.53-9.13-4.92-18.37-8.13-26.43-14.65-8.42-6.81-16.31-14.64-21.15-24.32-5.85-11.71-7.15-29.14-4.42-41.94 5.41-25.36 16.06-36.81 30.21-46.98" fill="#fff"/>
  <path d="M112.22 313.75c4.94-2.75 10.42-5.47 16.14-5.94 5.07-.41 10.11 1.51 12.26 6.41 1.99 4.53 1.02 9.94-.61 14.41-1.84 5.05-5.19 9.53-8.47 13.73-6.86 8.8-15.08 17.31-18.41 28.23-1.77 5.79-1.71 12-.61 17.91s3.52 11.12 5.89 16.45 4.21 10.29 5.84 15.66c2.01 6.62 4.05 13.21 6.45 19.7l3.31-2.54c-5.43-2.91-11.11-5.33-16.54-8.24s-10.08-6.4-14.58-10.45c-8.22-7.39-15.32-16.11-18.47-26.87-2.96-10.13-3.58-21.4-1.58-31.77 1.88-9.73 5.14-19.4 10.52-27.77 4.89-7.59 11.59-13.67 18.87-18.91.98-.71 1.46-1.96.81-3.08-.57-.97-2.09-1.52-3.08-.81-7.01 5.05-13.48 10.71-18.58 17.74-5.99 8.25-9.7 17.96-12.05 27.82a76.05 76.05 0 0 0-.31 33.83c1.19 5.46 3.12 10.74 5.94 15.57 3.07 5.25 7.02 9.98 11.34 14.24 4.95 4.88 10.36 9.46 16.39 12.95 6.16 3.57 12.77 6.27 19.04 9.63 1.59.85 4.03-.59 3.31-2.54-3.98-10.75-6.55-22.02-11.06-32.57-2.34-5.49-5.08-10.86-6.56-16.66s-1.74-12.01-.06-17.75c3.2-10.9 11.88-19.41 18.62-28.21 3.48-4.54 6.74-9.29 8.6-14.75s2.41-11.21.28-16.39c-2.58-6.25-8.77-9.72-15.42-9.53s-13.55 3.3-19.49 6.61c-2.53 1.41-.26 5.3 2.27 3.89Z"/>
  <path d="M156.38 177.04a677.122 677.122 0 0 1-4.06-63.01c-.39-21.63.13-44-8.25-63.94 7.16 1.91 25.75 10.12 28.44 10.53 2.32.36 20.09-4.96 32.84-5.8 27.59-1.82 42.86 3.95 43.85 3.99 1.13.05 2.21-.43 3.24-.89 6.44-2.92 22.79-10.09 29.23-13.01-2.21 7.93-12.07 31.39-13.15 33.76-3.08 6.75-1.1 14.6.62 21.81 6.79 28.36 7.37 49.01-3.05 76.25" fill="#fff"/>
  <path d="M158.63 177.04c-1.93-17.41-3.2-34.9-3.79-52.41-.55-16.33.05-32.79-2.03-49.03-1.14-8.95-3.1-17.77-6.58-26.12l-2.77 2.77c8.91 2.41 17.29 6.63 25.95 9.76 1.1.4 2.25.87 3.44.87 1.59 0 3.25-.45 4.8-.78 5.54-1.17 11.04-2.51 16.6-3.54 12.81-2.36 26.15-2.47 39.06-.78 3.73.49 7.53 1.2 11.22 2.12 1.99.5 4.01 1.39 6.08 1.02 2.38-.43 4.81-1.91 7.02-2.9 2.46-1.1 4.92-2.19 7.38-3.28 5.02-2.22 10.03-4.43 15.04-6.67.91-.41 1.82-.81 2.72-1.22l-3.31-2.54c-1.79 6.37-4.42 12.55-6.88 18.69a869.89 869.89 0 0 1-3.91 9.55l-.75 1.8c-.25.6.11-.26-.04.09l-.18.42c-.11.25-.22.51-.32.76-.27.63-.54 1.25-.82 1.88-2.23 5.09-2.22 10.39-1.32 15.8.95 5.68 2.57 11.24 3.7 16.89 2.03 10.16 3.24 20.49 2.77 30.85-.55 12.09-3.54 23.84-7.83 35.11-.43 1.14.48 2.47 1.57 2.77 1.27.35 2.33-.43 2.77-1.57 3.89-10.22 6.68-20.81 7.68-31.72s.15-20.75-1.57-30.98c-.93-5.53-2.17-11-3.46-16.46-1.23-5.17-2.57-10.79-1.21-16.07.57-2.23 1.67-4.36 2.56-6.48 1.23-2.93 2.44-5.86 3.64-8.8 2.84-6.99 5.9-14.04 7.95-21.32.57-2.04-1.6-3.31-3.31-2.54-9.26 4.19-18.59 8.22-27.86 12.39-1.09.49-2.15.84-3.27 1.2-.57.19.45.16.21.05-.09-.04-.2-.05-.3-.08-.79-.23-1.58-.44-2.37-.65a98.13 98.13 0 0 0-10.17-2.11c-12.58-1.95-25.69-2.26-38.3-.45-6.03.87-11.98 2.2-17.92 3.53-2.1.47-4.2.97-6.32 1.35-.17.03-.35.06-.53.09-.09.02-.62.09-.24.04.32-.04-.39.03-.56.04-.56.05-.02 0 .05.04-.15-.1-.46-.12-.64-.17-3.81-1.13-7.5-2.81-11.18-4.28-4.61-1.84-9.22-3.72-13.94-5.29-.84-.28-1.68-.54-2.53-.77-1.49-.4-3.46 1.12-2.77 2.77 6.12 14.68 7.46 30.61 7.88 46.35.22 8.21.23 16.43.47 24.64.25 8.71.68 17.42 1.27 26.12.66 9.77 1.54 19.52 2.62 29.24.13 1.21.94 2.25 2.25 2.25 1.11 0 2.38-1.03 2.25-2.25Z"/>
  <path d="M209.52 120.91c-1.87-1.68-3.79-3.31-5.58-5.08-1.61-1.6-3.42-3.4-4.31-5.54l-1.57 2.77c6.28-1.95 13.06-2.22 19.59-2.46.35-.01.74 0 1.09-.03.78-.09.31.15.21-.19.01.05-.14.69-.24.94-.59 1.41-1.87 2.63-2.93 3.69-2.43 2.44-5.31 4.31-8.47 5.67-.93.4-1.24 1.66-1.03 2.54.97 4.21 1.24 8.49.89 12.79l2.25-2.25c-4.14.05-8.09.78-12.17 1.38-1.2.17-1.86 1.7-1.57 2.77.35 1.29 1.56 1.75 2.77 1.57 3.83-.56 7.11-1.16 10.98-1.21 1.29-.02 2.15-1.02 2.25-2.25.38-4.69 0-9.4-1.05-13.99l-1.03 2.54c3.98-1.71 7.6-4.3 10.48-7.54 1.29-1.45 2.58-3 3.12-4.9.57-2 .15-4.29-1.75-5.42-1.79-1.06-4.31-.59-6.3-.5s-3.95.22-5.91.4c-4.15.37-8.36.88-12.34 2.12-1.05.33-2.05 1.61-1.57 2.77 2.2 5.26 6.92 8.89 11.05 12.6 2.15 1.93 5.34-1.24 3.18-3.18Z"/>
  <path d="M209.57 138.24c3.48.2 6.95.57 10.43.77 1.18.07 2.3-1.08 2.25-2.25-.06-1.28-.99-2.18-2.25-2.25-3.48-.2-6.95-.57-10.43-.77-1.18-.07-2.3 1.08-2.25 2.25.06 1.28.99 2.18 2.25 2.25ZM237.3 115.38a493.79 493.79 0 0 1 61.54-9.55c1.21-.11 2.25-.96 2.25-2.25 0-1.13-1.03-2.36-2.25-2.25-16.39 1.5-32.71 3.78-48.88 6.86-4.63.88-9.25 1.84-13.86 2.85-2.83.62-1.63 4.96 1.2 4.34ZM237.59 121.88c17.05-.58 34.11-.28 51.13.89 2.89.2 2.88-4.3 0-4.5a498.363 498.363 0 0 0-51.13-.89c-2.89.1-2.9 4.6 0 4.5ZM181.13 117.24c-15.34.94-30.69 1.76-46.02 2.86-4.05.29-8.1.61-12.15.96-1.21.11-2.25.96-2.25 2.25 0 1.13 1.03 2.36 2.25 2.25 15.31-1.35 30.66-2.2 46-3.1 4.06-.24 8.11-.48 12.17-.73 2.88-.18 2.9-4.68 0-4.5ZM171.84 109.72c-8.2.45-16.43.6-24.65.27s-16.26-1.1-24.16-3.04c-2.81-.69-4.01 3.65-1.2 4.34 8.14 2 16.57 2.82 24.93 3.18 8.36.36 16.73.2 25.08-.25 2.88-.16 2.9-4.66 0-4.5ZM312.77 288.37c-2.34-25.16 21.53-22.86 24.25-69.85 1.35-23.37-57.54-70.94-64.39-70.93-8.9 0 13.53 34.77-62.54 34.77-49.96 0-55.4-10.95-54.44-31.22.82-17.42-50.19 34.45-59.44 44.86-22.56 25.38 3.44 66.44 8.22 92.82"/>
  <path d="M121.78 240.34c12.91 11.18 20.09 30.94 7.98 34.57-12.11 3.63-112.18 32.83-125.43 105.8-12.39 68.23 36.43 97.86 65.31 107.26 32.64 10.63 75.99 8.2 112.67 5.48 8.46-.63 12.81-.8 16.99-5.35 2.45-2.67 6.81-5.66 3.77-56.78-.5-8.38-4.58-27.43 8.95-27.23 7.98.12 11.83 2.22 10.31 19.94-5.01 58.34 2.75 64.12 4.99 66.62 4.69 5.23 22.22 8.11 31.87 7.41 70.87-5.14 143.86 8.63 167.98-71.94 16.02-53.51-16.52-120.62-123.43-145.19-27.36-6.29-11.75-15.63-10.9-35.27"/>
  <path d="M120.16 241.96c4.78 4.2 8.8 9.35 11.38 15.19 1.62 3.67 3.44 9.16 1.15 12.95-1.88 3.11-7.67 3.84-10.93 4.9-13.26 4.3-26.24 9.55-38.73 15.74-17.03 8.43-33.34 18.76-47.28 31.74-14.79 13.76-26.77 30.88-32.04 50.56-6.06 22.63-5.05 48.02 5.65 69.11 8.35 16.47 22.27 29.54 38.23 38.58 19.08 10.81 40.57 15.16 62.29 16.66 15.42 1.07 30.91.8 46.33.04 7.55-.37 15.09-.87 22.63-1.41 5.83-.42 12.59-.15 17.91-2.98 7.97-4.24 8.85-13 9.36-21.14.71-11.47.19-23.05-.41-34.51-.26-5.11-.82-10.17-1.16-15.27-.26-4-.58-8.79 1.36-12.45 1.79-3.38 5.62-3.62 9.01-3.09 3.06.48 4.37 2.06 5.03 5.26 1.35 6.52-.06 13.69-.53 20.23-.51 7.05-.88 14.12-.99 21.18-.13 8.5 0 17.13 1.46 25.52.63 3.64 1.54 7.5 3.54 10.66 2.22 3.51 5.61 5.64 9.47 7.13 5.54 2.13 11.59 3.12 17.49 3.64s11.19-.03 16.81-.34c22.66-1.24 45.43-.86 68.03-3.08 19.99-1.96 40.52-6.06 57.59-17.22 18.95-12.4 30.65-32.27 36.83-53.71 4.48-15.53 4.83-32.11 1.06-47.83-4.16-17.37-13.29-33.21-25.26-46.37-15.1-16.6-34.49-28.93-54.94-37.89-12.85-5.63-26.2-10.05-39.8-13.49-5.71-1.44-12.07-2.24-17.21-5.3-2.7-1.61-3.77-3.5-3.52-6.37.27-3.06 1.63-6.37 2.57-9.4 1.36-4.41 2.35-8.9 2.58-13.52.15-2.94-4.43-2.93-4.57 0-.23 4.54-1.35 8.91-2.71 13.23-1.05 3.32-2.35 6.72-2.48 10.24-.35 9.5 10.8 12.39 18.12 14.09 25.55 5.95 50.69 15.02 72.68 29.56 16.37 10.82 30.87 24.86 40.53 42.07 8.02 14.29 12.36 30.5 12.02 46.91-.4 19.38-7.28 39.29-18.56 54.98s-29.36 26.2-48.65 31.07c-20.88 5.28-42.71 5.74-64.12 6.35-11.45.33-22.9.61-34.33 1.34-5.73.36-11.3.45-17-.41-5.2-.79-11.18-1.83-15.64-4.82-.97-.65-1.71-1.51-2.48-2.37-.43-.48.21.33-.06-.07-.15-.22-.3-.43-.44-.65-.32-.49-.6-1.01-.85-1.53-.1-.22-.49-1.13-.25-.52-.16-.39-.31-.78-.45-1.17-.34-.96-.62-1.93-.86-2.91-.65-2.62-1.06-5.28-1.34-7.94-1.09-10.27-.82-20.7-.31-30.99.38-7.78 1.36-15.55 1.56-23.33.11-4.29.06-9.44-2.61-13.05-2.06-2.79-5.31-3.65-8.62-3.87-4.38-.29-8.61.76-11.19 4.56-4.76 7.01-2.23 17.08-1.72 24.9.82 12.49 1.39 25.11.89 37.63-.21 5.13-.4 9.75-2.03 14.57-.05.16-.12.31-.18.47-.03.07.23-.49.02-.07-.12.25-.24.49-.37.73-.21.37-.95 1.34-.43.72-1.17 1.39-2.45 2.7-4.06 3.6-2.15 1.2-4.7 1.55-7.11 1.79-3.59.36-7.19.57-10.79.82-7.45.53-14.9 1.01-22.35 1.35-28.51 1.32-58.73 1.66-86.04-7.8-15.19-5.26-29.52-13.83-40.75-25.39-14.73-15.17-22.55-35.16-22.92-56.25-.21-11.99 1.45-24.22 5.42-35.57 3.31-9.46 8.3-18.27 14.33-26.25 11.73-15.53 27.44-27.81 44.03-37.77 13.88-8.33 28.65-15.18 43.83-20.78 4.69-1.73 9.43-3.34 14.21-4.83 1.29-.4 2.6-.77 3.89-1.18 4.43-1.43 7.26-4.84 7.78-9.48.57-5.03-1.25-10.15-3.5-14.56-2.77-5.43-6.68-10.33-11.25-14.35-2.2-1.94-5.45 1.29-3.23 3.23Z"/>
  <path d="M197.52 417.73c-2.5.5-4.66.92-7.23.87-.25 0-.51-.02-.76-.03-.16-.01-.33-.02-.49-.04.05 0 .28.04.01 0s-.53-.1-.79-.16c-.11-.03-.85-.3-.47-.12-.21-.1-.42-.21-.62-.34-.29-.19.27.21 0 0a.76.76 0 0 1-.2-.2c.25.37-.08-.11-.14-.25.06.14-.08-.27-.07-.25-.11-.57.09-1.5.3-2.35s.46-1.63.72-2.44a77.244 77.244 0 0 1 2.27-5.91c2.17-5.03 4.64-9.92 7.34-14.68 1.36-2.4 2.78-4.76 4.28-7.07 1.32-2.03 2.84-4.2 4.19-5.87 1.24-1.53 2.56-3 4.05-4.28.17-.14.5-.4.13-.12l.45-.33c.3-.21.62-.39.94-.58.09-.05.57-.27.21-.11s.09-.03.19-.06c.13-.03.28-.06.4-.11.37-.16-.44-.06-.07 0 .12.02.31 0 .43 0 .46-.02 0 0 .02 0 .36.09.71.19 1.07.3.4.12-.35-.18.04.01.17.09.35.17.52.26.39.21.78.44 1.15.69.18.12.36.25.54.38.43.31-.06-.06.25.19.41.34.81.68 1.2 1.05.83.77 1.62 1.59 2.37 2.44 3.55 3.98 6.49 8.58 9.24 13.25 2.89 4.9 5.51 9.96 7.86 15.14.97 2.14 1.66 3.75 2.49 5.99.32.85.63 1.71.89 2.58.03.1.18.72.14.42s0 .3 0 .39c.02-.64 0 .02-.05 0 .2.09.11-.49.04-.14-.04.22-.03.07.09-.09-.05.06-.48.45-.23.25s-.25.14-.34.19c-.1.06-.22.11-.32.16.02-.01.36-.14.11-.05s-.5.18-.76.25c-1.23.35-1.72.39-2.84.46-2.11.15-4.23.07-6.33-.09-.65-.05-1.29-.11-1.93-.18-1.23-.13-2.29 1.14-2.29 2.29 0 1.34 1.05 2.16 2.29 2.29 4.14.43 8.9.89 12.9-.54 2.32-.83 4.36-2.56 4.23-5.24-.1-2.13-1.23-4.38-2.02-6.34-4.53-11.18-10.37-22.26-17.85-31.76-2.74-3.47-6.19-7.53-10.6-8.83-3.89-1.14-7.12 1.44-9.66 4.1-3.76 3.95-6.8 8.65-9.59 13.31a154.79 154.79 0 0 0-8.38 16.05c-1.82 4.06-3.91 8.44-4.56 12.88-.47 3.22.91 5.98 4.02 7.14 2.61.97 5.61.67 8.31.31 1.38-.19 2.74-.43 4.1-.7 2.88-.58 1.66-4.98-1.22-4.41Z" fill="#fff"/>
  <path d="M194.55 434.54c-4.99.63-10.05.07-14.83-1.45-4.31-1.37-8.58-3.59-11.45-7.14-2.43-3-3.01-6.74-1.43-10.53.93-2.22 2.19-4.35 3.29-6.49 1.16-2.25 2.33-4.49 3.52-6.72 5.28-9.96 10.76-19.83 16.81-29.34 2.7-4.24 5.54-8.49 8.59-12.44 2.44-3.16 5.08-6.29 8.16-8.85.15-.13.31-.25.47-.38.51-.41-.36.26.15-.11.3-.22.6-.43.9-.64.56-.37 1.15-.68 1.74-1 .12-.06.62-.25.01-.02.14-.05.27-.11.41-.16l.81-.24c.76-.22-.28-.06.19-.05h.73c.71 0-.37-.13.16.01.23.06.46.1.69.16.2.06.4.12.59.19.12.04.24.09.36.14.37.13-.5-.25.07.03 1.17.58 2.27 1.23 3.33 1.99.13.1.96.72.53.39.27.21.53.42.8.64.63.52 1.25 1.06 1.86 1.62 1.35 1.24 2.64 2.54 3.88 3.88 2.78 3 5.4 6.22 7.77 9.38 5.57 7.44 10.56 15.33 15 23.49 3.99 7.33 7.52 14.54 9.8 22.49.44 1.54.82 3.1 1.08 4.68.03.17.05.34.08.51.09.58-.06-.51 0 .06.04.32.07.64.1.97.05.64.09 1.29.06 1.93-.01.21-.02.41-.05.62.07-.54-.04.13-.05.19-.1.39-.2.77-.34 1.15-.22.61.21-.39-.08.19-.09.18-.18.36-.28.54s-.21.35-.32.52c-.04.07-.53.74-.24.38-1.17 1.51-2.3 2.35-3.77 3.27-3.57 2.22-7.49 3.45-11.67 4.43-4.04.95-7.51 1.46-11.61 1.65-1.37.06-2.74.08-4.11-.03-1.23-.1-2.29 1.12-2.29 2.29 0 1.32 1.05 2.19 2.29 2.29 3.6.29 7.27-.14 10.82-.64 4.49-.64 8.98-1.65 13.21-3.3s8.17-3.74 10.85-7.34c2.28-3.06 2.45-6.57 1.92-10.2-1.14-7.84-4.64-15.42-8.1-22.46-4.33-8.81-9.39-17.28-15-25.33-4.87-6.98-10.17-14.01-16.62-19.63-2.32-2.03-4.82-3.91-7.71-5.03-2.58-1-5.09-.74-7.56.45-3.23 1.56-5.95 4.3-8.33 6.92-3.33 3.68-6.29 7.71-9.1 11.8-6.63 9.66-12.45 19.88-18.03 30.18-2.61 4.82-5.16 9.68-7.67 14.56-1.17 2.27-2.5 4.54-3.13 7.03s-.64 4.98.05 7.38c1.35 4.74 5.12 8.36 9.24 10.82 4.76 2.84 10.23 4.39 15.72 4.94 2.56.26 5.14.25 7.7-.07 1.22-.15 2.29-.94 2.29-2.29 0-1.12-1.05-2.44-2.29-2.29Z" fill="#fff"/>
  <path d="M193.38 454.37c-6.79 0-13.59-.69-20.27-1.91s-13.51-2.89-19.73-5.73c-5.65-2.58-10.45-5.95-12.83-11.98-2.92-7.38-.5-15.22 2.9-21.98 6.49-12.9 15.29-24.67 23.74-36.32 9.97-13.73 20.15-27.32 29.62-41.4 3.15-4.68 6.78-10.54 12.59-11.4 2.87-.43 6.64.33 9.33 1.8 3.49 1.9 6.12 4.99 8.59 8.03 6.5 8 13.41 15.67 20 23.59 8.2 9.86 16.14 20 22.98 30.87 5.95 9.46 11.67 19.82 13.2 31.04-.04-.32.04.37.05.46.03.28.06.55.08.83.06.62.1 1.24.12 1.87.04 1.13.02 2.27-.07 3.4-.02.3-.05.59-.08.89-.01.11-.03.22-.04.33-.05.38.05-.33 0 .05-.08.54-.18 1.08-.3 1.61-.24 1.1-.58 2.16-.95 3.22l-.12.3c.16-.4.04-.08 0 0-.1.21-.2.43-.31.64-.26.5-.55.98-.87 1.44-.52.76-1.21 1.57-2.09 2.45-1.9 1.9-3.9 3.36-6.17 4.79-5.6 3.52-11.78 6.1-18.05 8.15s-13.2 3.74-19.98 4.53c-2.96.35-5.94.54-8.92.49s-2.94 4.53 0 4.57c6.82.1 13.68-.94 20.32-2.47 7.17-1.65 14.2-3.98 20.89-7.04 5.57-2.54 11.21-5.69 15.49-10.15 3.58-3.72 5.25-8.28 5.73-13.37 1.05-11.14-3.87-22.4-9.05-31.96-6.4-11.83-14.5-22.7-22.89-33.18-7.32-9.13-15.06-17.9-22.61-26.84-4.4-5.22-8.5-11.15-15.15-13.64-3.39-1.27-7.31-1.76-10.88-1.02-2.96.62-5.57 2.29-7.73 4.36-2.62 2.51-4.71 5.58-6.73 8.57-2.35 3.48-4.72 6.94-7.13 10.38-5.14 7.31-10.41 14.52-15.68 21.73-9.12 12.48-18.49 24.87-26.42 38.15-4.17 6.99-8.3 14.35-9.17 22.58-.82 7.7 2.27 15.89 8.36 20.78 5.2 4.17 11.64 6.63 17.98 8.47 7.25 2.1 14.75 3.38 22.26 4.09 3.32.31 6.65.49 9.99.49 2.94 0 2.95-4.57 0-4.57Z" fill="#fff"/>
  <path d="M232.4 475.61c9.51.77 19.33-1.22 28.45-3.73 10.82-2.98 21.43-7.19 31.19-12.75 8.19-4.66 16.64-10.58 21.64-18.77s6.43-19.24 4.24-28.93c-2.37-10.5-8.28-19.88-14.8-28.28-7.36-9.48-15.89-17.98-24.53-26.28-8.4-8.07-17.04-15.91-25.08-24.35-4.63-4.87-9.11-9.94-13.14-15.32-2.88-3.85-5.6-7.88-7.59-12.28-.05-.11-.26-.59-.11-.25-.08-.19-.16-.39-.23-.58-.17-.43-.33-.86-.48-1.3-.24-.71-.44-1.43-.61-2.15-.07-.32-.13-.64-.19-.96-.02-.09-.09-.6-.04-.23s-.02-.19-.03-.29c-.05-.6-.07-1.21-.04-1.81.02-.27.12-.98 0-.29.04-.26.09-.52.14-.78.11-.48.27-.93.43-1.39-.25.74.01-.01.12-.22s.23-.42.35-.62c.11-.19.25-.36.36-.54.24-.38-.32.35.14-.18.31-.35.63-.7.98-1.02.16-.15.32-.29.49-.44.21-.18.74-.57.18-.16.77-.56 1.55-1.08 2.36-1.56 1.58-.92 3.23-1.71 4.82-2.61.71-.4 1.4-.82 2.06-1.3 1.44-1.05 1.48-2.9 0-3.95-6.85-4.84-13.49-10.01-19.62-15.74-3.02-2.82-5.96-5.77-8.54-9.01-.09-.11-.17-.23-.27-.34-.22-.26.4.54.08.11l-.33-.45c-.09-.12-.18-.25-.26-.38-.92-1.39-3.07-1.57-3.95 0-5.65 10.07-15.77 16.66-25.24 22.76-1.29.83-2.7 1.64-3.82 2.68-1.42 1.31-1.61 3.39.21 4.48s3.92 2.07 5.78 3.29c.39.25.77.51 1.15.78l.54.39c.14.1.64.5.27.2.64.51 1.27 1.04 1.85 1.62.26.26.51.52.75.79.12.13.23.27.34.4.37.42-.08-.13.09.11.39.55.74 1.11 1.06 1.7.07.14.13.28.2.42-.3-.61-.06-.16 0 0 .1.31.21.61.3.93.08.3.12.59.19.89.08.37-.02-.53 0-.02 0 .2.03.4.04.6.03.65-.02 1.29-.08 1.93.08-.73-.06.31-.11.55-.08.4-.18.8-.3 1.2-.22.78-.5 1.55-.79 2.3-.2.5.08-.18-.08.2-.07.17-.15.34-.23.51-.21.47-.44.94-.67 1.4-2.15 4.28-4.9 8.26-7.66 12.17-3.96 5.63-8.1 11.13-12.18 16.67-4.44 6.02-8.77 12.4-13.31 18.21-3.73 4.77-7.68 9.35-11.64 13.93-8.72 10.09-17.61 20.13-25.19 31.13-3.38 4.9-6.51 10.03-8.84 15.52-1.99 4.69-3.51 9.72-3.39 14.86.22 10.22 6.99 19.2 14.75 25.25 8.88 6.93 19.54 11.37 30.3 14.5 9.55 2.78 19.49 4.63 29.43 5.21 1.74.1 3.48.16 5.23.13 2.94-.04 2.95-4.61 0-4.57-3.87.05-7.74-.25-11.58-.7-2.14-.25-4.27-.56-6.65-.98-2.57-.45-5.13-.96-7.67-1.55-10.55-2.43-20.97-5.94-30.26-11.53-8.28-4.98-15.79-12.01-18.31-21.38-1.13-4.2-.68-8.41.65-12.8 1.57-5.2 4.16-10.02 7.05-14.68 6.82-10.98 15.34-20.82 23.77-30.58 4.08-4.72 8.19-9.41 12.16-14.23 4.17-5.06 7.95-10.37 11.81-15.68 4.52-6.22 9.12-12.38 13.65-18.58 3.26-4.46 6.53-8.95 9.42-13.66 3.47-5.66 7.21-12.78 4.23-19.42-1.35-3.01-3.91-5.28-6.54-7.17-1.65-1.19-3.41-2.23-5.19-3.2-.5-.27-1.01-.54-1.52-.8-.07-.04-.6-.31-.6-.31l.37.38c.33.21.51.51.52.91.15.57.16 1.02-.13 1.55.09-.17-.52.44-.05.09.23-.17.66-.52.12-.13 3.29-2.39 6.83-4.42 10.17-6.74 5.07-3.52 10-7.41 14.12-12.03 2.09-2.34 3.99-4.87 5.52-7.6h-3.95c1.16 1.75 2.59 3.35 3.99 4.9 4.11 4.53 8.69 8.64 13.41 12.53 4.26 3.51 8.67 6.83 13.18 10.01v-3.95c-2.9 2.11-6.37 3.3-9.25 5.47-3.88 2.92-5.97 7.09-5.37 12 .45 3.63 1.88 7.03 3.6 10.23 2.61 4.85 5.94 9.3 9.38 13.58 7.69 9.56 16.42 18.13 25.3 26.57 8.75 8.31 17.6 16.54 25.78 25.43 7.48 8.12 14.59 16.88 19.32 26.93 4.11 8.74 5.79 18.38 3.11 27.69-.65 2.27-1.51 4.5-2.62 6.59-.95 1.78-2.06 3.36-3.22 4.73-2.94 3.49-6.46 6.46-10.17 9.07-8.87 6.23-18.9 10.84-29.12 14.35-9.54 3.27-19.57 5.83-29.58 6.24-1.99.08-3.99.06-5.98-.1-1.23-.1-2.29 1.12-2.29 2.29 0 1.32 1.05 2.19 2.29 2.29Z" fill="#fff"/>
  <path d="M283.53 485.12c7.73-3.27 15.16-7.31 22.32-11.66 9.59-5.83 18.82-12.4 27.1-19.99s15.53-15.93 19.88-25.99c4-9.27 4.98-19.56 1.32-29.12-3.09-8.07-8.3-15.21-13.68-21.9-6.66-8.27-14.04-15.95-21.61-23.38-8-7.86-16.27-15.43-24.63-22.89-7.27-6.49-14.63-12.88-21.91-19.35-4.72-4.2-9.66-8.36-13.82-13.13-.15-.17-.29-.34-.43-.51-.1-.12-.56-.71-.29-.35s-.09-.13-.17-.24c-.1-.15-.21-.3-.31-.46-.21-.34-.5-1.04-.18-.24-.04-.09-.08-.19-.09-.28-.05-.3-.03.54.03.24.02-.12.03-.77-.01-.43s.08-.26.11-.34c.15-.39-.18.28.05-.09.11-.18.22-.37.34-.55.26-.4-.08.04.27-.33.74-.8 1.59-1.55 2.42-2.2 2.43-1.89 5.11-3.64 7.61-5.52 3.25-2.45 6.35-5.08 9.16-8.03 1.05-1.11.79-3.58-1.01-3.82-8.85-1.21-17.37-4.05-25.07-8.58-6.38-3.76-12.02-8.49-17.1-13.89-4.14-4.41-7.31-8.54-10.73-13.27-1.25-1.73-2.49-3.47-3.82-5.15-.82-1.03-1.72-2.17-2.89-2.84-3.16-1.79-5.47 1.81-7.3 3.85-4.32 4.8-8.66 9.58-13.19 14.17-5.93 6.01-12.15 11.83-18.92 16.9-6.11 4.58-12.82 8.92-20.21 10.77-.78.2-1.55.3-2.13.9-.66.67-.83 1.64-.57 2.52.33 1.11 1.24 2.03 1.97 2.88 2.21 2.61 4.46 5.17 6.35 8.03 2.22 3.37 4.22 7.23 4.39 11.35.03.66 0 1.32-.06 1.98.08-.8 0-.07-.04.13-.05.21-.09.43-.14.64-.12.46-.25.92-.41 1.36-.08.24-.17.48-.26.72-.04.1-.08.2-.12.29-.19.5-.01.05-.05.13-2.38 5.39-5.91 10.26-9.46 14.93-4.74 6.24-10.09 12.43-15.37 18.39-11.26 12.69-23.05 24.89-34.54 37.37-7.36 8-14.94 16.08-19.62 26.02-4.86 10.33-6.3 21.91-2.75 32.89 5.31 16.4 19.19 28.63 33.07 37.93 5.04 3.38 10.28 6.45 15.63 9.32 2.59 1.39 4.9-2.55 2.31-3.95-9.98-5.36-19.71-11.42-28.22-18.94-5.9-5.21-11.26-11.12-15.08-18.03-1.6-2.9-2.67-5.36-3.61-8.53-.42-1.41-.76-2.85-1.03-4.3l-.18-1.06-.06-.42c.07.52-.02-.18-.03-.23-.08-.69-.15-1.39-.19-2.09a37.21 37.21 0 0 1-.05-4.09c.02-.6.06-1.2.11-1.8.03-.33.06-.66.1-.99l.06-.49c.07-.61-.03.19.04-.27.38-2.53.97-5.03 1.77-7.46.39-1.18.82-2.34 1.3-3.48.24-.59-.19.43.06-.15.05-.12.1-.23.15-.35.13-.29.26-.57.39-.86.26-.57.53-1.13.81-1.69 1.1-2.19 2.34-4.3 3.69-6.34.65-.99 1.33-1.96 2.02-2.91.32-.44.65-.88.99-1.32-.11.15-.02.02.22-.28.21-.27.42-.53.63-.79 1.68-2.09 3.46-4.1 5.25-6.1 10.69-11.99 21.92-23.5 32.76-35.35 5.65-6.19 11.24-12.44 16.6-18.89 4.52-5.45 8.97-11.03 12.74-17.02 2.41-3.83 5.05-8.3 5.16-12.96.19-8.56-5.59-16.01-10.88-22.17-.42-.49-.85-.98-1.26-1.48-.16-.19-.32-.39-.48-.58-.41-.48.31.24-.2-.27-.1-.1-.12-.27-.22-.36-.18-.16.21.62.14.33.2.77-.56 1.72-.99 2.32-.28.39-.66.23.03.09.17-.03.33-.08.5-.12.5-.13 1-.26 1.5-.41 3.63-1.09 7.1-2.72 10.4-4.59 7.36-4.17 14.02-9.57 20.28-15.23 5.75-5.2 11.18-10.76 16.43-16.46 2.94-3.19 5.74-6.52 8.78-9.61.38-.39.19-.12-.07.03.29-.17-.66.23-.35.14s-.77.04-.35.05c.14 0-.76-.15-.35-.03.35.1-.49-.37-.29-.12.04.05.16.09.22.13.47.27-.13-.13-.09-.08.31.44.86.82 1.22 1.24.22.25.42.51.63.76.11.13.55.71.09.11.16.21.32.41.47.62 3 3.98 5.83 8.08 8.98 11.95 9.56 11.76 21.59 21.44 36.05 26.41 4.31 1.48 8.76 2.5 13.27 3.12l-1.01-3.82c-2.76 2.91-5.8 5.52-9.02 7.9-2.57 1.9-5.23 3.66-7.74 5.64-2.77 2.19-5.78 5.54-3.94 9.26.82 1.65 2.24 3.09 3.5 4.41 2.04 2.15 4.2 4.17 6.38 6.17 6.44 5.93 13.07 11.66 19.64 17.44 8.16 7.19 16.29 14.44 24.22 21.88 8.08 7.58 15.99 15.36 23.39 23.6 6.22 6.93 11.99 13.85 16.57 21.99.92 1.64 1.77 3.31 2.52 5.03.21.49-.05-.13.1.24.07.17.14.34.21.52.17.42.33.85.48 1.28.38 1.08.7 2.18.97 3.29 1.1 4.52 1.11 9.48.16 13.97-2.14 10.05-8.26 18.82-15.25 26.29-7.66 8.2-16.58 15.16-25.92 21.33-7.81 5.16-15.99 9.84-24.46 13.83-1.44.68-2.9 1.34-4.37 1.96-1.14.48-1.39 2.16-.82 3.13.69 1.18 1.99 1.3 3.13.82ZM140.22 166.78c-4.75 5.97-10.3 11.37-15.45 17-5.99 6.53-12.28 13.12-17.16 20.56s-4.58 16.45-2.93 24.64c1.97 9.81 6.26 19.14 11.08 27.86 3.67 6.65 8 12.82 12.03 19.24 1.56 2.49 5.52.19 3.95-2.31-3.3-5.26-6.88-10.33-10.02-15.7-4.85-8.3-9.19-17.05-11.7-26.37-1.21-4.48-1.96-9.03-1.79-13.68.08-2.14.33-4 .89-6.09.14-.54.31-1.07.48-1.6.07-.21.16-.43.23-.64.15-.45-.24.5-.03.05.27-.57.55-1.13.87-1.67 1.85-3.18 3.93-5.7 6.22-8.46 2.95-3.56 6.03-7.02 9.14-10.44 3.44-3.78 6.93-7.52 10.4-11.27 2.38-2.58 4.84-5.13 7.02-7.88.77-.97.94-2.29 0-3.23-.8-.8-2.46-.97-3.23 0Z" fill="#fff"/>
  <path d="M151.49 191.26c-3.68 3.32-7.11 6.94-10.54 10.5s-7.01 6.89-9.72 10.87-2.92 9.27-1.18 13.82c1.49 3.88 3.87 7.2 6.48 10.4s5.17 6.8 7.12 10.59c3.2 6.22 4.49 13.27 1.12 19.68-1.37 2.6 2.58 4.92 3.95 2.31 3.08-5.86 3.36-12.44 1.27-18.68-1.23-3.68-3.07-7.14-5.2-10.38-2.45-3.72-5.55-6.97-7.97-10.7-1.56-2.4-3.07-5.49-3.33-8.06-.06-.6-.08-1.2-.05-1.79.01-.26.03-.52.06-.78-.05.41.06-.3.09-.45.1-.46.22-.92.38-1.37.03-.1.27-.68.17-.45-.08.19.18-.37.25-.5a12.104 12.104 0 0 1 .99-1.61c.07-.09.14-.18.2-.28-.06.08-.3.39-.11.14.59-.73 1.2-1.44 1.82-2.14 1.75-1.98 3.57-3.91 5.39-5.82 3.91-4.1 7.83-8.27 12.04-12.06 2.19-1.97-1.05-5.2-3.23-3.23ZM287.38 176.11c3.18 4.15 6.87 7.85 10.4 11.69 3.84 4.17 7.18 8.13 9.94 13.09 2.96 5.32 4.7 11.29 4.95 17.48.35 8.52-1.98 16.47-4.49 24.52-3.12 10-6.12 20.05-8.87 30.16-.77 2.84 3.64 4.06 4.41 1.22 2.5-9.21 5.22-18.35 8.04-27.47 2.62-8.49 5.39-16.86 5.52-25.84.1-6.87-1.34-13.63-4.29-19.83-2.53-5.31-6.14-10.03-10.02-14.41-2.02-2.28-4.13-4.48-6.21-6.71-.98-1.05-1.95-2.1-2.89-3.17-.48-.55-.96-1.1-1.43-1.66-.23-.28-.46-.55-.68-.83-.1-.13-.64-.81-.43-.54-.75-.98-1.97-1.5-3.13-.82-.96.56-1.58 2.14-.82 3.13Z" fill="#fff"/>
  <path d="M271.02 191.64c3.48 4.38 7.93 7.84 11.74 11.91s6.42 8.28 6.11 13.64c-.19 3.34-1.59 6.62-3.27 9.52-.48.83-.99 1.62-1.56 2.39-.1.14-.21.28-.32.42-.37.5.13-.16-.1.14-.25.32-.5.64-.76.97-2.41 3.09-4.48 6.34-5.13 10.28-1.29 7.83 1.48 15.84 4.46 22.96.48 1.14 1.51 1.95 2.81 1.6 1.07-.29 2.08-1.67 1.6-2.81-2.65-6.31-5.31-13.36-4.5-20.28-.05.43.03-.22.06-.35.05-.27.1-.54.16-.81.11-.51.25-1.01.41-1.51.08-.24.16-.47.24-.7.06-.17.26-.64.07-.21.18-.43.39-.85.6-1.26.41-.78.89-1.53 1.39-2.25.23-.33.46-.65.7-.96.11-.15.22-.29.33-.44-.38.49.06-.08.17-.21 3.56-4.55 6.44-9.62 7.11-15.47s-1.94-11.52-5.75-16.07c-4.11-4.91-9.37-8.71-13.35-13.73-.77-.97-2.43-.8-3.23 0-.96.96-.77 2.26 0 3.23ZM199.96 200.98c-.05.47-.14 1.01-.29 1.79-.18.92-.39 1.83-.63 2.73-.51 1.96-1.13 3.9-1.81 5.81-1.44 4.05-3.18 8-5.28 11.75-1.75 3.12-3.63 6.04-6.39 8.32-3.37 2.78-7.18 4.97-11.25 6.57-4.99 1.96-10.09 3.56-14.99 5.74-1.13.5-1.39 2.15-.82 3.13.68 1.16 2 1.32 3.13.82 4.39-1.95 8.97-3.37 13.44-5.1s8.71-3.99 12.56-6.99c6.76-5.27 10.54-13.74 13.49-21.58 1.58-4.19 2.92-8.53 3.42-12.99.14-1.23-1.15-2.29-2.29-2.29-1.35 0-2.15 1.05-2.29 2.29ZM220.28 203.66c3.56 8.17 7.89 16.07 13.83 22.78 4.95 5.59 11.02 10.08 17.64 13.51 4.17 2.16 8.53 3.94 12.94 5.55 1.16.42 2.5-.48 2.81-1.6.35-1.27-.43-2.39-1.6-2.81-7.04-2.57-13.92-5.67-20.02-10.08s-10.69-9.78-14.54-15.9c-2.75-4.38-5.05-9.01-7.11-13.75-.49-1.13-2.15-1.39-3.13-.82-1.17.68-1.31 1.99-.82 3.13ZM134.25 295.59c-.01.21-.04.42-.05.63.04-.82.03-.18-.02.04-.1.45-.21.9-.36 1.34-.06.19-.13.39-.2.58-.04.12-.09.23-.14.35-.17.44.23-.51.03-.07-.22.47-.44.95-.69 1.41-.54 1.01-1.16 1.98-1.81 2.93-.35.51-.72 1.01-1.09 1.51-.07.09-.64.83-.29.38-.24.31-.49.62-.74.93-4.26 5.26-9.14 10.02-14 14.73-12.67 12.3-25.72 24.25-37.24 37.68s-22.38 28.87-26.41 46.44c-2.18 9.51-2.15 19.54.1 29.03s6.43 17.47 12.08 24.81c9.01 11.69 21.1 20.66 34.03 27.61.98.53 1.96 1.04 2.95 1.55 2.61 1.34 4.93-2.6 2.31-3.95-12-6.16-23.04-13.58-32.05-23.62-5.74-6.39-10.46-13.83-13.27-21.99-3.09-8.95-3.99-18.96-2.53-28.13 2.73-17.21 12.7-32.46 23.63-45.67 11.28-13.64 24.25-25.72 36.99-37.97 5.09-4.89 10.21-9.81 14.84-15.14 3.19-3.67 6.61-7.77 8.02-12.52.28-.93.44-1.91.49-2.88.15-2.94-4.42-2.93-4.57 0Z" fill="#fff"/>
  <path d="M101.68 297.32c-.99 1.03-2.09 1.95-3.2 2.84-.34.28-.69.55-1.03.82l-.55.43c.56-.43-.15.11-.28.22-.86.66-1.72 1.3-2.58 1.95-4.35 3.24-8.75 6.42-13.07 9.7-11.45 8.68-22.54 17.91-32.33 28.45-10.69 11.51-19.98 24.67-25.1 39.63-2.56 7.47-3.97 15.37-4 23.27-.03 6.75 1.02 13.56 2.47 20.15 3.62 16.36 13.08 30.28 24.22 42.52 2.12 2.33 4.3 4.6 6.52 6.82 2.08 2.09 5.32-1.15 3.23-3.23-7.56-7.58-14.72-15.68-20.34-24.83-3.69-6-6.44-12-8.29-18.76-3.63-13.24-4.41-27.14-.75-40.37 4.04-14.59 12.55-27.63 22.51-38.91 4.92-5.58 10.24-10.81 15.79-15.77 2.63-2.35 5.31-4.63 8.03-6.87 1.3-1.07 2.61-2.13 3.93-3.17.64-.51 1.28-1.02 1.93-1.52.32-.25.64-.5.95-.74.28-.22.73-.57.76-.59 4.48-3.46 9.05-6.8 13.61-10.16 3.21-2.37 6.49-4.69 9.47-7.35.46-.41.92-.84 1.34-1.28 2.04-2.12-1.19-5.36-3.23-3.23ZM287.16 303.95c12.42 9.12 25.36 17.52 37.86 26.53s25.97 19.49 36.89 31.44c4.92 5.38 9.4 11.18 12.98 17.54 3.22 5.73 5.97 12.21 6.69 18.74 1.65 14.93-5.22 29.56-13.38 41.61-9.93 14.65-23.08 27.28-37.44 37.55-1.85 1.32-3.73 2.61-5.63 3.85-2.45 1.61-.16 5.57 2.31 3.95 15.51-10.19 29.58-22.83 40.81-37.63 9.51-12.53 17.73-27.7 18.13-43.78.37-14.81-7.52-28.51-16.58-39.67-10.41-12.82-23.37-23.4-36.56-33.22-12.92-9.62-26.41-18.43-39.52-27.79-1.43-1.02-2.85-2.05-4.26-3.09-1-.73-2.55-.17-3.13.82-.68 1.16-.18 2.39.82 3.13Z" fill="#fff"/>
  <path d="M323.65 303.95c12.44 7.29 24.81 14.74 36.66 22.96 11.77 8.17 23.31 17.11 32.76 27.95 3.97 4.56 7.54 9.54 10.1 15.04 3.25 6.98 5.48 14.67 6.38 22.33 1.63 13.91-1.19 27.86-7.61 40.27s-15.21 22.27-25.51 30.87c-1.16.97-2.34 1.92-3.54 2.85-.98.75-1.5 1.97-.82 3.13.56.96 2.14 1.58 3.13.82 11.05-8.5 20.9-18.7 28.09-30.7 7.41-12.36 11.69-26.57 11.29-41.05s-5.15-29.81-14.08-41.61c-8.86-11.72-20.41-21.22-32.22-29.82-12.18-8.87-25.02-16.79-37.99-24.44-1.44-.85-2.88-1.7-4.32-2.54-2.54-1.49-4.85 2.46-2.31 3.95Z" fill="#fff"/>
  <path d="M218.32 87c5.24-4.81 3.22-10.81 1.67-13.4-1.35-2.25-3.32-5.55-10.18-6.36-5.6-.67-12.23 3.82-13.51 8.79-.96 3.74.39 8.5 3.36 11.03 4.17 3.54 12.84 5.29 18.66-.05ZM164.77 89.19c3.18-3.15 7.05-5.77 11.35-7.71 1.96-.88 4.07-1.63 6.29-1.7 4.51-.14 8.59 2.67 10.71 6.09s2.64 7.38 3.04 11.24c.05.51.1 1.06-.2 1.5-.69 1.05-2.5.78-3.82.37-8.75-2.72-17.5-5.45-26.25-8.17M258.8 87.64c-3.45-3.62-7.66-6.65-12.33-8.88-2.13-1.02-4.43-1.88-6.83-1.96-4.9-.16-9.33 3.07-11.63 7.01s-2.87 8.5-3.31 12.94c-.06.59-.1 1.22.21 1.73.75 1.21 2.72.9 4.15.43 9.51-3.14 19.01-6.27 28.52-9.41" fill="#f0b438" opacity=".6"/>
  <path d="M170.47 98.43c.11 2.25 1.41 4.75 2.99 6.36 3.27 3.31 11.35 3.01 14.87.16s3.97-8.1 2.2-12.04c-.95-2.11-2.62-2.45-4.55-3.74-3.41-2.28-9.49-2.02-12.25 1-2.43 2.66-3.49 3.4-3.26 8.25Z" fill="#78c0e7"/>
  <path d="M168.22 98.43c.21 2.99 1.6 6.04 3.8 8.1 1.76 1.64 4.07 2.42 6.42 2.74 4.83.64 10.36-.57 13.28-4.74 1.51-2.16 2.15-5.01 2.01-7.62s-.94-5.71-3.11-7.47c-1-.81-2.16-1.35-3.24-2.03s-2.21-1.22-3.44-1.55c-2.5-.65-5.33-.62-7.78.24-2.59.91-4.45 2.72-6.09 4.86s-1.95 4.78-1.84 7.47c.12 2.89 4.62 2.9 4.5 0-.04-.88-.03-2.3.05-2.76.06-.34.17-.66.25-.99.14-.57-.2.35.06-.15.1-.19.2-.37.31-.55.08-.13.17-.25.26-.38-.3.42.08-.09.13-.15.23-.27.47-.53.71-.79.64-.69 1.15-1.31 1.79-1.7 1.48-.91 3.24-1.16 5.09-1.02s3.05.98 4.74 1.93c.74.41 1.42.73 1.89 1.24.56.6.83 1.52 1.04 2.46.39 1.72.29 3.61-.43 5.32-.65 1.54-1.62 2.45-3.09 3.13-1.22.57-3.13.89-4.72.9-1.1 0-1.76-.05-2.71-.27-1.13-.26-1.62-.44-2.5-1-.36-.23-.16-.1-.07-.03a5.91 5.91 0 0 1-.68-.64c-.37-.4-.67-.82-.96-1.28-.61-.99-1.09-2.11-1.17-3.27s-.97-2.25-2.25-2.25c-1.15 0-2.33 1.03-2.25 2.25Z"/>
  <path d="M229.39 93.86c-.4 3.44 1.13 6.91 4.1 8.68 2.64 1.58 5.99 2.19 8.74 1.55 6.11-1.42 8.94-7.2 7.54-12.24-1.01-3.63-4.87-4.93-5.73-5.2-4.93-1.6-8.84-1-12.64 2.73-1.24 1.22-1.78 2.54-2.01 4.48Z" fill="#7ea263"/>
  <path d="M227.14 93.86c-.27 2.65.43 5.45 1.99 7.62 1.66 2.3 4.09 3.77 6.8 4.54 5.21 1.49 10.86-.12 14.13-4.51 2.61-3.5 3.3-9.04.72-12.75-2.39-3.45-6.93-5.03-10.99-5.19-2.78-.11-5.54.75-7.79 2.37-1.32.95-2.58 2.04-3.48 3.41s-1.19 2.92-1.39 4.5c-.16 1.21 1.15 2.25 2.25 2.25 1.35 0 2.09-1.04 2.25-2.25.43-3.29 4.18-5.64 7.16-5.78 1.68-.08 3.3.27 4.89.82.21.07.41.15.61.23-.59-.23.28.14.42.22.68.35 1.16.68 1.54 1.03 2.11 1.95 1.99 5.28.74 7.6-1.53 2.83-4.77 4.48-8.23 4.06-2.06-.25-4.26-1.11-5.63-2.71s-1.69-3.51-1.49-5.47c.12-1.21-1.12-2.25-2.25-2.25-1.32 0-2.13 1.04-2.25 2.25Z"/>
  <path d="M179.01 96.8c.12 1.39 2 2.27 3.15 1.47s.97-2.87-.29-3.46c-1.57-.74-3.47 1.55-2.4 2.91s3.79-.14 3.14-1.74c-.29-.72-1.83-.27-1.19.17" fill="#fff"/>
  <path d="M176.76 96.8c.03.28.05.57.12.85s.19.52.3.77c.15.35.4.65.64.93s.56.51.85.72c.31.22.68.36 1.04.5.19.07.37.12.57.15.28.04.56.1.85.1s.57-.05.85-.09c.37-.05.72-.21 1.05-.37.09-.04.18-.09.26-.15.23-.16.46-.33.66-.52s.34-.41.5-.62c.06-.08.12-.16.16-.25.13-.24.23-.5.33-.75.04-.09.07-.19.09-.29.18-.76.17-1.49 0-2.24-.08-.36-.24-.72-.41-1.05s-.4-.62-.64-.88a4.669 4.669 0 0 0-.86-.68 4.261 4.261 0 0 0-1.05-.41c-.26-.05-.54-.09-.81-.1-.28 0-.57.05-.85.09-.36.05-.69.21-1.02.36-.26.12-.48.28-.7.46s-.44.34-.62.56c-.48.57-.88 1.18-1.05 1.92-.06.26-.09.54-.12.81 0 .09-.01.19 0 .28.02.35.06.74.19 1.08.22.57.43.95.84 1.41.05.06.11.11.18.17.2.17.41.35.65.48.3.16.63.31.97.37s.72.13 1.09.09c.74-.08 1.4-.24 2.06-.62s1.13-.87 1.52-1.47c.05-.07.08-.14.12-.22.11-.24.23-.48.3-.73s.1-.54.12-.8c0-.09.01-.17 0-.26-.07-1.06-.5-2.08-1.47-2.62-.48-.27-.96-.37-1.5-.4h-.2c-.26.02-.53.04-.78.12-.47.14-.91.37-1.26.72-.61.61-.86 1.51-.64 2.35.05.21.16.44.27.64.23.41.55.64.92.91.26.16.54.25.84.27.3.07.6.05.9-.04.52-.14 1.09-.55 1.34-1.03.28-.52.41-1.15.23-1.73l-.23-.54c-.2-.34-.47-.61-.81-.81l-.03-.02.46.35s-.05-.05-.08-.07l.35.46s-.02-.03-.03-.05l.23.54s-.01-.03-.02-.05l.08.6v-.03l-.08.6s0-.03.01-.05l-.23.54s.02-.03.03-.05l-.35.46.06-.06-.46.35s.09-.06.14-.08l-.54.23c.08-.03.16-.05.25-.07l-.6.08c.1-.01.2-.01.31 0l-.6-.08c.08.01.16.03.24.06l-.54-.23s.09.04.13.07l-.46-.35s.07.06.11.1l-.35-.46s.06.09.08.13l-.23-.54c.04.11.07.21.09.33l-.08-.6c.01.12.01.23 0 .35l.08-.6c-.02.12-.05.23-.09.34l.23-.54c-.06.14-.14.27-.24.4l.35-.46a1.8 1.8 0 0 1-.37.36l.46-.35c-.17.13-.36.24-.56.32l.54-.23c-.19.08-.38.13-.58.16l.6-.08c-.16.02-.31.02-.47 0l.6.08c-.13-.02-.25-.05-.38-.1l.54.23c-.11-.05-.21-.11-.31-.18l.46.35c-.09-.07-.17-.15-.24-.24l.35.46c-.08-.11-.15-.22-.2-.34l.23.54c-.05-.12-.08-.24-.1-.37l.08.6c-.02-.14-.01-.28 0-.41l-.08.6c.03-.18.07-.35.14-.52l-.23.54c.08-.18.18-.36.3-.52l-.35.46c.13-.17.28-.32.45-.46l-.46.35c.15-.11.31-.21.48-.28l-.54.23c.16-.07.32-.11.48-.14l-.6.08c.14-.02.28-.02.42 0l-.6-.08c.12.02.23.05.34.09l-.54-.23c.14.06.27.13.39.22l-.46-.35c.11.09.22.19.31.31l-.35-.46c.11.14.19.29.26.45l-.23-.54c.08.19.13.38.16.59l-.08-.6c.03.22.03.43 0 .65l.08-.6c-.03.19-.08.37-.15.54l.23-.54c-.07.15-.14.28-.24.41l.35-.46c-.08.1-.18.2-.28.28l.46-.35c-.11.08-.23.16-.36.21l.54-.23c-.15.06-.31.11-.48.13l.6-.08c-.17.02-.33.02-.5 0l.6.08c-.21-.03-.41-.08-.61-.17l.54.23c-.18-.08-.35-.18-.51-.3l.46.35c-.14-.11-.27-.24-.39-.38l.35.46c-.1-.13-.18-.27-.25-.43l.23.54c-.05-.13-.09-.26-.11-.4l.08.6v-.08c.01-.31-.05-.6-.19-.87-.09-.28-.25-.52-.47-.72-.39-.39-1.03-.68-1.59-.66s-1.19.22-1.59.66c-.38.41-.72 1.01-.66 1.59ZM234.89 95.46c-.29.87-.21 1.88.24 2.67s1.19 1.28 2.03 1.59c1.2.44 2.69.3 3.89-.02 1.3-.35 2.68-1.05 3.54-2.11.6-.75 1.01-1.53 1.14-2.5.14-1.03-.09-1.98-.52-2.92-.7-1.54-2.17-2.61-3.84-2.88s-3.67-.05-5.16.99c-1.72 1.21-2.75 3.15-2.52 5.29.06.55.2 1.06.47 1.54.19.34.44.65.7.94.46.5 1.03.86 1.65 1.12 1.28.54 2.78.53 4-.19 1.37-.81 2.08-2.31 2.22-3.85.11-1.24-.34-2.69-1.31-3.51-.68-.57-1.48-.92-2.38-.92-1.07 0-1.68.51-2.23 1.3-.67.94-1 2.15-.71 3.29.21.82.87 1.6 1.65 1.94.57.25 1.1.4 1.73.23.52-.14 1.09-.55 1.34-1.03.28-.52.41-1.15.23-1.73-.17-.52-.51-1.11-1.03-1.34-.11-.05-.21-.1-.3-.17l.46.35c-.06-.05-.11-.09-.16-.15l.35.46a.98.98 0 0 1-.13-.22l.23.54c-.02-.06-.04-.12-.05-.18l.08.6a1.71 1.71 0 0 1 0-.32l-.08.6c.03-.15.07-.3.13-.44l-.23.54c.12-.28.27-.54.46-.78l-.35.46s.04-.05.06-.07l-1.59.66c.13-.01.25 0 .38 0l-.6-.08c.09.02.18.04.27.08l-.54-.23c.11.05.2.1.3.17l-.46-.35c.09.07.17.15.25.24l-.35-.46c.1.14.19.28.25.44l-.23-.54c.07.17.11.34.14.53l-.08-.6c.03.25.03.5 0 .75l.08-.6c-.04.27-.11.52-.2.77l.23-.54c-.1.22-.21.43-.36.63l.35-.46c-.1.13-.21.24-.34.34l.46-.35c-.12.09-.25.17-.39.23l.54-.23c-.17.07-.33.12-.51.15l.6-.08c-.2.03-.41.03-.61 0l.6.08c-.24-.03-.46-.09-.68-.18l.54.23c-.22-.1-.43-.22-.63-.37l.46.35c-.17-.14-.33-.3-.47-.48l.35.46a2.98 2.98 0 0 1-.34-.6l.31 1.14c-.05-.38-.05-.77 0-1.15l-.08.6c.04-.29.12-.57.23-.85l-.23.54c.11-.25.25-.49.41-.71l-.35.46c.19-.24.41-.46.66-.65l-.46.35c.28-.21.59-.38.91-.52l-.54.23c.39-.16.79-.26 1.2-.32l-.6.08c.45-.06.9-.06 1.34 0l-.6-.08c.35.05.68.14 1 .27l-.54-.23c.25.11.48.24.7.4l-.46-.35c.15.12.28.25.4.4l-.35-.46c.2.26.35.55.48.85l-.23-.54c.1.25.18.5.22.77l-.08-.6c.03.22.03.44 0 .66l.08-.6c-.03.21-.08.4-.16.59l.23-.54c-.09.22-.21.42-.36.61l.35-.46c-.18.23-.4.44-.63.62l.46-.35c-.34.26-.72.47-1.12.64l.54-.23c-.51.21-1.05.36-1.61.44l.6-.08c-.42.05-.85.07-1.27.01l.6.08c-.24-.03-.47-.09-.69-.18l.54.23c-.12-.05-.22-.11-.33-.19l.46.35c-.07-.06-.14-.12-.2-.2l.35.46a.878.878 0 0 1-.12-.21l.23.54c-.03-.08-.05-.16-.06-.24l.08.6c-.01-.11 0-.21 0-.31l-.08.6c.02-.11.04-.21.08-.31.38-1.12-.43-2.51-1.57-2.77-1.25-.28-2.36.38-2.77 1.57ZM163.08 89.12c7.07-7.1 18.76-6.5 27.98-5.89 2.89.19 2.88-4.31 0-4.5-10.53-.69-23.15-.83-31.16 7.21-2.05 2.05 1.13 5.24 3.18 3.18ZM262.09 87.02c-6.27-9.07-18.86-9.86-28.89-9.91-2.9-.01-2.9 4.49 0 4.5 4.72.02 9.49.22 14.1 1.32 4.13.98 8.41 2.75 10.91 6.36.69 1 1.97 1.45 3.08.81.99-.58 1.5-2.07.81-3.08Z"/>
  <path d="m235.04 63.96-6.11-13.45c6.15 7.78 14.24 8.1 20.98 8.75 0 0 5.87-.16 7.12 5.51 2.4 10.91 8.83 11.1 10.11 22.82 9.02-7.44-4.45-25.15-3.52-32.14.88-6.61 1.23-9.32 1.29-15.98.1-10.99-7.34-22.17-18.34-24.46-10.99-2.3-15.72.38-25.63 5.57.11-13.27-18.25-14.91-24.72-18.34 1.82 3.97 8.71 17.54 4.9 15.24-10.8-6.54-21.62-8.25-27.53-4.09 2.3 2.52 10.56 11.05 7.94 12.03 0 0-23.71-6.31-32.64 14.1l15.79-.54c-3.53 3.26-11.21 7.41-12.3 12.52 0 0 6.51-1.26 7.59 3.47 2.19 9.61-9.98 26.52-9.98 26.52 3.95 4.09 16.47-10.96 18.18-19.58l13.3 5.26c-3.62-5.06-4.28-8.04-4.7-12.88 5.55 9.65 13.58 16.71 30.24 14.8-1.39-2.97-2.84-3.31-3.93-5.66 0 0 4.69.58 10.74 2.25 0 0 1.39-3.38 21.24-1.72Z" fill="#ae3517"/>
  <path d="M236.98 62.82c-2.04-4.48-4.07-8.97-6.11-13.45l-3.53 2.73c3.07 3.82 7.2 6.48 11.9 7.81 3.5.99 7.22 1.35 10.84 1.6l.47.03c.56.02-.29-.07.11.02.29.06.58.12.87.2.17.05.92.34.63.21 1.37.63 2.19 1.5 2.61 3.07.61 2.26 1.22 4.43 2.27 6.54.79 1.59 1.79 3.05 2.82 4.49 1.1 1.52 2.21 3.04 3.07 4.71 1.09 2.11 1.67 4.47 1.95 6.82.23 1.97 2.27 2.92 3.84 1.59 5.31-4.52 3.96-12.04 2.04-17.87-1.05-3.18-2.37-6.26-3.51-9.41-.46-1.28-.9-2.58-1.2-3.91-.06-.27-.11-.54-.16-.82-.08-.44-.02-.07 0 .02-.01-.12-.03-.25-.04-.37-.03-.63 0-1.21.08-1.84 1.09-8.38 2.52-17.53-.63-25.64s-9.23-14.33-17.44-16.34c-4.77-1.17-9.85-1.5-14.64-.3s-9.11 3.69-13.41 5.94l3.39 1.94c-.02-11.25-11.24-15.33-20.22-18.21-1.08-.35-2.16-.69-3.22-1.07-.5-.18-1-.36-1.49-.57.4.17-.07-.03-.21-.1-.23-.11-.46-.22-.68-.34-2.09-1.09-4.01 1.06-3.08 3.08 2.01 4.35 4.51 8.53 5.62 13.11.05.2.08.4.13.6-.1-.47.05-.25-.03 0-.05.14.09-.39.11-.45.42-.97 1.55-1.2 2.04-1.12.05 0 .52.28.22.08-.17-.11-.39-.23-.55-.33-.49-.29-.99-.58-1.49-.85-1.11-.61-2.24-1.19-3.39-1.72-4.1-1.89-8.41-3.29-12.92-3.72-3.96-.37-8.23.18-11.57 2.46-1.23.84-1.48 2.41-.46 3.53 1.76 1.93 3.55 3.82 5.21 5.84.79.96 1.51 1.88 2.16 3.02.13.23.26.46.37.7.14.3-.11-.35-.03-.06.03.09.05.2.09.29.14.31 0-.13.01-.23.05-.27.12-.49.29-.71.07-.09.54-.45.3-.35l1.73-.23c-8.83-2.34-19.59-1.06-26.93 4.53-3.64 2.77-6.4 6.44-8.25 10.61-.65 1.46.08 3.45 1.94 3.39l15.79-.54-1.59-3.84c-4.44 4.03-11.38 7.15-12.87 13.51-.41 1.76 1.07 3.09 2.77 2.77.51-.1-.22 0-.01 0 .42 0 .84-.07 1.27-.07 1.14 0 1.88.08 2.72.62.16.1.53.44.71.85s.27 1.17.29 1.45c.1 1.43-.02 2.7-.28 3.98-1.17 5.8-4.11 11.21-7.21 16.19a68.32 68.32 0 0 1-2.42 3.67c-.57.79-.31 2.08.35 2.73 4.1 4 10-1.61 12.72-4.59 4.02-4.4 7.99-10.06 9.21-15.99l-2.77 1.57c4.43 1.75 8.86 3.51 13.3 5.26 1.79.71 3.64-1.76 2.54-3.31-1.32-1.86-2.59-3.81-3.32-5.98-.63-1.87-.89-3.8-1.07-5.76l-4.19 1.14c2.9 5.01 6.67 9.63 11.76 12.54 6.18 3.53 13.46 4.14 20.42 3.37 1.74-.19 2.74-1.75 1.94-3.39-1.03-2.11-2.91-3.58-3.93-5.66l-1.94 3.39c.34.04-.55-.09-.31-.04.21.04.42.06.63.09.78.12 1.56.25 2.34.4 2.52.47 5.01 1.05 7.48 1.73.86.24 2.16-.13 2.54-1.03.15-.34-.41.49-.24.3.41-.48-.44.19 0-.01.15-.07.31-.16.44-.25.48-.3-.53.16.09-.04.56-.18 1.11-.35 1.69-.48.4-.09.8-.15 1.2-.22.07-.01.69-.1.15-.03.27-.04.55-.07.82-.09 1.22-.13 2.45-.19 3.68-.22 3.83-.1 7.66.12 11.47.44 1.21.1 2.25-1.11 2.25-2.25 0-1.3-1.03-2.15-2.25-2.25-6.12-.5-12.75-1.07-18.8.35-1.38.33-3.74.98-4.38 2.48l2.54-1.03c-3.72-1.02-7.51-1.86-11.33-2.33-1.84-.23-2.61 2.04-1.94 3.39 1.04 2.1 2.9 3.55 3.93 5.66l1.94-3.39c-6.17.68-12.64.39-18.15-2.76-4.44-2.53-7.61-6.54-10.15-10.93-1.06-1.83-4.4-1.16-4.19 1.14s.47 4.72 1.23 6.96c.86 2.56 2.22 4.87 3.78 7.06l2.54-3.31c-4.43-1.75-8.86-3.51-13.3-5.26-1.08-.43-2.54.48-2.77 1.57-.99 4.8-4.06 9.39-7.28 13.12-1.5 1.74-3.24 3.52-4.96 4.62-.4.26-.82.49-1.25.69.4-.18-.57.16-.78.21.64-.15.13.03 0-.02-.59-.22.28.16-.09 0-.39-.16.41.29.04.03-.51-.36.2.22-.09-.07l.35 2.73c2.7-3.76 5.04-7.85 6.97-12.05 1.48-3.22 2.8-6.59 3.32-10.11s.52-7.49-2.48-9.77c-2.21-1.68-5.3-1.87-7.95-1.37l2.77 2.77c.61-2.6 2.92-4.54 4.92-6.18 2.23-1.83 4.66-3.4 6.8-5.35 1.43-1.3.32-3.91-1.59-3.84l-15.79.54 1.94 3.39c2.04-4.6 5.15-8.47 9.52-10.89 1.83-1.01 3.57-1.66 5.71-2.19.98-.24 1.98-.43 2.98-.57.27-.04.01 0-.04 0 .11-.01.22-.03.33-.04.22-.02.44-.05.66-.07.5-.05 1-.08 1.51-.11 1.63-.08 3.27-.05 4.9.08.35.03.7.06 1.05.1.24.03 1.19.16.49.05.51.08 1.02.15 1.53.25s.96.22 1.44.31c2.56.48 3.83-2.19 3.12-4.31-.8-2.37-2.62-4.41-4.2-6.28s-3.1-3.47-4.67-5.19l-.46 3.53c2.93-2.01 6.61-2.23 10.04-1.77 4.76.64 9.34 2.53 13.51 4.86 1.3.73 2.72 1.93 4.32 1.44 1.38-.42 1.96-1.78 1.88-3.11-.15-2.57-1.52-5.18-2.53-7.49-1.2-2.75-2.54-5.44-3.79-8.16l-3.08 3.08c7.1 3.7 16.41 3.89 21.59 10.28.42.52 1.17 1.8 1.41 2.49.46 1.3.6 2.28.6 3.63 0 1.76 1.89 2.73 3.39 1.94 3.55-1.86 7.09-3.89 10.93-5.09 3.51-1.1 7.15-1.23 10.78-.66s7.17 1.77 10.14 4.15 5.1 5.34 6.64 8.7c3.22 7.04 2.15 15.3 1.2 22.74-.2 1.56-.56 3.14-.4 4.73.13 1.27.41 2.51.78 3.74.86 2.84 2.04 5.57 3.08 8.34 1.15 3.04 2.41 6.53 2.7 9.57s-.13 5.34-2.39 7.26l3.84 1.59c-.51-4.44-1.85-8.42-4.41-12.1-2.22-3.19-4.41-6.15-5.45-9.96-.6-2.21-1.13-4.29-2.87-5.92-1.22-1.14-2.76-1.93-4.38-2.3-2.8-.64-5.78-.52-8.62-1.01-5.29-.91-9.72-3.15-13.13-7.38-.69-.86-2.16-.81-2.95-.18-.93.74-1.06 1.85-.58 2.9 2.04 4.48 4.07 8.97 6.11 13.45.5 1.11 2.11 1.38 3.08.81 1.14-.67 1.31-1.97.81-3.08Z"/>
  <path d="M242.31 62.7c-6.61-3.68 4.42-17.81-9.52-24.19 1.4 7.72-.28 11.49-2.49 18.62-.26-5.11-1.15-7.98-3.88-12.31s-7.34-7.69-12.45-7.98c4.5 6.69 5.57 12.79 4.71 20.8-5.11-12.16-10.43-12.91-16.54-18.28.99 6.51 2.22 14.22 5.07 20.16-4.09-1.95-12.44-7.73-16.07-10.44-.05 2.82.72 13.6 5.14 17.15 2.2 1.77 6 2.59 13.27 3.62 0 0 26.75 3.41 19.87-3.8 0 0 14.54-2.42 12.9-3.34Z" fill="#77170e"/>
  <path d="M243.45 60.76c-.12-.07-.69-.53-.28-.16-.17-.15-.33-.31-.47-.48.38.45-.04-.11-.1-.23-.2-.42.11.41-.04-.08-.07-.22-.14-.44-.19-.67-.03-.11-.13-.88-.07-.3-.05-.45-.07-.91-.07-1.37-.01-2.28.33-4.54.35-6.81.02-2.69-.39-5.37-1.62-7.78-1.48-2.89-4.15-4.95-7.03-6.31-1.85-.87-3.65.55-3.31 2.54.5 2.87.62 5.81.04 8.68s-1.63 5.85-2.54 8.74l4.42.6c-.3-5.39-1.79-10.31-5.04-14.69s-8.02-7.46-13.54-7.86c-1.67-.12-2.85 2.01-1.94 3.39 1.92 2.89 3.41 5.96 4.14 9.36s.62 6.88.27 10.3l4.19-1.14c-1.91-4.51-4.44-8.79-8.14-12.05-2.77-2.44-6.01-4.3-8.74-6.69-1.79-1.56-4.1-.02-3.76 2.19 1.08 7.05 2.23 14.19 5.29 20.7l3.08-3.08c-5.7-2.76-11-6.67-16.07-10.44-1.43-1.06-3.37.39-3.39 1.94-.07 5.11.81 10.86 3.21 15.41 2.95 5.59 9.32 6.41 14.99 7.26 2.86.43 5.72.73 8.61.93 3.95.27 8.01.46 11.92-.22 1.7-.29 3.7-.91 4.64-2.48 1.18-1.97.14-4.03-1.26-5.53l-.99 3.76c2.71-.45 5.41-.96 8.09-1.55 1.44-.32 2.92-.63 4.3-1.17.77-.3 1.51-.66 1.95-1.41.7-1.2.21-2.61-.91-3.32-2.45-1.56-4.71 2.33-2.27 3.89-1.07-1.19-1.26-2.2-.56-3.03a.82.82 0 0 1 .32-.32c.11-.21.21-.17.03-.05-.4.26.45-.12-.1.04s-1.08.34-1.62.48c-1.45.38-2.92.69-4.39.99-2 .4-4.01.77-6.02 1.11-1.76.29-2.04 2.64-.99 3.76.12.12.23.25.34.38-.26-.3-.1-.15.04.07.06.11.12.23.19.33.04.06-.16-.5-.06-.08.09.35-.03-.57-.03-.22s.13-.64.02-.22c-.03.13.27-.56.08-.23-.02.04.4-.44.1-.14-.23.22.45-.25.15-.1-.11.05-.23.13-.33.2-.08.05-.47.21-.11.06s-.13.04-.22.07c-.65.19-1.3.33-1.97.43.41-.06.12-.01-.1.01s-.43.05-.64.06c-.42.04-.84.06-1.26.09-.89.04-1.79.06-2.68.06-1.81 0-3.62-.09-5.43-.21-2.11-.14-4.24-.31-6.34-.59.37.05-.47-.07-.59-.09-.44-.07-.89-.13-1.33-.2-.87-.13-1.74-.27-2.6-.43-1.38-.25-2.76-.53-4.11-.92-1.14-.33-1.64-.49-2.54-1.01-.68-.39-1.15-.77-1.69-1.55-1.61-2.31-2.27-5.22-2.75-7.95-.36-2.03-.58-4.21-.56-6.36l-3.39 1.94c5.06 3.77 10.37 7.68 16.07 10.44 2.08 1.01 4.05-1.01 3.08-3.08-2.87-6.1-3.83-13.02-4.84-19.62l-3.76 2.19c2.71 2.36 5.97 4.29 8.54 6.51 3.55 3.06 5.82 7.05 7.64 11.32.38.9 1.67 1.27 2.54 1.03 1.02-.28 1.55-1.17 1.65-2.17.4-3.84.39-7.71-.43-11.49s-2.48-7.26-4.59-10.44l-1.94 3.39c4.09.29 7.81 2.92 10.1 6.24 2.5 3.64 3.74 7.41 3.99 11.8.14 2.52 3.65 3.08 4.42.6.97-3.11 2.11-6.21 2.67-9.43.6-3.49.44-6.9-.17-10.39l-3.31 2.54c1.42.67 2.78 1.45 3.89 2.57.76.77 1.49 1.92 1.8 2.73.85 2.24.81 4.31.66 6.82-.25 4.21-1.17 9.54 3.17 12.07 2.51 1.46 4.77-2.43 2.27-3.89Z"/>
</svg>
