<svg xmlns="http://www.w3.org/2000/svg" viewBox="-200 -100 1350.22 984.24">
  <path d="M200.44 203.68c-8.47 1.07-16.77-4.05-21.86-10.9-5.1-6.85-7.61-15.23-10.03-23.42-1.31-4.43-2.55-9.49-.18-13.46 1.17-1.95 3.08-3.35 5.04-4.51 10.35-6.13 23.66-6.95 34.68-2.12 17.99 7.89 26.93 27.8 34.27 46.02" fill="#fff"/>
  <path d="M200.44 199.5c-1.27.15-2.55.19-3.83.08-.25-.02-.51-.05-.76-.08.97.13-.28-.07-.39-.1-.62-.13-1.24-.28-1.85-.47s-1.21-.4-1.81-.63c.72.28-.06-.03-.24-.11l-.87-.42c-1.16-.59-2.27-1.27-3.33-2.03.06.04-.97-.73-.52-.38s-.55-.46-.5-.41c-.5-.42-.99-.86-1.46-1.32-.94-.91-1.82-1.88-2.65-2.89-.78-.95.25.41-.19-.25-.2-.3-.42-.59-.63-.88-.41-.59-.8-1.2-1.18-1.81-.75-1.23-1.44-2.49-2.08-3.78-.32-.65-.62-1.3-.92-1.96-.12-.26-.23-.53-.35-.79.24.58-.11-.27-.16-.4-.57-1.41-1.09-2.85-1.58-4.29-.94-2.75-1.77-5.54-2.59-8.33-.37-1.27-.73-2.53-1-3.82-.07-.34-.14-.68-.2-1.03-.16-.83-.06-.31-.03-.12-.1-.8-.15-1.63-.12-2.44 0-.27.03-.53.05-.8-.07.9.07-.34.1-.45.06-.26.54-1.5.23-.86.17-.37.39-.7.6-1.05.07-.12.49-.59.07-.11.22-.25.45-.49.69-.72.11-.11 1.11-.96.54-.51.96-.74 2.03-1.36 3.09-1.94.6-.33 1.21-.64 1.82-.93.31-.15.62-.29.93-.43.27-.12.25-.11-.06.02.25-.1.51-.2.76-.3 2.56-.99 5.2-1.64 7.9-2.1.13-.02.82-.11.11-.02.34-.04.68-.08 1.02-.11a38.552 38.552 0 0 1 6.14-.12c.61.04 1.23.09 1.84.15.06 0 1.39.19.51.06a37.896 37.896 0 0 1 5 1.09c1.24.36 2.47.79 3.67 1.28-.62-.26.1.05.25.12.27.12.55.25.82.38.59.29 1.18.59 1.76.9.99.54 1.96 1.12 2.9 1.74.49.32.98.66 1.46 1l.57.42c.79.57-.42-.35.27.21 1.83 1.5 3.56 3.08 5.18 4.8.81.87 1.6 1.76 2.35 2.68.38.46.76.93 1.12 1.4-.1-.13-.47-.63 0 .01.21.29.43.58.64.87 3.25 4.47 5.97 9.3 8.39 14.26 1.2 2.46 2.33 4.94 3.42 7.45.12.28.25.57.37.85.07.16.58 1.37.23.54.24.57.48 1.14.71 1.7.56 1.35 1.11 2.71 1.66 4.07.82 2.02 2.82 3.67 5.14 2.92 1.95-.63 3.8-2.97 2.92-5.14-8-19.82-18.05-42.43-39.86-49.99-11.64-4.03-25.48-2.59-35.92 4.01-3.12 1.97-5.69 4.5-6.96 8.03-1.17 3.27-.86 6.87-.17 10.21.6 2.92 1.55 5.78 2.43 8.62.95 3.05 1.97 6.08 3.2 9.03 2.72 6.53 6.37 12.78 11.95 17.27 5.43 4.37 12.3 7.32 19.39 6.5 2.16-.25 4.29-1.74 4.18-4.18-.09-2.05-1.85-4.45-4.18-4.18Z"/>
  <path d="M690.54 192.87c2.47-12.63 11.85-22.64 21.1-31.58 5.34-5.15 10.92-10.3 17.72-13.25 6.81-2.95 15.17-3.34 21.32.81 7.92 5.34 9.84 16.67 7.01 25.79-2.83 9.12-9.34 16.56-15.68 23.7" fill="#fff"/>
  <path d="M694.57 193.98c.45-2.24 1.11-4.41 1.95-6.54.04-.11.32-.73.04-.11.11-.24.22-.49.33-.73.22-.48.46-.96.7-1.44.48-.96 1-1.89 1.55-2.81a57.64 57.64 0 0 1 3.88-5.69c-.42.55.53-.66.61-.76.34-.43.69-.85 1.05-1.26.75-.89 1.52-1.77 2.31-2.63 3.06-3.37 6.33-6.57 9.64-9.7 1.72-1.62 3.47-3.22 5.29-4.72.44-.36.88-.72 1.34-1.07-.45.35.12-.08.17-.12.23-.17.46-.34.69-.5 1.04-.75 2.1-1.45 3.2-2.11.97-.58 1.97-1.12 3-1.61.19-.09.39-.18.58-.27.09-.04.91-.39.45-.2s.33-.12.43-.16c.31-.12.63-.23.94-.34 1.02-.34 2.05-.62 3.1-.84.52-.11 1.05-.21 1.58-.28-.74.11-.06.01.08 0 .4-.03.8-.07 1.2-.09 1.06-.06 2.12-.04 3.18.05.26.02.52.05.79.08-.18-.02-.76-.14.06.03.58.12 1.15.23 1.72.39.5.14 1 .3 1.49.48.1.04.85.35.41.15s.3.15.39.2c.47.24.93.49 1.37.77.22.14.43.28.64.42.16.11.78.62.12.06.69.58 1.35 1.18 1.96 1.85.19.21.93 1.21.41.45.29.42.58.82.85 1.25.48.77.87 1.57 1.26 2.38.27.55-.22-.64-.03-.06.07.22.16.42.24.64.17.48.33.97.46 1.47.25.89.43 1.79.59 2.7.14.79.01.08 0-.08.02.23.05.46.07.69.05.58.09 1.16.11 1.75.02.88 0 1.76-.05 2.63-.03.47-.09.93-.13 1.4-.06.64.13-.7 0-.07-.05.29-.09.58-.15.86-.21 1.09-.48 2.17-.81 3.24-.19.6-.4 1.2-.62 1.78l-.3.78c.27-.67-.23.53-.24.54-1.07 2.35-2.37 4.59-3.8 6.73-2.79 4.17-5.97 7.75-9.58 11.82-1.45 1.63-1.73 4.32 0 5.91 1.59 1.46 4.36 1.75 5.91 0 6.9-7.77 14.08-15.99 16.95-26.21 2.5-8.88 1.15-19.17-5-26.28-6.88-7.95-18.85-8.78-28.12-5.04-9.78 3.95-17.53 11.73-24.77 19.17-7.87 8.09-15.24 17.49-17.52 28.81-.43 2.14.61 4.62 2.92 5.14 2.08.47 4.68-.63 5.14-2.92Z"/>
  <path d="M654.31 405.12c-4.34-46.75 84.58-120.03 89.64-207.33 2.52-43.41-169.82 37.45-182.54 37.47-16.54.02 34.54 14.84-106.82 14.84-92.83 0-66.39 37.65-64.62 0 1.53-32.38-162.85-77.77-180.04-58.42-41.91 47.16 57.39 134.29 66.27 183.31"/>
  <path d="M290.14 301.03c23.99 20.78 37.33 57.48 14.83 64.23-22.5 6.75-281.79 53.8-299.66 190.43-13.65 104.37 108.07 177.53 161.72 195 60.65 19.75 167.43 25.68 235.59 20.64 15.72-1.16 23.79-1.48 31.57-9.95 4.55-4.96-82.16-89.14-87.81-184.12-.93-15.57 86.92-33.79 112.06-33.42 14.83.22 135.39 27.23 132.56 60.16-9.32 108.39-108.93 157.48-104.77 162.12 8.71 9.72 41.24 13.59 59.23 13.76 226.52 2.18 400.5-90.96 400.5-197.24 0-102.96-270.87-203.81-319.59-196.9-51.64 7.32-19.97-38.33-18.4-74.82"/>
  <path d="M287.13 304.03c11.02 9.71 20.68 22.63 24.17 37.11 2.1 8.69 1 17.65-8.64 20.35-8.73 2.44-17.67 4.21-26.48 6.36-35.78 8.71-71.22 19.1-105.58 32.39-41.18 15.93-82.01 35.83-115.71 64.78C22.48 492.87-.83 530.41.02 574.29c1.05 53.61 36.39 98.86 76.79 130.79 18.66 14.75 38.92 27.55 60.35 37.89s41.63 16.29 63.79 20.81c32.02 6.52 64.72 9.95 97.32 11.88 31.71 1.88 63.6 2.32 95.33.5 12.8-.73 28.76.15 39.48-8.06 5.8-4.45 6.64-7.85 2.92-13.73-9.65-15.27-21.73-29.08-31.93-44.01-16.38-23.98-31.04-49.46-41.04-76.8-5.35-14.63-9.45-29.83-11.4-45.3-.47-3.71-.78-7.44-1.02-11.18.03.39.07-.53.43-.93 2.09-2.4 4.91-3.99 7.7-5.45 9.04-4.71 19.06-7.67 28.84-10.39 11.92-3.32 24.03-6.01 36.2-8.22 9.87-1.79 19.87-3.4 29.9-3.91 5.69-.29 9.52.29 14.84 1.24 19.59 3.53 39 8.75 57.87 15.02 10.59 3.52 21.08 7.44 31.14 12.29 8.05 3.88 16.32 8.28 22.8 14.53 6.05 5.83 6.78 10.18 5.85 18.2-1.73 14.93-5.5 29.65-10.94 43.65-9.07 23.35-23.22 44.56-40.12 62.97-12.2 13.29-25.83 25.03-40.05 36.09-3.55 2.76-7.49 5.37-10.63 8.6-4.62 4.76-1.75 8.76 3.28 11.97 11.04 7.04 25.93 8.74 38.64 10.15 16.36 1.82 32.91 1.4 49.33.94 36.36-1.02 72.67-4.55 108.49-10.87 59.66-10.53 119.55-28.75 171.74-60.13 37.08-22.3 73.49-53.36 88.24-95.36 5.76-16.4 8.2-34.95 3.77-51.95s-14.76-32.18-26.34-45.24c-30.05-33.86-70.84-58.31-110.72-78.78-40.33-20.7-82.83-38.18-126.47-50.55-14.75-4.18-29.85-7.97-45.16-9.41-5.8-.55-11.14-.11-16.92.43-8.01.75-19.39 1.03-20.95-9.02-1.41-9.07 2.1-19.11 4.34-27.77 2.92-11.26 5.92-22.6 6.5-34.27.28-5.46-8.22-5.45-8.5 0-.6 11.92-4.03 23.47-6.96 34.97-2.38 9.32-5.37 19.65-3.57 29.32s9.19 14.18 18.18 15.25 14.78-1.08 22.96-.76c13.76.52 27.56 4 40.89 7.54 19.8 5.27 39.25 11.85 58.39 19.14 44.62 16.99 88.33 37.96 128.06 64.58 17.98 12.05 35.29 25.43 50.17 41.22 11.75 12.47 22.51 26.96 27.38 43.62 10.58 36.21-11.43 74.44-35.82 99.6-36.64 37.8-86.65 61.63-135.97 78.03-65.91 21.92-135.74 31.4-205.05 32.19-15.53.18-30.99.01-46.33-2.68-6.55-1.15-13.28-2.56-19.43-5.16-2.05-.87-4.3-3.06-6.31-3.63-.66-.19-.18-.71-.43-.24.03-.05.5 2 .5 1.85 0 .45-.28 1.79-.3 1.44.04.47-.54.46.42-.4.62-.55 1.21-1.12 1.84-1.66 1.73-1.48 3.54-2.86 5.33-4.26 5.49-4.28 10.99-8.55 16.33-13.01 36.68-30.66 66.36-70.37 77.19-117.61 1.67-7.3 2.87-14.7 3.68-22.14.44-4.02.7-7.74-.7-11.59-2.6-7.16-8.61-12.49-14.61-16.85-16.99-12.36-38.16-19.51-58.02-25.72-17.81-5.56-36.1-10.44-54.55-13.37-15.89-2.52-32.37.86-48 3.8-21.68 4.07-45.12 8.75-64.81 19.16-5.37 2.84-11.85 6.96-12.03 13.71-.2 7.54 1.49 15.64 2.86 23.03s3.29 15.19 5.55 22.63c8.59 28.35 22.37 54.97 38.32 79.84 11.27 17.56 24.05 33.95 36.29 50.82 1.49 2.06 2.98 4.13 4.28 6.32.21.35.4.7.59 1.06.37.72-.04.08.06.08.42 0-.28 1.07.04-.3.25-1.06 1.24-1.89-.54-.73-2.32 1.51-4.15 3.25-6.83 4.23-3.18 1.16-6.61 1.66-9.96 2.01-7.39.77-14.85 1.19-22.27 1.58-31.94 1.67-64.02 1.13-95.93-.9-53.13-3.37-109.01-9.15-157.23-33.32-43.93-22.02-86.68-54.6-111.18-97.98-12.92-22.88-19.55-48.77-17.14-75.08 1.86-20.27 9.58-39.35 21.08-56.04 24.19-35.1 62.44-59.06 100.06-77.5 37.15-18.2 76.53-31.67 116.35-42.69 13.9-3.85 27.9-7.36 41.93-10.68 8.62-2.04 20.82-3.08 27.06-9.98 7.56-8.35 5.75-21.1 2.16-30.78-4.98-13.43-13.81-25.43-24.51-34.86-4.09-3.6-10.12 2.38-6.01 6.01Z"/>
  <path d="M327.08 580.25c2.39-2.12 4.83-4.2 7.3-6.23 1.14-.94 2.28-1.86 3.43-2.78l1.74-1.38c.71-.56 1.26-.98 1.6-1.25 5.13-3.91 10.36-7.67 15.7-11.27 10.62-7.15 21.65-13.7 33.02-19.59 5.35-2.77 10.78-5.4 16.29-7.85 1.31-.58 2.63-1.16 3.95-1.72.25-.11.5-.21.75-.32-.8.34.43-.18.48-.2.74-.31 1.48-.61 2.23-.91 2.54-1.03 5.09-2.01 7.66-2.95 9.19-3.35 18.67-6.2 28.37-7.66.26-.04 1.95-.26.61-.09a78.003 78.003 0 0 1 4.46-.45c1.76-.12 3.53-.2 5.3-.14.55.02 1.09.05 1.64.1.29.03.58.05.87.09.41.05 1.73.32.14 0 1.46.29 2.94.48 4.39.79 7.45 1.6 14.7 4.12 21.8 6.85 2.22.85 4.43 1.74 6.63 2.64.52.21 1.03.43 1.55.65 1.02.42-.55-.24.08.03.26.11.52.22.79.33a373.375 373.375 0 0 1 17.71 8.13 438.48 438.48 0 0 1 29.6 15.91c9.63 5.66 19.06 11.67 28.15 18.16 2.26 1.61 4.5 3.26 6.72 4.94.5.37.99.75 1.48 1.13.65.49.15.12.02.01.29.23.58.45.87.68 1.05.82 2.1 1.66 3.14 2.5 3.88 3.14 7.66 6.39 11.28 9.82 1.65 1.56 3.26 3.16 4.84 4.79s4.41 1.6 6.01 0 1.6-4.35 0-6.01c-7.17-7.43-15.14-14.04-23.36-20.26-9-6.82-18.41-13.09-28.03-18.99-18.9-11.58-38.7-21.84-59.21-30.26-7.73-3.17-15.6-6.11-23.68-8.24-6.26-1.65-12.52-2.61-19-2.13-9.54.71-18.93 3.02-28.01 5.94-11.21 3.6-22.12 8.19-32.71 13.31-23.4 11.29-45.61 25.37-65.65 41.92a280.07 280.07 0 0 0-6.96 5.95c-1.72 1.52-1.55 4.45 0 6.01 1.71 1.71 4.29 1.53 6.01 0Z" fill="#fff"/>
  <path d="M385.02 698.83c-1 0-1.99-.1-2.98-.19 1.4.13-.13-.03-.46-.09-.65-.12-1.3-.25-1.94-.4-2.47-.58-4.88-1.37-7.24-2.28-.54-.21-1.08-.42-1.61-.64-1.1-.45.8.35-.3-.12-.33-.14-.67-.29-1-.44-1.38-.61-2.75-1.26-4.11-1.93-2.94-1.46-5.82-3.03-8.66-4.67-12.86-7.46-24.96-16.34-36.34-25.55-11.79-9.54-23.14-19.68-33.75-30.52-4.36-4.46-8.61-9.04-12.58-13.85-.79-.96-1.57-1.93-2.34-2.91.66.84-.5-.67-.69-.91-.42-.56-.83-1.13-1.24-1.7-1.16-1.64-2.26-3.32-3.23-5.07-.4-.72-.74-1.46-1.1-2.2-.33-.67.35 1.08-.07-.21-.2-.61-.42-1.21-.6-1.83-.27-.94-.43-1.9-.62-2.85.28 1.4-.02-.29-.05-.67-.03-.51-.05-1.02-.05-1.53s.02-1.01.06-1.52c.02-.25.06-.51.07-.76.02-.91-.22 1.02-.02.12.22-1 .38-2 .67-2.99.27-.92.6-1.82.96-2.71-.51 1.26.2-.4.35-.69.24-.49.5-.98.76-1.46.55-.99 1.15-1.95 1.79-2.89.28-.4.56-.8.85-1.19.18-.24.36-.48.54-.71-.72.94.13-.15.28-.33 1.59-1.95 3.33-3.77 5.14-5.51 4.56-4.36 8.05-6.96 13.06-10.42 23.75-16.35 50.6-27.92 76.12-41.15 12.35-6.4 24.66-13.05 36.13-20.95 5.03-3.47 9.94-7.19 14.42-11.36s8.06-8.89 11.61-13.85c5.05-7.05 10.2-14.22 16.87-19.86 6.07-5.13 13.45-7.97 21.18-5.48 2.25.72 5.66 3.03 8.14 5.04 3.6 2.93 6.95 6.16 10.17 9.5 4.48 4.64 8.34 9.83 12.83 14.45 7.73 7.95 17.24 14.23 26.6 20.06 12.03 7.5 24.53 14.25 37.06 20.88 26.77 14.15 54.15 27.36 79.97 43.23 5.52 3.39 10.95 6.92 16.2 10.72 4.15 3 7.89 5.92 12.09 9.93 1.65 1.58 3.24 3.23 4.71 4.97.36.42.7.85 1.05 1.28.61.75-.57-.78 0 0 .16.21.32.42.47.64.6.82 1.16 1.67 1.69 2.53.45.75.87 1.51 1.26 2.3.16.34.71 1.83.22.44.15.42.32.82.46 1.24.27.81.47 1.62.65 2.46.1.43.06 1.55.04.09 0 .47.09.94.1 1.41.01.45 0 .89-.03 1.34-.01.22-.04.45-.05.67-.09 1.14.18-.91-.03.22-.26 1.4-.61 2.77-1.09 4.11-.12.35-.26.69-.4 1.04.36-.89-.13.28-.17.37-.34.7-.68 1.4-1.06 2.09-.79 1.45-1.68 2.84-2.64 4.19-1.73 2.44-4.3 5.31-6.85 7.8s-5.59 5.12-8.51 7.33c-14.01 10.61-30.4 18.55-47.37 23.06-7.73 2.06-15.08 3.29-23.04 3.18-5.47-.07-5.47 8.42 0 8.5 18.03.25 36.07-5.82 52.09-13.66s30.68-17.6 40.78-31.58c3.75-5.19 6.68-11.37 6.87-17.87.12-4.05-1.18-8.01-3.05-11.55-4.81-9.08-13.4-16.02-21.46-22.08-10.86-8.15-22.61-15.11-34.42-21.76-13.78-7.76-27.83-15.04-41.86-22.33s-27.48-14.22-40.99-21.76c-11.47-6.4-22.92-13.06-33.44-20.97-.28-.21-.55-.42-.82-.62-.92-.7.68.54-.22-.17-.44-.34-.87-.69-1.31-1.03-1.08-.87-2.14-1.75-3.19-2.67-1.75-1.53-3.45-3.13-5.04-4.83-4.82-5.15-9.11-10.73-14.11-15.73-5.94-5.93-13.06-13.02-21.5-15.04-9.11-2.18-18.08.47-25.42 6.04s-13.3 13.29-18.81 20.9c-1.29 1.78-2.56 3.56-3.84 5.34-.47.65-.94 1.29-1.41 1.94-.12.16-.76.99-.08.12-.26.33-.51.65-.78.97-1.67 2.03-3.48 3.94-5.38 5.76-4.77 4.55-8.54 7.37-13.79 10.97-5.65 3.87-11.51 7.42-17.45 10.81-26.28 14.98-54.19 26.9-80.31 42.16-10.83 6.33-21.76 13.28-30.59 22.29-6.74 6.88-12.59 15.77-12.27 25.78s6.43 17.83 12.46 25.15c8.83 10.71 18.88 20.44 29.17 29.72 12.13 10.93 24.88 21.26 38.26 30.62 11.11 7.77 22.85 15.23 35.63 19.94 4.44 1.63 9.17 2.89 13.93 2.91 5.47.02 5.47-8.47 0-8.5Z" fill="#fff"/>
  <path d="M562.9 712.69c19.9-2.47 39.35-9.05 58.04-16.08 23.4-8.8 46.34-19.21 67.98-31.76 9.87-5.72 19.44-11.95 28.43-18.99 7.28-5.7 14.15-12.01 19.59-19.52 8.48-11.69 11.45-27.17 6.07-40.79-5.92-14.99-18.49-26.15-31.25-35.38-16.3-11.79-34.36-21.07-52.44-29.79-19.89-9.6-40.15-18.4-60.22-27.61-18.12-8.32-36.32-16.83-53.25-27.43-8.55-5.36-15.12-10.53-22.61-17.27-8.28-7.46-17.56-15.63-22.66-25.76-.17-.34-.33-.68-.5-1.03-.42-.89.05.2-.19-.46-.25-.71-.5-1.42-.68-2.15-.07-.29-.12-.58-.19-.87-.24-.94-.03-.05-.03-.12-.04-.61-.03-1.21-.04-1.81s.13-.7-.03.04c.05-.23.07-.47.14-.7.15-.48.74-1.89.16-.73.24-.48.48-.94.76-1.4.12-.2.26-.38.39-.57.29-.45-.65.66.06-.05.78-.78 1.53-1.53 2.36-2.25-.61.52.09-.07.67-.48.5-.35 1.02-.69 1.54-1.02 2.14-1.36 4.39-2.54 6.6-3.78s4.25-2.42 6.23-3.86c3.48-2.54 2.17-7.5-2.14-7.92-14.59-1.41-28.84-6.04-40.99-14.32-3.33-2.27-6.27-4.65-9.31-7.69a49.95 49.95 0 0 1-2.53-2.72c-.46-.54-1.31-1.69-.24-.25-2.01-2.7-5.33-2.71-7.34 0-7.96 10.73-19.71 18.04-31.77 23.36-4.35 1.92-8.84 3.52-13.34 5.05-2.62.89-6.21 1.56-8.28 3.54-6.01 5.74 5.89 9.55 9.15 11.43 4.68 2.71 9.54 6.1 12 10.67.74 1.38 1.16 3 1.19 4.31 0 .44-.01.88-.04 1.32-.05.97.08-.16-.08.57-.22 1.03-.5 2.03-.89 3.01.26-.64-.24.49-.33.67a26.977 26.977 0 0 1-2.7 4.28c-1.02 1.33-3.08 3.52-4.65 5.02-8.51 8.15-18.81 14.35-28.72 20.6-4.96 3.13-9.95 6.23-14.8 9.54-4.29 2.93-7.01 5.25-11.05 8.03-18.51 12.74-39.43 22.07-59.52 31.97-22.35 11.01-45.04 21.94-65.7 35.96-14.02 9.52-31.99 22.79-33.8 41.15-.76 7.77 2.54 15.57 6.06 22.31 4.48 8.59 10.41 16.41 16.66 23.78 15.48 18.24 33.83 34.05 52.72 48.65 19.66 15.2 40.32 29.21 61.94 41.46 8.9 5.04 17.98 9.79 27.34 13.91 7.12 3.13 14.47 6.14 22.1 7.75 2.74.58 5.57 1.02 8.37.99 5.46-.05 5.48-8.54 0-8.5-1.22.01-2.42-.09-3.63-.22 1.36.15-.63-.11-1.04-.18a40.1 40.1 0 0 1-2.18-.45c-3.34-.75-6.61-1.79-9.82-2.94-8.33-2.98-15.99-6.61-24.21-10.86-20.8-10.74-40.62-23.44-59.6-37.11-19.71-14.2-38.7-29.68-55.62-47.14-7.09-7.32-13.79-14.94-19.45-23.18-2.5-3.64-4.82-7.41-6.8-11.35-1.68-3.34-2.73-5.78-3.78-9.81-.21-.78-.37-1.57-.52-2.36-.19-1 0 .38-.05-.38-.03-.45-.07-.89-.09-1.34-.03-.78 0-1.56.05-2.34.01-.23.21-1.65.04-.54.07-.45.15-.89.24-1.33.16-.79.37-1.56.61-2.33.12-.39.25-.78.39-1.16.09-.26.52-1.33.37-.98.39-.92 1.61-3.22 2.49-4.6 2.19-3.47 4.34-5.93 7.5-9.07s6.97-6.4 10.52-9.1c19.14-14.51 41.04-25.35 62.46-36.01 20.87-10.39 42.28-20.05 62.25-32.14 8.38-5.07 15.35-10.82 23.47-16.11 10.07-6.57 20.49-12.63 30.17-19.78 8.15-6.02 17.2-13.15 20.72-23.03 3.73-10.49-2.85-19.51-11-25.49-2.88-2.11-5.98-3.91-9.16-5.52-.9-.46-1.8-.9-2.72-1.33-.34-.16-1.21-.7-1.64-.76s1.31.02.29.25c2.05-.46-4.36 11.9.41 5.93.24-.3-.83.7-.68.52.11-.13.37-.2.51-.28.66-.4-.93.34-.27.1.25-.09.49-.19.74-.28.66-.24 1.33-.47 1.99-.7 1.83-.63 3.66-1.24 5.48-1.88 11.26-3.96 22.33-8.91 31.91-16.11 5.78-4.35 10.82-9.29 15.14-15.11h-7.34c8.7 11.7 22.99 19.63 36.5 24.25 7.73 2.65 15.77 4.16 23.9 4.94l-2.14-7.92c-7.65 5.57-20.28 8.88-22.69 19.33-1.61 7 2.11 13.96 6.09 19.45 7.86 10.86 18.17 20.18 28.48 28.66 13.95 11.47 30.17 20.02 46.29 27.98 19.37 9.57 39.19 18.19 58.85 27.14s38.75 17.84 57.19 28.54c14.91 8.65 29.4 18.07 40.28 31.6.58.72.39.48 1.14 1.51.53.73 1.05 1.48 1.54 2.23.93 1.42 1.8 2.87 2.58 4.37.37.7.71 1.42 1.05 2.14.09.2.58 1.32.22.48.16.39.31.78.46 1.17.57 1.49 1.04 3.01 1.42 4.56a33.964 33.964 0 0 1 .66 3.44c-.14-.96.03.31.05.61.13 1.58.18 3.17.11 4.76-.03.78-.1 1.55-.18 2.33-.08.85.09-.53-.04.31-.08.49-.16.97-.25 1.45-.32 1.68-.76 3.34-1.3 4.97-1.07 3.27-2.25 5.81-4.37 9.08s-4.37 5.92-7.37 9.01c-6.84 7.05-14.71 13.03-22.83 18.51-20.18 13.62-42.24 24.58-64.64 34.05-20.22 8.54-41.18 16.21-62.66 20.87-1.96.43-3.93.82-5.9 1.17-.92.16-1.84.32-2.76.46l-1.23.18c-.86.12-.25.04-.07.01-.26.04-.52.07-.78.1-2.28.28-4.25 1.75-4.25 4.25 0 2.08 1.96 4.53 4.25 4.25Z" fill="#fff"/>
  <path d="M552 754.77c15.61-5.29 31.05-11.1 46.4-17.11 23.29-9.11 46.36-18.8 69.08-29.24 24.22-11.13 48.13-23.09 70.98-36.84 18.81-11.32 37.91-23.91 52.79-40.23 10.07-11.03 19.65-26.03 15.26-41.61-2.41-8.55-8.8-15.6-14.8-21.88-8.25-8.63-17.59-16.19-27.18-23.27-22.95-16.96-47.9-31.15-72.92-44.79-25.97-14.16-52.38-27.51-78.43-41.52-19.58-10.53-40.78-21.6-57.66-35.31-2.98-2.42-5.87-4.99-8.46-7.84-.53-.58-1.04-1.18-1.54-1.78-.23-.28-.75-.96-.23-.27-.25-.33-.49-.66-.73-.99-.8-1.17-1.5-2.37-2.14-3.64-.26-.52-.2-.5.02.07-.12-.31-.25-.62-.34-.93-.17-.57-.31-1.15-.46-1.72-.16-.62-.05-.58 0 .11-.02-.26-.06-.52-.06-.78 0-.33.02-.66.01-.98 0 .4-.14.2.07.05-.44.32-.04.13-.18.19.16-.07 1.18-.65.56-.37 1.17-.52 2.51-.77 3.76-1.05 3.1-.69 6.23-1.25 9.29-2.13 9.05-2.61 16.93-7.58 23.45-14.36 1.97-2.05 1.46-6.65-1.87-7.1-33.28-4.51-64.8-14.71-93.61-32.01-3.48-2.09-6.9-4.28-10.44-6.25-2.6-1.45-5.45-3.01-8.48-3.24-2.49-.19-4.33.81-6.42 1.99-4.19 2.36-8.42 4.65-12.67 6.89-15.42 8.13-31.17 15.71-47.31 22.3-9.29 3.79-18.72 7.27-28.32 10.18-4.75 1.45-9.55 2.75-14.4 3.85-3.23.73-6.77 3.04-4.57 6.91 1.68 2.96 6.81 4.45 9.54 6.15 4.91 3.06 9.46 7.07 11.92 12.42 1.47 3.21 1.73 6.44 1.76 9.91 0 .86.09-.43.04-.26-.06.23-.08.47-.15.69-.09.26-.18.54-.25.81-.27 1.01.35-.64-.04.13-.62 1.2-1.29 2.31-2.09 3.4-.4.55.52-.6-.24.29-.23.27-.46.55-.7.82-.58.66-1.17 1.3-1.79 1.92-6.55 6.67-13.77 11.43-21.78 16.6-10.95 7.07-22.3 13.53-33.7 19.84-26.56 14.7-53.63 28.48-80.29 42.99-22.61 12.31-45.84 24.74-65.98 40.92-6.54 5.25-13.05 11.2-16.49 19.01-3.84 8.72-4.14 18.22-2.57 27.51 4.39 25.95 21.92 49.29 39 68.4 26.64 29.79 59.17 54.32 93.1 75.19 10 6.15 20.2 11.98 30.54 17.53 4.82 2.59 9.11-4.75 4.29-7.34-37.39-20.07-73.24-43.85-104.11-73.12-20.43-19.38-40.99-42.29-50.87-69.16-1.75-4.76-3.13-9.67-3.91-14.69-.23-1.47-.46-4.05-.49-6.19-.02-1.06 0-2.11.05-3.17.03-.55.07-1.1.12-1.65.02-.24.19-1.7.08-.89.55-4.12 1.76-7.77 3.35-10.69 1.92-3.51 3.59-5.36 6.64-8.35 7.15-6.99 15.06-12.41 23.5-17.93 11.16-7.29 22.7-13.98 34.33-20.49 26.16-14.65 52.87-28.29 79.27-42.51 21.67-11.68 44.01-23.31 63.51-38.47 5.46-4.25 11.59-9.2 14.62-15.6 5.11-10.81-2.01-23.99-10.4-30.92-3.82-3.15-8-5.48-12.32-7.85-.28-.15-.57-.35-.86-.47-.72-.3-.2-.02-.14-.04 1.54-.39-2.49 6.75-1.43 6.9s2.88-.64 3.97-.91c4.71-1.13 9.38-2.45 14.01-3.9 18.6-5.81 36.62-13.51 54.19-21.9 11.45-5.47 22.75-11.28 33.83-17.49.53-.29 1.06-.58 1.58-.89.43-.25.98-.87.53-.36-.3.35-.42.17 0 .04.81-.26-1.03.03-.43.06 1.31.05-.23-.21.32 0 .45.16.95.29 1.4.42.57.17.52.21-.08-.05.34.15.67.3 1 .46 1.37.68 2.7 1.42 4.02 2.18 8.69 5.06 17.15 10.42 26.16 14.93 14.88 7.45 30.6 13.18 46.73 17.27 10.43 2.64 21.01 4.6 31.67 6.05l-1.87-7.1c-6.49 6.75-14.12 10.98-23.21 13.08-4.8 1.11-11.23 1.39-14.47 5.66-4.26 5.6-.34 13.55 3.29 18.35 4.99 6.59 11.59 11.8 18.24 16.63 8.78 6.39 18.1 12.04 27.49 17.48 24 13.91 48.79 26.43 73.34 39.34 26.33 13.84 52.64 27.87 77.81 43.75 20.21 12.75 40.97 26.77 56.32 45.37 2.18 2.64 4.94 6.47 6.1 9.19-.19-.45.21.53.28.74.13.37.26.73.37 1.1.25.78.46 1.57.63 2.37.08.37.14.74.21 1.11.2 1.09-.03-.48.04.31s.13 1.6.14 2.41c0 .76-.02 1.51-.07 2.27-.03.38-.07.76-.11 1.14-.09.79 0-.02.02-.15-.04.27-.08.55-.14.82-.33 1.62-.71 3.21-1.24 4.78-.73 2.15-.74 2.15-1.74 4.16-.83 1.68-1.77 3.3-2.78 4.88-4.52 7.1-10.75 13.52-17.43 19.47-8.13 7.25-16.94 13.68-26 19.7-21.62 14.38-44.67 26.58-68.01 37.9-23.06 11.18-46.56 21.44-70.31 31.05-17.69 7.16-35.51 14-53.5 20.35-2.68.95-5.37 1.88-8.06 2.79-5.15 1.75-2.94 9.95 2.26 8.19ZM308.64 363.11c-1.43-2.27-3.17-4.37-4.81-6.48-2.54-3.27-5.12-6.5-7.69-9.75-1.62-2.05-3.24-4.11-4.85-6.17-.88-1.12-1.75-2.24-2.62-3.37-.24-.3-.47-.61-.71-.91-.66-.86.45.58-.12-.16-.46-.6-.92-1.19-1.38-1.79-3.97-5.17-7.88-10.38-11.72-15.65-8.46-11.62-16.56-23.51-23.91-35.86-3.62-6.1-7.06-12.31-10.18-18.68-1.49-3.03-2.77-6.14-4.21-9.19.58 1.23-.06-.16-.17-.42-.15-.36-.29-.71-.44-1.07-.3-.75-.6-1.5-.89-2.25-.56-1.47-1.1-2.95-1.61-4.44-.97-2.84-1.84-5.72-2.55-8.63-.34-1.38-.64-2.77-.91-4.16-.13-.68-.25-1.36-.35-2.04-.05-.32-.09-.64-.14-.96-.11-.67.06.48.06.5-.02-.21-.05-.42-.08-.63-.31-2.55-.46-5.11-.38-7.68.04-1.21.15-2.41.28-3.61.05-.5-.19 1.24 0 .02.04-.27.09-.55.14-.82.1-.57.22-1.14.36-1.7.26-1.11.59-2.19.97-3.26.75-2.09-.85-4.74-2.97-5.23-2.39-.54-4.42.73-5.23 2.97-3.75 10.4-1.96 22.22 1.04 32.56 3.81 13.14 9.97 25.6 16.7 37.47 7.2 12.69 15.29 24.86 23.76 36.73 7.51 10.52 15.37 20.8 23.36 30.96 2.85 3.62 5.72 7.23 8.57 10.85.57.72 1.14 1.45 1.7 2.17.24.3.47.61.71.91.26.34-.8-1.04-.26-.33l.39.51c.72.95 1.45 1.9 2.13 2.88.23.33.46.67.67 1.01 1.18 1.88 3.84 2.79 5.81 1.52s2.79-3.8 1.52-5.81ZM433.89 272.57c-.7.62.98-.62.28-.21-.17.1-.33.22-.51.33-.48.29-.98.54-1.49.78-.37.17-1.53.55-.03.03-.28.1-.54.22-.82.33-.72.28-1.45.54-2.18.78-3.42 1.14-6.91 2.06-10.4 2.94-8.2 2.08-16.48 3.87-24.63 6.17-3.63 1.02-7.22 2.17-10.68 3.67-2.11.91-4.51 2.07-5.94 3.94-.55.72 1.1-.68.27-.21-.67.38 1.21-.37.56-.23-.15.03-.3.1-.45.14-.14.04-.28.06-.42.09-.88.21 1.26-.1.48-.06-.43.02-.85.06-1.28.06-.95 0-1.89-.07-2.83-.18-.29-.03-.58-.08-.87-.11 1.67.15.62.08.22.02-.65-.1-1.29-.2-1.93-.32-12.48-2.24-24.55-6.41-36.91-9.18-4.92-1.1-10.31-2.44-15.38-1.6-2.06.35-4.04 1.45-5.05 3.33-1.33 2.47-.61 5.28.74 7.56.84 1.42 1.94 2.69 2.99 3.96 2.19 2.67 3.88 4.87 5.93 7.78 3.62 5.14 6.83 10.55 9.37 16.3.48 1.09-.19-.5.07.17.11.28.23.56.34.85.26.67.51 1.34.75 2.02.44 1.25.84 2.52 1.19 3.81a44.622 44.622 0 0 1 1.13 5.35c.18 1.09-.09-.95.02.14.03.32.07.63.1.95.23 2.37.24 4.76.01 7.14-.03.3-.06.61-.1.91-.09.8.04-.13.03-.22.07.53-.21 1.29-.31 1.8-.24 1.2-.54 2.39-.91 3.56-.34 1.09-.73 2.15-1.16 3.21.41-.99-.2.41-.34.71-.27.58-.57 1.15-.87 1.71-1.04 1.96-.56 4.71 1.52 5.81 1.97 1.04 4.7.57 5.81-1.52 4.95-9.33 6.09-19.75 3.7-30.01-2.85-12.27-9.94-23.23-17.57-33.05-1.1-1.41-2.23-2.8-3.36-4.19-.17-.2-.32-.45-.51-.63 1.08 1.07.25.32-.03-.08-.24-.34-.46-.7-.66-1.06-.1-.19-.19-.39-.29-.58-.12-.21.39 1.27.19.4-.04-.15-.07-.33-.13-.48-.23-.63.12 1.35.1.69-.03-1.01-.36 1.35-.03.32-.46 1.4-.5 1.09-.26.7.17-.27-.96 1.06-.39.54.46-.41-1.06.82-.56.43.45-.34.88-.05-.52.18.26-.04.55-.17.81-.24.16-.04.33-.04.49-.09-1.53.43-.96.12-.44.08.91-.07 1.83-.03 2.74.03.52.04 1.03.09 1.54.15.41.05 1.38.27-.23-.04.36.07.73.11 1.1.16 1.25.2 2.5.43 3.75.69 12.48 2.56 24.58 6.71 37.07 9.26 2.66.55 5.35 1.01 8.06 1.23 1.89.15 3.94.16 5.76-.43 1.14-.37 2.16-.93 2.99-1.81.26-.28.51-.55.78-.82.58-.59-1.04.69-.21.17.26-.16.5-.34.76-.49.5-.3 1.02-.57 1.54-.83.26-.13.53-.25.8-.37.17-.07.34-.14.51-.22-1.31.66-.46.19-.12.06a65.15 65.15 0 0 1 4.51-1.59c7.9-2.52 16.04-4.29 24.09-6.25 6.92-1.68 14.25-3.15 20.68-6.32 1.1-.54 2.11-1.22 3.03-2.03 1.67-1.47 1.62-4.52 0-6.01-1.79-1.64-4.22-1.57-6.01 0ZM628.2 364.07c.07-.25.15-.5.24-.75.04-.12.09-.24.14-.37.3-.83-.3.65-.21.48.31-.63.59-1.27.92-1.89.84-1.59 1.79-3.12 2.77-4.63 2.7-4.15 5.66-8.13 8.64-12.08.91-1.2 1.82-2.39 2.74-3.59.22-.28.44-.55.65-.84-.86 1.2-.02.02.19-.25l1.55-2c2.1-2.69 4.22-5.38 6.33-8.05 4.61-5.83 9.25-11.64 13.85-17.47 10.06-12.73 20.04-25.54 29.45-38.76 8.16-11.47 16.15-23.28 22.29-35.98 2.42-5.01 4.66-10.23 5.96-15.66 1.06-4.43 1.59-9.2.42-13.66-.29-1.1-.73-2.16-1.21-3.19-.94-2.02-4.01-2.69-5.81-1.52-2.08 1.34-2.53 3.65-1.52 5.81.42.9-.39-1.07-.12-.3.06.18.13.35.19.53.14.4.25.8.35 1.21s.16.81.24 1.22c.14.71-.13-1.39-.05-.35.02.25.05.49.06.74.06.93.05 1.87 0 2.81-.03.49-.08.97-.13 1.45-.09.94.19-1.22.04-.28-.05.29-.09.58-.14.87-.4 2.33-1.04 4.62-1.79 6.86-.4 1.19-.84 2.38-1.3 3.55l-.39.96c-.06.15-.12.29-.18.44-.29.72.44-1.02.13-.31-.29.66-.57 1.32-.87 1.97-5.66 12.49-13.34 24.07-21.18 35.27-4.5 6.43-9.15 12.75-13.89 19.01-1.19 1.58-2.39 3.15-3.6 4.73-.62.8-1.23 1.61-1.85 2.41-.19.25-1.09 1.46-.35.45-.32.44-.67.87-1.01 1.31-2.4 3.09-4.81 6.18-7.23 9.25-8.97 11.39-18.09 22.66-26.92 34.17-3.22 4.2-6.41 8.43-9.4 12.8-2.14 3.14-4.22 6.35-5.65 9.88-.2.49-.39.98-.53 1.49-.59 2.14.73 4.72 2.97 5.23s4.59-.67 5.23-2.97ZM503.57 280.9c3.25 4.08 8.78 5.43 13.7 6.01 5.8.68 11.72.15 17.48-.59 14.28-1.83 28.27-5.3 42.41-7.91 1.6-.29 3.21-.58 4.81-.84l2.11-.33c.37-.06.75-.11 1.12-.16.18-.03.37-.05.55-.08-1.46.23-.74.1-.4.05 2.64-.33 5.29-.61 7.95-.65 1.06-.02 2.13 0 3.19.09.25.02.5.05.76.07 1.07.11-1.13-.2-.29-.04.45.08.89.15 1.33.26.37.09.73.2 1.09.32.49.16.9.6-.38-.18.16.09.34.16.5.24s.31.18.46.27c.53.31.33.63-.37-.32.16.22.5.51.7.68.14.12-.71-1.16-.33-.41.06.11.13.24.2.35.46.68-.36-1.16-.2-.49.05.19.11.38.16.56.14.48-.13.86-.06-.61 0 .18.04.37.04.55.02.65-.34 1.84.07.18-.24.97-.42 1.91-.77 2.85-.05.13-.11.26-.16.4-.23.63.49-1.08.2-.47-.11.23-.21.47-.32.7-.3.64-.63 1.26-.98 1.88-.32.58-.66 1.15-1.02 1.7-.14.22-.29.44-.45.66-.07.1-.14.19-.21.29-.52.74.65-.78.23-.29-.74.88-1.49 1.74-2.3 2.55-1.61 1.6-3.35 3.07-4.99 4.64-4.1 3.9-7.37 8.6-8.54 14.22-1.94 9.36.56 19.19 3.61 28.02 1.13 3.27 2.39 6.48 3.73 9.67.86 2.04 2.85 3.74 5.23 2.97 1.96-.63 3.89-3.03 2.97-5.23-2.53-6.01-4.83-12.16-6.35-18.51-.27-1.13-.51-2.26-.72-3.39-.11-.58-.2-1.15-.29-1.73-.06-.39.06-1.08 0 .02.02-.34-.09-.74-.13-1.08-.2-1.84-.28-3.7-.19-5.56.02-.43.05-.86.09-1.29.02-.21.05-.41.06-.62.07-.81-.18 1.12-.05.33s.26-1.51.45-2.25c.16-.63.35-1.26.56-1.88.11-.32.26-.63.37-.96-.5 1.53-.08.21.12-.19.53-1.09 1.18-2.1 1.87-3.08s-.61.73-.02.02c.19-.23.38-.47.58-.69.39-.45.79-.89 1.2-1.32 3.41-3.55 7.36-6.45 10.2-10.54s5.49-9.56 4.11-14.45-6.26-6.71-10.87-7.23c-5.28-.59-10.72.24-15.93 1.03-13.82 2.1-27.39 5.61-41.19 7.89-1.72.28-3.44.54-5.17.79-1.12.16 1.04-.13-.24.03-.38.05-.76.1-1.15.14-.85.1-1.71.2-2.56.28-3 .3-6.02.5-9.04.47-1.35-.01-2.7-.07-4.05-.21l-.79-.09c-.97-.1 1.25.2.05 0-.59-.1-1.18-.2-1.76-.33-1.08-.24-2.11-.58-3.15-.95-.6-.21 1.11.51.54.23-.11-.06-.23-.1-.35-.16-.19-.09-.37-.18-.56-.28-.46-.25-.9-.53-1.33-.82-.81-.53.66.58.3.24-.17-.16-.35-.3-.52-.46-.33-.31-.64-.65-.92-1-1.39-1.75-4.57-1.56-6.01 0-1.7 1.85-1.48 4.15 0 6.01ZM444.7 302.21c.21-1.83.04-.34-.12.16-.05.16-.12.31-.16.47-.18.6.53-1.1.23-.54-.06.12-.11.24-.17.36-.19.37-.4.73-.62 1.08-.13.21-.28.4-.42.61-.52.77.75-.89.05-.07s-1.48 1.65-2.31 2.41c-.44.41-.9.8-1.36 1.19-.23.19-.46.38-.7.57-.11.09-.67.52-.05.05.65-.5-.11.08-.23.17-5.24 3.92-11.1 7.03-16.95 9.92-3.45 1.71-6.95 3.32-10.47 4.88-1.87.83-3.75 1.64-5.63 2.45l-.57.24c-.05.02-.99.42-.35.15s-.3.12-.35.15l-.57.24c-.95.4-1.9.79-2.86 1.19-7.23 2.98-14.51 5.82-21.8 8.66-6.5 2.53-13.04 5.02-19.41 7.87-2.04.91-2.67 4.03-1.52 5.81 1.36 2.11 3.63 2.5 5.81 1.52.54-.24 1.08-.48 1.62-.71.29-.12.58-.25.87-.37.26-.11.73-.29-.48.2.18-.07.37-.15.55-.23 1.32-.55 2.65-1.09 3.98-1.63 3.09-1.25 6.2-2.46 9.31-3.67 7.31-2.85 14.63-5.69 21.89-8.67 7.74-3.17 15.44-6.45 22.96-10.1 6.11-2.97 12.23-6.16 17.73-10.17 4.85-3.54 9.86-7.85 10.58-14.16.26-2.22-2.14-4.34-4.25-4.25-2.52.11-3.97 1.87-4.25 4.25ZM473.16 301.62c7.31 13.3 18.49 23.67 31.73 30.94 13.21 7.26 27.76 11.75 42.1 16.19 8.51 2.64 17.02 5.26 25.4 8.3 2.09.76 4.74-.85 5.23-2.97.55-2.39-.73-4.41-2.97-5.23-14.35-5.21-29.12-9.13-43.53-14.17-3.41-1.19-6.8-2.46-10.14-3.83-.18-.07-1.52-.64-.6-.25-.37-.16-.75-.32-1.12-.48-.85-.37-1.7-.75-2.54-1.13-1.62-.74-3.23-1.52-4.81-2.33-3.08-1.58-6.09-3.3-8.98-5.2-1.41-.93-2.8-1.89-4.15-2.91-.18-.13-.36-.27-.54-.41-.5-.37.54.43.06.04-.31-.25-.62-.49-.93-.74a69.47 69.47 0 0 1-10.23-10.13c-.15-.18-.3-.36-.44-.55-.07-.08-.67-.85-.32-.4.33.42-.13-.17-.21-.27-.18-.24-.36-.48-.53-.71-.6-.82-1.19-1.66-1.76-2.51-1.21-1.8-2.32-3.66-3.36-5.55s-3.92-2.74-5.81-1.52-2.67 3.73-1.52 5.81Z" fill="#fff"/>
  <path d="M315.16 403.68c0 .18-.03.36-.04.55-.04.82.28-1.31.05-.42-.1.38-.16.77-.27 1.15s-.31.76-.4 1.15c.33-1.39.17-.39-.16.24-.43.81-.95 1.55-1.47 2.3s.78-.93.11-.15c-.15.18-.3.37-.46.55-.35.41-.72.82-1.1 1.21-.78.81-1.6 1.58-2.45 2.32-.43.38-.87.75-1.32 1.11-.25.21-.51.41-.77.61-.41.33.35-.13.43-.33-.05.13-.4.31-.51.39a98.089 98.089 0 0 1-7.03 4.73c-13.04 7.99-27.23 14.11-41.2 20.28-17.69 7.81-35.49 15.37-52.99 23.6-18.24 8.57-36.26 17.8-53.21 28.73-15.57 10.04-30.67 21.61-42.45 36.03-10.89 13.34-18.59 28.95-20.03 46.29-1.73 20.73 6.33 41.14 16.9 58.57 12.26 20.21 28.41 38.01 45.54 54.19 16.83 15.9 34.96 30.43 53.77 43.93 13.1 9.41 26.56 18.45 40.58 26.45 1.85 1.06 3.71 2.09 5.61 3.06 2.04 1.05 4.61.53 5.81-1.52 1.11-1.9.52-4.76-1.52-5.81-11.93-6.13-23.24-13.67-34.32-21.21-8.48-5.77-16.8-11.77-24.96-17.98a341.79 341.79 0 0 1-5.96-4.61 506.306 506.306 0 0 1-20.28-16.77c-9.07-7.92-17.84-16.18-26.15-24.89-4.11-4.31-8.11-8.73-11.96-13.28s-6.9-8.4-10.24-13c-6.39-8.8-12.14-18.11-16.62-28.04-.25-.56-.5-1.13-.75-1.7-.05-.11-.52-1.24-.15-.34-.09-.23-.19-.45-.28-.68-.51-1.24-.99-2.49-1.46-3.74-.87-2.35-1.65-4.74-2.33-7.15s-1.24-4.74-1.71-7.14c-.22-1.13-.41-2.26-.58-3.39 0-.03-.16-1.15-.07-.45s-.05-.42-.06-.45c-.08-.68-.16-1.35-.22-2.03-.43-4.57-.41-9.17.09-13.73.05-.48.12-.96.17-1.44-.15 1.31.05-.28.09-.59.16-1.04.35-2.08.56-3.11.4-1.96.89-3.9 1.46-5.82s1.19-3.71 1.89-5.53c.17-.44.35-.88.53-1.33.1-.25.39-.91-.04.09.11-.26.23-.53.34-.79.4-.92.83-1.83 1.26-2.74 1.76-3.63 3.8-7.12 6.05-10.46 1.17-1.73 2.39-3.42 3.66-5.09-.7.92.26-.33.45-.57.31-.4.63-.79.95-1.18.71-.87 1.43-1.73 2.16-2.57 2.87-3.32 5.93-6.47 9.11-9.49s6.77-6.13 10.32-8.99c.87-.7 1.74-1.38 2.62-2.07s-.47.36.07-.05c.22-.17.44-.34.67-.51.54-.41 1.08-.82 1.62-1.22 1.91-1.43 3.85-2.82 5.8-4.19 16.3-11.41 33.89-20.91 51.75-29.63 17.67-8.63 35.72-16.45 53.73-24.32 14.83-6.48 29.82-12.85 44.02-20.65 5.41-2.97 10.68-6.21 15.51-10.06 3.38-2.7 6.73-5.94 8.64-9.88.99-2.06 1.59-4.11 1.71-6.4s-2.04-4.25-4.25-4.25c-2.4 0-4.13 1.95-4.25 4.25Z" fill="#fff"/>
  <path d="M258.37 406.89c-.42.44-.87.83-1.33 1.22-.96.82.77-.53.04-.02-.32.23-.64.46-.96.68-1.39.95-2.85 1.8-4.33 2.6-4.01 2.17-8.19 4.04-12.37 5.84-.55.23-1.09.47-1.64.7-.74.31 1.01-.42.27-.11-.13.05-.25.11-.38.16l-1.14.48c-1.32.55-2.64 1.09-3.96 1.63-2.85 1.16-5.7 2.3-8.56 3.43-6.51 2.58-13.03 5.11-19.55 7.68-15.18 6-30.3 12.17-45.16 18.93-15.75 7.16-31.24 14.97-46.04 23.96S85 492.72 72.87 504.44c-11.09 10.72-20.91 23.22-27.07 37.44s-8.76 30.59-6.68 46.47c1.7 12.97 7.06 25.22 13.23 36.65 9.47 17.55 21.68 33.65 35.2 48.27 18.17 19.64 39.12 36.69 61.56 51.21 6.27 4.06 12.67 7.91 19.17 11.58 4.77 2.69 9.06-4.65 4.29-7.34-24.32-13.72-46.88-29.92-67-49.23-8.26-7.93-16.07-16.33-23.29-25.21-.83-1.02-1.65-2.04-2.46-3.08l-1.2-1.53c.11.14.46.6-.04-.05l-.7-.91a238.35 238.35 0 0 1-4.43-6.01c-2.7-3.79-5.29-7.65-7.75-11.6-4.19-6.74-8.02-13.72-11.27-20.97-.35-.78-.69-1.57-1.03-2.36-.28-.65.11.26.13.32-.1-.23-.19-.46-.29-.69-.16-.38-.31-.76-.46-1.14-.58-1.45-1.13-2.9-1.65-4.37-.91-2.57-1.73-5.19-2.39-7.84-.28-1.13-.54-2.28-.76-3.43-.1-.53-.19-1.05-.27-1.58s-.15-1.01-.22-1.52c.15 1.1-.03-.28-.08-.69a87.59 87.59 0 0 1-.57-11.79c.04-1.9.15-3.8.32-5.7.09-.94.2-1.87.31-2.8.09-.75-.03.21-.04.3l.12-.83c.07-.46.14-.92.22-1.38.6-3.63 1.45-7.23 2.54-10.74.54-1.75 1.14-3.48 1.79-5.19.33-.85.68-1.7 1.02-2.55-.48 1.2.1-.23.22-.5.18-.42.37-.84.56-1.25 1.54-3.35 3.28-6.6 5.19-9.75s4.06-6.3 6.33-9.29c.17-.23.34-.45.52-.68-.06.08-.6.76-.14.18.3-.37.59-.75.88-1.12.6-.75 1.2-1.49 1.81-2.22 1.24-1.48 2.51-2.93 3.81-4.35 5.36-5.88 11.22-11.29 17.37-16.33.79-.65 1.58-1.29 2.38-1.92.36-.29.72-.57 1.09-.86.2-.16.4-.32.61-.47.83-.66-.73.55.12-.09 1.64-1.26 3.3-2.5 4.97-3.71 3.39-2.46 6.85-4.84 10.35-7.13 14.31-9.36 29.44-17.44 44.87-24.79 7.57-3.61 15.23-7.04 22.94-10.35.94-.4 1.88-.81 2.82-1.21.42-.18.84-.36 1.27-.54.6-.25-.97.41-.03.01.28-.12.56-.24.84-.35 1.85-.78 3.71-1.55 5.56-2.32 3.61-1.49 7.23-2.96 10.86-4.41 12.61-5.05 25.32-9.87 37.89-15.02 5.01-2.05 10.01-4.15 14.9-6.47 3.3-1.57 6.63-3.23 9.63-5.34 1.27-.89 2.54-1.84 3.61-2.96 3.79-3.95-2.21-9.96-6.01-6.01ZM597.43 419.22c13.57 9.96 28.65 17.88 43.59 25.56 19.19 9.87 38.7 19.11 58.1 28.55 20.69 10.06 41.32 20.26 61.49 31.32 18.7 10.26 37.15 21.21 54.19 34.08.47.36.94.71 1.41 1.07.11.08 1.04.8.26.19l.55.43c1 .78 2 1.57 2.99 2.37 1.85 1.49 3.68 3.01 5.47 4.56 3.34 2.88 6.59 5.88 9.69 9.02s5.79 6.12 8.42 9.41c.27.34.53.68.8 1.02.39.49-.63-.83-.05-.07.14.19.29.38.43.57a84.385 84.385 0 0 1 4.88 7.2c.99 1.64 1.84 3.2 2.67 4.85.38.77.75 1.54 1.1 2.32.14.31.69 1.64.18.38.17.43.35.85.52 1.28.61 1.58 1.16 3.18 1.62 4.81.2.7.38 1.4.52 2.11.07.34.13.68.19 1.03.26 1.39-.04-.75.05.31.13 1.46.22 2.9.16 4.36-.03.67-.09 1.33-.15 1.99-.11 1.25.14-.77 0 .13-.07.39-.12.77-.19 1.16-.28 1.51-.66 2.99-1.13 4.45a38.316 38.316 0 0 1-1.18 3.2c-.3.78.37-.77.11-.27-.13.24-.22.5-.33.75-1.4 3.1-3.13 6.04-5.04 8.85-.5.73-1.01 1.46-1.53 2.17-.27.36-.54.73-.81 1.09-.14.19-.74.95 0 .01a99.158 99.158 0 0 1-4.36 5.23c-5.84 6.56-12.38 12.48-19.18 18.03-.9.73-1.8 1.46-2.71 2.18-.46.36-.92.73-1.38 1.09-.23.18-.47.36-.7.54-.94.73.68-.52-.27.2-2.01 1.54-4.04 3.06-6.08 4.55-4.15 3.03-8.37 5.95-12.63 8.81-9.09 6.08-18.41 11.83-27.84 17.38-19.1 11.23-38.69 21.62-58.4 31.74-16.58 8.52-33.3 16.76-49.8 25.44-3.04 1.6-6.07 3.22-9.08 4.88-4.79 2.64-.51 9.98 4.29 7.34 15.16-8.38 30.75-16 46.19-23.85 19.53-9.92 38.99-19.99 58.08-30.74s37.72-22 55.25-34.97c14.4-10.65 28.84-22.52 38.81-37.6 3.72-5.63 6.84-11.99 7.99-18.68s.28-13.41-2.22-19.88c-6.02-15.58-17.68-28.36-30.1-39.19-15.75-13.73-33.43-25.17-51.44-35.69-19.97-11.67-40.59-22.21-61.33-32.45-20.09-9.92-40.35-19.5-60.42-29.47-16.48-8.19-33.02-16.53-48.53-26.48-3-1.92-5.95-3.92-8.82-6.03-1.85-1.36-4.74-.31-5.81 1.52-1.26 2.16-.33 4.45 1.52 5.81Z" fill="#fff"/>
  <path d="M644.8 417.37c13.95 6.39 28.31 11.92 42.55 17.63 9.15 3.67 18.3 7.34 27.43 11.06 5.06 2.07 10.12 4.15 15.16 6.26 1.2.5 2.4 1.01 3.61 1.51.6.25 1.21.51 1.81.76 1.17.49-.44-.19.26.11.43.18.85.36 1.28.54 2.57 1.09 5.14 2.19 7.71 3.29 21.32 9.17 42.45 18.83 63.07 29.48 19.78 10.22 39.22 21.34 57.28 34.4a266.665 266.665 0 0 1 6.51 4.85c-.5-.39.42.33.41.32l1.39 1.09c1 .8 2 1.6 2.99 2.41 3.69 3.02 7.28 6.17 10.73 9.45 3.23 3.08 6.35 6.29 9.28 9.66 1.37 1.58 2.7 3.2 3.99 4.85-.76-.96.26.34.4.53.29.39.58.77.86 1.16.62.85 1.22 1.7 1.81 2.57 2.17 3.2 4.14 6.54 5.81 10.03.4.83.76 1.67 1.14 2.5-.44-1 0-.02.17.42a44.222 44.222 0 0 1 2.1 6.79c.19.84.35 1.68.48 2.52.03.21.05.43.1.63.13.59-.12-1.14-.03-.25.05.51.11 1.01.16 1.52.15 1.77.19 3.54.12 5.31-.03.85-.09 1.69-.17 2.53-.04.42-.1.84-.14 1.27-.09.93.17-1.04.02-.12l-.12.76c-.3 1.83-.7 3.65-1.2 5.44s-1.12 3.65-1.81 5.44c-.16.42-.34.84-.51 1.26-.09.23-.34.72.11-.26-.12.25-.22.51-.33.76-.41.93-.85 1.86-1.3 2.77-1.82 3.67-3.95 7.17-6.28 10.54-.58.84-1.17 1.67-1.78 2.49-.31.42-.62.83-.93 1.24l-.57.75c.64-.84.04-.05-.11.13-1.44 1.81-2.91 3.58-4.43 5.32-3.17 3.62-6.52 7.07-9.99 10.39-3.65 3.49-7.43 6.84-11.3 10.07-2.01 1.68-4.05 3.33-6.11 4.95l-1.5 1.17c-.99.78.66-.5-.35.27l-.76.58c-1.12.86-2.25 1.71-3.38 2.55-9.01 6.69-18.35 12.94-27.88 18.87-19.43 12.1-39.63 22.94-60.18 33.02-9.4 4.61-18.87 9.06-28.42 13.36-4.35 1.96-8.71 3.89-13.08 5.79-2.06.9-4.13 1.79-6.2 2.67-.93.39-1.85.79-2.78 1.18-.18.08-.36.15-.55.23-.95.4.87-.37-.07.03-.54.22-1.07.45-1.61.67-3.4 1.42-6.8 2.83-10.21 4.22-2.12.86-3.63 2.83-2.97 5.23.55 2.01 3.09 3.84 5.23 2.97 17.13-6.97 34.09-14.36 50.83-22.23 20.56-9.66 40.81-20.02 60.44-31.46 19.7-11.48 38.92-24.05 56.39-38.76 14.16-11.93 28.1-25.84 36.24-42.71 3.51-7.27 5.88-15.03 6.24-23.13s-1.61-15.86-4.98-23.15c-7.33-15.86-20.26-28.9-33.53-39.93-16.79-13.94-35.39-25.61-54.43-36.21-20.55-11.44-41.78-21.63-63.25-31.22-20.4-9.11-41.04-17.65-61.76-25.99-8.76-3.53-17.53-7.02-26.29-10.55-3.8-1.53-7.59-3.06-11.38-4.62-1.69-.69-3.37-1.39-5.05-2.09l-2.28-.96c-.83-.35.95.4.13.05-.18-.08-.37-.15-.55-.23-.43-.18-.86-.37-1.3-.55-2.71-1.16-5.4-2.34-8.08-3.56-2.08-.95-4.57-.59-5.81 1.52-1.07 1.83-.57 4.85 1.52 5.81ZM268.04 227.21c-1.72 12.62.39 25.27 5.23 37.01s12.1 22.44 20.13 32.42c4.37 5.43 8.97 10.67 13.58 15.9 1.47 1.67 4.52 1.62 6.01 0 1.64-1.79 1.57-4.22 0-6.01-7.96-9.05-15.56-17.66-22.08-27.43-3.25-4.87-6.19-9.95-8.62-15.28-.31-.68-.61-1.36-.9-2.05.22.52-.07-.17-.09-.23-.17-.42-.33-.83-.5-1.25-.54-1.39-1.05-2.79-1.51-4.21-.9-2.75-1.66-5.55-2.24-8.39-.16-.8-.31-1.6-.45-2.4-.05-.29-.1-.58-.14-.88-.05-.29-.09-.58-.13-.88.04.32.04.33 0 .03a60.592 60.592 0 0 1-.43-9.71c.03-.81.08-1.62.15-2.43.02-.29.05-.59.08-.88.01-.15.21-1.76.11-1.08.3-2.19-.53-4.67-2.97-5.23-2-.45-4.9.61-5.23 2.97ZM298.53 234.8c6.01 7.74 14.63 12.97 23.41 17.02 4.64 2.14 9.38 4.04 14.12 5.95 5.23 2.11 10.49 4.16 15.87 5.86 6.24 1.96 12.63 3.35 19.15 3.91 2.22.19 4.34-2.09 4.25-4.25-.11-2.46-1.87-4.04-4.25-4.25-.7-.06-1.4-.13-2.1-.21-.08 0-1.02-.12-.59-.07s-.52-.07-.59-.09c-1.38-.21-2.76-.46-4.13-.74-2.67-.55-5.31-1.24-7.92-2.02-5.18-1.55-10.23-3.47-15.25-5.47-2.39-.95-4.78-1.92-7.16-2.89-.49-.2-.99-.41-1.48-.61-.23-.1-1.52-.64-.84-.35-1.11-.47-2.22-.95-3.32-1.45-4.26-1.91-8.44-4.01-12.36-6.55-1.05-.68-2.07-1.39-3.08-2.14-.08-.06-.73-.56-.35-.26s-.42-.34-.49-.4c-.51-.41-1.01-.84-1.5-1.27a41.756 41.756 0 0 1-5.38-5.74c-1.37-1.76-4.59-1.55-6.01 0-1.72 1.87-1.46 4.13 0 6.01ZM627.21 319.08c21.81-18.12 44.36-37.11 57.11-63.04 3.47-7.05 6.19-14.47 7.8-22.17.45-2.17-.63-4.69-2.97-5.23-2.13-.48-4.74.64-5.23 2.97-.69 3.32-1.58 6.6-2.67 9.81s-2.06 5.63-3.36 8.41c-2.81 6.05-6.24 11.8-10.08 17.25-.9 1.28-1.83 2.54-2.77 3.79 0 0-.85 1.1-.38.49-.26.34-.53.67-.79 1.01-.62.78-1.24 1.55-1.88 2.32-2.2 2.65-4.48 5.23-6.84 7.73-4.91 5.22-10.12 10.16-15.46 14.92-6.04 5.39-12.27 10.56-18.5 15.73-1.72 1.43-1.58 4.55 0 6.01 1.82 1.67 4.18 1.52 6.01 0ZM605.17 252.57c18.13-9.18 36.46-17.44 55.06-24.78 5.32-2.1 10.67-4.13 16.05-6.09 2.08-.76 3.71-2.92 2.97-5.23-.66-2.04-2.99-3.78-5.23-2.97a674.247 674.247 0 0 0-57.51 24.06c-5.24 2.49-10.45 5.04-15.62 7.66-1.99 1.01-2.72 3.96-1.52 5.81 1.31 2.03 3.69 2.6 5.81 1.52Z" fill="#fff"/>
  <path d="M586.04 102.67c.49 32.76 13.79 102.96 41.19 128.34-1.48 2.61-19.16-4.36-26.58-8.16 5.48 19.12 20.97 36.22 20.81 37.15-.51 2.9-16.63 2.53-26.34-8.52-10.69-12.17-8.57-54.66-11.86-73.65-1.18-6.79-8.95-40.3-7.38-47.01" fill="#ae3517"/>
  <path d="M581.86 102.67c.27 17.36 3 34.81 6.67 51.75 4.19 19.39 9.97 38.83 19.14 56.49 4.35 8.38 9.66 16.58 16.61 23.05l-.65-5.07c.28-.44.91-1.04 1.14-1.17.03-.02 1.25-.47.62-.28s.52-.11.63-.07c-.14-.05-.43.02-.58.02-.26 0-1.52-.14-.67-.03s-.08-.02-.25-.05c-.22-.04-.43-.08-.65-.13-2.43-.5-4.81-1.28-7.16-2.09-1.3-.45-2.59-.93-3.88-1.43-.7-.27-1.39-.55-2.09-.83-.29-.12-.59-.24-.88-.36-.2-.08-1.5-.64-.44-.18-2.24-.96-4.47-1.96-6.65-3.07-1.53-.78-3.26-.74-4.64.33-1.3 1-1.97 2.77-1.5 4.39 2.6 8.96 7.02 17.35 12.11 25.13 1.89 2.88 3.88 5.69 5.93 8.46 1.03 1.4 1.99 2.93 3.09 4.27-.6-.74-.55-2.69-.02-3.61-.21.36.83-.99.47-.62-.22.22-.71.43.63-.48-.48.33-.67.03.4-.11-.35.05-.74.22-1.09.3-.93.23 1.06-.06.18-.02-.29.01-.57.05-.85.06-.65.03-1.29.01-1.94-.03-.32-.02-.63-.05-.95-.08-1.16-.1.79.14-.4-.05-1.64-.26-3.25-.67-4.83-1.2-.44-.15-.87-.3-1.31-.47-.26-.1-1.38-.62-.47-.18-.89-.43-1.78-.83-2.65-1.31s-1.67-.98-2.46-1.53c-.2-.14-1.39-1.04-.7-.49-.46-.37-.92-.75-1.37-1.15-.73-.65-1.42-1.34-2.08-2.07-.23-.25-.44-.53-.67-.78-.33-.36.54.81.3.39-.08-.14-.19-.26-.28-.4-.72-1.04-1.32-2.15-1.85-3.3-.12-.26-.21-.59-.37-.83.65.96.11.26-.06-.2-.26-.69-.51-1.38-.73-2.09-.48-1.47-.88-2.96-1.24-4.47-.4-1.68-.74-3.37-1.04-5.07-.14-.79-.27-1.59-.39-2.39-.07-.46-.14-.91-.2-1.37l-.09-.62c-.14-.98.03.23-.02-.13-.95-7.69-1.51-15.41-1.97-23.15-.42-7.03-.75-14.09-1.52-21.09-.55-4.98-1.52-9.83-2.54-14.73-1.33-6.43-2.65-12.86-3.8-19.33-.3-1.69-.59-3.38-.86-5.08l-.33-2.15c-.06-.39-.11-.78-.17-1.17-.02-.17-.05-.34-.07-.51-.06-.44.14 1.08.02.11-.3-2.4-.6-4.82-.59-7.25 0-.42.01-.83.04-1.25.1-1.26-.23 1.04.01-.04.47-2.13-.64-4.62-2.92-5.14-2.12-.48-4.64.64-5.14 2.92s-.39 4.52-.2 6.76c.27 3.28.75 6.55 1.27 9.8 1.1 6.93 2.48 13.81 3.89 20.68l1.71 8.27c.2.96.39 1.92.57 2.88.2 1.08.21 2.31.54 3.34-.02-.05-.14-1.1-.05-.39l.06.49c.05.38.09.75.14 1.13.1.83.18 1.66.26 2.49.16 1.69.3 3.39.43 5.08.29 3.84.51 7.69.74 11.54.48 8.02.95 16.06 1.91 24.04.85 7.02 1.85 14.26 4.53 20.85 1.25 3.07 2.76 5.86 5.03 8.31 3.01 3.25 6.79 5.86 10.84 7.64 3.7 1.62 7.51 2.68 11.55 3.02 2.62.22 5.62.1 7.94-1.28 1.82-1.08 3.14-3.37 2.49-5.51-.24-.78-.62-1.43-1.08-2.08-1.46-2.07-3.02-4.06-4.49-6.11-2.3-3.2-4.5-6.47-6.53-9.85a103.19 103.19 0 0 1-5.03-9.35c-.26-.54-.51-1.09-.75-1.64-.11-.24-.22-.49-.32-.74-.53-1.21.29.74-.2-.49-.91-2.25-1.72-4.53-2.4-6.86l-6.14 4.72c5.48 2.8 11.26 5.15 17.1 7.1 2.43.81 4.91 1.58 7.45 1.95 2.91.43 5.98.38 7.75-2.39.97-1.51.66-3.85-.65-5.07s-2.66-2.61-3.89-4.01a78.39 78.39 0 0 1-1.87-2.22c-.21-.26-1.21-1.2-.35-.42-.38-.34-.68-.89-.99-1.31-2.51-3.41-4.74-7.01-6.78-10.72-2.21-4.01-4.18-8.14-5.99-12.34-.13-.3-.25-.59-.38-.89.05.13.34.82.04.1-.23-.55-.46-1.1-.68-1.65-.47-1.16-.94-2.33-1.39-3.51-.87-2.28-1.71-4.57-2.5-6.88-6.29-18.24-10.51-37.26-13.13-56.37-.03-.23-.2-1.26-.01-.08-.05-.3-.08-.59-.12-.89l-.24-1.91c-.15-1.2-.29-2.4-.42-3.6-.24-2.19-.46-4.39-.64-6.59-.34-4.03-.57-8.06-.63-12.1-.03-2.19-1.9-4.28-4.18-4.18s-4.22 1.84-4.18 4.18Z"/>
  <path d="M357.53 99.13c-.49 32.76-9.25 116.86-36.65 142.24 1.48 2.61 20.93-2.59 28.35-6.39-5.48 19.12-22.24 34.5-22.58 35.38-1.85 4.82 16.63 4.3 26.34-6.75 10.69-12.17 16.64-37.71 9.09-85.78-1.07-6.81 8.95-40.3 7.38-47.01" fill="#ae3517"/>
  <path d="M353.35 99.13c-.12 8.03-.62 16.05-1.29 24.05-.42 4.96-.92 9.92-1.49 14.87-.31 2.66-.65 5.31-.99 7.96-.06.49.04-.32.05-.33l-.06.47c-.04.31-.09.62-.13.94-.09.68-.19 1.36-.29 2.04-.19 1.37-.4 2.73-.6 4.1-1.67 11.01-3.74 21.96-6.42 32.77a246.81 246.81 0 0 1-4.39 15.59c-.8 2.49-1.64 4.96-2.54 7.4-.42 1.14-.86 2.28-1.3 3.42-.23.58-.46 1.16-.7 1.74-.11.26-.22.53-.33.79-.18.44.15-.35.15-.34-.06.18-.15.35-.22.52-1.81 4.22-3.83 8.35-6.2 12.29a68.755 68.755 0 0 1-3.5 5.27c-.14.19-.28.38-.42.56-.49.65.25-.31.09-.11-.34.41-.66.83-1 1.24-.59.71-1.21 1.41-1.84 2.08s-1.3 1.33-1.98 1.97c-1.3 1.21-1.62 3.55-.65 5.07 1.58 2.46 4.44 2.91 7.15 2.74 3-.18 6-.78 8.93-1.47 6.12-1.44 12.37-3.31 17.99-6.16l-6.14-4.72a53.265 53.265 0 0 1-1.77 5.15c-.03.07-.52 1.25-.17.43a70.11 70.11 0 0 1-3.86 7.62c-1.24 2.13-2.44 4-3.77 5.92-.61.88-1.24 1.75-1.87 2.61-.29.39-.59.78-.88 1.17-.63.83.39-.47-.02.03-.23.28-.44.57-.67.85-1.99 2.51-4.1 4.92-6.27 7.27-1.31 1.41-2.97 2.81-3.42 4.76-.89 3.83 2.2 6.75 5.72 7.41s7.26.25 10.77-.62c8.04-1.99 14.91-6.7 19.7-13.41 7.47-10.46 9.79-24.11 10.63-36.64.65-9.67.27-19.4-.61-29.04-.56-6.1-1.33-12.19-2.24-18.24-.11-.72-.21-1.45-.33-2.17-.16-.92.06 1.35.05.34 0-.47-.03-.93 0-1.39.02-.52.06-1.04.12-1.55l.09-.83c.14-1.21-.14.91.02-.17 1.03-6.91 2.66-13.72 4.12-20.54.76-3.55 1.51-7.11 2.14-10.69.52-2.97 1.05-6 1.12-9.02.02-1.13-.07-2.29-.31-3.39-.47-2.14-3.07-3.59-5.14-2.92-2.25.73-3.43 2.85-2.92 5.14.24 1.08-.04-1.26 0 .02.02.49.02.98 0 1.47-.04 1.19-.32 2.39-.33 3.57.01-1.37.04-.33-.02.09-.05.34-.1.69-.16 1.03-.13.81-.27 1.61-.41 2.42-.3 1.67-.63 3.34-.97 5.01-1.42 6.99-3.07 13.93-4.39 20.94-.54 2.88-1.06 5.81-1.28 8.74-.06.84-.08 1.68 0 2.53.16 1.53.45 3.06.68 4.58.12.79.23 1.57.34 2.36.04.31.09.62.13.93.21 1.52-.1-.77.1.74 1.33 10.19 2.2 20.47 2.16 30.75-.02 4.09-.18 8.18-.55 12.26-.08.89-.17 1.78-.27 2.67-.05.43-.1.87-.16 1.3-.01.09-.17 1.02-.04.3s-.04.28-.06.42c-.24 1.65-.52 3.3-.85 4.93-.6 3-1.37 5.98-2.35 8.88-.21.63-.43 1.25-.67 1.86-.13.33-.26.67-.39 1-.05.13-.11.26-.16.39-.19.48-.43.48.1-.23-.34.45-.51 1.16-.75 1.67-.28.59-.57 1.18-.88 1.76-.55 1.05-1.14 2.07-1.78 3.06-.29.45-.59.89-.89 1.33-.15.21-.3.42-.46.63-.09.12-.17.23-.26.34-.39.53.68-.85.24-.31-1 1.21-2.03 2.38-3.2 3.43-.33.3-.67.58-1.01.86-.81.68.49-.28-.07.05-.23.14-.45.32-.67.48-.84.58-1.72 1.12-2.62 1.62-.83.46-1.7.82-2.55 1.26-.57.29.94-.36 0 0-.19.07-.38.15-.57.22-.51.19-1.03.38-1.56.54-1.64.53-3.36.69-5 1.17 1.24-.36.02-.01-.37.02-.35.03-.7.05-1.05.06-.67.02-1.33 0-2.01-.04-1.08-.06 1.01.22.02 0-.22-.05-.43-.09-.64-.14-.66-.18-.62-.52.17.13-.1-.08-.43-.29-.55-.3.57.06.9.77.54.41-.28-.29-.18-.39.42.58-.37-.6.35 1.08.22.57s.11 1.23.1.78c0-.4.19-.51-.12.75.18-.74-.52.96-.29.61.12-.19-.91 1.05-.49.63.08-.08.15-.17.22-.25l.75-.81c1.81-1.95 3.6-3.91 5.31-5.94 5.72-6.79 10.87-14.18 14.4-22.37 1.07-2.48 2.03-4.98 2.78-7.57.47-1.61-.2-3.39-1.5-4.39-1.38-1.06-3.11-1.1-4.64-.33-.5.25-1 .49-1.51.72-.26.12-.52.25-.79.34 1.23-.45.05-.03-.21.07-1.25.5-2.51.95-3.78 1.39-2.8.96-5.65 1.79-8.53 2.51-1.38.34-2.77.66-4.17.93-.61.12-1.23.23-1.85.33-.24.04-.5.11-.74.11 1.33 0 .29-.04-.06 0-.91.1-1.8.09-2.7.11s1.23.16.03-.01c-.75-.11.95.47.52.23.24.14.86.71 1.15 1.17l-.65 5.07c6.35-5.91 10.93-13.64 14.57-21.44 4.52-9.68 7.88-19.87 10.62-30.18 2.89-10.86 5.1-21.89 6.9-32.97a477.84 477.84 0 0 0 4.14-32.64c.78-8.47 1.37-16.96 1.59-25.46.02-.83.04-1.66.05-2.5.03-2.19-1.95-4.28-4.18-4.18s-4.14 1.84-4.18 4.18Z"/>
  <path d="M377.15 293.56c-17.8-34.84-13.02-66.74-13.72-105.85-.72-40.19.23-81.75-15.34-118.8 13.3 3.55 47.84 18.79 52.83 19.57 4.31.67 37.32-9.22 61.01-10.78 51.26-3.37 79.64 7.34 81.47 7.42 2.1.1 4.11-.79 6.02-1.66 11.97-5.43 42.34-18.74 54.31-24.17-4.1 14.74-22.42 58.33-24.44 62.73-5.73 12.54-2.05 27.12 1.16 40.53 12.62 52.7 20.1 102.93-19.03 140.43-61.8 59.21-112.49 36.4-112.49 36.4s-57.06-16.98-71.8-45.82Z" fill="#fff"/>
  <path d="M380.76 291.45c-3.31-6.5-5.83-12.85-7.88-19.99-.96-3.35-1.77-6.74-2.44-10.16-.32-1.61-.6-3.23-.86-4.86-.12-.74-.23-1.47-.33-2.21 0 .02-.19-1.43-.09-.66-.08-.59-.15-1.18-.22-1.77-1.64-13.77-1.47-27.67-1.32-41.51.15-15.17-.06-30.33-.34-45.49s-.81-30.9-2.64-46.24c-2.07-17.38-5.73-34.58-12.5-50.77L347 72.93c8.19 2.2 16.11 5.52 23.99 8.62s15.98 6.52 24.09 9.46c2.04.74 4.27 1.69 6.48 1.67 2.99-.03 6.08-.84 8.99-1.46 10.26-2.18 20.45-4.65 30.76-6.55 2.93-.54 5.88-1.04 8.83-1.49.69-.1 1.39-.21 2.08-.3.04 0 1.41-.19.54-.08.27-.04.55-.07.82-.11 1.48-.19 2.97-.36 4.45-.5 6.81-.67 13.69-.89 20.53-.96 11.72-.12 23.45.46 35.08 1.95.28.04.56.07.84.11 1.09.14-.63-.1.04 0 .59.09 1.18.16 1.77.25 1.07.16 2.15.32 3.22.5 1.99.32 3.97.67 5.95 1.06 3.04.59 6.07 1.25 9.08 2 3.72.93 7.54 2.62 11.42 1.96 2.73-.47 5.26-1.86 7.77-2.99 1.85-.83 3.7-1.66 5.55-2.48 4.58-2.04 9.16-4.07 13.74-6.1 9.3-4.12 18.61-8.22 27.89-12.38 1.65-.74 3.3-1.48 4.94-2.22l-6.14-4.72c-1.72 6.14-4.02 12.13-6.28 18.09-2.88 7.61-5.9 15.16-8.97 22.7a1419.71 1419.71 0 0 1-5.9 14.26c-.13.31-.26.63-.4.94-.37.88.38-.9-.04.09-.23.54-.46 1.07-.68 1.61-.61 1.43-1.22 2.85-1.85 4.27-2.58 5.82-3.63 12.04-3.45 18.39.34 11.87 3.99 23.48 6.58 34.99 1.2 5.3 2.33 10.62 3.34 15.95s1.93 10.85 2.57 15.57c.27 1.97.62 4.99.86 7.38.26 2.61.47 5.22.63 7.84.3 4.98.39 9.97.21 14.95a127.46 127.46 0 0 1-.86 10.92c-.03.27-.07.53-.1.8.02-.18.11-.76-.01.08-.1.66-.19 1.32-.3 1.98-.76 4.72-1.82 9.38-3.24 13.94a94.84 94.84 0 0 1-2.39 6.75c-.12.31-.25.62-.38.93-.29.71.39-.88-.12.29-.21.49-.43.98-.65 1.47a89.326 89.326 0 0 1-9.48 16.1c-.86 1.16-.91 1.23-1.84 2.37s-1.86 2.24-2.83 3.33c-1.8 2.03-3.69 3.97-5.64 5.85-4.57 4.38-9.34 8.56-14.32 12.47-7.99 6.28-17.22 12.15-26.63 16.67-.99.48-1.99.94-2.99 1.39-.52.23-1.04.46-1.57.69-.1.04-.83.36-.37.16.43-.18-.59.24-.71.29-2 .82-4.02 1.59-6.07 2.29-3.81 1.32-7.69 2.43-11.62 3.31-1.78.4-3.57.75-5.36 1.05-.81.14-1.63.26-2.44.38-1.03.15.78-.09-.44.06-.46.06-.92.11-1.39.16-3.1.34-6.21.53-9.32.56-2.7.02-5.4-.08-8.1-.31-.61-.05-1.21-.11-1.82-.18l-.78-.09c-.2-.02-1.48-.19-.58-.07s-.19-.03-.37-.05c-.24-.03-.48-.07-.72-.11-.54-.08-1.09-.18-1.63-.27-3.03-.54-6.03-1.25-8.95-2.24-.66-.22-1.3-.48-1.95-.72s1.3.55.69.29c-.55-.24-.84-.36-1.32-.52-3.07-1.01-6.14-2.02-9.17-3.13-2.75-1.01-5.48-2.07-8.19-3.19-.33-.14-.67-.27-1-.41-.17-.07-.34-.14-.5-.21-.86-.36.67.29.11.05-.83-.36-1.66-.71-2.48-1.07-1.64-.72-3.27-1.45-4.89-2.21-7.08-3.31-14-7.01-20.54-11.3-1.65-1.08-3.28-2.21-4.88-3.38-.4-.29-.79-.58-1.18-.88-.17-.13-.35-.26-.52-.39.71.53.22.17.07.06-.8-.63-1.6-1.27-2.39-1.93-2.92-2.44-5.68-5.08-8.16-7.97-.26-.31-.52-.61-.77-.92-.13-.15-.25-.31-.38-.47-.03-.04-.64-.82-.23-.28.36.47-.04-.05-.12-.17-.15-.2-.29-.4-.44-.59-.23-.32-.46-.64-.68-.96-.98-1.42-1.86-2.91-2.66-4.44-1.03-2.01-3.84-2.6-5.72-1.5-2.04 1.19-2.54 3.71-1.5 5.72 3.51 6.81 8.89 12.61 14.73 17.5 6.37 5.33 13.36 9.86 20.64 13.83 11.21 6.12 23.1 11.15 35.2 15.21 1.11.37 2.23.77 3.36 1.09.46.13 1.15.43-.63-.31.43.18.86.37 1.29.55 1.86.75 3.79 1.34 5.74 1.84 9.96 2.58 20.52 3.07 30.72 1.94 17.73-1.97 34.59-8.48 49.72-17.81 10.38-6.4 20-14.06 28.87-22.42 7.85-7.41 14.72-15.89 19.81-25.44 9.63-18.05 12.54-38.63 11.63-58.87-.99-21.93-5.89-43.43-10.93-64.71-1.41-5.95-2.72-11.75-3.09-17.58s.07-11.19 2.21-16.13c1.85-4.28 3.68-8.56 5.47-12.87 5.95-14.3 11.87-28.65 16.97-43.28.9-2.58 1.78-5.18 2.51-7.81.45-1.6-.18-3.41-1.5-4.39-1.44-1.08-3.04-1.05-4.64-.33-17.28 7.83-34.7 15.35-52 23.13-2.16.97-4.11 1.95-5.97 2.13-1.01.1 1.37.34.55.09-.18-.05-.36-.09-.54-.13-1.45-.38-2.89-.81-4.34-1.19-6.24-1.66-12.57-2.95-18.95-3.94-10.71-1.66-21.52-2.58-32.35-2.83-13.26-.31-26.58.18-39.71 2.13-11.21 1.66-22.28 4.15-33.33 6.63-3.71.83-7.42 1.7-11.16 2.36-.35.06-.69.12-1.04.17-.86.13-.42.02.12 0-.45.03-.9.08-1.35.11-1.23.08 1.11.32.17.05-.41-.12-.83-.21-1.24-.34-7.12-2.16-14.02-5.27-20.93-8.03-8.51-3.39-17.01-6.87-25.71-9.74-1.53-.51-3.07-.99-4.63-1.41-2.77-.74-6.43 2.07-5.14 5.14 12.07 28.87 14.09 59.79 14.75 90.7.33 15.25.6 30.5.46 45.75-.13 14.08-.45 28.2.95 42.23 1.64 16.42 5.82 32.23 13.31 46.97 1.02 2.01 3.85 2.59 5.72 1.5 2.05-1.2 2.53-3.7 1.5-5.72Z"/>
  <path d="M469.74 237.66c-3.56-3.21-7.22-6.3-10.62-9.69a66.187 66.187 0 0 1-4.9-5.42c-.3-.37.29.42-.15-.2l-.54-.75c-.31-.44-.61-.9-.89-1.36-.31-.49-.6-1-.86-1.51-.1-.2-.21-.4-.3-.6-.07-.14-.51-1.18-.11-.21l-2.92 5.14c2.28-.72 4.61-1.29 6.96-1.76 1.14-.23 2.28-.43 3.43-.62.65-.11 1.31-.21 1.96-.31l.79-.12c.19-.03 1.23-.16.49-.07 5.27-.68 10.56-1.1 15.86-1.4 2.38-.13 4.77-.24 7.15-.32.62-.02 1.24-.06 1.86-.05.27 0 .57 0 .84.04-.71-.1.13.3-.03.05-.06-.09-.74-.73-.27-.14-.1-.13-.42-.78-.16-.18-.42-.99-.12-.38-.08-.09.05.34-.01-.95-.02.04 0 .3-.14.94.05-.04-.04.21-.08.42-.13.63-.08.32-.19.63-.29.95-.06.21-.34.67.04-.06-.53 1.04-1.11 1.99-1.82 2.92.42-.54-.12.14-.23.27-.21.26-.43.52-.65.78a51.11 51.11 0 0 1-4.19 4.4c-1.04.97-2.22 1.99-3.39 2.9.14-.11.54-.4-.12.09-.33.24-.65.48-.98.72a52.093 52.093 0 0 1-9.89 5.52c-1.72.73-2.3 3.08-1.92 4.72.96 4.11 1.48 7.46 1.76 11.49s.24 8.19-.1 12.27l4.18-4.18c-10.73.14-21.32 2.04-31.91 3.56-2.17.31-3.55 3.18-2.92 5.14.77 2.38 2.81 3.25 5.14 2.92 10.08-1.45 19.4-3.12 29.69-3.26 2.4-.03 3.99-1.9 4.18-4.18.73-8.7.02-17.49-1.96-25.99l-1.92 4.72c5.68-2.42 10.9-5.84 15.48-9.99 2.16-1.95 4.14-4.08 5.94-6.37s3.52-4.77 4.07-7.75c.64-3.49-.26-7.15-3.49-9.07-2.8-1.67-6.31-1.16-9.41-1.03-5.72.24-11.44.6-17.13 1.23-6.42.71-12.9 1.61-19.08 3.56-1.96.62-3.8 2.98-2.92 5.14 4 9.79 12.89 16.54 20.52 23.42 1.62 1.46 4.33 1.72 5.91 0 1.47-1.6 1.73-4.35 0-5.91Z"/>
  <path d="M469.83 269.86c8.96.53 17.85 1.9 26.81 2.43 2.19.13 4.28-2.01 4.18-4.18-.11-2.37-1.84-4.04-4.18-4.18-8.96-.53-17.85-1.9-26.81-2.43-2.19-.13-4.28 2.01-4.18 4.18.11 2.37 1.84 4.04 4.18 4.18ZM521.34 227.38c14.81-3.26 29.7-6.17 44.65-8.7a893.75 893.75 0 0 1 44.4-6.4c8.42-1 16.85-1.88 25.3-2.65 2.17-.2 4.29-1.78 4.18-4.18-.09-2.1-1.85-4.39-4.18-4.18a936.544 936.544 0 0 0-91.18 12.82 913.77 913.77 0 0 0-25.39 5.23c-2.14.47-3.59 3.07-2.92 5.14.73 2.25 2.85 3.42 5.14 2.92ZM521.89 239.45c24.7-.84 49.44-.7 74.13.44 6.96.32 13.92.73 20.87 1.21 2.19.15 4.28-2.03 4.18-4.18-.11-2.39-1.84-4.02-4.18-4.18a920.582 920.582 0 0 0-95-1.65c-2.18.07-4.28 1.87-4.18 4.18s1.84 4.26 4.18 4.18ZM416.97 230.84c-13.86.85-27.71 1.64-41.57 2.47-14.66.88-29.32 1.79-43.97 2.85-7.52.54-15.03 1.13-22.54 1.79-2.17.19-4.29 1.79-4.18 4.18.09 2.1 1.85 4.39 4.18 4.18 13.83-1.22 27.67-2.19 41.52-3.09 14.66-.95 29.32-1.82 43.98-2.68 7.52-.44 15.05-.88 22.57-1.35 2.18-.13 4.29-1.83 4.18-4.18-.1-2.15-1.84-4.32-4.18-4.18ZM399.73 216.85c-23.99 1.32-48.28 1.46-72.14-1.67.87.11-.48-.07-.53-.07-.41-.06-.82-.12-1.23-.17-.81-.12-1.62-.24-2.43-.37-1.6-.25-3.19-.52-4.79-.81a162.4 162.4 0 0 1-9.56-2.05c-2.12-.52-4.63.68-5.14 2.92s.65 4.58 2.92 5.14c11.76 2.9 23.87 4.42 35.94 5.31 12.41.92 24.88 1.11 37.32.87 6.55-.13 13.1-.38 19.65-.74 2.18-.12 4.29-1.84 4.18-4.18-.1-2.16-1.84-4.31-4.18-4.18Z"/>
  <path d="M517.15 118.83 505.8 93.84c11.43 14.45 26.46 15.04 38.98 16.26 0 0 10.9-.3 13.22 10.24 4.46 20.28 16.4 20.62 18.78 42.4 16.75-13.83-8.27-46.73-6.54-59.72 1.63-12.28 2.29-17.31 2.39-29.7.18-20.42-13.65-41.18-34.07-45.45-20.43-4.27-29.2.71-47.61 10.36.21-24.66-33.9-27.69-45.93-34.07 3.39 7.37 16.18 32.6 9.11 28.32-20.07-12.15-40.18-15.33-51.16-7.59 4.27 4.69 19.61 20.53 14.76 22.34 0 0-44.05-11.73-60.65 26.2l29.34-1c-6.57 6.07-20.83 13.77-22.85 23.26 0 0 12.09-2.35 14.1 6.45 4.07 17.85-18.55 49.27-18.55 49.27 7.35 7.6 30.6-20.37 33.77-36.39l24.71 9.78c-6.73-9.4-7.95-14.94-8.73-23.93 10.31 17.93 25.23 31.04 56.18 27.49-2.58-5.52-5.27-6.14-7.31-10.52 0 0 8.71 1.07 19.95 4.19 0 0 2.58-6.27 39.47-3.2Z" fill="#ae3517"/>
  <path d="M520.76 116.72c-3.31-7.29-6.62-14.58-9.93-21.86-.47-1.04-.95-2.09-1.42-3.13l-6.57 5.07c5.84 7.31 13.84 12.31 22.86 14.72 6.34 1.7 13.14 2.44 19.69 2.77.3.01.59.06.89.07.37.01-1.3-.22-.32-.04.27.05.55.1.82.16.52.11 1.04.25 1.55.42.26.09.52.19.78.28.61.2-.36-.14-.4-.18.14.13.42.19.6.28.59.3 1.14.65 1.7 1.01.78.51-.62-.58.21.19.31.29.62.59.91.91.04.05.35.4.35.4-.03.03-.6-.87-.16-.19.21.32.42.63.61.96.12.21.23.44.35.65.07.13.33.73.11.2-.27-.63.12.35.13.39.09.26.17.53.25.8.6 2.14 1.04 4.3 1.77 6.4s1.6 4.17 2.6 6.16c1.48 2.94 3.34 5.65 5.27 8.31 2.12 2.94 4.25 5.88 5.87 9.14.22.44.42.89.63 1.34.09.19.29.73-.06-.16.12.29.23.58.35.87a39.554 39.554 0 0 1 1.85 6.5c.13.65.25 1.3.35 1.95.05.34.11.68.15 1.02-.1-.73.05.49.06.6.19 1.71.9 3.11 2.57 3.82s3.24.24 4.57-.86c10.06-8.44 7.28-22.8 3.63-33.68-1.92-5.74-4.3-11.3-6.36-16.99-.86-2.39-1.68-4.8-2.24-7.28-.12-.51-.22-1.02-.31-1.54-.08-.47.03-1.15 0 .13 0-.25-.06-.51-.08-.75-.08-1.03-.04-2.03.1-3.06 1.06-8.05 2.03-16.07 2.25-24.19.11-4.3.1-8.51-.49-12.77-.52-3.72-1.46-7.37-2.8-10.88-5.57-14.54-17.38-27.03-32.89-30.65-8.07-1.89-16.51-2.55-24.68-.93-7.45 1.47-14.38 4.95-21.07 8.41-1.99 1.03-3.97 2.07-5.95 3.11l6.29 3.61c.01-4.89-1.18-9.8-3.77-13.98s-5.94-7.14-9.8-9.72c-7.38-4.93-16.09-7.59-24.46-10.27-1.99-.64-3.98-1.28-5.94-1.99-.44-.16-.89-.32-1.33-.49-.21-.08-.42-.16-.63-.25-.18-.07-.94-.39-.2-.08s0 0-.17-.08a9.57 9.57 0 0 1-.56-.26c-.38-.18-.76-.36-1.13-.56-1.59-.84-3.78-.75-5.07.65s-1.47 3.3-.65 5.07c1.89 4.1 3.89 8.16 5.76 12.27.56 1.24 1.11 2.48 1.65 3.72.12.28.21.6.37.86-.04-.07-.39-.93-.12-.27l.15.36c.24.58.48 1.17.71 1.76.77 1.94 1.52 3.91 1.99 5.95.08.34.11.69.2 1.03-.36-1.47-.08-.9-.08-.49 0 .11-.03.33 0 .43.11.35.21-1.16.1-.71-.15.59.29-.65.31-.68.52-.92 1.93-1.71 2.97-1.71-.44 0 1.37.21.74.09-.47-.09-.25-.48.55.25-.52-.47-1.36-.79-1.96-1.14-2.09-1.22-4.22-2.36-6.39-3.43-7.98-3.91-16.42-6.81-25.28-7.78-7.53-.82-15.85.09-22.22 4.5-2.27 1.57-2.76 4.46-.85 6.57 3.42 3.75 6.91 7.44 10.11 11.39.2.25.41.5.61.76.73.93-.25-.35.18.22s.83 1.1 1.23 1.67c.68.96 1.32 1.94 1.88 2.97.11.2.2.4.31.6.47.9-.24-.8-.07-.19.09.33.18.84.33 1.14-.42-.8-.08-1.13-.11-.5s.28-1.32.06-.6c.4-1.31.89-1.62 2.08-2.11h2.22c-5.51-1.46-11.47-1.92-17.15-1.86-11.54.12-23.41 3.06-32.71 10.13-6.82 5.19-12.05 12.01-15.51 19.85-.62 1.41-.82 2.82 0 4.22.72 1.24 2.15 2.12 3.61 2.07 8.57-.29 17.13-.58 25.7-.88l3.65-.12-2.96-7.14c-.91.83-1.85 1.61-2.81 2.38-.16.13-1.26.97-.38.3-.26.2-.51.39-.77.58-.53.4-1.06.8-1.58 1.19-2.65 1.99-5.32 3.98-7.85 6.11-4.53 3.81-9.18 8.56-10.52 14.54-.73 3.26 1.97 5.75 5.14 5.14.08-.02.16-.03.24-.04.88-.15-1.37.14-.27.04.84-.08 1.67-.14 2.51-.13.47 0 .95.02 1.42.06.14.01.28.03.42.04.58.04-.36.13-.46-.07.05.09.77.13.88.15.56.11 1.1.26 1.64.44.11.04.21.08.32.12.65.21-.35-.1-.36-.16.02.1.8.41.92.48.1.06.63.48.67.45-.09.05-.77-.72-.3-.21.08.09.18.16.26.24.1.1.89.93.39.39-.44-.48.16.32.29.52.52.82-.14-.59.07.1.12.37.24.73.33 1.11.06.27.12.54.16.81.03.16.04.32.08.47.11.51-.09-1.02-.04-.27.09 1.26.16 2.51.11 3.77a32.02 32.02 0 0 1-.21 2.5c-.05.46.06-.44.06-.44-.15.21-.15.97-.2 1.22-.51 2.9-1.32 5.74-2.28 8.52-.51 1.47-1.07 2.92-1.66 4.36-.06.14-.12.28-.17.42.37-.9.15-.36.07-.16l-.48 1.11c-.32.73-.66 1.46-1 2.19-2.33 4.96-5 9.77-7.89 14.43-1.49 2.41-3.02 4.8-4.67 7.1-1.07 1.49-.57 3.84.65 5.07 5.88 5.9 14.32.17 19.16-4.1 6.65-5.85 12.21-13.36 16.44-21.12 2.22-4.07 4.24-8.45 5.16-13.01l-5.14 2.92 21.6 8.55c1.04.41 2.07.82 3.11 1.23 1.53.61 3.47-.31 4.39-1.5s1.29-3.29.33-4.64c-1.44-2.02-2.81-4.09-4-6.27-.5-.92-.98-1.86-1.4-2.82-.04-.08-.33-.78-.14-.31s-.08-.22-.11-.3c-.18-.47-.36-.95-.52-1.43-.58-1.72-1.01-3.49-1.33-5.27-.09-.5-.17-1-.24-1.5-.07-.47-.03-.27 0 .08l-.09-.7c-.13-1.1-.24-2.21-.33-3.31l-7.79 2.11c4.11 7.12 9.14 13.91 15.64 19.03 7.51 5.92 16.24 9.3 25.69 10.55 6.13.81 12.32.67 18.46-.02 3.25-.37 5.07-3.24 3.61-6.29-1.11-2.33-2.6-4.38-4.31-6.31-.3-.34-.61-.67-.91-1.01l-.39-.45c-.08-.1-.65-.75-.25-.28.36.43-.08-.11-.14-.2-.15-.23-.31-.45-.45-.68-.32-.51-.6-1.05-.86-1.59l-3.61 6.29c.72.09-1.23-.17-.64-.09.39.06.77.11 1.16.17 1.43.22 2.87.46 4.29.73 4.72.87 9.4 1.96 14.03 3.23 2.39.66 4.26-.83 5.14-2.92-.82 1.96-.58 1.27-.39.95.22-.38.51-.05-.55.7.14-.1.33-.3.44-.43.04-.05-1.19.79-.42.34.19-.11.37-.23.56-.33.23-.12.48-.21.7-.34.23-.14-1.28.49-.52.22.18-.06.36-.14.54-.2 1.95-.69 3.97-.96 5.99-1.34-1.52.29-.31.04.07 0 .35-.04.7-.08 1.05-.11.85-.09 1.7-.15 2.56-.21 2.01-.13 4.02-.2 6.03-.22 6.47-.06 12.94.31 19.39.84 2.19.18 4.28-2.05 4.18-4.18-.11-2.42-1.84-3.99-4.18-4.18-9.86-.81-19.98-1.47-29.83-.2-3.7.47-7.96 1.03-11.09 3.27-1.25.89-1.99 1.8-2.58 3.2l5.14-2.92c-6.9-1.9-13.95-3.45-21.06-4.34-1.41-.18-2.94.92-3.61 2.07-.8 1.37-.66 2.84 0 4.22.98 2.04 2.4 3.78 3.9 5.45.31.34.62.69.92 1.04.14.16.28.33.41.5.5.59-.2-.33.08.11.72 1.13 1.41 2.22 2 3.43l3.61-6.29c-5.32.6-10.7.8-16.04.29-.58-.05-1.16-.12-1.74-.19-1.16-.13.89.15-.25-.03-.22-.04-.45-.07-.67-.1-1.19-.19-2.38-.42-3.56-.69a48.25 48.25 0 0 1-6.11-1.84c-.42-.16-.84-.33-1.25-.49 1.09.43-.35-.16-.63-.28-.97-.44-1.92-.92-2.85-1.43-1.69-.93-3.32-1.97-4.88-3.12-.17-.12-.43-.26-.56-.42.45.57.46.36.19.14-.36-.29-.72-.58-1.08-.88-.78-.65-1.54-1.33-2.27-2.03a56.48 56.48 0 0 1-3.9-4.14c-.33-.39-.66-.78-.98-1.18-.16-.2-.41-.43-.52-.66.26.52.33.43-.03-.04a69.95 69.95 0 0 1-1.89-2.63 90.264 90.264 0 0 1-3.56-5.69c-.89-1.54-2.98-2.48-4.72-1.92-1.65.53-3.23 2.17-3.07 4.03.38 4.35.88 8.76 2.28 12.92 1.6 4.75 4.12 9.05 7.02 13.12l4.72-6.14-21.6-8.55c-1.04-.41-2.07-.82-3.11-1.23-2-.79-4.73.88-5.14 2.92-.34 1.67-.84 3.3-1.43 4.9-.15.41-.32.82-.48 1.24-.29.72.12-.22.11-.25.04.11-.28.64-.33.76-.39.86-.79 1.72-1.22 2.56-1.89 3.74-4.14 7.31-6.6 10.7l-.82 1.12c-.18.25-.37.49-.56.73.57-.75.22-.28.09-.12-.69.87-1.39 1.73-2.11 2.57-1.28 1.5-2.62 2.95-4.02 4.32-.61.6-1.23 1.18-1.86 1.75-.32.29-.64.57-.97.84-.19.16-.39.32-.58.48l-.19.15c-.35.27-.25.2.27-.2-.02.31-1.59 1.15-1.88 1.33-.61.4-1.24.77-1.89 1.1-.14.07-.29.14-.44.21-.68.34.02-.07.31-.12-.32.05-.68.26-1 .35s-.64.14-.95.23c-.35.1-.53-.19.65-.08-.16-.01-.35.03-.52.04h-.36c-.7.05.38 0 .55.1-.18-.09-.59-.16-.79-.19-.58-.1.9.51.57.24-.11-.09-.29-.17-.41-.23-.73-.37.86.8.09.03l.65 5.07c4.81-6.68 8.99-13.95 12.5-21.39 2.8-5.95 5.34-12.2 6.46-18.71 1.05-6.11 1.54-14.39-3.83-18.75-4.26-3.45-10.14-4.02-15.4-3.02l5.14 5.14c.13-.59.41-1.19.52-1.78.11-.29.06-.18-.15.33.08-.18.16-.36.24-.53.13-.27.27-.53.41-.79.29-.53.62-1.05.96-1.56.18-.26.36-.51.55-.76-.59.82-.01.02.14-.16 1.84-2.24 4.01-4.2 6.24-6.04.59-.49 1.18-.97 1.78-1.44l.83-.65c-.57.44.03-.02.26-.2 1.13-.86 2.27-1.71 3.41-2.57 2.24-1.69 4.5-3.37 6.57-5.26 2.65-2.43.61-7.26-2.96-7.14-8.57.29-17.13.58-25.7.88l-3.65.12 3.61 6.29c1.09-2.47 2.34-4.86 3.79-7.14.67-1.06 1.4-2.07 2.14-3.08-.62.83.26-.32.47-.58.44-.53.89-1.05 1.36-1.57 1.53-1.68 3.19-3.2 4.95-4.64.72-.59-.58.41-.09.07.18-.13.36-.27.54-.41.43-.32.87-.63 1.32-.93.87-.59 1.77-1.15 2.69-1.67s1.81-.99 2.74-1.44c.38-.18.77-.36 1.15-.54.23-.1.48-.19.69-.3-1.12.6-.13.06.16-.06 1.83-.72 3.7-1.33 5.59-1.83s3.66-.86 5.52-1.15c.15-.02.3-.05.45-.07.8-.13.09-.25-.21.02.19-.17 1.07-.13 1.34-.16.87-.1 1.75-.17 2.62-.23a69.161 69.161 0 0 1 13.22.39c.4.05 1.5.24-.19-.03.27.04.53.07.8.11.48.07.96.15 1.44.23 1.11.19 2.2.44 3.3.68 4.74 1.01 7.28-3.91 5.95-7.88-1.51-4.48-4.93-8.33-7.92-11.87-2.76-3.27-5.7-6.38-8.58-9.54l-.85 6.57c.59-.41 1.2-.79 1.83-1.14.3-.16.6-.32.9-.47.18-.09.35-.17.53-.25.87-.42-.58.2-.05.01 1.51-.52 2.99-1.02 4.56-1.33.42-.08.84-.15 1.26-.22.76-.13-.75.06.35-.04.9-.08 1.79-.15 2.69-.18 1.85-.05 3.7.03 5.54.22.25.03.49.05.74.08.06 0 .68.08.19.02-.53-.07.27.04.39.06l.76.12c1.04.17 2.07.37 3.1.6 2.09.47 4.16 1.04 6.2 1.7 4.57 1.48 8.07 3.01 12.39 5.28 1.96 1.03 3.84 2.21 5.79 3.27 1.22.66 2.47 1.02 3.85.83 2.92-.39 4.51-3.13 4.26-5.91-.43-4.93-2.86-9.76-4.82-14.22-2.2-5.01-4.64-9.91-6.92-14.88l-5.72 5.72c6.61 3.47 14.15 5.08 21.15 7.6.98.35 1.96.72 2.94 1.1.49.19.98.39 1.46.59.32.13.88.57-.03-.02.28.18.66.28.96.42 1.9.84 3.77 1.76 5.57 2.81.81.47 1.6.96 2.38 1.48.42.28.83.57 1.24.86.2.14.42.28.6.45-.94-.87-.09-.07.13.12 1.41 1.16 3.14 2.57 4.1 4.16-.63-1.04-.23-.31-.07-.07.18.27.37.53.55.8.31.47.6.96.87 1.46.23.43.69 1.05.76 1.54-.13-.88-.23-.6-.09-.2.1.27.21.54.3.82.39 1.14.69 2.31.88 3.5l.04.26c.07.46.05.35-.04-.31-.1.16.09.9.1 1.1.05.67.06 1.33.06 2-.01 3.28 3.53 5.06 6.29 3.61 3.71-1.94 7.4-3.91 11.17-5.73.82-.4 1.64-.78 2.47-1.16.37-.17.75-.34 1.13-.5l.48-.21c1.02-.45-.48.19.11-.05 1.6-.64 3.19-1.26 4.83-1.77 1.54-.49 3.1-.9 4.68-1.22.42-.09.85-.16 1.27-.24.17-.03 1.32-.22.73-.12-.54.08.53-.06.75-.09.44-.05.88-.09 1.33-.12 1.8-.13 3.61-.15 5.42-.07.94.04 1.88.11 2.81.19.46.04.91.09 1.37.14.2.02.4.05.6.07-.76-.09.16.02.31.04 3.89.57 7.69 1.4 11.36 2.84.17.07.72.34-.03-.02.21.1.43.19.64.28.37.17.74.34 1.1.53.78.39 1.54.8 2.29 1.24s1.48.9 2.2 1.38c.34.23.67.46 1 .69.19.13.37.27.56.41.64.46-.27-.23.12.08 2.78 2.24 5.23 4.74 7.47 7.51-.5-.62.14.19.3.41.24.33.48.66.71 1 .53.77 1.05 1.55 1.54 2.35.92 1.5 1.76 3.05 2.51 4.64.2.42.39.85.59 1.28.07.15.31.74 0-.03.07.16.13.33.2.49a49.73 49.73 0 0 1 2.41 7.72c.19.86.36 1.72.51 2.59.04.23.07.46.11.69.01.08.1.66.02.14-.08-.56.02.18.04.31.03.29.07.58.09.87.18 1.79.23 3.59.22 5.39-.07 7.85-.63 15.61-1.63 23.4-.37 2.88-1.07 5.83-.76 8.75.26 2.5.81 4.92 1.55 7.32 1.66 5.36 3.89 10.54 5.85 15.79 1.05 2.81 2.06 5.64 2.91 8.52.41 1.38.78 2.76 1.1 4.16.3 1.31.35 2.8.76 4.07-.35-1.09-.03-.19.01.22.03.31.06.61.08.92.05.69.08 1.37.09 2.06 0 .59-.01 1.17-.05 1.76-.02.29-.05.57-.07.86-.09 1.15.15-.71-.03.22-.23 1.22-.56 2.37-.96 3.55-.23.67.45-.9 0-.03-.13.24-.24.49-.37.74-.3.56-.66 1.08-1.01 1.61-.39.59.59-.66-.02.02-.19.21-.38.44-.57.65-.47.5-.97.96-1.49 1.4l7.14 2.96c-.52-4.62-1.39-9.14-3.19-13.44-1.41-3.38-3.19-6.47-5.3-9.45-1.88-2.66-3.86-5.25-5.54-8.04a49.609 49.609 0 0 1-2.49-4.76c-.11-.26-.21-.52-.31-.78-.19-.49-.37-.98-.54-1.47a45.61 45.61 0 0 1-.98-3.21c-.62-2.32-1.08-4.56-2.18-6.72-.85-1.66-2.07-3.24-3.48-4.45-2.38-2.05-5.27-3.49-8.36-4.07-1.86-.35-3.73-.41-5.61-.59s-3.72-.35-5.58-.56l-1.27-.15c-.05 0-1.1-.14-.4-.05.6.08-.1-.01-.24-.03-1.02-.15-2.04-.31-3.05-.49-2.18-.4-4.33-.9-6.45-1.56-1.08-.34-2.14-.73-3.2-1.14-.73-.28-.09-.03.04.03-.32-.14-.64-.28-.95-.42-.53-.24-1.05-.5-1.57-.77a36.755 36.755 0 0 1-4.62-2.84c.04.03-.94-.7-.48-.35.34.26-.52-.42-.62-.51-2.16-1.79-4.09-3.82-5.84-6.01-1.3-1.62-4-1.48-5.49-.33-1.75 1.35-1.95 3.46-1.08 5.39 3.31 7.29 6.62 14.58 9.93 21.86.47 1.04.95 2.09 1.42 3.13.91 2 3.96 2.64 5.72 1.5 2.06-1.33 2.47-3.58 1.5-5.72Z"/>
  <path d="M530.65 79.33c-12.28-6.84 8.22-33.09-17.69-44.94 2.61 14.34-.51 21.36-4.63 34.59-.49-9.5-2.13-14.83-7.21-22.88s-13.64-14.28-23.14-14.83c8.36 12.42 10.36 23.76 8.76 38.64-9.49-22.59-19.38-23.99-30.73-33.97 1.85 12.1 4.12 26.42 9.41 37.46-7.59-3.62-23.11-14.37-29.85-19.4-.09 5.24 1.34 25.26 9.55 31.86 4.09 3.29 11.15 4.81 24.66 6.73 0 0 49.7 6.34 36.91-7.07 0 0 27.01-4.5 23.96-6.2Z" fill="#77170e"/>
  <path d="M532.76 75.72c-.29-.16-.56-.39-.85-.54-.43-.22.84.76.36.27-.12-.12-.26-.23-.38-.35-.2-.19-.36-.45-.56-.62.8.68.51.74.31.38-.1-.17-.21-.32-.31-.49-.13-.23-.23-.52-.38-.74.72 1.05.22.56.06.05-.21-.66-.3-1.32-.46-1.99-.12-.51.12 1.2.07.46-.01-.19-.04-.38-.05-.57-.03-.32-.04-.65-.06-.98-.03-.75-.02-1.5 0-2.26.05-1.63.17-3.25.3-4.88.56-7.5.73-15.35-3.26-22.04-2.87-4.81-7.44-8.31-12.47-10.64-3.43-1.59-6.8 1.01-6.14 4.72.15.85.3 1.7.41 2.55q.04.3 0 0c.03.22.05.43.08.65.04.36.08.71.11 1.07.13 1.47.21 2.94.21 4.41 0 1.36-.07 2.71-.2 4.06-.03.3-.07.59-.1.89-.04.31-.03.24.04-.23-.02.18-.05.35-.08.53-.1.64-.21 1.28-.33 1.91-1.09 5.63-3.07 11.07-4.77 16.54l8.21 1.11c-.21-3.84-.59-7.72-1.56-11.45-.91-3.49-2.37-6.84-4.11-9.99-3.76-6.81-8.88-12.88-15.79-16.65-4.06-2.21-8.45-3.5-13.06-3.8-3.09-.2-5.32 3.73-3.61 6.29 1.9 2.84 3.61 5.8 5 8.92.11.24.21.47.31.71-.15-.35-.16-.39-.05-.11.13.36.28.71.42 1.06a46.602 46.602 0 0 1 2.01 6.81c.17.79.32 1.58.45 2.38.06.37.12.74.17 1.11-.11-.76 0 .1.04.38.18 1.59.28 3.19.32 4.79.09 3.5-.12 7-.48 10.47l7.79-2.11c-2.95-6.97-6.66-13.64-11.85-19.21-3.76-4.03-8.28-7.2-12.76-10.37-1.23-.87-2.45-1.75-3.65-2.66-.11-.08-.22-.17-.33-.25-.41-.31.68.54.08.06l-.88-.7c-.68-.55-1.34-1.11-2-1.69-1.36-1.19-3.45-1.7-5.07-.65s-2.21 2.8-1.92 4.72c2 13.08 4.11 26.4 9.83 38.46l5.72-5.72c-5.33-2.56-10.33-5.9-15.25-9.17s-9.84-6.68-14.61-10.23c-2.66-1.98-6.25.73-6.29 3.61-.06 4.19.44 8.42 1.08 12.55.84 5.45 2.22 10.9 4.75 15.83 2.39 4.66 5.98 7.84 10.77 9.82 5.22 2.16 11 2.97 16.54 3.82s10.68 1.41 16.07 1.79c7.35.53 14.84.84 22.15-.27 2.85-.43 6.01-1.24 8.12-3.33 2.59-2.55 2.61-6.4.63-9.33-.55-.82-1.19-1.6-1.87-2.32l-1.84 6.99c3.26-.54 6.52-1.14 9.77-1.78 4.41-.87 9.08-1.6 13.27-3.28 1.38-.55 2.84-1.21 3.6-2.59 1.22-2.23.51-4.88-1.67-6.19-1.88-1.12-4.67-.48-5.72 1.5s-.51 4.52 1.5 5.72c-1.72-1.03-2.41-3.75-1.01-5.65.11-.15 1.29-1.22.69-.71-.1.08-.24.11-.35.17-.47.28 1.16-.44.52-.22-.35.12-.7.26-1.05.37-1.9.62-3.85 1.07-5.8 1.52-4.29.97-8.62 1.79-12.95 2.56-1.01.18-2.01.36-3.02.52-3.26.54-3.81 4.9-1.84 6.99.23.25.44.52.67.76.47.49-.62-.92-.28-.36.07.12.16.23.24.35.14.22.25.44.39.67.39.65-.36-1.23-.1-.17.22.91-.06-1.2-.04-.45.02.93.16-.77.1-.5-.21.88.36-.7.23-.44-.42.81.21-.23.26-.26-.13.09-.31.28-.41.4-.34.42 1.01-.66.52-.41-.09.05-.17.12-.27.18l-.6.33c-.91.5 1.1-.38.08-.03-1.2.41-2.41.7-3.66.9-.28.05-.57.08-.85.13 1.63-.28.26-.04-.14 0-.82.09-1.64.15-2.47.2-1.71.1-3.42.14-5.13.15-3.5 0-7.01-.15-10.5-.38-4.02-.27-8-.78-12.01-1.12.19.02 1.28.18.15.01-.46-.07-.93-.13-1.39-.2l-2.21-.33c-1.72-.27-3.45-.55-5.16-.86-2.61-.48-5.23-1.01-7.77-1.77-.97-.29-1.91-.64-2.85-.99-.81-.3.91.44.16.06-.2-.1-.4-.18-.6-.28-.44-.21-.87-.44-1.28-.69-.34-.2-.66-.43-.99-.64-.71-.48.16.22.24.2-.07.02-.5-.42-.56-.48-.37-.34-.72-.7-1.05-1.08-.1-.12-.36-.54-.49-.59.38.5.44.58.18.22-.1-.14-.21-.29-.31-.44-.68-1-1.26-2.06-1.78-3.15-.12-.26-.24-.53-.36-.79-.18-.42-.16-.36.08.19-.07-.18-.15-.37-.22-.55-.26-.66-.49-1.32-.71-1.98-.9-2.71-1.55-5.5-2.04-8.31-.12-.68-.23-1.36-.33-2.04-.03-.23-.16-.62-.12-.85.09.64.1.73.04.27-.02-.18-.05-.37-.07-.55-.15-1.2-.27-2.39-.36-3.6-.13-1.72-.23-3.44-.2-5.16l-6.29 3.61c4.77 3.55 9.66 6.94 14.61 10.23s9.91 6.61 15.25 9.17c3.86 1.85 7.55-1.87 5.72-5.72-.35-.73-.68-1.46-1-2.2.28.65-.16-.4-.2-.51-.13-.32-.25-.64-.37-.96-.57-1.5-1.09-3.01-1.57-4.54-.97-3.07-1.77-6.19-2.47-9.33-1.4-6.25-2.4-12.58-3.37-18.92l-6.99 4.07c4.18 3.66 8.82 6.67 13.26 9.99l.72.54c.36.27-.35-.28-.34-.26.1.11.28.22.41.32.51.41 1.02.82 1.51 1.24a45.352 45.352 0 0 1 5.83 5.91c.1.12.8.99.45.55-.31-.39.32.43.45.6.5.68.98 1.37 1.44 2.07 2.53 3.82 4.56 7.95 6.34 12.17.68 1.61 3.14 2.43 4.72 1.92 1.89-.61 2.87-2.11 3.07-4.03.75-7.13.72-14.32-.8-21.36s-4.59-13.5-8.53-19.4L478 35.5c.38.02.76.06 1.14.09.06 0 .68.09.2.02-.53-.08.26.05.38.07.8.14 1.6.32 2.39.54s1.56.48 2.32.77c.18.07.35.14.53.21-.07-.03-.56-.26-.13-.05.4.19.8.37 1.19.57 1.48.74 2.86 1.62 4.21 2.57.63.44-.23-.21.37.27.35.28.69.57 1.03.86.63.54 1.23 1.11 1.82 1.7s1.15 1.2 1.69 1.83c.25.29.49.59.74.88.3.37-.02-.03-.06-.09.16.2.31.41.46.61 1.02 1.41 1.94 2.9 2.81 4.41s1.64 2.96 2.33 4.51c.07.16.14.32.21.49-.02-.05-.25-.64-.09-.19.12.32.25.64.37.97.28.75.53 1.51.75 2.27.48 1.63.81 3.29 1.08 4.97 0 .06.1.67.03.18s.04.3.05.38c.05.45.1.9.14 1.36.1 1.11.18 2.22.24 3.33.25 4.68 6.78 5.71 8.21 1.11 1.77-5.69 3.85-11.35 4.9-17.23 1.18-6.58.9-13.02-.27-19.59l-6.14 4.72c1.21.56 2.39 1.17 3.52 1.86.47.29.94.59 1.39.91.22.15.43.32.65.47.25.18.17.13-.23-.18.16.13.32.26.47.39.74.63 1.44 1.3 2.09 2.02.19.21.36.42.54.63.61.69-.39-.59-.07-.1.29.44.62.86.9 1.31.43.69.73 1.76 1.26 2.36-.49-.56-.26-.66-.08-.19.07.19.15.39.22.58.17.46.31.93.45 1.41.23.82.41 1.66.56 2.51.02.11.02.54.09.6-.28-.25-.11-.99-.03-.14.05.49.1.97.13 1.46.44 6.71-1.27 13.43-.2 20.1.6 3.74 2.72 7.06 6.04 8.95 1.9 1.08 4.66.51 5.72-1.5s.53-4.56-1.5-5.72Z"/>
  <path d="M488.53 174.99c10.89-10 6.71-22.48 3.47-27.87-2.81-4.68-6.9-11.54-21.17-13.24-11.64-1.39-25.45 7.94-28.1 18.28-1.99 7.78.82 17.69 6.99 22.93 8.68 7.37 26.72 11 38.81-.11ZM377.15 179.47c6.61-6.54 14.66-12.01 23.6-16.03 4.08-1.84 8.47-3.4 13.08-3.54 9.38-.28 17.87 5.54 22.27 12.66s5.49 15.35 6.33 23.37c.11 1.06.2 2.2-.41 3.13-1.43 2.18-5.21 1.62-7.95.77-18.2-5.66-36.39-11.33-54.59-16.99M566.49 176.26c-7.18-7.54-15.93-13.84-25.65-18.47-4.44-2.12-9.2-3.91-14.21-4.07-10.2-.32-19.41 6.39-24.19 14.58s-5.97 17.68-6.87 26.92c-.12 1.22-.22 2.53.45 3.6 1.55 2.51 5.66 1.87 8.64.89 19.77-6.53 39.54-13.05 59.32-19.58" fill="#f0b438" opacity=".6"/>
  <path d="M397.18 196.89c.2 4.19 2.62 8.83 5.56 11.82 6.07 6.15 21.09 5.6 27.62.3 6.23-5.05 7.38-15.05 4.08-22.36-1.77-3.92-4.87-5.42-8.45-7.8-6.33-4.23-17.63-4.75-22.77.86-4.52 4.94-6.48 8.17-6.06 17.19Z" fill="#78c0e7"/>
  <path d="M393 196.89c.35 5.57 3.03 11.35 7.17 15.14 3.45 3.16 7.94 4.54 12.5 5.08 8.87 1.06 19.05-1.44 24.22-9.22 2.66-4 3.78-9.15 3.5-13.9-.3-5.22-1.97-10.78-6.01-14.33-7.21-6.33-17.29-10.28-26.83-7.29-4.99 1.57-8.65 5.23-11.42 9.57s-3.37 9.78-3.14 14.96c.09 2.18 1.86 4.28 4.18 4.18 2.18-.1 4.28-1.84 4.18-4.18-.05-1.09-.07-2.18-.04-3.27.01-.54.04-1.08.09-1.61.02-.22.05-.45.06-.67.04-.55-.15.8 0 0s.29-1.54.52-2.29c.12-.39.29-.77.4-1.17.15-.53-.37.74-.11.26.11-.19.19-.4.29-.6.32-.63.69-1.25 1.09-1.83.17-.25.39-.73.64-.9-.65.44-.31.39-.04.06.16-.19.31-.38.47-.57.54-.63 1.08-1.27 1.66-1.86.28-.29.59-.54.88-.81-.77.72.35-.2.65-.38.36-.21.74-.36 1.09-.57-.87.49.14-.05.46-.15.92-.31 1.86-.51 2.82-.68-.93.17.16-.01.53-.04.45-.03.89-.05 1.34-.05 1.02 0 2.02.06 3.03.17-.96-.11.25.06.55.12.44.09.87.19 1.31.3.95.25 1.89.55 2.8.93-.86-.35.16.1.44.24.37.19.73.39 1.08.6.94.58 1.85 1.2 2.78 1.8.41.26.81.53 1.21.81.22.15 1.23.96.57.39.35.3.71.59 1.04.91.17.16.33.33.48.5.11.12.7.97.24.25.27.42.55.82.78 1.26.12.23.23.47.35.71-.07-.13-.3-.79-.03-.06.36.97.67 1.95.89 2.96.1.45.17.91.26 1.36-.17-.93.03.33.05.62.08 1.04.08 2.09 0 3.14-.02.29-.23 1.58-.04.61-.09.45-.15.91-.26 1.36-.22 1-.53 1.98-.91 2.94.34-.85-.16.3-.29.54-.21.4-.43.79-.67 1.17-.15.23-.91 1.23-.32.52-.32.39-.65.77-1 1.13-.16.16-1.09.8-1.12 1.02.01-.07.84-.59.22-.18-.15.1-.29.2-.44.3-.66.43-1.36.8-2.07 1.14-.14.07-.73.29-.17.08.66-.25-.27.09-.33.12-.38.14-.76.27-1.15.39-.85.26-1.71.48-2.57.65-.42.08-.84.13-1.26.22-.65.14 1.04-.1 0 0-.22.02-.43.05-.65.07-.92.09-1.84.13-2.77.13-1.03 0-2.05-.07-3.07-.16-.78-.07.03 0 .16.03l-.94-.15c-.46-.08-.92-.18-1.37-.29-.93-.23-1.83-.54-2.73-.88 1.08.41-.29-.16-.57-.32-.37-.2-.73-.42-1.08-.65-.15-.1-.3-.22-.45-.31-.42-.27.64.58.11.06-.37-.36-.75-.71-1.1-1.09-.17-.19-.33-.38-.5-.58-.8-.93.41.63-.3-.39-.34-.49-.67-.99-.98-1.51s-.6-1.05-.86-1.6c-.12-.24-.23-.49-.34-.73.31.73-.15-.46-.16-.49-.21-.62-.39-1.25-.53-1.89-.05-.25-.1-.5-.14-.75.13.74 0-.09 0-.38-.14-2.18-1.83-4.29-4.18-4.18-2.15.1-4.33 1.84-4.18 4.18Z"/>
  <path d="M506.65 188.39c-.75 6.39 2.1 12.83 7.62 16.14 4.9 2.94 11.13 4.06 16.24 2.87 11.34-2.63 16.61-13.38 14-22.75-1.88-6.74-7.05-11.01-8.65-11.53-9.17-2.97-17.43-1.85-24.49 5.08-2.31 2.27-4.31 6.58-4.73 10.18Z" fill="#7ea263"/>
  <path d="M502.47 188.39c-.51 4.77.72 9.93 3.49 13.86 3.08 4.37 7.55 7.17 12.65 8.68 9.13 2.69 19.66.27 25.71-7.36 5.65-7.13 6.48-16.6 2.37-24.69-1.75-3.45-4.49-6.81-7.8-8.89-1.6-1.01-3.62-1.46-5.46-1.84-2.46-.52-5.02-.83-7.53-.72-5.7.24-10.86 2.36-15.3 5.9-4.72 3.77-7.36 9.14-8.14 15.07-.29 2.18 2.13 4.27 4.18 4.18 2.51-.11 3.87-1.85 4.18-4.18-.12.95.14-.55.19-.74.11-.45.23-.89.37-1.32s.3-.88.47-1.32c-.25.63 0 0 .05-.11.15-.3.29-.6.44-.89.21-.4.43-.8.67-1.18.13-.21.27-.42.41-.63.03-.05.38-.55.1-.17-.29.41.14-.17.22-.26.15-.17.3-.33.45-.49.38-.39.79-.76 1.2-1.13.36-.32.72-.63 1.1-.92-.52.4.02 0 .11-.07.22-.15.43-.3.65-.45.85-.56 1.73-1.07 2.64-1.51.22-.11.45-.21.68-.31-.07.03-.6.21-.15.07.41-.13.8-.29 1.21-.42.93-.29 1.87-.5 2.82-.67.81-.14.13-.01-.03 0 .24-.02.48-.05.73-.07.43-.03.86-.05 1.28-.06 1-.02 2 .03 2.99.13.19.02.38.04.57.07-.79-.11-.11 0 .04.02.52.1 1.03.19 1.55.3 1 .22 1.96.54 2.95.8.87.23-.67-.43-.36-.17.16.13.38.22.55.33.16.1.78.59.22.13-.6-.49.34.29.48.42.48.43.94.89 1.38 1.37.28.31.54.63.81.94.13.15.42.63-.05-.06.13.19.27.37.4.56.51.74.98 1.52 1.4 2.32.2.39.4.8.58 1.2-.28-.66-.02-.03.02.09.1.32.22.63.32.95.25.79.42 1.58.58 2.39.15.76-.05-.82.03.26.03.41.06.81.07 1.22.02.77-.04 1.52-.09 2.28-.03.43.15.37.03-.21.02.11-.05.34-.08.45-.09.45-.18.9-.29 1.34-.18.69-.41 1.36-.65 2.03-.26.71.01-.04.07-.15-.09.18-.17.37-.26.56a18.468 18.468 0 0 1-1.23 2.14c-.09.14-.75 1.03-.4.58.32-.41-.34.39-.47.54-.32.35-.65.7-.99 1.02-.27.26-.56.5-.83.75-.14.13-.62.49.09-.05-.17.13-.35.26-.53.39-.68.48-1.4.91-2.13 1.3-.2.11-.41.21-.61.3-.12.05-.78.35-.29.14.39-.17-.6.22-.81.3-.93.32-1.88.55-2.84.76-.15.03-.82.12-.02.02l-.58.06c-.45.04-.91.07-1.36.08-1.06.02-2.14-.02-3.19-.17.73.1.03 0-.09-.03-.33-.07-.67-.13-1-.2-.6-.13-1.2-.29-1.79-.47-.53-.16-1.04-.35-1.56-.53-.1-.03-.74-.3-.14-.05-.25-.11-.5-.23-.75-.34-1.06-.51-2.1-1.1-3.05-1.8.6.44-.37-.35-.57-.54-.4-.38-.78-.78-1.14-1.2-.12-.14-.24-.28-.35-.42.49.63-.01-.05-.1-.19-.31-.46-.59-.93-.85-1.41-.12-.22-.22-.43-.33-.65-.17-.34-.16-.39-.02 0-.2-.52-.38-1.03-.54-1.56-.14-.47-.25-.95-.35-1.43-.02-.12-.17-.89-.08-.36.1.56-.04-.44-.05-.55-.09-1.13-.05-2.25.07-3.37.23-2.18-2.09-4.27-4.18-4.18-2.46.11-3.93 1.84-4.18 4.18Z"/>
  <path d="M420.47 191.04c-.23-2.59-3.72-4.22-5.85-2.73-2.13 1.49-1.81 5.33.55 6.44 2.91 1.37 6.45-2.88 4.46-5.41-1.98-2.53-7.04.26-5.84 3.24.54 1.34 3.41.51 2.21-.31" fill="#fff"/>
  <path d="M424.65 191.04c-.05-.52-.1-1.06-.23-1.58s-.36-.97-.57-1.44c-.28-.64-.74-1.2-1.19-1.73s-1.03-.95-1.59-1.34c-.58-.41-1.27-.67-1.93-.93-.34-.13-.69-.22-1.06-.28-.52-.07-1.05-.18-1.58-.18s-1.06.1-1.57.18c-.69.1-1.33.39-1.96.69-.17.08-.33.17-.48.27-.42.29-.85.61-1.22.97s-.63.76-.93 1.15c-.11.15-.22.3-.31.46-.24.44-.43.93-.61 1.4-.07.17-.12.35-.17.53a9.04 9.04 0 0 0 0 4.17c.15.68.45 1.34.76 1.95s.75 1.15 1.2 1.64c.11.12.22.23.35.33.39.33.8.67 1.24.93s.94.44 1.41.62c.17.06.35.12.53.15.49.09 1 .17 1.5.19.53.02 1.06-.09 1.57-.17.67-.1 1.28-.4 1.89-.67.49-.22.88-.53 1.31-.85s.81-.63 1.15-1.03c.88-1.07 1.64-2.2 1.96-3.57.12-.49.17-1 .22-1.5.02-.18.03-.35.02-.53-.04-.66-.11-1.37-.35-2-.41-1.06-.8-1.77-1.56-2.62-.1-.11-.21-.21-.33-.31-.38-.31-.77-.66-1.21-.89-.56-.29-1.18-.58-1.81-.69s-1.35-.24-2.02-.17c-1.38.14-2.61.44-3.82 1.16s-2.09 1.61-2.82 2.74c-.08.13-.16.26-.22.4-.21.44-.42.9-.56 1.36s-.18 1-.23 1.49c-.02.16-.02.32-.01.49.13 1.97.94 3.86 2.73 4.88.89.5 1.78.69 2.79.75.12 0 .25 0 .37-.01.48-.05.99-.08 1.46-.22.87-.26 1.69-.69 2.34-1.34a4.595 4.595 0 0 0 1.19-4.36c-.1-.4-.3-.82-.5-1.18-.42-.76-1.02-1.19-1.7-1.69-.48-.31-1-.47-1.55-.5-.56-.12-1.11-.1-1.67.07-.97.27-2.02 1.02-2.5 1.92-.51.97-.77 2.15-.42 3.22l.42 1c.37.63.87 1.13 1.5 1.5l.05.03-.85-.65c.05.04.1.09.14.14l-.65-.85s.05.06.06.1l-.42-1s.02.06.03.1l-.15-1.11v.06l.15-1.11s-.01.06-.02.09l.42-1s-.03.06-.05.09l.65-.85s-.07.07-.1.11l.85-.65c-.08.06-.17.11-.27.15l1-.42c-.15.06-.3.1-.46.12l1.11-.15c-.19.02-.38.03-.57 0l1.11.15c-.15-.02-.3-.06-.44-.12l1 .42c-.09-.04-.16-.08-.24-.14l.85.65c-.07-.06-.14-.12-.2-.19l.65.85a.887.887 0 0 1-.14-.25l.42 1c-.08-.2-.13-.4-.16-.61l.15 1.11c-.03-.22-.03-.44 0-.65l-.15 1.11c.03-.21.09-.42.17-.62l-.42 1c.11-.27.26-.51.44-.74l-.65.85c.2-.25.43-.48.68-.68l-.85.65c.32-.24.66-.45 1.03-.6l-1 .42c.35-.14.7-.24 1.07-.29l-1.11.15c.29-.04.58-.04.88 0l-1.11-.15c.24.03.47.09.7.18l-1-.42c.21.09.4.2.57.33l-.85-.65c.17.13.31.28.45.44l-.65-.85c.15.2.28.41.37.64l-.42-1c.09.22.15.44.18.68l-.15-1.11c.03.26.03.51 0 .77l.15-1.11c-.05.34-.14.66-.27.97l.42-1c-.15.34-.34.66-.56.96l.65-.85c-.25.32-.53.6-.84.85l.85-.65c-.28.21-.57.39-.88.53l1-.42c-.29.12-.59.21-.9.25l1.11-.15c-.26.03-.52.03-.78 0l1.11.15c-.22-.04-.43-.09-.64-.17l1 .42c-.26-.11-.49-.25-.72-.42l.85.65c-.21-.17-.4-.36-.57-.57l.65.85c-.2-.26-.36-.54-.49-.83l.42 1c-.15-.35-.24-.71-.3-1.09l.15 1.11c-.05-.4-.05-.8 0-1.21l-.15 1.11c.05-.35.14-.68.28-1l-.42 1c.12-.27.27-.52.45-.76l-.65.85c.16-.19.33-.37.53-.52l-.85.65c.21-.16.43-.29.67-.39l-1 .42c.29-.12.58-.2.89-.24l-1.11.15c.31-.03.62-.03.93 0l-1.11-.15c.39.05.77.16 1.13.31l-1-.42c.34.15.66.33.95.55l-.85-.65c.27.21.51.44.72.71l-.65-.85c.19.25.34.51.47.79l-.42-1c.1.24.16.49.2.75l-.15-1.11c0 .05.01.1.02.16-.02.58.1 1.11.36 1.61.17.52.46.97.86 1.35.73.73 1.91 1.27 2.96 1.22s2.2-.4 2.96-1.22c.71-.77 1.34-1.87 1.22-2.96ZM516.87 189.37c-.55 1.61-.39 3.49.44 4.97s2.21 2.37 3.77 2.95c2.23.83 4.99.56 7.23-.05 2.41-.65 4.99-1.94 6.58-3.92 1.12-1.39 1.87-2.85 2.11-4.64.26-1.92-.17-3.68-.96-5.42-1.31-2.87-4.04-4.86-7.14-5.36s-6.82-.1-9.58 1.84c-3.19 2.24-5.11 5.86-4.69 9.82.11 1.02.37 1.96.87 2.85.36.62.82 1.21 1.31 1.74.85.93 1.92 1.59 3.07 2.08 2.38 1.01 5.17.99 7.44-.35 2.55-1.5 3.87-4.3 4.12-7.16.2-2.31-.63-5-2.44-6.52-1.27-1.07-2.74-1.71-4.43-1.71-2 0-3.12.95-4.15 2.41-1.24 1.75-1.86 4-1.31 6.11.39 1.53 1.63 2.98 3.06 3.61 1.07.47 2.05.74 3.22.42.97-.27 2.02-1.02 2.5-1.92.51-.97.77-2.15.42-3.22-.31-.97-.95-2.07-1.92-2.5-.2-.09-.38-.19-.56-.31l.85.65c-.11-.09-.2-.17-.3-.28l.65.85c-.1-.13-.18-.26-.25-.42l.42 1c-.04-.11-.07-.22-.09-.34l.15 1.11c-.02-.2-.02-.39 0-.59l-.15 1.11c.05-.28.13-.55.23-.82l-.42 1c.22-.52.51-1 .85-1.44l-.65.85s.07-.09.11-.13l-2.96 1.22c.24-.02.47-.02.71.02l-1.11-.15c.17.03.34.08.51.14l-1-.42c.2.09.38.19.55.32l-.85-.65c.17.14.32.28.46.45l-.65-.85c.19.26.35.52.47.82l-.42-1c.12.32.21.64.26.98l-.15-1.11c.06.47.06.93.01 1.4l.15-1.11c-.07.5-.2.97-.38 1.43l.42-1c-.18.42-.4.8-.67 1.17l.65-.85c-.19.23-.4.44-.63.63l.85-.65c-.23.17-.47.31-.73.43l1-.42c-.31.13-.61.21-.94.27l1.11-.15c-.38.05-.75.05-1.13.01l1.11.15c-.44-.06-.86-.17-1.27-.34l1 .42c-.42-.18-.8-.41-1.16-.69l.85.65c-.32-.26-.61-.56-.87-.88l.65.85c-.26-.35-.47-.72-.64-1.12l.57 2.11c-.09-.71-.1-1.42 0-2.13l-.15 1.11c.08-.54.22-1.06.43-1.57l-.42 1c.2-.47.46-.91.77-1.32l-.65.85c.36-.45.76-.85 1.22-1.21l-.85.65c.53-.39 1.09-.71 1.7-.97l-1 .42a9.63 9.63 0 0 1 2.24-.6l-1.11.15a9.51 9.51 0 0 1 2.5 0l-1.11-.15c.64.09 1.27.25 1.87.5l-1-.42c.46.2.9.44 1.3.75l-.85-.65c.28.22.52.47.75.74l-.65-.85c.36.48.65 1.02.89 1.57l-.42-1c.19.46.33.94.41 1.43l-.15-1.11c.05.41.06.81.01 1.22l.15-1.11c-.05.38-.15.75-.3 1.11l.42-1c-.17.41-.4.78-.67 1.13l.65-.85c-.34.43-.74.81-1.17 1.15l.85-.65c-.64.49-1.34.88-2.08 1.19l1-.42c-.96.4-1.96.67-2.99.81l1.11-.15c-.78.1-1.57.13-2.35.03l1.11.15a4.75 4.75 0 0 1-1.28-.34l1 .42a3.7 3.7 0 0 1-.61-.35l.85.65a2.16 2.16 0 0 1-.37-.37l.65.85c-.09-.12-.17-.25-.23-.39l.42 1c-.06-.15-.1-.3-.12-.45l.15 1.11c-.02-.2-.02-.39 0-.58l-.15 1.11c.03-.2.08-.39.15-.58.7-2.07-.81-4.66-2.92-5.14-2.32-.53-4.39.7-5.14 2.92Z"/>
</svg>
