<svg xmlns="http://www.w3.org/2000/svg" viewBox="0 0 234.95 489.32">
  <path d="M195.85 69.08c.26 17.63 7.42 55.41 22.17 69.07-.8 1.4-10.31-2.34-14.31-4.39 2.95 10.29 11.29 19.5 11.2 19.99-.27 1.56-8.95 1.36-14.18-4.59-5.75-6.55-4.61-29.42-6.39-39.64-.63-3.66-4.82-21.69-3.97-25.3" fill="#ae3517"/>
  <path d="M193.6 69.08c.15 9.42 1.63 18.88 3.64 28.07 2.26 10.39 5.37 20.81 10.3 30.28 2.33 4.48 5.18 8.85 8.9 12.32l-.35-2.73c.28-.4.9-.97 1.23-.81-.08-.04-.37 0-.45 0-.62-.07.08.04-.35-.04-.22-.04-.44-.09-.66-.14-1.27-.29-2.52-.7-3.76-1.14-2.47-.87-4.9-1.88-7.23-3.06-1.68-.86-3.89.57-3.31 2.54 1.4 4.76 3.71 9.22 6.41 13.36.99 1.53 2.04 3.01 3.12 4.48.56.75 1.1 1.79 1.78 2.43.03.03.04.09.07.12-.53-.45-.23-1.72.13-2.15.05-.06.65-.59.35-.34-.11.09-.4.08.21-.08-.11.03-.75.18-.43.13.38-.07-.21.02-.23.02-.2 0-.4.02-.6.02-1.51 0-2.87-.33-4.45-.91a13.63 13.63 0 0 1-4.82-3.05c-.35-.34-.69-.7-1-1.09.28.36-.13-.21-.21-.34-.19-.29-.36-.6-.52-.91-.09-.17-.42-.9-.33-.69-1.31-3.11-1.85-6.6-2.25-9.93-.5-4.09-.75-8.2-1-12.31-.22-3.67-.39-7.34-.81-10.99-.3-2.6-.82-5.14-1.35-7.7-.79-3.81-1.57-7.62-2.23-11.46-.32-1.86-.56-3.36-.73-5.04-.07-.69-.13-1.38-.14-2.07v-.78c0-.79-.08.22.02-.24.6-2.82-3.73-4.03-4.34-1.2s.12 6.05.56 8.86c.6 3.82 1.37 7.61 2.14 11.39.3 1.48.61 2.95.91 4.43l.27 1.36.12.66.09.56c.01.08.11.8.07.47.51 3.89.67 7.83.9 11.74.26 4.37.53 8.75 1.09 13.1.5 3.85 1.13 7.73 2.72 11.3 1.69 3.79 5.11 6.42 8.88 7.97 2.72 1.12 7.09 2.3 9.82.58 1.55-.98 1.63-2.73.65-4.12s-1.96-2.63-2.9-3.97c-3.21-4.55-6.09-9.44-7.67-14.81l-3.31 2.54c3.03 1.54 6.23 2.85 9.46 3.91 2.37.78 6.14 2.2 7.92-.32.55-.78.33-2.09-.35-2.73-6.59-6.16-10.43-15.18-13.35-23.64-3.37-9.79-5.65-20-7.05-30.26-.61-4.49-1.04-9.05-1.11-13.59-.05-2.89-4.55-2.9-4.5 0Z"/>
  <path d="M72.87 67.17c-.26 17.63-4.98 62.89-19.72 76.55.8 1.4 11.26-1.39 15.26-3.44-2.95 10.29-11.97 18.57-12.15 19.04-1 2.59 8.95 2.32 14.18-3.64 5.75-6.55 8.96-20.3 4.89-46.17-.58-3.67 4.82-21.69 3.97-25.3" fill="#ae3517"/>
  <path d="M70.62 67.17c-.15 9.73-1.13 19.49-2.59 29.11-1.71 11.26-4.02 22.82-8.49 33.32-1.98 4.66-4.42 9.19-7.99 12.53-.67.63-.91 1.94-.35 2.73 1.78 2.53 5.9 1.31 8.38.75 3.39-.78 6.84-1.81 9.95-3.38l-3.31-2.54c-1.41 4.79-4.08 9.17-7.2 13.05a73.943 73.943 0 0 1-3.39 3.9c-.8.86-1.65 1.65-1.7 2.91-.17 4.23 5.81 3.76 8.45 3.19 4.34-.93 8.17-3.4 10.82-6.94 4.12-5.51 5.45-12.77 5.96-19.47.39-5.1.23-10.24-.2-15.33-.27-3.24-.67-6.46-1.13-9.67-.11-.79-.27-1.59-.36-2.39.09.85.03.1.04-.1.01-.28.02-.56.04-.83.01-.14.03-.29.04-.43 0-.07.09-.74.05-.46.51-3.79 1.67-8.42 2.53-12.5.43-2.03.84-4.07 1.13-6.13.23-1.6.48-3.24.14-4.84-.6-2.83-4.94-1.63-4.34 1.2.11.53.04-.52 0 .1-.01.25 0 .5 0 .75a13 13 0 0 1-.06.88c-.02.16-.12 1.04-.06.62-.23 1.72-.57 3.43-.92 5.13-.76 3.74-1.65 7.47-2.35 11.22-.28 1.51-.55 3.03-.66 4.56-.14 1.95.39 3.92.65 5.84.71 5.34 1.17 10.72 1.19 16.11.01 4.02-.21 8.06-.94 11.93-.3 1.6-.69 3.19-1.19 4.74-.22.7-.47 1.38-.74 2.06-.05.13-.1.26-.16.39.19-.44-.08.17-.1.22-.14.3-.28.6-.43.9-.55 1.09-1.19 2.13-1.9 3.13-.34.47.3-.36-.06.08-.07.09-.14.17-.21.26-.25.3-.51.59-.78.87-.72.74-1.51 1.36-2.39 1.9-1.67 1.02-3.52 1.7-5.45 2.03-.45.07-1.17.14-1.88.11-.17 0-.33-.02-.49-.04-.37-.04.52.12-.02-.02-.1-.03-.21-.05-.31-.08-.37-.11.29.32-.02-.02.28.3.6.48.62 1.16 0 .29-.11.58-.22.78-.04.07-.48.51-.2.27.33-.29.62-.67.92-1 1.24-1.34 2.43-2.71 3.56-4.13 3.49-4.41 6.47-9.25 8.07-14.68.58-1.98-1.62-3.39-3.31-2.54-2.22 1.12-5.07 1.97-7.69 2.64-.72.18-1.45.36-2.19.5-.27.06-.54.11-.82.16-.09.02-.96.15-.65.11-.48.06-.96.09-1.45.1-.42.01-.55-.23-.16.01-.6-.37.85.83.77.72l-.35 2.73c3.41-3.19 5.88-7.34 7.84-11.55 2.42-5.19 4.23-10.65 5.7-16.17 3.07-11.51 4.84-23.39 5.95-35.25.47-5.05.81-10.11.89-15.18.05-2.9-4.45-2.9-4.5 0Z"/>
  <path d="M74.78 156.97c-25.45 36.29-30.57 84.52-34.42 103.76-6 30.04-13.6 49.28 3.12 136.11 3.89 20.18 13.18 41.18 16.96 53.35 14.78 47.71 25.62 36.3 29.12 34.23 9.3-5.47-.76-51.59 3.77-63.7 7.34-19.64 28.06-19.64 39.98-20.47 18.27-1.28 31.48 1.13 40.35 19.59 4.22 8.78-3.58 75.61 23.62 56.67 5.86-4.08 24.74-56.64 26-63.67 10.06-55.96 11.77-70.47 6.58-126.21-2.03-21.85-4.22-81.32-35.73-127.87" fill="#fff"/>
  <path d="M72.84 155.84c-12.54 17.97-20.43 38.83-25.83 59.95-3.86 15.08-5.99 30.45-9.08 45.68-1.89 9.32-4.04 18.57-5.31 28-1.65 12.27-1.85 24.65-1.16 37 1.14 20.28 4.26 40.45 7.88 60.42 1.18 6.51 2.33 13.03 3.99 19.43 1.56 6.04 3.45 11.98 5.48 17.88 3.48 10.1 7.29 20.07 10.61 30.23 2.88 8.83 6.11 18 11.26 25.8 2.39 3.61 5.54 7.51 9.89 8.76 5.21 1.49 11.6-2.23 13.53-7.07 2.3-5.76 1.91-12.78 1.74-18.85-.23-7.99-.94-15.96-1.31-23.94-.16-3.49-.28-6.99-.15-10.48.1-2.64.18-4.68 1.04-7.14 2.81-8.05 9.49-13.58 17.46-16.11 6.9-2.19 14.16-2.48 21.33-2.94 8.17-.52 17.06-.57 24.45 3.48 3.57 1.96 6.61 4.78 8.98 8.09 1.47 2.06 2.7 4.25 3.85 6.5.57 1.11 0-.3.28.66.09.31.18.61.25.93.08.37.15.74.21 1.11.03.21.06.41.1.62.04.3-.04-.35.03.23.12 1.01.21 2.02.29 3.03.19 2.55.29 5.1.4 7.65.24 6.04.44 12.09.96 18.12s1.17 11.82 2.94 17.44c1.29 4.11 3.37 8.75 7.43 10.79 4.61 2.32 9.85.28 13.79-2.47 3.49-2.43 5.36-7.3 7.11-11.01 3.09-6.56 5.81-13.29 8.44-20.05s5.26-13.91 7.68-20.94c1.45-4.23 3.09-8.53 4.01-12.92 2.35-11.23 4.07-22.66 5.79-34 1.39-9.17 2.56-18.37 3.2-27.62 1.39-20.16-.02-40.35-1.81-60.43-1.34-15-2.41-30.01-4.65-44.91-3.08-20.51-8.1-40.79-16.18-59.93-4.31-10.19-9.48-20-15.66-29.17-1.61-2.39-5.51-.14-3.89 2.27 12.35 18.31 20.54 39.02 25.91 60.37 4.3 17.08 6.75 34.53 8.31 52.05s3.39 35.73 3.92 53.66-.91 35.72-3.62 53.47c-1.69 11.05-3.35 22.21-5.67 33.15-.93 4.4-2.58 8.72-4.04 12.97-4.65 13.52-9.6 27.09-15.73 40.03-1.07 2.26-2.18 4.52-3.48 6.66-.24.4-.49.8-.76 1.19-.1.15-.21.3-.31.44-.29.41.27-.28-.12.15-.19.21-.39.42-.59.62-.42.44.4-.26.01 0-.36.24-.72.49-1.09.72-1.04.65-2.28 1.32-3.12 1.62-.49.18-.99.34-1.5.46-.25.06-.51.11-.76.15.54-.08-.28.02-.41.02-.43 0-.86 0-1.29-.04.57.06-.64-.18-.92-.26-.49-.15.22.13-.13-.04-.19-.09-.38-.19-.57-.3s-.37-.23-.55-.35c-.45-.29.03.05-.2-.15-.34-.3-.67-.61-.98-.96-.14-.15-.27-.31-.4-.47.12.15-.05-.06-.25-.36a21.55 21.55 0 0 1-1.54-2.79c-.19-.4-.1-.21-.2-.45s-.19-.48-.28-.72c-.23-.61-.44-1.23-.63-1.86-.39-1.26-.71-2.54-1-3.83-1.25-5.7-1.73-11.42-2.09-17.3s-.48-11.49-.78-17.23c-.18-3.59-.11-7.72-1.45-11.11-3.12-7.92-9.58-15.17-17.43-18.56s-16.91-3.4-25.45-2.82c-7.11.48-14.31.82-21.16 2.96-8.23 2.57-15.32 7.79-19.2 15.62-2.87 5.79-2.95 11.98-2.79 18.33.2 7.85.9 15.68 1.28 23.52.32 6.5.83 13.65-.64 19.86-.29 1.22-.57 2.07-.97 2.81-.11.21-.24.41-.37.61-.22.35-.12.17-.1.14-.14.16-.29.31-.44.45-.37.35.3-.18-.22.14-.62.39-1.22.82-1.85 1.2-.41.25-.82.46-1.24.68-.63.33.43-.1-.2.08-.25.07-.49.17-.75.24s-.53.11-.79.16c.74-.15-.03 0-.35 0-.28 0-.55-.02-.83-.04.69.04-.17-.04-.51-.13-.21-.06-.97-.33-.71-.22.2.08-.64-.32-.89-.46-.35-.2-.67-.42-1-.65-.42-.29.15.13-.16-.12l-.63-.54c-1.96-1.77-3.26-3.6-4.65-5.84-5.17-8.35-8.33-17.92-11.25-27.23-3.07-9.8-7.01-19.31-10.28-29.03-2-5.94-3.83-11.93-5.3-18.02s-2.59-12.61-3.72-18.94c-1.97-11-3.74-22.04-5.11-33.12-1.87-15.08-3.1-30.32-2.45-45.53.44-10.21 1.81-19.48 3.85-29.49.92-4.49 1.9-8.97 2.81-13.46 1.29-6.42 2.29-12.89 3.45-19.33 3.47-19.17 8.04-38.24 15.53-56.28 4.12-9.92 9.2-19.47 15.35-28.28 1.66-2.38-2.24-4.63-3.89-2.27Z"/>
  <path d="M68.29 209.68c1.62 6.03.54 4.58 5.05 8.91 14.47 13.87 31.13 73.08 11.31 76.07-9.3 1.4-13.95-19.54-15.04-25.79-2.28-13-19.44-20.78-25.14-25.51" fill="#fff"/>
  <path d="M66.12 210.28c.66 2.47.96 5.07 2.71 7.05 1.61 1.82 3.52 3.33 5.07 5.22.08.1.16.2.23.29.21.26-.21-.28 0 0 .16.21.31.42.47.63.34.47.67.94.99 1.42.67 1 1.3 2.02 1.91 3.05 1.35 2.31 2.56 4.71 3.68 7.14 4.85 10.54 8.5 22.79 9.83 34.23.31 2.68.5 5.38.48 8.08-.02 2.54-.17 4.58-.6 6.69-.21.99-.47 1.98-.81 2.93-.08.22-.16.43-.25.65.18-.47-.04.08-.11.24-.2.42-.41.82-.65 1.22-.11.18-.22.36-.34.53-.04.06-.44.6-.23.33s-.21.24-.26.29a7 7 0 0 1-.46.48c-.14.14-.29.26-.43.4-.43.41.18-.09-.12.1-.35.22-.69.44-1.06.64-.09.05-.18.08-.26.13-.27.14.41-.16.13-.05-.19.07-.37.14-.56.2-.42.13-.85.24-1.28.31.55-.09-.19 0-.36.01-.14 0-.87-.06-.37.01-.25-.04-.5-.1-.75-.17l-.36-.12c-.57-.2.37.21-.17-.08-.23-.12-.46-.25-.69-.39-.12-.08-.66-.49-.37-.26-.45-.37-.86-.78-1.25-1.21-.78-.86-1.46-1.92-2.15-3.14-2.71-4.85-4.23-10.46-5.4-15.94-.57-2.66-1-5.23-2.14-7.74-1.44-3.18-3.71-5.99-6.18-8.43-4.63-4.56-10.2-7.91-15.56-11.52-.48-.33-.96-.65-1.44-.99-.21-.15-.43-.31-.64-.47-.27-.21.27.21.01.01-.12-.09-.23-.18-.34-.28-.94-.77-2.26-.92-3.18 0-.8.8-.94 2.41 0 3.18 4.63 3.81 10.05 6.54 14.7 10.34 2.63 2.15 5.17 4.55 7.06 7.4 1.68 2.54 2.47 5.14 3.04 8.09 1.11 5.72 2.69 11.46 5.21 16.73 2.34 4.91 6.38 10.35 12.52 9.29 9.71-1.68 10.84-14.05 10.54-21.89-.47-12.39-3.84-24.86-8.42-36.33-2.11-5.27-4.5-10.49-7.59-15.26-1.25-1.93-2.62-3.81-4.2-5.5-.97-1.03-2.04-1.96-3.05-2.96-.19-.19-.38-.38-.56-.58-.15-.16-.44-.6-.16-.16-.11-.17-.21-.37-.33-.54-.23-.33.07.33-.07-.2-.39-1.43-.73-2.86-1.11-4.29-.75-2.8-5.09-1.61-4.34 1.2Z"/>
  <path d="M186.36 215.78c-8.08 9.51-17.06 26.76-17.89 39.22-.46 6.93-9.17 36.41 2.47 39.15 15.02 3.53 15.43-14.14 21.38-25.85 8.9-17.51 27.01-40.83 26.56-51.18" fill="#fff"/>
  <path d="M184.76 214.19c-5.09 6.03-9.23 12.89-12.53 20.05-1.73 3.77-3.26 7.65-4.38 11.64-.9 3.2-1.34 6.41-1.69 9.71l-.06.54c.06-.52.01-.11-.03.15-.07.45-.14.9-.22 1.35-.18 1.04-.37 2.07-.57 3.1-.48 2.56-.96 5.13-1.37 7.7-.87 5.41-1.67 11.04-1.09 16.53.49 4.61 2.11 9.64 6.97 11.22 2.7.88 6.01.99 8.71.1s4.78-2.66 6.45-4.89c3.48-4.66 4.91-10.67 6.85-16.06 2.31-6.45 5.88-12.34 9.43-18.18 4.04-6.67 8.28-13.22 12.17-19.98 2.96-5.15 6.26-10.75 7.4-16.65.21-1.11.36-2.24.33-3.37-.09-2.89-4.59-2.9-4.5 0 .01.43 0 .85-.03 1.28 0 .13-.02.26-.04.39.01-.09.07-.45 0 0-.05.28-.1.55-.16.83-.25 1.15-.6 2.29-1 3.4-.95 2.63-2.23 5.19-3.58 7.71-3.39 6.37-7.28 12.47-11.08 18.61-3.75 6.07-7.66 12.15-10.74 18.59-2.47 5.16-3.88 10.94-6.07 16.07-.97 2.26-2.14 4.49-3.71 6.06-1.42 1.42-3.18 2.22-5.19 2.29-1.3.05-2.59-.1-3.85-.47-.11-.03-.65-.23-.41-.13.26.11-.28-.15-.36-.19-.2-.11-.39-.24-.58-.37.39.28-.06-.06-.2-.2s-.28-.29-.42-.44c-.37-.4.08.16-.13-.17-.27-.41-.51-.83-.73-1.27-.17-.34.08.25-.11-.26-.08-.22-.16-.44-.23-.66a17.094 17.094 0 0 1-.56-2.38c-.02-.1-.12-.79-.07-.41-.08-.59-.12-1.18-.16-1.77a39.72 39.72 0 0 1-.04-3.78c.08-2.55.37-5.38.69-7.72.65-4.65 1.64-9.24 2.41-13.86.35-2.1.44-4.23.8-6.32.62-3.59 1.69-7.1 2.97-10.51 2.7-7.16 6.45-14.02 10.91-20.24.95-1.32 1.94-2.61 2.99-3.85.78-.93.91-2.27 0-3.18-.8-.8-2.39-.93-3.18 0Z"/>
  <path d="M79.11 173.79a677.122 677.122 0 0 1-4.06-63.01c-.39-21.63.13-44-8.25-63.94 7.16 1.91 25.75 10.12 28.44 10.53 2.32.36 20.09-4.96 32.84-5.8 27.59-1.82 42.86 3.95 43.85 3.99 1.13.05 2.21-.43 3.24-.89 6.44-2.92 22.79-10.09 29.23-13.01-2.21 7.93-12.07 31.39-13.15 33.76-3.08 6.75-1.1 14.6.62 21.81 6.79 28.36 7.37 49.01-3.05 76.25" fill="#fff"/>
  <path d="M81.36 173.79c-1.93-17.41-3.2-34.9-3.79-52.41-.55-16.33.05-32.79-2.03-49.03-1.14-8.95-3.1-17.77-6.58-26.12L66.19 49c8.91 2.41 17.29 6.63 25.95 9.76 1.1.4 2.25.87 3.44.87 1.59 0 3.25-.45 4.8-.78 5.54-1.17 11.04-2.51 16.6-3.54 12.81-2.36 26.15-2.47 39.06-.78 3.73.49 7.53 1.2 11.22 2.12 1.99.5 4.01 1.39 6.08 1.02 2.38-.43 4.81-1.91 7.02-2.9 2.46-1.1 4.92-2.19 7.38-3.28 5.02-2.22 10.03-4.43 15.04-6.67.91-.41 1.82-.81 2.72-1.22l-3.31-2.54c-1.79 6.37-4.42 12.55-6.88 18.69a869.89 869.89 0 0 1-3.91 9.55l-.75 1.8c-.25.6.11-.26-.04.09l-.18.42c-.11.25-.22.51-.32.76-.27.63-.54 1.25-.82 1.88-2.23 5.09-2.22 10.39-1.32 15.8.95 5.68 2.57 11.24 3.7 16.89 2.03 10.16 3.24 20.49 2.77 30.85-.55 12.09-3.54 23.84-7.83 35.11-.43 1.14.48 2.47 1.57 2.77 1.27.35 2.33-.43 2.77-1.57 3.89-10.22 6.68-20.81 7.68-31.72s.15-20.75-1.57-30.98c-.93-5.53-2.17-11-3.46-16.46-1.23-5.17-2.57-10.79-1.21-16.07.57-2.23 1.67-4.36 2.56-6.48 1.23-2.93 2.44-5.86 3.64-8.8 2.84-6.99 5.9-14.04 7.95-21.32.57-2.04-1.6-3.31-3.31-2.54-9.26 4.19-18.59 8.22-27.86 12.39-1.09.49-2.15.84-3.27 1.2-.57.19.45.16.21.05-.09-.04-.2-.05-.3-.08-.79-.23-1.58-.44-2.37-.65a98.13 98.13 0 0 0-10.17-2.11c-12.58-1.95-25.69-2.26-38.3-.45-6.03.87-11.98 2.2-17.92 3.53-2.1.47-4.2.97-6.32 1.35-.17.03-.35.06-.53.09-.09.02-.62.09-.24.04.32-.04-.39.03-.56.04-.56.05-.02 0 .05.04-.15-.1-.46-.12-.64-.17-3.81-1.13-7.5-2.81-11.18-4.28-4.61-1.84-9.22-3.72-13.94-5.29-.84-.28-1.68-.54-2.53-.77-1.49-.4-3.46 1.12-2.77 2.77 6.12 14.68 7.46 30.61 7.88 46.35.22 8.21.23 16.43.47 24.64.25 8.71.68 17.42 1.27 26.12.66 9.77 1.54 19.52 2.62 29.24.13 1.21.94 2.25 2.25 2.25 1.11 0 2.38-1.03 2.25-2.25Z"/>
  <path d="M132.26 123.66c-1.87-1.68-3.79-3.31-5.58-5.08-1.61-1.6-3.42-3.4-4.31-5.54l-1.57 2.77c6.28-1.95 13.06-2.22 19.59-2.46.35-.01.74 0 1.09-.03.78-.09.31.15.21-.19.01.05-.14.69-.24.94-.59 1.41-1.87 2.63-2.93 3.69-2.43 2.44-5.31 4.31-8.47 5.67-.93.4-1.24 1.66-1.03 2.54.97 4.21 1.24 8.49.89 12.79l2.25-2.25c-3.4.12-6.3 1.96-9 3.87-2.5 1.76-5.07 4-8.17 4.51-1.2.2-1.87 1.68-1.57 2.77.35 1.27 1.56 1.77 2.77 1.57 3.14-.52 5.83-2.53 8.36-4.33 2.2-1.57 4.8-3.79 7.62-3.88 1.29-.04 2.15-1 2.25-2.25.38-4.69 0-9.4-1.05-13.99l-1.03 2.54c3.98-1.71 7.6-4.3 10.48-7.54 1.29-1.45 2.58-3 3.12-4.9.57-2 .15-4.29-1.75-5.42-1.79-1.06-4.31-.59-6.3-.5s-3.95.22-5.91.4c-4.15.37-8.36.88-12.34 2.12-1.05.33-2.05 1.61-1.57 2.77 2.2 5.26 6.92 8.89 11.05 12.6 2.15 1.93 5.34-1.24 3.18-3.18Z"/>
  <path d="M132.31 140.99c.46.03-.48-.12-.05-.01l.42.09c.29.08.57.18.85.29-.56-.21-.08-.03.04.03.15.07.3.15.44.22.31.16.6.34.9.52 1.32.81 2.55 1.75 3.79 2.67 2.39 1.78 4.95 3.73 8.04 3.96 1.18.09 2.3-1.1 2.25-2.25-.06-1.29-.99-2.16-2.25-2.25-.46-.03.48.12.05.01l-.42-.09c-.29-.08-.57-.18-.85-.29.56.21.08.03-.04-.03-.15-.07-.3-.15-.44-.22-.31-.16-.6-.34-.9-.52-1.32-.81-2.55-1.75-3.79-2.67-2.39-1.78-4.95-3.73-8.04-3.96-1.18-.09-2.3 1.1-2.25 2.25.06 1.29.99 2.16 2.25 2.25ZM160.04 118.13a493.79 493.79 0 0 1 61.54-9.55c1.21-.11 2.25-.96 2.25-2.25 0-1.13-1.03-2.36-2.25-2.25-16.39 1.5-32.71 3.78-48.88 6.86-4.63.88-9.25 1.84-13.86 2.85-2.83.62-1.63 4.96 1.2 4.34ZM160.33 124.63c17.05-.58 34.11-.28 51.13.89 2.89.2 2.88-4.3 0-4.5a498.363 498.363 0 0 0-51.13-.89c-2.89.1-2.9 4.6 0 4.5ZM103.86 119.99c-15.34.94-30.69 1.76-46.02 2.86-4.05.29-8.1.61-12.15.96-1.21.11-2.25.96-2.25 2.25 0 1.13 1.03 2.36 2.25 2.25 15.31-1.35 30.66-2.2 46-3.1 4.06-.24 8.11-.48 12.17-.73 2.88-.18 2.9-4.68 0-4.5ZM94.58 112.47c-8.2.45-16.43.6-24.65.27-8.11-.33-16.26-1.1-24.16-3.04-2.81-.69-4.01 3.65-1.2 4.34 8.14 2 16.57 2.82 24.93 3.18 8.36.36 16.73.2 25.08-.25 2.88-.16 2.9-4.66 0-4.5Z"/>
  <path d="M92.21 101.18c.48 2.2 2.41 4.75 3.99 6.36 3.27 3.31 11.35 3.01 14.87.16s3.97-6.1 2.2-10.04c-.95-2.11-2.6-3.08-4.55-3.74-3.88-1.32-11.03-3.52-14.25-1-2.35 1.83-3.17 4.13-2.26 8.25Z" fill="#78c0e7"/>
  <path d="M90.04 101.78c.68 2.77 2.56 5.38 4.57 7.35 1.62 1.59 3.82 2.47 6.04 2.81 4.73.73 10.19-.23 13.42-4.03 1.89-2.21 2.69-4.9 2.27-7.78s-1.78-5.46-4.18-7.06c-1.93-1.29-4.46-1.9-6.68-2.5-2.43-.65-5.05-1.2-7.57-1.02-2.87.2-5.28 1.42-6.92 3.82s-1.54 5.59-.95 8.41c.25 1.19 1.65 1.88 2.77 1.57 1.23-.34 1.82-1.57 1.57-2.77-.2-.96-.32-1.9-.26-2.88.03-.55.29-1.29.57-1.77.16-.28.86-1.02 1.11-1.2.53-.38 1.28-.6 1.86-.66 3.55-.4 7.46.89 10.75 2.12 1.69.63 2.68 1.71 3.24 3.48s.5 3.3-.54 4.79c-.99 1.41-2.11 2.11-3.54 2.58-1.69.56-3.16.71-4.96.62-.88-.05-1.68-.18-2.64-.48-.53-.17-.49-.14-.94-.38-.21-.11-.41-.23-.61-.35-.06-.04-.55-.43-.28-.19-1.65-1.42-3.22-3.54-3.74-5.67-.69-2.81-5.03-1.62-4.34 1.2Z"/>
  <path d="M152.13 96.61c-.4 3.44 1.13 6.91 4.1 8.68 2.64 1.58 6.99 2.19 9.74 1.55 6.11-1.42 8.84-7.64 7.44-12.68-1.01-3.63-2.14-4.88-2.98-5.23-5.24-2.2-15.21 2.49-14.86 2.3-2.5 1.28-3.22 3.43-3.45 5.37Z" fill="#7ea263"/>
  <path d="M149.88 96.61c-.27 2.73.47 5.58 2.12 7.79s4.04 3.6 6.72 4.31c5 1.32 10.71.62 14.21-3.53 3.2-3.81 3.8-8.79 2.08-13.39-.68-1.82-1.61-3.87-3.44-4.79s-4.28-1.02-6.36-.79c-2.36.26-4.67.82-6.91 1.58-.8.27-1.58.56-2.36.88-.38.16-.78.3-1.15.48-.59.29-.55-.1.79-.16l1.14 4.19c-.76-1.3-1.51-2.6-2.27-3.89-2.86 1.55-4.16 4.19-4.56 7.31-.15 1.21 1.14 2.25 2.25 2.25 1.34 0 2.09-1.04 2.25-2.25-.04.3.04-.21.06-.26.05-.21.09-.41.15-.62.12-.43.14-.51.36-.92.41-.74.99-1.21 1.77-1.63 2.55-1.38.28-5.26-2.27-3.89-1.94 1.05-1.08 4.29 1.14 4.2.53-.02.95-.22 1.41-.43s-.52.2.03-.01c.28-.11.55-.22.83-.33 1.44-.55 2.9-1.04 4.39-1.42 1.8-.46 3.18-.74 5.01-.71.16 0 .33 0 .49.02 0 0 .78.07.36.02.38.05.76.14 1.12.25.14.04.28.09.42.14-.5-.19-.16-.07-.04 0 .29.19-.13-.09-.15-.12.13.16.3.29.43.45-.32-.39.25.45.33.59.18.33.33.68.47 1.03.22.58.41 1.18.57 1.78.04.16.09.33.12.49.04.16.07.33.1.5a.833.833 0 0 0 0 .03c.19 1.61-.05 3.16-.67 4.48-1.6 3.43-4.9 4.85-8.62 4.52-2.02-.17-4.33-.77-5.83-2.21-1.65-1.58-2.19-3.75-1.97-5.97.12-1.21-1.12-2.25-2.25-2.25-1.32 0-2.13 1.04-2.25 2.25Z"/>
  <path d="M101.75 98.55c.12 1.39 2 2.27 3.15 1.47s.97-2.87-.29-3.46c-1.57-.74-3.47 1.55-2.4 2.91s3.79-.14 3.14-1.74c-.29-.72-1.83-.27-1.19.17" fill="#fff"/>
  <path d="M99.5 98.55c.03.28.05.57.12.85s.19.52.3.77c.15.35.4.65.64.93s.56.51.85.72c.31.22.68.36 1.04.5.19.07.37.12.57.15.28.04.56.1.85.1s.57-.05.85-.09c.37-.05.72-.21 1.05-.37.09-.04.18-.09.26-.15.23-.16.46-.33.66-.52s.34-.41.5-.62c.06-.08.12-.16.16-.25.13-.24.23-.5.33-.75.04-.09.07-.19.09-.29.18-.76.17-1.49 0-2.24-.08-.36-.24-.72-.41-1.05s-.4-.62-.64-.88a4.669 4.669 0 0 0-.86-.68 4.261 4.261 0 0 0-1.05-.41c-.26-.05-.54-.09-.81-.1-.28 0-.57.05-.85.09-.36.05-.69.21-1.02.36-.26.12-.48.28-.7.46s-.44.34-.62.56c-.48.57-.88 1.18-1.05 1.92-.06.26-.09.54-.12.81 0 .09-.01.19 0 .28.02.35.06.74.19 1.08.22.57.43.95.84 1.41.05.06.11.11.18.17.2.17.41.35.65.48.3.16.63.31.97.37s.72.13 1.09.09c.74-.08 1.4-.24 2.06-.62s1.13-.87 1.52-1.47c.05-.07.08-.14.12-.22.11-.24.23-.48.3-.73s.1-.54.12-.8c0-.09.01-.17 0-.26-.07-1.06-.5-2.08-1.47-2.62-.48-.27-.96-.37-1.5-.4h-.2c-.26.02-.53.04-.78.12-.47.14-.91.37-1.26.72-.61.61-.86 1.51-.64 2.35.05.21.16.44.27.64.23.41.55.64.92.91.26.16.54.25.84.27.3.07.6.05.9-.04.52-.14 1.09-.55 1.34-1.03.28-.52.41-1.15.23-1.73l-.23-.54c-.2-.34-.47-.61-.81-.81l-.03-.02.46.35s-.05-.05-.08-.07l.35.46s-.02-.03-.03-.05l.23.54s-.01-.03-.02-.05l.08.6v-.03l-.08.6s0-.03.01-.05l-.23.54s.02-.03.03-.05l-.35.46.06-.06-.46.35s.09-.06.14-.08l-.54.23c.08-.03.16-.05.25-.07l-.6.08c.1-.01.2-.01.31 0l-.6-.08c.08.01.16.03.24.06l-.54-.23s.09.04.13.07l-.46-.35s.07.06.11.1l-.35-.46s.06.09.08.13l-.23-.54c.04.11.07.21.09.33l-.08-.6c.01.12.01.23 0 .35l.08-.6c-.02.12-.05.23-.09.34l.23-.54c-.06.14-.14.27-.24.4l.35-.46a1.8 1.8 0 0 1-.37.36l.46-.35c-.17.13-.36.24-.56.32l.54-.23c-.19.08-.38.13-.58.16l.6-.08c-.16.02-.31.02-.47 0l.6.08c-.13-.02-.25-.05-.38-.1l.54.23c-.11-.05-.21-.11-.31-.18l.46.35c-.09-.07-.17-.15-.24-.24l.35.46c-.08-.11-.15-.22-.2-.34l.23.54c-.05-.12-.08-.24-.1-.37l.08.6c-.02-.14-.01-.28 0-.41l-.08.6c.03-.18.07-.35.14-.52l-.23.54c.08-.18.18-.36.3-.52l-.35.46c.13-.17.28-.32.45-.46l-.46.35c.15-.11.31-.21.48-.28l-.54.23c.16-.07.32-.11.48-.14l-.6.08c.14-.02.28-.02.42 0l-.6-.08c.12.02.23.05.34.09l-.54-.23c.14.06.27.13.39.22l-.46-.35c.11.09.22.19.31.31l-.35-.46c.11.14.19.29.26.45l-.23-.54c.08.19.13.38.16.59l-.08-.6c.03.22.03.43 0 .65l.08-.6c-.03.19-.08.37-.15.54l.23-.54c-.07.15-.14.28-.24.41l.35-.46c-.08.1-.18.2-.28.28l.46-.35c-.11.08-.23.16-.36.21l.54-.23c-.15.06-.31.11-.48.13l.6-.08c-.17.02-.33.02-.5 0l.6.08c-.21-.03-.41-.08-.61-.17l.54.23c-.18-.08-.35-.18-.51-.3l.46.35c-.14-.11-.27-.24-.39-.38l.35.46c-.1-.13-.18-.27-.25-.43l.23.54c-.05-.13-.09-.26-.11-.4l.08.6v-.08c.01-.31-.05-.6-.19-.87-.09-.28-.25-.52-.47-.72-.39-.39-1.03-.68-1.59-.66s-1.19.22-1.59.66c-.38.41-.72 1.01-.66 1.59ZM157.63 96.21c-.29.87-.21 1.88.24 2.67s1.19 1.28 2.03 1.59c1.2.44 2.69.3 3.89-.02 1.3-.35 2.68-1.05 3.54-2.11.6-.75 1.01-1.53 1.14-2.5.14-1.03-.09-1.98-.52-2.92-.7-1.54-2.17-2.61-3.84-2.88s-3.67-.05-5.16.99c-1.72 1.21-2.75 3.15-2.52 5.29.06.55.2 1.06.47 1.54.19.34.44.65.7.94.46.5 1.03.86 1.65 1.12 1.28.54 2.78.53 4-.19 1.37-.81 2.08-2.31 2.22-3.85.11-1.24-.34-2.69-1.31-3.51-.68-.57-1.48-.92-2.38-.92-1.07 0-1.68.51-2.23 1.3-.67.94-1 2.15-.71 3.29.21.82.87 1.6 1.65 1.94.57.25 1.1.4 1.73.23.52-.14 1.09-.55 1.34-1.03.28-.52.41-1.15.23-1.73-.17-.52-.51-1.11-1.03-1.34-.11-.05-.21-.1-.3-.17l.46.35c-.06-.05-.11-.09-.16-.15l.35.46a.98.98 0 0 1-.13-.22l.23.54c-.02-.06-.04-.12-.05-.18l.08.6a1.71 1.71 0 0 1 0-.32l-.08.6c.03-.15.07-.3.13-.44l-.23.54c.12-.28.27-.54.46-.78l-.35.46s.04-.05.06-.07l-1.59.66c.13-.01.25 0 .38 0l-.6-.08c.09.02.18.04.27.08l-.54-.23c.11.05.2.1.3.17l-.46-.35c.09.07.17.15.25.24l-.35-.46c.1.14.19.28.25.44l-.23-.54c.07.17.11.34.14.53l-.08-.6c.03.25.03.5 0 .75l.08-.6c-.04.27-.11.52-.2.77l.23-.54c-.1.22-.21.43-.36.63l.35-.46c-.1.13-.21.24-.34.34l.46-.35c-.12.09-.25.17-.39.23l.54-.23c-.17.07-.33.12-.51.15l.6-.08c-.2.03-.41.03-.61 0l.6.08c-.24-.03-.46-.09-.68-.18l.54.23c-.22-.1-.43-.22-.63-.37l.46.35c-.17-.14-.33-.3-.47-.48l.35.46a2.98 2.98 0 0 1-.34-.6l.31 1.14c-.05-.38-.05-.77 0-1.15l-.08.6c.04-.29.12-.57.23-.85l-.23.54c.11-.25.25-.49.41-.71l-.35.46c.19-.24.41-.46.66-.65l-.46.35c.28-.21.59-.38.91-.52l-.54.23c.39-.16.79-.26 1.2-.32l-.6.08c.45-.06.9-.06 1.34 0l-.6-.08c.35.05.68.14 1 .27l-.54-.23c.25.11.48.24.7.4l-.46-.35c.15.12.28.25.4.4l-.35-.46c.2.26.35.55.48.85l-.23-.54c.1.25.18.5.22.77l-.08-.6c.03.22.03.44 0 .66l.08-.6c-.03.21-.08.4-.16.59l.23-.54c-.09.22-.21.42-.36.61l.35-.46c-.18.23-.4.44-.63.62l.46-.35c-.34.26-.72.47-1.12.64l.54-.23c-.51.21-1.05.36-1.61.44l.6-.08c-.42.05-.85.07-1.27.01l.6.08c-.24-.03-.47-.09-.69-.18l.54.23c-.12-.05-.22-.11-.33-.19l.46.35c-.07-.06-.14-.12-.2-.2l.35.46a.878.878 0 0 1-.12-.21l.23.54c-.03-.08-.05-.16-.06-.24l.08.6c-.01-.11 0-.21 0-.31l-.08.6c.02-.11.04-.21.08-.31.38-1.12-.43-2.51-1.57-2.77-1.25-.28-2.36.38-2.77 1.57Z"/>
  <path d="M32.27 301.58c1.02-1.65 13.34 3.16 26.57 7.05 55.87 16.4 119.5 17.95 172.09-7.05 1.52 4.23 1.52 7.57 1.24 20.05-18.03 1.12-44.81 18.24-55.97 32.44-11.16 14.2-11.81 25.95-23.48 39.73-7.69 9.08-14.24 7.37-21.43 7.43-14.32.12-19.59-20.47-24.15-32.18-6.19-15.9-26.1-34.21-41.17-42.2-10.04-5.31-22-5.22-33.69-6.87 0 0-4.74-10.7 0-18.4Z" fill="#bd9547"/>
  <path d="M34.25 302.74c-.48.66-.49.62-.99.79.23-.08.43.03-.18.01.3.01.6 0 .9.03.6.05-.51-.1.15.02l.64.12c.58.12 1.16.26 1.74.41 2.74.71 5.43 1.58 8.12 2.44 6.83 2.18 13.65 4.36 20.58 6.22 13.35 3.58 26.94 6.25 40.66 7.99 27.46 3.48 55.55 3.03 82.69-2.66 15.02-3.15 29.66-7.99 43.53-14.57l-3.36-1.37c.36 1 .65 2.03.86 3.08.06.3.1.59.15.89.06.34-.05-.4 0-.05l.06.48c.07.68.12 1.36.16 2.04.22 4.32.03 8.67-.06 13l2.29-2.29c-8.52.57-16.73 3.77-24.3 7.55-8.37 4.19-16.26 9.44-23.38 15.51s-12.91 13.16-17.34 21.4c-4.74 8.82-8.14 18.26-14.32 26.26-2.87 3.71-6.19 7.29-10.89 8.47-3.39.85-7.11.43-10.65.42-2.99-.01-5.77-1.1-8.01-3.05-2.68-2.33-4.59-5.27-6.25-8.4-3.38-6.37-5.28-13.31-8.04-19.94-3.56-8.57-9.54-16.04-15.96-22.65-6.62-6.81-14.09-13-22.22-17.93-4.21-2.56-8.65-4.56-13.44-5.77-5.37-1.36-10.92-1.92-16.42-2.5-2.69-.28-5.39-.55-8.07-.93l1.37 1.05c.07.15.23.6 0 0a28.77 28.77 0 0 1-1.5-5.46c-.63-3.6-.4-7.44 1.49-10.63 1.51-2.53-2.44-4.84-3.95-2.31-2.68 4.5-2.83 9.87-1.82 14.89.3 1.5.72 2.98 1.25 4.42.16.44.32.94.54 1.34.75 1.33 2.44 1.26 3.78 1.43 5.96.76 11.97 1.13 17.88 2.2 5.49 1 10.59 2.72 15.42 5.54 8.94 5.22 17.03 12.05 24.08 19.61 3.47 3.73 6.7 7.7 9.43 12 2.29 3.61 3.97 7.39 5.42 11.39 2.85 7.84 5.55 16.07 10.78 22.69 2.39 3.03 5.44 5.54 9.13 6.79 1.95.66 3.97.77 6.01.79s4 .14 6 .07c4.9-.17 9.26-1.78 13.01-4.98 4.54-3.88 8.08-9.3 10.98-14.47 5.46-9.74 9.05-20.36 16.19-29.12 5.91-7.25 13.51-13.18 21.35-18.2 8.23-5.27 17.25-9.9 26.84-12.06 1.89-.42 3.7-.72 5.62-.84 1.25-.08 2.26-.98 2.29-2.29.1-4.4.3-8.83.05-13.23-.14-2.53-.52-5.03-1.37-7.42-.52-1.47-1.96-2.03-3.36-1.37-24.96 11.83-52.48 17.58-80 18.63-27.79 1.06-55.67-2.5-82.53-9.63-7.73-2.05-15.33-4.52-22.95-6.93-2.74-.87-5.49-1.79-8.31-2.36-2.03-.41-4.3-.78-5.69 1.12-.73 1-.17 2.55.82 3.13 1.16.68 2.4.18 3.13-.82Z"/>
  <path d="M41.35 313.37c.24.05.5.08.74.1h.15c.22-.02.44-.05.66-.09.02 0 .05 0 .07-.01.05-.01.1-.03.15-.05.24-.09.56-.2.79-.36.19-.14.39-.28.56-.44l.12-.12c.16-.18.3-.37.44-.56.03-.05.06-.09.09-.14.03-.04.05-.09.07-.14.1-.22.2-.44.28-.67.07-.2.09-.4.11-.6s.06-.39.04-.59-.05-.52-.11-.75c0-.03-.02-.05-.03-.08-.07-.2-.16-.41-.25-.61-.02-.05-.05-.1-.08-.15-.12-.18-.26-.35-.4-.52a1.707 1.707 0 0 0-.81-.55c-.27-.14-.57-.21-.88-.2-.31-.01-.61.05-.88.2-.28.09-.53.25-.74.47l-.36.46c-.21.36-.31.74-.31 1.15l.08.61c.11.39.3.72.59 1.01.03.03.05.05.07.08l-.36-.46c.05.06.09.13.12.2l-.23-.55c.04.09.06.17.07.27l-.08-.61c.01.1.01.2 0 .3l.08-.61c-.02.12-.05.25-.1.36l.23-.55c-.05.12-.12.24-.2.35l.36-.46c-.07.09-.15.18-.25.25l.46-.36c-.08.06-.16.11-.26.15l.55-.23a.84.84 0 0 1-.26.07l.61-.08h-.24l.61.08s-.06 0-.09-.02c-.3-.1-.61-.11-.91-.04-.3.01-.59.1-.85.27-.27.14-.48.34-.64.59-.2.22-.34.48-.41.78l-.08.61c0 .41.11.8.31 1.15l.36.46c.29.28.62.48 1.01.59ZM119.01 351.88c2.94 0 2.95-4.57 0-4.57s-2.95 4.57 0 4.57ZM135.98 339.46c2.94 0 2.95-4.57 0-4.57s-2.95 4.57 0 4.57ZM169.24 341.93c.07-.5.16-1 .13-1.51s-.08-1.03-.24-1.51c-.11-.31-.23-.62-.39-.91s-.38-.56-.59-.81c-.08-.1-.17-.19-.27-.27-.24-.19-.5-.42-.78-.57-.61-.32-1.14-.46-1.83-.51-.65-.05-1.28.16-1.85.44-.04.02-.08.04-.12.07-.19.13-.39.28-.57.44-.22.2-.39.45-.55.69s-.25.52-.35.79-.13.64-.15.9c-.02.22.01.41.04.64.02.15.03.31.07.46.06.23.18.45.27.67.02.05.05.1.08.15.13.2.28.4.44.57s.37.31.56.44c.05.04.11.07.17.1.26.17.55.26.85.27.3.07.61.05.91-.04.3-.07.56-.21.78-.41.25-.16.45-.38.59-.64.28-.53.42-1.17.23-1.76-.18-.54-.52-1.11-1.05-1.37-.06-.03-.11-.06-.17-.1l.46.36-.13-.13.36.46c-.05-.07-.09-.14-.13-.22l.23.55a.887.887 0 0 1-.07-.28l.08.61c-.01-.11-.01-.22 0-.33l-.08.61c.02-.12.05-.24.1-.36l-.23.55c.04-.09.09-.18.15-.26l-.36.46c.06-.07.12-.13.19-.19l-.46.36c.08-.06.16-.11.25-.15l-.55.23c.1-.04.21-.07.31-.09l-.61.08c.14-.02.27-.02.41 0l-.61-.08c.15.02.3.06.44.12l-.55-.23c.16.07.3.15.44.26l-.46-.36c.12.1.23.21.33.33l-.36-.46a2 2 0 0 1 .28.49l-.23-.55c.09.23.15.47.19.71l-.08-.61c.05.38.04.77 0 1.15l.08-.61s0 .07-.01.1c-.1.3-.11.61-.04.91.01.3.1.59.27.85.14.27.34.48.59.64.22.2.48.34.78.41.59.13 1.24.1 1.76-.23l.46-.36c.28-.29.48-.62.59-1.01ZM191.26 322.42c.12-.04.25-.07.37-.09l-.61.08c.18-.02.36-.02.54 0l-.61-.08.3.06c.06.02.11.04.17.05.17.04-.34-.15-.34-.15.03.05.23.11.29.15.13.07.25.15.36.23l.12.09c.22.14-.43-.35-.22-.17.09.08.19.15.28.23.2.17.4.35.59.53 1.08.98 2.41 2.3 3.98 2.29 2.35-.01 3.68-2.61 3.01-4.69-.55-1.69-1.96-2.77-3.55-3.41-1.41-.57-3.01-.41-4.5-.59l.61.08c-.34-.05-.68-.11-1.01-.21-.08-.02-.15-.05-.23-.08-.25-.08.44.23.22.09-.16-.1-.32-.18-.47-.28-.99-.68-2.58-.22-3.13.82-.61 1.16-.24 2.4.82 3.13 1.81 1.24 4.01.98 6.06 1.25l-.61-.08c.32.05.61.14.91.24.26.09-.51-.25-.18-.07.07.04.14.07.2.11.15.08.29.18.43.27.22.14-.38-.33-.2-.15.05.05.11.1.16.15.04.04.14.18.18.19-.04-.01-.32-.47-.17-.22.07.11.13.24.2.35-.35-.55-.15-.42-.12-.22.01.08.03.16.04.24l-.08-.61c.01.13 0 .26 0 .39l.08-.61c-.01.07-.03.13-.04.2-.04.34.24-.4.1-.2-.15.21.36-.39.17-.2-.08.08-.04.05.11-.08.14-.13.31-.23.5-.29l.61-.08h-.13l.61.09c-.08-.01-.19-.06-.26-.06.3-.02.39.19.17.04-.11-.07-.23-.14-.34-.22-.06-.04-.17-.09-.21-.15.01.02.45.36.21.16-.12-.1-.25-.2-.37-.31-.46-.41-.91-.84-1.39-1.23-.71-.57-1.37-1.03-2.23-1.34s-1.8-.3-2.64-.05c-1.14.34-1.98 1.62-1.6 2.81s1.59 1.97 2.81 1.6ZM91.81 333.6c-.54.47-.29.21-.08.1l-.55.23c.14-.06.28-.09.43-.11l-.61.08c.15-.01.3 0 .46.01l-.61-.08c.19.03.37.09.54.16l-.55-.23c.12.06.23.12.34.18.32.18-.43-.43-.12-.09.04.03.07.07.1.1.15.17.09.09-.18-.24.06.13.15.26.21.39l-.23-.55c.11.27.19.55.23.84l-.08-.61c.07.51.04 1.02-.02 1.53l.08-.61c-.06.47-.13.95-.3 1.39l.23-.55c-.04.09-.3.48-.04.13.11-.15.67-.5.27-.3l.55-.23c-.09.03-.16.05-.25.07l.61-.08h-.26l.61.08c-.16-.02-.3-.07-.45-.13l.55.23c-.12-.06-.53-.34-.2-.08s-.08-.09-.16-.17c-.21-.21.14.17.16.22-.02-.06-.09-.12-.12-.17-.1-.16-.18-.33-.25-.51l.23.55c-.63-1.53-.81-3.2-1.59-4.68-.35-.67-.84-1.33-1.42-1.83-.36-.31-.74-.6-1.17-.8-.65-.3-1.15-.41-1.86-.5-.35-.05-.86.14-1.15.31-.43.25-.74.64-.94 1.09-.38.89-.14 1.78.47 2.5 2.12 2.5 5.2 4.3 8.42 4.93.61.12 1.21.09 1.76-.23.47-.28.93-.82 1.05-1.37.26-1.13-.34-2.57-1.6-2.81-.87-.17-1.71-.42-2.52-.76l.55.23c-.92-.39-1.8-.88-2.61-1.47-.12-.09-.47-.38.08.07-.09-.08-.19-.15-.28-.23a11.434 11.434 0 0 1-1.61-1.6l-1.62 3.9h.11c-.2-.01-.41-.04-.61-.07.21.04.41.09.6.17l-.55-.23c.11.05.22.1.32.17.08.05.41.29.07.03s.02.04.09.1c.08.08.15.16.22.24.28.3-.31-.47-.09-.12.06.09.12.18.18.28.13.22.25.45.35.68l-.23-.55c.26.62.43 1.27.59 1.91.21.82.47 1.6.8 2.37.67 1.54 2.27 2.81 3.99 2.8 1.16 0 2.29-.69 2.84-1.71.45-.84.57-1.76.68-2.69.2-1.66-.13-3.55-1.41-4.74-.8-.74-1.73-1.13-2.81-1.25s-2.09.32-2.88 1.02c-.9.79-.87 2.43 0 3.23.96.88 2.27.85 3.23 0ZM130.03 380.29c1.97.8 4.04-.35 5.2-1.91s1.23-3.57.43-5.3c-.68-1.47-2.05-2.62-3.52-3.26-.78-.34-1.54-.55-2.35-.77-.15-.04-.3-.09-.45-.14-.38-.13.56.25.03-.01-.19-.13-.13-.07.2.17-.16-.16-.11-.08.15.24-.18-.29.14.62.05.07l-1.05 2.58-.33.14c.05-.02.11-.04.17-.05.26-.03-.52-.01-.27.03.06.01.23-.04.29 0 0 0-.58-.14-.26-.02.07.03.44.16.06 0s0 0 .05.04c.07.04.14.11.21.13-.13-.05-.41-.35-.13-.09.07.06.14.18.21.22-.06-.04-.28-.43-.13-.17.05.09.1.18.15.26.13.19-.13-.41-.05-.14.06.22.13.44.18.66.11.49-.01-.36-.01-.08 0 .13.02.26.02.39.02.95-.15 1.89-.25 2.83-.13 1.16-.11 2.35.22 3.48s1.62 1.98 2.81 1.6 1.96-1.58 1.6-2.81c-.05-.16-.08-.31-.12-.47-.1-.42.01.34 0 .06s-.03-.59-.02-.88c.02-.6.1-1.19.18-1.78.17-1.29.24-2.58-.09-3.85-.36-1.37-1.24-2.6-2.47-3.32-1.38-.8-2.91-.82-4.33-.14-.97.46-1.22 1.64-1.05 2.58.31 1.77 2.1 2.62 3.66 2.99.27.06.54.13.8.22.14.05.29.13.43.16-.58-.13-.25-.11-.06-.01.28.14.53.3.79.47.37.23-.42-.36 0 0 .11.1.22.2.32.31.06.06.11.12.17.19l-.2-.27c.06.14.2.28.27.42.03.05.06.11.09.17.08.16.04.07-.1-.26.01.13.1.29.13.43.14.51.01-.5-.01-.09 0 .11-.02.24-.01.35.06-.42.07-.5.02-.27-.02.08-.04.15-.06.22-.09.4.26-.47.06-.11-.08.14-.15.27-.24.4-.2.33.37-.39.07-.1-.07.07-.45.37-.1.13s-.07.02-.14.07c-.15.08-.13.07.08-.02.21-.08.23-.09.07-.03l-.21.06c-.24.05-.14.03.29-.04h-.11c-.24 0-.14.01.29.06-.14-.05-.29-.07-.43-.13-.51-.21-1.31-.04-1.76.23s-.93.82-1.05 1.37c-.13.59-.1 1.24.23 1.76s.78.81 1.37 1.05ZM151.72 373.42c2.94 0 2.95-4.57 0-4.57s-2.95 4.57 0 4.57ZM137.7 395.75c2.94 0 2.95-4.57 0-4.57s-2.95 4.57 0 4.57Z"/>
  <path d="M141.58 342.31c2.4 2.54 6.1 3.55 9.48 2.73.88-.21 1.52-1.04 1.64-1.9.13-.98-.34-1.7-1.09-2.28-3.3-2.54-7.1-4.41-11.1-5.58l1.01 3.82c.38-.42-.02-.03-.02-.04.08-.06.17-.1.26-.15-.3.12-.36.15-.2.1.53-.08-.25-.04-.02-.02.6.05-.41-.12.05 0 1.16.29 2.53-.37 2.81-1.6s-.36-2.5-1.6-2.81c-1.61-.4-3.39.04-4.52 1.29s-.7 3.32 1.01 3.82c.94.27 1.86.58 2.77.94.1.04.84.34.3.12.23.09.45.19.67.29a32.17 32.17 0 0 1 6.26 3.77l.55-4.18c-.15.04-.31.07-.46.1-.53.11.52-.03-.02 0-.29.02-.58.03-.87.03-.16 0-.32-.01-.47-.03-.4-.04-.1-.09.06.01-.23-.14-.66-.14-.93-.21-.15-.04-.3-.1-.45-.15-.41-.13.28.14.03.02s-.52-.25-.77-.4c-.14-.08-.27-.17-.4-.26a1.33 1.33 0 0 1-.19-.14c-.14-.1-.09-.06.15.11-.2-.03-.55-.51-.69-.65-.82-.87-2.41-.89-3.23 0s-.88 2.3 0 3.23ZM109.1 331.36c1.41.76 2.88 1.42 4.38 1.99s3.32 1.35 4.9.83c1.1-.36 1.98-1.22 2.26-2.36.24-.96.08-2.01-.41-2.87-.9-1.58-2.61-2.08-4.28-2.32s-3.41-.49-5.12-.73c-.63-.09-1.18-.11-1.76.23-.47.28-.93.82-1.05 1.37-.13.59-.1 1.24.23 1.76.3.46.79.97 1.37 1.05l4.82.69c.37.05.73.1 1.1.16.16.03.33.06.49.1.15.04.32.13.47.14-.36-.16-.43-.19-.21-.08l.21.12c.37.2-.45-.33-.04 0-.25-.34-.31-.42-.19-.23.11.2.07.11-.11-.28.02.13.07.25.09.37l-.08-.61c.01.13.02.25 0 .37l.08-.61s-.06.26-.06.27l.16-.38c-.08.13-.06.1.08-.09.14-.17.17-.21.09-.13-.12.12-.04.05.25-.21l.33-.14c-.07.02-.15.04-.23.05l.61-.08c-.16.01-.32.01-.48 0l.61.08c-1.13-.16-2.27-.64-3.33-1.05-.14-.05-.27-.11-.4-.16-.48-.19.49.21 0 0-.27-.12-.53-.23-.8-.36-.57-.27-1.13-.55-1.69-.85-1.05-.57-2.54-.3-3.13.82s-.3 2.52.82 3.13ZM141.08 359.62c.11-.02.22-.03.34-.05l-.27.04c.19-.04.4-.05.59-.07.34-.04.68-.07 1.02-.09.71-.05 1.42-.08 2.13-.08s1.36.02 2.04.06a35.002 35.002 0 0 1 1.61.14c.62.07-.33-.05.15.02.61.09 1.21.12 1.76-.23.42-.27.74-.63.94-1.09.44-1.05.04-2.25-.94-2.86-1.81-1.12-3.92-2.01-6.09-1.96-1.12.03-2.15.3-3.16.75s-1.83 1.25-2.5 2.14c-.43.57-.37 1.43-.12 2.03.29.69.79 1.06 1.48 1.32 1.71.66 3.6.95 5.44.88 1.19-.05 2.34-1.02 2.29-2.29-.05-1.2-1.01-2.33-2.29-2.29-.38.01-.77.02-1.15 0-.22-.01-.44-.03-.66-.05-.48-.04.48.08-.12-.02-.78-.14-1.55-.35-2.29-.64l1.37 3.36c-.43.57-.06.1.06-.02.06-.06.12-.12.19-.17.18-.15.13-.11-.16.12.14-.03.31-.2.43-.27.07-.04.15-.08.23-.12.22-.1.15-.07-.19.08.26-.01.61-.18.87-.25.24-.04.17-.03-.22.02.09-.01.17-.02.26-.02.17-.01.35-.02.52-.01.05 0 .56.03.56.04-.35-.05-.41-.06-.15-.01l.3.06c.35.08.69.18 1.03.3.1.04.19.07.29.11-.31-.13-.35-.15-.12-.05.19.09.37.18.56.27.37.19.72.4 1.07.61l1.76-4.18c-1.67-.24-3.34-.39-5.03-.39s-3.36.18-5.02.43c-.53.08-1.11.61-1.37 1.05-.29.49-.41 1.21-.23 1.76s.52 1.09 1.05 1.37c.58.31 1.12.33 1.76.23ZM212.82 327.23c-.02-.29-.01-.58.02-.87l-.08.61c.06-.4.16-.78.31-1.16l-.23.55c.18-.43.41-.82.69-1.19l-.36.46c.31-.39.66-.74 1.05-1.05l-.46.36c.4-.3.82-.55 1.28-.75l-.55.23c.43-.18.87-.3 1.33-.37l-.61.08c.4-.05.8-.05 1.2 0l-.61-.08c.26.04.51.09.76.17l-1.37-3.36c-.15.26-.32.51-.51.75l.36-.46c-.34.42-.72.8-1.15 1.13l.46-.36c-.46.35-.95.63-1.48.86l.55-.23c-.34.14-.7.25-1.06.33-1.17.26-1.96 1.68-1.6 2.81.4 1.22 1.56 1.88 2.81 1.6 2.32-.52 4.37-2.09 5.56-4.13.76-1.31.04-2.92-1.37-3.36-4.55-1.43-9.86 2.63-9.54 7.43.04.61.23 1.18.67 1.62.4.4 1.05.7 1.62.67 1.17-.05 2.37-1.01 2.29-2.29ZM178.38 337.3c1.47.68 2.98 1.21 4.58 1.48.87.14 1.75.25 2.63.28.95.03 1.93 0 2.79-.46 1.21-.66 1.71-2.12 1.38-3.41-.3-1.17-1.28-2.07-2.42-2.39-.82-.23-1.69-.18-2.53-.09s-1.73.22-2.58.42c-1.74.41-3.44 1.11-4.99 2-1.04.6-1.49 2.09-.82 3.13s2.02 1.46 3.13.82c.32-.19.65-.37.99-.53.14-.07.29-.14.43-.21.1-.04.19-.09.29-.13-.3.13-.34.14-.1.05.65-.24 1.3-.47 1.98-.64.34-.09.67-.16 1.01-.23l.55-.09c.55-.09-.53.05.03 0 .37-.03.74-.07 1.11-.09.12 0 .34.03.45 0-.36-.06-.41-.06-.17 0-.29-.14-.36-.17-.21-.09.16.1.09.04-.22-.17-.18-.17-.3-.37-.36-.61-.08-.38-.02-.78.17-1.12.21-.36.74-.84 1.23-.76-.18-.03-.4.02-.58.02-.33 0-.65 0-.98-.02-.22-.01-.43-.03-.65-.05-.16-.02-.65.01-.04 0-.67 0-1.43-.26-2.07-.44-.37-.1-.73-.22-1.08-.35-.1-.04-.35-.17-.46-.18.3.13.33.14.1.04-.1-.04-.2-.09-.3-.14-.57-.26-1.13-.4-1.76-.23-.53.15-1.11.56-1.37 1.05-.53 1.01-.34 2.59.82 3.13ZM163.41 327.81s-.09-.05-.12-.08l.46.36s-.07-.06-.1-.1l.36.46c-.04-.06-.07-.11-.1-.18l.23.55c-.02-.07-.04-.13-.05-.2l.08.61v-.22l-.08.61c.02-.13.05-.25.1-.37l-.23.55c.06-.12.12-.24.2-.35l-.36.46c.09-.11.18-.2.28-.28l-.46.36c.1-.07.2-.12.31-.17l-.55.23c.32-.12.66-.18 1-.23l-.61.08c.88-.11 1.67-.2 2.48-.58.65-.31 1.24-.9 1.6-1.52.51-.87.64-1.94.24-2.88s-1.21-1.64-2.22-1.88-2.06-.26-3.06-.21c-1.19.06-2.3.28-3.39.78-1.28.59-2.13 1.68-2.62 2.97-.2.52-.04 1.3.23 1.76s.82.93 1.37 1.05c.59.13 1.24.1 1.76-.23s.83-.78 1.05-1.37c.02-.05.04-.1.06-.16l-.23.55c.09-.2.2-.38.32-.55l-.36.46c.15-.18.31-.35.5-.49l-.46.36c.24-.18.49-.32.76-.43l-.55.23c.45-.18.92-.3 1.4-.37l-.61.08c.98-.13 1.98-.1 2.96.02l-.61-.08c.17.02.33.06.49.12l-.55-.23c.09.04.17.09.25.14l-.46-.36s.09.08.13.13l-.36-.46c.05.07.08.13.12.21l-.23-.55s.03.1.04.15l-.08-.61v.23l.08-.61c-.02.11-.05.21-.09.31l.23-.55c-.05.11-.11.2-.17.3l.36-.46c-.09.12-.19.23-.31.32l.46-.36c-.12.09-.24.17-.38.23l.55-.23c-.28.11-.57.16-.87.21l.61-.08c-.69.09-1.41.13-2.07.37-.85.32-1.55.82-2.02 1.6-.93 1.53-.64 3.58.96 4.52 1.03.61 2.55.27 3.13-.82s.28-2.48-.82-3.13ZM165.38 359.96s-.06-.07-.08-.1l.36.46c-.11-.14-.19-.29-.26-.45l.23.55c-.06-.16-.11-.33-.14-.5l.08.61c-.03-.22-.03-.43 0-.65l-.08.61c.03-.2.08-.38.15-.57l-.23.55c.08-.18.17-.35.29-.5l-.36.46c.1-.12.2-.22.32-.32l-.46.36.11-.08-3.36-1.37c.4 1.08.92 1.99 1.7 2.84.37.41.81.75 1.25 1.09.32.24.66.45 1.02.62 1.3.62 2.82 1.1 4.18.33 1.06-.6 1.54-1.91 1.21-3.06a2.594 2.594 0 0 0-3.15-1.81c-.55.15-1.08.56-1.37 1.05s-.41 1.21-.23 1.76c.39 1.19 1.57 1.92 2.81 1.6h.05c-.2.01-.41.04-.61.07h.05c-.2-.03-.41-.06-.61-.08.03 0 .06.01.09.02l-.55-.23.04.02-.46-.36s.05.04.07.07l-.36-.46s.04.06.05.09l-.23-.55.03.1-.08-.61v.16l.08-.61-.03.1.23-.55-.03.04.36-.46s-.05.06-.09.09l.46-.36s-.08.05-.12.07l.55-.23c-.07.02-.13.04-.21.05l.61-.08h-.3l.61.08c-.35-.06-.7-.17-1.03-.31l.55.23c-.45-.19-.87-.44-1.26-.73l.46.36c-.41-.32-.77-.68-1.09-1.09l.36.46c-.28-.37-.51-.77-.7-1.19l.23.55c-.04-.09-.08-.19-.11-.29-.25-.69-.64-1.19-1.32-1.48-.63-.26-1.45-.29-2.03.12s-1.08.86-1.43 1.49-.5 1.25-.58 1.96c-.13 1.22.36 2.41 1.16 3.31.37.42 1.07.67 1.62.67s1.23-.25 1.62-.67.7-1.01.67-1.62-.25-1.14-.67-1.62ZM62.99 322.11a14 14 0 0 1 .81-1.2l-.36.46c.25-.32.53-.62.85-.88l-.46.36c.2-.15.41-.28.64-.38l-.55.23c.2-.08.41-.14.62-.17l-.61.08c.28-.03.55-.03.82 0l-.61-.08c.28.04.55.11.82.2l-1.01-3.82c-.74.79-1.33 1.69-1.98 2.54l.36-.46c-.11.14-.22.27-.36.37l.46-.36c-.08.06-.16.11-.25.14l.55-.23c-.11.04-.21.07-.33.09l.61-.08c-.27.03-.55 0-.82-.03l.61.08c-.4-.06-.8-.14-1.2-.23-.6-.13-1.23-.08-1.76.23-.47.28-.93.82-1.05 1.37-.13.59-.1 1.24.23 1.76.31.49.78.92 1.37 1.05 1.4.32 2.87.62 4.2-.1.98-.53 1.51-1.59 2.16-2.44l-.36.46c.25-.32.52-.63.79-.93.56-.6.81-1.42.59-2.22s-.83-1.34-1.6-1.6c-1.44-.48-3.09-.44-4.4.38-1.2.74-2.02 1.91-2.75 3.09-.31.5-.38 1.2-.23 1.76s.56 1.11 1.05 1.37c.53.28 1.17.42 1.76.23s1.05-.53 1.37-1.05ZM104.93 359.77c1.29-.1 2.58-.1 3.87.02.15.01.3.03.45.04.07 0 .58.07.23.03s.16.03.23.04c.18.03.36.06.53.09.65.12 1.29.27 1.93.44 1.44.39 2.89-.71 2.89-2.2v-1.58c0-1.29-1.05-2.22-2.29-2.29-.79-.04-1.57-.12-2.35-.21-.26-.03-.24-.03.07.01-.12-.02-.24-.03-.36-.05-.18-.03-.36-.05-.54-.08-.39-.06-.78-.13-1.16-.21-1.57-.31-3.12-.74-4.64-1.26-1.13-.39-2.55.44-2.81 1.6-.29 1.27.38 2.4 1.6 2.81 3.29 1.13 6.73 1.77 10.2 1.96l-2.29-2.29v1.58l2.89-2.2c-2.74-.74-5.63-1.03-8.46-.82-1.19.09-2.34.99-2.29 2.29.05 1.16 1.01 2.38 2.29 2.29ZM73.31 315.45c-.19.72-.19 1.48 0 2.2.02.09.05.18.09.27.1.25.2.5.32.74.17.32.41.61.63.89.11.14.24.27.39.38.28.22.56.47.89.62s.66.32 1.02.39.74.14 1.11.11l.61-.08c.3-.07.56-.21.78-.41.17-.1.31-.24.41-.41.2-.22.34-.48.41-.78.03-.13.07-.25.12-.37l-.23.55s.03-.07.06-.11l-.36.46.03-.03-.46.36h.01l-.55.23h.01l-.61.08H78l-.61-.08-.55-.23h.01l-.46-.36.01.01-.36-.46s.02.02.02.04l-.23-.55s.02.05.02.07l-.08-.61.31-1.15c1.04-.27 2.09-.55 3.13-.82l.82.82c.08.18.15.36.23.55-.05-.12-.05-.29-.07-.42l.08.61s-.01-.08-.02-.11c.01-.31-.05-.61-.2-.88-.09-.28-.25-.53-.47-.74-.21-.22-.45-.38-.74-.47-.27-.14-.57-.21-.88-.2-.59.03-1.2.22-1.62.67l-.36.46c-.21.36-.31.74-.31 1.15.04.35.08.7.15 1.05 0 .03.01.05.02.08v.01c.11.43.19.49.41.78.1.17.24.31.41.41.07.08.14.14.23.18.26.17.55.26.85.27.3.07.61.05.91-.04.54-.18 1.11-.52 1.37-1.05l.12-.27c.1-.18.16-.37.16-.58.03-.22.04-.2.04-.31 0-.05-.07-.57-.08-.62 0-.02 0-.03-.01-.05-.03-.11-.18-.46-.24-.57 0 0-.01-.02-.02-.03a4.37 4.37 0 0 0-.37-.48c-.03-.03-.43-.34-.47-.36-.18-.08-.36-.16-.55-.23-1.03-.28-2.13.19-2.66 1.1-.18.31-.3.66-.39 1.01l2.2-1.68c-.13 0-.26 0-.39-.01l.61.08c-.17-.03-.32-.07-.48-.13l.55.23c-.18-.08-.34-.17-.49-.29l.46.36a2.86 2.86 0 0 1-.46-.46l.36.46c-.12-.16-.23-.34-.31-.53l.23.55c-.07-.18-.12-.36-.15-.55l.08.61a2.09 2.09 0 0 1 0-.5l-.08.61c.01-.08.03-.17.05-.25.1-.3.11-.61.04-.91-.01-.3-.1-.59-.27-.85-.14-.27-.34-.48-.59-.64-.22-.2-.48-.34-.78-.41-.59-.13-1.24-.1-1.76.23s-.9.78-1.05 1.37ZM219.64 308.8c2.36 0 4.72.01 7.08.02 1.19 0 2.39.06 3.58 0 1.66-.08 2.84-.94 3.47-2.45.77-1.82-.04-4-.77-5.73-.93-2.22-3.37-1.67-5.06-.85-1.24.6-2.58 1.43-3.53 2.43-.83.87-.92 2.38 0 3.23s2.35.92 3.23 0c.15-.15.31-.28.47-.42.27-.23-.52.37-.03.03.13-.09.26-.19.4-.28.53-.36 1.09-.7 1.67-.99.05-.03.42-.16.43-.2-.37.15-.45.19-.24.11.06-.02.13-.05.19-.07.11-.03.25-.04.35-.09-.48.05-.61.07-.38.06.23 0 .09-.01-.42-.06-.49-.14-.88-.45-1.16-.91-.19-.49-.24-.6-.15-.32.05.19.12.38.19.56.14.4.29.8.41 1.21.06.19.1.39.15.58.05.26.05.22 0-.13.01.1.02.2.01.3-.01.26 0 .19.04-.19-.07.22-.04.17.07-.14-.05.11-.11.21-.17.31.15-.26.38-.44.68-.53.58-.14-.21-.02-.36-.02h-2.71c-2.48-.01-4.96-.02-7.44-.02-1.2 0-2.34 1.05-2.29 2.29s1 2.28 2.29 2.29ZM151.51 387.88c-.46.02-.92.01-1.38-.04l.61.08a5.4 5.4 0 0 1-.78-.16l-.36-.12c.68.22.37.16.18.05-.22-.13-.3-.33.14.14-.07-.08-.16-.16-.23-.24.26.36.34.45.22.26-.1-.2-.06-.09.12.32-.02-.11-.06-.22-.08-.34l.08.61c-.02-.15-.01-.3 0-.45l-.08.61c.06-.31.23-.34-.1.14.04-.06.09-.15.13-.21-.28.34-.34.43-.2.27l.09-.09c.1-.12-.55.37-.14.12.08-.05.16-.09.24-.14.32-.18-.62.22-.1.05.22-.07.45-.12.68-.16l-.61.08c.39-.05.79-.06 1.18 0l-.61-.08c1.02.16 2 .44 3.03.56 1.16.14 2.32-.07 3.34-.63s1.48-2.11.82-3.13-2.01-1.44-3.13-.82c-.07.04-.15.08-.23.12.33-.13.42-.17.25-.12-.14.03-.28.07-.43.1l.61-.08c-.43.06-.86.04-1.29-.02l.61.08c-1.18-.18-2.34-.6-3.55-.59-1.1 0-2.35.28-3.26.93-1.38.98-2.05 2.43-1.73 4.12.25 1.32 1.3 2.3 2.48 2.8 1.09.46 2.3.62 3.49.56s2.34-1.01 2.29-2.29c-.05-1.18-1.01-2.35-2.29-2.29ZM114.69 389.83c1.15.31 2.28.69 3.38 1.15l-.55-.23c.92.39 1.82.84 2.7 1.34v-3.95c-.13.08-.27.15-.41.21l.55-.23c-.26.1-.52.17-.8.21l.61-.08c-.3.03-.6.03-.9 0l.61.08c-.33-.05-.64-.13-.95-.26l.55.23c-.3-.13-.59-.29-.85-.5l.46.36a3.24 3.24 0 0 1-.58-.59l.36.46c-.15-.2-.28-.42-.38-.65-.21-.49-.88-.92-1.37-1.05-.55-.15-1.28-.08-1.76.23s-.92.78-1.05 1.37l-.08.61c0 .41.11.8.31 1.15.62 1.42 2.02 2.42 3.46 2.89s3.2.3 4.54-.49c1.46-.86 1.5-3.09 0-3.95-2.07-1.18-4.31-2.1-6.62-2.72-1.15-.31-2.54.39-2.81 1.6s.36 2.48 1.6 2.81Z"/>
  <path d="M33.82 308.56c8.82-4.93 20.52-9.66 28.19-3.09 7.22 6.18 5.09 18.02.21 26.18-8.9 14.87-25.17 26.96-25.48 44.29-.23 12.66 4.3 19.27 9.08 30.99 2.95 7.25 4.71 15.86 9.79 29.53-9.13-4.92-18.37-8.13-26.43-14.65-8.42-6.81-16.31-14.64-21.15-24.32-5.85-11.71-7.15-29.14-4.42-41.94 5.41-25.36 16.06-36.81 30.21-46.98" fill="#fff"/>
  <path d="M34.96 310.51c4.94-2.75 10.42-5.47 16.14-5.94 5.07-.41 10.11 1.51 12.26 6.41 1.99 4.53 1.02 9.94-.61 14.41-1.84 5.05-5.19 9.53-8.47 13.73-6.86 8.8-15.08 17.31-18.41 28.23-1.77 5.79-1.71 12-.61 17.91s3.52 11.12 5.89 16.45 4.21 10.29 5.84 15.66c2.01 6.62 4.05 13.21 6.45 19.7l3.31-2.54c-5.43-2.91-11.11-5.33-16.54-8.24s-10.08-6.4-14.58-10.45c-8.22-7.39-15.32-16.11-18.47-26.87-2.96-10.13-3.58-21.4-1.58-31.77 1.88-9.73 5.14-19.4 10.52-27.77 4.89-7.59 11.59-13.67 18.87-18.91.98-.71 1.46-1.96.81-3.08-.57-.97-2.09-1.52-3.08-.81-7.01 5.05-13.48 10.71-18.58 17.74-5.99 8.25-9.7 17.96-12.05 27.82a76.05 76.05 0 0 0-.31 33.83c1.19 5.46 3.12 10.74 5.94 15.57 3.07 5.25 7.02 9.98 11.34 14.24 4.95 4.88 10.36 9.46 16.39 12.95s12.77 6.27 19.04 9.63c1.59.85 4.03-.59 3.31-2.54-3.98-10.75-6.55-22.02-11.06-32.57-2.34-5.49-5.08-10.86-6.56-16.66s-1.74-12.01-.06-17.75c3.2-10.9 11.88-19.41 18.62-28.21 3.48-4.54 6.74-9.29 8.6-14.75s2.41-11.21.28-16.39c-2.58-6.25-8.77-9.72-15.42-9.53s-13.55 3.3-19.49 6.61c-2.53 1.41-.26 5.3 2.27 3.89Z"/>
  <path d="m156.63 63.96-6.11-13.45c6.15 7.78 14.24 8.1 20.98 8.75 0 0 5.87-.16 7.12 5.51 2.4 10.91 8.83 11.1 10.11 22.82 9.02-7.44-4.45-25.15-3.52-32.14.88-6.61 1.23-9.32 1.29-15.98.1-10.99-7.34-22.17-18.34-24.46-10.99-2.3-15.72.38-25.63 5.57.11-13.27-18.25-14.91-24.72-18.34 1.82 3.97 8.71 17.54 4.9 15.24-10.8-6.54-21.62-8.25-27.53-4.09 2.3 2.52 10.56 11.05 7.94 12.03 0 0-23.71-6.31-32.64 14.1l15.79-.54c-3.53 3.26-11.21 7.41-12.3 12.52 0 0 6.51-1.26 7.59 3.47 2.19 9.61-9.98 26.52-9.98 26.52 3.95 4.09 16.47-10.96 18.18-19.58l13.3 5.26c-3.62-5.06-4.28-8.04-4.7-12.88 5.55 9.65 13.58 16.71 30.24 14.8-1.39-2.97-2.84-3.31-3.93-5.66 0 0 4.69.58 10.74 2.25 0 0 1.39-3.38 21.24-1.72Z" fill="#ae3517"/>
  <path d="M158.57 62.82c-2.04-4.48-4.07-8.97-6.11-13.45l-3.53 2.73c3.07 3.82 7.2 6.48 11.9 7.81 3.5.99 7.22 1.35 10.84 1.6l.47.03c.56.02-.29-.07.11.02.29.06.58.12.87.2.17.05.92.34.63.21 1.37.63 2.19 1.5 2.61 3.07.61 2.26 1.22 4.43 2.27 6.54.79 1.59 1.79 3.05 2.82 4.49 1.1 1.52 2.21 3.04 3.07 4.71 1.09 2.11 1.67 4.47 1.95 6.82.23 1.97 2.27 2.92 3.84 1.59 5.31-4.52 3.96-12.04 2.04-17.87-1.05-3.18-2.37-6.26-3.51-9.41-.46-1.28-.9-2.58-1.2-3.91-.06-.27-.11-.54-.16-.82-.08-.44-.02-.07 0 .02-.01-.12-.03-.25-.04-.37-.03-.63 0-1.21.08-1.84 1.09-8.38 2.52-17.53-.63-25.64s-9.23-14.33-17.44-16.34c-4.77-1.17-9.85-1.5-14.64-.3s-9.11 3.69-13.41 5.94l3.39 1.94c-.02-11.25-11.24-15.33-20.22-18.21-1.08-.35-2.16-.69-3.22-1.07-.5-.18-1-.36-1.49-.57.4.17-.07-.03-.21-.1-.23-.11-.46-.22-.68-.34-2.09-1.09-4.01 1.06-3.08 3.08 2.01 4.35 4.51 8.53 5.62 13.11.05.2.08.4.13.6-.1-.47.05-.25-.03 0-.05.14.09-.39.11-.45.42-.97 1.55-1.2 2.04-1.12.05 0 .52.28.22.08-.17-.11-.39-.23-.55-.33-.49-.29-.99-.58-1.49-.85-1.11-.61-2.24-1.19-3.39-1.72-4.1-1.89-8.41-3.29-12.92-3.72-3.96-.37-8.23.18-11.57 2.46-1.23.84-1.48 2.41-.46 3.53 1.76 1.93 3.55 3.82 5.21 5.84.79.96 1.51 1.88 2.16 3.02.13.23.26.46.37.7.14.3-.11-.35-.03-.06.03.09.05.2.09.29.14.31 0-.13.01-.23.05-.27.12-.49.29-.71.07-.09.54-.45.3-.35l1.73-.23c-8.83-2.34-19.59-1.06-26.93 4.53-3.64 2.77-6.4 6.44-8.25 10.61-.65 1.46.08 3.45 1.94 3.39l15.79-.54-1.59-3.84c-4.44 4.03-11.38 7.15-12.87 13.51-.41 1.76 1.07 3.09 2.77 2.77.51-.1-.22 0-.01 0 .42 0 .84-.07 1.27-.07 1.14 0 1.88.08 2.72.62.16.1.53.44.71.85s.27 1.17.29 1.45c.1 1.43-.02 2.7-.28 3.98-1.17 5.8-4.11 11.21-7.21 16.19a68.32 68.32 0 0 1-2.42 3.67c-.57.79-.31 2.08.35 2.73 4.1 4 10-1.61 12.72-4.59 4.02-4.4 7.99-10.06 9.21-15.99l-2.77 1.57c4.43 1.75 8.86 3.51 13.3 5.26 1.79.71 3.64-1.76 2.54-3.31-1.32-1.86-2.59-3.81-3.32-5.98-.63-1.87-.89-3.8-1.07-5.76l-4.19 1.14c2.9 5.01 6.67 9.63 11.76 12.54 6.18 3.53 13.46 4.14 20.42 3.37 1.74-.19 2.74-1.75 1.94-3.39-1.03-2.11-2.91-3.58-3.93-5.66l-1.94 3.39c.34.04-.55-.09-.31-.04.21.04.42.06.63.09.78.12 1.56.25 2.34.4 2.52.47 5.01 1.05 7.48 1.73.86.24 2.16-.13 2.54-1.03.15-.34-.41.49-.24.3.41-.48-.44.19 0-.01.15-.07.31-.16.44-.25.48-.3-.53.16.09-.04.56-.18 1.11-.35 1.69-.48.4-.09.8-.15 1.2-.22.07-.01.69-.1.15-.03.27-.04.55-.07.82-.09 1.22-.13 2.45-.19 3.68-.22 3.83-.1 7.66.12 11.47.44 1.21.1 2.25-1.11 2.25-2.25 0-1.3-1.03-2.15-2.25-2.25-6.12-.5-12.75-1.07-18.8.35-1.38.33-3.74.98-4.38 2.48l2.54-1.03c-3.72-1.02-7.51-1.86-11.33-2.33-1.84-.23-2.61 2.04-1.94 3.39 1.04 2.1 2.9 3.55 3.93 5.66l1.94-3.39c-6.17.68-12.64.39-18.15-2.76-4.44-2.53-7.61-6.54-10.15-10.93-1.06-1.83-4.4-1.16-4.19 1.14s.47 4.72 1.23 6.96c.86 2.56 2.22 4.87 3.78 7.06l2.54-3.31c-4.43-1.75-8.86-3.51-13.3-5.26-1.08-.43-2.54.48-2.77 1.57-.99 4.8-4.06 9.39-7.28 13.12-1.5 1.74-3.24 3.52-4.96 4.62-.4.26-.82.49-1.25.69.4-.18-.57.16-.78.21.64-.15.13.03 0-.02-.59-.22.28.16-.09 0-.39-.16.41.29.04.03-.51-.36.2.22-.09-.07l.35 2.73c2.7-3.76 5.04-7.85 6.97-12.05 1.48-3.22 2.8-6.59 3.32-10.11s.52-7.49-2.48-9.77c-2.21-1.68-5.3-1.87-7.95-1.37l2.77 2.77c.61-2.6 2.92-4.54 4.92-6.18 2.23-1.83 4.66-3.4 6.8-5.35 1.43-1.3.32-3.91-1.59-3.84l-15.79.54 1.94 3.39c2.04-4.6 5.15-8.47 9.52-10.89 1.83-1.01 3.57-1.66 5.71-2.19.98-.24 1.98-.43 2.98-.57.27-.04.01 0-.04 0 .11-.01.22-.03.33-.04.22-.02.44-.05.66-.07.5-.05 1-.08 1.51-.11 1.63-.08 3.27-.05 4.9.08.35.03.7.06 1.05.1.24.03 1.19.16.49.05.51.08 1.02.15 1.53.25s.96.22 1.44.31c2.56.48 3.83-2.19 3.12-4.31-.8-2.37-2.62-4.41-4.2-6.28s-3.1-3.47-4.67-5.19l-.46 3.53c2.93-2.01 6.61-2.23 10.04-1.77 4.76.64 9.34 2.53 13.51 4.86 1.3.73 2.72 1.93 4.32 1.44 1.38-.42 1.96-1.78 1.88-3.11-.15-2.57-1.52-5.18-2.53-7.49-1.2-2.75-2.54-5.44-3.79-8.16l-3.08 3.08c7.1 3.7 16.41 3.89 21.59 10.28.42.52 1.17 1.8 1.41 2.49.46 1.3.6 2.28.6 3.63 0 1.76 1.89 2.73 3.39 1.94 3.55-1.86 7.09-3.89 10.93-5.09 3.51-1.1 7.15-1.23 10.78-.66 3.72.59 7.17 1.77 10.14 4.15s5.1 5.34 6.64 8.7c3.22 7.04 2.15 15.3 1.2 22.74-.2 1.56-.56 3.14-.4 4.73.13 1.27.41 2.51.78 3.74.86 2.84 2.04 5.57 3.08 8.34 1.15 3.04 2.41 6.53 2.7 9.57s-.13 5.34-2.39 7.26l3.84 1.59c-.51-4.44-1.85-8.42-4.41-12.1-2.22-3.19-4.41-6.15-5.45-9.96-.6-2.21-1.13-4.29-2.87-5.92-1.22-1.14-2.76-1.93-4.38-2.3-2.8-.64-5.78-.52-8.62-1.01-5.29-.91-9.72-3.15-13.13-7.38-.69-.86-2.16-.81-2.95-.18-.93.74-1.06 1.85-.58 2.9 2.04 4.48 4.07 8.97 6.11 13.45.5 1.11 2.11 1.38 3.08.81 1.14-.67 1.31-1.97.81-3.08Z"/>
  <path d="M116.18 84.88c-3.07-1.07-6.16-2.07-9.28-3-2.87-.86-5.47-1.95-8.47-1.17-2.8.73-5.47 2.16-7.98 3.57-2.91 1.64-5.71 3.46-8.45 5.37-1 .69-1.46 1.97-.81 3.08.58.99 2.08 1.5 3.08.81 2.58-1.8 5.23-3.52 7.96-5.09 2.26-1.3 4.62-2.62 7.15-3.33.24-.07.49-.12.73-.18.11-.03.23-.05.35-.07-.2.02-.22.02-.06 0 .2-.02.4-.01.59-.02.58-.04-.2-.08.17.03 1.64.49 3.28.96 4.91 1.45 3 .9 5.97 1.86 8.92 2.89 2.74.96 3.92-3.39 1.2-4.34ZM147.87 87.76c1.63-.98 3.25-1.98 4.89-2.95.6-.35 1.2-.71 1.82-1.03.22-.12.44-.23.66-.34.07-.04.83-.38.53-.26 1.06-.45 2.19-.74 3.32-.97s1.4-.3 2.55-.25c.12.01.24.02.37.04-.24-.03-.27-.04-.1-.01.25.04.51.08.76.13.59.11 1.17.24 1.75.38 1.46.35 2.9.78 4.33 1.23 4.01 1.27 7.95 2.78 11.84 4.38 1.12.46 2.47-.5 2.77-1.57.35-1.29-.44-2.3-1.57-2.77-4-1.65-8.05-3.2-12.18-4.49-2.62-.82-5.37-1.65-8.13-1.82-2.33-.15-4.96.6-7.11 1.48-3.1 1.28-5.89 3.23-8.76 4.94-2.48 1.48-.22 5.38 2.27 3.89Z"/>
</svg>
