<svg xmlns="http://www.w3.org/2000/svg" viewBox="-100 -150 585.93 906.44">
  <path d="M78.82 309.05C13.44 394.5 5.76 530.63 4.24 537.86h377.5c-10.4-70.82-32.26-184.07-60.03-204.08" fill="#fff"/>
  <path d="M75.12 306.89c-12.84 16.83-23.35 35.34-32.11 54.59-8.64 18.98-15.69 38.66-21.49 58.69-5.12 17.69-9.27 35.65-12.65 53.75-2.6 13.97-4.72 28.04-6.45 42.15-.55 4.5-1.05 9-1.53 13.5l-.48 4.57c-.06.56-.12 1.13-.19 1.69-.07.64-.49 1.98 0 .14-.06.24-.07.5-.12.75-.55 2.7 1.2 5.42 4.13 5.42H366.41c4.89 0 9.78.08 14.66 0h.64c3.06 0 4.53-2.72 4.13-5.42-4.68-31.84-10.25-63.59-17.25-95-3.5-15.67-7.36-31.28-11.95-46.67-3.92-13.15-8.35-26.21-14.11-38.68-4.45-9.65-9.92-19.89-18.69-26.28-1.87-1.36-4.78-.32-5.86 1.54-1.27 2.17-.34 4.5 1.54 5.86.24.17.87.71-.15-.13.18.15.36.28.54.43.3.26.6.51.89.77.74.66 1.44 1.37 2.12 2.1s1.3 1.46 1.92 2.23c.12.14.23.29.35.44.63.77-.56-.78.02.03.34.47.69.94 1.03 1.41 2.9 4.1 5.33 8.52 7.53 13.03.61 1.25 1.2 2.51 1.78 3.78.27.6.54 1.19.8 1.79.16.36.32.73.48 1.1.06.13.68 1.6.36.84 1.21 2.86 2.34 5.75 3.43 8.66 2.45 6.54 4.65 13.16 6.7 19.83 9.48 30.86 16.12 62.61 21.91 94.34 3.09 16.91 5.86 33.87 8.36 50.88 1.38-1.81 2.75-3.62 4.13-5.42H19.55c-4.88 0-9.79-.18-14.66 0h-.64l4.13 5.42c.44-2.15.57-4.41.8-6.6.41-3.95.83-7.9 1.29-11.84a671.057 671.057 0 0 1 1.56-12.5c-.12.89-.02.12.04-.29l.15-1.13c.11-.83.23-1.65.35-2.48 1.02-7.23 2.16-14.44 3.43-21.63 3.11-17.68 6.95-35.24 11.68-52.56 5.31-19.45 11.76-38.84 19.68-57.26 8.32-19.34 18.29-38.06 30.54-55.22 1.51-2.12 3.06-4.2 4.63-6.27 1.41-1.84.29-4.8-1.54-5.86-2.2-1.29-4.45-.31-5.86 1.54Z"/>
  <path d="M61.54 430.53c3.28 12.18 1.09 9.25 10.19 17.98 29.21 28.01 62.86 147.57 22.84 153.59-18.79 2.83-28.16-39.46-30.38-52.08-4.6-26.26-39.26-41.96-50.75-51.52" fill="#fff"/>
  <path d="M57.41 431.67c.77 2.87 1.31 5.84 2.24 8.67.76 2.3 1.94 4.16 3.6 5.93 3.38 3.6 7.16 6.71 10.23 10.61.22.28.72 1.05-.09-.12.15.21.31.41.47.62.34.45.67.9.99 1.35.66.92 1.3 1.84 1.92 2.78 1.38 2.08 2.68 4.2 3.92 6.36 2.73 4.74 5.19 9.64 7.45 14.62.61 1.35 1.21 2.71 1.8 4.07.14.32.28.65.42.98.29.67-.09-.21-.12-.29.06.17.14.33.21.49.31.74.62 1.49.92 2.24 1.15 2.83 2.25 5.69 3.29 8.56 2.16 5.94 4.11 11.97 5.85 18.05s3.23 12.11 4.5 18.25c.61 2.98 1.17 5.98 1.66 8.98.24 1.49.46 2.98.67 4.47.15 1.07-.12-.91.02.16.04.35.09.69.13 1.04.09.73.18 1.46.26 2.19.61 5.45.96 10.95.88 16.44a90.23 90.23 0 0 1-.4 7.36c-.06.56-.12 1.11-.19 1.66-.13 1.07.12-.82.02-.12l-.15 1c-.17 1.1-.37 2.2-.61 3.29-.43 1.97-.97 3.91-1.67 5.8-.09.24-.18.49-.28.73-.07.17-.42 1.03-.08.2s-.01.02-.09.18c-.1.23-.21.45-.32.68-.4.82-.83 1.63-1.32 2.4-.22.35-.45.7-.68 1.04-.12.17-.24.33-.36.5-.53.76.71-.85.11-.15-.53.63-1.06 1.24-1.66 1.81-.28.27-.57.53-.87.78-.33.27-1.01.58.24-.17-.18.11-.35.26-.53.39-.66.46-1.34.87-2.06 1.23-.17.09-.35.17-.53.26l-.27.12c-.51.26.67-.27.61-.26-.43.12-.84.32-1.27.46-.84.27-1.69.45-2.56.62s.87-.06.22-.03c-.27.01-.53.04-.8.05-.55.02-1.1-.07-1.65-.06-.51 0 1.06.2.57.08-.15-.04-.32-.05-.47-.09-.25-.05-.5-.11-.74-.18s-.49-.14-.73-.23c-.19-.06-1.17-.45-.39-.13s-.13-.08-.28-.16c-.24-.12-.47-.25-.69-.38-.5-.29-.97-.61-1.44-.94-.85-.6.55.49.04.04-.21-.19-.43-.36-.65-.55-.49-.43-.96-.89-1.41-1.37-.42-.44-.82-.89-1.21-1.36-.15-.18-.38-.62-.59-.72.41.21.53.71.24.31-.14-.19-.29-.38-.43-.58-.83-1.14-1.59-2.33-2.31-3.54-1.49-2.54-2.76-5.19-3.94-7.89-.38-.86.29.71.06.13l-.21-.51c-.14-.34-.28-.69-.41-1.03-.29-.73-.57-1.47-.85-2.21-.55-1.48-1.07-2.97-1.56-4.47-1.76-5.37-3.21-10.85-4.42-16.37a159.2 159.2 0 0 1-1.23-6.15c-.61-3.37-1.59-6.54-2.95-9.69-2.85-6.57-7.4-12.36-12.46-17.38-9.46-9.4-20.91-16.24-31.89-23.66-.99-.67-1.98-1.35-2.94-2.05-.42-.31-.84-.63-1.26-.94-.09-.07.89.71.14.1l-.62-.5c-1.72-1.43-4.39-1.82-6.06 0-1.45 1.58-1.84 4.53 0 6.06 4.23 3.5 8.93 6.4 13.51 9.39 2.74 1.79 5.46 3.6 8.14 5.47 1.42.99 2.82 2 4.21 3.03l1.11.84c.22.17 1.22.95.37.28.7.55 1.39 1.09 2.08 1.65 2.8 2.28 5.51 4.68 8.03 7.27a66.22 66.22 0 0 1 3.55 3.93l.78.96c.13.16.25.32.38.48-.08-.1-.56-.75-.11-.13.55.74 1.09 1.48 1.61 2.24.97 1.42 1.86 2.9 2.66 4.42.37.71.73 1.44 1.06 2.17.07.15.21.38.24.55-.19-.84-.19-.47-.08-.19.18.47.37.93.54 1.41.94 2.6 1.44 5.27 1.95 7.97 2.18 11.41 5.3 22.8 10.18 33.37 2.44 5.28 5.52 10.67 9.88 14.61s9.74 5.93 15.67 4.89c8.56-1.5 14.27-8.18 17.38-15.89 3.62-8.98 3.96-19.33 3.54-28.88-.55-12.33-2.67-24.61-5.56-36.59s-6.86-24.55-11.6-36.36c-4.25-10.56-9.07-21.01-15.3-30.57-2.54-3.89-5.33-7.69-8.54-11.06-2-2.09-4.2-3.99-6.23-6.04-.38-.38-.75-.77-1.1-1.17-.14-.16-.26-.36-.41-.5-.02-.02.68.98.4.51-.07-.12-.17-.24-.24-.36-.2-.32-.35-.65-.54-.98-.3-.52.44 1.2.15.36-.08-.25-.18-.49-.25-.74-.89-2.79-1.43-5.69-2.19-8.51-.58-2.17-3.08-3.7-5.27-2.99s-3.61 2.95-2.99 5.27Z"/>
  <path d="M299.94 442.84c-16.32 19.2-34.46 54.04-36.13 79.19-.93 14-18.52 73.53 4.98 79.06 30.32 7.14 31.15-28.55 43.16-52.2 17.97-35.36 54.53-82.45 53.64-103.34" fill="#fff"/>
  <path d="M296.91 439.81c-10.23 12.07-18.54 25.88-25.16 40.23-3.47 7.53-6.55 15.28-8.81 23.26-1.03 3.62-1.88 7.29-2.49 11-.48 2.96-.71 5.93-1.03 8.91-.03.31-.08.62-.11.93-.05.5.19-1.31.06-.42-.03.23-.06.45-.1.68-.13.86-.27 1.72-.42 2.58-.35 2.05-.73 4.1-1.11 6.14-.94 5.02-1.89 10.04-2.71 15.09-1.8 11.02-3.45 22.45-2.41 33.62.87 9.39 4.03 19.87 13.97 23.09 2.95.96 6.27 1.35 9.36 1.38 2.85.02 5.8-.36 8.49-1.32 5.46-1.94 9.64-5.67 12.98-10.33s5.6-10.16 7.62-15.53c2.14-5.68 3.95-11.47 6.03-17.17.52-1.43 1.06-2.86 1.62-4.28.14-.36.29-.73.44-1.09.08-.19.46-1.15.23-.57-.25.63.24-.56.3-.69.15-.35.31-.71.47-1.06 1.38-3.05 2.96-6.01 4.55-8.95 3.61-6.65 7.47-13.17 11.39-19.64 8.06-13.28 16.5-26.33 24.23-39.8 3.36-5.85 6.61-11.78 9.41-17.93 2.28-5 4.46-10.19 5.52-15.6.44-2.23.75-4.54.66-6.81s-1.91-4.39-4.29-4.29c-2.25.1-4.38 1.89-4.29 4.29.03.92 0 1.84-.08 2.76-.02.25-.09.53-.09.78 0 0 .18-1.2.07-.54-.02.1-.03.2-.05.3-.09.55-.19 1.11-.3 1.65-.49 2.35-1.2 4.66-2.02 6.92-.45 1.25-.95 2.49-1.45 3.72-.29.7.34-.77-.06.13-.13.3-.26.61-.4.91-.31.71-.63 1.41-.96 2.12-1.33 2.87-2.76 5.7-4.24 8.5-6.93 13.06-14.91 25.56-22.68 38.13-4.02 6.5-8.02 13.01-11.88 19.6-3.51 6-7.04 12.07-9.99 18.37-2.63 5.62-4.7 11.48-6.7 17.35-.96 2.82-1.92 5.64-2.93 8.44-.48 1.34-.98 2.67-1.5 3.99-.25.65-.52 1.29-.78 1.93-.29.71.34-.78-.05.11-.16.37-.33.75-.49 1.12-1.06 2.36-2.24 4.67-3.63 6.86-.33.52-.67 1.03-1.02 1.52-.16.23-.33.45-.5.68-.41.57.19-.28.23-.3-.12.04-.29.37-.37.46-.73.9-1.52 1.75-2.37 2.54-.34.32-1.07.71-1.29 1.11-.02.03.78-.57.42-.32-.12.08-.24.18-.36.27-.27.2-.55.39-.84.57-.44.28-.9.55-1.36.8-.23.12-.47.24-.71.36-.14.07-.28.12-.41.19-.43.23 1.06-.4.29-.12-1.12.41-2.23.77-3.4 1-.23.05-.74.24-.97.17-.05-.01 1-.11.52-.07-.17.01-.34.04-.51.05-.65.06-1.31.1-1.96.11-.69 0-1.38-.01-2.07-.06-.34-.02-.67-.05-1.01-.08l-.59-.06c-.82-.08.64.13.09.01-1.32-.3-2.66-.44-3.96-.85-.2-.06-.4-.14-.6-.21-.91-.31.68.34.2.09-.41-.22-.84-.41-1.24-.65-.34-.2-.65-.5-1-.67.39.2.79.66.26.19-.19-.17-.39-.34-.58-.52-.29-.28-.57-.57-.84-.88-.15-.17-.28-.39-.45-.54.42.39.59.79.14.16-.53-.75-.98-1.55-1.39-2.37-.11-.23-.21-.46-.32-.69-.3-.62.39 1.02.09.22-.19-.5-.38-.99-.54-1.5-.33-.99-.59-2.01-.82-3.03-.12-.53-.22-1.07-.32-1.61-.05-.26-.09-.51-.13-.77-.02-.15-.04-.3-.07-.45-.12-.77.02.34.04.35-.19-.03-.32-3.19-.34-3.52-.17-2.56-.19-5.12-.12-7.69.08-2.72.26-5.43.51-8.14a188.056 188.056 0 0 1 .66-5.98c.05-.36.09-.72.14-1.09.02-.13.08-.62 0 .03-.1.73.01-.08.03-.24 1.32-9.57 3.35-19.01 4.94-28.53.31-1.85.59-3.7.79-5.57.1-1 .15-2 .25-2.99l.12-1.15c.03-.22.05-.44.08-.66.02-.15.12-.87.03-.26-.08.57 0 0 .02-.1.03-.22.07-.45.1-.67.07-.45.14-.9.22-1.35 1.28-7.44 3.51-14.71 6.2-21.76 1.55-4.06 2.52-6.33 4.38-10.32 1.72-3.69 3.56-7.33 5.5-10.91 3.71-6.82 7.81-13.44 12.36-19.74.48-.67.97-1.34 1.47-2 .24-.33.49-.65.73-.97.14-.18.28-.37.42-.55-.53.7-.16.2-.04.06 1.02-1.3 2.06-2.58 3.13-3.84 1.45-1.71 1.8-4.41 0-6.06-1.59-1.46-4.51-1.83-6.06 0Z"/>
  <path d="M317.93 139.22c.53 35.6 14.99 111.89 44.77 139.47-1.61 2.84-20.82-4.73-28.89-8.87 5.96 20.78 22.79 39.37 22.62 40.37-.55 3.15-18.07 2.75-28.62-9.26-11.62-13.23-9.31-59.4-12.89-80.04-1.28-7.38-9.72-43.79-8.02-51.09" fill="#b73517"/>
  <path d="M313.64 139.22c.13 8.4.9 16.79 1.95 25.12 1.31 10.4 3.06 20.74 5.27 30.98 4.54 21.03 10.8 42.11 20.72 61.28 4.73 9.14 10.51 18.08 18.08 25.13l-.67-5.19c.3-.48.92-1.04 1.18-1.2-.47.28 1.31-.45.55-.25-.66.18.58-.1.66-.07-.15-.04-.41.02-.57.02-.39 0-.8-.1-1.19-.08 1.35-.06.64.09.15 0-.29-.05-.58-.11-.87-.17-2.61-.54-5.17-1.37-7.68-2.25-1.5-.52-2.99-1.07-4.47-1.65-.7-.27-1.39-.55-2.08-.83l-1.17-.48c-.23-.1-1.15-.48-.13-.05-2.5-1.06-4.98-2.17-7.4-3.41-1.56-.8-3.34-.76-4.76.34-1.33 1.03-2.02 2.84-1.54 4.5 4.4 15.16 13.45 28.69 22.95 41.12-.63-.82-.55-2.84-.04-3.69-.08.13.83-1.01.51-.67-.13.14-.46.38.22-.15.88-.68-.04-.11-.12-.01.27-.3 1.21-.4.35-.19-.22.05-.44.1-.65.16-.11.02-.21.03-.32.06-.69.16 1.07-.07.54-.07-.34 0-.7.06-1.04.08-.64.03-1.29.01-1.93-.02-.39-.02-.79-.05-1.18-.09a8.13 8.13 0 0 0-.49-.05c-.92-.09 1.06.18.13.01-1.77-.32-3.52-.71-5.23-1.27-.49-.16-.97-.33-1.45-.51-.2-.07-.39-.15-.59-.23-.97-.36.59.3 0 0-.98-.49-1.98-.92-2.94-1.45s-1.87-1.09-2.76-1.71c-.38-.27-.76-.54-1.13-.82.71.53.07.04-.11-.1-.32-.27-.64-.54-.95-.82-.82-.73-1.6-1.51-2.34-2.33-.23-.25-.44-.53-.67-.78-.36-.38.68.95.26.34-.11-.16-.23-.32-.34-.48-.76-1.09-1.4-2.27-1.96-3.47-.09-.18-.55-1.27-.24-.53s-.14-.37-.22-.57c-.29-.76-.57-1.53-.82-2.31-.52-1.59-.96-3.2-1.35-4.83-.43-1.81-.8-3.64-1.13-5.48-.17-.94-.32-1.88-.47-2.83l-.18-1.22c-.04-.3-.36-2.28-.15-1.03-.7-4.04-.94-8.22-1.27-12.3s-.61-8.42-.87-12.63c-.47-7.74-.82-15.5-1.67-23.21-.59-5.38-1.65-10.62-2.74-15.91-1.46-7.02-2.9-14.05-4.15-21.12-.32-1.78-.62-3.57-.91-5.36-.14-.85-.27-1.7-.39-2.55-.06-.39-.11-.78-.17-1.17-.03-.21-.05-.42-.09-.64.08.5.11.86.02.14-.33-2.6-.65-5.23-.64-7.86 0-.44.01-.88.05-1.32.04-.55.35-.96-.07.4.05-.17.06-.36.1-.53.49-2.18-.66-4.74-2.99-5.27-2.17-.49-4.75.65-5.27 2.99s-.41 4.85-.21 7.26c.3 3.58.82 7.14 1.38 10.69 1.19 7.5 2.68 14.95 4.21 22.38 1.07 5.21 2.25 10.4 3.05 15.65.09.59-.15-1.17-.04-.3l.06.49.15 1.25c.1.87.19 1.74.28 2.62.18 1.88.34 3.75.48 5.63.31 4.15.55 8.3.8 12.46.52 8.68 1.02 17.37 2.06 26.01.92 7.68 2.01 15.61 4.94 22.83 1.31 3.22 2.88 6.17 5.24 8.75 3.23 3.54 7.32 6.43 11.7 8.36 4.04 1.78 8.19 2.96 12.6 3.33 2.82.24 6.08.13 8.57-1.39 1.9-1.16 3.15-3.45 2.55-5.69-.22-.83-.68-1.53-1.16-2.22-1.58-2.24-3.27-4.4-4.87-6.62-2.56-3.56-5-7.21-7.26-10.97-1.28-2.13-2.49-4.3-3.63-6.5-.58-1.11-1.13-2.24-1.67-3.37-.28-.6-.56-1.21-.83-1.82-.11-.24-.21-.49-.32-.74-.2-.46-.21-.49-.04-.09-.08-.19-.15-.37-.23-.56-.99-2.43-1.86-4.9-2.59-7.43l-6.3 4.84c4.58 2.34 9.37 4.33 14.18 6.15 4.5 1.7 9.17 3.38 13.98 3.87 2.55.26 5.14-.41 6.58-2.68.98-1.55.68-3.94-.67-5.19-1.49-1.39-2.9-2.85-4.25-4.37-.7-.79-1.38-1.6-2.04-2.43-.25-.31-.51-.82-.84-1.06.73.53.29.38 0 0-.22-.29-.44-.59-.66-.88-2.73-3.72-5.17-7.66-7.39-11.71-2.35-4.28-4.47-8.7-6.41-13.19-.13-.3-.25-.59-.38-.89-.44-1.01.35.85-.07-.17-.25-.6-.5-1.2-.74-1.8-.49-1.22-.98-2.44-1.45-3.66-.96-2.49-1.87-4.99-2.74-7.51-6.88-19.93-11.44-40.68-14.33-61.54-.15-1.05.13.99 0-.06l-.12-.89c-.09-.69-.18-1.37-.26-2.06-.15-1.25-.3-2.5-.44-3.74-.27-2.47-.52-4.94-.72-7.42-.36-4.35-.61-8.71-.68-13.07-.04-2.24-1.95-4.39-4.29-4.29s-4.32 1.88-4.29 4.29Z"/>
  <path d="M69.6 135.37c-.53 35.6-10.05 126.99-39.83 154.58 1.61 2.84 22.74-2.81 30.81-6.95-5.96 20.78-24.17 37.49-24.54 38.45-2.01 5.24 18.07 4.68 28.62-7.34 11.62-13.23 18.08-40.98 9.88-93.22-1.16-7.4 9.72-43.79 8.02-51.09" fill="#b73517"/>
  <path d="M65.31 135.37c-.13 8.73-.67 17.46-1.41 26.16a514.392 514.392 0 0 1-2.69 24.74c-.03.23-.1.84.03-.21l-.06.47-.15 1.09c-.1.73-.2 1.46-.31 2.19-.21 1.47-.43 2.95-.65 4.42-1.82 11.97-4.07 23.89-6.98 35.64-1.41 5.7-2.99 11.36-4.78 16.96-.86 2.68-1.77 5.34-2.74 7.97-.47 1.28-.96 2.56-1.46 3.83-.25.62-.5 1.25-.75 1.87-.11.26-.22.53-.33.79-.12.29-.11.64.1-.24-.04.17-.15.36-.22.52-1.97 4.58-4.17 9.08-6.75 13.35a71.651 71.651 0 0 1-3.77 5.68c-.16.22-.33.44-.49.66-.56.75.47-.59.03-.04-.33.42-.66.83-1 1.24-.66.8-1.35 1.58-2.06 2.33s-1.4 1.44-2.13 2.12c-1.34 1.25-1.66 3.64-.67 5.19 2.67 4.22 8.98 2.86 13.04 2.13 5.3-.95 10.53-2.44 15.61-4.22 2.73-.96 5.45-2.01 8.03-3.32l-6.3-4.84a58.855 58.855 0 0 1-2.04 5.88c-.1.24-.19.48-.29.72.36-.85-.27.6-.34.75-1.09 2.42-2.32 4.78-3.66 7.08s-2.63 4.31-4.07 6.39c-.64.93-1.3 1.85-1.98 2.76-.32.44-.65.87-.98 1.3-.66.87.56-.71-.1.14-.19.24-.38.49-.57.73-2.21 2.79-4.54 5.47-6.96 8.09-1.38 1.49-3.19 3-3.67 5.05-.96 4.13 2.43 7.13 6.18 7.8s7.85.21 11.62-.75c8.6-2.19 15.95-7.24 21.08-14.44 8.11-11.39 10.61-26.25 11.51-39.88.68-10.41.28-20.87-.67-31.24-.61-6.71-1.46-13.4-2.47-20.06-.07-.5-.59-2.03-.37-2.42-.04.08.11 1.51.09.5-.01-.49-.02-.98 0-1.47.02-.55.07-1.09.12-1.64.03-.31.06-.61.1-.92.02-.19.06-.39.07-.58-.12 1.45-.09.67-.04.34 1.12-7.53 2.9-14.96 4.49-22.41.83-3.87 1.64-7.74 2.33-11.64.55-3.15 1.11-6.37 1.19-9.58.03-1.23-.06-2.49-.33-3.69-.49-2.19-3.15-3.68-5.27-2.99-2.3.74-3.51 2.92-2.99 5.27.18.83-.08-.16-.04-.5-.02.19.04.42.05.62.03.54.02 1.08 0 1.62-.02.59-.07 1.17-.12 1.76-.03.32-.06.65-.1.97-.03.24-.19 1.52-.08.67s-.04.3-.08.52c-.06.38-.11.76-.18 1.14-.14.89-.29 1.78-.45 2.66-.32 1.81-.68 3.61-1.04 5.41-1.55 7.64-3.36 15.23-4.8 22.89-.59 3.12-1.15 6.28-1.37 9.46-.07 1.09-.05 2.13.1 3.21.2 1.51.45 3.01.68 4.52.25 1.69.47 3.3.62 4.47 1.43 10.98 2.36 22.05 2.32 33.13-.02 4.52-.2 9.04-.61 13.54-.09.94-.18 1.88-.29 2.82-.06.48-.11.96-.17 1.44-.07.52-.39.81 0 0-.11.22-.08.6-.12.84-.27 1.82-.58 3.64-.94 5.45-.66 3.27-1.5 6.5-2.58 9.66-.22.66-.46 1.31-.71 1.96-.13.33-.26.67-.39 1-.17.43-.82 1.44-.09.23-.71 1.17-1.16 2.57-1.8 3.79a42.94 42.94 0 0 1-2.87 4.69c-.17.24-.34.47-.51.7-.1.14-.21.27-.31.41-.4.54.7-.88.25-.33-1.07 1.3-2.17 2.55-3.43 3.68-.37.33-.76.65-1.14.97-.85.72.73-.5-.18.14-.18.13-.35.26-.53.38-.97.69-1.99 1.31-3.03 1.89-.93.51-1.88.94-2.84 1.39 1.06-.5-.42.16-.69.26-.56.21-1.13.41-1.7.59-1.79.57-3.59.84-5.4 1.24 1.38-.31.03-.02-.35.01s-.78.06-1.17.07c-.78.03-1.54 0-2.32-.06-1.05-.07 1.05.23.05 0-.24-.05-.48-.1-.72-.17-.22-.06-1.12-.41-.25-.05s.03-.07-.17-.14c-.4-.14.94.86.37.24.9.97.65.9.45.54-.07-.12.47 1.22.33.76-.13-.42.07 1.42.1.56-.05 1.32-.19 1.17-.08.77.13-.46-.57 1.19-.34.79-.06.11-.92 1.09-.25.36.24-.27.49-.53.73-.8 1.95-2.1 3.88-4.22 5.73-6.41 6.29-7.45 11.97-15.58 15.81-24.59 1.11-2.61 2.12-5.25 2.91-7.98.48-1.66-.2-3.48-1.54-4.5-1.41-1.09-3.19-1.13-4.76-.34-.53.27-1.06.52-1.6.77-.29.13-.59.28-.9.39 1.28-.46.1-.05-.17.06-1.42.57-2.85 1.09-4.29 1.58-3.04 1.03-6.13 1.94-9.24 2.71-1.52.38-3.04.72-4.58 1.02-.61.12-1.22.23-1.84.33-.31.05-.67.15-.99.15 1.36.02.36-.05-.02 0-1.02.11-2.02.12-3.05.11-.92 0 .97.27.43.07-.12-.04-.34-.11-.47-.11-.55-.02 1.17.61.57.23.72.46.74.47 1.2 1.2l-.67 5.19c6.89-6.41 11.85-14.81 15.8-23.27 4.9-10.5 8.55-21.56 11.52-32.76 3.14-11.8 5.54-23.78 7.49-35.83s3.39-23.57 4.49-35.41c.85-9.2 1.49-18.42 1.72-27.65.02-.9.04-1.79.05-2.69.03-2.24-2-4.39-4.29-4.29s-4.25 1.88-4.29 4.29Z"/>
  <path d="M83.39 358.05c-4.71-42.26-7.45-84.73-8.21-127.24-.78-43.68.25-88.84-16.67-129.11 14.45 3.85 51.99 20.43 57.42 21.27 4.69.73 40.56-10.02 66.3-11.71 55.71-3.67 86.55 7.97 88.54 8.06 2.28.1 4.46-.86 6.54-1.8 13.01-5.9 46.01-20.37 59.02-26.27-4.46 16.02-24.37 63.39-26.55 68.18-6.23 13.63-2.23 29.48 1.26 44.05 13.72 57.27 14.87 98.96-6.16 153.97" fill="#fff"/>
  <path d="M87.67 358.05c-3.93-35.31-6.49-70.76-7.67-106.26-1.09-32.81.09-65.89-4.08-98.53-2.31-18.04-6.24-35.87-13.27-52.7l-5.27 5.27c8.96 2.41 17.64 6.05 26.26 9.45s17.27 7.04 26.02 10.22c2.2.8 4.59 1.81 6.97 1.79 3.24-.03 6.61-.93 9.76-1.6 11.14-2.37 22.21-5.05 33.41-7.11 3.18-.59 6.37-1.13 9.58-1.61l2.47-.36c1.35-.19-.85.11.5-.07.27-.03.54-.07.81-.1 1.6-.2 3.21-.39 4.81-.54 7.4-.72 14.86-.97 22.29-1.05 12.78-.14 25.58.5 38.26 2.13l.67.09c1.13.15-.94-.13.17.02l1.92.27a213.55 213.55 0 0 1 9.96 1.68c3.32.64 6.62 1.36 9.89 2.18 3.96.98 8.1 2.84 12.23 2.17 3-.49 5.75-2.01 8.5-3.24l6.03-2.7c4.97-2.22 9.95-4.42 14.93-6.63 10.1-4.47 20.22-8.93 30.3-13.45 1.79-.8 3.58-1.61 5.37-2.42l-6.3-4.84c-1.56 5.57-3.59 11.03-5.61 16.45-2.65 7.12-5.43 14.18-8.26 21.23-2.58 6.44-5.21 12.86-7.89 19.26-.52 1.26-1.05 2.51-1.58 3.77-.42 1 .28-.66.01-.03-.11.25-.21.5-.32.76l-.66 1.56c-.56 1.32-1.13 2.65-1.71 3.96-2.23 4.99-3.49 10.1-3.84 15.57-.36 5.75.33 11.54 1.33 17.2 2.01 11.42 5.22 22.62 7.47 34 4.06 20.5 6.43 40.9 5.4 62.15-.25 5.13-.69 10.26-1.33 15.35-.04.3-.08.6-.11.89-.01.09-.11.84-.03.2-.08.6-.17 1.19-.25 1.79-.2 1.35-.41 2.7-.63 4.04-.43 2.57-.9 5.14-1.43 7.69-2.22 10.84-5.28 21.5-8.93 31.95-.98 2.81-2.01 5.61-3.08 8.4-.8 2.1.88 4.79 2.99 5.27 2.45.56 4.41-.75 5.27-2.99 7.91-20.73 13.55-42.25 15.53-64.39 1.88-20.96.22-42.01-3.31-62.71-1.93-11.33-4.51-22.51-7.14-33.7-.67-2.83-1.3-5.66-1.85-8.52s-.9-5.12-1.14-7.68c-.52-5.5-.43-10.61.88-15.58 1.13-4.27 3.3-8.54 5.15-12.91 2.51-5.96 4.98-11.94 7.41-17.94 5.28-13.02 10.69-26.09 14.95-39.49.35-1.09.68-2.18.98-3.27.46-1.65-.18-3.49-1.54-4.5-1.48-1.11-3.12-1.08-4.76-.34-18.82 8.53-37.79 16.71-56.63 25.19-.8.36-1.59.72-2.38 1.08-1.31.59-2.92 1.13-4.14 1.22-1.06.08 1.38.33.55.09-.19-.06-.39-.09-.58-.15-1.57-.41-3.14-.88-4.71-1.3-6.77-1.8-13.64-3.2-20.56-4.27-11.7-1.82-23.52-2.81-35.36-3.08-14.31-.32-28.68.21-42.85 2.31-12.17 1.81-24.18 4.5-36.17 7.19-4.07.91-8.15 1.87-12.26 2.59-.34.06-.69.12-1.03.17-.82.13-.72.05.07 0-.49.03-.99.1-1.48.12-.17 0-.39-.05-.55-.02 1.05-.24 1.28.24.67.07-.44-.12-.89-.22-1.33-.36-7.73-2.34-15.22-5.72-22.71-8.71-9.26-3.7-18.53-7.48-28-10.61-1.67-.55-3.35-1.08-5.05-1.53-2.84-.76-6.59 2.13-5.27 5.27 12.5 29.88 15.07 61.65 15.92 93.64.44 16.59.47 33.19.95 49.78.51 17.48 1.35 34.95 2.53 52.39 1.34 19.83 3.11 39.64 5.31 59.39.25 2.22 1.79 4.4 4.29 4.29 2.11-.09 4.55-1.9 4.29-4.29Z"/>
  <path d="M190.53 244.9c-3.88-3.49-7.86-6.87-11.56-10.55-1.9-1.9-3.74-3.87-5.4-5.99.37.48.07.09-.12-.18l-.54-.75c-.34-.49-.68-.99-.99-1.5-.33-.54-.65-1.09-.95-1.66-.13-.25-.26-.5-.38-.75-.11-.22-.5-1.17-.09-.18l-2.99 5.27c2.51-.79 5.07-1.41 7.65-1.93a126.974 126.974 0 0 1 5.77-1c.4-.06.79-.11 1.19-.17 1.32-.19-.87.11.46-.06 5.72-.73 11.48-1.19 17.24-1.5 2.56-.14 5.12-.25 7.68-.34.68-.02 1.36-.06 2.04-.05.22 0 1.09.12.28-.03l.39.09c.48.15.51.16.08.03-.04-.06-.6-.72-.16-.12.58.79-.46-.83-.02.03-.44-.86-.22-.54-.14-.25.1.46.09.36-.01-.3.02.2.02.39.02.59 0 .07.02.52-.04.61l.06-.52c-.04.21-.09.42-.14.63-.07.25-.68 1.81-.23.85-.53 1.15-1.2 2.19-1.98 3.2.52-.68-.3.37-.33.41-.17.21-.34.42-.52.63-.48.57-.96 1.13-1.46 1.68a55.374 55.374 0 0 1-6.8 6.35c-.61.48.79-.57-.26.2l-1.14.84c-.66.47-1.33.93-2.01 1.37-2.78 1.8-5.71 3.35-8.76 4.64-1.76.75-2.36 3.16-1.97 4.84.51 2.17.94 4.36 1.28 6.56.2 1.3.2 1.3.35 2.65.12 1.11.22 2.22.3 3.33.31 4.45.26 8.91-.11 13.36l4.29-4.29c-6.97.16-13 4.2-18.5 8.09-2.73 1.94-5.42 3.93-8.29 5.66-1.34.81-2.71 1.54-4.13 2.18 1.07-.47-.24.08-.45.15-.29.1-.59.2-.88.29-.77.23-1.56.41-2.36.53-2.22.34-3.65 3.25-2.99 5.27.78 2.42 2.89 3.36 5.27 2.99 6.48-1 12.08-5.34 17.27-9.04 2.69-1.92 5.39-3.85 8.31-5.42.68-.37 1.38-.7 2.08-1.03.81-.38-.74.26.16-.07.4-.14.79-.29 1.19-.42.63-.2 1.28-.37 1.93-.5.15-.03.3-.06.45-.08.48-.07.4-.06-.25.03.09-.13 1.02-.06 1.19-.07 2.46-.06 4.09-1.93 4.29-4.29.79-9.43.03-18.96-2.12-28.17l-1.97 4.84c6.12-2.6 11.74-6.28 16.68-10.73 2.36-2.12 4.53-4.45 6.5-6.94s3.88-5.25 4.43-8.54c.61-3.63-.36-7.41-3.7-9.4-3.04-1.81-6.93-1.22-10.31-1.08-6.18.26-12.36.66-18.51 1.33-6.92.76-13.91 1.75-20.57 3.85-2.01.63-3.89 3.06-2.99 5.27 4.31 10.58 13.99 17.9 22.24 25.34 1.66 1.5 4.44 1.77 6.06 0 1.5-1.64 1.78-4.46 0-6.06Z"/>
  <path d="M190.81 279.45c1.17.08-.71-.2.04 0 .24.06.48.1.72.16.33.09 1.44.67 1.72.57-.61-.26-.7-.3-.27-.11l.51.24c.26.12.51.25.77.39.62.32 1.22.67 1.82 1.04 2.66 1.62 5.14 3.52 7.63 5.38 4.81 3.58 9.99 7.58 16.19 8.02 2.24.16 4.38-2.08 4.29-4.29-.11-2.46-1.88-4.11-4.29-4.29-1.17-.08.71.2-.04 0-.24-.06-.48-.1-.72-.16-.33-.09-1.44-.67-1.72-.57.61.26.7.3.27.11l-.51-.24c-.26-.12-.51-.25-.77-.39-.62-.32-1.22-.67-1.82-1.04-2.66-1.62-5.14-3.52-7.63-5.38-4.81-3.58-9.99-7.58-16.19-8.02-2.24-.16-4.38 2.08-4.29 4.29.11 2.46 1.88 4.11 4.29 4.29ZM246.72 233.3c16.05-3.54 32.18-6.69 48.39-9.43 16.27-2.76 32.06-5.04 48.14-6.95 9.26-1.1 18.53-2.07 27.81-2.91 2.23-.2 4.4-1.83 4.29-4.29-.1-2.15-1.89-4.5-4.29-4.29-16.75 1.52-33.46 3.47-50.11 5.81-16.36 2.3-32.65 5-48.88 8.1-9.24 1.77-18.45 3.67-27.63 5.69-2.19.48-3.68 3.15-2.99 5.27.75 2.3 2.92 3.51 5.27 2.99ZM247.39 246.4c26.8-.91 53.64-.76 80.43.48 7.61.35 15.21.79 22.81 1.32 2.24.15 4.38-2.08 4.29-4.29-.11-2.45-1.88-4.12-4.29-4.29-26.76-1.85-53.58-2.62-80.4-2.32-7.61.09-15.23.26-22.84.52-2.24.08-4.39 1.92-4.29 4.29s1.89 4.37 4.29 4.29Z"/>
  <path d="M222.22 181.51c-10.46-10.59 27.01-17.86 41.86-16.95 4.17.26 6.84.97 8.95 2.3 6.15 3.86 6.54 12.64 1.1 17.44-6.97 6.15-17.88 13.55-28.24 11.37-8.51-1.8-16.66-7.06-23.68-14.16ZM167.76 181.51c10.46-10.59-27.01-17.86-41.86-16.95-4.17.26-6.84.97-8.95 2.3-6.15 3.86-6.54 12.64-1.1 17.44 6.97 6.15 17.88 13.55 28.24 11.37 8.51-1.8 16.66-7.06 23.68-14.16Z" fill="#d05b76"/>
  <path d="M225.46 185.66c4.26 7.01 11.23 11.87 19.4 12.87 6.89.85 14.14-1.8 18.86-6.9 2.64-2.85 4.56-6.35 5.46-10.14.51-2.18-.68-4.74-2.99-5.27-2.19-.5-4.72.66-5.27 2.99-.2.86-.47 1.68-.76 2.51-.18.44-.16.4.05-.12-.09.2-.18.39-.28.59-.19.39-.4.77-.62 1.14-.16.28-.34.55-.52.82-.12.18-1 1.3-.28.44-.55.67-1.13 1.31-1.76 1.9-.27.25-.61.48-.85.75-.24.2-.16.14.23-.17-.17.13-.35.26-.53.38-.72.5-1.47.95-2.26 1.34-.2.1-.4.19-.6.28.52-.21.55-.22.1-.04-.31.12-.63.23-.95.34-.87.28-1.75.47-2.64.65-.49.08-.46.07.11-.01-.23.03-.47.05-.7.06-.47.03-.95.05-1.42.05-.36 0-.73-.01-1.09-.04-.2-.01-1.74-.22-.71-.05-1-.17-2-.38-2.97-.69-.35-.11-.7-.24-1.05-.37.9.33-.54-.26-.7-.34-.92-.47-1.81-1-2.66-1.6-.22-.15-.43-.31-.64-.46.35.27.32.24-.06-.07-.3-.26-.6-.52-.9-.79-.79-.73-1.5-1.52-2.2-2.32-.31-.39-.34-.41-.07-.07-.16-.21-.32-.43-.47-.65-.3-.44-.59-.88-.86-1.34-1.16-1.91-3.89-2.81-5.86-1.54s-2.78 3.81-1.54 5.86Z"/>
  <path fill="#ff0013" d="M140.43 117.86 92.16 241.84l47.94-26.99-34.95 96.9 123.33-162.62-71.45 51 51.51-89.39-68.11 7.12z"/>
  <path fill="#00b8d5" d="M127.89 120.49 92.16 241.84l51.12-123.98-15.39 2.63zM133.37 218.64l9.3-5.16-37.52 98.27 28.22-93.11z"/>
  <path d="M133.37 237.56c-15.06.92-30.12 1.78-45.18 2.69-15.94.96-31.88 1.95-47.81 3.1-8.16.59-16.32 1.22-24.46 1.94-2.23.2-4.4 1.83-4.29 4.29.1 2.15 1.89 4.5 4.29 4.29 15.03-1.33 30.08-2.38 45.13-3.35 15.94-1.04 31.88-1.98 47.82-2.91 8.17-.48 16.33-.96 24.5-1.46 2.23-.14 4.39-1.87 4.29-4.29-.1-2.2-1.89-4.43-4.29-4.29ZM114.63 222.36c-26.11 1.44-52.55 1.6-78.52-1.83.92.12-.44-.06-.51-.07-.55-.08-1.09-.15-1.64-.23-.81-.12-1.62-.24-2.44-.37-1.73-.27-3.46-.57-5.19-.88-3.47-.64-6.91-1.37-10.33-2.21-2.17-.54-4.75.7-5.27 2.99s.67 4.7 2.99 5.27c12.85 3.17 26.07 4.82 39.26 5.78s26.91 1.19 40.37.93c7.09-.14 14.19-.41 21.27-.8 2.23-.12 4.39-1.88 4.29-4.29-.1-2.22-1.89-4.42-4.29-4.29ZM117.57 185.15c2.32 6.79 8.56 13.19 15.84 14.38 6.49 1.05 13.23-.48 19-3.55 3.17-1.68 5.91-3.96 8.03-6.85 1.33-1.81.36-4.86-1.54-5.86-2.23-1.18-4.44-.4-5.86 1.54-.43.58.62-.71-.18.19-.25.28-.51.55-.78.81-.24.24-.5.46-.75.68-.19.17-1.11.83-.18.17-1.3.92-2.64 1.75-4.08 2.44-.19.09-1.53.66-.49.24-.31.12-.62.25-.93.36a29.082 29.082 0 0 1-4.83 1.34c-.23.04-1.7.24-.49.1-.38.04-.75.08-1.13.11-.79.06-1.59.09-2.38.06-.36-.01-.72-.05-1.08-.06-1.14-.06.65.16-.21-.01-.76-.15-1.51-.31-2.25-.56l-.27-.09c-.43-.17-.35-.13.25.12 0 0-.9-.46-.97-.5-1.67-.96-2.52-1.66-4.08-3.42-.08-.09-.82-.97-.38-.41-.33-.43-.64-.88-.92-1.34s-.52-.93-.78-1.39c-.21-.46-.22-.47-.04-.05-.09-.24-.18-.48-.26-.72-.72-2.12-2.98-3.74-5.27-2.99-2.1.68-3.77 3-2.99 5.27Z"/>
  <path d="m238.71 128.88-12.34-27.16c12.42 15.7 28.76 16.35 42.36 17.67 0 0 11.85-.32 14.37 11.13 4.85 22.04 17.83 22.41 20.41 46.07 18.21-15.03-8.99-50.78-7.11-64.9 1.78-13.35 2.48-18.82 2.6-32.27.2-22.19-14.83-44.76-37.03-49.39-22.2-4.64-31.74.77-51.74 11.25.23-26.8-36.84-30.1-49.92-37.03 3.68 8.01 17.58 35.43 9.9 30.78-21.81-13.21-43.66-16.66-55.6-8.25 4.64 5.1 21.32 22.31 16.04 24.28 0 0-47.87-12.75-65.91 28.47l31.89-1.09c-7.14 6.59-22.64 14.96-24.83 25.28 0 0 13.14-2.55 15.32 7.01 4.42 19.4-20.16 53.55-20.16 53.55 7.98 8.26 33.26-22.13 36.7-39.54l26.85 10.63c-7.32-10.21-8.64-16.24-9.49-26.01 11.2 19.49 27.42 33.73 61.06 29.88-2.8-6-5.73-6.68-7.95-11.43 0 0 9.47 1.17 21.68 4.55 0 0 2.81-6.82 42.89-3.47Z" fill="#b73517"/>
  <path d="M242.41 126.72c-3.6-7.93-7.2-15.85-10.8-23.78-.51-1.13-1.02-2.26-1.54-3.38l-6.73 5.19c6.36 7.96 15.08 13.39 24.9 15.98 6.87 1.81 14.16 2.56 21.24 2.96.35.02.7.08 1.05.1-1.65-.07-.69-.1-.25-.02.28.05.56.1.83.17.56.13 1.11.28 1.66.46.31.1.66.29.98.36-1.22-.26-.31-.13.18.11.67.34 1.26.78 1.89 1.16.48.29-.83-.72-.19-.14.12.11.25.22.38.33.35.32.66.67 1 1.01.59.61-.18-.02-.08-.14 0 0 .35.48.32.45.27.39.52.8.75 1.22.19.36.55 1.22.21.35.24.62.45 1.23.62 1.87 1.22 4.64 2.5 9.1 4.69 13.41 1.63 3.22 3.68 6.19 5.8 9.11 2.28 3.16 4.57 6.33 6.29 9.84.24.49.46.98.69 1.48.32.69-.03-.07-.07-.18.12.29.23.58.35.87.44 1.13.82 2.28 1.15 3.44.37 1.29.68 2.59.94 3.91.13.65.24 1.3.35 1.95l.1.66c-.04-.29-.03-.2.03.27.04.29.07.58.1.87.2 1.75.92 3.19 2.63 3.92s3.33.25 4.68-.89c10.88-9.12 7.8-24.66 3.86-36.4-2.09-6.22-4.67-12.26-6.9-18.44-.93-2.57-1.81-5.18-2.42-7.85-.13-.58-.25-1.16-.35-1.74-.07-.43-.03-1.25 0 .16 0-.28-.07-.57-.09-.85-.09-1.12-.05-2.2.1-3.31 1.14-8.63 2.19-17.22 2.44-25.93.13-4.71.15-9.33-.49-14-.55-4.02-1.53-7.96-2.96-11.76-5.96-15.82-18.76-29.42-35.58-33.4-8.78-2.08-18-2.8-26.89-1.01-8.01 1.61-15.48 5.34-22.69 9.06-2.18 1.12-4.35 2.27-6.52 3.4l6.45 3.7c.02-5.3-1.28-10.62-4.11-15.13s-6.46-7.72-10.66-10.5c-7.97-5.29-17.36-8.15-26.39-11.05-2.17-.7-4.33-1.39-6.47-2.17-.47-.17-.95-.35-1.42-.53-.24-.09-.48-.19-.72-.28-.19-.08-1.06-.44-.27-.11s.02 0-.16-.07c-.22-.1-.43-.19-.64-.29-.4-.19-.8-.39-1.2-.6-1.63-.86-3.88-.76-5.19.67s-1.5 3.39-.67 5.19c2.06 4.48 4.25 8.9 6.28 13.4.6 1.32 1.19 2.64 1.76 3.96.14.32.26.66.42.98-.56-1.13-.05-.12.07.18.27.66.54 1.32.8 1.99.82 2.09 1.64 4.21 2.13 6.4.05.2.08.4.13.6.13.6-.18.63-.05-.46-.03.26.02.64.04.91.05.72.22-1.18.09-.69-.17.64.55-1.11.3-.68.57-.97 1.8-1.77 3.04-1.74-.58-.01 1.37.24.73.1s.47.17.58.27c-.58-.48-1.42-.81-2.06-1.19-2.28-1.34-4.62-2.6-6.99-3.76-8.65-4.25-17.82-7.4-27.43-8.46-8.14-.89-17.13.08-24.02 4.86-2.33 1.62-2.83 4.57-.87 6.73 2.78 3.05 5.62 6.06 8.32 9.19.8.93 1.6 1.87 2.37 2.82.38.47.76.94 1.13 1.41.03.04.2.32.25.32 0 0-.53-.7-.26-.33.21.28.43.56.64.85 1.2 1.62 2.3 3.28 3.21 5.08.37.74-.14-.39-.12-.3.05.2.15.4.21.6.05.16.07.34.12.49.19.48-.08-1.23-.08-.57 0 .81.14-.67.12-.58-.15.66.22-.47.29-.6-.33.61.76-.86.38-.49-.1.1.96-.69.67-.52-.31.18-.68.29.68-.26h2.28c-5.96-1.58-12.4-2.07-18.53-2.01-12.54.13-25.4 3.33-35.51 11.02-7.36 5.6-12.99 12.99-16.71 21.44-.64 1.45-.84 2.89 0 4.33.74 1.27 2.21 2.17 3.7 2.12 9.33-.32 18.65-.64 27.98-.95 1.3-.04 2.61-.09 3.91-.13l-3.03-7.32c-1.01.93-2.07 1.8-3.15 2.65-.18.14-1.12.87-.24.19l-1.02.78-1.85 1.4c-2.8 2.1-5.61 4.2-8.29 6.46-4.89 4.12-9.95 9.25-11.39 15.7-.75 3.34 2.02 5.9 5.27 5.27.08-.02.17-.03.25-.04.95-.15-1.41.15-.21.03.88-.09 1.77-.14 2.65-.14.54 0 1.08.02 1.61.07.17.01 1.25.15.39.03s.32.06.52.1c.59.12 1.18.27 1.75.46.14.05.29.11.43.15.69.22-.42-.15-.39-.17.09-.07.91.46 1.02.53.12.07.75.37.77.51 0 .05-.84-.77-.32-.23.11.11.23.21.35.32.15.15.6.5.64.71 0 0-.6-.92-.23-.27.1.18.23.36.33.54.08.15.15.32.24.46.28.46-.25-.82-.12-.28.09.37.24.73.33 1.1.08.32.14.64.2.96.03.16.05.31.08.47.14.8.07-.16-.04-.3.26.32.14 1.56.15 1.97.03.77.02 1.53-.01 2.3a37.429 37.429 0 0 1-.22 2.64c-.04.39-.24.45.05-.33-.13.36-.13.85-.19 1.22-.55 3.19-1.43 6.31-2.49 9.37-.54 1.57-1.14 3.12-1.77 4.65-.08.19-.16.37-.23.56-.22.55.32-.73.08-.19l-.48 1.11c-.34.78-.7 1.56-1.06 2.33-2.56 5.47-5.5 10.76-8.67 15.9-1.62 2.62-3.29 5.23-5.08 7.73-1.1 1.53-.58 3.94.67 5.19 6.26 6.29 15.28.1 20.42-4.42 7.25-6.37 13.3-14.55 17.9-23 2.38-4.38 4.55-9.1 5.55-14.02l-5.27 2.99 23.49 9.3c1.12.44 2.24.89 3.36 1.33 3.4 1.35 6.93-3.36 4.84-6.3-1.57-2.2-3.06-4.46-4.36-6.83-.53-.98-1.03-1.97-1.49-2.99-.18-.39-.28-.66-.05-.1-.09-.21-.17-.43-.26-.64-.2-.52-.4-1.05-.58-1.59a40.8 40.8 0 0 1-1.45-5.76c-.1-.56-.18-1.11-.27-1.67-.08-.5-.03-.23.01.11-.04-.29-.07-.58-.11-.88-.14-1.17-.25-2.33-.35-3.5l-7.99 2.16c4.46 7.72 9.91 15.09 16.96 20.64 8.13 6.4 17.59 10.05 27.81 11.39 6.64.87 13.34.72 19.98-.03 3.34-.38 5.19-3.32 3.7-6.45-1.2-2.52-2.81-4.74-4.66-6.83-.33-.37-.66-.73-.99-1.1-.16-.18-.32-.37-.48-.55-.09-.1-.65-.75-.23-.26s-.18-.26-.21-.3a15.827 15.827 0 0 1-1.37-2.39l-3.7 6.45c.79.1-1.27-.18-.63-.09a142.98 142.98 0 0 1 5.9.97c5.14.95 10.23 2.13 15.27 3.52 2.45.67 4.37-.85 5.27-2.99-.83 1.97-.59 1.3-.4.97.23-.4.52-.06-.56.71.15-.11.36-.33.48-.48.35-.4-1.15.8-.64.5.08-.05.15-.11.22-.15.2-.12.4-.25.61-.36.24-.13.49-.23.73-.36.64-.32-1.3.5-.47.2.18-.07.36-.14.54-.2 2.12-.76 4.32-1.06 6.52-1.47-1.62.3-.26.04.14-.01s.77-.09 1.16-.13c.93-.09 1.86-.17 2.79-.23 2.15-.14 4.3-.21 6.45-.23 7.07-.08 14.15.33 21.2.91 2.24.19 4.38-2.1 4.29-4.29-.11-2.48-1.89-4.09-4.29-4.29-10.67-.88-21.63-1.59-32.3-.24-4 .51-8.66 1.11-12.04 3.53-1.29.93-2.07 1.87-2.69 3.33l5.27-2.99c-7.48-2.06-15.11-3.75-22.82-4.7-1.45-.18-3.01.94-3.7 2.12-.82 1.41-.68 2.91 0 4.33 1.06 2.21 2.6 4.09 4.22 5.9.34.38.67.75 1 1.13.17.2.34.41.51.61-.38-.45-.22-.3.05.07.84 1.17 1.54 2.42 2.16 3.72l3.7-6.45c-5.83.66-11.72.87-17.56.31-.64-.06-1.27-.14-1.91-.21-.7-.08 1.05.16-.05 0l-1-.15c-1.25-.2-2.48-.44-3.71-.73-2.27-.52-4.51-1.19-6.7-2.01-.43-.16-1-.29-1.39-.55.9.59.22.09-.06-.03-.27-.12-.54-.24-.8-.36-.96-.45-1.91-.92-2.84-1.43a48.59 48.59 0 0 1-5.46-3.49l-.45-.33c-.79-.59.75.61-.01-.01-.36-.29-.72-.58-1.08-.88-.85-.71-1.67-1.45-2.47-2.21-1.47-1.4-2.86-2.89-4.18-4.43-.42-.5-.83-1-1.24-1.5l-.35-.44c-.47-.58.55.73-.18-.24-.68-.9-1.33-1.81-1.97-2.74-1.4-2.04-2.7-4.14-3.94-6.28-.91-1.58-3.06-2.55-4.84-1.97-1.69.55-3.31 2.22-3.15 4.13.41 4.71.95 9.48 2.47 13.98 1.74 5.14 4.47 9.8 7.6 14.19l4.84-6.3-23.49-9.3c-1.12-.44-2.24-.89-3.36-1.33-2.05-.81-4.85.9-5.27 2.99-.37 1.83-.92 3.62-1.57 5.36-.16.41-.32.82-.48 1.24-.35.9.4-.92.01-.02-.09.21-.18.42-.28.63-.44.99-.91 1.97-1.41 2.94-2.06 4.06-4.5 7.93-7.18 11.6-.3.42-.61.83-.92 1.24-.18.25-.37.49-.56.73.69-.9.05-.07-.08.1-.69.87-1.39 1.72-2.11 2.57-1.43 1.68-2.93 3.3-4.51 4.84-.64.62-1.29 1.24-1.96 1.83-.38.34-.77.68-1.17 1-.13.11-.26.21-.39.32-.27.22-.98 1.02-.09.08-1.03 1.08-2.73 1.93-4.05 2.6-.17.09-.35.17-.52.25-.94.47.83-.29.17-.07-.33.11-.66.24-.99.34-.31.09-.64.13-.95.23-.66.21 1.21-.06.53-.07-.15 0-.3.03-.45.03h-.43c-.65 0-.45-.37.44.08-.2-.1-.57-.16-.78-.21-.61-.13 1.03.59.53.22-.1-.07-.24-.14-.35-.2-.47-.23-.09-.48.42.35-.08-.14-.3-.27-.42-.38l.67 5.19c5.22-7.26 9.76-15.15 13.57-23.22 3.06-6.49 5.83-13.32 7.03-20.42 1.11-6.54 1.62-15.39-4.14-20.02-4.56-3.67-10.85-4.27-16.46-3.19l5.27 5.27c.15-.65.35-1.28.56-1.91.17-.43.14-.36-.1.22.08-.18.16-.36.25-.53.13-.27.27-.53.41-.79.34-.62.72-1.23 1.12-1.81.18-.26.37-.51.55-.76-.66.93.18-.22.32-.39 1.97-2.36 4.26-4.43 6.62-6.39.63-.52 1.27-1.04 1.92-1.55l.83-.65c-.79.62.22-.17.38-.29 1.22-.93 2.45-1.85 3.68-2.78 2.45-1.84 4.92-3.68 7.18-5.75 2.71-2.49.62-7.44-3.03-7.32-9.33.32-18.65.64-27.98.95-1.3.04-2.61.09-3.91.13l3.7 6.45c1.18-2.67 2.53-5.26 4.1-7.72.7-1.1 1.45-2.17 2.22-3.21.64-.86-.32.38.17-.21.19-.23.38-.47.57-.7.41-.49.83-.98 1.26-1.45a45.43 45.43 0 0 1 5.33-5.05c.15-.12.74-.72.32-.26s.16-.12.32-.24c.5-.37 1.02-.73 1.53-1.08.91-.61 1.84-1.2 2.79-1.75a48.973 48.973 0 0 1 4.46-2.27c.15-.07.96-.4.3-.14s.25-.1.42-.17a52.94 52.94 0 0 1 6.05-2.01c1.93-.52 3.89-.93 5.86-1.25.49-.08.99-.12 1.47-.22-.47.1-.93.12-.24.04l.78-.09c.94-.11 1.89-.19 2.84-.26 3.38-.24 6.78-.23 10.16 0 1.41.09 2.81.23 4.21.4.29.03.57.08.86.11-.15-.02-1.28-.18-.59-.08.18.03.35.05.53.08.5.07 1.01.15 1.51.24 1.24.21 2.46.49 3.69.75 4.94 1.04 7.57-4.04 6.2-8.19s-4.62-8.06-7.46-11.52-5.86-6.75-8.9-10.03c-.51-.55-1.02-1.1-1.53-1.66l-.87 6.73c.63-.44 1.27-.84 1.94-1.21.34-.19.68-.37 1.03-.54.17-.09.35-.17.53-.25.13-.06.27-.12.4-.18.29-.13.18-.08-.34.15.43-.42 1.69-.62 2.27-.79.89-.27 1.8-.49 2.71-.67.42-.08.84-.15 1.26-.22.23-.04.8-.19-.18.02.21-.04.44-.05.65-.08.94-.1 1.89-.16 2.84-.2 2.01-.07 4.03.02 6.03.22.49.05.99.11 1.48.17.67.08-.68-.11-.02 0 .25.04.5.08.76.12 1.09.18 2.18.38 3.26.62 2.28.49 4.53 1.11 6.75 1.82 2.36.76 4.7 1.62 6.99 2.58-.18-.08-.58-.25.23.1.28.12.56.24.84.37.56.25 1.12.51 1.68.77 1.28.6 2.54 1.23 3.8 1.88 2.23 1.16 4.34 2.5 6.55 3.69 1.12.6 2.23 1 3.51 1 3.34 0 5.26-3.19 5-6.24-.46-5.33-3.11-10.57-5.23-15.38-2.39-5.43-5.03-10.74-7.51-16.13l-5.86 5.86c7.17 3.77 15.37 5.51 22.96 8.25 1.11.4 2.21.81 3.31 1.24.49.19.98.39 1.46.59.16.06.32.15.48.2.03 0-.85-.37-.42-.18.28.12.56.24.84.37 2.1.93 4.16 1.94 6.15 3.09.96.55 1.89 1.13 2.81 1.75.45.3.89.62 1.33.94.1.07.2.15.3.22.39.26-.42-.3-.37-.29.22.05.59.47.77.62.82.68 1.61 1.39 2.36 2.15.37.37.73.76 1.08 1.15.16.18.32.37.47.55.14.17.8.97.34.42s.13.19.24.34c.16.23.32.46.48.7.33.51.65 1.03.94 1.56s.53 1.11.82 1.64c.22.41-.21-.5-.19-.46.08.13.13.31.19.46.12.31.23.62.34.94.4 1.19.68 2.4.91 3.63.19 1.02-.07-.83.03.2.03.32.07.64.09.96.06.76.08 1.52.07 2.28-.01 3.37 3.62 5.18 6.45 3.7 4.01-2.1 8-4.23 12.08-6.2a126.07 126.07 0 0 1 3.92-1.82c.21-.09.43-.18.64-.28 1.07-.46-.83.33.24-.1 1.69-.68 3.4-1.33 5.14-1.88s3.4-.98 5.14-1.33c.85-.17 1.7-.31 2.55-.44-.99.15.13 0 .49-.05.5-.05.99-.1 1.49-.13 1.92-.14 3.84-.16 5.76-.07 1 .04 2 .11 3 .2.52.05 1.04.1 1.56.16.27.03.53.06.79.1-.64-.08-.03 0 .28.04 4.27.63 8.43 1.55 12.45 3.13-.87-.34.34.15.58.26.42.19.84.39 1.26.6.88.44 1.75.91 2.6 1.41.75.44 1.48.9 2.2 1.39.38.26.76.52 1.14.79.19.13.38.27.56.41.11.08 1.01.81.24.17 3 2.45 5.64 5.13 8.09 8.13-.62-.76.27.37.39.53.28.38.55.76.81 1.14.57.82 1.11 1.65 1.63 2.5 1.01 1.65 1.93 3.36 2.76 5.11.2.43.39.85.59 1.28.33.73.05.09-.01-.05.09.22.18.43.27.65.4.98.76 1.97 1.1 2.98.6 1.78 1.11 3.59 1.51 5.43.2.92.38 1.84.54 2.76.08.46.15.93.21 1.39-.15-1.07.06.65.09.95.19 1.99.25 3.98.23 5.98-.09 8.42-.68 16.76-1.75 25.12-.41 3.2-1.19 6.48-.83 9.72.29 2.69.89 5.3 1.69 7.88 1.8 5.79 4.2 11.39 6.33 17.06 1.14 3.04 2.22 6.1 3.14 9.2.46 1.56.88 3.12 1.24 4.7a52.602 52.602 0 0 1 .64 3.26c.03.21.24 1.48.12.77-.13-.77.05.47.06.62.03.31.06.61.08.92.06.77.09 1.54.1 2.32 0 .67-.01 1.34-.06 2-.02.33-.07.65-.09.98-.02.41-.25.37.06-.41-.07.17-.06.41-.09.6-.22 1.3-.59 2.53-1.03 3.77-.24.69.16-.37.16-.37.01.06-.16.35-.19.43-.14.28-.28.56-.43.84-.32.59-.69 1.15-1.08 1.71-.56.82.6-.67-.07.09-.22.25-.43.5-.66.74-.5.53-1.03 1.01-1.59 1.48l7.32 3.03c-.56-4.99-1.51-9.88-3.45-14.53-1.52-3.64-3.45-6.98-5.72-10.2-2.03-2.88-4.18-5.68-6-8.7a50.048 50.048 0 0 1-2.8-5.39c-.08-.19-.3-.75.05.12-.1-.26-.21-.52-.31-.78-.19-.48-.37-.97-.54-1.46-.41-1.16-.78-2.34-1.1-3.54-.7-2.55-1.18-5.04-2.39-7.43-.89-1.75-2.17-3.41-3.65-4.7-2.55-2.22-5.66-3.78-8.99-4.42-1.97-.38-3.96-.45-5.95-.63s-4.16-.39-6.24-.62l-1.27-.15c-.32-.04-.64-.07-.96-.12.13.02.97.14.18.02-1.08-.16-2.16-.32-3.23-.52-2.41-.44-4.8-.99-7.14-1.72-1.2-.37-2.38-.8-3.55-1.26-.75-.29-.08-.03.06.03l-.96-.42c-.64-.29-1.27-.6-1.9-.93a39.38 39.38 0 0 1-3.43-2.01c-.52-.34-1.03-.69-1.53-1.06.03.02-.96-.71-.47-.35.34.26-.66-.53-.77-.62-2.33-1.94-4.42-4.14-6.31-6.5-1.33-1.66-4.1-1.51-5.63-.34-1.8 1.39-2 3.55-1.1 5.53 3.6 7.93 7.2 15.85 10.8 23.78.51 1.13 1.02 2.26 1.54 3.38.93 2.05 4.06 2.7 5.86 1.54 2.11-1.36 2.53-3.67 1.54-5.86Z"/>
  <path d="M261.98 117.94c-13.34-7.43 8.93-35.96-19.23-48.84 2.84 15.59-.56 23.21-5.03 37.6-.53-10.33-2.32-16.12-7.84-24.86-5.52-8.75-14.82-15.52-25.15-16.11 9.08 13.5 11.25 25.82 9.52 42-10.31-24.55-21.06-26.08-33.39-36.92 2.01 13.15 4.48 28.71 10.23 40.71-8.25-3.93-25.12-15.62-32.44-21.08-.1 5.7 1.45 27.45 10.37 34.63 4.44 3.57 12.12 5.23 26.8 7.31 0 0 54.01 6.89 40.12-7.68 0 0 29.35-4.89 26.04-6.74Z" fill="#77170e"/>
  <path d="M264.14 114.24c-.3-.17-.62-.48-.93-.59.82.31.72.61.32.23-.13-.12-.26-.23-.38-.35-.19-.19-.36-.46-.57-.62.82.66.52.76.27.34-.11-.19-.24-.37-.35-.56-.15-.26-.26-.55-.42-.82-.25-.44.41 1.14.21.48-.05-.16-.12-.32-.17-.48-.22-.68-.35-1.38-.48-2.08-.15-.76.12 1.18.05.4-.01-.19-.04-.38-.06-.57-.03-.39-.06-.78-.07-1.17-.03-.82-.03-1.64 0-2.46.05-1.7.18-3.4.31-5.1.61-8.16.85-16.72-3.5-24.01-3.1-5.19-8.03-8.96-13.46-11.47-3.51-1.63-6.98 1.03-6.3 4.84.17.92.32 1.85.45 2.78-.1-.73.06.48.07.62.05.43.09.85.13 1.28.15 1.6.23 3.2.23 4.8 0 1.48-.07 2.95-.21 4.42-.03.36-.08.71-.12 1.07-.14 1.19.15-.91-.04.26-.11.7-.23 1.39-.36 2.08-1.18 6.13-3.34 12.05-5.19 18l8.42 1.14c-.22-4.15-.64-8.34-1.69-12.37-.98-3.76-2.55-7.38-4.43-10.78-4.09-7.41-9.66-14.01-17.2-18.09-4.34-2.34-9.03-3.71-13.95-4.03-3.16-.2-5.45 3.83-3.7 6.45 2.13 3.18 3.98 6.5 5.56 9.98.38.84-.2-.54.17.39.16.41.33.83.49 1.24a52.073 52.073 0 0 1 2.17 7.35c.18.85.34 1.7.49 2.56.06.37.11.74.17 1.11-.15-1.01.04.34.06.54.19 1.71.31 3.44.36 5.16.11 3.84-.12 7.67-.52 11.49l7.99-2.16c-3.21-7.6-7.26-14.88-12.93-20.93-4.08-4.35-8.98-7.76-13.82-11.2-1.3-.92-2.59-1.86-3.87-2.82-.14-.1-.65-.4-.11-.08.58.34-.13-.11-.22-.18-.33-.26-.66-.53-.99-.79-.72-.58-1.42-1.18-2.11-1.79-1.39-1.22-3.53-1.74-5.19-.67s-2.27 2.87-1.97 4.84c2.16 14.19 4.45 28.65 10.66 41.73l5.86-5.86c-5.8-2.78-11.22-6.41-16.57-9.97s-10.7-7.26-15.88-11.11c-2.73-2.03-6.4.74-6.45 3.7-.07 4.51.47 9.05 1.16 13.49.9 5.88 2.38 11.76 5.08 17.08 1.24 2.44 2.87 4.86 4.93 6.68s4.18 2.95 6.61 3.97c5.66 2.36 11.93 3.25 17.95 4.17 5.8.89 11.6 1.53 17.45 1.95 7.97.57 16.07.92 24-.27 3.07-.46 6.46-1.32 8.76-3.54 2.77-2.68 2.75-6.77.66-9.85-.59-.87-1.26-1.7-1.98-2.46l-1.89 7.16c3.53-.59 7.05-1.24 10.55-1.92 4.8-.94 9.87-1.73 14.43-3.55 1.49-.59 2.93-1.27 3.8-2.7 1.36-2.25.48-5.08-1.72-6.39-1.93-1.15-4.79-.5-5.86 1.54s-.52 4.64 1.54 5.86c-1.52-.91-2.4-3.59-1.33-5.38.56-.93.83-1 .49-.67 1.22-1.17.89-.6.49-.42-.62.27-.82.28.21-.06-.37.12-.73.27-1.1.4-2.03.67-4.13 1.16-6.22 1.64-4.73 1.08-9.5 1.98-14.27 2.83-1.1.19-2.2.39-3.3.57-3.34.56-3.91 5.03-1.89 7.16.25.27.49.55.73.82.51.57-.52-.79-.25-.33.08.14.19.27.28.41.15.23.27.48.41.72.36.61-.26-.77-.23-.55.02.12.09.24.12.35.24.99-.06-.8-.03-.43 0 .1.02.22 0 .31-.08.49.22-1.37.1-.75-.17.85.21-.41.23-.42-.06.06-.1.19-.15.26-.36.54.38-.51.44-.54-.14.09-.32.31-.43.43-.4.47.98-.65.51-.39-.11.06-.2.15-.31.21-.21.12-.42.24-.64.36-.12.07-.26.11-.38.18-.13.08 1.19-.45.5-.22-1.28.43-2.56.77-3.89 1-.24.04-1.53.22-.62.1.86-.11.08-.01-.14.01s-.42.05-.63.07c-.85.09-1.7.16-2.56.21-1.84.12-3.68.16-5.52.17-3.79.01-7.57-.15-11.35-.39-4.44-.29-8.85-.8-13.28-1.23 0 0 1.13.16.41.05-.54-.09-1.09-.16-1.64-.24-1.03-.15-2.06-.31-3.09-.47-1.78-.28-3.55-.57-5.32-.89-2.81-.52-5.63-1.1-8.36-1.93-.54-.16-1.08-.34-1.61-.52-.44-.16-1.23-.29-1.58-.6.31.27.82.37.19.07l-.69-.33c-.43-.22-.86-.45-1.28-.7-.37-.22-.72-.46-1.07-.7-.61-.42.13-.05.26.21-.12-.23-.54-.46-.74-.64-.4-.37-.77-.77-1.12-1.18-.11-.12-.66-.81-.23-.27s-.23-.34-.36-.53a25.31 25.31 0 0 1-1.85-3.24c-.13-.26-.25-.52-.37-.78-.07-.15-.21-.38-.23-.53 0 0 .32.8.15.35-.24-.65-.51-1.29-.74-1.95-.91-2.59-1.59-5.26-2.13-7.95-.26-1.31-.49-2.63-.69-3.95l-.12-.85c-.11-.78.11.9-.01-.11-.08-.63-.15-1.25-.22-1.88-.21-2.01-.37-4.03-.43-6.05-.02-.68-.03-1.36-.02-2.04l-6.45 3.7c5.18 3.86 10.5 7.54 15.88 11.11s10.77 7.18 16.57 9.97c3.95 1.9 7.74-1.92 5.86-5.86-.17-.36-.34-.72-.51-1.09-.11-.24-.22-.49-.33-.74-.18-.42-.21-.5-.1-.23.16.36-.28-.67-.33-.81a84.692 84.692 0 0 1-2.16-6.09c-1.05-3.34-1.93-6.74-2.7-10.16-1.53-6.8-2.61-13.69-3.66-20.57-2.39 1.39-4.78 2.78-7.16 4.17 4.53 3.96 9.56 7.22 14.37 10.82.27.2.53.44.82.62-.66-.4-.37-.29.05.04.58.46 1.15.93 1.72 1.41 1.1.94 2.17 1.92 3.19 2.95a49.29 49.29 0 0 1 3.14 3.48c.13.16.78.96.44.54-.37-.46.06.08.15.2.13.17.26.35.39.52.57.77 1.11 1.56 1.64 2.36 2.72 4.13 4.9 8.57 6.82 13.12.7 1.66 3.21 2.5 4.84 1.97 1.94-.63 2.94-2.17 3.15-4.13.81-7.72.78-15.52-.86-23.14s-4.98-14.63-9.25-21.02l-3.7 6.45c.44.03.88.08 1.32.11.5.03-.14-.03-.21-.04l.74.12c.92.16 1.84.37 2.74.62.78.22 1.55.47 2.31.76.23.09.46.18.7.27-.06-.02-.61-.28-.16-.07s.91.42 1.36.64c1.63.82 3.19 1.78 4.66 2.85.15.11.3.23.46.34.53.39-.47-.41.03.03.33.29.69.56 1.02.85.67.58 1.32 1.19 1.95 1.82s1.23 1.28 1.81 1.96c.29.34.56.69.85 1.02.32.37-.04-.06-.08-.12.19.25.38.51.57.76 1.14 1.56 2.15 3.22 3.11 4.9.87 1.51 1.68 3.06 2.4 4.65.1.21.19.43.28.64-.02-.04-.27-.68-.1-.22.14.37.3.75.44 1.12.3.8.56 1.6.8 2.42.53 1.79.91 3.61 1.19 5.45.03.18.05.36.08.54-.14-.92 0-.03.01.16a82.539 82.539 0 0 1 .41 5.08c.12 2.14 1.54 3.92 3.72 4.21s4.06-1.01 4.7-3.07c1.92-6.17 4.18-12.31 5.32-18.69 1.27-7.11.98-14.09-.29-21.18l-6.3 4.84c1.32.61 2.61 1.28 3.84 2.04.47.29.94.59 1.39.91.26.18.52.38.78.56-.93-.67.17.15.35.29.82.69 1.59 1.43 2.3 2.22.19.21.37.42.54.63.58.69-.05.26 0-.01-.03.17.78 1.11.9 1.31.52.82.85 1.96 1.44 2.7-.04-.05-.39-1-.14-.33.09.23.18.46.27.7.2.54.37 1.09.52 1.65.24.87.43 1.74.58 2.63.03.19.15.53.11.72.17-.89-.08-.73-.03-.17.05.49.1.97.13 1.46.52 7.32-1.39 14.67-.21 21.96.65 4 2.89 7.56 6.44 9.58 1.95 1.11 4.77.52 5.86-1.54s.54-4.68-1.54-5.86ZM169.58 290.39c12.99-.49 25.99.49 38.97 0 2.24-.08 4.39-1.91 4.29-4.29-.1-2.25-1.89-4.38-4.29-4.29-12.99.49-25.99-.49-38.97 0-2.24.08-4.39 1.91-4.29 4.29.1 2.25 1.89 4.38 4.29 4.29Z"/>
</svg>
