<svg xmlns="http://www.w3.org/2000/svg" viewBox="0 0 1579.62 797.58">
  <g fill="#fff">
    <path d="M421.51 455.32c-25.87 0-46.84-20.97-46.84-46.85 0-22.19 15.43-40.76 36.14-45.6-.35 0-.69-.03-1.04-.03-29.86 0-54.07 24.21-54.07 54.07s24.21 54.07 54.07 54.07c24.24 0 44.75-15.95 51.62-37.92-8.25 13.35-23.02 22.25-39.87 22.25ZM464.13 252.92l7.08 1.34-7.08 1.34a9.026 9.026 0 0 0-7.44 7.44l-1.34 20.57-1.34-20.57a9.026 9.026 0 0 0-7.44-7.44l-7.08-1.34 7.08-1.34a9.026 9.026 0 0 0 7.44-7.44l1.34-20.57 1.34 20.57a9.026 9.026 0 0 0 7.44 7.44ZM325.03 533.83l7.08 1.34-7.08 1.34a9.026 9.026 0 0 0-7.44 7.44l-1.34 20.57-1.34-20.57a9.026 9.026 0 0 0-7.44-7.44l-7.08-1.34 7.08-1.34a9.026 9.026 0 0 0 7.44-7.44l1.34-20.57 1.34 20.57a9.026 9.026 0 0 0 7.44 7.44ZM479.26 329.5l-.53 4.06-.53-4.06a3.546 3.546 0 0 0-2.93-2.93l-4.06-.53 4.06-.53a3.546 3.546 0 0 0 2.93-2.93l.53-4.06.53 4.06a3.546 3.546 0 0 0 2.93 2.93l4.06.53-4.06.53a3.546 3.546 0 0 0-2.93 2.93ZM556.98 376l-.53 4.06-.53-4.06a3.546 3.546 0 0 0-2.93-2.93l-4.06-.53 4.06-.53a3.546 3.546 0 0 0 2.93-2.93l.53-4.06.53 4.06a3.546 3.546 0 0 0 2.93 2.93l4.06.53-4.06.53a3.546 3.546 0 0 0-2.93 2.93ZM593.05 187.03l-.53 4.06-.53-4.06a3.546 3.546 0 0 0-2.93-2.93l-4.06-.53 4.06-.53a3.546 3.546 0 0 0 2.93-2.93l.53-4.06.53 4.06a3.546 3.546 0 0 0 2.93 2.93l4.06.53-4.06.53a3.546 3.546 0 0 0-2.93 2.93ZM738.39 205.89l-.53 4.06-.53-4.06a3.546 3.546 0 0 0-2.93-2.93l-4.06-.53 4.06-.53a3.546 3.546 0 0 0 2.93-2.93l.53-4.06.53 4.06a3.546 3.546 0 0 0 2.93 2.93l4.06.53-4.06.53a3.546 3.546 0 0 0-2.93 2.93ZM825.43 220.84l-.53 4.06-.53-4.06a3.546 3.546 0 0 0-2.93-2.93l-4.06-.53 4.06-.53a3.546 3.546 0 0 0 2.93-2.93l.53-4.06.53 4.06a3.546 3.546 0 0 0 2.93 2.93l4.06.53-4.06.53a3.546 3.546 0 0 0-2.93 2.93ZM814.13 127.01l-.53 4.06-.53-4.06a3.546 3.546 0 0 0-2.93-2.93l-4.06-.53 4.06-.53a3.546 3.546 0 0 0 2.93-2.93l.53-4.06.53 4.06a3.546 3.546 0 0 0 2.93 2.93l4.06.53-4.06.53a3.546 3.546 0 0 0-2.93 2.93ZM892.74 314.46l-.53 4.06-.53-4.06a3.546 3.546 0 0 0-2.93-2.93l-4.06-.53 4.06-.53a3.546 3.546 0 0 0 2.93-2.93l.53-4.06.53 4.06a3.546 3.546 0 0 0 2.93 2.93l4.06.53-4.06.53a3.546 3.546 0 0 0-2.93 2.93ZM970.84 377.71l-.53 4.06-.53-4.06a3.546 3.546 0 0 0-2.93-2.93l-4.06-.53 4.06-.53a3.546 3.546 0 0 0 2.93-2.93l.53-4.06.53 4.06a3.546 3.546 0 0 0 2.93 2.93l4.06.53-4.06.53a3.546 3.546 0 0 0-2.93 2.93ZM710.77 129.59l-.53 4.06-.53-4.06a3.546 3.546 0 0 0-2.93-2.93l-4.06-.53 4.06-.53a3.546 3.546 0 0 0 2.93-2.93l.53-4.06.53 4.06a3.546 3.546 0 0 0 2.93 2.93l4.06.53-4.06.53a3.546 3.546 0 0 0-2.93 2.93ZM401.54 505.82l-.53 4.06-.53-4.06a3.546 3.546 0 0 0-2.93-2.93l-4.06-.53 4.06-.53a3.546 3.546 0 0 0 2.93-2.93l.53-4.06.53 4.06a3.546 3.546 0 0 0 2.93 2.93l4.06.53-4.06.53a3.546 3.546 0 0 0-2.93 2.93Z"/>
    <path d="m440.35 416.04-.53 4.06-.53-4.06a3.546 3.546 0 0 0-2.93-2.93l-4.06-.53 4.06-.53a3.546 3.546 0 0 0 2.93-2.93l.53-4.06.53 4.06a3.546 3.546 0 0 0 2.93 2.93l4.06.53-4.06.53a3.546 3.546 0 0 0-2.93 2.93ZM400.75 288.33l-.53 4.06-.53-4.06a3.546 3.546 0 0 0-2.93-2.93l-4.06-.53 4.06-.53a3.546 3.546 0 0 0 2.93-2.93l.53-4.06.53 4.06a3.546 3.546 0 0 0 2.93 2.93l4.06.53-4.06.53a3.546 3.546 0 0 0-2.93 2.93ZM803.19 356.16c-.77-.64-1.71-1.1-2.74-1.27l-13.19-.86 13.19-.86a5.73 5.73 0 0 0 2.74-1.27l-5.48-6.24 6.24 5.48c.64-.77 1.1-1.71 1.27-2.74l.86-13.19.86 13.19a5.73 5.73 0 0 0 1.27 2.74l6.24-5.48-5.48 6.24c.77.64 1.71 1.1 2.74 1.27l13.19.86-13.19.86a5.73 5.73 0 0 0-2.74 1.27l5.48 6.24-6.24-5.48c-.64.77-1.1 1.71-1.27 2.74l-.86 13.19-.86-13.19a5.73 5.73 0 0 0-1.27-2.74l-6.24 5.48 5.48-6.24ZM726.17 420.1H713.1"/>
    <circle cx="904.23" cy="224.9" r="4.5"/>
    <circle cx="666.22" cy="469.4" r="4.5"/>
    <circle cx="532.29" cy="233.29" r="4.5"/>
    <path d="M747.27 190.41v-6.84M1554.98 453.49l-7.08-1.34 7.08-1.34a9.026 9.026 0 0 0 7.44-7.44l1.34-20.57 1.34 20.57a9.026 9.026 0 0 0 7.44 7.44l7.08 1.34-7.08 1.34a9.026 9.026 0 0 0-7.44 7.44l-1.34 20.57-1.34-20.57a9.026 9.026 0 0 0-7.44-7.44ZM555.19 584.19l-7.08-1.34 7.08-1.34a9.026 9.026 0 0 0 7.44-7.44l1.34-20.57 1.34 20.57a9.026 9.026 0 0 0 7.44 7.44l7.08 1.34-7.08 1.34a9.026 9.026 0 0 0-7.44 7.44l-1.34 20.57-1.34-20.57a9.026 9.026 0 0 0-7.44-7.44ZM1539.85 376.9l.53-4.06.53 4.06a3.546 3.546 0 0 0 2.93 2.93l4.06.53-4.06.53a3.546 3.546 0 0 0-2.93 2.93l-.53 4.06-.53-4.06a3.546 3.546 0 0 0-2.93-2.93l-4.06-.53 4.06-.53a3.546 3.546 0 0 0 2.93-2.93ZM1462.13 390.41l.53-4.06.53 4.06a3.546 3.546 0 0 0 2.93 2.93l4.06.53-4.06.53a3.546 3.546 0 0 0-2.93 2.93l-.53 4.06-.53-4.06a3.546 3.546 0 0 0-2.93-2.93l-4.06-.53 4.06-.53a3.546 3.546 0 0 0 2.93-2.93ZM1415.05 507.7l.53-4.06.53 4.06a3.546 3.546 0 0 0 2.93 2.93l4.06.53-4.06.53a3.546 3.546 0 0 0-2.93 2.93l-.53 4.06-.53-4.06a3.546 3.546 0 0 0-2.93-2.93l-4.06-.53 4.06-.53a3.546 3.546 0 0 0 2.93-2.93ZM1350.72 510.51l.53-4.06.53 4.06a3.546 3.546 0 0 0 2.93 2.93l4.06.53-4.06.53a3.546 3.546 0 0 0-2.93 2.93l-.53 4.06-.53-4.06a3.546 3.546 0 0 0-2.93-2.93l-4.06-.53 4.06-.53a3.546 3.546 0 0 0 2.93-2.93ZM1193.68 485.56l.53-4.06.53 4.06a3.546 3.546 0 0 0 2.93 2.93l4.06.53-4.06.53a3.546 3.546 0 0 0-2.93 2.93l-.53 4.06-.53-4.06a3.546 3.546 0 0 0-2.93-2.93l-4.06-.53 4.06-.53a3.546 3.546 0 0 0 2.93-2.93ZM1204.98 579.39l.53-4.06.53 4.06a3.546 3.546 0 0 0 2.93 2.93l4.06.53-4.06.53a3.546 3.546 0 0 0-2.93 2.93l-.53 4.06-.53-4.06a3.546 3.546 0 0 0-2.93-2.93l-4.06-.53 4.06-.53a3.546 3.546 0 0 0 2.93-2.93ZM1126.37 391.95l.53-4.06.53 4.06a3.546 3.546 0 0 0 2.93 2.93l4.06.53-4.06.53a3.546 3.546 0 0 0-2.93 2.93l-.53 4.06-.53-4.06a3.546 3.546 0 0 0-2.93-2.93l-4.06-.53 4.06-.53a3.546 3.546 0 0 0 2.93-2.93ZM1048.27 328.69l.53-4.06.53 4.06a3.546 3.546 0 0 0 2.93 2.93l4.06.53-4.06.53a3.546 3.546 0 0 0-2.93 2.93l-.53 4.06-.53-4.06a3.546 3.546 0 0 0-2.93-2.93l-4.06-.53 4.06-.53a3.546 3.546 0 0 0 2.93-2.93ZM1308.34 556.82l.53-4.06.53 4.06a3.546 3.546 0 0 0 2.93 2.93l4.06.53-4.06.53a3.546 3.546 0 0 0-2.93 2.93l-.53 4.06-.53-4.06a3.546 3.546 0 0 0-2.93-2.93l-4.06-.53 4.06-.53a3.546 3.546 0 0 0 2.93-2.93ZM1215.92 350.24c.77.64 1.71 1.1 2.74 1.27l13.19.86-13.19.86a5.73 5.73 0 0 0-2.74 1.27l5.48 6.24-6.24-5.48c-.64.77-1.1 1.71-1.27 2.74l-.86 13.19-.86-13.19a5.73 5.73 0 0 0-1.27-2.74l-6.24 5.48 5.48-6.24c-.77-.64-1.71-1.1-2.74-1.27l-13.19-.86 13.19-.86a5.73 5.73 0 0 0 2.74-1.27l-5.48-6.24 6.24 5.48c.64-.77 1.1-1.71 1.27-2.74l.86-13.19.86 13.19a5.73 5.73 0 0 0 1.27 2.74l6.24-5.48-5.48 6.24ZM1292.94 286.3h13.07"/>
    <circle cx="1114.88" cy="481.5" r="4.5"/>
    <circle cx="1352.89" cy="237" r="4.5"/>
    <circle cx="1486.82" cy="473.11" r="4.5"/>
    <path d="M1271.84 515.99v6.85M240.33 463.53l.53-4.06.53 4.06a3.546 3.546 0 0 0 2.93 2.93l4.06.53-4.06.53a3.546 3.546 0 0 0-2.93 2.93l-.53 4.06-.53-4.06a3.546 3.546 0 0 0-2.93-2.93l-4.06-.53 4.06-.53a3.546 3.546 0 0 0 2.93-2.93ZM83.3 438.58l.53-4.06.53 4.06a3.546 3.546 0 0 0 2.93 2.93l4.06.53-4.06.53a3.546 3.546 0 0 0-2.93 2.93l-.53 4.06-.53-4.06a3.546 3.546 0 0 0-2.93-2.93l-4.06-.53 4.06-.53a3.546 3.546 0 0 0 2.93-2.93ZM94.6 532.41l.53-4.06.53 4.06a3.546 3.546 0 0 0 2.93 2.93l4.06.53-4.06.53a3.546 3.546 0 0 0-2.93 2.93l-.53 4.06-.53-4.06a3.546 3.546 0 0 0-2.93-2.93l-4.06-.53 4.06-.53a3.546 3.546 0 0 0 2.93-2.93ZM15.99 344.97l.53-4.06.53 4.06a3.546 3.546 0 0 0 2.93 2.93l4.06.53-4.06.53a3.546 3.546 0 0 0-2.93 2.93l-.53 4.06-.53-4.06a3.546 3.546 0 0 0-2.93-2.93L9 348.43l4.06-.53a3.546 3.546 0 0 0 2.93-2.93ZM197.96 509.84l.53-4.06.53 4.06a3.546 3.546 0 0 0 2.93 2.93l4.06.53-4.06.53a3.546 3.546 0 0 0-2.93 2.93l-.53 4.06-.53-4.06a3.546 3.546 0 0 0-2.93-2.93l-4.06-.53 4.06-.53a3.546 3.546 0 0 0 2.93-2.93Z"/>
    <circle cx="4.5" cy="434.52" r="4.5"/>
    <path d="M161.46 469.01v6.85M671.24 169.16l-.53 4.06-.53-4.06a3.546 3.546 0 0 0-2.93-2.93l-4.06-.53 4.06-.53a3.546 3.546 0 0 0 2.93-2.93l.53-4.06.53 4.06a3.546 3.546 0 0 0 2.93 2.93l4.06.53-4.06.53a3.546 3.546 0 0 0-2.93 2.93Z"/>
  </g>
  <circle cx="1308.44" cy="426.63" r="32.28" fill="#f9b80f"/>
  <circle cx="1118.3" cy="31.21" r="31.21" fill="#f94936"/>
  <circle cx="411.76" cy="765.98" r="31.61" fill="#3b8d7c"/>
  <circle cx="245.29" cy="179.74" r="32.28" fill="#7fa8d6"/>
  <circle cx="528.25" cy="90.41" r="20.14" fill="#f9b80f"/>
  <circle cx="104.12" cy="386.98" r="10.07" fill="#f94936"/>
  <circle cx="1470.18" cy="209.86" r="19.82" fill="#3b8d7c"/>
  <circle cx="1231.16" cy="773.47" r="22.95" fill="#7fa8d6"/>
  <g fill="#fff">
    <path d="M1266.32 167.91c-.22-.04-.45-.08-.68-.12l3.72-19.21c.22.05.45.07.68.11l-3.72 19.21ZM1281.4 86.54c.22.04.45.08.68.12l-3.72 19.2c-.22-.05-.45-.07-.68-.11l3.72-19.21ZM1265.9 170.08l-.46 2.38c-.03.16-.18.28-.34.28h-.07a.339.339 0 0 1-.27-.4l.46-2.37c.22.05.45.08.68.12ZM1281.82 84.37l.46-2.39c.04-.19.22-.31.4-.27.19.04.31.22.27.4l-.46 2.38c-.22-.05-.45-.08-.68-.12ZM1282.26 167.75c-.22.05-.45.08-.68.12l-3.81-19.2.68-.12 3.81 19.19ZM1265.46 86.69c.22-.05.45-.08.68-.12l3.81 19.19c-.23.04-.45.07-.68.12l-3.81-19.19ZM1283.16 172.29a.33.33 0 0 1-.27.4h-.07a.35.35 0 0 1-.34-.28l-.47-2.38c.22-.04.45-.08.68-.12l.47 2.37ZM1264.56 82.16a.33.33 0 0 1 .27-.4c.18-.03.37.08.4.27l.47 2.39c-.22.04-.45.08-.68.12l-.47-2.38ZM1297.29 161.31l-.57.39-10.94-16.2c.19-.13.38-.25.57-.39l10.94 16.2ZM1250.43 93.13l.57-.39 10.94 16.2c-.19.13-.38.25-.57.39l-10.94-16.2ZM1299.89 165.16c.11.16.06.37-.09.48-.06.04-.13.06-.19.06-.11 0-.22-.05-.29-.15l-1.37-2.02.57-.39 1.37 2.03ZM1247.83 89.28a.35.35 0 0 1 .09-.48.35.35 0 0 1 .48.09l1.37 2.03-.57.39-1.37-2.03ZM1233.29 119.01l19.21 3.72c-.05.22-.07.45-.11.68l-19.21-3.72c.04-.22.08-.45.12-.68ZM1314.54 134.76c-.04.22-.08.45-.12.68l-19.2-3.72c.05-.22.07-.45.11-.68l19.21 3.72ZM1228.62 118.8a.339.339 0 0 1-.27-.4c.04-.19.22-.31.4-.27l2.37.46c-.05.22-.08.45-.12.68l-2.38-.46ZM1319.1 135.64c.19.04.31.22.27.4-.03.16-.18.28-.34.28h-.07l-2.38-.46c.05-.22.08-.45.12-.68l2.39.46ZM1239.64 103.93l16.26 10.88c-.13.19-.24.39-.37.58l-16.27-10.88c.13-.19.25-.39.37-.58ZM1308.44 149.94c-.13.19-.24.39-.37.58l-16.26-10.87c.13-.19.24-.39.37-.58l16.26 10.88ZM1235.42 101.93a.341.341 0 0 1-.09-.48c.11-.16.32-.2.48-.09l2.01 1.34c-.13.19-.25.38-.37.58l-2.02-1.35ZM1312.3 152.51c.16.11.2.32.09.48-.09.14-.27.19-.42.13-.02 0-.04-.02-.06-.03l-2.02-1.35c.13-.19.25-.38.37-.58l2.02 1.35ZM1233.33 135.62c-.05-.22-.08-.45-.12-.68l19.2-3.81c.04.23.07.45.12.68l-19.2 3.81ZM1314.38 118.83c.05.22.08.45.12.68l-19.19 3.81c-.04-.23-.07-.45-.12-.68l19.19-3.81ZM1319.33 118.19a.33.33 0 0 1-.27.4l-2.39.47c-.04-.22-.08-.45-.12-.68l2.38-.47c.19-.03.37.08.4.27ZM1228.66 135.84l2.38-.47c.04.22.08.45.12.68l-2.37.47h-.07a.35.35 0 0 1-.34-.28.33.33 0 0 1 .27-.4ZM1307.95 103.79l.39.57-16.2 10.94c-.13-.19-.25-.38-.39-.57l16.2-10.94ZM1239.77 150.66l-.39-.57 16.21-10.94c.13.19.25.38.39.57l-16.2 10.94ZM1310.16 103.13l-.39-.57 2.03-1.37a.35.35 0 0 1 .48.09c.11.16.06.37-.09.48l-2.03 1.37ZM1237.56 151.32l.39.57-2.02 1.37c-.06.04-.13.06-.19.06-.11 0-.22-.05-.29-.15a.35.35 0 0 1 .09-.48l2.02-1.37ZM1296.57 92.65c.19.13.38.25.57.38l-10.87 16.25c-.19-.13-.38-.25-.57-.38l10.87-16.25ZM1251.15 161.8c-.19-.13-.38-.25-.57-.38l10.87-16.25c.19.13.38.25.57.38l-10.87 16.25ZM1298.36 91.2c-.19-.13-.38-.25-.57-.38l1.36-2.04c.1-.16.32-.2.48-.09.16.11.2.32.09.48l-1.36 2.03ZM1249.35 163.25c.19.13.38.25.57.38l-1.36 2.03c-.07.1-.17.15-.29.15a.33.33 0 0 1-.19-.06.341.341 0 0 1-.09-.48l1.36-2.03ZM1274.17 149.04v34.47c0 .17-.14.31-.31.31s-.31-.14-.31-.31v-34.47c.1 0 .2.02.31.02s.2-.01.31-.02ZM1273.55 105.41V70.94c0-.17.14-.31.31-.31s.31.14.31.31v34.47c-.1 0-.2-.02-.31-.02s-.2.01-.31.02ZM1246.88 62.89a.346.346 0 0 1 .64-.26l18.33 44.31c-.21.08-.43.16-.64.25l-18.32-44.3ZM1300.84 191.55c.07.18-.01.38-.19.45-.04.02-.09.03-.13.03a.36.36 0 0 1-.32-.21l-18.33-44.31c.21-.08.43-.16.64-.25l18.32 44.3ZM1300.27 62.65c.07-.18.27-.26.45-.19s.26.27.19.45l-18.37 44.28c-.21-.09-.42-.17-.64-.25l18.37-44.29ZM1247.45 191.79c-.05.13-.18.21-.32.21-.04 0-.09 0-.13-.03a.342.342 0 0 1-.19-.45l18.37-44.28c.21.09.42.17.64.25l-18.37 44.29ZM1209.26 153.57l44.31-18.33c.08.21.16.43.25.64l-44.3 18.32s-.09.03-.13.03a.36.36 0 0 1-.32-.21c-.07-.18.01-.38.19-.45ZM1338.19 100.24c.18-.07.38.01.45.19s-.01.38-.19.45l-44.31 18.33c-.08-.21-.16-.43-.25-.64l44.3-18.32ZM1338.43 153.63a.342.342 0 0 1-.13.66c-.04 0-.09 0-.13-.03l-44.28-18.37c.09-.21.17-.42.25-.64l44.29 18.37ZM1209.29 100.81a.342.342 0 0 1-.19-.45c.07-.18.27-.26.45-.19l44.28 18.37c-.09.21-.17.42-.25.64l-44.29-18.37ZM1289.07 111.58l24.38-24.38c.12-.12.32-.12.44 0s.12.32 0 .44l-24.38 24.38c-.14-.15-.29-.29-.44-.44ZM1258.65 142.87l-24.38 24.38c-.06.06-.14.09-.22.09s-.16-.03-.22-.09a.314.314 0 0 1 0-.44l24.38-24.38c.14.15.29.29.44.44ZM1289.5 142.43l24.38 24.38c.12.12.12.32 0 .44-.06.06-.14.09-.22.09s-.16-.03-.22-.09l-24.38-24.38c.15-.14.29-.29.44-.44ZM1258.22 112.01l-24.38-24.38c-.12-.12-.12-.32 0-.44s.32-.12.44 0l24.38 24.38c-.15.14-.29.29-.44.44ZM1252.04 127.53h-34.47c-.17 0-.31-.14-.31-.31s.14-.31.31-.31h34.47c0 .1-.02.2-.02.31 0 .1.01.2.02.31ZM1295.67 126.91h34.47c.17 0 .31.14.31.31 0 .17-.14.31-.31.31h-34.47c0-.1.02-.2.02-.31s-.01-.2-.02-.31Z"/>
  </g>
</svg>
